<svg width="871" height="545" viewBox="0 0 871 545" fill="none" xmlns="http://www.w3.org/2000/svg">
<g opacity="0.6">
<ellipse cx="290.984" cy="530" rx="63" ry="15" fill="#D9D9D9" fill-opacity="0.5"/>
<ellipse cx="704.984" cy="507.5" rx="63" ry="15.5" fill="black" fill-opacity="0.1"/>
<path d="M522.643 507.578C553.302 500.368 621.484 487.029 648.94 491.355C651.228 475.732 665.138 449.174 702.478 467.921C701.106 457.706 702.478 436.556 718.952 433.672C726.731 416.847 688.476 383.198 473.223 383.198C257.97 383.198 229.782 420.453 242.595 439.08C254.035 430.066 278.012 421.053 282.405 457.106C292.015 452.9 309.037 451.337 300.252 478.737C331.826 479.338 400.19 485.947 421.057 507.578C440.276 506.377 480.361 505.776 486.95 512.987L242.595 522C186.31 522 154.486 517.526 139.984 507.578C120.928 494.508 188.141 485.347 217.884 484.145C222.003 483.544 226.395 481.621 211.02 478.737C191.801 475.132 168.464 485.948 154.736 467.921C142.381 469.724 115.749 468.642 108.061 449.895L0.983887 446.29C3.27186 440.281 19.1047 428.264 64.132 428.264C61.3865 421.654 60.5628 408.435 79.2327 408.435C73.7415 389.808 69.8977 352.554 98.4517 352.554C72.8263 338.734 30.087 302.081 64.132 266.029C58.1833 237.788 62.7593 181.306 128.653 181.306C194.547 181.306 194.547 223.367 186.31 244.397C192.716 234.783 205.529 233.942 205.529 307.489C205.529 381.035 230.24 352.554 242.595 329.12C249.459 316.502 263.186 306.047 263.186 365.172C271.423 356.159 287.896 346.065 287.896 377.791C324.047 373.585 411.723 365.172 473.223 365.172C534.723 365.172 592.197 373.585 613.246 377.791C631.55 378.992 659.921 366.614 626.974 307.489C594.027 248.363 642.533 254.011 670.903 264.226C669.073 257.616 669.531 244.397 686.004 244.397C702.478 244.397 718.493 272.037 724.442 285.857C738.628 273.84 766.998 241.152 766.998 206.542C766.998 171.932 788.048 192.121 798.573 206.542C822.367 183.709 869.957 160.756 869.957 251.608C870.84 276.518 862.109 325.446 821.128 328.924C828.379 330.022 835.936 338.133 828.774 365.172C819.988 398.34 830.604 383.799 837.011 372.383C843.417 359.764 856.23 348.949 856.23 406.632C856.23 464.316 799.488 478.737 771.117 478.737C786.675 484.746 811.202 496.763 784.845 496.763C758.487 496.763 670.903 522 626.974 522C647.566 517.193 681.886 507.578 654.43 507.578H522.643Z" fill="#B9D1FF"/>
<path d="M704.984 485.5C674.184 483.9 649.817 499.5 641.484 507.5C648.651 507.5 659.884 506.4 663.484 508C667.084 509.6 658.984 513.833 652.484 515C663.284 513.8 663.984 517.167 662.984 519L758.984 500C750.184 479.6 719.317 481.833 704.984 485.5Z" fill="black" fill-opacity="0.1"/>
<path fill-rule="evenodd" clip-rule="evenodd" d="M571.703 441.876C567.354 448.647 512.953 454 446.484 454C377.172 454 320.984 448.18 320.984 441C320.984 433.82 377.172 428 446.484 428C500.245 428 546.111 431.502 563.985 436.423C564.125 432.316 575.488 429 589.484 429C603.567 429 614.984 432.358 614.984 436.5C614.984 440.642 603.567 444 589.484 444C582.569 444 576.297 443.19 571.703 441.876Z" fill="black" fill-opacity="0.1"/>
<path d="M281.484 504.5C259.884 505.3 244.484 516.167 239.484 521.5L331.984 518.5C324.151 513.5 303.084 503.7 281.484 504.5Z" fill="black" fill-opacity="0.1"/>
<path d="M856.484 246C841.984 240 829.484 244.5 819.484 276.5C819.097 277.739 816.78 277.531 816.511 276.261C814.982 269.048 811.374 261.653 804.484 259.5C780.484 252 765.984 273 764.984 295C764.461 306.5 776.849 285.319 798.484 291.5C817.282 296.871 819.253 309.052 819.46 318.003C819.498 319.659 820.828 321.013 822.474 320.821C835.681 319.28 852.711 307.82 859.484 287.5C867.484 263.5 867.484 250.552 856.484 246Z" fill="#83ADFF"/>
<path d="M84.409 405.645C82.5669 394.198 81.1168 383.287 89.3942 378.651C103.42 370.797 112.944 382.437 118.592 397.163C119.383 399.222 123.131 398.993 123.65 396.849C129.146 374.156 144.634 347.676 176.394 371.151C210.785 396.57 212.92 438.815 209.244 460.425C208.958 462.105 206.834 462.563 205.786 461.22C182.353 431.21 139.428 396.795 122.886 424.445C122.26 425.492 120.865 425.875 119.868 425.172C103.549 413.667 94.874 405.704 87.6762 407.444C86.2776 407.782 84.6376 407.066 84.409 405.645Z" fill="#83ADFF"/>
<path d="M89.4349 285.197C81.8349 277.597 71.2682 282.03 66.9349 285.197C52.5349 299.597 60.9349 318.197 66.9349 325.697C74.4349 337.03 96.6839 358.8 111.484 348C117.483 344.654 114.484 325.697 129.984 325.697C145.484 325.697 173.499 336 172.984 325.697C171.984 305.697 145.984 256 114.484 257C89.2839 257.8 92.2372 282 96.8638 294C94.0049 290.195 91.353 287.115 89.4349 285.197Z" fill="#83ADFF"/>
<path d="M821.168 392.023C800.452 388.208 787.638 393.45 781.119 399.748C780.269 400.569 777.539 399.512 777.763 398.352C781.305 380.047 790.591 353.744 807.135 356.14C833.763 359.998 822.836 371.139 822.39 391.031C822.376 391.661 821.788 392.137 821.168 392.023Z" fill="#83ADFF"/>
</g>
<path d="M385.614 217.121L401.078 227.062L385.614 233.689" stroke="#0057FF" stroke-width="4.90206" stroke-linecap="round" stroke-linejoin="round"/>
<path d="M461.275 210.493L441.945 222.091L461.275 229.823" stroke="#0057FF" stroke-width="4.90206" stroke-linecap="round" stroke-linejoin="round"/>
<path d="M446.364 240.868L401.629 245.839L420.407 265.721L446.364 240.868Z" fill="white" stroke="#0057FF" stroke-width="4.90206" stroke-linecap="round" stroke-linejoin="round"/>
<path d="M447.177 99.8185C422.471 86.0928 390.15 81.3541 377.078 80.7005C382.143 66.1577 400.51 38.6408 433.451 44.9154C466.393 51.1901 488.354 72.6938 495.217 82.6613C496.301 95.0506 497.444 123.38 490.55 141.997C490.32 143.029 489.917 144.026 489.335 144.983C489.765 144.02 490.17 143.023 490.55 141.997C493.027 130.865 475.439 115.52 447.177 99.8185Z" fill="#A8C6FF"/>
<path d="M385.901 64.5889C381.98 68.9027 378.385 77.1708 377.078 80.7657C382.176 80.7657 389.006 81.7461 391.784 82.2363C376.882 79.4911 381.653 69.3275 385.901 64.5889Z" fill="#2E2E2E" stroke="#2E2E2E" stroke-width="2.94124" stroke-linejoin="round"/>
<path d="M437.373 80.275L444.235 57.7255C450.118 56.9412 469.236 69.4905 478.06 75.8632C481.197 88.8046 474.792 107.4 471.197 115.08L442.275 97.9225C445.804 86.5497 440.477 81.4189 437.373 80.275Z" fill="#CBDDFF"/>
<path d="M495.29 86.9149L495.707 94.0011C494.769 92.4775 493.22 90.4103 491.037 87.975C494.223 89.711 495.173 88.3894 495.29 86.9149L495.216 85.6676C495.288 86.0493 495.324 86.4885 495.29 86.9149Z" fill="#2E2E2E"/>
<path d="M401.587 83.7068C406.489 70.3078 423.058 46.6472 450.117 59.1965C470.707 68.7454 484.088 80.2243 491.037 87.975M491.037 87.975C493.22 90.4103 494.769 92.4775 495.707 94.0011L495.216 85.6676C495.535 87.3693 495.145 90.213 491.037 87.975Z" stroke="#2E2E2E" stroke-width="2.94124" stroke-linecap="round" stroke-linejoin="round"/>
<ellipse cx="421.701" cy="116.543" rx="25.8539" ry="73.5838" transform="rotate(-68.9216 421.701 116.543)" fill="#174CB4"/>
<path d="M442.764 97.4323C435.705 93.9028 425.116 90.406 420.705 89.0988C423.156 84.5235 430.019 76.3534 437.862 80.2751C445.705 84.1967 444.398 93.3472 442.764 97.4323Z" fill="#659AFF"/>
<path d="M366.291 82.2358C350.115 86.6477 335.702 104.197 407.469 139.1C434.267 148.904 488.451 162.63 490.804 139.1" stroke="#2E75FF" stroke-width="2.94124" stroke-linecap="round" stroke-linejoin="round"/>
<path d="M425.279 189.596C423.902 188.142 422.2 186.598 420.253 185.054C416.689 182.227 412.167 179.29 406.987 176.781C396.656 171.777 383.485 168.371 369.997 171.222C343.258 176.873 334.07 194.994 331.506 206.944C328.472 221.091 329.843 234.182 336.148 247.212C342.157 259.633 352.589 271.876 367.66 284.921C382.739 297.973 402.585 311.93 427.566 327.745C428.37 328.254 429.395 328.252 430.197 327.739C512.172 275.346 538.478 238.776 544.802 211.697C547.521 200.053 546.503 190.333 544.816 182.143C543.623 176.216 539.159 166.423 529.75 158.694C520.252 150.89 505.861 145.309 485.094 147.707C447.292 152.073 431.635 176.253 425.279 189.596Z" fill="#2E75FF" stroke="#2E75FF" stroke-width="4.90206" stroke-linejoin="round"/>
<path d="M419.222 235.647C420.263 255.27 406.44 268.961 388.882 269.893C371.324 270.824 360.1 259.141 359.058 239.517C358.017 219.893 368.01 206.207 385.568 205.275C403.126 204.344 418.181 216.023 419.222 235.647ZM419.222 235.647C418.807 235.007 422.567 233.057 440.928 230.373M440.928 230.373C441.97 249.997 457.047 265.15 474.605 264.218C492.163 263.287 505.553 246.624 504.512 227C503.47 207.376 488.393 192.223 470.835 193.155C453.277 194.086 439.887 210.75 440.928 230.373Z" stroke="#1545A3" stroke-width="4.90206"/>
<path d="M394.404 240.07L409.868 250.011L394.404 256.638" stroke="#2E2E2E" stroke-width="4.90206" stroke-linecap="round" stroke-linejoin="round"/>
<path d="M470.066 233.442L450.736 245.04L470.066 252.772" stroke="#2E2E2E" stroke-width="4.90206" stroke-linecap="round" stroke-linejoin="round"/>
<path d="M455.155 263.818L410.419 268.788L429.197 288.671L455.155 263.818Z" fill="white" stroke="#2E2E2E" stroke-width="4.90206" stroke-linecap="round" stroke-linejoin="round"/>
<path d="M186.984 294C201.984 290 201.064 288.286 204.984 274C211.038 289.873 214.984 291.5 225.484 291.5C210.508 299.437 207.984 304.5 207.984 322C204.984 305.5 196.484 296 186.984 294Z" fill="#6D9FFF" stroke="#6D9FFF" stroke-width="2.94124" stroke-linejoin="round"/>
<path d="M623.371 335.117L681.467 393.214C682.616 394.363 684.478 394.363 685.627 393.214L784.411 294.43C785.559 293.282 785.559 291.419 784.411 290.271L726.314 232.174C725.166 231.025 723.303 231.025 722.155 232.174L721.293 233.035L623.371 330.958C622.222 332.106 622.222 333.969 623.371 335.117Z" fill="#D8E5FF" stroke="#D8E5FF" stroke-width="2.94124"/>
<path d="M705.146 299.703C704.261 298.665 704.473 297.731 706.032 296.762C706.564 297.281 707.272 298.665 705.146 299.703Z" fill="#A0BEF8" stroke="#A0BEF8" stroke-width="2.94124" stroke-linejoin="round"/>
<path d="M636.978 315.88C625.997 328.43 630.442 342.352 634.037 347.744L622.15 334.159C621.12 332.981 621.192 331.202 622.315 330.112L636.978 315.88Z" fill="#0057FF" stroke="#0057FF" stroke-width="2.94124" stroke-linejoin="round"/>
<path d="M706.096 305.096C708.449 305.88 707.567 308.037 707.077 309.508C706.828 310.488 708.547 308.527 713.45 311.959C718.352 315.39 711.489 321.273 710.018 321.763C708.547 322.253 704.136 324.214 701.194 320.292C698.253 316.371 706.096 312.449 701.194 310.978C697.554 309.886 698.701 308.005 699.93 306.434C700.117 306.196 700.339 305.987 700.604 305.841C701.768 305.196 704.009 304.4 706.096 305.096Z" fill="#A0BEF8" stroke="#A0BEF8" stroke-width="2.94124" stroke-linejoin="round"/>
<path d="M712.959 241.369L695.312 259.017L714.43 302.645L733.548 346.273L751.195 328.626L712.959 241.369Z" fill="white" stroke="white" stroke-width="2.94124" stroke-linejoin="round"/>
<path d="M776.196 280.585L788.942 293.331L776.196 306.076C784.432 297.841 779.628 285.651 776.196 280.585Z" fill="#0057FF"/>
<path d="M760.984 321.289L776.196 306.076M776.196 306.076L788.942 293.331L776.196 280.585C779.628 285.651 784.432 297.841 776.196 306.076Z" stroke="#0057FF" stroke-width="3" stroke-linecap="round" stroke-linejoin="round"/>
<path d="M763.941 231.565L788.452 292.841L746.784 248.722L763.941 231.565Z" fill="#0057FF" stroke="#0057FF" stroke-width="2.94124" stroke-linecap="round" stroke-linejoin="round"/>
<path d="M263.93 464.412L213.438 413.431L246.282 421.274L271.773 469.314C265.106 470.099 263.766 466.373 263.93 464.412Z" fill="#0057FF" stroke="#0057FF" stroke-width="2.94124" stroke-linejoin="round"/>
<path d="M230.596 389.9L271.773 469.314V389.9H230.596Z" fill="white" stroke="white" stroke-width="2.94124" stroke-linejoin="round"/>
<path d="M272.753 379.116V469.314L346.775 397.744V387.45L272.753 379.116Z" fill="white" stroke="white" stroke-width="0.980413"/>
<path d="M321.283 412.45L273.733 468.824H282.067L330.107 416.372L382.559 387.94L385.01 382.548L381.089 384.018L382.559 379.606L321.283 412.45Z" fill="#0057FF" stroke="#0057FF" stroke-width="0.980413"/>
<path d="M388.933 394.803L339.913 422.254L282.068 477.648L284.519 481.569L339.913 447.255L388.933 394.803Z" fill="#557ECE" stroke="#557ECE" stroke-width="0.980413"/>
<path d="M259.519 389.9H271.284V399.452C271.295 399.714 271.295 399.962 271.284 400.195V399.452C271.123 395.864 268.658 389.9 259.519 389.9Z" fill="#0057FF"/>
<path d="M271.284 400.195V389.9H259.519C269.323 389.9 271.447 396.763 271.284 400.195ZM271.284 400.195V459.626" stroke="#0057FF" stroke-width="2.94124" stroke-linecap="round" stroke-linejoin="round"/>
<path d="M263.269 477.477L207.269 421.477C206.886 421.094 206.886 420.473 207.269 420.091L211.765 415.595C212.148 415.212 212.769 415.212 213.151 415.595L262.146 464.59C262.345 464.788 262.441 465.064 262.464 465.344C262.674 467.87 265.967 470.785 272.263 470.785C278.552 470.785 282.718 468.75 283.033 466.325C283.069 466.046 283.162 465.769 283.361 465.57L332.559 416.372L382.406 389.27C382.788 389.063 383.261 389.131 383.568 389.438L388.005 393.875C388.468 394.338 388.355 395.117 387.78 395.43L338.441 422.254L283.189 477.506C282.674 478.022 282.879 478.925 283.487 479.327C284.279 479.85 285.009 480.612 285.009 481.569C285.009 483.115 269.788 483.518 261.836 483.53C261.602 483.53 261.377 483.451 261.218 483.279C260.34 482.326 259.849 480.587 262.893 479.198C263.565 478.891 263.791 477.999 263.269 477.477Z" fill="#6D9FFF"/>
<path d="M332.559 416.372L283.361 465.57C283.162 465.769 283.069 466.046 283.033 466.325C282.718 468.75 278.552 470.785 272.263 470.785C265.967 470.785 262.674 467.87 262.464 465.344C262.441 465.064 262.345 464.788 262.146 464.59L213.151 415.595C212.769 415.212 212.148 415.212 211.765 415.595L207.269 420.091C206.886 420.473 206.886 421.094 207.269 421.477L263.269 477.477C263.791 477.999 263.565 478.891 262.893 479.198C259.849 480.587 260.34 482.326 261.218 483.279C261.377 483.451 261.602 483.53 261.836 483.53C269.788 483.518 285.009 483.115 285.009 481.569C285.009 480.612 284.279 479.85 283.487 479.327C282.879 478.925 282.674 478.022 283.189 477.506L338.441 422.254M332.559 416.372L338.441 422.254M332.559 416.372L382.406 389.27C382.788 389.063 383.261 389.131 383.568 389.438L388.005 393.875C388.468 394.338 388.355 395.117 387.78 395.43L338.441 422.254" stroke="#6D9FFF" stroke-width="2.94124" stroke-linecap="round" stroke-linejoin="round"/>
<path d="M389.422 395.783L371.285 413.921C380.697 404.509 374.226 405.424 369.814 407.058L389.422 395.783Z" fill="#0057FF" stroke="#0057FF" stroke-width="2.94124" stroke-linejoin="round"/>
<path d="M235.984 64.7258C235.486 64.7258 235.067 65.0992 235.01 65.5941C234.953 66.0889 235.276 66.5478 235.761 66.661C238.068 67.1993 241.531 68.5109 244.433 70.6759C247.328 72.8358 249.55 75.7514 249.701 79.5092C249.702 79.6616 249.705 79.8106 249.71 79.956C249.729 80.4905 250.172 80.9117 250.707 80.9024C251.242 80.8932 251.67 80.4571 251.67 79.9222C251.67 79.7694 251.668 79.6176 251.662 79.467C251.654 77.1601 252.198 73.9207 253.826 71.2908C255.424 68.7111 258.072 66.6866 262.455 66.6866C262.997 66.6866 263.435 66.2477 263.435 65.7062C263.435 65.1647 262.997 64.7258 262.455 64.7258C260.703 64.7258 258.005 64.0589 255.758 62.0362C253.542 60.0418 251.67 56.6452 251.67 51C251.67 50.5135 251.314 50.1006 250.832 50.03C250.351 49.9593 249.891 50.2523 249.751 50.7183C249.044 53.076 247.477 56.6321 245.11 59.577C242.737 62.5288 239.679 64.7258 235.984 64.7258Z" fill="#2E75FF" stroke="#2E75FF" stroke-width="1.96083" stroke-linecap="round" stroke-linejoin="round"/>
<path d="M260.984 87.2753C266.082 87.2753 269.644 80.7392 270.788 77.4712C270.788 85.445 276.841 87.4741 281.562 87.5142C282.478 87.3599 283.461 87.2753 284.514 87.2753C283.66 87.4278 282.646 87.5234 281.562 87.5142C274.628 88.6823 271.51 93.8469 270.788 96.5892C270.788 89.9224 264.252 87.6021 260.984 87.2753Z" fill="#A8C6FF" stroke="#A8C6FF" stroke-width="2.94124" stroke-linecap="round" stroke-linejoin="round"/>
<path d="M606.618 71.2675C603.873 67.3458 596.324 66.6922 592.892 66.8556C595.016 41.5283 600.592 -2.04262 615.932 1.16798C637.011 5.57986 615.278 51.3324 606.618 71.2675Z" fill="#0057FF" stroke="#0057FF" stroke-width="1.96083" stroke-linejoin="round"/>
<path d="M587.01 102.151C575.245 82.1501 586.357 69.9603 593.383 66.3655C599.658 65.189 604.821 68.8165 606.619 70.7773C607.926 77.8036 608.775 92.1503 601.716 93.3268C594.658 94.5033 588.971 99.6995 587.01 102.151Z" fill="#FBF9F1"/>
<path d="M606.095 70.187L607.938 72.6561C607.71 74.0895 607.366 76.1209 606.99 78.1179C607.647 76.3997 606.667 72.1147 606.095 70.187Z" stroke="#0057FF" stroke-width="3.14487" stroke-linecap="round" stroke-linejoin="round"/>
<path d="M586.15 105.678C581.171 100.049 580.679 90.0128 581.103 85.249C581.119 85.0781 581.177 84.9178 581.274 84.7761C582.162 83.4727 582.698 83.0075 584.559 82.5422C586.52 82.052 590.932 78.1304 594.363 79.1108C597.795 80.0912 592.893 86.4639 594.363 89.4051C595.834 92.3464 606.128 79.601 607.109 86.4639C607.893 91.9542 603.84 93.9804 601.716 94.3072C596.005 95.7349 590.402 101.873 587.717 105.552C587.336 106.074 586.578 106.162 586.15 105.678Z" fill="#2E75FF" stroke="#2E75FF" stroke-width="0.980413"/>
<path d="M582.108 84.0132C582.5 80.0915 584.232 76.4967 585.049 75.1895C583.088 78.7189 584.559 80.5817 585.539 81.0719C583.186 81.8563 582.271 83.3596 582.108 84.0132Z" fill="#0057FF" stroke="#0057FF" stroke-width="2.94124" stroke-linejoin="round"/>
<path d="M248.649 151.62C271.477 152.356 317.568 162.946 330.823 208.012" stroke="#2E75FF" stroke-width="3.92165" stroke-linecap="round" stroke-linejoin="round"/>
<path d="M229.319 114.064C236.388 114.064 240.365 126.951 241.469 133.394C247.729 128.24 257.928 124.668 248.649 151.62C239.371 178.571 232.265 173.527 229.871 167.636C223.98 169.477 209.879 172.054 200.6 167.636C195.446 167.82 184.915 166.09 184.032 157.695C183.728 154.811 184.894 153.322 186.793 152.721C185.18 149.106 184.435 144.082 188.45 142.377C183.48 137.26 184.032 127.319 200.6 131.737C195.63 121.796 202.809 116.273 223.796 126.767C224.256 125.835 223.382 125.628 223.796 125.11C223.354 115.39 227.294 113.696 229.319 114.064Z" fill="#F4F4F4"/>
<path d="M218.324 170.013C215.157 170.179 207.224 169.913 200.824 167.513C193.49 167.013 180.424 163.413 186.824 153.013C184.657 149.846 182.024 143.313 188.824 142.513M188.824 142.513C195.624 141.713 203.324 145.179 206.324 147.013M188.824 142.513C186.824 140.846 183.824 136.513 187.824 132.513M204.324 157.513C202.49 156.013 197.624 153.013 192.824 153.013M190.824 131.013C191.964 130.287 195.011 129.691 200.133 130.785M211.824 135.013C207.133 132.743 203.249 131.451 200.133 130.785M200.133 130.785C198.53 126.194 198.624 118.013 211.824 122.013M214.324 123.013C216.49 123.679 221.424 125.513 223.824 127.513M223.824 127.513C219.824 137.113 221.157 144.513 222.324 147.013M223.824 127.513C222.99 122.846 222.924 113.613 229.324 114.013M233.324 115.513C234.99 116.346 238.924 121.113 241.324 133.513C242.657 131.179 246.324 127.213 250.324 130.013C252.99 130.679 255.924 137.313 246.324 158.513C241.924 175.713 234.49 173.346 231.324 170.013" stroke="#0057FF" stroke-width="3" stroke-linecap="round"/>
<path d="M644.791 134.351C620.855 137.326 565.584 153.976 535.984 196.776" stroke="#2E75FF" stroke-width="5.88248" stroke-linecap="round" stroke-linejoin="round"/>
<path d="M684.355 79.513C669.196 78.52 659.244 89.9012 656.163 95.7159C654.717 96.7777 653.035 99.6773 652.941 104.86C649.558 102.4 643.674 97.1715 633.954 103.224C629.128 105.417 642.79 134.704 642.79 134.704C642.79 134.704 657.318 166.388 668.196 162.871C678.443 159.557 678.443 156.243 678.443 152.471C689.682 153.917 713.102 157.347 715.927 149.157C717.066 145.855 715.471 141.193 712.979 139.457C721.443 142.286 724.33 139.306 724.835 137.559C727.23 132.421 723.185 128.209 719.864 125.409C727.283 126.777 729.087 123.662 729.067 120.798C728.988 116.278 724.416 106.8 706.768 105.047C715.57 103.667 716.542 99.0899 715.927 96.9741C713.668 86.6453 693.775 89.8359 684.111 92.7223C690.896 87.8755 697.827 80.3954 684.355 79.513Z" fill="#F4F4F4"/>
<path d="M231.824 157.513C229.824 162.313 221.657 167.513 217.824 169.513L229.824 169.013L231.824 157.513Z" fill="#0057FF" stroke="#0057FF" stroke-width="3"/>
<path d="M669.984 137L679.984 153H695.484C685.884 152.2 674.484 142 669.984 137Z" fill="#0057FF" stroke="#0057FF" stroke-width="3"/>
<path d="M641.484 131.5C635.151 121.333 625.984 100.9 639.984 100.5M644.484 100.5C646.484 101 650.984 102.7 652.984 105.5C653.817 98.6665 659.784 83.9999 676.984 79.9999C681.984 78.6665 691.984 77.3999 691.984 82.9999C691.984 85.3611 690.206 88.2202 687.775 90.9999M682.484 116.5C684.084 106.1 679.484 101.5 676.984 100.5C679.876 98.4757 684.44 94.8125 687.775 90.9999M687.775 90.9999C692.511 90.3332 703.184 89.3999 707.984 90.9999M695.484 154C701.651 155.5 714.484 156.4 716.484 148M715.484 144C715.106 143.017 714.084 141.507 712.221 140M701.484 135.5C706.511 136.374 709.976 138.184 712.221 140M712.221 140C714.808 141.167 720.984 142.3 724.984 137.5C727.069 132.866 726.282 130.776 722.984 128C721.489 126.741 718.813 125.407 716.484 124.394M644.484 137.5C650.484 151.5 665.684 174.4 678.484 154M696.984 122C705.151 121.2 711.054 122.333 712.984 123C713.802 123.29 715.08 123.784 716.484 124.394M691.984 107.5C695.368 106.857 699.597 106.34 703.984 106.225M716.484 124.394C725.684 126.484 728.984 123.669 729.484 122C730.673 108.924 716.664 105.894 703.984 106.225M703.984 106.225C709.984 105.484 720.184 101.7 712.984 92.4999" stroke="#0057FF" stroke-width="4" stroke-linecap="round"/>
<path d="M264.984 151.5C259.754 150 252.15 149.266 248.984 149.326L247.07 153.864C251.07 153.787 260.796 154.423 265.484 155.5L264.984 151.5Z" fill="#0057FF"/>
<path d="M621.484 142.5L619.484 137C625.884 134.6 636.817 132.333 641.484 131.5L644.484 138C635.284 138.8 625.484 141.5 621.484 142.5Z" fill="#0057FF"/>
<path d="M499.057 304.708C496.805 303.42 492.193 303.22 489.984 293.5" stroke="#0057FF" stroke-width="5.88248" stroke-linecap="round" stroke-linejoin="round"/>
<path d="M497.28 326.559C497.28 326.559 498.374 347.234 509.587 356.175C527.379 368.267 557.984 371 562.984 361C570.234 346.5 576.562 319.076 577.484 312C578.487 304.298 580.494 297.231 580.484 290C580.473 282.093 580.646 274.522 578.984 268C575.127 252.865 571.567 244.764 554.712 244.764C540.168 244.764 529.082 250.012 520.721 258.066C508.256 270.074 501.846 288.319 499.057 304.708C497.687 312.76 497.191 320.363 497.28 326.559Z" fill="#F4F4F4"/>
<path d="M509.587 356.175C498.374 347.234 497.28 326.559 497.28 326.559C497.191 320.363 497.687 312.76 499.057 304.708C501.846 288.319 503.018 270.008 515.484 258C520.698 252.977 529.009 249.071 538.054 246.843C544.266 241.052 550.52 241.858 554.712 244.764C549.238 244.764 543.512 245.498 538.054 246.843C529.827 254.512 521.674 273.75 518.484 315C516.074 330.333 515.601 362.2 532.984 367C526.977 365.45 513.887 361.114 509.587 356.175Z" fill="#2E75FF"/>
<path d="M513.484 344.5L496.984 326C498.984 352.5 514.151 361.333 520.484 362.5C516.484 358.9 513.984 349 513.484 344.5Z" fill="#0057FF"/>
<path d="M531.984 267.5C538.384 241.9 560.317 244.5 570.484 249C570.484 243 551.61 238.396 540.484 243C525.984 249 521.15 271 517.483 284.5C513.317 301.333 508.52 338.92 516.483 357.5C520.984 368 544.317 371 552.483 366.5C537.983 369 527.984 364.5 523.484 351.5C518.984 338.5 523.984 299.5 531.984 267.5Z" fill="#D9D9D9"/>
<rect x="543.203" y="263" width="28.2423" height="6.00968" rx="3.00484" transform="rotate(6.87296 543.203 263)" fill="#D9D9D9"/>
<rect x="538.203" y="276" width="35.0659" height="6.00968" rx="3.00484" transform="rotate(6.87296 538.203 276)" fill="#D9D9D9"/>
<rect x="535.203" y="289" width="38.2047" height="6.00968" rx="3.00484" transform="rotate(6.87296 535.203 289)" fill="#D9D9D9"/>
<rect x="532.203" y="302" width="40.2332" height="6.00968" rx="3.00484" transform="rotate(6.87296 532.203 302)" fill="#D9D9D9"/>
<rect x="530.203" y="316" width="38.3969" height="6.00968" rx="3.00484" transform="rotate(6.87296 530.203 316)" fill="#D9D9D9"/>
<rect x="529.203" y="330" width="35.7839" height="6.00968" rx="3.00484" transform="rotate(6.87296 529.203 330)" fill="#D9D9D9"/>
<rect x="529.203" y="343" width="30.7059" height="6.00968" rx="3.00484" transform="rotate(6.87296 529.203 343)" fill="#D9D9D9"/>
<path d="M578.984 308C576.984 325 571.484 354 560.484 363C547.984 373.227 523.984 370 518.984 363C498.984 357.5 496.366 333 496.984 324C501.484 258.5 520.151 254.167 527.984 252C534.484 241 547.984 240 551.984 240C558.067 240 566.984 241.5 570.984 248.5C580.584 254.9 580.484 286 579.484 300.5" stroke="#0057FF" stroke-width="4" stroke-linecap="round"/>
<path d="M292.207 304.221L370.287 289.007" stroke="#0057FF" stroke-width="3.92165" stroke-linecap="round" stroke-linejoin="round"/>
<path d="M247.137 244.23C252.314 231.073 265.6 232.503 271.596 234.862C294.672 237.468 296.99 267.835 293.861 293.479C293.409 297.192 292.842 300.805 292.207 304.221C288.942 325.592 281.288 327.007 271.596 330.007C264.288 332.269 244.708 328.332 241.056 322.566C237.405 316.801 237.835 313.577 237.961 309.154C238.08 304.958 238.278 300.321 238.578 295.465C238.805 291.807 239.089 288.025 239.441 284.215C239.799 280.331 240.546 274.449 241.056 270.607C241.737 265.478 242.243 262.445 243.235 257.814C244.323 252.737 245.613 248.103 247.137 244.23Z" fill="#F4F4F4"/>
<path d="M271.596 234.862C294.672 237.468 296.99 267.835 293.861 293.479C293.409 297.191 292.841 300.805 292.207 304.221C288.942 325.592 281.288 327.007 271.596 330.007C270.318 330.402 268.665 330.608 266.788 330.648C277.288 327.789 278.288 291.007 281.788 265.007C284.588 244.207 276.16 236.244 271.596 234.862Z" fill="#2E75FF"/>
<path d="M281.484 299C279.084 313.8 273.151 326.167 270.484 330.5C287.284 331.3 292.484 309.833 292.984 299H281.484Z" fill="#0057FF"/>
<path d="M278.788 254.508C277.588 232.508 262.288 232.341 254.788 235.008C256.955 232.008 266.688 228.907 274.288 232.507C283.788 237.007 286.788 249.507 285.788 263.007C283.047 300.007 277.788 325.007 271.788 329.507C266.988 333.107 261.621 331.007 260.288 330.007C271.288 333.007 280.288 282.008 278.788 254.508Z" fill="#D9D9D9"/>
<rect x="249.147" y="250.95" width="23.694" height="3" rx="1.5" transform="rotate(6.87296 249.147 250.95)" fill="#D9D9D9"/>
<rect x="247.147" y="260.507" width="26.5371" height="3" rx="1.5" transform="rotate(6.87296 247.147 260.507)" fill="#D9D9D9"/>
<rect x="246.147" y="270.507" width="27.3991" height="3" rx="1.5" transform="rotate(6.87296 246.147 270.507)" fill="#D9D9D9"/>
<rect x="245.147" y="280.507" width="27.3991" height="3" rx="1.5" transform="rotate(6.87296 245.147 280.507)" fill="#D9D9D9"/>
<rect x="244.147" y="290.507" width="25.8096" height="3" rx="1.5" transform="rotate(6.87296 244.147 290.507)" fill="#D9D9D9"/>
<rect x="244.147" y="300.507" width="22.9545" height="3" rx="1.5" transform="rotate(6.87296 244.147 300.507)" fill="#D9D9D9"/>
<rect x="244.147" y="309.507" width="20.751" height="3" rx="1.5" transform="rotate(6.87296 244.147 309.507)" fill="#D9D9D9"/>
<path d="M270.984 330.5C268.651 331.5 263.284 332.9 260.484 330.5C237.684 330.5 237.484 318 238.484 304C239.484 281 244.484 237.5 254.984 234.5C256.484 232 262.284 229.4 269.484 231C272.484 231.667 278.884 234 280.484 238C285.317 240 294.984 249.3 294.984 270.5L293.984 288.5M293.484 292.5L292.484 299.5" stroke="#0057FF" stroke-width="2.98" stroke-linecap="round"/>
<path d="M274.984 240.5C266.984 231 257.984 234 253.984 236C257.484 231 272.484 226.5 280.484 239C276.884 237.8 275.651 239.667 274.984 240.5Z" fill="#0057FF"/>
</svg>
