<svg width="38" height="43" viewBox="0 0 38 43" fill="none" xmlns="http://www.w3.org/2000/svg">
<path d="M19.1793 21.9695C22.1002 28.7336 25.7702 41.677 18.7601 41.677C11.75 41.677 16.2584 28.7336 19.1793 21.9695Z" fill="#0057FF"/>
<path d="M19.1793 21.9695C11.8609 21.1169 -2.27028 17.3093 1.23479 11.2383C4.73985 5.16736 14.7818 16.0578 19.1793 21.9695Z" fill="#0057FF"/>
<path d="M19.1793 21.9695C14.7818 27.8811 4.73985 37.6017 1.23479 31.5308C-2.27028 25.4598 11.8609 22.822 19.1793 21.9695Z" fill="#0057FF"/>
<path d="M19.1793 21.9695C16.2584 15.2053 12.1691 1.677 19.1792 1.677C26.1894 1.677 22.1002 15.2053 19.1793 21.9695Z" fill="#0057FF"/>
<path d="M19.1793 21.9695C23.5768 16.0578 32.8288 5.16735 36.3339 11.2383C39.839 17.3092 26.4977 21.117 19.1793 21.9695Z" fill="#0057FF"/>
<path d="M19.1793 21.9695C26.4977 22.822 40.2582 26.0448 36.7531 32.1157C33.248 38.1867 23.5768 27.8811 19.1793 21.9695Z" fill="#0057FF"/>
<path d="M19.1793 21.9695C22.1002 28.7336 25.7702 41.677 18.7601 41.677C11.75 41.677 16.2584 28.7336 19.1793 21.9695ZM19.1793 21.9695C11.8609 21.1169 -2.27028 17.3093 1.23478 11.2383C4.73985 5.16736 14.7818 16.0578 19.1793 21.9695ZM19.1793 21.9695C14.7818 27.8811 4.73985 37.6017 1.23479 31.5308C-2.27028 25.4598 11.8609 22.822 19.1793 21.9695ZM19.1793 21.9695C16.2584 15.2053 12.1691 1.677 19.1792 1.677C26.1894 1.677 22.1002 15.2053 19.1793 21.9695ZM19.1793 21.9695C23.5768 16.0578 32.8288 5.16735 36.3339 11.2383C39.839 17.3092 26.4977 21.117 19.1793 21.9695ZM19.1793 21.9695C26.4977 22.822 40.2582 26.0448 36.7531 32.1157C33.248 38.1867 23.5768 27.8811 19.1793 21.9695Z" stroke="#0057FF" stroke-width="1.38358"/>
</svg>
