<svg width="48" height="48" viewBox="0 0 48 48" fill="none" xmlns="http://www.w3.org/2000/svg">
<path fill-rule="evenodd" clip-rule="evenodd" d="M19.9013 44C19.9013 46.2091 21.6921 48 23.9013 48C26.1104 48 27.9013 46.2091 27.9013 44L27.9013 30.374C27.9987 30.4343 28.0995 30.491 28.2036 30.5438L41.7194 37.3949C43.6899 38.3937 46.0969 37.6061 47.0957 35.6356C48.0945 33.6652 47.3069 31.2581 45.3364 30.2593L32.7473 23.8779L45.8094 17.2568C47.7798 16.2579 48.5675 13.8509 47.5687 11.8804C46.5699 9.90998 44.1628 9.12232 42.1923 10.1211L28.6765 16.9723C28.2763 17.1751 27.9249 17.4361 27.6273 17.7396L27.6275 17.7023L27.6275 4C27.6275 1.79086 25.8367 1.93131e-07 23.6275 0C21.4184 -2.0336e-06 19.6275 1.79086 19.6275 4L19.6275 17.1421C19.5301 17.0817 19.4293 17.025 19.3252 16.9723L5.80937 10.1211C3.83892 9.12231 1.43186 9.90998 0.433048 11.8804C-0.565765 13.8509 0.221901 16.2579 2.19235 17.2568L15.018 23.758L2.19235 30.2593C0.221899 31.2581 -0.565767 33.6652 0.433046 35.6356C1.43186 37.6061 3.83892 38.3937 5.80937 37.3949L19.3252 30.5438C19.5308 30.4396 19.7236 30.32 19.9028 30.1872C19.9018 30.2239 19.9013 30.2608 19.9013 30.2977L19.9013 44ZM24.0009 29C26.7623 29 29.0009 26.7614 29.0009 24C29.0009 21.2386 26.7623 19 24.0009 19C21.2394 19 19.0009 21.2386 19.0009 24C19.0009 26.7614 21.2394 29 24.0009 29Z" fill="#0057FF"/>
</svg>
