<svg width="21" height="22" viewBox="0 0 21 22" fill="none" xmlns="http://www.w3.org/2000/svg">
<path d="M9.22237 1.33726C9.37775 0.760137 10.8134 0.760138 10.9688 1.33726C11.546 3.48142 12.4572 5.87697 13.8379 7.25766C15.2186 8.63835 17.6142 9.54955 19.7583 10.1268C20.3355 10.2822 20.3355 11.7179 19.7583 11.8732C17.6142 12.4505 15.2186 13.3617 13.8379 14.7424C12.4572 16.123 11.546 18.5186 10.9688 20.6628C10.8134 21.2399 9.37775 21.2399 9.22237 20.6628C8.64513 18.5186 7.73393 16.123 6.35324 14.7424C4.97255 13.3617 2.577 12.4505 0.432843 11.8732C-0.144282 11.7179 -0.144281 10.2822 0.432844 10.1268C2.577 9.54955 4.97255 8.63835 6.35324 7.25766C7.73393 5.87697 8.64513 3.48142 9.22237 1.33726Z" fill="#0057FF"/>
</svg>
