<svg width="55" height="55" viewBox="0 0 55 55" fill="none" xmlns="http://www.w3.org/2000/svg">
<path d="M46.9244 14.3756L22.1327 19.9172C21.4948 20.0598 21.0029 20.568 20.8811 21.2102L18.6703 32.867C18.5076 33.7247 19.0464 34.5592 19.895 34.764L46.8976 41.2793C47.9278 41.5279 48.9192 40.7473 48.9192 39.6875V15.9736C48.9192 14.9252 47.9476 14.1469 46.9244 14.3756Z" fill="#BFDCFF"/>
<path d="M22.0383 10C16.7083 14.6669 12.5204 16.9594 7 16.9594C7 33.9893 13.7137 38.9837 22.0383 44.2236C30.0887 40.1299 37.4574 34.4805 37.4574 16.9594C32.3177 16.9594 27.3684 14.585 22.0383 10Z" fill="#0081DE" stroke="#0081DE" stroke-width="3.27499" stroke-linejoin="round"/>
<mask id="mask0_2685_1397" style="mask-type:alpha" maskUnits="userSpaceOnUse" x="18" y="14" width="31" height="28">
<path d="M46.9244 14.3765L22.1327 19.9182C21.4948 20.0608 21.0029 20.569 20.8811 21.2112L18.6703 32.868C18.5076 33.7257 19.0464 34.5602 19.895 34.7649L46.8976 41.2803C47.9278 41.5289 48.9192 40.7482 48.9192 39.6885V15.9746C48.9192 14.9262 47.9476 14.1478 46.9244 14.3765Z" fill="#7AB7FF"/>
</mask>
<g mask="url(#mask0_2685_1397)">
<path d="M22.0354 10.0015C16.7054 14.6683 12.5175 16.9608 6.99707 16.9608C6.99707 33.9908 13.7108 38.9851 22.0354 44.2251C30.0857 40.1314 37.4545 34.482 37.4545 16.9608C32.3148 16.9608 27.3655 14.5864 22.0354 10.0015Z" fill="#76B5FF" stroke="#76B5FF" stroke-width="3.27499" stroke-linejoin="round"/>
</g>
<path fill-rule="evenodd" clip-rule="evenodd" d="M24.9081 27.7923C24.881 27.6696 24.9272 27.543 25.022 27.4606C25.9199 26.6801 26.4876 25.5295 26.4876 24.2463C26.4876 21.8949 24.5815 19.9888 22.2301 19.9888C19.8788 19.9888 17.9727 21.8949 17.9727 24.2463C17.9727 25.5685 18.5754 26.7499 19.5211 27.5308C19.6205 27.6128 19.6697 27.7424 19.642 27.8681L18.2735 34.0667C18.2283 34.2711 18.3839 34.4648 18.5933 34.4648H25.9735C26.1829 34.4648 26.3385 34.2711 26.2933 34.0667L24.9081 27.7923Z" fill="white"/>
</svg>
