<svg width="514" height="594" viewBox="0 0 514 594" fill="none" xmlns="http://www.w3.org/2000/svg">
<g clip-path="url(#clip0_129_670)">
<rect x="0.718201" width="513.282" height="593.6" rx="5" fill="#8EB4FF"/>
<path d="M127.479 228.542C127.479 366.382 307.807 261.643 307.807 415.786V467.168H-28.146V-75.298C521.73 8.69032 127.479 112.441 127.479 228.542Z" fill="url(#paint0_linear_129_670)"/>
<g filter="url(#filter0_f_129_670)">
<path d="M502.638 637.143C502.638 637.143 437.844 618.727 402.77 620.053C276.529 624.825 313.075 728.596 313.075 728.596" stroke="#0085FF" stroke-width="79.0478" stroke-linecap="round"/>
</g>
<g filter="url(#filter1_f_129_670)">
<path d="M502.638 637.143C502.638 637.143 343.827 574.13 308.753 575.456C182.512 580.228 342.689 757.576 342.689 757.576" stroke="#0000FF" stroke-width="79.0478" stroke-linecap="round"/>
</g>
<g filter="url(#filter2_f_129_670)">
<path d="M407.769 726.048C320.135 718.557 459.113 860.839 539.557 932.917L605.758 1025.76L928.932 1018.69L911.146 582.68L800.021 553.931C760.083 541.029 658.04 498.162 628.242 498.703C590.995 499.379 518.332 507.565 570.14 609.653C621.948 711.741 517.311 735.412 407.769 726.048Z" fill="url(#paint1_linear_129_670)"/>
<path d="M407.769 726.048C320.135 718.557 459.113 860.839 539.557 932.917L605.758 1025.76L928.932 1018.69L911.146 582.68L800.021 553.931C760.083 541.029 658.04 498.162 628.242 498.703C590.995 499.379 518.332 507.565 570.14 609.653C621.948 711.741 517.311 735.412 407.769 726.048Z" stroke="url(#paint2_linear_129_670)" stroke-width="98.8098"/>
</g>
<g filter="url(#filter3_df_129_670)">
<path d="M432.721 691.752C372.774 662.4 336.005 702.646 533.016 920.093L592.94 991.406L916.113 984.334L898.327 548.328L787.203 519.579C747.265 506.676 815.071 533.851 615.424 464.35C567.818 447.778 516.033 493.94 557.322 575.301C598.611 656.661 522.7 735.81 432.721 691.752Z" fill="url(#paint3_linear_129_670)"/>
<path d="M432.721 691.752C372.774 662.4 336.005 702.646 533.016 920.093L592.94 991.406L916.113 984.334L898.327 548.328L787.203 519.579C747.265 506.676 815.071 533.851 615.424 464.35C567.818 447.778 516.033 493.94 557.322 575.301C598.611 656.661 522.7 735.81 432.721 691.752Z" stroke="url(#paint4_linear_129_670)" stroke-width="98.8098"/>
</g>
<g>
<path d="M689.575 831.364C602.317 826.476 581.386 868.408 608.917 931.928L673.366 1009.69L995.736 998.236L962.613 704.16L854.329 683.045C814.723 672.757 680.986 605.024 651.264 605.985C614.111 607.187 634.798 649.602 684.739 735.457C734.68 821.312 798.647 837.474 689.575 831.364Z" fill="white"/>
</g>
<path d="M689.575 831.364C602.317 826.476 581.386 868.408 608.917 931.928L673.366 1009.69L995.736 998.236L962.613 704.16L854.329 683.045C814.723 672.757 680.986 605.024 651.264 605.985C614.111 607.187 634.798 649.602 684.739 735.457C734.68 821.312 798.647 837.474 689.575 831.364Z" stroke="white" stroke-width="98.8098"/>
<path d="M932.368 645.34L648.116 564.8" stroke="#5A8CEB" stroke-width="98.8097" stroke-linecap="round"/>
<g filter="url(#filter6_f_129_670)">
<path d="M537.221 679.336L498.674 540.144" stroke="#3470E2" stroke-width="79.0478"/>
</g>
<path d="M148.366 414.826C163.553 408.29 149.906 289.371 148.439 227.263C148.396 225.437 150.157 224.155 151.903 224.691L372.347 292.422C373.551 292.792 374.334 293.975 374.238 295.232C368.892 364.778 375.214 401.837 380.407 415.609C381.146 417.569 379.697 419.794 377.742 419.042C371.461 416.627 366.362 409.442 362.622 400.206V417.231C362.622 418.716 361.394 419.957 359.967 419.547C357.461 418.827 355.322 417.117 353.524 414.886C351.562 412.449 344.405 413.269 344.066 416.379L343.941 417.523C343.792 418.886 342.641 419.919 341.269 419.919H294.851H210.664H186.956C186.566 419.919 186.25 419.603 186.25 419.213C186.25 418.411 184.864 418.134 184.44 418.816C180.309 425.459 173.785 423.35 169.989 420.682C169.337 420.224 168.992 419.458 168.992 418.661V413.428C168.992 410.471 163.815 409.175 161.878 411.409C149.156 426.077 132.354 421.718 148.366 414.826Z" fill="#003FB8"/>
<path d="M125.211 434.2C140.398 427.663 142.53 308.745 141.682 246.637C141.657 244.811 143.419 243.529 145.165 244.065L174.008 252.927C174.989 253.228 175.713 254.056 175.862 255.07C177.314 264.916 180.526 291.889 183.613 334.373C186.893 379.523 182.246 419.736 179.512 434.2C175.774 445.506 167.666 443.159 163.251 440.056C162.598 439.597 162.254 438.832 162.254 438.035V432.802C162.254 429.845 156.591 428.242 154.422 430.251C137.899 445.553 109.009 441.173 125.211 434.2Z" fill="#1B1B1B"/>
<path d="M334.531 439.293H290.801C289.317 439.293 288.113 438.089 288.113 436.605V291.624C288.113 289.815 289.862 288.523 291.591 289.054L365.609 311.796C366.813 312.166 367.596 313.349 367.5 314.605C362.153 384.151 368.476 421.211 373.669 434.983C374.408 436.943 372.959 439.168 371.003 438.416C364.723 436.001 359.623 428.816 355.884 419.58V436.605C355.884 438.089 354.656 439.33 353.229 438.921C350.723 438.201 348.584 436.49 346.786 434.259C344.824 431.822 337.667 432.642 337.328 435.753L337.203 436.896C337.054 438.26 335.903 439.293 334.531 439.293Z" fill="#1B1B1B"/>
<path d="M301.962 458.198C296.377 446.095 301.203 420.407 305.323 410.126L186.139 342.796C201.722 390.81 192.66 446.929 179.821 466.2C160.667 469.105 179.419 514.165 219.609 527.494C259.799 540.823 302.96 522.804 319.155 501.32C315.318 498.494 307.546 470.301 301.962 458.198Z" fill="url(#paint5_linear_129_670)"/>
<path d="M268.689 507.054C236.006 513.793 206.356 487.4 192.036 472.097L182.77 486.417L227.414 546.645H290.59L343.447 520.532L306.174 472.097C309.683 481.784 301.372 500.316 268.689 507.054Z" fill="url(#paint6_linear_129_670)"/>
<path d="M292.519 509.563C229.786 533.079 203.141 488.308 187.121 448.511C163.371 460.571 128.519 475.645 85.9386 516.798C63.0336 538.935 50.5248 569.107 47.152 601.818H470.01C468.745 574.383 428.694 524.034 402.555 502.327C370.761 475.923 328.074 464.189 300.53 453.486L306.432 473.836C310.816 491.926 301.513 505.794 292.519 509.563Z" fill="#C7DCFF"/>
<path d="M299.856 432.927L304.489 411.868C289.832 407.845 212.539 390.45 199.196 364.697C201.217 388.002 256.189 432.927 299.856 432.927Z" fill="#A4C3FF"/>
<path d="M389.145 299.977C384.091 296.467 378.616 287.623 377.773 266.143V249.717H357.136V284.061C357.136 299.474 373.983 299.977 389.145 299.977Z" fill="#1B1B1B"/>
<path d="M370.44 259.404C370.44 268.191 367.234 294.897 366.823 303.206C368.974 341.029 358.399 374.805 343.237 389.968C326.811 411.447 318.396 422.738 296.908 422.738C237.128 422.738 176.453 355.01 170.556 297.309C170.556 219.566 203.013 142.658 262.793 142.658C322.573 142.658 370.44 181.66 370.44 259.404Z" fill="url(#paint7_linear_129_670)"/>
<path d="M149.709 275.006C165.885 261.818 181.63 277.961 185.297 282.761V335.937C159.415 342.584 136.121 286.085 149.709 275.006Z" fill="white"/>
<path d="M288.063 274.146V268.67C249.736 259.405 234.995 279.621 243.419 274.146C250.158 269.765 275.99 272.321 288.063 274.146Z" fill="#E1EBFF"/>
<path d="M325.969 274.082V268.899C358.295 260.129 370.728 279.264 363.623 274.082C357.94 269.936 336.152 272.354 325.969 274.082Z" fill="#CDDEFF"/>
<path d="M226.062 253.067C214.943 258.458 209.636 275.81 208.372 283.812L201.633 254.751L226.062 253.067Z" fill="#A4C3FF"/>
<path d="M238.786 253.087C232.721 222.762 228.678 240.452 227.414 253.087L213.937 213.497L237.522 217.708L238.786 253.087Z" fill="#A4C3FF"/>
<path d="M347.87 253.087C341.805 222.762 337.762 240.452 336.498 253.087L323.021 213.497L346.606 217.708L347.87 253.087Z" fill="#A4C3FF"/>
<path d="M197.09 312.051C194.309 310.859 183.879 297.221 182.767 299.16L183.191 301.943C182.672 300.384 182.564 299.513 182.767 299.16L180.972 287.375L197.09 312.051Z" fill="#A4C3FF"/>
<g filter="url(#filter7_f_129_670)">
<ellipse cx="239.751" cy="336.05" rx="29.061" ry="19.2269" transform="rotate(11.9815 239.751 336.05)" fill="#E1EBFF"/>
</g>
<path d="M165.923 279.621C168.281 288.381 171.96 291.413 173.504 291.835C173.504 292.677 171.819 294.783 165.08 296.467C158.342 298.152 160.869 305.031 162.975 308.26C170.556 310.226 183.275 315.336 173.504 320.053C161.29 325.95 156.236 294.783 151.182 288.044C146.128 281.305 162.975 268.67 165.923 279.621Z" fill="#A4C3FF"/>
<g filter="url(#filter8_f_129_670)">
<path d="M363.63 343.058C360.434 354.417 355.447 358.588 349.114 356.806C342.782 355.025 340.239 344.372 343.435 333.012C346.631 321.653 354.356 313.889 360.689 315.671C367.022 317.453 366.826 331.699 363.63 343.058Z" fill="#CDDEFF"/>
</g>
<path d="M373.051 188.206C383.058 202.959 386.755 221.987 387.832 260.5C387.86 261.507 387.051 262.352 386.043 262.352L347.438 262.352C346.495 262.352 345.715 261.631 345.659 260.69C345.092 251.215 344.475 233.985 338.638 223.56C337.809 222.079 335.925 222.821 336.058 224.513L338.874 260.42C338.956 261.462 338.132 262.352 337.087 262.352H288.385C287.909 262.352 287.453 262.164 287.117 261.828L281.015 255.725C279.886 254.596 277.955 255.395 277.955 256.992V260.56C277.955 261.55 277.153 262.352 276.163 262.352H238.894C237.904 262.352 237.102 261.559 237.09 260.569C236.95 248.942 235.44 228.76 230.437 221.534C229.654 220.403 228.257 221.105 228.257 222.481V260.911C228.257 261.753 227.671 262.481 226.849 262.662L212.278 265.86C211.511 266.028 210.943 266.685 210.873 267.467C208.715 291.462 204.411 305.02 213.24 318.66C214.004 319.842 213.291 321.421 211.889 321.298C203.183 320.53 189.274 313.625 183.233 290.186L186.993 306.673C187.311 308.066 185.948 309.243 184.698 308.551C178.379 305.058 175.543 298.346 172.623 276.608C172.59 276.365 172.508 276.124 172.37 275.92C171.781 275.051 169.934 272.571 167.187 271.197C164.686 269.947 162.133 269.512 159.184 269.934C156.236 270.355 149.581 273.536 148.234 276.232C146.549 279.601 119.505 202.105 187.735 153.249C248.648 109.632 332.197 127.979 373.051 188.206Z" fill="#1B1B1B" stroke="#1B1B1B" stroke-width="0.896051"/>
<ellipse cx="268.306" cy="299.816" rx="7.45598" ry="8.4501" transform="rotate(-4.09783 268.306 299.816)" fill="#2B62CD"/>
<path d="M276.692 288.885C281.651 291.32 287.576 301.57 288.274 306.67C285.192 300.745 271.806 290.803 262.372 292.675C260.687 285.936 268.872 285.458 276.692 288.885Z" fill="#E1EBFF"/>
<path d="M288.274 306.67C287.576 301.571 282.493 292.163 277.534 289.727" stroke="#A4C3FF" stroke-width="1.7921" stroke-linecap="round"/>
<path d="M249.724 302.349C245.2 303.85 236.665 304.618 238.72 295.686C241.289 284.521 261.37 288.573 249.724 302.349Z" fill="#EEF4FF"/>
<path d="M251 301.941C256.844 307.004 280.768 303.957 286.733 307.516C273.528 313.334 246.596 318.276 251 301.941Z" fill="#E1EBFF"/>
<circle cx="267.977" cy="299.744" r="2.48532" transform="rotate(-4.09783 267.977 299.744)" fill="#1B1B1B"/>
<path d="M250.579 300.678C253.511 297.374 256.083 295.501 261.607 293.868C268.245 291.905 278.277 292.497 284.619 302.052L287.221 306.574" stroke="#30313A" stroke-width="2.11502" stroke-linecap="round"/>
<rect x="267.562" y="296.381" width="3.97652" height="1.98826" transform="rotate(-4.09783 267.562 296.381)" fill="white"/>
<rect x="265.579" y="296.523" width="0.99413" height="1.98826" transform="rotate(-4.09783 265.579 296.523)" fill="white"/>
<ellipse cx="6.61778" cy="7.56872" rx="6.61778" ry="7.56872" transform="matrix(-0.997443 -0.0714597 -0.0714597 0.997443 347.833 291.938)" fill="#2B62CD"/>
<path d="M335.608 287.716C331.681 290.226 329.964 299.786 329.338 304.89C331.848 298.924 340.17 288.342 347.542 290.066C346.801 287.688 341.796 284.173 335.608 287.716Z" fill="#CDDEFF"/>
<path d="M331.023 295.25C332.006 292.161 335.235 285.31 343.658 285.984C352.082 286.658 355.311 289.915 355.451 291.038" stroke="#A4C3FF" stroke-width="0.896051"/>
<path d="M358.202 299.814L358.166 299.798C347.686 282.602 368.636 276.342 367.665 290.571C366.783 303.508 362.357 301.603 358.202 299.814Z" fill="#CDDEFF"/>
<path d="M357.777 299.77C353.114 304.918 335.355 302.15 330.621 305.798C340.89 311.405 360.979 316.018 357.777 299.77Z" fill="#CDDEFF"/>
<ellipse cx="1.9469" cy="2.48532" rx="1.9469" ry="2.48532" transform="matrix(-0.997443 -0.0714597 -0.0714597 0.997443 341.159 296.325)" fill="#1B1B1B"/>
<path d="M357.978 298.574C355.729 295.319 354.851 293.324 350.542 291.777C345.365 289.919 337.487 290.666 332.364 300.308L330.181 304.892" stroke="#30313A" stroke-width="2.11502" stroke-linecap="round"/>
<rect width="3.11503" height="1.98826" transform="matrix(-0.997443 -0.0714597 -0.0714597 0.997443 344.438 294.39)" fill="white"/>
<rect width="0.778758" height="1.98826" transform="matrix(-0.997443 -0.0714597 -0.0714597 0.997443 345.992 294.501)" fill="white"/>
<path d="M321.336 337.743C325.379 331.341 316.282 314.298 311.228 306.576L305.331 340.27C308.982 342.095 317.293 344.145 321.336 337.743Z" fill="white"/>
<path d="M74.9496 538.221C104.853 536.958 146.549 553.383 164.66 594.658" stroke="#A4C3FF" stroke-width="3.5842"/>
<path d="M427.893 534.01C424.804 548.751 420.48 602.998 427.893 609.4" stroke="#A4C3FF" stroke-width="3.5842" stroke-linecap="round"/>
<circle cx="316.282" cy="354.589" r="1.26352" fill="#96AFE1"/>
<circle cx="303.226" cy="317.947" r="0.842347" fill="#96AFE1"/>
<circle cx="366.401" cy="319.632" r="0.842347" fill="#96AFE1"/>
<path d="M305.125 380.214C288.583 381.052 278.827 373.926 274.586 365.961C288.017 370.013 319.122 377.699 334.392 365.961C329.302 373.507 330.285 378.939 305.125 380.214Z" fill="#CDDEFF"/>
<path d="M304.704 366.865C293.844 367.864 280.1 367.281 274.586 366.865C285.332 371.447 312.17 377.696 333.55 366.032C328.459 365.893 315.564 365.865 304.704 366.865Z" fill="#CDDEFF"/>
<path d="M275.427 365.961C279.176 368.488 290.125 373.121 306.173 373.121C322.221 373.121 331.859 368.488 334.392 365.961" stroke="#2E65D0" stroke-width="1.7921" stroke-linecap="round"/>
<path d="M308.84 383.321L301.103 383.825C299.595 383.924 298.878 385.731 299.91 386.836L302.265 389.359C302.829 389.964 303.733 390.104 304.453 389.699L309.835 386.671C311.498 385.736 310.743 383.197 308.84 383.321Z" fill="#E2ECFF"/>
<path d="M277.185 367.26C274.096 367.54 270.787 366.517 272.552 364.311C274.236 362.205 275.781 364.171 277.185 367.26Z" fill="#2E65D0"/>
<path d="M332.747 367.053C334.048 364.238 336.262 363.013 336.92 364.697C337.578 366.382 336.124 367.382 332.747 367.053Z" fill="#2E65D0"/>
<path d="M306.595 341.533C312.21 342.515 323.273 342.122 322.599 332.688C321.926 323.254 314.738 308.821 311.228 303.627" stroke="url(#paint8_linear_129_670)" stroke-width="2.68815" stroke-linecap="round"/>
<circle cx="176.031" cy="325.529" r="3.36939" fill="#003FB8"/>
<path d="M206.356 485.153C199.954 477.74 191.053 457.917 187.403 448.932C157.753 460.724 122.823 485.574 109.065 496.524C156.91 458.45 193.861 473.079 206.356 485.153Z" fill="#A3C3FF"/>
<path d="M307.437 485.995C307.437 477.15 301.961 460.725 300.698 453.565C319.229 459.967 357.556 473.36 376.509 484.732C327.653 463.243 309.964 476.308 307.437 485.995Z" fill="#A3C3FF"/>
<path d="M82.3412 377.792C82.6752 376.659 85.6388 376.659 85.9729 377.792C86.9774 381.199 88.4717 384.788 90.6285 386.944C92.7853 389.101 96.3742 390.596 99.7811 391.6C100.914 391.934 100.914 394.898 99.7811 395.232C96.3742 396.236 92.7853 397.731 90.6285 399.887C88.4717 402.044 86.9774 405.633 85.9729 409.04C85.6388 410.173 82.6752 410.173 82.3412 409.04C81.3366 405.633 79.8423 402.044 77.6855 399.887C75.5287 397.731 71.9398 396.236 68.5329 395.232C67.4001 394.898 67.4001 391.934 68.5329 391.6C71.9398 390.596 75.5287 389.101 77.6855 386.944C79.8423 384.788 81.3366 381.199 82.3412 377.792Z" fill="#D1E0FF" fill-opacity="0.5"/>
<path d="M397.338 128.053C397.672 126.92 400.636 126.92 400.97 128.053C401.974 131.46 403.468 135.049 405.625 137.206C407.782 139.363 411.371 140.857 414.778 141.861C415.911 142.196 415.911 145.159 414.778 145.493C411.371 146.498 407.782 147.992 405.625 150.149C403.468 152.306 401.974 155.895 400.97 159.301C400.636 160.434 397.672 160.434 397.338 159.301C396.333 155.895 394.839 152.306 392.682 150.149C390.526 147.992 386.937 146.498 383.53 145.493C382.397 145.159 382.397 142.196 383.53 141.861C386.937 140.857 390.526 139.363 392.682 137.206C394.839 135.049 396.333 131.46 397.338 128.053Z" fill="#D1E0FF" fill-opacity="0.5"/>
</g>
<defs>
<filter id="filter0_f_129_670" x="189.589" y="501.415" width="431.631" height="345.763" filterUnits="userSpaceOnUse" color-interpolation-filters="sRGB">
<feFlood flood-opacity="0" result="BackgroundImageFix"/>
<feBlend mode="normal" in="SourceGraphic" in2="BackgroundImageFix" result="shape"/>
<feGaussianBlur stdDeviation="39.5239" result="effect1_foregroundBlur_129_670"/>
</filter>
<filter id="filter1_f_129_670" x="141.697" y="456.865" width="479.523" height="419.283" filterUnits="userSpaceOnUse" color-interpolation-filters="sRGB">
<feFlood flood-opacity="0" result="BackgroundImageFix"/>
<feBlend mode="normal" in="SourceGraphic" in2="BackgroundImageFix" result="shape"/>
<feGaussianBlur stdDeviation="39.5239" result="effect1_foregroundBlur_129_670"/>
</filter>
<filter id="filter2_f_129_670" x="305.723" y="424.591" width="699.327" height="675.835" filterUnits="userSpaceOnUse" color-interpolation-filters="sRGB">
<feFlood flood-opacity="0" result="BackgroundImageFix"/>
<feBlend mode="normal" in="SourceGraphic" in2="BackgroundImageFix" result="shape"/>
<feGaussianBlur stdDeviation="12.3512" result="effect1_foregroundBlur_129_670"/>
</filter>
<filter id="filter3_df_129_670" x="246.649" y="322.698" width="829.571" height="827.309" filterUnits="userSpaceOnUse" color-interpolation-filters="sRGB">
<feFlood flood-opacity="0" result="BackgroundImageFix"/>
<feColorMatrix in="SourceAlpha" type="matrix" values="0 0 0 0 0 0 0 0 0 0 0 0 0 0 0 0 0 0 127 0" result="hardAlpha"/>
<feOffset dx="9.88097" dy="9.88097"/>
<feGaussianBlur stdDeviation="49.4049"/>
<feComposite in2="hardAlpha" operator="out"/>
<feColorMatrix type="matrix" values="0 0 0 0 0.16857 0 0 0 0 0.276186 0 0 0 0 0.954167 0 0 0 1 0"/>
<feBlend mode="normal" in2="BackgroundImageFix" result="effect1_dropShadow_129_670"/>
<feBlend mode="normal" in="SourceGraphic" in2="effect1_dropShadow_129_670" result="shape"/>
<feGaussianBlur stdDeviation="12.3512" result="effect2_foregroundBlur_129_670"/>
</filter>
<filter id="filter6_f_129_670" x="381.536" y="450.548" width="272.823" height="318.384" filterUnits="userSpaceOnUse" color-interpolation-filters="sRGB">
<feFlood flood-opacity="0" result="BackgroundImageFix"/>
<feBlend mode="normal" in="SourceGraphic" in2="BackgroundImageFix" result="shape"/>
<feGaussianBlur stdDeviation="39.5239" result="effect1_foregroundBlur_129_670"/>
</filter>
<filter id="filter7_f_129_670" x="188.64" y="293.891" width="102.223" height="84.3171" filterUnits="userSpaceOnUse" color-interpolation-filters="sRGB">
<feFlood flood-opacity="0" result="BackgroundImageFix"/>
<feBlend mode="normal" in="SourceGraphic" in2="BackgroundImageFix" result="shape"/>
<feGaussianBlur stdDeviation="11.2006" result="effect1_foregroundBlur_129_670"/>
</filter>
<filter id="filter8_f_129_670" x="319.653" y="293.015" width="68.5562" height="86.5887" filterUnits="userSpaceOnUse" color-interpolation-filters="sRGB">
<feFlood flood-opacity="0" result="BackgroundImageFix"/>
<feBlend mode="normal" in="SourceGraphic" in2="BackgroundImageFix" result="shape"/>
<feGaussianBlur stdDeviation="11.2006" result="effect1_foregroundBlur_129_670"/>
</filter>
<linearGradient id="paint0_linear_129_670" x1="167.891" y1="-75.298" x2="167.891" y2="467.168" gradientUnits="userSpaceOnUse">
<stop stop-color="#4182FF"/>
<stop offset="1" stop-color="#4182FF" stop-opacity="0"/>
</linearGradient>
<linearGradient id="paint1_linear_129_670" x1="386.513" y1="802.357" x2="902.679" y2="503.092" gradientUnits="userSpaceOnUse">
<stop stop-color="#0057FF"/>
<stop offset="1" stop-color="#2C72FF"/>
</linearGradient>
<linearGradient id="paint2_linear_129_670" x1="392.54" y1="855.87" x2="857.602" y2="495.74" gradientUnits="userSpaceOnUse">
<stop stop-color="#0057FF"/>
<stop offset="0.519922" stop-color="#0057FF"/>
<stop offset="1" stop-color="#528AF8"/>
</linearGradient>
<linearGradient id="paint3_linear_129_670" x1="373.694" y1="768.005" x2="889.86" y2="468.739" gradientUnits="userSpaceOnUse">
<stop stop-color="#2A72FF"/>
<stop offset="1" stop-color="#0057FF"/>
</linearGradient>
<linearGradient id="paint4_linear_129_670" x1="379.722" y1="821.518" x2="844.784" y2="461.387" gradientUnits="userSpaceOnUse">
<stop stop-color="#3470E2"/>
<stop offset="0.519922" stop-color="#0057FF"/>
<stop offset="1" stop-color="#003FB8"/>
</linearGradient>
<linearGradient id="paint5_linear_129_670" x1="218.569" y1="445.141" x2="571.934" y2="331.424" gradientUnits="userSpaceOnUse">
<stop stop-color="white"/>
<stop offset="1" stop-color="#0057FF"/>
</linearGradient>
<linearGradient id="paint6_linear_129_670" x1="262.793" y1="524.322" x2="260.266" y2="431.664" gradientUnits="userSpaceOnUse">
<stop stop-color="#A4C3FF"/>
<stop offset="0.313797" stop-color="#A4C3FF" stop-opacity="0"/>
</linearGradient>
<linearGradient id="paint7_linear_129_670" x1="291.433" y1="290.15" x2="461.587" y2="254.35" gradientUnits="userSpaceOnUse">
<stop stop-color="white"/>
<stop offset="1" stop-color="#A4C3FF"/>
</linearGradient>
<linearGradient id="paint8_linear_129_670" x1="318.809" y1="320.895" x2="311.228" y2="307.839" gradientUnits="userSpaceOnUse">
<stop stop-color="#A4C3FF"/>
<stop offset="1" stop-color="#A4C3FF" stop-opacity="0"/>
</linearGradient>
<clipPath id="clip0_129_670">
<rect x="0.718201" width="513.282" height="593.6" rx="5" fill="white"/>
</clipPath>
</defs>
</svg>
