<svg width="514" height="594" viewBox="0 0 514 594" fill="none" xmlns="http://www.w3.org/2000/svg">
<g clip-path="url(#clip0_129_825)">
<rect x="0.359131" width="513.282" height="593.6" rx="5" fill="#8EB4FF"/>
<path d="M270.315 156.625C408.155 156.625 303.416 336.953 457.559 336.953L508.941 336.953L508.941 0.999946L-33.525 0.999969C50.4633 550.876 154.214 156.625 270.315 156.625Z" fill="url(#paint0_linear_129_825)"/>
<path d="M234.91 278.669L271.432 204.305L309.235 278.669L389.456 253.192L364.52 332.451L438.343 371.215L366.08 408.057L389.456 489.239L311.158 464.896L271.432 538.126L234.27 465.427L153.408 489.239L178.823 409.98L104.521 371.215L179.626 332.451L153.408 253.192L234.91 278.669Z" fill="#6EA0FF"/>
<g filter="url(#filter0_f_129_825)">
<path d="M0.43745 -69.4112C0.43745 -69.4112 65.2316 -50.9948 100.305 -52.3207C226.547 -57.0931 190 -160.863 190 -160.863" stroke="#0085FF" stroke-width="79.0478" stroke-linecap="round"/>
</g>
<g filter="url(#filter1_f_129_825)">
<path d="M0.437239 -69.4113C0.437239 -69.4113 159.248 -6.39783 194.322 -7.72375C320.564 -12.4962 160.386 -189.844 160.386 -189.844" stroke="#0000FF" stroke-width="79.0478" stroke-linecap="round"/>
</g>
<g filter="url(#filter2_f_129_825)">
<path d="M95.3065 -158.317C182.94 -150.825 43.9622 -293.108 -36.4811 -365.185L-102.683 -458.027L-425.856 -450.954L-408.07 -14.9486L-296.946 13.8007C-257.008 26.703 -154.965 69.5697 -125.167 69.0288C-87.9194 68.3528 -15.2571 60.1665 -67.065 -41.9215C-118.873 -144.01 -14.2359 -167.681 95.3065 -158.317Z" fill="url(#paint1_linear_129_825)"/>
<path d="M95.3065 -158.317C182.94 -150.825 43.9622 -293.108 -36.4811 -365.185L-102.683 -458.027L-425.856 -450.954L-408.07 -14.9486L-296.946 13.8007C-257.008 26.703 -154.965 69.5697 -125.167 69.0288C-87.9194 68.3528 -15.2571 60.1665 -67.065 -41.9215C-118.873 -144.01 -14.2359 -167.681 95.3065 -158.317Z" stroke="url(#paint2_linear_129_825)" stroke-width="98.8098"/>
</g>
<g filter="url(#filter3_df_129_825)">
<path d="M70.354 -124.021C130.301 -94.6678 167.07 -134.914 -29.9402 -352.361L-89.8641 -423.674L-413.038 -416.602L-395.251 19.4041L-284.127 48.1534C-244.189 61.0557 -311.996 33.8806 -112.348 103.382C-64.7422 119.954 -12.9571 73.7918 -54.2463 -7.56885C-95.5355 -88.9295 -19.6248 -168.078 70.354 -124.021Z" fill="url(#paint3_linear_129_825)"/>
<path d="M70.354 -124.021C130.301 -94.6678 167.07 -134.914 -29.9402 -352.361L-89.8641 -423.674L-413.038 -416.602L-395.251 19.4041L-284.127 48.1534C-244.189 61.0557 -311.996 33.8806 -112.348 103.382C-64.7422 119.954 -12.9571 73.7918 -54.2463 -7.56885C-95.5355 -88.9295 -19.6248 -168.078 70.354 -124.021Z" stroke="url(#paint4_linear_129_825)" stroke-width="98.8098"/>
</g>
<g>
<path d="M-186.499 -263.632C-99.2418 -258.744 -78.3106 -300.676 -105.841 -364.196L-170.29 -441.954L-492.66 -430.504L-459.538 -136.428L-351.254 -115.313C-311.647 -105.025 -177.91 -37.2921 -148.188 -38.2533C-111.035 -39.4548 -131.722 -81.8703 -181.663 -167.725C-231.604 -253.58 -295.571 -269.742 -186.499 -263.632Z" fill="white"/>
</g>
<path d="M-186.499 -263.632C-99.2418 -258.744 -78.3106 -300.676 -105.841 -364.196L-170.29 -441.954L-492.66 -430.504L-459.538 -136.428L-351.254 -115.313C-311.647 -105.025 -177.91 -37.2921 -148.188 -38.2533C-111.035 -39.4548 -131.722 -81.8703 -181.663 -167.725C-231.604 -253.58 -295.571 -269.742 -186.499 -263.632Z" stroke="white" stroke-width="98.8098"/>
<path d="M-429.293 -77.6079L-145.041 2.9323" stroke="#5A8CEB" stroke-width="98.8098" stroke-linecap="round"/>
<g filter="url(#filter6_f_129_825)">
<path d="M-34.1454 -111.604L4.40186 27.5878" stroke="#3470E2" stroke-width="79.0478"/>
</g>
<path d="M356.072 98.7782L306.14 285.127L399.314 310.093C473.854 330.066 507.841 277.763 517.455 241.885C527.069 206.006 523.786 143.717 449.246 123.744L356.072 98.7782Z" fill="#2A73FF"/>
<path d="M445.379 272.479C457.819 226.053 401.675 193.633 372.048 183.227L323.028 285.109C381.06 300.659 432.94 318.904 445.379 272.479Z" fill="#1B1B1B"/>
<ellipse cx="331.042" cy="192.249" rx="104.645" ry="38.0629" transform="rotate(-75 331.042 192.249)" fill="#0057FF"/>
<ellipse cx="322.716" cy="190.248" rx="86.3037" ry="26.2249" transform="rotate(-75 322.716 190.248)" fill="#1B1B1B"/>
<circle cx="410.114" cy="148.012" r="22.8872" transform="rotate(-75 410.114 148.012)" fill="#0057FF"/>
<path d="M405.945 141.465C404.069 148.466 410.333 153.336 413.7 154.897C437.649 161.314 478.812 182.71 449.687 291.404C426.388 378.359 389.619 335.039 373.962 303.2L354.158 297.893C378.361 348.806 435.234 419.036 468.604 294.498C501.974 169.96 448.853 141.609 419.377 133.711C415.681 133.378 407.821 134.465 405.945 141.465Z" fill="#C7DCFF"/>
<path d="M228.203 241.511C256.794 191.989 316.878 200.309 343.346 210.659C336.867 238.064 322.873 256.458 316.686 262.229C312.577 266.708 309.081 294.431 294.1 300.31C273.315 308.467 273.315 274.583 273.315 284.623C273.315 332.918 241.91 334.194 230.646 316.648C218.092 297.094 212.542 268.637 228.203 241.511Z" fill="#C7DCFF"/>
<path d="M270.791 408.727C288.273 404.151 286.538 382.985 283.485 372.973C281.896 366.903 276.842 358.497 271.014 360.022C258.874 363.2 264.553 392.331 261.025 378.852C248.472 330.897 236.373 351.577 240.345 366.753C245.286 385.628 253.308 413.304 270.791 408.727Z" fill="url(#paint5_linear_129_825)"/>
<path d="M111.699 515.837C149.332 527.806 163.268 480.428 162.193 440.394C162.171 439.608 161.521 438.989 160.734 438.986C114.887 438.834 80.2279 446.402 79.8563 490.769C79.8525 491.216 79.6489 491.654 79.2983 491.932L58.6426 508.323C57.9587 508.866 57.8975 509.881 58.5113 510.502L85.3955 537.69C85.9575 538.259 86.8716 538.273 87.4517 537.723L110.192 516.163C110.587 515.788 111.179 515.672 111.699 515.837Z" fill="#F8F8F8"/>
<path d="M110.835 481.648C110.835 485.293 113.989 488.248 117.88 488.248C121.771 488.248 124.925 485.293 124.925 481.648C124.925 478.003 121.771 475.048 117.88 475.048C113.989 475.048 110.835 478.003 110.835 481.648Z" fill="#F8F8F8"/>
<path d="M111.699 515.837C149.332 527.806 163.268 480.428 162.193 440.394C162.171 439.608 161.521 438.989 160.734 438.986C114.887 438.834 80.2279 446.402 79.8562 490.769M111.699 515.837C111.179 515.672 110.587 515.788 110.192 516.163L87.4517 537.723C86.8716 538.273 85.9575 538.259 85.3955 537.69L58.5113 510.502C57.8975 509.881 57.9587 508.866 58.6426 508.323L79.2983 491.932C79.6489 491.654 79.8525 491.216 79.8562 490.769M111.699 515.837C149.771 527.946 163.59 479.313 162.149 438.993M79.8562 490.769C80.2317 445.947 115.602 438.682 162.149 438.993M162.149 438.993L123.113 476.382M110.835 481.648C110.835 485.293 113.989 488.248 117.88 488.248C121.771 488.248 124.925 485.293 124.925 481.648C124.925 478.003 121.771 475.048 117.88 475.048C113.989 475.048 110.835 478.003 110.835 481.648Z" stroke="#1B1B1B" stroke-width="5.01987"/>
<g opacity="0.5">
<path d="M505.386 606.322C493.578 581.28 478.74 533.361 507.081 533.361C535.422 533.361 517.195 581.28 505.386 606.322Z" fill="#A7C5FF"/>
<path d="M505.386 606.322C534.973 609.478 592.104 623.574 577.933 646.05C563.763 668.526 523.165 628.207 505.386 606.322Z" fill="#A7C5FF"/>
<path d="M505.386 606.322C523.165 584.436 563.763 548.449 577.933 570.924C592.104 593.4 534.973 603.166 505.386 606.322Z" fill="#A7C5FF"/>
<path d="M505.386 606.322C517.195 631.364 533.727 681.447 505.387 681.447C477.046 681.447 493.578 631.364 505.386 606.322Z" fill="#A7C5FF"/>
<path d="M505.386 606.322C487.608 628.207 450.203 668.526 436.033 646.05C421.862 623.575 475.799 609.478 505.386 606.322Z" fill="#A7C5FF"/>
<path d="M505.386 606.322C475.799 603.166 420.168 591.234 434.338 568.759C448.508 546.283 487.608 584.436 505.386 606.322Z" fill="#A7C5FF"/>
<path d="M505.386 606.322C493.578 581.28 478.74 533.361 507.081 533.361C535.422 533.361 517.195 581.28 505.386 606.322ZM505.386 606.322C534.973 609.478 592.104 623.574 577.933 646.05C563.763 668.526 523.165 628.207 505.386 606.322ZM505.386 606.322C523.165 584.436 563.763 548.449 577.933 570.924C592.104 593.4 534.973 603.166 505.386 606.322ZM505.386 606.322C517.195 631.364 533.727 681.447 505.387 681.447C477.046 681.447 493.578 631.364 505.386 606.322ZM505.386 606.322C487.608 628.207 450.203 668.526 436.033 646.05C421.862 623.575 475.799 609.478 505.386 606.322ZM505.386 606.322C475.799 603.166 420.168 591.234 434.338 568.759C448.508 546.283 487.608 584.436 505.386 606.322Z" stroke="#A7C5FF" stroke-width="11.6044"/>
</g>
<g filter="url(#filter7_b_129_825)">
<rect x="-36.0349" y="-72.9802" width="272.328" height="200.795" fill="white" fill-opacity="0.25"/>
</g>
<path fill-rule="evenodd" clip-rule="evenodd" d="M242.568 -78H228.763V-64.1954H242.568V-78ZM-28.5051 -78H-42.3098V-64.1953H-35.4074H-28.5051V-71.0976V-78ZM228.763 120.285H235.666H242.568V134.09H228.763V127.187V120.285ZM-28.5051 134.09V120.285H-42.3098V134.09H-28.5051Z" fill="white"/>
<path d="M228.763 -78V-79.8825H226.881V-78H228.763ZM242.568 -78H244.45V-79.8825H242.568V-78ZM228.763 -64.1954H226.881V-62.3129H228.763V-64.1954ZM242.568 -64.1954V-62.3129H244.45V-64.1954H242.568ZM-42.3098 -78V-79.8824H-44.1922V-78H-42.3098ZM-28.5051 -78H-26.6227V-79.8824H-28.5051V-78ZM-42.3098 -64.1953H-44.1922V-62.3129H-42.3098V-64.1953ZM-28.5051 -64.1953V-62.3129H-26.6227V-64.1953H-28.5051ZM228.763 120.285V118.402H226.881V120.285H228.763ZM242.568 120.285H244.45V118.402H242.568V120.285ZM242.568 134.09V135.972H244.45V134.09H242.568ZM228.763 134.09H226.881V135.972H228.763V134.09ZM-28.5051 120.285H-26.6227V118.402H-28.5051V120.285ZM-28.5051 134.09V135.972H-26.6227V134.09H-28.5051ZM-42.3098 120.285V118.402H-44.1922V120.285H-42.3098ZM-42.3098 134.09H-44.1922V135.972H-42.3098V134.09ZM228.763 -76.1175H242.568V-79.8825H228.763V-76.1175ZM230.646 -64.1954V-78H226.881V-64.1954H230.646ZM242.568 -66.0778H228.763V-62.3129H242.568V-66.0778ZM240.685 -78V-64.1954H244.45V-78H240.685ZM-42.3098 -76.1175H-28.5051V-79.8824H-42.3098V-76.1175ZM-40.4273 -64.1953V-78H-44.1922V-64.1953H-40.4273ZM-35.4074 -66.0778H-42.3098V-62.3129H-35.4074V-66.0778ZM-28.5051 -66.0778H-35.4074V-62.3129H-28.5051V-66.0778ZM-30.3876 -71.0976V-64.1953H-26.6227V-71.0976H-30.3876ZM-30.3876 -78V-71.0976H-26.6227V-78H-30.3876ZM235.666 118.402H228.763V122.167H235.666V118.402ZM242.568 118.402H235.666V122.167H242.568V118.402ZM244.45 134.09V120.285H240.685V134.09H244.45ZM228.763 135.972H242.568V132.207H228.763V135.972ZM226.881 127.187V134.09H230.646V127.187H226.881ZM226.881 120.285V127.187H230.646V120.285H226.881ZM-30.3876 120.285V134.09H-26.6227V120.285H-30.3876ZM-42.3098 122.167H-28.5051V118.402H-42.3098V122.167ZM-40.4273 134.09V120.285H-44.1922V134.09H-40.4273ZM-28.5051 132.207H-42.3098V135.972H-28.5051V132.207ZM-28.5051 -69.2152H228.763V-72.9801H-28.5051V-69.2152ZM-37.2899 -64.1953V120.285H-33.525V-64.1953H-37.2899ZM237.548 120.285V-64.1954H233.783V120.285H237.548ZM228.763 125.305H-28.5051V129.07H228.763V125.305Z" fill="white"/>
<circle cx="169.152" cy="-13.3693" r="30.7467" fill="white"/>
<path d="M-19.0929 102.088V38.0844C-19.0929 7.96523 0.986614 -30.3113 38.0081 -30.3113C86.9519 -30.3113 86.3244 13.6126 120.836 40.5944C143.856 58.5919 185.515 55.7881 207.812 44.5985C211.755 42.62 217.468 45.3713 217.468 49.7825V102.088C217.468 104.86 215.221 107.108 212.449 107.108H-14.073C-16.8454 107.108 -19.0929 104.86 -19.0929 102.088Z" fill="white"/>
<path d="M68.1774 398.871C68.5115 397.738 71.4751 397.738 71.8091 398.871C72.8137 402.278 74.308 405.867 76.4648 408.024C78.6216 410.181 82.2105 411.675 85.6174 412.68C86.7502 413.014 86.7502 415.977 85.6173 416.311C82.2105 417.316 78.6216 418.81 76.4648 420.967C74.308 423.124 72.8137 426.713 71.8091 430.12C71.4751 431.252 68.5115 431.252 68.1774 430.12C67.1729 426.713 65.6786 423.124 63.5218 420.967C61.365 418.81 57.7761 417.316 54.3692 416.311C53.2363 415.977 53.2363 413.014 54.3692 412.68C57.7761 411.675 61.365 410.181 63.5218 408.024C65.6786 405.867 67.1729 402.278 68.1774 398.871Z" fill="#D1E0FF" fill-opacity="0.5"/>
<path d="M454.707 48.7354C455.042 47.6025 458.005 47.6025 458.339 48.7354C459.344 52.1423 460.838 55.7312 462.995 57.888C465.152 60.0448 468.741 61.5391 472.147 62.5436C473.28 62.8777 473.28 65.8413 472.147 66.1753C468.741 67.1799 465.152 68.6741 462.995 70.831C460.838 72.9878 459.344 76.5767 458.339 79.9835C458.005 81.1164 455.042 81.1164 454.707 79.9835C453.703 76.5767 452.209 72.9878 450.052 70.831C447.895 68.6741 444.306 67.1799 440.899 66.1753C439.766 65.8413 439.766 62.8777 440.899 62.5436C444.306 61.5391 447.895 60.0448 450.052 57.888C452.209 55.7312 453.703 52.1423 454.707 48.7354Z" fill="#D1E0FF" fill-opacity="0.5"/>
</g>
<defs>
<filter id="filter0_f_129_825" x="-118.144" y="-279.446" width="431.63" height="345.763" filterUnits="userSpaceOnUse" color-interpolation-filters="sRGB">
<feFlood flood-opacity="0" result="BackgroundImageFix"/>
<feBlend mode="normal" in="SourceGraphic" in2="BackgroundImageFix" result="shape"/>
<feGaussianBlur stdDeviation="39.5239" result="effect1_foregroundBlur_129_825"/>
</filter>
<filter id="filter1_f_129_825" x="-118.145" y="-308.416" width="479.523" height="419.283" filterUnits="userSpaceOnUse" color-interpolation-filters="sRGB">
<feFlood flood-opacity="0" result="BackgroundImageFix"/>
<feBlend mode="normal" in="SourceGraphic" in2="BackgroundImageFix" result="shape"/>
<feGaussianBlur stdDeviation="39.5239" result="effect1_foregroundBlur_129_825"/>
</filter>
<filter id="filter2_f_129_825" x="-501.975" y="-532.694" width="699.327" height="675.835" filterUnits="userSpaceOnUse" color-interpolation-filters="sRGB">
<feFlood flood-opacity="0" result="BackgroundImageFix"/>
<feBlend mode="normal" in="SourceGraphic" in2="BackgroundImageFix" result="shape"/>
<feGaussianBlur stdDeviation="12.3512" result="effect1_foregroundBlur_129_825"/>
</filter>
<filter id="filter3_df_129_825" x="-553.383" y="-562.514" width="829.571" height="827.309" filterUnits="userSpaceOnUse" color-interpolation-filters="sRGB">
<feFlood flood-opacity="0" result="BackgroundImageFix"/>
<feColorMatrix in="SourceAlpha" type="matrix" values="0 0 0 0 0 0 0 0 0 0 0 0 0 0 0 0 0 0 127 0" result="hardAlpha"/>
<feOffset dx="9.88097" dy="9.88097"/>
<feGaussianBlur stdDeviation="49.4049"/>
<feComposite in2="hardAlpha" operator="out"/>
<feColorMatrix type="matrix" values="0 0 0 0 0.16857 0 0 0 0 0.276186 0 0 0 0 0.954167 0 0 0 1 0"/>
<feBlend mode="normal" in2="BackgroundImageFix" result="effect1_dropShadow_129_825"/>
<feBlend mode="normal" in="SourceGraphic" in2="effect1_dropShadow_129_825" result="shape"/>
<feGaussianBlur stdDeviation="12.3512" result="effect2_foregroundBlur_129_825"/>
</filter>
<filter id="filter6_f_129_825" x="-151.283" y="-201.2" width="272.823" height="318.384" filterUnits="userSpaceOnUse" color-interpolation-filters="sRGB">
<feFlood flood-opacity="0" result="BackgroundImageFix"/>
<feBlend mode="normal" in="SourceGraphic" in2="BackgroundImageFix" result="shape"/>
<feGaussianBlur stdDeviation="39.5239" result="effect1_foregroundBlur_129_825"/>
</filter>
<filter id="filter7_b_129_825" x="-41.0548" y="-78.0001" width="282.368" height="210.835" filterUnits="userSpaceOnUse" color-interpolation-filters="sRGB">
<feFlood flood-opacity="0" result="BackgroundImageFix"/>
<feGaussianBlur in="BackgroundImageFix" stdDeviation="2.50994"/>
<feComposite in2="SourceAlpha" operator="in" result="effect1_backgroundBlur_129_825"/>
<feBlend mode="normal" in="SourceGraphic" in2="effect1_backgroundBlur_129_825" result="shape"/>
</filter>
<linearGradient id="paint0_linear_129_825" x1="-33.525" y1="197.037" x2="508.941" y2="197.037" gradientUnits="userSpaceOnUse">
<stop stop-color="#4182FF"/>
<stop offset="1" stop-color="#4182FF" stop-opacity="0"/>
</linearGradient>
<linearGradient id="paint1_linear_129_825" x1="116.563" y1="-234.626" x2="-399.603" y2="64.6397" gradientUnits="userSpaceOnUse">
<stop stop-color="#0057FF"/>
<stop offset="1" stop-color="#2C72FF"/>
</linearGradient>
<linearGradient id="paint2_linear_129_825" x1="110.535" y1="-288.138" x2="-354.527" y2="71.992" gradientUnits="userSpaceOnUse">
<stop stop-color="#0057FF"/>
<stop offset="0.519922" stop-color="#0057FF"/>
<stop offset="1" stop-color="#528AF8"/>
</linearGradient>
<linearGradient id="paint3_linear_129_825" x1="129.381" y1="-200.273" x2="-386.785" y2="98.9926" gradientUnits="userSpaceOnUse">
<stop stop-color="#2A72FF"/>
<stop offset="1" stop-color="#0057FF"/>
</linearGradient>
<linearGradient id="paint4_linear_129_825" x1="123.354" y1="-253.786" x2="-341.709" y2="106.345" gradientUnits="userSpaceOnUse">
<stop stop-color="#3470E2"/>
<stop offset="0.519922" stop-color="#0057FF"/>
<stop offset="1" stop-color="#003FB8"/>
</linearGradient>
<linearGradient id="paint5_linear_129_825" x1="272.005" y1="408.41" x2="234.893" y2="286.453" gradientUnits="userSpaceOnUse">
<stop stop-color="#C7DCFF"/>
<stop offset="1" stop-color="#C7DCFF" stop-opacity="0"/>
</linearGradient>
<clipPath id="clip0_129_825">
<rect x="0.359131" width="513.282" height="593.6" rx="5" fill="white"/>
</clipPath>
</defs>
</svg>
