<svg width="514" height="594" viewBox="0 0 514 594" fill="none" xmlns="http://www.w3.org/2000/svg">
<g clip-path="url(#clip0_129_438)">
<rect x="6.10352e-05" width="513.282" height="593.6" rx="5" fill="#8EB4FF"/>
<path d="M-115.871 378.036C9.40937 410.53 269.202 431.269 306.127 254.273C352.284 33.0272 73.3415 9.23719 130.578 217.117C187.815 424.998 516.003 316.237 606.273 70.7908" stroke="#A4C3FF" stroke-width="12.5497" stroke-linecap="round"/>
<path d="M358.071 347.764C358.071 485.603 177.743 380.865 177.743 535.008V586.389H513.696V43.9237C-36.1803 127.912 358.071 231.662 358.071 347.764Z" fill="url(#paint0_linear_129_438)"/>
<g filter="url(#filter0_f_129_438)">
<path d="M528.274 676.047C528.274 676.047 463.48 657.631 428.406 658.957C302.165 663.729 338.711 767.499 338.711 767.499" stroke="#0085FF" stroke-width="79.0478" stroke-linecap="round"/>
</g>
<g filter="url(#filter1_f_129_438)">
<path d="M528.274 676.047C528.274 676.047 369.463 613.033 334.389 614.359C208.148 619.132 368.325 796.48 368.325 796.48" stroke="#0000FF" stroke-width="79.0478" stroke-linecap="round"/>
</g>
<g filter="url(#filter2_f_129_438)">
<path d="M433.405 764.952C345.771 757.461 484.749 899.743 565.193 971.821L631.394 1064.66L954.568 1057.59L936.782 621.584L825.658 592.835C785.719 579.932 683.677 537.066 653.879 537.607C616.631 538.283 543.969 546.469 595.777 648.557C647.585 750.645 542.948 774.316 433.405 764.952Z" fill="url(#paint1_linear_129_438)"/>
<path d="M433.405 764.952C345.771 757.461 484.749 899.743 565.193 971.821L631.394 1064.66L954.568 1057.59L936.782 621.584L825.658 592.835C785.719 579.932 683.677 537.066 653.879 537.607C616.631 538.283 543.969 546.469 595.777 648.557C647.585 750.645 542.948 774.316 433.405 764.952Z" stroke="url(#paint2_linear_129_438)" stroke-width="98.8098"/>
</g>
<g filter="url(#filter3_df_129_438)">
<path d="M458.358 730.656C398.41 701.304 361.642 741.55 558.652 958.997L618.576 1030.31L941.749 1023.24L923.963 587.232L812.839 558.482C772.901 545.58 840.707 572.755 641.06 503.254C593.454 486.682 541.669 532.844 582.958 614.205C624.247 695.565 548.336 774.714 458.358 730.656Z" fill="url(#paint3_linear_129_438)"/>
<path d="M458.358 730.656C398.41 701.304 361.642 741.55 558.652 958.997L618.576 1030.31L941.749 1023.24L923.963 587.232L812.839 558.482C772.901 545.58 840.707 572.755 641.06 503.254C593.454 486.682 541.669 532.844 582.958 614.205C624.247 695.565 548.336 774.714 458.358 730.656Z" stroke="url(#paint4_linear_129_438)" stroke-width="98.8098"/>
</g>
<g>
<path d="M715.211 870.268C627.953 865.379 607.022 907.312 634.553 970.832L699.002 1048.59L1021.37 1037.14L988.25 743.064L879.966 721.949C840.359 711.661 706.622 643.928 676.9 644.889C639.747 646.091 660.434 688.506 710.375 774.361C760.316 860.216 824.283 876.378 715.211 870.268Z" fill="white"/>
</g>
<path d="M715.211 870.268C627.953 865.379 607.022 907.312 634.553 970.832L699.002 1048.59L1021.37 1037.14L988.25 743.064L879.966 721.949C840.359 711.661 706.622 643.928 676.9 644.889C639.747 646.091 660.434 688.506 710.375 774.361C760.316 860.216 824.283 876.378 715.211 870.268Z" stroke="white" stroke-width="98.8098"/>
<g filter="url(#filter5_f_129_438)">
<path d="M562.857 718.24L524.31 579.048" stroke="#3470E2" stroke-width="79.0478"/>
</g>
<path d="M447.374 525.226L452.981 519.619L458.589 514.011L435.036 490.458L457.468 477.747L378.211 444.848L411.11 524.105L423.821 501.674L447.374 525.226Z" fill="white"/>
<path d="M-62.9507 383.53L47.4607 493.381C54.1527 500.039 63.2086 503.776 72.6485 503.776H80.7272H98.1273C109.776 503.776 115.609 489.693 107.373 481.456C104.921 479.004 101.595 477.627 98.1273 477.627H66.9906C56.8101 477.627 47.0442 473.594 39.8299 466.411L-61.291 365.728C-61.775 365.246 -62.4302 364.975 -63.1133 364.975C-64.1927 364.975 -65.0561 365.615 -65.3063 366.49C-66.0152 368.968 -66.5494 372.156 -66.3249 375.281C-66.1006 378.405 -65.1303 381.35 -62.9507 383.53Z" fill="#1B1B1B" stroke="#1B1B1B" stroke-width="2.78275"/>
<path d="M366.268 479.84L250.556 364.127C250.208 363.779 249.736 363.584 249.244 363.584H-60.6869C-62.3397 363.584 -63.1674 365.582 -61.9987 366.751L53.7139 482.464C54.0618 482.811 54.5336 483.007 55.0257 483.007H364.957C366.609 483.007 367.437 481.009 366.268 479.84Z" fill="#2A73FF"/>
<path d="M211.231 363.584L330.653 483.007" stroke="#1B1B1B" stroke-width="1.85517"/>
<path d="M165.678 363.584L285.1 483.007" stroke="#1B1B1B" stroke-width="1.85517"/>
<path d="M120.125 363.584L239.547 483.007" stroke="#1B1B1B" stroke-width="1.85517"/>
<path d="M74.5716 363.584L193.995 483.007" stroke="#1B1B1B" stroke-width="1.85517"/>
<path d="M29.0181 363.584L148.441 483.007" stroke="#1B1B1B" stroke-width="1.85517"/>
<path d="M-16.5349 363.584L102.888 483.007" stroke="#1B1B1B" stroke-width="1.85517"/>
<path d="M53.6415 483.622L-65.1658 364.815" stroke="#1B1B1B" stroke-width="2.78275"/>
<path d="M53.6418 483.007H368.82C368.82 490.394 364.388 505.168 346.659 505.168H75.8027C55.1191 505.168 52.4106 490.394 53.6418 483.007Z" fill="#0057FF"/>
<path d="M368.204 483.007H53.6418" stroke="#1B1B1B" stroke-width="2.78275"/>
<path d="M234.623 494.087H188.454" stroke="#1B1B1B" stroke-width="5.5655" stroke-linecap="round"/>
<path d="M-62.3351 343.638L48.0762 233.787C54.7682 227.129 63.8242 223.392 73.2641 223.392H81.3428H98.7428C110.391 223.392 116.225 237.475 107.988 245.712C105.536 248.164 102.21 249.541 98.7428 249.541H67.6062C57.4257 249.541 47.6597 253.574 40.4454 260.757L-60.6754 361.44C-61.1595 361.922 -61.8147 362.193 -62.4977 362.193C-63.5771 362.193 -64.4406 361.553 -64.6908 360.678C-65.3996 358.2 -65.9338 355.012 -65.7094 351.887C-65.485 348.764 -64.5148 345.818 -62.3351 343.638Z" fill="#1B1B1B" stroke="#1B1B1B" stroke-width="2.78275"/>
<path d="M366.884 247.328L251.171 363.041C250.823 363.389 250.351 363.584 249.859 363.584H-60.0714C-61.7242 363.584 -62.5519 361.586 -61.3833 360.417L54.3293 244.704C54.6772 244.357 55.1491 244.161 55.6411 244.161H365.572C367.225 244.161 368.052 246.159 366.884 247.328Z" fill="white"/>
<path d="M54.2572 244.161H369.435C369.435 236.774 365.003 222 347.274 222H76.4182C55.7346 222 53.0261 236.774 54.2572 244.161Z" fill="#0057FF"/>
<path d="M368.82 244.161H54.2574" stroke="#1B1B1B" stroke-width="2.78275"/>
<path d="M414.189 406.656C414.523 405.523 417.487 405.523 417.821 406.656C418.826 410.063 420.32 413.652 422.477 415.808C424.634 417.965 428.222 419.459 431.629 420.464C432.762 420.798 432.762 423.762 431.629 424.096C428.222 425.1 424.634 426.595 422.477 428.751C420.32 430.908 418.826 434.497 417.821 437.904C417.487 439.037 414.523 439.037 414.189 437.904C413.185 434.497 411.691 430.908 409.534 428.751C407.377 426.595 403.788 425.1 400.381 424.096C399.248 423.762 399.248 420.798 400.381 420.464C403.788 419.459 407.377 417.965 409.534 415.808C411.691 413.652 413.185 410.063 414.189 406.656Z" fill="#D1E0FF" fill-opacity="0.5"/>
<path d="M316.302 26.4007C316.636 25.2678 319.6 25.2678 319.934 26.4007C320.938 29.8076 322.432 33.3965 324.589 35.5533C326.746 37.7101 330.335 39.2044 333.742 40.2089C334.875 40.5429 334.875 43.5066 333.742 43.8406C330.335 44.8451 326.746 46.3394 324.589 48.4962C322.432 50.653 320.938 54.2419 319.934 57.6488C319.6 58.7817 316.636 58.7817 316.302 57.6488C315.297 54.2419 313.803 50.653 311.646 48.4962C309.489 46.3394 305.901 44.8451 302.494 43.8406C301.361 43.5066 301.361 40.5429 302.494 40.2089C305.901 39.2044 309.489 37.7101 311.646 35.5533C313.803 33.3965 315.297 29.8076 316.302 26.4007Z" fill="#D1E0FF" fill-opacity="0.5"/>
<path d="M529.11 -41.5505L412.83 176.295L401.952 191.531C400.668 193.33 402.146 195.669 404.283 195.107C413.809 192.599 428.624 186.499 434.855 174.825L533.085 -9.20245C536.026 -16.3156 539.645 -31.9556 532.861 -41.9302C531.913 -43.324 529.904 -43.0375 529.11 -41.5505Z" fill="#0057FF"/>
<path d="M265.141 219.471L381.345 1.76915C381.501 1.47552 381.768 1.25618 382.087 1.15938L529.387 -43.6159C530.457 -43.941 531.386 -42.8105 530.859 -41.8242L414.655 175.878C414.499 176.172 414.232 176.391 413.913 176.488L266.613 221.263C265.543 221.588 264.614 220.458 265.141 219.471Z" fill="#C7DCFF"/>
<path d="M414.411 176.337L531.287 -42.6255" stroke="#1B1B1B" stroke-width="1.88245" stroke-linecap="round"/>
<path d="M288.184 194.029L385.777 10.7377C386.09 10.1493 386.624 9.70971 387.262 9.51585L500.077 -24.7768C502.216 -25.4268 504.073 -23.1684 503.023 -21.1958L405.43 162.095C405.117 162.684 404.582 163.123 403.944 163.317L291.129 197.61C288.991 198.26 287.133 196.002 288.184 194.029Z" fill="white"/>
<path d="M414.816 175.691L269.194 219.956C267.738 220.398 267.01 222.028 267.855 223.295C270.769 227.665 276.584 232.865 284.53 230.45L407.479 193.077C417.262 190.103 418.521 182.386 417.711 177.337C417.497 176.001 416.11 175.298 414.816 175.691Z" fill="#1B1B1B" stroke="#1B1B1B" stroke-width="3.7649" stroke-linecap="round"/>
</g>
<defs>
<filter id="filter0_f_129_438" x="215.226" y="540.319" width="431.631" height="345.763" filterUnits="userSpaceOnUse" color-interpolation-filters="sRGB">
<feFlood flood-opacity="0" result="BackgroundImageFix"/>
<feBlend mode="normal" in="SourceGraphic" in2="BackgroundImageFix" result="shape"/>
<feGaussianBlur stdDeviation="39.5239" result="effect1_foregroundBlur_129_438"/>
</filter>
<filter id="filter1_f_129_438" x="167.334" y="495.768" width="479.523" height="419.283" filterUnits="userSpaceOnUse" color-interpolation-filters="sRGB">
<feFlood flood-opacity="0" result="BackgroundImageFix"/>
<feBlend mode="normal" in="SourceGraphic" in2="BackgroundImageFix" result="shape"/>
<feGaussianBlur stdDeviation="39.5239" result="effect1_foregroundBlur_129_438"/>
</filter>
<filter id="filter2_f_129_438" x="331.359" y="463.495" width="699.327" height="675.835" filterUnits="userSpaceOnUse" color-interpolation-filters="sRGB">
<feFlood flood-opacity="0" result="BackgroundImageFix"/>
<feBlend mode="normal" in="SourceGraphic" in2="BackgroundImageFix" result="shape"/>
<feGaussianBlur stdDeviation="12.3512" result="effect1_foregroundBlur_129_438"/>
</filter>
<filter id="filter3_df_129_438" x="272.286" y="361.602" width="829.571" height="827.309" filterUnits="userSpaceOnUse" color-interpolation-filters="sRGB">
<feFlood flood-opacity="0" result="BackgroundImageFix"/>
<feColorMatrix in="SourceAlpha" type="matrix" values="0 0 0 0 0 0 0 0 0 0 0 0 0 0 0 0 0 0 127 0" result="hardAlpha"/>
<feOffset dx="9.88097" dy="9.88097"/>
<feGaussianBlur stdDeviation="49.4049"/>
<feComposite in2="hardAlpha" operator="out"/>
<feColorMatrix type="matrix" values="0 0 0 0 0.16857 0 0 0 0 0.276186 0 0 0 0 0.954167 0 0 0 1 0"/>
<feBlend mode="normal" in2="BackgroundImageFix" result="effect1_dropShadow_129_438"/>
<feBlend mode="normal" in="SourceGraphic" in2="effect1_dropShadow_129_438" result="shape"/>
<feGaussianBlur stdDeviation="12.3512" result="effect2_foregroundBlur_129_438"/>
</filter>
<filter id="filter5_f_129_438" x="407.172" y="489.451" width="272.823" height="318.384" filterUnits="userSpaceOnUse" color-interpolation-filters="sRGB">
<feFlood flood-opacity="0" result="BackgroundImageFix"/>
<feBlend mode="normal" in="SourceGraphic" in2="BackgroundImageFix" result="shape"/>
<feGaussianBlur stdDeviation="39.5239" result="effect1_foregroundBlur_129_438"/>
</filter>
<linearGradient id="paint0_linear_129_438" x1="317.659" y1="43.9237" x2="317.659" y2="586.389" gradientUnits="userSpaceOnUse">
<stop stop-color="#4182FF"/>
<stop offset="1" stop-color="#4182FF" stop-opacity="0"/>
</linearGradient>
<linearGradient id="paint1_linear_129_438" x1="412.149" y1="841.261" x2="928.315" y2="541.996" gradientUnits="userSpaceOnUse">
<stop stop-color="#0057FF"/>
<stop offset="1" stop-color="#2C72FF"/>
</linearGradient>
<linearGradient id="paint2_linear_129_438" x1="418.176" y1="894.774" x2="883.239" y2="534.643" gradientUnits="userSpaceOnUse">
<stop stop-color="#0057FF"/>
<stop offset="0.519922" stop-color="#0057FF"/>
<stop offset="1" stop-color="#528AF8"/>
</linearGradient>
<linearGradient id="paint3_linear_129_438" x1="399.33" y1="806.909" x2="915.497" y2="507.643" gradientUnits="userSpaceOnUse">
<stop stop-color="#2A72FF"/>
<stop offset="1" stop-color="#0057FF"/>
</linearGradient>
<linearGradient id="paint4_linear_129_438" x1="405.358" y1="860.422" x2="870.42" y2="500.291" gradientUnits="userSpaceOnUse">
<stop stop-color="#3470E2"/>
<stop offset="0.519922" stop-color="#0057FF"/>
<stop offset="1" stop-color="#003FB8"/>
</linearGradient>
<clipPath id="clip0_129_438">
<rect x="6.10352e-05" width="513.282" height="593.6" rx="5" fill="white"/>
</clipPath>
</defs>
</svg>
