<svg width="409" height="473" viewBox="0 0 409 473" fill="none" xmlns="http://www.w3.org/2000/svg">
<g clip-path="url(#clip0_2030_2767)">
<rect width="409" height="473" fill="#8EB4FF"/>
<path d="M101.008 182.11C101.008 291.945 244.699 208.486 244.699 331.312V372.255H-22.9999V-60C415.16 6.92467 101.008 89.5963 101.008 182.11Z" fill="url(#paint0_linear_2030_2767)"/>
<g filter="url(#filter0_f_2030_2767)">
<path d="M399.946 507.697C399.946 507.697 348.316 493.022 320.368 494.079C219.775 497.881 248.896 580.569 248.896 580.569" stroke="#0085FF" stroke-width="62.9879" stroke-linecap="round"/>
</g>
<g filter="url(#filter1_f_2030_2767)">
<path d="M399.947 507.697C399.947 507.697 273.401 457.486 245.453 458.542C144.859 462.345 272.494 603.662 272.494 603.662" stroke="#0000FF" stroke-width="62.9879" stroke-linecap="round"/>
</g>
<g filter="url(#filter2_f_2030_2767)">
<path d="M324.352 578.539C254.522 572.57 365.264 685.945 429.364 743.379L482.116 817.359L739.632 811.723L725.459 464.299L636.911 441.391C605.087 431.11 523.776 396.952 500.032 397.383C470.352 397.922 412.452 404.445 453.735 485.792C495.017 567.139 411.639 586.001 324.352 578.539Z" fill="url(#paint1_linear_2030_2767)"/>
<path d="M324.352 578.539C254.522 572.57 365.264 685.945 429.364 743.379L482.116 817.359L739.632 811.723L725.459 464.299L636.911 441.391C605.087 431.11 523.776 396.952 500.032 397.383C470.352 397.922 412.452 404.445 453.735 485.792C495.017 567.139 411.639 586.001 324.352 578.539Z" stroke="url(#paint2_linear_2030_2767)" stroke-width="78.7349"/>
</g>
<g filter="url(#filter3_df_2030_2767)">
<path d="M344.235 551.211C296.466 527.822 267.168 559.892 424.152 733.161L471.902 789.985L729.417 784.35L715.244 436.926L626.697 414.017C594.873 403.736 648.903 425.39 489.818 370.01C451.884 356.804 410.62 393.588 443.52 458.419C476.421 523.25 415.933 586.318 344.235 551.211Z" fill="url(#paint3_linear_2030_2767)"/>
<path d="M344.235 551.211C296.466 527.822 267.168 559.892 424.152 733.161L471.902 789.985L729.417 784.35L715.244 436.926L626.697 414.017C594.873 403.736 648.903 425.39 489.818 370.01C451.884 356.804 410.62 393.588 443.52 458.419C476.421 523.25 415.933 586.318 344.235 551.211Z" stroke="url(#paint4_linear_2030_2767)" stroke-width="78.7349"/>
</g>
<g>
<path d="M548.904 662.458C479.374 658.563 462.695 691.976 484.633 742.592L535.988 804.551L792.863 795.427L766.47 561.098L680.186 544.273C648.626 536.075 542.06 482.103 518.376 482.869C488.772 483.827 505.256 517.625 545.05 586.037C584.845 654.449 635.816 667.328 548.904 662.458Z" fill="white"/>
</g>
<path d="M548.904 662.458C479.374 658.563 462.695 691.976 484.633 742.592L535.988 804.551L792.863 795.427L766.47 561.098L680.186 544.273C648.626 536.075 542.06 482.103 518.376 482.869C488.772 483.827 505.256 517.625 545.05 586.037C584.845 654.449 635.816 667.328 548.904 662.458Z" stroke="white" stroke-width="78.7349"/>
<path d="M742.37 514.228L515.869 450.051" stroke="#5A8CEB" stroke-width="78.7349" stroke-linecap="round"/>
<g filter="url(#filter6_f_2030_2767)">
<path d="M427.503 541.317L396.787 430.405" stroke="#3470E2" stroke-width="62.9879"/>
</g>
<path d="M117.651 330.547C129.752 325.339 118.877 230.58 117.709 181.091C117.674 179.636 119.078 178.614 120.469 179.042L296.126 233.012C297.086 233.307 297.71 234.249 297.633 235.25C293.373 290.667 298.411 320.197 302.548 331.171C303.137 332.733 301.983 334.506 300.425 333.907C295.42 331.983 291.357 326.257 288.377 318.898V332.464C288.377 333.647 287.399 334.636 286.261 334.309C284.264 333.736 282.56 332.373 281.128 330.595C279.564 328.653 273.861 329.306 273.591 331.785L273.491 332.696C273.373 333.783 272.455 334.606 271.362 334.606H234.375H167.292H148.401C148.09 334.606 147.838 334.354 147.838 334.043C147.838 333.404 146.733 333.183 146.396 333.726C143.104 339.02 137.905 337.339 134.88 335.214C134.361 334.848 134.086 334.238 134.086 333.603V329.433C134.086 327.077 129.961 326.045 128.417 327.824C118.28 339.512 104.892 336.039 117.651 330.547Z" fill="#003FB8"/>
<path d="M99.2001 345.985C111.301 340.776 113 246.018 112.325 196.529C112.305 195.073 113.709 194.052 115.1 194.479L138.083 201.541C138.865 201.781 139.441 202.44 139.561 203.248C140.718 211.094 143.277 232.587 145.736 266.439C148.35 302.416 144.647 334.46 142.469 345.985C139.49 354.994 133.03 353.123 129.511 350.651C128.992 350.286 128.717 349.676 128.717 349.041V344.871C128.717 342.515 124.204 341.238 122.476 342.839C109.31 355.032 86.2899 351.541 99.2001 345.985Z" fill="black"/>
<path d="M265.993 350.043H231.148C229.965 350.043 229.006 349.084 229.006 347.901V232.375C229.006 230.934 230.4 229.905 231.777 230.328L290.757 248.449C291.716 248.744 292.341 249.687 292.264 250.688C288.004 306.105 293.042 335.634 297.179 346.609C297.768 348.171 296.614 349.943 295.056 349.344C290.051 347.42 285.988 341.695 283.008 334.335V347.901C283.008 349.084 282.029 350.073 280.892 349.746C278.895 349.173 277.191 347.81 275.758 346.032C274.194 344.09 268.492 344.744 268.222 347.222L268.122 348.133C268.004 349.22 267.086 350.043 265.993 350.043Z" fill="black"/>
<path d="M240.041 365.107C235.591 355.463 239.436 334.994 242.72 326.802L147.75 273.151C160.167 311.41 152.946 356.128 142.715 371.484C127.452 373.799 142.395 409.704 174.42 420.325C206.445 430.946 240.836 416.588 253.741 399.469C250.684 397.217 244.491 374.751 240.041 365.107Z" fill="url(#paint5_linear_2030_2767)"/>
<path d="M213.528 404.038C187.485 409.407 163.859 388.376 152.448 376.182L145.065 387.593L180.639 435.584H230.98L273.098 414.777L243.397 376.182C246.194 383.901 239.571 398.668 213.528 404.038Z" fill="url(#paint6_linear_2030_2767)"/>
<path d="M232.517 406.037C182.529 424.775 161.298 389.1 148.532 357.389C129.607 366.998 101.836 379.01 67.9064 411.802C49.655 429.442 39.6875 453.483 37 479.549H373.947C372.94 457.687 341.025 417.568 320.197 400.271C294.862 379.231 260.848 369.881 238.9 361.353L243.603 377.569C247.097 391.983 239.684 403.034 232.517 406.037Z" fill="#C7DCFF"/>
<path d="M238.363 344.971L242.055 328.191C230.376 324.984 168.786 311.123 158.154 290.603C159.764 309.173 203.568 344.971 238.363 344.971Z" fill="#A4C3FF"/>
<path d="M309.511 239.032C305.484 236.235 301.121 229.187 300.45 212.072V198.983H284.005V226.35C284.005 238.631 297.43 239.032 309.511 239.032Z" fill="black"/>
<path d="M294.607 206.702C294.607 213.704 292.052 234.984 291.724 241.604C293.439 271.744 285.012 298.657 272.931 310.739C259.842 327.855 253.137 336.852 236.014 336.852C188.379 336.852 140.031 282.884 135.333 236.906C135.333 174.957 161.195 113.674 208.83 113.674C256.465 113.674 294.607 144.753 294.607 206.702Z" fill="url(#paint7_linear_2030_2767)"/>
<path d="M118.721 219.134C131.611 208.625 144.157 221.488 147.079 225.313V267.686C126.455 272.982 107.894 227.962 118.721 219.134Z" fill="white"/>
<path d="M228.966 218.448V214.086C198.426 206.702 186.68 222.811 193.392 218.448C198.762 214.958 219.345 216.994 228.966 218.448Z" fill="#E1EBFF"/>
<path d="M184.551 237.778L149.586 223.617" stroke="#E1EBFF" stroke-width="2.14201"/>
<path d="M259.17 218.398V214.268C284.929 207.28 294.836 222.527 289.175 218.398C284.646 215.094 267.285 217.021 259.17 218.398Z" fill="#CDDEFF"/>
<path d="M179.561 201.652C170.701 205.948 166.472 219.775 165.466 226.151L160.096 202.994L179.561 201.652Z" fill="#A4C3FF"/>
<path d="M189.7 201.668C184.867 177.504 181.646 191.6 180.639 201.668L169.899 170.121L188.693 173.477L189.7 201.668Z" fill="#A4C3FF"/>
<path d="M276.622 201.668C271.79 177.504 268.568 191.6 267.561 201.668L256.822 170.121L275.615 173.477L276.622 201.668Z" fill="#A4C3FF"/>
<path d="M156.475 248.652C154.26 247.703 145.949 236.835 145.063 238.38L145.4 240.598C144.986 239.356 144.901 238.662 145.063 238.38L143.632 228.99L156.475 248.652Z" fill="#A4C3FF"/>
<g filter="url(#filter7_f_2030_2767)">
<ellipse cx="190.47" cy="267.775" rx="23.1567" ry="15.3207" transform="rotate(11.9815 190.47 267.775)" fill="#E1EBFF"/>
</g>
<path d="M131.64 222.811C133.52 229.791 136.451 232.208 137.681 232.543C137.681 233.215 136.339 234.893 130.969 236.235C125.6 237.577 127.613 243.059 129.291 245.632C135.332 247.198 145.467 251.27 137.681 255.029C127.949 259.727 123.922 234.893 119.894 229.523C115.867 224.153 129.291 214.085 131.64 222.811Z" fill="#A4C3FF"/>
<path d="M184.038 234.892L150.77 217.105" stroke="url(#paint8_linear_2030_2767)" stroke-width="2.85601"/>
<g filter="url(#filter8_f_2030_2767)">
<path d="M289.18 273.36C286.633 282.411 282.66 285.735 277.614 284.315C272.567 282.895 270.541 274.407 273.088 265.355C275.635 256.304 281.79 250.117 286.837 251.537C291.883 252.957 291.727 264.308 289.18 273.36Z" fill="#CDDEFF"/>
</g>
<path d="M296.687 149.969C304.661 161.725 307.607 176.887 308.465 207.575C308.488 208.378 307.843 209.051 307.04 209.051L276.278 209.051C275.527 209.051 274.905 208.476 274.86 207.726C274.409 200.176 273.917 186.447 269.266 178.14C268.605 176.96 267.104 177.551 267.21 178.899L269.454 207.512C269.519 208.342 268.863 209.051 268.03 209.051H229.222C228.843 209.051 228.48 208.901 228.212 208.633L223.349 203.77C222.45 202.87 220.912 203.508 220.912 204.78V207.623C220.912 208.412 220.272 209.051 219.484 209.051H189.786C188.997 209.051 188.359 208.419 188.349 207.63C188.238 198.365 187.034 182.284 183.048 176.526C182.424 175.624 181.31 176.184 181.31 177.28V207.903C181.31 208.573 180.844 209.154 180.189 209.297L168.578 211.846C167.967 211.98 167.514 212.503 167.458 213.126C165.738 232.247 162.309 243.05 169.344 253.919C169.953 254.86 169.385 256.119 168.268 256.021C161.33 255.409 150.248 249.906 145.434 231.23L148.43 244.367C148.683 245.477 147.597 246.415 146.601 245.864C141.566 243.081 139.306 237.732 136.979 220.41C136.953 220.217 136.888 220.024 136.778 219.862C136.309 219.17 134.836 217.193 132.648 216.099C130.655 215.102 128.62 214.756 126.271 215.092C123.922 215.428 118.619 217.963 117.545 220.111C116.203 222.795 94.6531 161.044 149.021 122.114C197.559 87.3584 264.133 101.978 296.687 149.969Z" fill="black"/>
<path d="M296.687 149.969C304.661 161.725 307.607 176.887 308.465 207.575C308.488 208.378 307.843 209.051 307.04 209.051L276.278 209.051C275.527 209.051 274.905 208.476 274.86 207.726C274.409 200.176 273.917 186.447 269.266 178.14C268.605 176.96 267.104 177.551 267.21 178.899L269.454 207.512C269.519 208.342 268.863 209.051 268.03 209.051H229.222C228.843 209.051 228.48 208.901 228.212 208.633L223.349 203.77C222.45 202.87 220.912 203.508 220.912 204.78V207.623C220.912 208.412 220.272 209.051 219.484 209.051H189.786C188.997 209.051 188.359 208.419 188.349 207.63C188.238 198.365 187.034 182.284 183.048 176.526C182.424 175.624 181.31 176.184 181.31 177.28V207.903C181.31 208.573 180.844 209.154 180.189 209.297L168.578 211.846C167.967 211.98 167.514 212.503 167.458 213.126C165.738 232.247 162.309 243.05 169.344 253.919C169.953 254.86 169.385 256.119 168.268 256.021C160.926 255.373 148.942 249.249 144.658 227.829L148.43 244.367C148.683 245.477 147.598 246.415 146.601 245.864C141.566 243.081 139.306 237.732 136.979 220.41C136.953 220.217 136.888 220.024 136.778 219.862C136.309 219.17 134.836 217.193 132.648 216.099C130.655 215.102 128.62 214.756 126.271 215.092C123.922 215.428 118.619 217.963 117.545 220.111C116.203 222.795 94.6531 161.044 149.021 122.114C197.559 87.3584 264.133 101.978 296.687 149.969Z" stroke="black" stroke-width="0.714003"/>
<path d="M240.793 243.618C240.793 259.373 227.778 272.145 211.723 272.145C195.668 272.145 182.652 259.373 182.652 243.618C182.652 240.575 183.138 237.643 184.037 234.893C187.794 223.406 198.769 215.092 211.723 215.092C227.778 215.092 240.793 227.864 240.793 243.618ZM240.793 243.618C242.497 241.516 246.543 238.571 249.099 243.618M249.099 243.618C249.099 259.373 260.97 272.145 275.613 272.145C290.257 272.145 302.128 259.373 302.128 243.618C302.128 227.864 290.257 215.092 275.613 215.092C260.97 215.092 249.099 227.864 249.099 243.618Z" stroke="url(#paint9_linear_2030_2767)" stroke-width="2.85601"/>
<ellipse cx="213.223" cy="238.903" rx="5.94117" ry="6.73332" transform="rotate(-4.09783 213.223 238.903)" fill="#2B62CD"/>
<path d="M219.905 230.193C223.856 232.134 228.578 240.301 229.134 244.365C226.678 239.643 216.012 231.722 208.494 233.213C207.152 227.844 213.674 227.463 219.905 230.193Z" fill="#E1EBFF"/>
<path d="M229.134 244.365C228.578 240.302 224.527 232.805 220.576 230.864" stroke="#A4C3FF" stroke-width="1.42801" stroke-linecap="round"/>
<path d="M198.416 240.922C194.811 242.118 188.01 242.73 189.647 235.613C191.694 226.716 207.696 229.944 198.416 240.922Z" fill="#EEF4FF"/>
<path d="M199.433 240.597C204.09 244.631 223.153 242.203 227.906 245.039C217.384 249.675 195.924 253.612 199.433 240.597Z" fill="#E1EBFF"/>
<circle cx="212.96" cy="238.846" r="1.98039" transform="rotate(-4.09783 212.96 238.846)" fill="black"/>
<path d="M199.097 239.59C201.434 236.957 203.483 235.465 207.885 234.164C213.174 232.599 221.168 233.071 226.221 240.685L228.295 244.288" stroke="#30313A" stroke-width="1.68532" stroke-linecap="round"/>
<rect x="212.63" y="236.166" width="3.16862" height="1.58431" transform="rotate(-4.09783 212.63 236.166)" fill="white"/>
<rect x="211.05" y="236.28" width="0.792156" height="1.58431" transform="rotate(-4.09783 211.05 236.28)" fill="white"/>
<ellipse cx="5.27327" cy="6.03101" rx="5.27327" ry="6.03101" transform="matrix(-0.997443 -0.0714597 -0.0714597 0.997443 276.593 232.626)" fill="#2B62CD"/>
<path d="M266.852 229.262C263.722 231.261 262.354 238.879 261.855 242.947C263.855 238.193 270.486 229.761 276.36 231.134C275.77 229.239 271.782 226.438 266.852 229.262Z" fill="#CDDEFF"/>
<path d="M263.198 235.265C263.981 232.804 266.554 227.345 273.266 227.882C279.978 228.419 282.551 231.014 282.663 231.909" stroke="#A4C3FF" stroke-width="0.714003"/>
<path d="M284.855 238.901L284.826 238.889C276.476 225.187 293.169 220.198 292.396 231.537C291.693 241.845 288.166 240.327 284.855 238.901Z" fill="#CDDEFF"/>
<path d="M284.516 238.867C280.801 242.968 266.649 240.763 262.877 243.67C271.06 248.138 287.068 251.814 284.516 238.867Z" fill="#CDDEFF"/>
<ellipse cx="1.55135" cy="1.98039" rx="1.55135" ry="1.98039" transform="matrix(-0.997443 -0.0714597 -0.0714597 0.997443 271.274 236.121)" fill="black"/>
<path d="M284.676 237.914C282.884 235.32 282.184 233.73 278.751 232.498C274.626 231.017 268.348 231.612 264.266 239.295L262.526 242.948" stroke="#30313A" stroke-width="1.68532" stroke-linecap="round"/>
<rect width="2.48216" height="1.58431" transform="matrix(-0.997443 -0.0714597 -0.0714597 0.997443 273.887 234.579)" fill="white"/>
<rect width="0.62054" height="1.58431" transform="matrix(-0.997443 -0.0714597 -0.0714597 0.997443 275.125 234.668)" fill="white"/>
<path d="M255.479 269.125C258.701 264.023 251.452 250.443 247.425 244.29L242.726 271.138C245.635 272.592 252.257 274.226 255.479 269.125Z" fill="white"/>
<path d="M59.1501 428.873C82.9781 427.866 116.203 440.954 130.634 473.844" stroke="#A4C3FF" stroke-width="2.85601"/>
<path d="M340.387 425.516C337.926 437.263 334.48 480.488 340.387 485.59" stroke="#A4C3FF" stroke-width="2.85601" stroke-linecap="round"/>
<circle cx="251.452" cy="282.549" r="1.00681" fill="#96AFE1"/>
<circle cx="241.048" cy="253.351" r="0.67121" fill="#96AFE1"/>
<circle cx="291.388" cy="254.693" r="0.67121" fill="#96AFE1"/>
<path d="M242.561 302.967C229.38 303.635 221.606 297.956 218.227 291.61C228.929 294.839 253.715 300.963 265.882 291.61C261.827 297.622 262.61 301.951 242.561 302.967Z" fill="#CDDEFF"/>
<path d="M242.226 292.33C233.573 293.127 222.621 292.662 218.227 292.33C226.79 295.981 248.175 300.96 265.211 291.666C261.155 291.555 250.879 291.533 242.226 292.33Z" fill="#CDDEFF"/>
<path d="M218.897 291.61C221.884 293.624 230.609 297.315 243.397 297.315C256.184 297.315 263.864 293.624 265.882 291.61" stroke="#2E65D0" stroke-width="1.42801" stroke-linecap="round"/>
<path d="M245.522 305.443L239.357 305.845C238.155 305.923 237.584 307.363 238.406 308.244L240.282 310.255C240.732 310.736 241.452 310.848 242.026 310.525L246.315 308.112C247.64 307.367 247.038 305.344 245.522 305.443Z" fill="#E2ECFF"/>
<path d="M220.298 292.645C217.836 292.868 215.2 292.053 216.606 290.295C217.948 288.617 219.179 290.184 220.298 292.645Z" fill="#2E65D0"/>
<path d="M264.572 292.48C265.609 290.237 267.372 289.26 267.897 290.603C268.421 291.945 267.263 292.742 264.572 292.48Z" fill="#2E65D0"/>
<path d="M243.733 272.144C248.207 272.927 257.023 272.614 256.486 265.097C255.949 257.579 250.221 246.079 247.424 241.94" stroke="url(#paint10_linear_2030_2767)" stroke-width="2.14201" stroke-linecap="round"/>
<circle cx="139.695" cy="259.392" r="2.68484" fill="#003FB8"/>
<path d="M163.859 386.586C158.758 380.679 151.665 364.883 148.757 357.724C125.13 367.121 97.2973 386.921 86.3342 395.647C124.459 365.308 153.903 376.965 163.859 386.586Z" fill="#A3C3FF"/>
<path d="M244.403 387.257C244.403 380.209 240.041 367.121 239.034 361.416C253.8 366.517 284.34 377.189 299.443 386.25C260.512 369.127 246.417 379.538 244.403 387.257Z" fill="#A3C3FF"/>
<path d="M65.0399 301.037C65.3061 300.134 67.6676 300.134 67.9337 301.037C68.7342 303.752 69.9249 306.612 71.6435 308.33C73.3621 310.049 76.2219 311.239 78.9366 312.04C79.8393 312.306 79.8393 314.668 78.9366 314.934C76.2219 315.734 73.3621 316.925 71.6435 318.644C69.9249 320.362 68.7342 323.222 67.9337 325.937C67.6676 326.839 65.3061 326.839 65.0399 325.937C64.2394 323.222 63.0487 320.362 61.3301 318.644C59.6115 316.925 56.7518 315.734 54.037 314.934C53.1343 314.668 53.1343 312.306 54.037 312.04C56.7517 311.239 59.6115 310.049 61.3301 308.33C63.0487 306.612 64.2394 303.752 65.0399 301.037Z" fill="#D1E0FF" fill-opacity="0.5"/>
<path d="M316.04 102.037C316.306 101.134 318.668 101.134 318.934 102.037C319.734 104.752 320.925 107.612 322.644 109.33C324.362 111.049 327.222 112.239 329.937 113.04C330.839 113.306 330.839 115.668 329.937 115.934C327.222 116.734 324.362 117.925 322.644 119.644C320.925 121.362 319.734 124.222 318.934 126.937C318.668 127.839 316.306 127.839 316.04 126.937C315.239 124.222 314.049 121.362 312.33 119.644C310.612 117.925 307.752 116.734 305.037 115.934C304.134 115.668 304.134 113.306 305.037 113.04C307.752 112.239 310.612 111.049 312.33 109.33C314.049 107.612 315.239 104.752 316.04 102.037Z" fill="#D1E0FF" fill-opacity="0.5"/>
</g>
<defs>
<filter id="filter0_f_2030_2767" x="150.499" y="399.544" width="343.938" height="275.515" filterUnits="userSpaceOnUse" color-interpolation-filters="sRGB">
<feFlood flood-opacity="0" result="BackgroundImageFix"/>
<feBlend mode="normal" in="SourceGraphic" in2="BackgroundImageFix" result="shape"/>
<feGaussianBlur stdDeviation="31.494" result="effect1_foregroundBlur_2030_2767"/>
</filter>
<filter id="filter1_f_2030_2767" x="112.337" y="364.045" width="382.1" height="334.099" filterUnits="userSpaceOnUse" color-interpolation-filters="sRGB">
<feFlood flood-opacity="0" result="BackgroundImageFix"/>
<feBlend mode="normal" in="SourceGraphic" in2="BackgroundImageFix" result="shape"/>
<feGaussianBlur stdDeviation="31.494" result="effect1_foregroundBlur_2030_2767"/>
</filter>
<filter id="filter2_f_2030_2767" x="243.038" y="338.328" width="557.247" height="538.528" filterUnits="userSpaceOnUse" color-interpolation-filters="sRGB">
<feFlood flood-opacity="0" result="BackgroundImageFix"/>
<feBlend mode="normal" in="SourceGraphic" in2="BackgroundImageFix" result="shape"/>
<feGaussianBlur stdDeviation="9.84186" result="effect1_foregroundBlur_2030_2767"/>
</filter>
<filter id="filter3_df_2030_2767" x="195.966" y="257.137" width="661.03" height="659.228" filterUnits="userSpaceOnUse" color-interpolation-filters="sRGB">
<feFlood flood-opacity="0" result="BackgroundImageFix"/>
<feColorMatrix in="SourceAlpha" type="matrix" values="0 0 0 0 0 0 0 0 0 0 0 0 0 0 0 0 0 0 127 0" result="hardAlpha"/>
<feOffset dx="7.87349" dy="7.87349"/>
<feGaussianBlur stdDeviation="39.3675"/>
<feComposite in2="hardAlpha" operator="out"/>
<feColorMatrix type="matrix" values="0 0 0 0 0.16857 0 0 0 0 0.276186 0 0 0 0 0.954167 0 0 0 1 0"/>
<feBlend mode="normal" in2="BackgroundImageFix" result="effect1_dropShadow_2030_2767"/>
<feBlend mode="normal" in="SourceGraphic" in2="effect1_dropShadow_2030_2767" result="shape"/>
<feGaussianBlur stdDeviation="9.84186" result="effect2_foregroundBlur_2030_2767"/>
</filter>
<filter id="filter6_f_2030_2767" x="303.448" y="359.011" width="217.395" height="253.699" filterUnits="userSpaceOnUse" color-interpolation-filters="sRGB">
<feFlood flood-opacity="0" result="BackgroundImageFix"/>
<feBlend mode="normal" in="SourceGraphic" in2="BackgroundImageFix" result="shape"/>
<feGaussianBlur stdDeviation="31.494" result="effect1_foregroundBlur_2030_2767"/>
</filter>
<filter id="filter7_f_2030_2767" x="149.742" y="234.182" width="81.4548" height="67.1867" filterUnits="userSpaceOnUse" color-interpolation-filters="sRGB">
<feFlood flood-opacity="0" result="BackgroundImageFix"/>
<feBlend mode="normal" in="SourceGraphic" in2="BackgroundImageFix" result="shape"/>
<feGaussianBlur stdDeviation="8.92504" result="effect1_foregroundBlur_2030_2767"/>
</filter>
<filter id="filter8_f_2030_2767" x="254.138" y="233.484" width="54.6277" height="68.9968" filterUnits="userSpaceOnUse" color-interpolation-filters="sRGB">
<feFlood flood-opacity="0" result="BackgroundImageFix"/>
<feBlend mode="normal" in="SourceGraphic" in2="BackgroundImageFix" result="shape"/>
<feGaussianBlur stdDeviation="8.92504" result="effect1_foregroundBlur_2030_2767"/>
</filter>
<linearGradient id="paint0_linear_2030_2767" x1="133.209" y1="-60" x2="133.209" y2="372.255" gradientUnits="userSpaceOnUse">
<stop stop-color="#4182FF"/>
<stop offset="1" stop-color="#4182FF" stop-opacity="0"/>
</linearGradient>
<linearGradient id="paint1_linear_2030_2767" x1="307.414" y1="639.345" x2="718.712" y2="400.88" gradientUnits="userSpaceOnUse">
<stop stop-color="#0057FF"/>
<stop offset="1" stop-color="#2C72FF"/>
</linearGradient>
<linearGradient id="paint2_linear_2030_2767" x1="312.217" y1="681.986" x2="682.794" y2="395.022" gradientUnits="userSpaceOnUse">
<stop stop-color="#0057FF"/>
<stop offset="0.519922" stop-color="#0057FF"/>
<stop offset="1" stop-color="#528AF8"/>
</linearGradient>
<linearGradient id="paint3_linear_2030_2767" x1="297.2" y1="611.972" x2="708.498" y2="373.507" gradientUnits="userSpaceOnUse">
<stop stop-color="#2A72FF"/>
<stop offset="1" stop-color="#0057FF"/>
</linearGradient>
<linearGradient id="paint4_linear_2030_2767" x1="302.002" y1="654.613" x2="672.58" y2="367.649" gradientUnits="userSpaceOnUse">
<stop stop-color="#3470E2"/>
<stop offset="0.519922" stop-color="#0057FF"/>
<stop offset="1" stop-color="#003FB8"/>
</linearGradient>
<linearGradient id="paint5_linear_2030_2767" x1="173.591" y1="354.703" x2="455.164" y2="264.09" gradientUnits="userSpaceOnUse">
<stop stop-color="white"/>
<stop offset="1" stop-color="#0057FF"/>
</linearGradient>
<linearGradient id="paint6_linear_2030_2767" x1="208.83" y1="417.797" x2="206.816" y2="343.964" gradientUnits="userSpaceOnUse">
<stop stop-color="#A4C3FF"/>
<stop offset="0.313797" stop-color="#A4C3FF" stop-opacity="0"/>
</linearGradient>
<linearGradient id="paint7_linear_2030_2767" x1="231.651" y1="231.201" x2="367.236" y2="202.674" gradientUnits="userSpaceOnUse">
<stop stop-color="white"/>
<stop offset="1" stop-color="#A4C3FF"/>
</linearGradient>
<linearGradient id="paint8_linear_2030_2767" x1="338.373" y1="257.378" x2="164.866" y2="229.858" gradientUnits="userSpaceOnUse">
<stop stop-color="#70A1FF"/>
<stop offset="1" stop-color="#003BAE"/>
</linearGradient>
<linearGradient id="paint9_linear_2030_2767" x1="338.373" y1="257.378" x2="164.865" y2="229.859" gradientUnits="userSpaceOnUse">
<stop stop-color="#70A1FF"/>
<stop offset="1" stop-color="#003BAE"/>
</linearGradient>
<linearGradient id="paint10_linear_2030_2767" x1="253.465" y1="255.7" x2="247.424" y2="245.296" gradientUnits="userSpaceOnUse">
<stop stop-color="#A4C3FF"/>
<stop offset="1" stop-color="#A4C3FF" stop-opacity="0"/>
</linearGradient>
<clipPath id="clip0_2030_2767">
<rect width="409" height="473" fill="white"/>
</clipPath>
</defs>
</svg>
