<svg width="409" height="473" viewBox="0 0 409 473" fill="none" xmlns="http://www.w3.org/2000/svg">
<g clip-path="url(#clip0_2029_2757)">
<rect width="409" height="473" fill="#8EB4FF"/>
<path d="M-92.3302 301.232C7.49776 327.124 214.509 343.65 243.933 202.613C280.712 26.3174 58.4411 7.36073 104.049 173.007C149.657 338.652 411.168 251.989 483.099 56.4087" stroke="#A4C3FF" stroke-width="10" stroke-linecap="round"/>
<path d="M285.323 277.11C285.323 386.945 141.631 303.486 141.631 426.312V467.255H409.33V35C-28.8297 101.925 285.323 184.596 285.323 277.11Z" fill="url(#paint0_linear_2029_2757)"/>
<g filter="url(#filter0_f_2029_2757)">
<path d="M420.946 538.697C420.946 538.697 369.316 524.022 341.368 525.079C240.775 528.881 269.896 611.569 269.896 611.569" stroke="#0085FF" stroke-width="62.9879" stroke-linecap="round"/>
</g>
<g filter="url(#filter1_f_2029_2757)">
<path d="M420.947 538.697C420.947 538.697 294.401 488.486 266.453 489.542C165.859 493.345 293.494 634.662 293.494 634.662" stroke="#0000FF" stroke-width="62.9879" stroke-linecap="round"/>
</g>
<g filter="url(#filter2_f_2029_2757)">
<path d="M345.352 609.539C275.522 603.57 386.264 716.945 450.364 774.379L503.116 848.359L760.632 842.723L746.459 495.299L657.911 472.391C626.087 462.11 544.776 427.952 521.032 428.383C491.352 428.922 433.452 435.445 474.735 516.792C516.017 598.139 432.639 617.001 345.352 609.539Z" fill="url(#paint1_linear_2029_2757)"/>
<path d="M345.352 609.539C275.522 603.57 386.264 716.945 450.364 774.379L503.116 848.359L760.632 842.723L746.459 495.299L657.911 472.391C626.087 462.11 544.776 427.952 521.032 428.383C491.352 428.922 433.452 435.445 474.735 516.792C516.017 598.139 432.639 617.001 345.352 609.539Z" stroke="url(#paint2_linear_2029_2757)" stroke-width="78.7349"/>
</g>
<g filter="url(#filter3_df_2029_2757)">
<path d="M365.235 582.211C317.466 558.822 288.168 590.892 445.152 764.161L492.902 820.985L750.417 815.35L736.244 467.926L647.697 445.017C615.873 434.736 669.903 456.39 510.818 401.01C472.884 387.804 431.62 424.588 464.52 489.419C497.421 554.25 436.933 617.318 365.235 582.211Z" fill="url(#paint3_linear_2029_2757)"/>
<path d="M365.235 582.211C317.466 558.822 288.168 590.892 445.152 764.161L492.902 820.985L750.417 815.35L736.244 467.926L647.697 445.017C615.873 434.736 669.903 456.39 510.818 401.01C472.884 387.804 431.62 424.588 464.52 489.419C497.421 554.25 436.933 617.318 365.235 582.211Z" stroke="url(#paint4_linear_2029_2757)" stroke-width="78.7349"/>
</g>
<g>
<path d="M569.904 693.458C500.374 689.563 483.695 722.976 505.633 773.592L556.988 835.551L813.863 826.427L787.47 592.098L701.186 575.273C669.626 567.075 563.06 513.103 539.376 513.869C509.772 514.827 526.256 548.625 566.05 617.037C605.845 685.449 656.816 698.328 569.904 693.458Z" fill="white"/>
</g>
<path d="M569.904 693.458C500.374 689.563 483.695 722.976 505.633 773.592L556.988 835.551L813.863 826.427L787.47 592.098L701.186 575.273C669.626 567.075 563.06 513.103 539.376 513.869C509.772 514.827 526.256 548.625 566.05 617.037C605.845 685.449 656.816 698.328 569.904 693.458Z" stroke="white" stroke-width="78.7349"/>
<g filter="url(#filter5_f_2029_2757)">
<path d="M448.503 572.317L417.787 461.405" stroke="#3470E2" stroke-width="62.9879"/>
</g>
<path d="M356.482 418.518L360.951 414.049L365.419 409.581L346.651 390.813L364.525 380.685L301.371 354.47L327.586 417.624L337.714 399.75L356.482 418.518Z" fill="white"/>
<path d="M-50.1612 291.712L37.8183 379.245C43.1507 384.551 50.3667 387.529 57.8888 387.529H64.3261H78.1911C87.4729 387.529 92.1213 376.307 85.558 369.744C83.6042 367.79 80.9542 366.692 78.1911 366.692H53.3804C45.2682 366.692 37.4864 363.479 31.7378 357.755L-48.8387 277.527C-49.2244 277.143 -49.7465 276.928 -50.2908 276.928C-51.1508 276.928 -51.8389 277.437 -52.0383 278.134C-52.6031 280.109 -53.0288 282.649 -52.8499 285.14C-52.6712 287.628 -51.8983 289.975 -50.1621 291.712C-50.1618 291.712 -50.1615 291.712 -50.1612 291.712Z" fill="black" stroke="black" stroke-width="2.21739"/>
<path d="M291.855 368.455L199.651 276.252C199.374 275.975 198.998 275.819 198.606 275.819H-48.3575C-49.6745 275.819 -50.3341 277.411 -49.4028 278.342L42.8008 370.546C43.0781 370.823 43.4541 370.979 43.8461 370.979H290.809C292.126 370.979 292.786 369.387 291.855 368.455Z" fill="#2A73FF"/>
<path d="M168.315 275.819L263.476 370.979" stroke="black" stroke-width="1.47826"/>
<path d="M132.017 275.819L227.177 370.979" stroke="black" stroke-width="1.47826"/>
<path d="M95.7192 275.819L190.879 370.979" stroke="black" stroke-width="1.47826"/>
<path d="M59.4209 275.819L154.581 370.979" stroke="black" stroke-width="1.47826"/>
<path d="M23.1226 275.819L118.283 370.979" stroke="black" stroke-width="1.47826"/>
<path d="M-13.1755 275.819L81.9846 370.979" stroke="black" stroke-width="1.47826"/>
<path d="M42.7432 371.469L-51.9265 276.8" stroke="black" stroke-width="2.21739"/>
<path d="M42.7433 370.979H293.888C293.888 376.865 290.356 388.637 276.229 388.637H60.4019C43.9206 388.637 41.7623 376.865 42.7433 370.979Z" fill="#0057FF"/>
<path d="M293.397 370.979H42.7434" stroke="black" stroke-width="2.21739"/>
<path d="M186.955 379.808H150.167" stroke="black" stroke-width="4.43477" stroke-linecap="round"/>
<path d="M-49.671 259.925L38.3085 172.392C43.6409 167.087 50.857 164.109 58.379 164.109H64.8164H78.6813C87.9631 164.109 92.6115 175.331 86.0482 181.894C84.0944 183.848 81.4444 184.946 78.6813 184.946H53.8706C45.7585 184.946 37.9766 188.159 32.228 193.883L-48.3485 274.111C-48.7342 274.495 -49.2563 274.71 -49.8005 274.71C-50.6606 274.71 -51.3486 274.201 -51.548 273.503C-52.1129 271.529 -52.5385 268.989 -52.3597 266.498C-52.181 264.01 -51.408 261.663 -49.6718 259.926C-49.6715 259.926 -49.6713 259.926 -49.671 259.925Z" fill="black" stroke="black" stroke-width="2.21739"/>
<path d="M292.345 183.182L200.141 275.386C199.864 275.663 199.488 275.819 199.096 275.819H-47.8671C-49.1841 275.819 -49.8436 274.227 -48.9123 273.295L43.2913 181.092C43.5685 180.814 43.9445 180.659 44.3366 180.659H291.3C292.617 180.659 293.276 182.251 292.345 183.182Z" fill="white"/>
<path d="M43.2338 180.659H294.378C294.378 174.772 290.846 163 276.72 163H60.8924C44.4111 163 42.2528 174.772 43.2338 180.659Z" fill="#0057FF"/>
<path d="M293.888 180.659H43.2339" stroke="black" stroke-width="2.21739"/>
<path d="M330.04 324.037C330.306 323.134 332.668 323.134 332.934 324.037C333.734 326.752 334.925 329.612 336.644 331.33C338.362 333.049 341.222 334.239 343.937 335.04C344.839 335.306 344.839 337.668 343.937 337.934C341.222 338.734 338.362 339.925 336.644 341.644C334.925 343.362 333.734 346.222 332.934 348.937C332.668 349.839 330.306 349.839 330.04 348.937C329.239 346.222 328.049 343.362 326.33 341.644C324.612 339.925 321.752 338.734 319.037 337.934C318.134 337.668 318.134 335.306 319.037 335.04C321.752 334.239 324.612 333.049 326.33 331.33C328.049 329.612 329.239 326.752 330.04 324.037Z" fill="#D1E0FF" fill-opacity="0.5"/>
<path d="M252.04 21.0371C252.306 20.1344 254.668 20.1344 254.934 21.0371C255.734 23.7518 256.925 26.6116 258.644 28.3302C260.362 30.0488 263.222 31.2395 265.937 32.04C266.839 32.3061 266.839 34.6676 265.937 34.9338C263.222 35.7343 260.362 36.925 258.644 38.6436C256.925 40.3622 255.734 43.222 254.934 45.9367C254.668 46.8394 252.306 46.8394 252.04 45.9367C251.239 43.222 250.049 40.3622 248.33 38.6436C246.612 36.925 243.752 35.7343 241.037 34.9338C240.134 34.6676 240.134 32.3061 241.037 32.04C243.752 31.2395 246.612 30.0488 248.33 28.3302C250.049 26.6116 251.239 23.7518 252.04 21.0371Z" fill="#D1E0FF" fill-opacity="0.5"/>
<path d="M421.613 -33.1088L328.957 140.477L320.289 152.619C319.265 154.052 320.443 155.916 322.146 155.468C329.736 153.47 341.542 148.609 346.507 139.307L424.78 -7.33272C427.123 -13.0007 430.007 -25.4632 424.601 -33.4113C423.846 -34.5219 422.245 -34.2936 421.613 -33.1088Z" fill="#0057FF"/>
<path d="M211.273 174.882L303.868 1.40994C303.993 1.17597 304.206 1.00119 304.459 0.924054L421.833 -34.7544C422.686 -35.0135 423.426 -34.1126 423.006 -33.3267L330.411 140.146C330.286 140.38 330.074 140.554 329.82 140.631L212.446 176.31C211.593 176.569 210.853 175.668 211.273 174.882Z" fill="#C7DCFF"/>
<path d="M330.216 140.511L423.347 -33.9653" stroke="black" stroke-width="1.5" stroke-linecap="round"/>
<path d="M229.634 154.609L307.4 8.55647C307.649 8.08764 308.075 7.73736 308.583 7.58288L398.478 -19.7427C400.182 -20.2606 401.662 -18.461 400.825 -16.8891L323.06 129.163C322.81 129.632 322.385 129.983 321.876 130.137L231.981 157.463C230.278 157.98 228.797 156.181 229.634 154.609Z" fill="white"/>
<path d="M330.539 139.996L214.503 175.268C213.342 175.621 212.763 176.92 213.436 177.929C215.758 181.411 220.392 185.555 226.723 183.63L324.693 153.85C332.488 151.481 333.491 145.331 332.846 141.308C332.675 140.244 331.57 139.683 330.539 139.996Z" fill="black" stroke="black" stroke-width="3" stroke-linecap="round"/>
</g>
<defs>
<filter id="filter0_f_2029_2757" x="171.499" y="430.544" width="343.938" height="275.515" filterUnits="userSpaceOnUse" color-interpolation-filters="sRGB">
<feFlood flood-opacity="0" result="BackgroundImageFix"/>
<feBlend mode="normal" in="SourceGraphic" in2="BackgroundImageFix" result="shape"/>
<feGaussianBlur stdDeviation="31.494" result="effect1_foregroundBlur_2029_2757"/>
</filter>
<filter id="filter1_f_2029_2757" x="133.337" y="395.045" width="382.1" height="334.099" filterUnits="userSpaceOnUse" color-interpolation-filters="sRGB">
<feFlood flood-opacity="0" result="BackgroundImageFix"/>
<feBlend mode="normal" in="SourceGraphic" in2="BackgroundImageFix" result="shape"/>
<feGaussianBlur stdDeviation="31.494" result="effect1_foregroundBlur_2029_2757"/>
</filter>
<filter id="filter2_f_2029_2757" x="264.038" y="369.328" width="557.247" height="538.528" filterUnits="userSpaceOnUse" color-interpolation-filters="sRGB">
<feFlood flood-opacity="0" result="BackgroundImageFix"/>
<feBlend mode="normal" in="SourceGraphic" in2="BackgroundImageFix" result="shape"/>
<feGaussianBlur stdDeviation="9.84186" result="effect1_foregroundBlur_2029_2757"/>
</filter>
<filter id="filter3_df_2029_2757" x="216.966" y="288.137" width="661.03" height="659.228" filterUnits="userSpaceOnUse" color-interpolation-filters="sRGB">
<feFlood flood-opacity="0" result="BackgroundImageFix"/>
<feColorMatrix in="SourceAlpha" type="matrix" values="0 0 0 0 0 0 0 0 0 0 0 0 0 0 0 0 0 0 127 0" result="hardAlpha"/>
<feOffset dx="7.87349" dy="7.87349"/>
<feGaussianBlur stdDeviation="39.3675"/>
<feComposite in2="hardAlpha" operator="out"/>
<feColorMatrix type="matrix" values="0 0 0 0 0.16857 0 0 0 0 0.276186 0 0 0 0 0.954167 0 0 0 1 0"/>
<feBlend mode="normal" in2="BackgroundImageFix" result="effect1_dropShadow_2029_2757"/>
<feBlend mode="normal" in="SourceGraphic" in2="effect1_dropShadow_2029_2757" result="shape"/>
<feGaussianBlur stdDeviation="9.84186" result="effect2_foregroundBlur_2029_2757"/>
</filter>
<filter id="filter5_f_2029_2757" x="324.448" y="390.011" width="217.395" height="253.699" filterUnits="userSpaceOnUse" color-interpolation-filters="sRGB">
<feFlood flood-opacity="0" result="BackgroundImageFix"/>
<feBlend mode="normal" in="SourceGraphic" in2="BackgroundImageFix" result="shape"/>
<feGaussianBlur stdDeviation="31.494" result="effect1_foregroundBlur_2029_2757"/>
</filter>
<linearGradient id="paint0_linear_2029_2757" x1="253.121" y1="35" x2="253.121" y2="467.255" gradientUnits="userSpaceOnUse">
<stop stop-color="#4182FF"/>
<stop offset="1" stop-color="#4182FF" stop-opacity="0"/>
</linearGradient>
<linearGradient id="paint1_linear_2029_2757" x1="328.414" y1="670.345" x2="739.712" y2="431.88" gradientUnits="userSpaceOnUse">
<stop stop-color="#0057FF"/>
<stop offset="1" stop-color="#2C72FF"/>
</linearGradient>
<linearGradient id="paint2_linear_2029_2757" x1="333.217" y1="712.986" x2="703.794" y2="426.022" gradientUnits="userSpaceOnUse">
<stop stop-color="#0057FF"/>
<stop offset="0.519922" stop-color="#0057FF"/>
<stop offset="1" stop-color="#528AF8"/>
</linearGradient>
<linearGradient id="paint3_linear_2029_2757" x1="318.2" y1="642.972" x2="729.498" y2="404.507" gradientUnits="userSpaceOnUse">
<stop stop-color="#2A72FF"/>
<stop offset="1" stop-color="#0057FF"/>
</linearGradient>
<linearGradient id="paint4_linear_2029_2757" x1="323.002" y1="685.613" x2="693.58" y2="398.649" gradientUnits="userSpaceOnUse">
<stop stop-color="#3470E2"/>
<stop offset="0.519922" stop-color="#0057FF"/>
<stop offset="1" stop-color="#003FB8"/>
</linearGradient>
<clipPath id="clip0_2029_2757">
<rect width="409" height="473" fill="white"/>
</clipPath>
</defs>
</svg>
