<svg width="409" height="473" viewBox="0 0 409 473" fill="none" xmlns="http://www.w3.org/2000/svg">
<g clip-path="url(#clip0_2030_2848)">
<rect width="409" height="473" fill="#8EB4FF"/>
<path d="M215.11 124.008C324.945 124.008 241.486 267.699 364.312 267.699L405.255 267.699L405.255 4.21407e-05L-27 6.10352e-05C39.9247 438.16 122.596 124.008 215.11 124.008Z" fill="url(#paint0_linear_2030_2848)"/>
<path d="M186.898 221.256L216 162L246.123 221.256L310.045 200.955L290.175 264.111L349 295L291.419 324.357L310.045 389.045L247.655 369.648L216 428L186.388 370.071L121.955 389.045L142.206 325.889L83 295L142.846 264.111L121.955 200.955L186.898 221.256Z" fill="#6EA0FF"/>
<g filter="url(#filter0_f_2030_2848)">
<path d="M0.0623409 -55.3095C0.0623409 -55.3095 51.6925 -40.6346 79.6404 -41.6912C180.234 -45.494 151.112 -128.182 151.112 -128.182" stroke="#0085FF" stroke-width="62.9879" stroke-linecap="round"/>
</g>
<g filter="url(#filter1_f_2030_2848)">
<path d="M0.0621274 -55.3094C0.0621274 -55.3094 126.608 -5.09819 154.556 -6.15473C255.15 -9.95755 127.515 -151.274 127.515 -151.274" stroke="#0000FF" stroke-width="62.9879" stroke-linecap="round"/>
</g>
<g filter="url(#filter2_f_2030_2848)">
<path d="M75.6572 -126.152C145.487 -120.183 34.7443 -233.558 -29.3556 -290.992L-82.1073 -364.971L-339.623 -359.335L-325.45 -11.9115L-236.903 10.9968C-205.079 21.2778 -123.768 55.4354 -100.023 55.0045C-70.3433 54.4658 -12.4435 47.9427 -53.7259 -33.4045C-95.0082 -114.752 -11.6299 -133.614 75.6572 -126.152Z" fill="url(#paint1_linear_2030_2848)"/>
<path d="M75.6572 -126.152C145.487 -120.183 34.7443 -233.558 -29.3556 -290.992L-82.1073 -364.971L-339.623 -359.335L-325.45 -11.9115L-236.903 10.9968C-205.079 21.2778 -123.768 55.4354 -100.023 55.0045C-70.3433 54.4658 -12.4435 47.9427 -53.7259 -33.4045C-95.0082 -114.752 -11.6299 -133.614 75.6572 -126.152Z" stroke="url(#paint2_linear_2030_2848)" stroke-width="78.7349"/>
</g>
<g filter="url(#filter3_df_2030_2848)">
<path d="M55.7743 -98.8239C103.542 -75.4347 132.841 -107.504 -24.1436 -280.774L-71.8929 -337.598L-329.408 -331.962L-315.236 15.4615L-226.688 38.3699C-194.864 48.651 -248.895 26.997 -89.8092 82.3776C-51.875 95.5832 -10.6109 58.7995 -43.5115 -6.03134C-76.412 -70.8622 -15.9239 -133.93 55.7743 -98.8239Z" fill="url(#paint3_linear_2030_2848)"/>
<path d="M55.7743 -98.8239C103.542 -75.4347 132.841 -107.504 -24.1436 -280.774L-71.8929 -337.598L-329.408 -331.962L-315.236 15.4615L-226.688 38.3699C-194.864 48.651 -248.895 26.997 -89.8092 82.3776C-51.875 95.5832 -10.6109 58.7995 -43.5115 -6.03134C-76.412 -70.8622 -15.9239 -133.93 55.7743 -98.8239Z" stroke="url(#paint4_linear_2030_2848)" stroke-width="78.7349"/>
</g>
<g>
<path d="M-148.895 -210.071C-79.3653 -206.176 -62.6866 -239.589 -84.6238 -290.204L-135.979 -352.164L-392.854 -343.04L-366.461 -108.711L-280.177 -91.8859C-248.617 -83.6876 -142.051 -29.7159 -118.367 -30.4818C-88.7629 -31.4392 -105.247 -65.2373 -145.042 -133.649C-184.836 -202.061 -235.807 -214.94 -148.895 -210.071Z" fill="white"/>
</g>
<path d="M-148.895 -210.071C-79.3653 -206.176 -62.6866 -239.589 -84.6238 -290.204L-135.979 -352.164L-392.854 -343.04L-366.461 -108.711L-280.177 -91.8859C-248.617 -83.6876 -142.051 -29.7159 -118.367 -30.4818C-88.7629 -31.4392 -105.247 -65.2373 -145.042 -133.649C-184.836 -202.061 -235.807 -214.94 -148.895 -210.071Z" stroke="white" stroke-width="78.7349"/>
<path d="M-342.361 -61.8408L-115.86 2.33637" stroke="#5A8CEB" stroke-width="78.7349" stroke-linecap="round"/>
<g filter="url(#filter6_f_2030_2848)">
<path d="M-27.4944 -88.9297L3.2214 21.9829" stroke="#3470E2" stroke-width="62.9879"/>
</g>
<path d="M283.444 77.9127L243.656 226.402L317.901 246.296C377.296 262.211 404.379 220.534 412.039 191.945C419.7 163.356 417.084 113.722 357.688 97.8065L283.444 77.9127Z" fill="#2A73FF"/>
<path d="M354.607 216.323C364.519 179.33 319.782 153.497 296.174 145.204L257.114 226.388C303.355 238.778 344.695 253.316 354.607 216.323Z" fill="black"/>
<ellipse cx="263.499" cy="152.393" rx="83.3843" ry="30.3298" transform="rotate(-75 263.499 152.393)" fill="#0057FF"/>
<ellipse cx="256.865" cy="150.799" rx="68.7697" ry="20.8969" transform="rotate(-75 256.865 150.799)" fill="black"/>
<circle cx="326.507" cy="117.144" r="18.2373" transform="rotate(-75 326.507 117.144)" fill="#0057FF"/>
<path d="M323.184 111.927C321.69 117.506 326.681 121.387 329.364 122.63C348.447 127.743 381.247 144.792 358.04 231.403C339.474 300.692 310.175 266.173 297.699 240.803L281.918 236.574C301.205 277.143 346.523 333.105 373.113 233.869C399.703 134.633 357.375 112.042 333.887 105.748C330.942 105.484 324.679 106.349 323.184 111.927Z" fill="#C7DCFF"/>
<path d="M181.554 191.647C204.336 152.187 252.213 158.816 273.303 167.063C268.141 188.9 256.99 203.557 252.059 208.156C248.786 211.725 246 233.815 234.063 238.5C217.5 245 217.5 218 217.5 226C217.5 264.483 192.476 265.5 183.5 251.519C173.497 235.937 169.074 213.262 181.554 191.647Z" fill="#C7DCFF"/>
<path d="M215.489 324.891C229.419 321.244 228.037 304.378 225.604 296.401C224.338 291.564 220.311 284.865 215.667 286.08C205.993 288.613 210.518 311.825 207.707 301.085C197.705 262.873 188.063 279.351 191.229 291.444C195.165 306.484 201.558 328.537 215.489 324.891Z" fill="url(#paint5_linear_2030_2848)"/>
<path d="M88.7192 410.239C118.706 419.776 129.811 382.024 128.954 350.123C128.937 349.497 128.419 349.004 127.792 349.002C91.26 348.88 63.6421 354.911 63.346 390.264C63.343 390.62 63.1807 390.969 62.9013 391.191L46.4422 404.252C45.8973 404.684 45.8485 405.493 46.3376 405.988L67.7598 427.652C68.2076 428.105 68.936 428.117 69.3983 427.679L87.5184 410.499C87.8336 410.2 88.305 410.108 88.7192 410.239Z" fill="#F8F8F8"/>
<path d="M88.0309 382.996C88.0309 385.9 90.5442 388.255 93.6444 388.255C96.7447 388.255 99.2579 385.9 99.2579 382.996C99.2579 380.092 96.7447 377.737 93.6444 377.737C90.5442 377.737 88.0309 380.092 88.0309 382.996Z" fill="#F8F8F8"/>
<path d="M88.7192 410.239C118.706 419.776 129.811 382.024 128.954 350.123C128.937 349.497 128.419 349.004 127.792 349.002C91.26 348.88 63.6421 354.911 63.346 390.264M88.7192 410.239C88.305 410.108 87.8336 410.2 87.5184 410.499L69.3983 427.679C68.936 428.117 68.2076 428.105 67.7598 427.652L46.3376 405.988C45.8485 405.493 45.8973 404.684 46.4422 404.252L62.9013 391.191C63.1807 390.969 63.343 390.62 63.346 390.264M88.7192 410.239C119.057 419.888 130.068 381.136 128.919 349.007M63.346 390.264C63.6452 354.548 91.8297 348.76 128.919 349.007M128.919 349.007L97.8141 378.8M88.0309 382.996C88.0309 385.9 90.5442 388.255 93.6444 388.255C96.7447 388.255 99.2579 385.9 99.2579 382.996C99.2579 380.092 96.7447 377.737 93.6444 377.737C90.5442 377.737 88.0309 380.092 88.0309 382.996Z" stroke="black" stroke-width="4"/>
<g opacity="0.5">
<path d="M402.422 483.137C393.013 463.183 381.19 425 403.773 425C426.356 425 411.832 463.183 402.422 483.137Z" fill="#A7C5FF"/>
<path d="M402.422 483.137C425.998 485.652 471.522 496.885 460.23 514.794C448.939 532.703 416.589 500.577 402.422 483.137Z" fill="#A7C5FF"/>
<path d="M402.422 483.137C416.589 465.698 448.939 437.022 460.23 454.931C471.522 472.841 425.998 480.622 402.422 483.137Z" fill="#A7C5FF"/>
<path d="M402.422 483.137C411.832 503.091 425.006 543 402.423 543C379.84 543 393.013 503.091 402.422 483.137Z" fill="#A7C5FF"/>
<path d="M402.422 483.137C388.256 500.577 358.451 532.703 347.159 514.794C335.868 496.885 378.846 485.652 402.422 483.137Z" fill="#A7C5FF"/>
<path d="M402.422 483.137C378.846 480.622 334.517 471.115 345.809 453.206C357.1 435.297 388.256 465.698 402.422 483.137Z" fill="#A7C5FF"/>
<path d="M402.422 483.137C393.013 463.183 381.19 425 403.773 425C426.356 425 411.832 463.183 402.422 483.137ZM402.422 483.137C425.998 485.652 471.522 496.885 460.23 514.794C448.939 532.703 416.589 500.577 402.422 483.137ZM402.422 483.137C416.589 465.698 448.939 437.022 460.23 454.931C471.522 472.841 425.998 480.622 402.422 483.137ZM402.422 483.137C411.832 503.091 425.006 543 402.423 543C379.84 543 393.013 503.091 402.422 483.137ZM402.422 483.137C388.256 500.577 358.451 532.703 347.159 514.794C335.868 496.885 378.846 485.652 402.422 483.137ZM402.422 483.137C378.846 480.622 334.517 471.115 345.809 453.206C357.1 435.297 388.256 465.698 402.422 483.137Z" stroke="#A7C5FF" stroke-width="9.24674"/>
</g>
<g filter="url(#filter7_b_2030_2848)">
<rect x="-29" y="-70" width="217" height="160" fill="white" fill-opacity="0.25"/>
</g>
<path fill-rule="evenodd" clip-rule="evenodd" d="M-23 -74H-34V-63H-28.5H-23V-68.5V-74ZM193 -74H182V-63H193V-74ZM182 84H187.5H193V95H182V89.5V84ZM-23 95V84H-34V95H-23Z" fill="white"/>
<path d="M-34 -74V-75.5H-35.5V-74H-34ZM-23 -74H-21.5V-75.5H-23V-74ZM-34 -63H-35.5V-61.5H-34V-63ZM-23 -63V-61.5H-21.5V-63H-23ZM182 -74V-75.5H180.5V-74H182ZM193 -74H194.5V-75.5H193V-74ZM182 -63H180.5V-61.5H182V-63ZM193 -63V-61.5H194.5V-63H193ZM182 84V82.5H180.5V84H182ZM193 84H194.5V82.5H193V84ZM193 95V96.5H194.5V95H193ZM182 95H180.5V96.5H182V95ZM-23 84H-21.5V82.5H-23V84ZM-23 95V96.5H-21.5V95H-23ZM-34 84V82.5H-35.5V84H-34ZM-34 95H-35.5V96.5H-34V95ZM-34 -72.5H-23V-75.5H-34V-72.5ZM-32.5 -63V-74H-35.5V-63H-32.5ZM-28.5 -64.5H-34V-61.5H-28.5V-64.5ZM-23 -64.5H-28.5V-61.5H-23V-64.5ZM-24.5 -68.5V-63H-21.5V-68.5H-24.5ZM-24.5 -74V-68.5H-21.5V-74H-24.5ZM182 -72.5H193V-75.5H182V-72.5ZM183.5 -63V-74H180.5V-63H183.5ZM193 -64.5H182V-61.5H193V-64.5ZM191.5 -74V-63H194.5V-74H191.5ZM187.5 82.5H182V85.5H187.5V82.5ZM193 82.5H187.5V85.5H193V82.5ZM194.5 95V84H191.5V95H194.5ZM182 96.5H193V93.5H182V96.5ZM180.5 89.5V95H183.5V89.5H180.5ZM180.5 84V89.5H183.5V84H180.5ZM-24.5 84V95H-21.5V84H-24.5ZM-34 85.5H-23V82.5H-34V85.5ZM-32.5 95V84H-35.5V95H-32.5ZM-23 93.5H-34V96.5H-23V93.5ZM-23 -67H182V-70H-23V-67ZM-30 -63V84H-27V-63H-30ZM189 84V-63H186V84H189ZM182 88H-23V91H182V88Z" fill="white"/>
<circle cx="134.5" cy="-22.5" r="24.5" fill="white"/>
<path d="M-15.5 69.5V18.5C-15.5 -5.5 0.5 -36 29.9999 -36C69 -36 68.5 -1 96 20.5C114.343 34.841 147.539 32.6069 165.306 23.6906C168.447 22.1141 173 24.3064 173 27.8214V69.5C173 71.7091 171.209 73.5 169 73.5H-11.5C-13.7091 73.5 -15.5 71.7091 -15.5 69.5Z" fill="white"/>
<path d="M54.0399 317.037C54.3061 316.134 56.6676 316.134 56.9337 317.037C57.7342 319.752 58.9249 322.612 60.6435 324.33C62.3621 326.049 65.2219 327.239 67.9366 328.04C68.8393 328.306 68.8393 330.668 67.9366 330.934C65.2219 331.734 62.3621 332.925 60.6435 334.644C58.9249 336.362 57.7342 339.222 56.9337 341.937C56.6676 342.839 54.3061 342.839 54.0399 341.937C53.2394 339.222 52.0487 336.362 50.3301 334.644C48.6115 332.925 45.7518 331.734 43.037 330.934C42.1343 330.668 42.1343 328.306 43.037 328.04C45.7517 327.239 48.6115 326.049 50.3301 324.33C52.0487 322.612 53.2394 319.752 54.0399 317.037Z" fill="#D1E0FF" fill-opacity="0.5"/>
<path d="M362.04 38.0371C362.306 37.1344 364.668 37.1344 364.934 38.0371C365.734 40.7518 366.925 43.6116 368.644 45.3302C370.362 47.0488 373.222 48.2395 375.937 49.04C376.839 49.3061 376.839 51.6676 375.937 51.9338C373.222 52.7343 370.362 53.925 368.644 55.6436C366.925 57.3622 365.734 60.222 364.934 62.9367C364.668 63.8394 362.306 63.8394 362.04 62.9367C361.239 60.222 360.049 57.3622 358.33 55.6436C356.612 53.925 353.752 52.7343 351.037 51.9338C350.134 51.6676 350.134 49.3061 351.037 49.04C353.752 48.2395 356.612 47.0488 358.33 45.3302C360.049 43.6116 361.239 40.7518 362.04 38.0371Z" fill="#D1E0FF" fill-opacity="0.5"/>
</g>
<defs>
<filter id="filter0_f_2030_2848" x="-94.4276" y="-222.672" width="343.938" height="275.515" filterUnits="userSpaceOnUse" color-interpolation-filters="sRGB">
<feFlood flood-opacity="0" result="BackgroundImageFix"/>
<feBlend mode="normal" in="SourceGraphic" in2="BackgroundImageFix" result="shape"/>
<feGaussianBlur stdDeviation="31.494" result="effect1_foregroundBlur_2030_2848"/>
</filter>
<filter id="filter1_f_2030_2848" x="-94.4281" y="-245.756" width="382.1" height="334.099" filterUnits="userSpaceOnUse" color-interpolation-filters="sRGB">
<feFlood flood-opacity="0" result="BackgroundImageFix"/>
<feBlend mode="normal" in="SourceGraphic" in2="BackgroundImageFix" result="shape"/>
<feGaussianBlur stdDeviation="31.494" result="effect1_foregroundBlur_2030_2848"/>
</filter>
<filter id="filter2_f_2030_2848" x="-400.276" y="-424.469" width="557.247" height="538.528" filterUnits="userSpaceOnUse" color-interpolation-filters="sRGB">
<feFlood flood-opacity="0" result="BackgroundImageFix"/>
<feBlend mode="normal" in="SourceGraphic" in2="BackgroundImageFix" result="shape"/>
<feGaussianBlur stdDeviation="9.84186" result="effect1_foregroundBlur_2030_2848"/>
</filter>
<filter id="filter3_df_2030_2848" x="-441.24" y="-448.23" width="661.03" height="659.228" filterUnits="userSpaceOnUse" color-interpolation-filters="sRGB">
<feFlood flood-opacity="0" result="BackgroundImageFix"/>
<feColorMatrix in="SourceAlpha" type="matrix" values="0 0 0 0 0 0 0 0 0 0 0 0 0 0 0 0 0 0 127 0" result="hardAlpha"/>
<feOffset dx="7.87349" dy="7.87349"/>
<feGaussianBlur stdDeviation="39.3675"/>
<feComposite in2="hardAlpha" operator="out"/>
<feColorMatrix type="matrix" values="0 0 0 0 0.16857 0 0 0 0 0.276186 0 0 0 0 0.954167 0 0 0 1 0"/>
<feBlend mode="normal" in2="BackgroundImageFix" result="effect1_dropShadow_2030_2848"/>
<feBlend mode="normal" in="SourceGraphic" in2="effect1_dropShadow_2030_2848" result="shape"/>
<feGaussianBlur stdDeviation="9.84186" result="effect2_foregroundBlur_2030_2848"/>
</filter>
<filter id="filter6_f_2030_2848" x="-120.834" y="-160.323" width="217.395" height="253.699" filterUnits="userSpaceOnUse" color-interpolation-filters="sRGB">
<feFlood flood-opacity="0" result="BackgroundImageFix"/>
<feBlend mode="normal" in="SourceGraphic" in2="BackgroundImageFix" result="shape"/>
<feGaussianBlur stdDeviation="31.494" result="effect1_foregroundBlur_2030_2848"/>
</filter>
<filter id="filter7_b_2030_2848" x="-33" y="-74" width="225" height="168" filterUnits="userSpaceOnUse" color-interpolation-filters="sRGB">
<feFlood flood-opacity="0" result="BackgroundImageFix"/>
<feGaussianBlur in="BackgroundImageFix" stdDeviation="2"/>
<feComposite in2="SourceAlpha" operator="in" result="effect1_backgroundBlur_2030_2848"/>
<feBlend mode="normal" in="SourceGraphic" in2="effect1_backgroundBlur_2030_2848" result="shape"/>
</filter>
<linearGradient id="paint0_linear_2030_2848" x1="-27" y1="156.209" x2="405.255" y2="156.209" gradientUnits="userSpaceOnUse">
<stop stop-color="#4182FF"/>
<stop offset="1" stop-color="#4182FF" stop-opacity="0"/>
</linearGradient>
<linearGradient id="paint1_linear_2030_2848" x1="92.5948" y1="-186.958" x2="-318.704" y2="51.5071" gradientUnits="userSpaceOnUse">
<stop stop-color="#0057FF"/>
<stop offset="1" stop-color="#2C72FF"/>
</linearGradient>
<linearGradient id="paint2_linear_2030_2848" x1="87.7921" y1="-229.598" x2="-282.785" y2="57.3656" gradientUnits="userSpaceOnUse">
<stop stop-color="#0057FF"/>
<stop offset="0.519922" stop-color="#0057FF"/>
<stop offset="1" stop-color="#528AF8"/>
</linearGradient>
<linearGradient id="paint3_linear_2030_2848" x1="102.809" y1="-159.584" x2="-308.489" y2="78.8804" gradientUnits="userSpaceOnUse">
<stop stop-color="#2A72FF"/>
<stop offset="1" stop-color="#0057FF"/>
</linearGradient>
<linearGradient id="paint4_linear_2030_2848" x1="98.0063" y1="-202.225" x2="-272.571" y2="84.7388" gradientUnits="userSpaceOnUse">
<stop stop-color="#3470E2"/>
<stop offset="0.519922" stop-color="#0057FF"/>
<stop offset="1" stop-color="#003FB8"/>
</linearGradient>
<linearGradient id="paint5_linear_2030_2848" x1="216.456" y1="324.637" x2="186.884" y2="227.458" gradientUnits="userSpaceOnUse">
<stop stop-color="#C7DCFF"/>
<stop offset="1" stop-color="#C7DCFF" stop-opacity="0"/>
</linearGradient>
<clipPath id="clip0_2030_2848">
<rect width="409" height="473" fill="white"/>
</clipPath>
</defs>
</svg>
