<svg width="40" height="42" viewBox="0 0 40 42" fill="none" xmlns="http://www.w3.org/2000/svg">
<path d="M19.7623 20.6035C16.7348 13.6895 12.9309 0.459473 20.1967 0.459473C27.4626 0.459473 22.7897 13.6895 19.7623 20.6035Z" fill="#0057FF"/>
<path d="M19.7623 20.6035C27.3477 21.4749 41.9944 25.3669 38.3615 31.5724C34.7285 37.7778 24.3202 26.6461 19.7623 20.6035Z" fill="#0057FF"/>
<path d="M19.7623 20.6035C24.3202 14.5609 34.7285 4.62501 38.3615 10.8304C41.9944 17.0358 27.3477 19.7321 19.7623 20.6035Z" fill="#0057FF"/>
<path d="M19.7623 20.6035C22.7897 27.5175 27.0282 41.3454 19.7623 41.3454C12.4964 41.3454 16.7348 27.5175 19.7623 20.6035Z" fill="#0057FF"/>
<path d="M19.7623 20.6035C15.2043 26.6461 5.61472 37.7778 1.98178 31.5724C-1.65117 25.367 12.1769 21.4749 19.7623 20.6035Z" fill="#0057FF"/>
<path d="M19.7623 20.6035C12.1769 19.7321 -2.08564 16.438 1.54731 10.2325C5.18025 4.02712 15.2043 14.5609 19.7623 20.6035Z" fill="#0057FF"/>
<path d="M19.7623 20.6035C16.7348 13.6895 12.9309 0.459473 20.1967 0.459473C27.4626 0.459473 22.7897 13.6895 19.7623 20.6035ZM19.7623 20.6035C27.3477 21.4749 41.9944 25.3669 38.3615 31.5724C34.7285 37.7778 24.3202 26.6461 19.7623 20.6035ZM19.7623 20.6035C24.3202 14.5609 34.7285 4.62501 38.3615 10.8304C41.9944 17.0358 27.3477 19.7321 19.7623 20.6035ZM19.7623 20.6035C22.7897 27.5175 27.0282 41.3454 19.7623 41.3454C12.4964 41.3454 16.7348 27.5175 19.7623 20.6035ZM19.7623 20.6035C15.2043 26.6461 5.61472 37.7778 1.98178 31.5724C-1.65117 25.367 12.1769 21.4749 19.7623 20.6035ZM19.7623 20.6035C12.1769 19.7321 -2.08564 16.438 1.54731 10.2325C5.18025 4.02712 15.2043 14.5609 19.7623 20.6035Z" stroke="#0057FF" stroke-width="0.642134"/>
</svg>
