<svg width="26" height="26" viewBox="0 0 26 26" fill="none" xmlns="http://www.w3.org/2000/svg">
<path d="M3.23133 20.8368C2.64555 21.4226 2.64555 22.3723 3.23133 22.9581C3.81712 23.5439 4.76687 23.5439 5.35265 22.9581L3.23133 20.8368ZM22.792 4.89746C22.792 4.06903 22.1204 3.39746 21.292 3.39746H7.79199C6.96357 3.39746 6.29199 4.06903 6.29199 4.89746C6.29199 5.72589 6.96357 6.39746 7.79199 6.39746H19.792V18.3975C19.792 19.2259 20.4636 19.8975 21.292 19.8975C22.1204 19.8975 22.792 19.2259 22.792 18.3975V4.89746ZM5.35265 22.9581L22.3527 5.95812L20.2313 3.8368L3.23133 20.8368L5.35265 22.9581Z" fill="#0057FF"/>
</svg>
