<svg width="591" height="553" viewBox="0 0 591 553" fill="none" xmlns="http://www.w3.org/2000/svg">
<mask id="path-1-inside-1_1744_3158" fill="white">
<path d="M101.75 58.0306L130.25 0L159.75 58.0306L222.35 38.1493L202.892 100L260.5 130.25L204.109 159L222.351 222.351L161.25 203.355L130.25 260.5L101.25 203.769L38.1492 222.351L57.9815 160.5L0 130.25L58.6084 100L38.1493 38.1493L101.75 58.0306Z"/>
</mask>
<path d="M101.75 58.0306L130.25 0L159.75 58.0306L222.35 38.1493L202.892 100L260.5 130.25L204.109 159L222.351 222.351L161.25 203.355L130.25 260.5L101.25 203.769L38.1492 222.351L57.9815 160.5L0 130.25L58.6084 100L38.1493 38.1493L101.75 58.0306Z" fill="#9A73EB"/>
<path d="M130.25 0L135.599 -2.71896C134.568 -4.7453 132.482 -6.01553 130.209 -5.99986C127.936 -5.98419 125.867 -4.68531 124.864 -2.64496L130.25 0ZM101.75 58.0306L99.9599 63.7573L104.868 65.2917L107.136 60.6755L101.75 58.0306ZM38.1493 38.1493L39.9394 32.4226C37.792 31.7513 35.4496 32.3378 33.8718 33.9417C32.2941 35.5457 31.7463 37.8975 32.4528 40.0336L38.1493 38.1493ZM159.75 58.0306L154.401 60.7495L156.71 65.2913L161.566 63.7491L159.75 58.0306ZM222.35 38.1493L228.074 39.9499C228.746 37.8141 228.173 35.4819 226.587 33.9009C225.002 32.3198 222.668 31.753 220.534 32.4307L222.35 38.1493ZM202.892 100L197.168 98.1993L195.664 102.982L200.102 105.312L202.892 100ZM260.5 130.25L263.225 135.595C265.223 134.577 266.486 132.529 266.5 130.286C266.513 128.043 265.275 125.98 263.289 124.938L260.5 130.25ZM204.109 159L201.384 153.655L196.974 155.903L198.344 160.66L204.109 159ZM222.351 222.351L220.569 228.08C222.676 228.735 224.972 228.181 226.548 226.638C228.125 225.094 228.727 222.81 228.116 220.69L222.351 222.351ZM161.25 203.355L163.031 197.625L158.326 196.162L155.976 200.494L161.25 203.355ZM130.25 260.5L124.908 263.231C125.921 265.214 127.95 266.472 130.177 266.5C132.403 266.527 134.462 265.319 135.524 263.361L130.25 260.5ZM101.25 203.769L106.592 201.038L104.328 196.607L99.5551 198.013L101.25 203.769ZM38.1492 222.351L32.4357 220.519C31.7572 222.635 32.3037 224.952 33.8561 226.542C35.4085 228.132 37.7125 228.734 39.8441 228.106L38.1492 222.351ZM57.9815 160.5L63.6949 162.332L65.2384 157.519L60.7568 155.18L57.9815 160.5ZM0 130.25L-2.75189 124.918C-4.74257 125.946 -5.99506 127.997 -5.99999 130.237C-6.00491 132.477 -4.76145 134.533 -2.77531 135.57L0 130.25ZM58.6084 100L61.3603 105.332L65.9143 102.981L64.3049 98.1157L58.6084 100ZM124.864 -2.64496L96.3644 55.3856L107.136 60.6755L135.636 2.64496L124.864 -2.64496ZM36.3591 43.876L99.9599 63.7573L103.54 52.3039L39.9394 32.4226L36.3591 43.876ZM124.901 2.71896L154.401 60.7495L165.099 55.3116L135.599 -2.71896L124.901 2.71896ZM220.534 32.4307L157.934 52.312L161.566 63.7491L224.167 43.8678L220.534 32.4307ZM216.627 36.3486L197.168 98.1993L208.615 101.801L228.074 39.9499L216.627 36.3486ZM263.289 124.938L205.681 94.6878L200.102 105.312L257.711 135.562L263.289 124.938ZM257.775 124.905L201.384 153.655L206.834 164.345L263.225 135.595L257.775 124.905ZM198.344 160.66L216.585 224.011L228.116 220.69L209.875 157.34L198.344 160.66ZM159.469 209.084L220.569 228.08L224.132 216.621L163.031 197.625L159.469 209.084ZM155.976 200.494L124.976 257.639L135.524 263.361L166.524 206.216L155.976 200.494ZM135.592 257.769L106.592 201.038L95.9075 206.499L124.908 263.231L135.592 257.769ZM39.8441 228.106L102.945 209.524L99.5551 198.013L36.4542 216.595L39.8441 228.106ZM43.8626 224.183L63.6949 162.332L52.268 158.668L32.4357 220.519L43.8626 224.183ZM-2.77531 135.57L55.2062 165.82L60.7568 155.18L2.77531 124.93L-2.77531 135.57ZM2.75189 135.582L61.3603 105.332L55.8566 94.6683L-2.75189 124.918L2.75189 135.582ZM32.4528 40.0336L52.912 101.884L64.3049 98.1157L43.8457 36.265L32.4528 40.0336Z" fill="black" mask="url(#path-1-inside-1_1744_3158)"/>
<path d="M316.605 435.235C254.348 436.51 129.832 403.257 129.832 260.05" stroke="#0057FF" stroke-width="6"/>
<path d="M167.151 434.774H451.133" stroke="#0057FF" stroke-width="6"/>
<rect x="4.37583" y="-1.78814e-07" width="15.0816" height="15.0816" transform="matrix(0.729305 -0.684189 0.729305 0.684189 145.274 437.975)" fill="#F8F8F8" stroke="#0057FF" stroke-width="6"/>
<rect x="4.37583" y="-1.78814e-07" width="15.0816" height="15.0816" transform="matrix(0.729305 -0.684189 0.729305 0.684189 448.959 437.975)" fill="#F8F8F8" stroke="#0057FF" stroke-width="6"/>
<path d="M139.664 256.038C139.664 260.852 135.445 265.076 129.832 265.076C124.218 265.076 120 260.852 120 256.038C120 251.224 124.218 247 129.832 247C135.445 247 139.664 251.224 139.664 256.038Z" fill="#F8F8F8" stroke="#0057FF" stroke-width="6"/>
<path d="M327.863 435.27C327.863 440.084 323.644 444.308 318.031 444.308C312.418 444.308 308.199 440.084 308.199 435.27C308.199 430.456 312.418 426.232 318.031 426.232C323.644 426.232 327.863 430.456 327.863 435.27Z" fill="#F8F8F8" stroke="#0057FF" stroke-width="6"/>
<path d="M535.174 519.665C500.901 530.581 488.209 487.372 489.188 450.86C489.207 450.144 489.8 449.579 490.516 449.577C532.27 449.438 563.836 456.34 564.175 496.803C564.178 497.211 564.363 497.61 564.683 497.864L583.495 512.813C584.117 513.307 584.173 514.233 583.614 514.799L559.13 539.595C558.618 540.114 557.785 540.127 557.257 539.625L536.547 519.963C536.186 519.621 535.648 519.515 535.174 519.665Z" fill="#F8F8F8"/>
<path d="M535.961 488.484C535.961 491.809 533.088 494.503 529.545 494.503C526.002 494.503 523.129 491.809 523.129 488.484C523.129 485.16 526.002 482.465 529.545 482.465C533.088 482.465 535.961 485.16 535.961 488.484Z" fill="#F8F8F8"/>
<path d="M535.174 519.665C500.901 530.581 488.209 487.372 489.188 450.86C489.207 450.144 489.8 449.579 490.516 449.577C532.27 449.438 563.836 456.34 564.175 496.803M535.174 519.665C535.648 519.515 536.186 519.621 536.547 519.963L557.257 539.625C557.785 540.127 558.618 540.114 559.13 539.595L583.614 514.799C584.173 514.233 584.117 513.307 583.495 512.813L564.683 497.864C564.363 497.61 564.178 497.211 564.175 496.803M535.174 519.665C500.5 530.708 487.915 486.355 489.228 449.583M564.175 496.803C563.833 455.925 531.619 449.3 489.228 449.583M489.228 449.583L524.779 483.682M535.961 488.484C535.961 491.809 533.088 494.503 529.545 494.503C526.002 494.503 523.129 491.809 523.129 488.484C523.129 485.16 526.002 482.465 529.545 482.465C533.088 482.465 535.961 485.16 535.961 488.484Z" stroke="black" stroke-width="6"/>
</svg>
