<svg width="1895" height="393" viewBox="0 0 1895 393" fill="none" xmlns="http://www.w3.org/2000/svg">
<g clip-path="url(#clip0_2022_2643)">
<rect width="1507" height="476" rx="20" fill="#F3F7FF"/>
<path d="M454.5 0L517.5 242.5H546L592.5 0H454.5Z" fill="#5D94FF"/>
<path d="M530.5 264.5L463 311.5L-82.5 9L76.5 -49L530.5 264.5Z" fill="#0057FF"/>
<path d="M-52.5 21L489.5 291.5L502.5 336L442 360.5L-52.5 248V21Z" fill="#0653E7"/>
<path d="M535 268L298 0H478.5L535 268Z" fill="#3F80FF"/>
<path d="M476.5 238.5L115.5 -14.5L297 -21L501 225.5L476.5 238.5Z" fill="#256FFF"/>
<path d="M587.396 0L541.5 247L566.437 256.598L745 0H587.396Z" fill="#76A5FF"/>
<path d="M692.5 0L569 242H598L833 0H692.5Z" fill="#8CB3FF"/>
<path d="M823.172 0L573 254.924L586.982 265L954 0H823.172Z" fill="#A0C0FF"/>
<path d="M946.5 0L548 275.831L578 288L1154 0H946.5Z" fill="#B2CCFF"/>
<path d="M1123 -12.5L557 287L588.5 333L1268 -0.5L1123 -12.5Z" fill="#BED4FF"/>
<path d="M1255 180.5L601 348.5L583 326.5L1255 3.5V180.5Z" fill="#D2E0FF"/>
<path d="M1255 180.5L568 358.771L1233 380L1255 180.5Z" fill="#E9F0FF"/>
<path d="M-11.6386 76.569C-46.1233 76.569 -65.2264 102.43 -71.7678 118.084C-72.5964 120.067 -74.4847 121.441 -76.6339 121.441H-157C-159.761 121.441 -162 123.679 -162 126.441V488C-162 490.761 -159.761 493 -157 493H2016.43C2019.4 493 2021.72 490.418 2021.4 487.46L1950.43 -166.39C1950.16 -168.895 1948.06 -170.806 1945.54 -170.85L1150.37 -184.848C1146.53 -184.916 1144.06 -180.812 1145.9 -177.445L1201.6 -75.8468C1203.43 -72.5147 1200.98 -68.4096 1197.23 -67.795C1170.6 -63.4295 1167.75 -37.9654 1170.5 -20.6236C1171.01 -17.3803 1168.58 -14.2748 1165.31 -14.0595C1118 -10.9514 1107.11 26.0642 1107.58 49.1304C1107.64 52.1058 1105.3 54.6275 1102.36 55.1378C1083.65 58.3952 1080.7 78.3511 1082 92.4219C1082.29 95.5645 1079.91 98.4514 1076.75 98.6055C1041.77 100.315 1019.93 116.535 1008.82 130.364C1005.87 134.03 998.485 133.375 996.45 129.135C986.981 109.408 963.423 80.7692 906.193 90.2494C843.595 100.619 828.685 147.541 830.416 176.414C830.599 179.465 828.259 182.164 825.211 182.385C802.751 184.013 794.02 195.085 791.642 203.52C790.893 206.178 788.661 208.431 785.904 208.585C747.022 210.756 735.053 238.192 733.458 255.87C733.206 258.667 730.927 260.975 728.12 261.036C681.568 262.042 655.772 276.659 642.566 292.397C638.903 296.764 617.007 299.08 611.868 296.615C601.163 291.481 588.625 293.358 579.062 296.958C575.561 298.276 571.352 295.927 570.456 292.295C567.34 279.665 557.541 263.103 534.048 260.981C517.19 259.457 502.326 264.241 491.265 270.164C486.593 272.667 474.951 266.667 473.767 261.501C470.364 246.65 460.098 227.341 435.687 208.448C408.446 187.365 373.317 186.485 346.499 191.196C345.958 191.291 308.126 171.181 307.88 170.69C294.937 144.922 258.698 129.336 213.458 140.32C210.039 141.15 206.236 138.314 204.406 135.309C201.279 130.176 193.956 124.315 178.819 121.441C161.445 118.142 148.198 126.652 140.579 134.793C137.85 137.709 132.496 137.463 130.226 134.177C108.582 102.852 69.1771 109.023 46.2944 118.439C43.0636 119.768 39.2678 117.736 38.3431 114.367C34.0323 98.661 20.2345 76.569 -11.6386 76.569Z" fill="#D2E0FF"/>
<path d="M514.308 207C549.001 207 559.227 235.144 560.001 249.215C560.776 235.144 570.998 207 605.692 207C640.386 207 654.738 235.144 657.578 249.215C663.773 270.681 652.931 324.774 560.001 369.422C467.071 324.774 456.227 270.681 462.422 249.215C465.262 235.144 479.614 207 514.308 207Z" fill="#256FFF" stroke="#256FFF" stroke-width="5" stroke-linejoin="round"/>
<ellipse cx="551.492" cy="273.516" rx="5.41406" ry="7.73438" fill="#00369D"/>
<ellipse cx="574.695" cy="273.516" rx="5.41406" ry="7.73438" fill="#00369D"/>
<path d="M519.176 279.826C518.389 293.707 525.623 321.469 560.851 321.469C596.079 321.469 602.526 293.707 603.313 279.826M519.176 279.826L529 276.5M519.176 279.826L510.5 282.5" stroke="#00369D" stroke-width="7" stroke-linecap="round" stroke-linejoin="round"/>
<path d="M87.759 179.193C55.897 179.193 38.1621 202.56 31.9797 216.899C31.1324 218.865 29.2519 220.226 27.1117 220.226H-47C-49.7614 220.226 -52 222.465 -52 225.226V555C-52 557.761 -49.7614 560 -47 560H1972.42C1975.4 560 1977.71 557.412 1977.39 554.452L1911.51 -42.6148C1911.24 -45.1158 1909.15 -47.0222 1906.63 -47.0657L1168.51 -59.8497C1164.65 -59.9164 1162.18 -55.7828 1164.05 -52.4165L1215.08 39.152C1216.94 42.4848 1214.49 46.6211 1210.74 47.2886C1186.88 51.5281 1184.07 74.0413 1186.45 89.7404C1186.94 92.9955 1184.51 96.1195 1181.23 96.3503C1138.01 99.3879 1127.78 132.571 1128.05 153.615C1128.09 156.594 1125.74 159.119 1122.81 159.666C1106.01 162.81 1103.16 180.424 1104.23 193.156C1104.5 196.307 1102.11 199.202 1098.95 199.367C1067.3 201.014 1047.3 215.252 1036.85 227.678C1033.84 231.258 1026.45 230.588 1024.34 226.412C1015.27 208.414 993.236 183.169 940.872 191.703C883.055 201.125 869.006 243.552 870.41 269.994C870.572 273.051 868.222 275.752 865.17 275.989C844.975 277.557 836.88 287.272 834.52 294.876C833.701 297.513 831.465 299.772 828.708 299.936C793.174 302.047 781.996 326.595 780.359 342.718C780.075 345.512 777.804 347.823 774.996 347.887C733.565 348.836 709.89 361.225 697.259 374.95C693.409 379.134 670.729 381.66 665.425 379.612C656.1 376.013 645.572 377.576 637.309 380.546C633.804 381.806 629.612 379.456 628.651 375.858C625.591 364.391 616.424 349.736 594.968 347.829C579.952 346.494 566.639 350.455 556.508 355.554C551.782 357.933 539.886 351.791 538.532 346.677C535 333.329 525.336 316.384 503.542 299.79C478.097 280.416 445.247 279.699 420.274 284.079C419.784 284.165 384.973 265.706 384.747 265.262C372.763 241.789 339.292 227.555 297.467 237.376C294.048 238.179 290.21 235.33 288.251 232.415C285.18 227.844 278.366 222.763 264.787 220.226C248.948 217.267 236.798 224.697 229.657 232.008C226.887 234.842 221.576 234.586 219.262 231.368C199.209 203.487 163.249 208.845 142.045 217.305C138.817 218.593 135.037 216.563 134.065 213.226C129.892 198.902 117.021 179.193 87.759 179.193Z" fill="url(#paint0_radial_2022_2643)"/>
<path d="M1359.79 250.193C1400.54 250.193 1423.07 273.973 1430.72 288.276C1431.66 290.035 1433.44 291.226 1435.44 291.226H1532C1534.76 291.226 1537 293.465 1537 296.226V626C1537 628.761 1534.76 631 1532 631H-1031.25C-1034.29 631 -1036.62 628.315 -1036.2 625.307L-952.681 28.2587C-952.339 25.8147 -950.265 23.9856 -947.797 23.9519L-9.39136 11.1341C-5.3053 11.0783 -2.88147 15.6817 -5.23962 19.019L-69.3164 109.701C-71.6565 113.012 -69.2511 117.649 -65.2262 118.144C-34.2086 121.957 -30.3367 144.489 -33.2567 160.358C-33.8776 163.732 -31.4259 167.126 -27.9988 167.285C27.7506 169.862 40.9994 203.237 40.7249 224.454C40.6855 227.492 43.0251 230.144 46.0432 230.493C68.3491 233.074 72.2535 250.894 70.9503 263.862C70.6235 267.115 73.0345 270.207 76.3015 270.318C120.365 271.812 146.871 288.427 159.252 301.556C162.188 304.67 168.313 304.087 170.432 300.369C180.702 282.357 207.932 253.69 278.058 262.703C351.167 272.1 369.084 314.319 367.417 340.776C367.219 343.911 369.594 346.761 372.732 346.916C399.357 348.23 409.91 358.183 412.929 365.923C413.932 368.495 416.162 370.779 418.922 370.88C465.026 372.555 479.472 397.405 481.581 413.69C481.944 416.488 484.236 418.825 487.057 418.866C547.661 419.732 578.636 435.716 592.769 451.64C596.396 455.725 613.573 457.582 618.214 454.699C632.674 445.713 652.091 448.023 665.568 452.329C668.903 453.394 672.629 451.089 673.661 447.742C677.236 436.159 688.747 420.786 716.657 418.829C738.493 417.298 757.489 422.732 770.817 428.861C775.518 431.024 786.178 424.617 787.605 419.642C791.514 406.017 803.574 388.21 832.583 370.79C866.909 350.178 911.86 350.684 944.107 355.977C944.533 356.047 982.979 336.625 983.213 336.262C998.607 312.483 1041.96 298.186 1095.96 308.772C1099.33 309.433 1103.09 306.512 1105.23 303.825C1108.95 299.151 1117.59 293.839 1135.32 291.226C1157.17 288.008 1173.48 297.08 1182.1 304.921C1184.69 307.277 1189.06 307.073 1191.3 304.379C1217.06 273.362 1266.2 279.992 1293.31 289.068C1296.37 290.093 1299.71 288.153 1300.76 285.099C1305.7 270.718 1321.92 250.193 1359.79 250.193Z" fill="url(#paint1_radial_2022_2643)"/>
<path d="M916.943 378.866C825.546 380.172 801.537 415.862 801.053 433.873V586C801.053 588.761 803.292 591 806.053 591H2435.25C2438.29 591 2440.62 588.315 2440.2 585.307L2356.68 -11.7412C2356.34 -14.1853 2354.26 -16.0144 2351.8 -16.0481L1413.39 -28.8659C1409.31 -28.9217 1406.88 -24.3183 1409.24 -20.981L1473.32 69.7006C1475.66 73.0124 1473.25 77.6493 1469.23 78.144C1438.21 81.9568 1434.34 104.489 1437.26 120.358C1437.88 123.732 1435.43 127.126 1432 127.285C1376.25 129.862 1363 163.237 1363.28 184.454C1363.31 187.492 1360.97 190.144 1357.96 190.493C1335.65 193.074 1331.75 210.894 1333.05 223.862C1333.38 227.115 1330.97 230.207 1327.7 230.318C1283.63 231.812 1257.13 248.427 1244.75 261.556C1241.81 264.67 1235.69 264.087 1233.57 260.369C1223.3 242.357 1196.07 213.69 1125.94 222.703C1052.83 232.1 1034.92 274.319 1036.58 300.776C1036.78 303.911 1034.41 306.761 1031.27 306.916C1004.64 308.23 994.091 318.183 991.071 325.923C990.068 328.495 987.838 330.779 985.078 330.88C938.975 332.555 924.528 357.405 922.419 373.69C922.056 376.488 919.764 378.825 916.943 378.866Z" fill="url(#paint2_radial_2022_2643)"/>
</g>
<defs>
<radialGradient id="paint0_radial_2022_2643" cx="0" cy="0" r="1" gradientUnits="userSpaceOnUse" gradientTransform="translate(963 250) rotate(7.83903) scale(890.825 2916.73)">
<stop stop-color="white"/>
<stop offset="1" stop-color="#D2E0FF"/>
</radialGradient>
<radialGradient id="paint1_radial_2022_2643" cx="0" cy="0" r="1" gradientUnits="userSpaceOnUse" gradientTransform="translate(-34.0002 282.5) rotate(2.59728) scale(1478.52 3844.89)">
<stop stop-color="white"/>
<stop offset="1" stop-color="#EEF4FF" stop-opacity="0"/>
</radialGradient>
<radialGradient id="paint2_radial_2022_2643" cx="0" cy="0" r="1" gradientUnits="userSpaceOnUse" gradientTransform="translate(1438 242.5) rotate(177.403) scale(1478.52 3844.89)">
<stop stop-color="white"/>
<stop offset="1" stop-color="#EEF3FF" stop-opacity="0"/>
</radialGradient>
<clipPath id="clip0_2022_2643">
<rect width="1895" height="393" fill="white"/>
</clipPath>
</defs>
</svg>
