<svg width="384" height="384" viewBox="0 0 384 384" fill="none" xmlns="http://www.w3.org/2000/svg">
<circle cx="192" cy="192" r="190" fill="#0057FF" stroke="white" stroke-width="4" stroke-dasharray="6 6"/>
<mask id="mask0_1912_3852" style="mask-type:alpha" maskUnits="userSpaceOnUse" x="0" y="0" width="384" height="384">
<circle cx="192" cy="192" r="190.5" fill="#D9D9D9" stroke="white" stroke-width="3" stroke-dasharray="6 6"/>
</mask>
<g mask="url(#mask0_1912_3852)">
<path d="M96.8695 277.455C109.909 271.842 98.0826 169.314 96.916 116.42C96.8891 115.202 98.064 114.357 99.2283 114.715L288.725 172.938C289.529 173.184 290.051 173.975 289.986 174.813C285.247 235.982 291.049 267.857 295.551 278.951C296.077 280.246 295.135 281.747 293.796 281.348C288.038 279.629 283.388 273.263 280.025 264.957V280.016C280.025 281.006 279.211 281.829 278.245 281.615C274.815 280.854 272.16 277.943 270.194 274.423C269.177 272.601 264.791 273.023 264.565 275.097L264.007 280.21C263.908 281.12 263.139 281.809 262.224 281.809H222.092H150.125H129.858C129.525 281.809 129.254 281.538 129.254 281.205C129.254 280.519 128.069 280.283 127.707 280.865C124.105 286.657 118.375 284.666 115.162 282.324C114.733 282.011 114.501 281.501 114.501 280.97V273.651C114.501 271.679 111.215 270.902 110.048 272.492C99.0784 287.446 82.4858 283.646 96.8695 277.455Z" fill="#003FB8"/>
<path d="M77.0757 294.016C90.115 288.404 91.8962 185.876 91.1461 132.982C91.1288 131.764 92.3039 130.919 93.4682 131.276L119.091 139.149C119.745 139.35 120.226 139.893 120.327 140.57C121.545 148.712 124.327 171.894 127 208.68C129.804 247.276 125.831 281.652 123.494 294.016C120.244 303.847 113.129 301.602 109.402 298.885C108.973 298.572 108.741 298.062 108.741 297.531V290.212C108.741 288.241 105.191 287.31 103.876 288.78C90.2121 304.053 62.605 300.244 77.0757 294.016Z" fill="black"/>
<path d="M256.464 298.37H218.124C217.134 298.37 216.331 297.567 216.331 296.577V171.452C216.331 170.246 217.498 169.384 218.651 169.738L282.965 189.499C283.769 189.746 284.291 190.536 284.226 191.374C279.487 252.543 285.289 284.419 289.791 295.513C290.317 296.807 289.375 298.308 288.036 297.909C282.278 296.19 277.628 289.824 274.265 281.518V296.577C274.265 297.567 273.451 298.39 272.484 298.176C269.055 297.416 266.399 294.504 264.434 290.984C263.417 289.162 259.031 289.584 258.804 291.659L258.247 296.771C258.147 297.681 257.379 298.37 256.464 298.37Z" fill="black"/>
<path d="M228.17 314.531C223.396 304.184 227.521 282.225 231.044 273.437L129.16 215.88C142.481 256.925 134.734 304.898 123.759 321.371C107.385 323.855 123.415 362.374 157.771 373.768C192.128 385.163 229.023 369.759 242.867 351.394C239.588 348.978 232.944 324.877 228.17 314.531Z" fill="url(#paint0_linear_1912_3852)"/>
<path d="M199.727 356.295C171.788 362.056 146.441 339.494 134.2 326.412L126.279 338.654L164.443 390.139H218.449L263.634 367.817L231.77 326.412C234.771 334.693 227.666 350.535 199.727 356.295Z" fill="url(#paint1_linear_1912_3852)"/>
<path d="M220.098 358.44C166.471 378.542 143.694 340.27 129.999 306.25C109.697 316.559 79.9038 329.445 43.5038 364.625C23.9236 383.549 13.2305 409.341 10.3473 437.304H371.825C370.744 413.851 336.506 370.81 314.162 352.254C286.982 329.683 250.492 319.652 226.946 310.503L231.991 327.899C235.739 343.363 227.787 355.218 220.098 358.44Z" fill="#C7DCFF"/>
<path d="M226.37 292.928L230.33 274.926C217.801 271.486 151.727 256.617 140.321 234.602C142.049 254.524 189.041 292.928 226.37 292.928Z" fill="#A4C3FF"/>
<path d="M302.698 179.277C298.378 176.276 293.697 168.716 292.977 150.354V136.312H275.335V165.671C275.335 178.847 289.737 179.277 302.698 179.277Z" fill="black"/>
<path d="M286.708 144.593C286.708 152.105 283.968 174.934 283.616 182.037C285.455 214.37 276.415 243.243 263.454 256.204C249.413 274.566 242.219 284.218 223.85 284.218C172.747 284.218 120.879 226.321 115.839 176.996C115.839 110.537 143.584 44.793 194.687 44.793C245.79 44.793 286.708 78.1338 286.708 144.593Z" fill="url(#paint2_linear_1912_3852)"/>
<path d="M98.0177 157.93C111.846 146.656 125.305 160.456 128.44 164.56V210.017C106.315 215.699 86.402 167.401 98.0177 157.93Z" fill="white"/>
<path d="M216.289 157.195V152.514C183.526 144.593 170.924 161.875 178.125 157.195C183.886 153.45 205.968 155.635 216.289 157.195Z" fill="#E1EBFF"/>
<path d="M168.64 177.932L131.13 162.74" stroke="#E1EBFF" stroke-width="1.79283"/>
<path d="M248.692 157.14V152.71C276.326 145.213 286.955 161.57 280.881 157.14C276.023 153.596 257.398 155.663 248.692 157.14Z" fill="#CDDEFF"/>
<path d="M163.287 139.176C153.782 143.784 149.246 158.618 148.166 165.459L142.405 140.616L163.287 139.176Z" fill="#A4C3FF"/>
<path d="M174.165 139.193C168.98 113.27 165.524 128.392 164.444 139.193L152.922 105.349L173.084 108.949L174.165 139.193Z" fill="#A4C3FF"/>
<path d="M267.414 139.193C262.23 113.27 258.773 128.392 257.693 139.193L246.172 105.349L266.334 108.949L267.414 139.193Z" fill="#A4C3FF"/>
<path d="M138.521 189.598C136.144 188.579 127.227 176.92 126.277 178.577L126.639 180.957C126.195 179.624 126.104 178.88 126.277 178.577L124.743 168.503L138.521 189.598Z" fill="#A4C3FF"/>
<g filter="url(#filter0_f_1912_3852)">
<ellipse cx="174.99" cy="210.113" rx="24.8426" ry="16.436" transform="rotate(11.9815 174.99 210.113)" fill="#E1EBFF"/>
</g>
<path d="M111.878 161.875C118.69 165.582 112.5 169 118.359 172.316C118.967 172.66 121.261 175.56 115.5 177C111.5 178 111.047 182.559 113 185C115 187.5 126.711 192.406 118.359 196.438C107.917 201.479 99.0812 176.474 98.5 169.5C98 163.5 102 156.5 111.878 161.875Z" fill="url(#paint3_linear_1912_3852)"/>
<path d="M168.09 174.836L132.4 155.754" stroke="url(#paint4_linear_1912_3852)" stroke-width="2.39044"/>
<g filter="url(#filter1_f_1912_3852)">
<path d="M280.887 216.104C278.154 225.814 273.892 229.38 268.478 227.857C263.065 226.333 260.891 217.227 263.623 207.516C266.356 197.806 272.959 191.169 278.373 192.692C283.786 194.215 283.619 206.393 280.887 216.104Z" fill="#CDDEFF"/>
</g>
<path d="M288.94 83.7298C297.525 96.3855 300.677 112.721 301.585 145.876C301.604 146.547 301.064 147.113 300.392 147.113L266.73 147.113C266.102 147.113 265.581 146.632 265.543 146.005C265.037 137.725 264.547 122.031 259.032 113.119C258.437 112.157 257.153 112.676 257.241 113.804L259.752 145.825C259.807 146.519 259.258 147.113 258.561 147.113H216.424C216.107 147.113 215.803 146.987 215.579 146.763L209.688 140.873C208.935 140.12 207.648 140.653 207.648 141.718V145.918C207.648 146.578 207.113 147.113 206.453 147.113H173.92C173.259 147.113 172.725 146.582 172.719 145.922C172.621 135.783 171.285 117.549 166.685 111.757C166.114 111.038 165.164 111.531 165.164 112.449V146.152C165.164 146.713 164.773 147.199 164.225 147.319L151.262 150.165C150.751 150.277 150.371 150.716 150.325 151.238C148.461 172.201 144.641 183.872 152.659 195.751C153.184 196.529 152.712 197.593 151.775 197.544C144.387 197.159 131.981 191.493 126.675 170.906L130.029 185.612C130.241 186.541 129.333 187.325 128.482 186.898C122.681 183.987 120.179 178.492 117.596 159.229C117.574 159.067 117.519 158.906 117.429 158.77C116.973 158.086 115.371 155.881 112.958 154.674C110.82 153.605 108.638 153.234 106.117 153.594C103.597 153.954 97.9084 156.673 96.7563 158.978C95.3161 161.858 72.1975 95.611 130.524 53.8467C182.595 16.561 254.016 32.2444 288.94 83.7298Z" fill="black" stroke="black" stroke-width="0.59761"/>
<path d="M228.976 184.197C228.976 201.099 215.014 214.801 197.79 214.801C180.566 214.801 166.603 201.099 166.603 184.197C166.603 180.932 167.124 177.787 168.089 174.836C172.119 162.513 183.893 153.594 197.79 153.594C215.014 153.594 228.976 167.296 228.976 184.197ZM228.976 184.197C230.804 181.941 235.145 178.783 237.887 184.197M237.887 184.197C237.887 201.099 250.622 214.801 266.332 214.801C282.041 214.801 294.777 201.099 294.777 184.197C294.777 167.296 282.041 153.594 266.332 153.594C250.622 153.594 237.887 167.296 237.887 184.197Z" stroke="url(#paint5_linear_1912_3852)" stroke-width="2.39044"/>
<ellipse cx="199.4" cy="179.14" rx="6.3737" ry="7.22352" transform="rotate(-4.09783 199.4 179.14)" fill="#2B62CD"/>
<path d="M206.568 169.796C210.807 171.877 215.872 180.64 216.469 184.999C213.834 179.934 202.391 171.436 194.326 173.036C192.886 167.275 199.883 166.866 206.568 169.796Z" fill="#E1EBFF"/>
<path d="M216.469 185C215.872 180.64 211.527 172.598 207.288 170.516" stroke="#A4C3FF" stroke-width="1.19522" stroke-linecap="round"/>
<path d="M183.515 181.306C179.647 182.589 172.351 183.245 174.108 175.61C176.304 166.065 193.47 169.529 183.515 181.306Z" fill="#EEF4FF"/>
<path d="M184.605 180.957C189.602 185.285 210.053 182.68 215.152 185.722C203.863 190.696 180.841 194.92 184.605 180.957Z" fill="#E1EBFF"/>
<circle cx="199.118" cy="179.079" r="2.12457" transform="rotate(-4.09783 199.118 179.079)" fill="black"/>
<path d="M184.245 179.877C186.752 177.053 188.95 175.452 193.673 174.055C199.347 172.377 207.923 172.884 213.344 181.051L215.569 184.917" stroke="#30313A" stroke-width="1.41059" stroke-linecap="round"/>
<rect x="198.763" y="176.203" width="3.39931" height="1.69965" transform="rotate(-4.09783 198.763 176.203)" fill="white"/>
<rect x="197.068" y="176.326" width="0.849826" height="1.69965" transform="rotate(-4.09783 197.068 176.326)" fill="white"/>
<ellipse cx="5.65717" cy="6.47007" rx="5.65717" ry="6.47007" transform="matrix(-0.997443 -0.0714597 -0.0714597 0.997443 267.383 172.404)" fill="#2B62CD"/>
<path d="M256.932 168.796C253.575 170.941 252.107 179.113 251.572 183.477C253.718 178.376 260.832 169.331 267.133 170.804C266.501 168.771 262.222 165.767 256.932 168.796Z" fill="#CDDEFF"/>
<path d="M253.013 175.236C253.853 172.595 256.613 166.739 263.814 167.315C271.015 167.891 273.775 170.675 273.895 171.635" stroke="#A4C3FF" stroke-width="0.59761"/>
<path d="M276.247 179.137L276.215 179.123C267.257 164.423 285.166 159.072 284.336 171.236C283.582 182.295 279.799 180.666 276.247 179.137Z" fill="#CDDEFF"/>
<path d="M275.883 179.1C271.897 183.5 256.716 181.134 252.669 184.253C261.447 189.046 278.621 192.99 275.883 179.1Z" fill="#CDDEFF"/>
<ellipse cx="1.66429" cy="2.12457" rx="1.66429" ry="2.12457" transform="matrix(-0.997443 -0.0714597 -0.0714597 0.997443 261.677 176.154)" fill="black"/>
<path d="M276.055 178.077C274.132 175.295 273.382 173.589 269.699 172.267C265.273 170.678 258.538 171.317 254.159 179.559L252.293 183.478" stroke="#30313A" stroke-width="1.41059" stroke-linecap="round"/>
<rect width="2.66287" height="1.69965" transform="matrix(-0.997443 -0.0714597 -0.0714597 0.997443 264.48 174.5)" fill="white"/>
<rect width="0.665717" height="1.69965" transform="matrix(-0.997443 -0.0714597 -0.0714597 0.997443 265.808 174.595)" fill="white"/>
<path d="M244.732 211.56C248.188 206.088 240.411 191.518 236.091 184.917L231.05 213.72C234.171 215.281 241.275 217.033 244.732 211.56Z" fill="#F9FBFF"/>
<path d="M34.1099 382.938C59.6725 381.858 95.3162 395.899 110.798 431.183" stroke="#A4C3FF" stroke-width="2.39044"/>
<path d="M335.821 379.338C333.181 391.939 329.485 438.312 335.821 443.784" stroke="#A4C3FF" stroke-width="2.39044" stroke-linecap="round"/>
<circle cx="244.08" cy="225.08" r="1.08011" fill="#96AFE1"/>
<circle cx="229.25" cy="194.638" r="0.720075" fill="#96AFE1"/>
<circle cx="283.256" cy="196.078" r="0.720075" fill="#96AFE1"/>
<path d="M230.874 247.866C216.733 248.583 208.393 242.491 204.768 235.682C216.25 239.147 242.84 245.716 255.893 235.682C251.542 242.133 252.382 246.776 230.874 247.866Z" fill="#CDDEFF"/>
<path d="M230.514 236.455C221.231 237.31 209.482 236.811 204.768 236.455C213.954 240.372 243.061 246.307 255.173 235.743C250.821 235.624 239.797 235.6 230.514 236.455Z" fill="#CDDEFF"/>
<path d="M205.487 235.682C208.692 237.843 218.052 241.803 231.77 241.803C245.489 241.803 253.728 237.843 255.893 235.682" stroke="url(#paint6_radial_1912_3852)" stroke-linecap="round"/>
<path d="M235.527 250.426L226.727 251C225.721 251.066 225.243 252.271 225.931 253.009L228.609 255.878C228.985 256.281 229.588 256.375 230.069 256.104L236.191 252.661C237.3 252.037 236.797 250.344 235.527 250.426Z" fill="#E2ECFF"/>
<path d="M206.989 236.792C204.349 237.032 201.52 236.158 203.029 234.272C204.469 232.472 205.789 234.152 206.989 236.792Z" fill="#2E65D0"/>
<path d="M254.487 236.616C255.599 234.21 257.491 233.162 258.053 234.602C258.616 236.042 257.373 236.897 254.487 236.616Z" fill="#2E65D0"/>
<path d="M232.131 214.8C236.931 215.64 246.388 215.304 245.812 207.239C245.236 199.174 239.091 186.837 236.091 182.397" stroke="url(#paint7_linear_1912_3852)" stroke-width="1.79283" stroke-linecap="round"/>
<circle cx="120.519" cy="201.119" r="2.8803" fill="#003FB8"/>
<path d="M146.442 337.573C140.969 331.236 133.36 314.291 130.24 306.61C104.893 316.691 75.0344 337.933 63.2731 347.294C104.173 314.747 135.761 327.252 146.442 337.573Z" fill="#A3C3FF"/>
<path d="M232.85 338.293C232.85 330.733 228.17 316.691 227.09 310.571C242.931 316.043 275.695 327.492 291.896 337.213C250.132 318.844 235.01 330.013 232.85 338.293Z" fill="#A3C3FF"/>
<circle cx="192" cy="192" r="190" stroke="white" stroke-width="4" stroke-dasharray="6 6"/>
</g>
<defs>
<filter id="filter0_f_1912_3852" x="135.507" y="178.283" width="78.9661" height="63.6593" filterUnits="userSpaceOnUse" color-interpolation-filters="sRGB">
<feFlood flood-opacity="0" result="BackgroundImageFix"/>
<feBlend mode="normal" in="SourceGraphic" in2="BackgroundImageFix" result="shape"/>
<feGaussianBlur stdDeviation="7.47012" result="effect1_foregroundBlur_1912_3852"/>
</filter>
<filter id="filter1_f_1912_3852" x="247.503" y="177.534" width="50.1862" height="65.6011" filterUnits="userSpaceOnUse" color-interpolation-filters="sRGB">
<feFlood flood-opacity="0" result="BackgroundImageFix"/>
<feBlend mode="normal" in="SourceGraphic" in2="BackgroundImageFix" result="shape"/>
<feGaussianBlur stdDeviation="7.47012" result="effect1_foregroundBlur_1912_3852"/>
</filter>
<linearGradient id="paint0_linear_1912_3852" x1="156.882" y1="303.369" x2="458.954" y2="206.159" gradientUnits="userSpaceOnUse">
<stop stop-color="white"/>
<stop offset="1" stop-color="#0057FF"/>
</linearGradient>
<linearGradient id="paint1_linear_1912_3852" x1="194.686" y1="371.057" x2="192.526" y2="291.849" gradientUnits="userSpaceOnUse">
<stop stop-color="#A4C3FF"/>
<stop offset="0.313797" stop-color="#A4C3FF" stop-opacity="0"/>
</linearGradient>
<linearGradient id="paint2_linear_1912_3852" x1="219.169" y1="170.875" x2="364.625" y2="140.272" gradientUnits="userSpaceOnUse">
<stop stop-color="white"/>
<stop offset="1" stop-color="#A4C3FF"/>
</linearGradient>
<linearGradient id="paint3_linear_1912_3852" x1="109.932" y1="158.2" x2="109.932" y2="197.069" gradientUnits="userSpaceOnUse">
<stop stop-color="#A4C3FF"/>
<stop offset="1" stop-color="#A4C3FF" stop-opacity="0"/>
</linearGradient>
<linearGradient id="paint4_linear_1912_3852" x1="333.661" y1="198.959" x2="147.522" y2="169.435" gradientUnits="userSpaceOnUse">
<stop stop-color="#70A1FF"/>
<stop offset="1" stop-color="#003BAE"/>
</linearGradient>
<linearGradient id="paint5_linear_1912_3852" x1="333.661" y1="198.959" x2="147.521" y2="169.436" gradientUnits="userSpaceOnUse">
<stop stop-color="#70A1FF"/>
<stop offset="1" stop-color="#003BAE"/>
</linearGradient>
<radialGradient id="paint6_radial_1912_3852" cx="0" cy="0" r="1" gradientUnits="userSpaceOnUse" gradientTransform="translate(251.579 238.563) rotate(-178.025) scale(44.9431 370.119)">
<stop stop-color="#2E65D0"/>
<stop offset="0.169792" stop-color="#2E65D0"/>
<stop offset="0.409375" stop-color="#2E65D0" stop-opacity="0"/>
<stop offset="0.607292" stop-color="#2E65D0"/>
<stop offset="1" stop-color="#2E65D0"/>
</radialGradient>
<linearGradient id="paint7_linear_1912_3852" x1="242.572" y1="197.158" x2="236.091" y2="185.997" gradientUnits="userSpaceOnUse">
<stop stop-color="#A4C3FF"/>
<stop offset="1" stop-color="#A4C3FF" stop-opacity="0"/>
</linearGradient>
</defs>
</svg>
