<svg width="24" height="24" viewBox="0 0 24 24" fill="none" xmlns="http://www.w3.org/2000/svg">
<path d="M13.0405 11.2184V17.9258H10.9722V11.2184H13.0405ZM10.8467 7.28516C10.8467 6.93099 10.9524 6.64193 11.1639 6.41797C11.3753 6.1888 11.6528 6.07422 11.9965 6.07422C12.3401 6.07422 12.6176 6.1888 12.829 6.41797C13.0449 6.64193 13.1528 6.93099 13.1528 7.28516C13.1528 7.63411 13.0449 7.92318 12.829 8.15234C12.6176 8.3763 12.3401 8.48828 11.9965 8.48828C11.6528 8.48828 11.3753 8.3763 11.1639 8.15234C10.9524 7.92318 10.8467 7.63411 10.8467 7.28516Z" fill="#0057FF" fill-opacity="0.25"/>
<path d="M13.1655 11.2184V11.0934H13.0405H10.9722H10.8472V11.2184V17.9258V18.0508H10.9722H13.0405H13.1655V17.9258V11.2184ZM12.9199 8.23816L12.92 8.23805C13.1602 7.9831 13.2778 7.66222 13.2778 7.28516C13.2778 6.90398 13.1608 6.58259 12.92 6.3322C12.6824 6.07529 12.3705 5.94922 11.9965 5.94922C11.6222 5.94922 11.3101 6.07545 11.0725 6.33268C10.8362 6.58325 10.7217 6.90448 10.7217 7.28516C10.7217 7.66149 10.8366 7.98205 11.072 8.23711L11.072 8.23712L11.073 8.23816C11.3109 8.49015 11.6228 8.61328 11.9965 8.61328C12.3701 8.61328 12.682 8.49015 12.9199 8.23816Z" stroke="#0057FF" stroke-opacity="0.25" stroke-width="0.25"/>
<rect x="1.7998" y="1.80005" width="20.4" height="20.4" rx="10.2" stroke="#0057FF" stroke-opacity="0.25" stroke-width="2"/>
</svg>
