<svg width="812" height="835" viewBox="0 0 812 835" fill="none" xmlns="http://www.w3.org/2000/svg">
<g clip-path="url(#clip0_1735_3157)">
<path d="M0 641.173C50 532.84 167.5 341.773 237.5 444.173C325 572.173 452.5 273.173 486.5 299.673C513.7 320.873 531.5 308.506 537 299.673" stroke="#E4FD41" stroke-width="20" stroke-linecap="round" stroke-linejoin="round"/>
<g filter="url(#filter0_d_1735_3157)">
<path d="M524.219 735.749L153.455 146.854L143.416 104.556L137.799 80.8886L156.226 94.8157L195.274 124.328L563.047 716.857C563.733 717.808 564.331 718.797 564.858 719.774C568.177 725.937 562.008 733.463 550.062 740.806C538.116 748.15 529.71 743.44 527.001 740.167C525.933 739.105 524.88 737.59 524.219 735.749Z" fill="#DEDEDE"/>
<path d="M153.455 146.854L527.001 740.167M153.455 146.854C156.367 149.45 163.412 152.054 168.286 141.704C174.38 128.767 180.714 138.417 185.285 134.251C188.942 130.919 193.468 126.247 195.274 124.328M153.455 146.854L143.416 104.556M527.001 740.167C522.925 736.115 519.081 725.464 536.309 715.275C553.538 705.086 561.064 712.731 564.858 719.774M527.001 740.167C529.71 743.44 538.116 748.15 550.062 740.806C562.008 733.463 568.177 725.937 564.858 719.774M564.858 719.774L195.274 124.328M195.274 124.328L156.226 94.8157M143.416 104.556L137.799 80.8886L156.226 94.8157M143.416 104.556L149.821 99.6856L156.226 94.8157" stroke="black" stroke-width="3"/>
</g>
<path d="M143.416 104.556L137.799 80.8886L156.226 94.8157L149.821 99.6856L143.416 104.556Z" fill="black"/>
<ellipse cx="546.711" cy="727.162" rx="7.5" ry="3.5" transform="rotate(-24.9772 546.711 727.162)" fill="black"/>
<g filter="url(#filter1_d_1735_3157)">
<path d="M523.861 332.628L520.691 296.332C520.358 293.924 520.22 289.216 525.516 287.548C530.813 285.879 532.704 288.743 533.911 290.917L553.838 323.348C555.812 323.42 557.362 323.534 558.572 323.736C560.522 324.062 561.723 325.759 562.338 327.638L566.938 341.688L645.491 581.596L648.667 591.296C649.929 595.15 648.762 599.43 645.337 601.6C637.256 606.718 624.201 612.296 610.306 610.926C606.817 610.583 604.086 607.954 603.021 604.613L600.43 596.479L523.91 356.339L519.309 341.899C518.723 340.061 518.698 338.062 519.88 336.537C520.824 335.319 522.177 333.926 523.861 332.628Z" fill="#E4FD41"/>
<path d="M523.861 332.628L520.691 296.332C520.358 293.924 520.22 289.216 525.516 287.548C530.813 285.879 532.704 288.743 533.911 290.917L553.838 323.348C555.812 323.42 557.362 323.534 558.572 323.736C560.522 324.062 561.723 325.759 562.338 327.638L566.938 341.688L645.491 581.596L648.667 591.296C649.929 595.15 648.762 599.43 645.337 601.6C637.256 606.718 624.201 612.296 610.306 610.926C606.817 610.583 604.086 607.954 603.021 604.613L600.43 596.479L523.91 356.339L519.309 341.899C518.723 340.061 518.698 338.062 519.88 336.537C520.824 335.319 522.177 333.926 523.861 332.628Z" fill="#E4FD41"/>
<path d="M523.861 332.628L520.691 296.332C520.358 293.924 520.22 289.216 525.516 287.548C530.813 285.879 532.704 288.743 533.911 290.917L553.838 323.348M523.861 332.628C522.177 333.926 520.824 335.319 519.88 336.537C518.698 338.062 518.723 340.061 519.309 341.899L523.91 356.339M523.861 332.628C529.553 328.242 549.109 323.174 553.838 323.348M553.838 323.348C555.812 323.42 557.362 323.534 558.572 323.736C560.522 324.062 561.723 325.759 562.338 327.638L566.938 341.688M523.91 356.339C529.6 351.693 546.171 342.258 566.938 341.688M523.91 356.339L600.43 596.479M566.938 341.688L645.491 581.596M600.43 596.479L603.021 604.613C604.086 607.954 606.817 610.583 610.306 610.926C624.201 612.296 637.256 606.718 645.337 601.6C648.762 599.43 649.929 595.15 648.667 591.296L645.491 581.596M600.43 596.479C609.068 598.015 630.175 597.187 645.491 581.596" stroke="black" stroke-width="3" stroke-linecap="round" stroke-linejoin="round"/>
<path fill-rule="evenodd" clip-rule="evenodd" d="M588.976 408.994L625.622 520.916C625.25 525.958 623.994 529.149 621.785 529.88C614.355 532.338 598.962 506.006 587.405 471.067C575.848 436.128 572.503 405.812 579.933 403.354C582.278 402.578 585.416 404.67 588.976 408.994Z" fill="black"/>
</g>
<g filter="url(#filter2_d_1735_3157)">
<path d="M617.937 358.84L605.48 324.601C604.535 322.362 603.184 317.85 607.868 314.867C612.552 311.884 615.12 314.162 616.848 315.949L644.49 342.117C646.415 341.676 647.942 341.384 649.163 341.267C651.131 341.077 652.731 342.406 653.811 344.061L661.891 356.441L799.859 567.844L805.438 576.392C807.654 579.788 807.635 584.224 804.888 587.206C798.407 594.242 787.241 603.008 773.465 605.282C770.005 605.853 766.687 604.02 764.794 601.069L760.186 593.883L624.12 381.73L615.939 368.973C614.897 367.349 614.356 365.425 615.103 363.646C615.699 362.226 616.646 360.53 617.937 358.84Z" fill="#A1E9D2"/>
<path d="M617.937 358.84L605.48 324.601C604.535 322.362 603.184 317.85 607.868 314.867C612.552 311.884 615.12 314.162 616.848 315.949L644.49 342.117C646.415 341.676 647.942 341.384 649.163 341.267C651.131 341.077 652.731 342.406 653.811 344.061L661.891 356.441L799.859 567.844L805.438 576.392C807.654 579.788 807.635 584.224 804.888 587.206C798.407 594.242 787.241 603.008 773.465 605.282C770.005 605.853 766.687 604.02 764.794 601.069L760.186 593.883L624.12 381.73L615.939 368.973C614.897 367.349 614.356 365.425 615.103 363.646C615.699 362.226 616.646 360.53 617.937 358.84Z" fill="#A1E9D2"/>
<path d="M617.937 358.84L605.48 324.601C604.535 322.362 603.184 317.85 607.868 314.867C612.552 311.884 615.12 314.162 616.848 315.949L644.49 342.117M617.937 358.84C616.646 360.53 615.699 362.226 615.103 363.646C614.356 365.425 614.897 367.349 615.939 368.973L624.12 381.73M617.937 358.84C622.299 353.13 639.877 343.173 644.49 342.117M644.49 342.117C646.415 341.676 647.942 341.384 649.163 341.267C651.131 341.077 652.731 342.406 653.811 344.061L661.891 356.441M624.12 381.73C628.414 375.769 641.979 362.367 661.891 356.441M624.12 381.73L760.186 593.883M661.891 356.441L799.859 567.844M760.186 593.883L764.794 601.069C766.687 604.02 770.005 605.853 773.465 605.282C787.241 603.008 798.407 594.242 804.888 587.206C807.635 584.224 807.654 579.788 805.438 576.392L799.859 567.844M760.186 593.883C768.927 593.13 789.1 586.868 799.859 567.844" stroke="black" stroke-width="3" stroke-linecap="round" stroke-linejoin="round"/>
<path fill-rule="evenodd" clip-rule="evenodd" d="M700.598 415.751L764.963 514.374C765.909 519.341 765.521 522.749 763.577 524.026C757.035 528.323 735.352 506.873 715.146 476.115C694.94 445.358 683.862 416.94 690.403 412.643C692.467 411.287 696.04 412.495 700.598 415.751Z" fill="black"/>
</g>
</g>
<defs>
<filter id="filter0_d_1735_3157" x="125.377" y="77.1776" width="441.875" height="679.021" filterUnits="userSpaceOnUse" color-interpolation-filters="sRGB">
<feFlood flood-opacity="0" result="BackgroundImageFix"/>
<feColorMatrix in="SourceAlpha" type="matrix" values="0 0 0 0 0 0 0 0 0 0 0 0 0 0 0 0 0 0 127 0" result="hardAlpha"/>
<feOffset dx="-10" dy="10"/>
<feComposite in2="hardAlpha" operator="out"/>
<feColorMatrix type="matrix" values="0 0 0 0 0 0 0 0 0 0 0 0 0 0 0 0 0 0 1 0"/>
<feBlend mode="normal" in2="BackgroundImageFix" result="effect1_dropShadow_1735_3157"/>
<feBlend mode="normal" in="SourceGraphic" in2="effect1_dropShadow_1735_3157" result="shape"/>
</filter>
<filter id="filter1_d_1735_3157" x="497.416" y="285.548" width="153.243" height="347.089" filterUnits="userSpaceOnUse" color-interpolation-filters="sRGB">
<feFlood flood-opacity="0" result="BackgroundImageFix"/>
<feColorMatrix in="SourceAlpha" type="matrix" values="0 0 0 0 0 0 0 0 0 0 0 0 0 0 0 0 0 0 127 0" result="hardAlpha"/>
<feOffset dx="-20" dy="20"/>
<feComposite in2="hardAlpha" operator="out"/>
<feColorMatrix type="matrix" values="0 0 0 0 0 0 0 0 0 0 0 0 0 0 0 0 0 0 1 0"/>
<feBlend mode="normal" in2="BackgroundImageFix" result="effect1_dropShadow_1735_3157"/>
<feBlend mode="normal" in="SourceGraphic" in2="effect1_dropShadow_1735_3157" result="shape"/>
</filter>
<filter id="filter2_d_1735_3157" x="583.045" y="311.921" width="225.485" height="314.966" filterUnits="userSpaceOnUse" color-interpolation-filters="sRGB">
<feFlood flood-opacity="0" result="BackgroundImageFix"/>
<feColorMatrix in="SourceAlpha" type="matrix" values="0 0 0 0 0 0 0 0 0 0 0 0 0 0 0 0 0 0 127 0" result="hardAlpha"/>
<feOffset dx="-20" dy="20"/>
<feComposite in2="hardAlpha" operator="out"/>
<feColorMatrix type="matrix" values="0 0 0 0 0 0 0 0 0 0 0 0 0 0 0 0 0 0 1 0"/>
<feBlend mode="normal" in2="BackgroundImageFix" result="effect1_dropShadow_1735_3157"/>
<feBlend mode="normal" in="SourceGraphic" in2="effect1_dropShadow_1735_3157" result="shape"/>
</filter>
<clipPath id="clip0_1735_3157">
<rect width="812" height="835" fill="white"/>
</clipPath>
</defs>
</svg>
