<svg width="61" height="28" viewBox="0 0 61 28" fill="none" xmlns="http://www.w3.org/2000/svg">
<path d="M14.9021 13.8538C13.3073 10.4717 11.3034 4 15.131 4C18.9586 4 16.497 10.4717 14.9021 13.8538Z" fill="white"/>
<path d="M14.9021 13.8538C18.898 14.28 26.6139 16.1839 24.7001 19.2193C22.7862 22.2548 17.3032 16.8096 14.9021 13.8538Z" fill="white"/>
<path d="M14.9021 13.8538C17.3032 10.8979 22.7862 6.03764 24.7001 9.07311C26.6139 12.1086 18.898 13.4275 14.9021 13.8538Z" fill="white"/>
<path d="M14.9021 13.8538C16.497 17.2358 18.7298 24 14.9021 24C11.0745 24 13.3073 17.2358 14.9021 13.8538Z" fill="white"/>
<path d="M14.9021 13.8538C12.501 16.8096 7.44927 22.2548 5.53546 19.2194C3.62165 16.1839 10.9062 14.28 14.9021 13.8538Z" fill="white"/>
<path d="M14.9021 13.8538C10.9062 13.4275 3.39277 11.8161 5.30658 8.78065C7.22039 5.74517 12.501 10.8979 14.9021 13.8538Z" fill="white"/>
<path d="M14.9021 13.8538C13.3073 10.4717 11.3034 4 15.131 4C18.9586 4 16.497 10.4717 14.9021 13.8538ZM14.9021 13.8538C18.898 14.28 26.6139 16.1839 24.7001 19.2193C22.7862 22.2548 17.3032 16.8096 14.9021 13.8538ZM14.9021 13.8538C17.3032 10.8979 22.7862 6.03764 24.7001 9.07311C26.6139 12.1086 18.898 13.4275 14.9021 13.8538ZM14.9021 13.8538C16.497 17.2358 18.7298 24 14.9021 24C11.0745 24 13.3073 17.2358 14.9021 13.8538ZM14.9021 13.8538C12.501 16.8096 7.44927 22.2548 5.53546 19.2194C3.62165 16.1839 10.9062 14.28 14.9021 13.8538ZM14.9021 13.8538C10.9062 13.4275 3.39277 11.8161 5.30658 8.78065C7.22039 5.74517 12.501 10.8979 14.9021 13.8538Z" stroke="white" stroke-width="0.642134"/>
<path d="M46.1084 4.49391C46.2648 3.91707 47.7057 3.91707 47.8621 4.49391C48.4336 6.6016 49.3313 8.94449 50.6861 10.2993C52.0408 11.6541 54.3837 12.5517 56.4914 13.1233C57.0683 13.2797 57.0683 14.7205 56.4914 14.877C54.3837 15.4485 52.0408 16.3461 50.6861 17.7009C49.3313 19.0557 48.4336 21.3986 47.8621 23.5063C47.7057 24.0831 46.2648 24.0831 46.1084 23.5063C45.5369 21.3986 44.6392 19.0557 43.2844 17.7009C41.9296 16.3461 39.5867 15.4485 37.479 14.877C36.9022 14.7205 36.9022 13.2797 37.479 13.1233C39.5867 12.5517 41.9296 11.6541 43.2844 10.2993C44.6392 8.94449 45.5369 6.6016 46.1084 4.49391Z" fill="white"/>
</svg>
