<svg width="24" height="24" viewBox="0 0 24 24" fill="none" xmlns="http://www.w3.org/2000/svg">
<path d="M1.93934 19.9393C1.35355 20.5251 1.35355 21.4749 1.93934 22.0607C2.52513 22.6464 3.47487 22.6464 4.06066 22.0607L1.93934 19.9393ZM21.5 4C21.5 3.17157 20.8284 2.5 20 2.5H6.5C5.67157 2.5 5 3.17157 5 4C5 4.82843 5.67157 5.5 6.5 5.5H18.5V17.5C18.5 18.3284 19.1716 19 20 19C20.8284 19 21.5 18.3284 21.5 17.5V4ZM4.06066 22.0607L21.0607 5.06066L18.9393 2.93934L1.93934 19.9393L4.06066 22.0607Z" fill="#F8F8F8"/>
</svg>
