<svg width="41" height="41" viewBox="0 0 41 41" fill="none" xmlns="http://www.w3.org/2000/svg">
<path d="M4.91406 32.5091C3.93775 33.4854 3.93775 35.0684 4.91406 36.0447C5.89037 37.021 7.47328 37.021 8.44959 36.0447L4.91406 32.5091ZM36.3818 7.0769C36.3818 5.69619 35.2625 4.5769 33.8818 4.5769H11.3818C10.0011 4.5769 8.88182 5.69619 8.88182 7.0769C8.88182 8.45762 10.0011 9.5769 11.3818 9.5769H31.3818V29.5769C31.3818 30.9576 32.5011 32.0769 33.8818 32.0769C35.2625 32.0769 36.3818 30.9576 36.3818 29.5769V7.0769ZM8.44959 36.0447L35.6496 8.84467L32.1141 5.30914L4.91406 32.5091L8.44959 36.0447Z" fill="#1B1B1B"/>
</svg>
