<svg width="24" height="18" viewBox="0 0 24 18" fill="none" xmlns="http://www.w3.org/2000/svg">
<path d="M13.5 13.9999C13.5 13.1715 12.8284 12.4999 12 12.4999C11.1716 12.4999 10.5 13.1715 10.5 13.9999L13.5 13.9999ZM10.9393 15.0607C11.5251 15.6465 12.4749 15.6465 13.0607 15.0607L22.6066 5.51473C23.1924 4.92894 23.1924 3.97919 22.6066 3.39341C22.0208 2.80762 21.0711 2.80762 20.4853 3.39341L12 11.8787L3.51472 3.39341C2.92893 2.80762 1.97918 2.80762 1.3934 3.39341C0.807611 3.97919 0.807611 4.92894 1.3934 5.51473L10.9393 15.0607ZM10.5 13.9999L10.5 14L13.5 14L13.5 13.9999L10.5 13.9999Z" fill="#B2B3BA"/>
</svg>
