<svg width="358" height="242" viewBox="0 0 358 242" fill="none" xmlns="http://www.w3.org/2000/svg">
<g clip-path="url(#clip0_1240_15351)">
<path d="M8.464 4.432V6.144H3.336V9.352H7.376V11.008H3.336V14.28H8.464V16H1.168V4.432H8.464ZM10.2122 16V7.792H11.4203C11.6763 7.792 11.8443 7.912 11.9243 8.152L12.0523 8.76C12.1963 8.6 12.3456 8.45333 12.5003 8.32C12.6603 8.18667 12.8283 8.072 13.0043 7.976C13.1856 7.88 13.3776 7.80533 13.5803 7.752C13.7883 7.69333 14.0149 7.664 14.2603 7.664C14.7776 7.664 15.2016 7.80533 15.5323 8.088C15.8683 8.36533 16.1189 8.736 16.2843 9.2C16.4123 8.928 16.5723 8.696 16.7643 8.504C16.9563 8.30667 17.1669 8.14667 17.3963 8.024C17.6256 7.90133 17.8683 7.81067 18.1243 7.752C18.3856 7.69333 18.6469 7.664 18.9083 7.664C19.3616 7.664 19.7643 7.73333 20.1163 7.872C20.4683 8.01067 20.7643 8.21333 21.0043 8.48C21.2443 8.74667 21.4256 9.072 21.5483 9.456C21.6763 9.84 21.7403 10.28 21.7403 10.776V16H19.7643V10.776C19.7643 10.2533 19.6496 9.86133 19.4203 9.6C19.1909 9.33333 18.8549 9.2 18.4123 9.2C18.2096 9.2 18.0203 9.23467 17.8443 9.304C17.6736 9.37333 17.5216 9.47467 17.3883 9.608C17.2603 9.736 17.1589 9.89867 17.0843 10.096C17.0096 10.2933 16.9723 10.52 16.9723 10.776V16H14.9883V10.776C14.9883 10.2267 14.8763 9.82667 14.6523 9.576C14.4336 9.32533 14.1083 9.2 13.6762 9.2C13.3936 9.2 13.1269 9.272 12.8763 9.416C12.6309 9.55467 12.4016 9.74667 12.1883 9.992V16H10.2122ZM30.113 16H29.225C29.0383 16 28.8917 15.9733 28.785 15.92C28.6783 15.8613 28.5983 15.7467 28.545 15.576L28.369 14.992C28.161 15.1787 27.9557 15.344 27.753 15.488C27.5557 15.6267 27.3503 15.744 27.137 15.84C26.9237 15.936 26.697 16.008 26.457 16.056C26.217 16.104 25.9503 16.128 25.657 16.128C25.3103 16.128 24.9903 16.0827 24.697 15.992C24.4037 15.896 24.1503 15.7547 23.937 15.568C23.729 15.3813 23.5663 15.1493 23.449 14.872C23.3317 14.5947 23.273 14.272 23.273 13.904C23.273 13.5947 23.353 13.2907 23.513 12.992C23.6783 12.688 23.9503 12.416 24.329 12.176C24.7077 11.9307 25.2117 11.728 25.841 11.568C26.4703 11.408 27.2517 11.3173 28.185 11.296V10.816C28.185 10.2667 28.0677 9.86133 27.833 9.6C27.6037 9.33333 27.2677 9.2 26.825 9.2C26.505 9.2 26.2383 9.23733 26.025 9.312C25.8117 9.38667 25.625 9.472 25.465 9.568C25.3103 9.65867 25.1663 9.74133 25.033 9.816C24.8997 9.89067 24.753 9.928 24.593 9.928C24.4597 9.928 24.345 9.89333 24.249 9.824C24.153 9.75467 24.0757 9.66933 24.017 9.568L23.657 8.936C24.601 8.072 25.7397 7.64 27.073 7.64C27.553 7.64 27.9797 7.72 28.353 7.88C28.7317 8.03467 29.0517 8.25333 29.313 8.536C29.5743 8.81333 29.7717 9.14667 29.905 9.536C30.0437 9.92533 30.113 10.352 30.113 10.816V16ZM26.273 14.768C26.4757 14.768 26.6623 14.7493 26.833 14.712C27.0037 14.6747 27.1637 14.6187 27.313 14.544C27.4677 14.4693 27.6143 14.3787 27.753 14.272C27.897 14.16 28.041 14.0293 28.185 13.88V12.496C27.609 12.5227 27.1263 12.5733 26.737 12.648C26.353 12.7173 26.0437 12.808 25.809 12.92C25.5743 13.032 25.4063 13.1627 25.305 13.312C25.209 13.4613 25.161 13.624 25.161 13.8C25.161 14.1467 25.2623 14.3947 25.465 14.544C25.673 14.6933 25.9423 14.768 26.273 14.768ZM34.16 7.792V16H32.184V7.792H34.16ZM34.456 5.4C34.456 5.57067 34.4213 5.73067 34.352 5.88C34.2827 6.02933 34.1893 6.16 34.072 6.272C33.96 6.384 33.8267 6.47467 33.672 6.544C33.5173 6.608 33.352 6.64 33.176 6.64C33.0053 6.64 32.8427 6.608 32.688 6.544C32.5387 6.47467 32.408 6.384 32.296 6.272C32.184 6.16 32.0933 6.02933 32.024 5.88C31.96 5.73067 31.928 5.57067 31.928 5.4C31.928 5.224 31.96 5.05867 32.024 4.904C32.0933 4.74933 32.184 4.616 32.296 4.504C32.408 4.392 32.5387 4.304 32.688 4.24C32.8427 4.17067 33.0053 4.136 33.176 4.136C33.352 4.136 33.5173 4.17067 33.672 4.24C33.8267 4.304 33.96 4.392 34.072 4.504C34.1893 4.616 34.2827 4.74933 34.352 4.904C34.4213 5.05867 34.456 5.224 34.456 5.4ZM38.5038 4.112V16H36.5278V4.112H38.5038Z" fill="#1B1B1B"/>
<path d="M44 5L49 1.5M44 1.5L49 5M46.5 6V0" stroke="#CA5B5B"/>
<rect x="0.5" y="27.5" width="357" height="42" rx="3.5" fill="#F8F8F8"/>
<path d="M20.464 43.432V45.144H15.336V48.352H19.376V50.008H15.336V53.28H20.464V55H13.168V43.432H20.464ZM22.2122 55V46.792H23.4203C23.6763 46.792 23.8443 46.912 23.9243 47.152L24.0523 47.76C24.1963 47.6 24.3456 47.4533 24.5003 47.32C24.6603 47.1867 24.8283 47.072 25.0043 46.976C25.1856 46.88 25.3776 46.8053 25.5803 46.752C25.7883 46.6933 26.0149 46.664 26.2603 46.664C26.7776 46.664 27.2016 46.8053 27.5323 47.088C27.8683 47.3653 28.1189 47.736 28.2843 48.2C28.4123 47.928 28.5723 47.696 28.7643 47.504C28.9563 47.3067 29.1669 47.1467 29.3963 47.024C29.6256 46.9013 29.8683 46.8107 30.1243 46.752C30.3856 46.6933 30.6469 46.664 30.9083 46.664C31.3616 46.664 31.7643 46.7333 32.1163 46.872C32.4683 47.0107 32.7643 47.2133 33.0043 47.48C33.2443 47.7467 33.4256 48.072 33.5483 48.456C33.6763 48.84 33.7403 49.28 33.7403 49.776V55H31.7643V49.776C31.7643 49.2533 31.6496 48.8613 31.4203 48.6C31.1909 48.3333 30.8549 48.2 30.4123 48.2C30.2096 48.2 30.0203 48.2347 29.8443 48.304C29.6736 48.3733 29.5216 48.4747 29.3883 48.608C29.2603 48.736 29.1589 48.8987 29.0843 49.096C29.0096 49.2933 28.9723 49.52 28.9723 49.776V55H26.9883V49.776C26.9883 49.2267 26.8763 48.8267 26.6523 48.576C26.4336 48.3253 26.1083 48.2 25.6762 48.2C25.3936 48.2 25.1269 48.272 24.8763 48.416C24.6309 48.5547 24.4016 48.7467 24.1883 48.992V55H22.2122ZM42.113 55H41.225C41.0383 55 40.8917 54.9733 40.785 54.92C40.6783 54.8613 40.5983 54.7467 40.545 54.576L40.369 53.992C40.161 54.1787 39.9557 54.344 39.753 54.488C39.5557 54.6267 39.3503 54.744 39.137 54.84C38.9237 54.936 38.697 55.008 38.457 55.056C38.217 55.104 37.9503 55.128 37.657 55.128C37.3103 55.128 36.9903 55.0827 36.697 54.992C36.4037 54.896 36.1503 54.7547 35.937 54.568C35.729 54.3813 35.5663 54.1493 35.449 53.872C35.3317 53.5947 35.273 53.272 35.273 52.904C35.273 52.5947 35.353 52.2907 35.513 51.992C35.6783 51.688 35.9503 51.416 36.329 51.176C36.7077 50.9307 37.2117 50.728 37.841 50.568C38.4703 50.408 39.2517 50.3173 40.185 50.296V49.816C40.185 49.2667 40.0677 48.8613 39.833 48.6C39.6037 48.3333 39.2677 48.2 38.825 48.2C38.505 48.2 38.2383 48.2373 38.025 48.312C37.8117 48.3867 37.625 48.472 37.465 48.568C37.3103 48.6587 37.1663 48.7413 37.033 48.816C36.8997 48.8907 36.753 48.928 36.593 48.928C36.4597 48.928 36.345 48.8933 36.249 48.824C36.153 48.7547 36.0757 48.6693 36.017 48.568L35.657 47.936C36.601 47.072 37.7397 46.64 39.073 46.64C39.553 46.64 39.9797 46.72 40.353 46.88C40.7317 47.0347 41.0517 47.2533 41.313 47.536C41.5743 47.8133 41.7717 48.1467 41.905 48.536C42.0437 48.9253 42.113 49.352 42.113 49.816V55ZM38.273 53.768C38.4757 53.768 38.6623 53.7493 38.833 53.712C39.0037 53.6747 39.1637 53.6187 39.313 53.544C39.4677 53.4693 39.6143 53.3787 39.753 53.272C39.897 53.16 40.041 53.0293 40.185 52.88V51.496C39.609 51.5227 39.1263 51.5733 38.737 51.648C38.353 51.7173 38.0437 51.808 37.809 51.92C37.5743 52.032 37.4063 52.1627 37.305 52.312C37.209 52.4613 37.161 52.624 37.161 52.8C37.161 53.1467 37.2623 53.3947 37.465 53.544C37.673 53.6933 37.9423 53.768 38.273 53.768ZM46.16 46.792V55H44.184V46.792H46.16ZM46.456 44.4C46.456 44.5707 46.4213 44.7307 46.352 44.88C46.2827 45.0293 46.1893 45.16 46.072 45.272C45.96 45.384 45.8267 45.4747 45.672 45.544C45.5173 45.608 45.352 45.64 45.176 45.64C45.0053 45.64 44.8427 45.608 44.688 45.544C44.5387 45.4747 44.408 45.384 44.296 45.272C44.184 45.16 44.0933 45.0293 44.024 44.88C43.96 44.7307 43.928 44.5707 43.928 44.4C43.928 44.224 43.96 44.0587 44.024 43.904C44.0933 43.7493 44.184 43.616 44.296 43.504C44.408 43.392 44.5387 43.304 44.688 43.24C44.8427 43.1707 45.0053 43.136 45.176 43.136C45.352 43.136 45.5173 43.1707 45.672 43.24C45.8267 43.304 45.96 43.392 46.072 43.504C46.1893 43.616 46.2827 43.7493 46.352 43.904C46.4213 44.0587 46.456 44.224 46.456 44.4ZM50.5038 43.112V55H48.5278V43.112H50.5038Z" fill="#A5A5A5"/>
<rect x="0.5" y="27.5" width="357" height="42" rx="3.5" stroke="#F0F0F0"/>
</g>
<g clip-path="url(#clip1_1240_15351)">
<path d="M8.464 90.432V92.144H3.336V95.352H7.376V97.008H3.336V100.28H8.464V102H1.168V90.432H8.464ZM10.2122 102V93.792H11.4203C11.6763 93.792 11.8443 93.912 11.9243 94.152L12.0523 94.76C12.1963 94.6 12.3456 94.4533 12.5003 94.32C12.6603 94.1867 12.8283 94.072 13.0043 93.976C13.1856 93.88 13.3776 93.8053 13.5803 93.752C13.7883 93.6933 14.0149 93.664 14.2603 93.664C14.7776 93.664 15.2016 93.8053 15.5323 94.088C15.8683 94.3653 16.1189 94.736 16.2843 95.2C16.4123 94.928 16.5723 94.696 16.7643 94.504C16.9563 94.3067 17.1669 94.1467 17.3963 94.024C17.6256 93.9013 17.8683 93.8107 18.1243 93.752C18.3856 93.6933 18.6469 93.664 18.9083 93.664C19.3616 93.664 19.7643 93.7333 20.1163 93.872C20.4683 94.0107 20.7643 94.2133 21.0043 94.48C21.2443 94.7467 21.4256 95.072 21.5483 95.456C21.6763 95.84 21.7403 96.28 21.7403 96.776V102H19.7643V96.776C19.7643 96.2533 19.6496 95.8613 19.4203 95.6C19.1909 95.3333 18.8549 95.2 18.4123 95.2C18.2096 95.2 18.0203 95.2347 17.8443 95.304C17.6736 95.3733 17.5216 95.4747 17.3883 95.608C17.2603 95.736 17.1589 95.8987 17.0843 96.096C17.0096 96.2933 16.9723 96.52 16.9723 96.776V102H14.9883V96.776C14.9883 96.2267 14.8763 95.8267 14.6523 95.576C14.4336 95.3253 14.1083 95.2 13.6762 95.2C13.3936 95.2 13.1269 95.272 12.8763 95.416C12.6309 95.5547 12.4016 95.7467 12.1883 95.992V102H10.2122ZM30.113 102H29.225C29.0383 102 28.8917 101.973 28.785 101.92C28.6783 101.861 28.5983 101.747 28.545 101.576L28.369 100.992C28.161 101.179 27.9557 101.344 27.753 101.488C27.5557 101.627 27.3503 101.744 27.137 101.84C26.9237 101.936 26.697 102.008 26.457 102.056C26.217 102.104 25.9503 102.128 25.657 102.128C25.3103 102.128 24.9903 102.083 24.697 101.992C24.4037 101.896 24.1503 101.755 23.937 101.568C23.729 101.381 23.5663 101.149 23.449 100.872C23.3317 100.595 23.273 100.272 23.273 99.904C23.273 99.5947 23.353 99.2907 23.513 98.992C23.6783 98.688 23.9503 98.416 24.329 98.176C24.7077 97.9307 25.2117 97.728 25.841 97.568C26.4703 97.408 27.2517 97.3173 28.185 97.296V96.816C28.185 96.2667 28.0677 95.8613 27.833 95.6C27.6037 95.3333 27.2677 95.2 26.825 95.2C26.505 95.2 26.2383 95.2373 26.025 95.312C25.8117 95.3867 25.625 95.472 25.465 95.568C25.3103 95.6587 25.1663 95.7413 25.033 95.816C24.8997 95.8907 24.753 95.928 24.593 95.928C24.4597 95.928 24.345 95.8933 24.249 95.824C24.153 95.7547 24.0757 95.6693 24.017 95.568L23.657 94.936C24.601 94.072 25.7397 93.64 27.073 93.64C27.553 93.64 27.9797 93.72 28.353 93.88C28.7317 94.0347 29.0517 94.2533 29.313 94.536C29.5743 94.8133 29.7717 95.1467 29.905 95.536C30.0437 95.9253 30.113 96.352 30.113 96.816V102ZM26.273 100.768C26.4757 100.768 26.6623 100.749 26.833 100.712C27.0037 100.675 27.1637 100.619 27.313 100.544C27.4677 100.469 27.6143 100.379 27.753 100.272C27.897 100.16 28.041 100.029 28.185 99.88V98.496C27.609 98.5227 27.1263 98.5733 26.737 98.648C26.353 98.7173 26.0437 98.808 25.809 98.92C25.5743 99.032 25.4063 99.1627 25.305 99.312C25.209 99.4613 25.161 99.624 25.161 99.8C25.161 100.147 25.2623 100.395 25.465 100.544C25.673 100.693 25.9423 100.768 26.273 100.768ZM34.16 93.792V102H32.184V93.792H34.16ZM34.456 91.4C34.456 91.5707 34.4213 91.7307 34.352 91.88C34.2827 92.0293 34.1893 92.16 34.072 92.272C33.96 92.384 33.8267 92.4747 33.672 92.544C33.5173 92.608 33.352 92.64 33.176 92.64C33.0053 92.64 32.8427 92.608 32.688 92.544C32.5387 92.4747 32.408 92.384 32.296 92.272C32.184 92.16 32.0933 92.0293 32.024 91.88C31.96 91.7307 31.928 91.5707 31.928 91.4C31.928 91.224 31.96 91.0587 32.024 90.904C32.0933 90.7493 32.184 90.616 32.296 90.504C32.408 90.392 32.5387 90.304 32.688 90.24C32.8427 90.1707 33.0053 90.136 33.176 90.136C33.352 90.136 33.5173 90.1707 33.672 90.24C33.8267 90.304 33.96 90.392 34.072 90.504C34.1893 90.616 34.2827 90.7493 34.352 90.904C34.4213 91.0587 34.456 91.224 34.456 91.4ZM38.5038 90.112V102H36.5278V90.112H38.5038Z" fill="#1B1B1B"/>
<path d="M44 91L49 87.5M44 87.5L49 91M46.5 92V86" stroke="#CA5B5B"/>
<rect x="0.5" y="113.5" width="357" height="42" rx="3.5" fill="white"/>
<path d="M15.056 129.112V135.92H15.424C15.5573 135.92 15.6613 135.901 15.736 135.864C15.8107 135.827 15.8907 135.757 15.976 135.656L18.016 133.136C18.1067 133.029 18.2027 132.947 18.304 132.888C18.4053 132.824 18.5387 132.792 18.704 132.792H20.512L17.96 135.84C17.8693 135.952 17.776 136.056 17.68 136.152C17.584 136.243 17.48 136.323 17.368 136.392C17.48 136.472 17.5787 136.565 17.664 136.672C17.7493 136.779 17.8347 136.893 17.92 137.016L20.656 141H18.872C18.7173 141 18.5867 140.973 18.48 140.92C18.3733 140.867 18.2773 140.776 18.192 140.648L16.104 137.536C16.024 137.413 15.944 137.333 15.864 137.296C15.784 137.259 15.664 137.24 15.504 137.24H15.056V141H13.08V129.112H15.056ZM24.7918 132.664C25.3091 132.664 25.7838 132.747 26.2158 132.912C26.6531 133.077 27.0291 133.32 27.3438 133.64C27.6584 133.955 27.9038 134.344 28.0798 134.808C28.2558 135.267 28.3438 135.792 28.3438 136.384C28.3438 136.533 28.3358 136.659 28.3198 136.76C28.3091 136.856 28.2851 136.933 28.2478 136.992C28.2158 137.045 28.1704 137.085 28.1118 137.112C28.0531 137.133 27.9784 137.144 27.8878 137.144H22.8158C22.8744 137.987 23.1011 138.605 23.4958 139C23.8904 139.395 24.4131 139.592 25.0638 139.592C25.3838 139.592 25.6584 139.555 25.8878 139.48C26.1224 139.405 26.3251 139.323 26.4958 139.232C26.6718 139.141 26.8238 139.059 26.9518 138.984C27.0851 138.909 27.2131 138.872 27.3358 138.872C27.4158 138.872 27.4851 138.888 27.5438 138.92C27.6024 138.952 27.6531 138.997 27.6958 139.056L28.2718 139.776C28.0531 140.032 27.8078 140.248 27.5358 140.424C27.2638 140.595 26.9784 140.733 26.6798 140.84C26.3864 140.941 26.0851 141.013 25.7758 141.056C25.4718 141.099 25.1758 141.12 24.8878 141.12C24.3171 141.12 23.7864 141.027 23.2958 140.84C22.8051 140.648 22.3784 140.368 22.0158 140C21.6531 139.627 21.3678 139.168 21.1598 138.624C20.9518 138.075 20.8478 137.44 20.8478 136.72C20.8478 136.16 20.9384 135.635 21.1198 135.144C21.3011 134.648 21.5598 134.219 21.8958 133.856C22.2371 133.488 22.6504 133.197 23.1358 132.984C23.6264 132.771 24.1784 132.664 24.7918 132.664ZM24.8318 134.08C24.2558 134.08 23.8051 134.243 23.4798 134.568C23.1544 134.893 22.9464 135.355 22.8558 135.952H26.5678C26.5678 135.696 26.5331 135.456 26.4638 135.232C26.3944 135.003 26.2878 134.803 26.1438 134.632C25.9998 134.461 25.8184 134.328 25.5998 134.232C25.3811 134.131 25.1251 134.08 24.8318 134.08ZM33.793 141H32.001L28.737 132.792H30.377C30.521 132.792 30.641 132.827 30.737 132.896C30.8383 132.965 30.9077 133.053 30.945 133.16L32.529 137.544C32.6197 137.8 32.6943 138.051 32.753 138.296C32.817 138.541 32.873 138.787 32.921 139.032C32.969 138.787 33.0223 138.541 33.081 138.296C33.145 138.051 33.225 137.8 33.321 137.544L34.945 133.16C34.9823 133.053 35.049 132.965 35.145 132.896C35.241 132.827 35.3557 132.792 35.489 132.792H37.049L33.793 141ZM40.3163 132.792V141H38.3403V132.792H40.3163ZM40.6123 130.4C40.6123 130.571 40.5776 130.731 40.5083 130.88C40.4389 131.029 40.3456 131.16 40.2283 131.272C40.1163 131.384 39.9829 131.475 39.8283 131.544C39.6736 131.608 39.5083 131.64 39.3323 131.64C39.1616 131.64 38.9989 131.608 38.8443 131.544C38.6949 131.475 38.5643 131.384 38.4523 131.272C38.3403 131.16 38.2496 131.029 38.1803 130.88C38.1163 130.731 38.0843 130.571 38.0843 130.4C38.0843 130.224 38.1163 130.059 38.1803 129.904C38.2496 129.749 38.3403 129.616 38.4523 129.504C38.5643 129.392 38.6949 129.304 38.8443 129.24C38.9989 129.171 39.1616 129.136 39.3323 129.136C39.5083 129.136 39.6736 129.171 39.8283 129.24C39.9829 129.304 40.1163 129.392 40.2283 129.504C40.3456 129.616 40.4389 129.749 40.5083 129.904C40.5776 130.059 40.6123 130.224 40.6123 130.4ZM42.556 141V132.792H43.764C44.02 132.792 44.188 132.912 44.268 133.152L44.404 133.8C44.5693 133.629 44.7427 133.475 44.924 133.336C45.1107 133.197 45.3053 133.077 45.508 132.976C45.716 132.875 45.9373 132.797 46.172 132.744C46.4067 132.691 46.6627 132.664 46.94 132.664C47.388 132.664 47.7853 132.741 48.132 132.896C48.4787 133.045 48.7667 133.259 48.996 133.536C49.2307 133.808 49.4067 134.136 49.524 134.52C49.6467 134.899 49.708 135.317 49.708 135.776V141H47.732V135.776C47.732 135.275 47.6147 134.888 47.38 134.616C47.1507 134.339 46.804 134.2 46.34 134.2C45.9987 134.2 45.6787 134.277 45.38 134.432C45.0813 134.587 44.7987 134.797 44.532 135.064V141H42.556ZM51.1778 139.912C51.1778 139.747 51.2071 139.589 51.2658 139.44C51.3298 139.291 51.4151 139.163 51.5218 139.056C51.6338 138.949 51.7644 138.864 51.9138 138.8C52.0631 138.736 52.2231 138.704 52.3938 138.704C52.5591 138.704 52.7164 138.736 52.8658 138.8C53.0151 138.864 53.1431 138.949 53.2498 139.056C53.3564 139.163 53.4418 139.291 53.5058 139.44C53.5698 139.589 53.6018 139.747 53.6018 139.912C53.6018 140.083 53.5698 140.243 53.5058 140.392C53.4418 140.536 53.3564 140.661 53.2498 140.768C53.1431 140.875 53.0151 140.957 52.8658 141.016C52.7164 141.08 52.5591 141.112 52.3938 141.112C52.2231 141.112 52.0631 141.08 51.9138 141.016C51.7644 140.957 51.6338 140.875 51.5218 140.768C51.4151 140.661 51.3298 140.536 51.2658 140.392C51.2071 140.243 51.1778 140.083 51.1778 139.912ZM60.1155 134.392C60.0622 134.477 60.0062 134.539 59.9475 134.576C59.8888 134.608 59.8142 134.624 59.7235 134.624C59.6275 134.624 59.5235 134.597 59.4115 134.544C59.3048 134.491 59.1795 134.432 59.0355 134.368C58.8915 134.299 58.7262 134.237 58.5395 134.184C58.3582 134.131 58.1422 134.104 57.8915 134.104C57.5022 134.104 57.1955 134.187 56.9715 134.352C56.7475 134.517 56.6355 134.733 56.6355 135C56.6355 135.176 56.6915 135.325 56.8035 135.448C56.9208 135.565 57.0728 135.669 57.2595 135.76C57.4515 135.851 57.6675 135.933 57.9075 136.008C58.1475 136.077 58.3928 136.155 58.6435 136.24C58.8942 136.325 59.1395 136.424 59.3795 136.536C59.6195 136.643 59.8328 136.781 60.0195 136.952C60.2115 137.117 60.3635 137.317 60.4755 137.552C60.5928 137.787 60.6515 138.069 60.6515 138.4C60.6515 138.795 60.5795 139.16 60.4355 139.496C60.2915 139.827 60.0808 140.115 59.8035 140.36C59.5262 140.6 59.1822 140.789 58.7715 140.928C58.3662 141.061 57.8995 141.128 57.3715 141.128C57.0888 141.128 56.8115 141.101 56.5395 141.048C56.2728 141 56.0142 140.931 55.7635 140.84C55.5182 140.749 55.2888 140.643 55.0755 140.52C54.8675 140.397 54.6835 140.264 54.5235 140.12L54.9795 139.368C55.0382 139.277 55.1075 139.208 55.1875 139.16C55.2675 139.112 55.3688 139.088 55.4915 139.088C55.6142 139.088 55.7288 139.123 55.8355 139.192C55.9475 139.261 56.0755 139.336 56.2195 139.416C56.3635 139.496 56.5315 139.571 56.7235 139.64C56.9208 139.709 57.1688 139.744 57.4675 139.744C57.7022 139.744 57.9022 139.717 58.0675 139.664C58.2382 139.605 58.3768 139.531 58.4835 139.44C58.5955 139.349 58.6755 139.245 58.7235 139.128C58.7768 139.005 58.8035 138.88 58.8035 138.752C58.8035 138.56 58.7448 138.403 58.6275 138.28C58.5155 138.157 58.3635 138.051 58.1715 137.96C57.9848 137.869 57.7688 137.789 57.5235 137.72C57.2835 137.645 57.0355 137.565 56.7795 137.48C56.5288 137.395 56.2808 137.296 56.0355 137.184C55.7955 137.067 55.5795 136.92 55.3875 136.744C55.2008 136.568 55.0488 136.352 54.9315 136.096C54.8195 135.84 54.7635 135.531 54.7635 135.168C54.7635 134.832 54.8302 134.512 54.9635 134.208C55.0968 133.904 55.2915 133.64 55.5475 133.416C55.8088 133.187 56.1315 133.005 56.5155 132.872C56.9048 132.733 57.3528 132.664 57.8595 132.664C58.4248 132.664 58.9395 132.757 59.4035 132.944C59.8675 133.131 60.2542 133.376 60.5635 133.68L60.1155 134.392ZM64.0359 132.792V138.008C64.0359 138.509 64.1505 138.899 64.3799 139.176C64.6145 139.448 64.9639 139.584 65.4279 139.584C65.7692 139.584 66.0892 139.509 66.3879 139.36C66.6865 139.205 66.9692 138.995 67.2359 138.728V132.792H69.2119V141H68.0039C67.7479 141 67.5799 140.88 67.4999 140.64L67.3639 139.984C67.1932 140.155 67.0172 140.312 66.8359 140.456C66.6545 140.595 66.4599 140.715 66.2519 140.816C66.0492 140.912 65.8279 140.987 65.5879 141.04C65.3532 141.099 65.0999 141.128 64.8279 141.128C64.3799 141.128 63.9825 141.053 63.6359 140.904C63.2945 140.749 63.0065 140.533 62.7719 140.256C62.5372 139.979 62.3585 139.651 62.2359 139.272C62.1185 138.888 62.0599 138.467 62.0599 138.008V132.792H64.0359ZM74.0176 141.128C73.3083 141.128 72.7616 140.928 72.3776 140.528C71.9936 140.123 71.8016 139.565 71.8016 138.856V134.272H70.9696C70.863 134.272 70.7696 134.237 70.6896 134.168C70.615 134.099 70.5776 133.995 70.5776 133.856V133.072L71.8976 132.856L72.3136 130.616C72.335 130.509 72.383 130.427 72.4576 130.368C72.5376 130.309 72.6363 130.28 72.7536 130.28H73.7776V132.864H75.9376V134.272H73.7776V138.72C73.7776 138.976 73.8416 139.176 73.9696 139.32C74.0976 139.464 74.2683 139.536 74.4816 139.536C74.6043 139.536 74.7056 139.523 74.7856 139.496C74.871 139.464 74.943 139.432 75.0016 139.4C75.0656 139.368 75.1216 139.339 75.1696 139.312C75.2176 139.28 75.2656 139.264 75.3136 139.264C75.3723 139.264 75.4203 139.28 75.4576 139.312C75.495 139.339 75.535 139.381 75.5776 139.44L76.1696 140.4C75.8816 140.64 75.551 140.821 75.1776 140.944C74.8043 141.067 74.4176 141.128 74.0176 141.128ZM77.5091 141V129.112H79.4851V133.68C79.8051 133.376 80.1571 133.131 80.5411 132.944C80.9251 132.757 81.3758 132.664 81.8931 132.664C82.3411 132.664 82.7385 132.741 83.0851 132.896C83.4318 133.045 83.7198 133.259 83.9491 133.536C84.1838 133.808 84.3598 134.136 84.4771 134.52C84.5998 134.899 84.6611 135.317 84.6611 135.776V141H82.6851V135.776C82.6851 135.275 82.5678 134.888 82.3331 134.616C82.1038 134.339 81.7571 134.2 81.2931 134.2C80.9518 134.2 80.6318 134.277 80.3331 134.432C80.0345 134.587 79.7518 134.797 79.4851 135.064V141H77.5091ZM89.9949 132.664C90.5122 132.664 90.9869 132.747 91.4189 132.912C91.8562 133.077 92.2322 133.32 92.5469 133.64C92.8615 133.955 93.1069 134.344 93.2829 134.808C93.4589 135.267 93.5469 135.792 93.5469 136.384C93.5469 136.533 93.5389 136.659 93.5229 136.76C93.5122 136.856 93.4882 136.933 93.4509 136.992C93.4189 137.045 93.3735 137.085 93.3149 137.112C93.2562 137.133 93.1815 137.144 93.0909 137.144H88.0189C88.0775 137.987 88.3042 138.605 88.6989 139C89.0935 139.395 89.6162 139.592 90.2669 139.592C90.5869 139.592 90.8615 139.555 91.0909 139.48C91.3255 139.405 91.5282 139.323 91.6989 139.232C91.8749 139.141 92.0269 139.059 92.1549 138.984C92.2882 138.909 92.4162 138.872 92.5389 138.872C92.6189 138.872 92.6882 138.888 92.7469 138.92C92.8055 138.952 92.8562 138.997 92.8989 139.056L93.4749 139.776C93.2562 140.032 93.0109 140.248 92.7389 140.424C92.4669 140.595 92.1815 140.733 91.8829 140.84C91.5895 140.941 91.2882 141.013 90.9789 141.056C90.6749 141.099 90.3789 141.12 90.0909 141.12C89.5202 141.12 88.9895 141.027 88.4989 140.84C88.0082 140.648 87.5815 140.368 87.2189 140C86.8562 139.627 86.5709 139.168 86.3629 138.624C86.1549 138.075 86.0509 137.44 86.0509 136.72C86.0509 136.16 86.1415 135.635 86.3229 135.144C86.5042 134.648 86.7629 134.219 87.0989 133.856C87.4402 133.488 87.8535 133.197 88.3389 132.984C88.8295 132.771 89.3815 132.664 89.9949 132.664ZM90.0349 134.08C89.4589 134.08 89.0082 134.243 88.6829 134.568C88.3575 134.893 88.1495 135.355 88.0589 135.952H91.7709C91.7709 135.696 91.7362 135.456 91.6669 135.232C91.5975 135.003 91.4909 134.803 91.3469 134.632C91.2029 134.461 91.0215 134.328 90.8029 134.232C90.5842 134.131 90.3282 134.08 90.0349 134.08ZM95.1497 141V132.792H96.3098C96.5124 132.792 96.6538 132.829 96.7338 132.904C96.8138 132.979 96.8671 133.107 96.8938 133.288L97.0138 134.28C97.3071 133.773 97.6511 133.373 98.0458 133.08C98.4404 132.787 98.8831 132.64 99.3738 132.64C99.7791 132.64 100.115 132.733 100.382 132.92L100.126 134.4C100.11 134.496 100.075 134.565 100.022 134.608C99.9684 134.645 99.8964 134.664 99.8058 134.664C99.7258 134.664 99.6164 134.645 99.4778 134.608C99.3391 134.571 99.1551 134.552 98.9258 134.552C98.5151 134.552 98.1631 134.667 97.8698 134.896C97.5764 135.12 97.3284 135.451 97.1258 135.888V141H95.1497ZM103.785 129.112V141H101.809V129.112H103.785ZM112.457 141H111.569C111.382 141 111.235 140.973 111.129 140.92C111.022 140.861 110.942 140.747 110.889 140.576L110.713 139.992C110.505 140.179 110.299 140.344 110.097 140.488C109.899 140.627 109.694 140.744 109.481 140.84C109.267 140.936 109.041 141.008 108.801 141.056C108.561 141.104 108.294 141.128 108.001 141.128C107.654 141.128 107.334 141.083 107.041 140.992C106.747 140.896 106.494 140.755 106.281 140.568C106.073 140.381 105.91 140.149 105.793 139.872C105.675 139.595 105.617 139.272 105.617 138.904C105.617 138.595 105.697 138.291 105.857 137.992C106.022 137.688 106.294 137.416 106.673 137.176C107.051 136.931 107.555 136.728 108.185 136.568C108.814 136.408 109.595 136.317 110.529 136.296V135.816C110.529 135.267 110.411 134.861 110.177 134.6C109.947 134.333 109.611 134.2 109.169 134.2C108.849 134.2 108.582 134.237 108.369 134.312C108.155 134.387 107.969 134.472 107.809 134.568C107.654 134.659 107.51 134.741 107.377 134.816C107.243 134.891 107.097 134.928 106.937 134.928C106.803 134.928 106.689 134.893 106.593 134.824C106.497 134.755 106.419 134.669 106.361 134.568L106.001 133.936C106.945 133.072 108.083 132.64 109.417 132.64C109.897 132.64 110.323 132.72 110.697 132.88C111.075 133.035 111.395 133.253 111.657 133.536C111.918 133.813 112.115 134.147 112.249 134.536C112.387 134.925 112.457 135.352 112.457 135.816V141ZM108.617 139.768C108.819 139.768 109.006 139.749 109.177 139.712C109.347 139.675 109.507 139.619 109.657 139.544C109.811 139.469 109.958 139.379 110.097 139.272C110.241 139.16 110.385 139.029 110.529 138.88V137.496C109.953 137.523 109.47 137.573 109.081 137.648C108.697 137.717 108.387 137.808 108.153 137.92C107.918 138.032 107.75 138.163 107.649 138.312C107.553 138.461 107.505 138.624 107.505 138.8C107.505 139.147 107.606 139.395 107.809 139.544C108.017 139.693 108.286 139.768 108.617 139.768ZM114.4 141V132.792H115.608C115.864 132.792 116.032 132.912 116.112 133.152L116.248 133.8C116.413 133.629 116.586 133.475 116.768 133.336C116.954 133.197 117.149 133.077 117.352 132.976C117.56 132.875 117.781 132.797 118.016 132.744C118.25 132.691 118.506 132.664 118.784 132.664C119.232 132.664 119.629 132.741 119.976 132.896C120.322 133.045 120.61 133.259 120.84 133.536C121.074 133.808 121.25 134.136 121.368 134.52C121.49 134.899 121.552 135.317 121.552 135.776V141H119.576V135.776C119.576 135.275 119.458 134.888 119.224 134.616C118.994 134.339 118.648 134.2 118.184 134.2C117.842 134.2 117.522 134.277 117.224 134.432C116.925 134.587 116.642 134.797 116.376 135.064V141H114.4ZM129.27 141C129.014 141 128.846 140.88 128.766 140.64L128.606 139.848C128.435 140.04 128.256 140.213 128.07 140.368C127.883 140.523 127.68 140.656 127.462 140.768C127.248 140.88 127.016 140.965 126.766 141.024C126.52 141.088 126.254 141.12 125.966 141.12C125.518 141.12 125.107 141.027 124.734 140.84C124.36 140.653 124.038 140.384 123.766 140.032C123.499 139.675 123.291 139.235 123.142 138.712C122.998 138.189 122.926 137.592 122.926 136.92C122.926 136.312 123.008 135.747 123.174 135.224C123.339 134.701 123.576 134.248 123.886 133.864C124.195 133.48 124.566 133.181 124.998 132.968C125.43 132.749 125.915 132.64 126.454 132.64C126.912 132.64 127.304 132.715 127.63 132.864C127.955 133.008 128.246 133.203 128.502 133.448V129.112H130.477V141H129.27ZM126.638 139.552C127.048 139.552 127.398 139.467 127.686 139.296C127.974 139.125 128.246 138.883 128.502 138.568V134.888C128.278 134.616 128.032 134.424 127.766 134.312C127.504 134.2 127.222 134.144 126.918 134.144C126.619 134.144 126.347 134.2 126.102 134.312C125.862 134.424 125.656 134.595 125.486 134.824C125.32 135.048 125.192 135.336 125.102 135.688C125.011 136.035 124.966 136.445 124.966 136.92C124.966 137.4 125.003 137.808 125.078 138.144C125.158 138.475 125.27 138.747 125.414 138.96C125.558 139.168 125.734 139.32 125.942 139.416C126.15 139.507 126.382 139.552 126.638 139.552ZM140.891 139.528C140.528 139.528 140.203 139.443 139.915 139.272C139.632 139.101 139.435 138.827 139.323 138.448C139.008 138.832 138.675 139.107 138.323 139.272C137.971 139.437 137.592 139.52 137.187 139.52C136.851 139.52 136.557 139.461 136.307 139.344C136.061 139.227 135.853 139.067 135.683 138.864C135.517 138.656 135.392 138.413 135.307 138.136C135.227 137.853 135.187 137.547 135.187 137.216C135.187 136.912 135.224 136.605 135.299 136.296C135.379 135.981 135.496 135.68 135.651 135.392C135.805 135.099 135.997 134.827 136.227 134.576C136.461 134.32 136.736 134.099 137.051 133.912C137.365 133.72 137.717 133.571 138.107 133.464C138.496 133.352 138.928 133.296 139.403 133.296C139.813 133.296 140.165 133.328 140.459 133.392C140.752 133.456 141.035 133.547 141.307 133.664L140.539 136.632C140.453 136.973 140.411 137.259 140.411 137.488C140.411 137.648 140.429 137.781 140.467 137.888C140.509 137.995 140.563 138.08 140.627 138.144C140.696 138.208 140.779 138.253 140.875 138.28C140.971 138.301 141.075 138.312 141.187 138.312C141.411 138.312 141.621 138.243 141.819 138.104C142.021 137.96 142.197 137.76 142.347 137.504C142.496 137.248 142.613 136.944 142.699 136.592C142.789 136.24 142.835 135.856 142.835 135.44C142.835 134.747 142.725 134.136 142.507 133.608C142.293 133.08 141.992 132.64 141.603 132.288C141.219 131.931 140.757 131.664 140.219 131.488C139.68 131.307 139.091 131.216 138.451 131.216C137.752 131.216 137.101 131.349 136.499 131.616C135.901 131.877 135.381 132.237 134.939 132.696C134.501 133.155 134.157 133.696 133.907 134.32C133.661 134.944 133.539 135.616 133.539 136.336C133.539 137.211 133.675 137.981 133.947 138.648C134.219 139.309 134.592 139.864 135.067 140.312C135.541 140.755 136.099 141.088 136.739 141.312C137.384 141.536 138.08 141.648 138.827 141.648C139.237 141.648 139.621 141.624 139.979 141.576C140.336 141.533 140.664 141.472 140.963 141.392C141.261 141.317 141.533 141.229 141.779 141.128C142.024 141.032 142.243 140.928 142.435 140.816C142.541 140.757 142.632 140.728 142.707 140.728C142.861 140.728 142.971 140.813 143.035 140.984L143.307 141.696C142.752 142.059 142.104 142.355 141.363 142.584C140.621 142.813 139.776 142.928 138.827 142.928C137.861 142.928 136.968 142.776 136.147 142.472C135.325 142.168 134.613 141.731 134.011 141.16C133.413 140.595 132.944 139.904 132.603 139.088C132.267 138.272 132.099 137.355 132.099 136.336C132.099 135.765 132.171 135.211 132.315 134.672C132.464 134.133 132.675 133.629 132.947 133.16C133.219 132.685 133.547 132.251 133.931 131.856C134.315 131.461 134.741 131.123 135.211 130.84C135.68 130.557 136.187 130.339 136.731 130.184C137.28 130.024 137.853 129.944 138.451 129.944C139.208 129.944 139.933 130.072 140.627 130.328C141.325 130.579 141.941 130.941 142.475 131.416C143.013 131.885 143.443 132.461 143.763 133.144C144.083 133.821 144.243 134.587 144.243 135.44C144.243 136.011 144.157 136.547 143.987 137.048C143.821 137.544 143.587 137.976 143.283 138.344C142.984 138.712 142.629 139.003 142.219 139.216C141.813 139.424 141.371 139.528 140.891 139.528ZM137.579 138.248C137.717 138.248 137.856 138.227 137.995 138.184C138.139 138.141 138.275 138.067 138.403 137.96C138.531 137.848 138.648 137.701 138.755 137.52C138.861 137.339 138.949 137.112 139.019 136.84L139.602 134.584C139.432 134.552 139.256 134.536 139.075 134.536C138.744 134.536 138.435 134.608 138.147 134.752C137.859 134.896 137.608 135.091 137.395 135.336C137.187 135.581 137.021 135.864 136.899 136.184C136.776 136.499 136.715 136.827 136.715 137.168C136.715 137.509 136.787 137.776 136.931 137.968C137.08 138.155 137.296 138.248 137.579 138.248ZM150.647 134.392C150.593 134.477 150.537 134.539 150.479 134.576C150.42 134.608 150.345 134.624 150.255 134.624C150.159 134.624 150.055 134.597 149.943 134.544C149.836 134.491 149.711 134.432 149.567 134.368C149.423 134.299 149.257 134.237 149.071 134.184C148.889 134.131 148.673 134.104 148.423 134.104C148.033 134.104 147.727 134.187 147.503 134.352C147.279 134.517 147.167 134.733 147.167 135C147.167 135.176 147.223 135.325 147.335 135.448C147.452 135.565 147.604 135.669 147.791 135.76C147.983 135.851 148.199 135.933 148.439 136.008C148.679 136.077 148.924 136.155 149.175 136.24C149.425 136.325 149.671 136.424 149.911 136.536C150.151 136.643 150.364 136.781 150.551 136.952C150.743 137.117 150.895 137.317 151.007 137.552C151.124 137.787 151.183 138.069 151.183 138.4C151.183 138.795 151.111 139.16 150.967 139.496C150.823 139.827 150.612 140.115 150.335 140.36C150.057 140.6 149.713 140.789 149.303 140.928C148.897 141.061 148.431 141.128 147.903 141.128C147.62 141.128 147.343 141.101 147.071 141.048C146.804 141 146.545 140.931 146.295 140.84C146.049 140.749 145.82 140.643 145.607 140.52C145.399 140.397 145.215 140.264 145.055 140.12L145.511 139.368C145.569 139.277 145.639 139.208 145.719 139.16C145.799 139.112 145.9 139.088 146.023 139.088C146.145 139.088 146.26 139.123 146.367 139.192C146.479 139.261 146.607 139.336 146.751 139.416C146.895 139.496 147.063 139.571 147.255 139.64C147.452 139.709 147.7 139.744 147.999 139.744C148.233 139.744 148.433 139.717 148.599 139.664C148.769 139.605 148.908 139.531 149.015 139.44C149.127 139.349 149.207 139.245 149.255 139.128C149.308 139.005 149.335 138.88 149.335 138.752C149.335 138.56 149.276 138.403 149.159 138.28C149.047 138.157 148.895 138.051 148.703 137.96C148.516 137.869 148.3 137.789 148.055 137.72C147.815 137.645 147.567 137.565 147.311 137.48C147.06 137.395 146.812 137.296 146.567 137.184C146.327 137.067 146.111 136.92 145.919 136.744C145.732 136.568 145.58 136.352 145.463 136.096C145.351 135.84 145.295 135.531 145.295 135.168C145.295 134.832 145.361 134.512 145.495 134.208C145.628 133.904 145.823 133.64 146.079 133.416C146.34 133.187 146.663 133.005 147.047 132.872C147.436 132.733 147.884 132.664 148.391 132.664C148.956 132.664 149.471 132.757 149.935 132.944C150.399 133.131 150.785 133.376 151.095 133.68L150.647 134.392ZM152.759 141V129.112H154.735V133.68C155.055 133.376 155.407 133.131 155.791 132.944C156.175 132.757 156.626 132.664 157.143 132.664C157.591 132.664 157.988 132.741 158.335 132.896C158.682 133.045 158.97 133.259 159.199 133.536C159.434 133.808 159.61 134.136 159.727 134.52C159.85 134.899 159.911 135.317 159.911 135.776V141H157.935V135.776C157.935 135.275 157.818 134.888 157.583 134.616C157.354 134.339 157.007 134.2 156.543 134.2C156.202 134.2 155.882 134.277 155.583 134.432C155.284 134.587 155.002 134.797 154.735 135.064V141H152.759ZM165.357 132.664C165.97 132.664 166.525 132.763 167.021 132.96C167.522 133.157 167.949 133.437 168.301 133.8C168.653 134.163 168.925 134.605 169.117 135.128C169.309 135.651 169.405 136.235 169.405 136.88C169.405 137.531 169.309 138.117 169.117 138.64C168.925 139.163 168.653 139.608 168.301 139.976C167.949 140.344 167.522 140.627 167.021 140.824C166.525 141.021 165.97 141.12 165.357 141.12C164.744 141.12 164.186 141.021 163.685 140.824C163.184 140.627 162.754 140.344 162.397 139.976C162.045 139.608 161.77 139.163 161.573 138.64C161.381 138.117 161.285 137.531 161.285 136.88C161.285 136.235 161.381 135.651 161.573 135.128C161.77 134.605 162.045 134.163 162.397 133.8C162.754 133.437 163.184 133.157 163.685 132.96C164.186 132.763 164.744 132.664 165.357 132.664ZM165.357 139.6C166.04 139.6 166.544 139.371 166.869 138.912C167.2 138.453 167.365 137.781 167.365 136.896C167.365 136.011 167.2 135.336 166.869 134.872C166.544 134.408 166.04 134.176 165.357 134.176C164.664 134.176 164.152 134.411 163.821 134.88C163.49 135.344 163.325 136.016 163.325 136.896C163.325 137.776 163.49 138.448 163.821 138.912C164.152 139.371 164.664 139.6 165.357 139.6ZM170.947 143.68V132.792H172.155C172.283 132.792 172.392 132.821 172.483 132.88C172.573 132.939 172.632 133.029 172.659 133.152L172.819 133.912C173.149 133.533 173.528 133.227 173.955 132.992C174.387 132.757 174.891 132.64 175.467 132.64C175.915 132.64 176.323 132.733 176.691 132.92C177.064 133.107 177.384 133.379 177.651 133.736C177.923 134.088 178.131 134.525 178.275 135.048C178.424 135.565 178.499 136.16 178.499 136.832C178.499 137.445 178.416 138.013 178.251 138.536C178.085 139.059 177.848 139.512 177.539 139.896C177.235 140.28 176.864 140.581 176.427 140.8C175.995 141.013 175.509 141.12 174.971 141.12C174.507 141.12 174.112 141.051 173.787 140.912C173.467 140.768 173.179 140.571 172.923 140.32V143.68H170.947ZM174.787 134.2C174.376 134.2 174.024 134.288 173.731 134.464C173.443 134.635 173.173 134.877 172.923 135.192V138.872C173.147 139.149 173.389 139.344 173.651 139.456C173.917 139.563 174.203 139.616 174.507 139.616C174.805 139.616 175.075 139.56 175.315 139.448C175.56 139.336 175.765 139.165 175.931 138.936C176.101 138.707 176.232 138.419 176.323 138.072C176.413 137.72 176.459 137.307 176.459 136.832C176.459 136.352 176.419 135.947 176.339 135.616C176.264 135.28 176.155 135.008 176.011 134.8C175.867 134.592 175.691 134.44 175.483 134.344C175.28 134.248 175.048 134.2 174.787 134.2ZM182.098 132.792V141H180.122V132.792H182.098ZM182.394 130.4C182.394 130.571 182.359 130.731 182.29 130.88C182.22 131.029 182.127 131.16 182.01 131.272C181.898 131.384 181.764 131.475 181.61 131.544C181.455 131.608 181.29 131.64 181.114 131.64C180.943 131.64 180.78 131.608 180.626 131.544C180.476 131.475 180.346 131.384 180.234 131.272C180.122 131.16 180.031 131.029 179.962 130.88C179.898 130.731 179.866 130.571 179.866 130.4C179.866 130.224 179.898 130.059 179.962 129.904C180.031 129.749 180.122 129.616 180.234 129.504C180.346 129.392 180.476 129.304 180.626 129.24C180.78 129.171 180.943 129.136 181.114 129.136C181.29 129.136 181.455 129.171 181.61 129.24C181.764 129.304 181.898 129.392 182.01 129.504C182.127 129.616 182.22 129.749 182.29 129.904C182.359 130.059 182.394 130.224 182.394 130.4ZM184.689 141V134.28L183.977 134.168C183.823 134.141 183.697 134.088 183.601 134.008C183.511 133.928 183.465 133.816 183.465 133.672V132.864H184.689V132.256C184.689 131.787 184.759 131.365 184.897 130.992C185.041 130.619 185.244 130.301 185.505 130.04C185.772 129.779 186.095 129.579 186.473 129.44C186.852 129.301 187.279 129.232 187.753 129.232C188.132 129.232 188.484 129.283 188.809 129.384L188.769 130.376C188.759 130.531 188.687 130.627 188.553 130.664C188.42 130.701 188.265 130.72 188.089 130.72C187.855 130.72 187.644 130.747 187.457 130.8C187.276 130.848 187.121 130.936 186.993 131.064C186.865 131.187 186.767 131.352 186.697 131.56C186.633 131.763 186.601 132.016 186.601 132.32V132.864H188.737V134.272H186.665V141H184.689ZM192.859 143.256C192.8 143.395 192.723 143.499 192.627 143.568C192.536 143.643 192.395 143.68 192.203 143.68H190.731L192.267 140.392L188.947 132.792H190.675C190.835 132.792 190.957 132.829 191.043 132.904C191.128 132.979 191.192 133.064 191.235 133.16L192.987 137.416C193.045 137.555 193.096 137.699 193.139 137.848C193.181 137.997 193.219 138.147 193.251 138.296C193.293 138.141 193.339 137.992 193.387 137.848C193.44 137.704 193.496 137.557 193.555 137.408L195.203 133.16C195.245 133.053 195.315 132.965 195.411 132.896C195.512 132.827 195.624 132.792 195.747 132.792H197.331L192.859 143.256ZM196.912 139.912C196.912 139.747 196.941 139.589 197 139.44C197.064 139.291 197.149 139.163 197.256 139.056C197.368 138.949 197.499 138.864 197.648 138.8C197.797 138.736 197.957 138.704 198.128 138.704C198.293 138.704 198.451 138.736 198.6 138.8C198.749 138.864 198.877 138.949 198.984 139.056C199.091 139.163 199.176 139.291 199.24 139.44C199.304 139.589 199.336 139.747 199.336 139.912C199.336 140.083 199.304 140.243 199.24 140.392C199.176 140.536 199.091 140.661 198.984 140.768C198.877 140.875 198.749 140.957 198.6 141.016C198.451 141.08 198.293 141.112 198.128 141.112C197.957 141.112 197.797 141.08 197.648 141.016C197.499 140.957 197.368 140.875 197.256 140.768C197.149 140.661 197.064 140.536 197 140.392C196.941 140.243 196.912 140.083 196.912 139.912ZM206.746 134.528C206.687 134.603 206.629 134.661 206.57 134.704C206.517 134.747 206.437 134.768 206.33 134.768C206.229 134.768 206.13 134.739 206.034 134.68C205.938 134.616 205.823 134.547 205.69 134.472C205.557 134.392 205.397 134.323 205.21 134.264C205.029 134.2 204.802 134.168 204.53 134.168C204.183 134.168 203.879 134.232 203.618 134.36C203.357 134.483 203.138 134.661 202.962 134.896C202.791 135.131 202.663 135.416 202.578 135.752C202.493 136.083 202.45 136.459 202.45 136.88C202.45 137.317 202.495 137.707 202.586 138.048C202.682 138.389 202.818 138.677 202.994 138.912C203.17 139.141 203.383 139.317 203.634 139.44C203.885 139.557 204.167 139.616 204.482 139.616C204.797 139.616 205.05 139.579 205.242 139.504C205.439 139.424 205.605 139.339 205.738 139.248C205.871 139.152 205.986 139.067 206.082 138.992C206.183 138.912 206.295 138.872 206.418 138.872C206.578 138.872 206.698 138.933 206.778 139.056L207.346 139.776C207.127 140.032 206.89 140.248 206.634 140.424C206.378 140.595 206.111 140.733 205.834 140.84C205.562 140.941 205.279 141.013 204.986 141.056C204.693 141.099 204.402 141.12 204.114 141.12C203.607 141.12 203.13 141.027 202.682 140.84C202.234 140.648 201.842 140.371 201.506 140.008C201.175 139.645 200.911 139.203 200.714 138.68C200.522 138.152 200.426 137.552 200.426 136.88C200.426 136.277 200.511 135.72 200.682 135.208C200.858 134.691 201.114 134.245 201.45 133.872C201.786 133.493 202.202 133.197 202.698 132.984C203.194 132.771 203.765 132.664 204.41 132.664C205.023 132.664 205.559 132.763 206.018 132.96C206.482 133.157 206.898 133.44 207.266 133.808L206.746 134.528ZM212.107 132.664C212.72 132.664 213.275 132.763 213.771 132.96C214.272 133.157 214.699 133.437 215.051 133.8C215.403 134.163 215.675 134.605 215.867 135.128C216.059 135.651 216.155 136.235 216.155 136.88C216.155 137.531 216.059 138.117 215.867 138.64C215.675 139.163 215.403 139.608 215.051 139.976C214.699 140.344 214.272 140.627 213.771 140.824C213.275 141.021 212.72 141.12 212.107 141.12C211.494 141.12 210.936 141.021 210.435 140.824C209.934 140.627 209.504 140.344 209.147 139.976C208.795 139.608 208.52 139.163 208.323 138.64C208.131 138.117 208.035 137.531 208.035 136.88C208.035 136.235 208.131 135.651 208.323 135.128C208.52 134.605 208.795 134.163 209.147 133.8C209.504 133.437 209.934 133.157 210.435 132.96C210.936 132.763 211.494 132.664 212.107 132.664ZM212.107 139.6C212.79 139.6 213.294 139.371 213.619 138.912C213.95 138.453 214.115 137.781 214.115 136.896C214.115 136.011 213.95 135.336 213.619 134.872C213.294 134.408 212.79 134.176 212.107 134.176C211.414 134.176 210.902 134.411 210.571 134.88C210.24 135.344 210.075 136.016 210.075 136.896C210.075 137.776 210.24 138.448 210.571 138.912C210.902 139.371 211.414 139.6 212.107 139.6ZM217.697 141V132.792H218.905C219.161 132.792 219.329 132.912 219.409 133.152L219.537 133.76C219.681 133.6 219.83 133.453 219.985 133.32C220.145 133.187 220.313 133.072 220.489 132.976C220.67 132.88 220.862 132.805 221.065 132.752C221.273 132.693 221.499 132.664 221.745 132.664C222.262 132.664 222.686 132.805 223.017 133.088C223.353 133.365 223.603 133.736 223.769 134.2C223.897 133.928 224.057 133.696 224.249 133.504C224.441 133.307 224.651 133.147 224.881 133.024C225.11 132.901 225.353 132.811 225.609 132.752C225.87 132.693 226.131 132.664 226.393 132.664C226.846 132.664 227.249 132.733 227.601 132.872C227.953 133.011 228.249 133.213 228.489 133.48C228.729 133.747 228.91 134.072 229.033 134.456C229.161 134.84 229.225 135.28 229.225 135.776V141H227.249V135.776C227.249 135.253 227.134 134.861 226.905 134.6C226.675 134.333 226.339 134.2 225.897 134.2C225.694 134.2 225.505 134.235 225.329 134.304C225.158 134.373 225.006 134.475 224.873 134.608C224.745 134.736 224.643 134.899 224.569 135.096C224.494 135.293 224.457 135.52 224.457 135.776V141H222.473V135.776C222.473 135.227 222.361 134.827 222.137 134.576C221.918 134.325 221.593 134.2 221.161 134.2C220.878 134.2 220.611 134.272 220.361 134.416C220.115 134.555 219.886 134.747 219.673 134.992V141H217.697Z" fill="#1B1B1B"/>
<rect x="0.5" y="113.5" width="357" height="42" rx="3.5" stroke="#1B1B1B"/>
</g>
<g clip-path="url(#clip2_1240_15351)">
<path d="M8.56 186.488L8.552 188H1.368V176.48H8.552V177.992H3.248V181.464H7.488V182.928H3.248V186.488H8.56ZM10.0793 188V179.84H11.1193C11.3539 179.84 11.5033 179.949 11.5673 180.168L11.6793 180.88C11.8286 180.709 11.9833 180.555 12.1433 180.416C12.3033 180.272 12.4739 180.149 12.6553 180.048C12.8419 179.941 13.0393 179.859 13.2473 179.8C13.4606 179.741 13.6899 179.712 13.9353 179.712C14.1966 179.712 14.4366 179.749 14.6553 179.824C14.8739 179.899 15.0659 180.005 15.2313 180.144C15.4019 180.283 15.5486 180.451 15.6713 180.648C15.7939 180.845 15.8953 181.067 15.9753 181.312C16.0979 181.029 16.2526 180.787 16.4393 180.584C16.6259 180.381 16.8339 180.216 17.0633 180.088C17.2926 179.96 17.5353 179.867 17.7913 179.808C18.0526 179.744 18.3166 179.712 18.5833 179.712C19.0206 179.712 19.4099 179.781 19.7513 179.92C20.0979 180.059 20.3886 180.261 20.6233 180.528C20.8633 180.789 21.0446 181.112 21.1673 181.496C21.2899 181.88 21.3513 182.317 21.3513 182.808V188H19.6313V182.808C19.6313 182.232 19.5059 181.8 19.2553 181.512C19.0099 181.219 18.6446 181.072 18.1593 181.072C17.9406 181.072 17.7353 181.109 17.5433 181.184C17.3513 181.259 17.1833 181.368 17.0393 181.512C16.8953 181.656 16.7806 181.837 16.6953 182.056C16.6153 182.269 16.5753 182.52 16.5753 182.808V188H14.8553V182.808C14.8553 182.211 14.7353 181.773 14.4953 181.496C14.2553 181.213 13.9033 181.072 13.4392 181.072C13.1193 181.072 12.8233 181.155 12.5513 181.32C12.2793 181.48 12.0286 181.701 11.7993 181.984V188H10.0793ZM27.7205 184.432C27.1072 184.453 26.5898 184.504 26.1685 184.584C25.7472 184.659 25.4058 184.757 25.1445 184.88C24.8832 184.997 24.6938 185.139 24.5765 185.304C24.4645 185.469 24.4085 185.651 24.4085 185.848C24.4085 186.04 24.4378 186.205 24.4965 186.344C24.5605 186.477 24.6458 186.589 24.7525 186.68C24.8645 186.765 24.9925 186.829 25.1365 186.872C25.2858 186.909 25.4485 186.928 25.6245 186.928C26.0725 186.928 26.4565 186.845 26.7765 186.68C27.1018 186.509 27.4165 186.264 27.7205 185.944V184.432ZM23.1605 180.976C24.0832 180.117 25.1818 179.688 26.4565 179.688C26.9258 179.688 27.3418 179.765 27.7045 179.92C28.0725 180.069 28.3792 180.283 28.6245 180.56C28.8752 180.837 29.0645 181.168 29.1925 181.552C29.3258 181.931 29.3925 182.352 29.3925 182.816V188H28.6245C28.4592 188 28.3338 187.976 28.2485 187.928C28.1632 187.875 28.0912 187.771 28.0325 187.616L27.8645 186.952C27.6565 187.139 27.4512 187.307 27.2485 187.456C27.0458 187.6 26.8352 187.723 26.6165 187.824C26.4032 187.925 26.1712 188 25.9205 188.048C25.6752 188.101 25.4032 188.128 25.1045 188.128C24.7738 188.128 24.4645 188.083 24.1765 187.992C23.8938 187.901 23.6485 187.765 23.4405 187.584C23.2325 187.397 23.0672 187.168 22.9445 186.896C22.8272 186.624 22.7685 186.304 22.7685 185.936C22.7685 185.621 22.8512 185.315 23.0165 185.016C23.1872 184.717 23.4645 184.451 23.8485 184.216C24.2378 183.976 24.7472 183.779 25.3765 183.624C26.0112 183.469 26.7925 183.381 27.7205 183.36V182.816C27.7205 182.229 27.5952 181.792 27.3445 181.504C27.0938 181.216 26.7258 181.072 26.2405 181.072C25.9098 181.072 25.6325 181.115 25.4085 181.2C25.1845 181.28 24.9898 181.368 24.8245 181.464C24.6592 181.56 24.5125 181.651 24.3845 181.736C24.2565 181.816 24.1205 181.856 23.9765 181.856C23.8592 181.856 23.7578 181.827 23.6725 181.768C23.5925 181.704 23.5258 181.627 23.4725 181.536L23.1605 180.976ZM33.1994 179.84V188H31.4794V179.84H33.1994ZM33.4874 177.376C33.4874 177.531 33.4554 177.677 33.3914 177.816C33.3327 177.955 33.25 178.077 33.1434 178.184C33.0367 178.285 32.9114 178.368 32.7674 178.432C32.6287 178.491 32.4794 178.52 32.3194 178.52C32.1647 178.52 32.018 178.491 31.8794 178.432C31.746 178.368 31.6287 178.285 31.5274 178.184C31.426 178.077 31.3434 177.955 31.2794 177.816C31.2207 177.677 31.1914 177.531 31.1914 177.376C31.1914 177.216 31.2207 177.067 31.2794 176.928C31.3434 176.789 31.426 176.669 31.5274 176.568C31.6287 176.461 31.746 176.379 31.8794 176.32C32.018 176.256 32.1647 176.224 32.3194 176.224C32.4794 176.224 32.6287 176.256 32.7674 176.32C32.9114 176.379 33.0367 176.461 33.1434 176.568C33.25 176.669 33.3327 176.789 33.3914 176.928C33.4554 177.067 33.4874 177.216 33.4874 177.376ZM37.1125 176.16V188H35.3925V176.16H37.1125Z" fill="#1B1B1B"/>
<path d="M43 177L48 173.5M43 173.5L48 177M45.5 178V172" stroke="#CA5B5B"/>
<rect x="0.5" y="199.5" width="357" height="42" rx="3.5" fill="white"/>
<path d="M14.768 215.16V222.024H15.136C15.2533 222.024 15.3493 222.008 15.424 221.976C15.4987 221.944 15.576 221.877 15.656 221.776L17.944 219.16C18.024 219.053 18.112 218.973 18.208 218.92C18.304 218.867 18.4267 218.84 18.576 218.84H20.136L17.384 221.944C17.224 222.152 17.048 222.317 16.856 222.44C16.9627 222.515 17.056 222.6 17.136 222.696C17.216 222.787 17.2933 222.891 17.368 223.008L20.304 227H18.768C18.6293 227 18.5093 226.979 18.408 226.936C18.312 226.888 18.2267 226.803 18.152 226.68L15.792 223.48C15.712 223.357 15.632 223.28 15.552 223.248C15.472 223.211 15.352 223.192 15.192 223.192H14.768V227H13.048V215.16H14.768ZM26.3219 222C26.3219 221.712 26.2792 221.445 26.1939 221.2C26.1139 220.949 25.9939 220.733 25.8339 220.552C25.6739 220.365 25.4739 220.221 25.2339 220.12C24.9992 220.013 24.7272 219.96 24.4179 219.96C23.7939 219.96 23.3032 220.139 22.9459 220.496C22.5885 220.853 22.3619 221.355 22.2659 222H26.3219ZM22.2179 223.056C22.2392 223.52 22.3112 223.923 22.4339 224.264C22.5565 224.6 22.7192 224.88 22.9219 225.104C23.1299 225.328 23.3752 225.496 23.6579 225.608C23.9459 225.715 24.2659 225.768 24.6179 225.768C24.9539 225.768 25.2445 225.731 25.4899 225.656C25.7352 225.576 25.9485 225.491 26.1299 225.4C26.3112 225.304 26.4659 225.219 26.5939 225.144C26.7219 225.064 26.8392 225.024 26.9459 225.024C27.0845 225.024 27.1912 225.077 27.2659 225.184L27.7539 225.816C27.5512 226.056 27.3219 226.259 27.0659 226.424C26.8099 226.589 26.5379 226.725 26.2499 226.832C25.9619 226.933 25.6659 227.005 25.3619 227.048C25.0579 227.096 24.7619 227.12 24.4739 227.12C23.9085 227.12 23.3832 227.027 22.8979 226.84C22.4179 226.648 21.9992 226.368 21.6419 226C21.2899 225.632 21.0125 225.176 20.8099 224.632C20.6125 224.088 20.5139 223.461 20.5139 222.752C20.5139 222.187 20.6019 221.659 20.7779 221.168C20.9592 220.677 21.2152 220.251 21.5459 219.888C21.8819 219.525 22.2872 219.24 22.7619 219.032C23.2419 218.819 23.7832 218.712 24.3859 218.712C24.8872 218.712 25.3512 218.795 25.7779 218.96C26.2045 219.12 26.5725 219.357 26.8819 219.672C27.1912 219.987 27.4312 220.373 27.6019 220.832C27.7779 221.285 27.8659 221.803 27.8659 222.384C27.8659 222.651 27.8365 222.829 27.7779 222.92C27.7192 223.011 27.6125 223.056 27.4579 223.056H22.2179ZM36.4664 218.84L33.1864 227H31.6344L28.3544 218.84H29.7704C29.9037 218.84 30.013 218.875 30.0984 218.944C30.189 219.008 30.2477 219.085 30.2744 219.176L32.0824 223.928C32.157 224.152 32.2237 224.373 32.2824 224.592C32.341 224.811 32.3917 225.032 32.4344 225.256C32.477 225.032 32.5277 224.813 32.5864 224.6C32.6504 224.381 32.7197 224.157 32.7944 223.928L34.6344 219.176C34.6664 219.08 34.725 219 34.8104 218.936C34.8957 218.872 34.9997 218.84 35.1224 218.84H36.4664ZM39.4338 218.84V227H37.7138V218.84H39.4338ZM39.7218 216.376C39.7218 216.531 39.6898 216.677 39.6258 216.816C39.5671 216.955 39.4844 217.077 39.3778 217.184C39.2711 217.285 39.1458 217.368 39.0018 217.432C38.8631 217.491 38.7138 217.52 38.5538 217.52C38.3991 217.52 38.2524 217.491 38.1138 217.432C37.9804 217.368 37.8631 217.285 37.7618 217.184C37.6604 217.077 37.5778 216.955 37.5138 216.816C37.4551 216.677 37.4258 216.531 37.4258 216.376C37.4258 216.216 37.4551 216.067 37.5138 215.928C37.5778 215.789 37.6604 215.669 37.7618 215.568C37.8631 215.461 37.9804 215.379 38.1138 215.32C38.2524 215.256 38.3991 215.224 38.5538 215.224C38.7138 215.224 38.8631 215.256 39.0018 215.32C39.1458 215.379 39.2711 215.461 39.3778 215.568C39.4844 215.669 39.5671 215.789 39.6258 215.928C39.6898 216.067 39.7218 216.216 39.7218 216.376ZM43.2029 219.92C43.3789 219.739 43.5602 219.576 43.7469 219.432C43.9389 219.283 44.1415 219.155 44.3549 219.048C44.5682 218.941 44.7949 218.859 45.0349 218.8C45.2749 218.741 45.5362 218.712 45.8189 218.712C46.2669 218.712 46.6589 218.787 46.9949 218.936C47.3362 219.085 47.6215 219.296 47.8509 219.568C48.0855 219.84 48.2615 220.168 48.3789 220.552C48.4962 220.931 48.5549 221.349 48.5549 221.808V227H46.8429V221.808C46.8429 221.259 46.7149 220.832 46.4589 220.528C46.2082 220.224 45.8242 220.072 45.3069 220.072C44.9229 220.072 44.5655 220.16 44.2349 220.336C43.9095 220.512 43.6029 220.752 43.3149 221.056V227H41.5949V218.84H42.6349C42.8695 218.84 43.0189 218.949 43.0829 219.168L43.2029 219.92ZM50.2996 226.008C50.2996 225.853 50.3263 225.709 50.3796 225.576C50.4383 225.437 50.5156 225.317 50.6116 225.216C50.713 225.115 50.8303 225.035 50.9636 224.976C51.1023 224.917 51.249 224.888 51.4036 224.888C51.5583 224.888 51.7023 224.917 51.8356 224.976C51.9743 225.035 52.0943 225.115 52.1956 225.216C52.297 225.317 52.377 225.437 52.4356 225.576C52.4943 225.709 52.5236 225.853 52.5236 226.008C52.5236 226.168 52.4943 226.315 52.4356 226.448C52.377 226.581 52.297 226.699 52.1956 226.8C52.0943 226.901 51.9743 226.979 51.8356 227.032C51.7023 227.091 51.5583 227.12 51.4036 227.12C51.249 227.12 51.1023 227.091 50.9636 227.032C50.8303 226.979 50.713 226.901 50.6116 226.8C50.5156 226.699 50.4383 226.581 50.3796 226.448C50.3263 226.315 50.2996 226.168 50.2996 226.008ZM59.2169 220.32C59.1742 220.395 59.1262 220.448 59.0729 220.48C59.0195 220.512 58.9529 220.528 58.8729 220.528C58.7822 220.528 58.6835 220.501 58.5769 220.448C58.4702 220.389 58.3449 220.325 58.2009 220.256C58.0569 220.187 57.8862 220.125 57.6889 220.072C57.4969 220.013 57.2702 219.984 57.0089 219.984C56.7955 219.984 56.6009 220.011 56.4249 220.064C56.2542 220.112 56.1075 220.184 55.9849 220.28C55.8675 220.371 55.7769 220.48 55.7129 220.608C55.6489 220.731 55.6169 220.864 55.6169 221.008C55.6169 221.2 55.6755 221.36 55.7929 221.488C55.9102 221.616 56.0649 221.728 56.2569 221.824C56.4489 221.915 56.6675 221.997 56.9129 222.072C57.1582 222.147 57.4089 222.227 57.6649 222.312C57.9209 222.397 58.1715 222.496 58.4169 222.608C58.6622 222.72 58.8809 222.859 59.0729 223.024C59.2649 223.184 59.4195 223.381 59.5369 223.616C59.6542 223.845 59.7129 224.125 59.7129 224.456C59.7129 224.84 59.6435 225.195 59.5049 225.52C59.3662 225.845 59.1635 226.128 58.8969 226.368C58.6302 226.608 58.2969 226.795 57.8969 226.928C57.5022 227.061 57.0489 227.128 56.5369 227.128C56.2542 227.128 55.9795 227.101 55.7129 227.048C55.4515 227 55.2009 226.933 54.9609 226.848C54.7262 226.757 54.5049 226.651 54.2969 226.528C54.0942 226.405 53.9129 226.272 53.7529 226.128L54.1529 225.472C54.2009 225.392 54.2595 225.331 54.3289 225.288C54.4035 225.24 54.4942 225.216 54.6009 225.216C54.7129 225.216 54.8222 225.253 54.9289 225.328C55.0409 225.397 55.1689 225.475 55.3129 225.56C55.4622 225.645 55.6409 225.725 55.8489 225.8C56.0569 225.869 56.3155 225.904 56.6249 225.904C56.8809 225.904 57.1022 225.875 57.2889 225.816C57.4755 225.752 57.6302 225.667 57.7529 225.56C57.8755 225.453 57.9662 225.333 58.0249 225.2C58.0835 225.061 58.1129 224.915 58.1129 224.76C58.1129 224.552 58.0542 224.381 57.9369 224.248C57.8195 224.115 57.6622 224 57.4649 223.904C57.2729 223.808 57.0515 223.723 56.8009 223.648C56.5555 223.573 56.3049 223.493 56.0489 223.408C55.7929 223.323 55.5395 223.224 55.2889 223.112C55.0435 223 54.8222 222.859 54.6249 222.688C54.4329 222.512 54.2782 222.301 54.1609 222.056C54.0435 221.805 53.9849 221.501 53.9849 221.144C53.9849 220.819 54.0489 220.509 54.1769 220.216C54.3102 219.923 54.5022 219.664 54.7529 219.44C55.0089 219.216 55.3209 219.04 55.6889 218.912C56.0622 218.779 56.4915 218.712 56.9769 218.712C57.5262 218.712 58.0249 218.8 58.4729 218.976C58.9209 219.152 59.2969 219.392 59.6009 219.696L59.2169 220.32ZM68.2093 218.84V227H67.1693C66.9399 227 66.7933 226.891 66.7293 226.672L66.6013 225.912C66.4306 226.093 66.2493 226.259 66.0573 226.408C65.8706 226.557 65.6706 226.685 65.4573 226.792C65.2439 226.899 65.0146 226.981 64.7693 227.04C64.5293 227.099 64.2706 227.128 63.9933 227.128C63.5453 227.128 63.1506 227.053 62.8093 226.904C62.4679 226.755 62.1799 226.544 61.9453 226.272C61.7159 226 61.5426 225.675 61.4253 225.296C61.3079 224.912 61.2493 224.491 61.2493 224.032V218.84H62.9693V224.032C62.9693 224.581 63.0946 225.008 63.3453 225.312C63.6013 225.616 63.9879 225.768 64.5052 225.768C64.8839 225.768 65.2359 225.683 65.5613 225.512C65.8919 225.336 66.2013 225.096 66.4893 224.792V218.84H68.2093ZM72.914 227.128C72.2367 227.128 71.714 226.939 71.346 226.56C70.9833 226.176 70.802 225.637 70.802 224.944V220.192H69.906C69.81 220.192 69.7273 220.163 69.658 220.104C69.5887 220.04 69.554 219.947 69.554 219.824V219.128L70.874 218.936L71.25 216.576C71.2767 216.485 71.322 216.413 71.386 216.36C71.45 216.301 71.5353 216.272 71.642 216.272H72.522V218.952H74.786V220.192H72.522V224.824C72.522 225.117 72.594 225.341 72.738 225.496C72.882 225.651 73.074 225.728 73.314 225.728C73.4473 225.728 73.562 225.712 73.658 225.68C73.754 225.643 73.8367 225.605 73.906 225.568C73.9753 225.525 74.034 225.488 74.082 225.456C74.1353 225.419 74.186 225.4 74.234 225.4C74.33 225.4 74.4073 225.453 74.466 225.56L74.978 226.4C74.7113 226.635 74.3967 226.816 74.034 226.944C73.6713 227.067 73.298 227.128 72.914 227.128ZM77.8618 219.808C78.1978 219.477 78.5658 219.213 78.9658 219.016C79.3658 218.813 79.8324 218.712 80.3658 218.712C80.8138 218.712 81.2058 218.787 81.5418 218.936C81.8831 219.085 82.1684 219.296 82.3978 219.568C82.6324 219.84 82.8084 220.168 82.9258 220.552C83.0431 220.931 83.1018 221.349 83.1018 221.808V227H81.3898V221.808C81.3898 221.259 81.2618 220.832 81.0058 220.528C80.7551 220.224 80.3711 220.072 79.8538 220.072C79.4698 220.072 79.1124 220.16 78.7818 220.336C78.4564 220.512 78.1498 220.752 77.8618 221.056V227H76.1418V215.16H77.8618V219.808ZM90.4625 222C90.4625 221.712 90.4198 221.445 90.3345 221.2C90.2545 220.949 90.1345 220.733 89.9745 220.552C89.8145 220.365 89.6145 220.221 89.3745 220.12C89.1398 220.013 88.8678 219.96 88.5585 219.96C87.9345 219.96 87.4438 220.139 87.0865 220.496C86.7292 220.853 86.5025 221.355 86.4065 222H90.4625ZM86.3585 223.056C86.3798 223.52 86.4518 223.923 86.5745 224.264C86.6972 224.6 86.8598 224.88 87.0625 225.104C87.2705 225.328 87.5158 225.496 87.7985 225.608C88.0865 225.715 88.4065 225.768 88.7585 225.768C89.0945 225.768 89.3852 225.731 89.6305 225.656C89.8758 225.576 90.0892 225.491 90.2705 225.4C90.4518 225.304 90.6065 225.219 90.7345 225.144C90.8625 225.064 90.9798 225.024 91.0865 225.024C91.2252 225.024 91.3318 225.077 91.4065 225.184L91.8945 225.816C91.6918 226.056 91.4625 226.259 91.2065 226.424C90.9505 226.589 90.6785 226.725 90.3905 226.832C90.1025 226.933 89.8065 227.005 89.5025 227.048C89.1985 227.096 88.9025 227.12 88.6145 227.12C88.0492 227.12 87.5238 227.027 87.0385 226.84C86.5585 226.648 86.1398 226.368 85.7825 226C85.4305 225.632 85.1532 225.176 84.9505 224.632C84.7532 224.088 84.6545 223.461 84.6545 222.752C84.6545 222.187 84.7425 221.659 84.9185 221.168C85.0998 220.677 85.3558 220.251 85.6865 219.888C86.0225 219.525 86.4278 219.24 86.9025 219.032C87.3825 218.819 87.9238 218.712 88.5265 218.712C89.0278 218.712 89.4918 218.795 89.9185 218.96C90.3452 219.12 90.7132 219.357 91.0225 219.672C91.3318 219.987 91.5718 220.373 91.7425 220.832C91.9185 221.285 92.0065 221.803 92.0065 222.384C92.0065 222.651 91.9772 222.829 91.9185 222.92C91.8598 223.011 91.7532 223.056 91.5985 223.056H86.3585ZM95.2345 220.352C95.4905 219.835 95.7998 219.429 96.1625 219.136C96.5252 218.837 96.9598 218.688 97.4665 218.688C97.6425 218.688 97.8078 218.709 97.9625 218.752C98.1172 218.789 98.2558 218.848 98.3785 218.928L98.2585 220.224C98.2372 220.315 98.2025 220.379 98.1545 220.416C98.1118 220.448 98.0532 220.464 97.9785 220.464C97.8985 220.464 97.7838 220.451 97.6345 220.424C97.4852 220.392 97.3278 220.376 97.1625 220.376C96.9225 220.376 96.7092 220.411 96.5225 220.48C96.3412 220.549 96.1758 220.651 96.0265 220.784C95.8825 220.917 95.7545 221.08 95.6425 221.272C95.5305 221.464 95.4265 221.683 95.3305 221.928V227H93.6105V218.84H94.6105C94.7918 218.84 94.9172 218.875 94.9865 218.944C95.0558 219.008 95.1038 219.123 95.1305 219.288L95.2345 220.352ZM101.269 215.16V227H99.5488V215.16H101.269ZM107.752 223.432C107.138 223.453 106.621 223.504 106.2 223.584C105.778 223.659 105.437 223.757 105.176 223.88C104.914 223.997 104.725 224.139 104.608 224.304C104.496 224.469 104.44 224.651 104.44 224.848C104.44 225.04 104.469 225.205 104.528 225.344C104.592 225.477 104.677 225.589 104.784 225.68C104.896 225.765 105.024 225.829 105.168 225.872C105.317 225.909 105.48 225.928 105.656 225.928C106.104 225.928 106.488 225.845 106.808 225.68C107.133 225.509 107.448 225.264 107.752 224.944V223.432ZM103.192 219.976C104.114 219.117 105.213 218.688 106.488 218.688C106.957 218.688 107.373 218.765 107.736 218.92C108.104 219.069 108.41 219.283 108.656 219.56C108.906 219.837 109.096 220.168 109.224 220.552C109.357 220.931 109.424 221.352 109.424 221.816V227H108.656C108.49 227 108.365 226.976 108.28 226.928C108.194 226.875 108.122 226.771 108.064 226.616L107.896 225.952C107.688 226.139 107.482 226.307 107.28 226.456C107.077 226.6 106.866 226.723 106.648 226.824C106.434 226.925 106.202 227 105.952 227.048C105.706 227.101 105.434 227.128 105.136 227.128C104.805 227.128 104.496 227.083 104.208 226.992C103.925 226.901 103.68 226.765 103.472 226.584C103.264 226.397 103.098 226.168 102.976 225.896C102.858 225.624 102.8 225.304 102.8 224.936C102.8 224.621 102.882 224.315 103.048 224.016C103.218 223.717 103.496 223.451 103.88 223.216C104.269 222.976 104.778 222.779 105.408 222.624C106.042 222.469 106.824 222.381 107.752 222.36V221.816C107.752 221.229 107.626 220.792 107.376 220.504C107.125 220.216 106.757 220.072 106.272 220.072C105.941 220.072 105.664 220.115 105.44 220.2C105.216 220.28 105.021 220.368 104.856 220.464C104.69 220.56 104.544 220.651 104.416 220.736C104.288 220.816 104.152 220.856 104.008 220.856C103.89 220.856 103.789 220.827 103.704 220.768C103.624 220.704 103.557 220.627 103.504 220.536L103.192 219.976ZM113.047 219.92C113.223 219.739 113.404 219.576 113.591 219.432C113.783 219.283 113.985 219.155 114.199 219.048C114.412 218.941 114.639 218.859 114.879 218.8C115.119 218.741 115.38 218.712 115.663 218.712C116.111 218.712 116.503 218.787 116.839 218.936C117.18 219.085 117.465 219.296 117.695 219.568C117.929 219.84 118.105 220.168 118.223 220.552C118.34 220.931 118.399 221.349 118.399 221.808V227H116.687V221.808C116.687 221.259 116.559 220.832 116.303 220.528C116.052 220.224 115.668 220.072 115.151 220.072C114.767 220.072 114.409 220.16 114.079 220.336C113.753 220.512 113.447 220.752 113.159 221.056V227H111.439V218.84H112.479C112.713 218.84 112.863 218.949 112.927 219.168L113.047 219.92ZM125.615 220.848C125.375 220.539 125.111 220.323 124.823 220.2C124.535 220.077 124.223 220.016 123.887 220.016C123.215 220.016 122.69 220.264 122.311 220.76C121.933 221.251 121.743 221.979 121.743 222.944C121.743 223.445 121.786 223.875 121.871 224.232C121.957 224.584 122.079 224.872 122.239 225.096C122.399 225.32 122.594 225.483 122.823 225.584C123.053 225.685 123.311 225.736 123.599 225.736C124.037 225.736 124.413 225.643 124.727 225.456C125.047 225.264 125.343 224.995 125.615 224.648V220.848ZM127.335 215.16V227H126.295C126.066 227 125.919 226.891 125.855 226.672L125.703 225.784C125.362 226.184 124.973 226.507 124.535 226.752C124.103 226.997 123.599 227.12 123.023 227.12C122.565 227.12 122.149 227.029 121.775 226.848C121.402 226.661 121.082 226.392 120.815 226.04C120.549 225.688 120.341 225.253 120.191 224.736C120.047 224.213 119.975 223.616 119.975 222.944C119.975 222.336 120.055 221.773 120.215 221.256C120.381 220.739 120.615 220.291 120.919 219.912C121.223 219.528 121.591 219.229 122.023 219.016C122.461 218.797 122.949 218.688 123.487 218.688C123.967 218.688 124.375 218.765 124.711 218.92C125.047 219.069 125.349 219.28 125.615 219.552V215.16H127.335ZM136.719 220.512C136.548 220.475 136.348 220.456 136.119 220.456C135.756 220.456 135.42 220.533 135.111 220.688C134.801 220.843 134.532 221.048 134.303 221.304C134.079 221.56 133.903 221.856 133.775 222.192C133.647 222.523 133.583 222.864 133.583 223.216C133.583 223.579 133.663 223.864 133.823 224.072C133.988 224.28 134.225 224.384 134.535 224.384C134.684 224.384 134.836 224.36 134.991 224.312C135.145 224.264 135.292 224.181 135.431 224.064C135.575 223.941 135.705 223.779 135.823 223.576C135.945 223.373 136.047 223.12 136.127 222.816L136.719 220.512ZM137.455 222.64C137.359 223.008 137.311 223.309 137.311 223.544C137.311 223.779 137.345 223.963 137.415 224.096C137.489 224.224 137.591 224.315 137.719 224.368C137.847 224.416 137.988 224.44 138.143 224.44C138.383 224.44 138.612 224.368 138.831 224.224C139.049 224.08 139.239 223.877 139.399 223.616C139.564 223.355 139.695 223.043 139.791 222.68C139.887 222.312 139.935 221.909 139.935 221.472C139.935 220.757 139.82 220.131 139.591 219.592C139.367 219.053 139.055 218.603 138.655 218.24C138.255 217.877 137.78 217.605 137.231 217.424C136.681 217.243 136.084 217.152 135.439 217.152C134.735 217.152 134.076 217.285 133.463 217.552C132.855 217.819 132.324 218.187 131.871 218.656C131.423 219.125 131.068 219.68 130.807 220.32C130.551 220.96 130.423 221.651 130.423 222.392C130.423 223.283 130.561 224.064 130.839 224.736C131.116 225.408 131.495 225.971 131.975 226.424C132.46 226.877 133.031 227.219 133.687 227.448C134.343 227.677 135.047 227.792 135.799 227.792C136.62 227.792 137.335 227.707 137.943 227.536C138.551 227.365 139.063 227.157 139.479 226.912C139.601 226.837 139.711 226.816 139.807 226.848C139.903 226.875 139.972 226.944 140.015 227.056L140.255 227.688C139.689 228.061 139.039 228.36 138.303 228.584C137.572 228.808 136.737 228.92 135.799 228.92C134.855 228.92 133.977 228.771 133.167 228.472C132.356 228.173 131.655 227.744 131.063 227.184C130.471 226.624 130.007 225.941 129.671 225.136C129.335 224.325 129.167 223.411 129.167 222.392C129.167 221.816 129.239 221.261 129.383 220.728C129.532 220.189 129.74 219.685 130.007 219.216C130.279 218.741 130.604 218.309 130.983 217.92C131.361 217.525 131.783 217.189 132.247 216.912C132.711 216.629 133.212 216.411 133.751 216.256C134.289 216.101 134.852 216.024 135.439 216.024C135.935 216.024 136.42 216.08 136.895 216.192C137.375 216.299 137.825 216.459 138.247 216.672C138.673 216.885 139.065 217.149 139.423 217.464C139.78 217.779 140.087 218.139 140.343 218.544C140.604 218.944 140.807 219.389 140.951 219.88C141.095 220.371 141.167 220.901 141.167 221.472C141.167 222.043 141.084 222.576 140.919 223.072C140.753 223.563 140.524 223.989 140.231 224.352C139.937 224.715 139.591 225 139.191 225.208C138.791 225.416 138.359 225.52 137.895 225.52C137.505 225.52 137.175 225.429 136.903 225.248C136.631 225.067 136.447 224.776 136.351 224.376C136.036 224.776 135.7 225.064 135.343 225.24C134.991 225.416 134.607 225.504 134.191 225.504C133.865 225.504 133.58 225.448 133.335 225.336C133.095 225.219 132.895 225.061 132.735 224.864C132.575 224.661 132.455 224.424 132.375 224.152C132.295 223.875 132.255 223.576 132.255 223.256C132.255 222.952 132.292 222.645 132.367 222.336C132.447 222.027 132.561 221.728 132.711 221.44C132.865 221.152 133.057 220.883 133.287 220.632C133.521 220.376 133.791 220.155 134.095 219.968C134.404 219.781 134.751 219.635 135.135 219.528C135.519 219.416 135.94 219.36 136.399 219.36C136.783 219.36 137.116 219.389 137.399 219.448C137.681 219.507 137.951 219.592 138.207 219.704L137.455 222.64ZM147.748 220.32C147.705 220.395 147.657 220.448 147.604 220.48C147.551 220.512 147.484 220.528 147.404 220.528C147.313 220.528 147.215 220.501 147.108 220.448C147.001 220.389 146.876 220.325 146.732 220.256C146.588 220.187 146.417 220.125 146.22 220.072C146.028 220.013 145.801 219.984 145.54 219.984C145.327 219.984 145.132 220.011 144.956 220.064C144.785 220.112 144.639 220.184 144.516 220.28C144.399 220.371 144.308 220.48 144.244 220.608C144.18 220.731 144.148 220.864 144.148 221.008C144.148 221.2 144.207 221.36 144.324 221.488C144.441 221.616 144.596 221.728 144.788 221.824C144.98 221.915 145.199 221.997 145.444 222.072C145.689 222.147 145.94 222.227 146.196 222.312C146.452 222.397 146.703 222.496 146.948 222.608C147.193 222.72 147.412 222.859 147.604 223.024C147.796 223.184 147.951 223.381 148.068 223.616C148.185 223.845 148.244 224.125 148.244 224.456C148.244 224.84 148.175 225.195 148.036 225.52C147.897 225.845 147.695 226.128 147.428 226.368C147.161 226.608 146.828 226.795 146.428 226.928C146.033 227.061 145.58 227.128 145.068 227.128C144.785 227.128 144.511 227.101 144.244 227.048C143.983 227 143.732 226.933 143.492 226.848C143.257 226.757 143.036 226.651 142.828 226.528C142.625 226.405 142.444 226.272 142.284 226.128L142.684 225.472C142.732 225.392 142.791 225.331 142.86 225.288C142.935 225.24 143.025 225.216 143.132 225.216C143.244 225.216 143.353 225.253 143.46 225.328C143.572 225.397 143.7 225.475 143.844 225.56C143.993 225.645 144.172 225.725 144.38 225.8C144.588 225.869 144.847 225.904 145.156 225.904C145.412 225.904 145.633 225.875 145.82 225.816C146.007 225.752 146.161 225.667 146.284 225.56C146.407 225.453 146.497 225.333 146.556 225.2C146.615 225.061 146.644 224.915 146.644 224.76C146.644 224.552 146.585 224.381 146.468 224.248C146.351 224.115 146.193 224 145.996 223.904C145.804 223.808 145.583 223.723 145.332 223.648C145.087 223.573 144.836 223.493 144.58 223.408C144.324 223.323 144.071 223.224 143.82 223.112C143.575 223 143.353 222.859 143.156 222.688C142.964 222.512 142.809 222.301 142.692 222.056C142.575 221.805 142.516 221.501 142.516 221.144C142.516 220.819 142.58 220.509 142.708 220.216C142.841 219.923 143.033 219.664 143.284 219.44C143.54 219.216 143.852 219.04 144.22 218.912C144.593 218.779 145.023 218.712 145.508 218.712C146.057 218.712 146.556 218.8 147.004 218.976C147.452 219.152 147.828 219.392 148.132 219.696L147.748 220.32ZM151.581 219.808C151.917 219.477 152.285 219.213 152.685 219.016C153.085 218.813 153.551 218.712 154.085 218.712C154.533 218.712 154.925 218.787 155.261 218.936C155.602 219.085 155.887 219.296 156.117 219.568C156.351 219.84 156.527 220.168 156.645 220.552C156.762 220.931 156.821 221.349 156.821 221.808V227H155.109V221.808C155.109 221.259 154.981 220.832 154.725 220.528C154.474 220.224 154.09 220.072 153.573 220.072C153.189 220.072 152.831 220.16 152.501 220.336C152.175 220.512 151.869 220.752 151.581 221.056V227H149.861V215.16H151.581V219.808ZM162.357 218.712C162.96 218.712 163.504 218.811 163.989 219.008C164.48 219.205 164.896 219.485 165.237 219.848C165.584 220.211 165.851 220.651 166.037 221.168C166.224 221.685 166.317 222.267 166.317 222.912C166.317 223.557 166.224 224.139 166.037 224.656C165.851 225.173 165.584 225.616 165.237 225.984C164.896 226.347 164.48 226.627 163.989 226.824C163.504 227.021 162.96 227.12 162.357 227.12C161.749 227.12 161.2 227.021 160.709 226.824C160.224 226.627 159.808 226.347 159.461 225.984C159.115 225.616 158.848 225.173 158.661 224.656C158.475 224.139 158.381 223.557 158.381 222.912C158.381 222.267 158.475 221.685 158.661 221.168C158.848 220.651 159.115 220.211 159.461 219.848C159.808 219.485 160.224 219.205 160.709 219.008C161.2 218.811 161.749 218.712 162.357 218.712ZM162.357 225.776C163.093 225.776 163.64 225.531 163.997 225.04C164.36 224.544 164.541 223.837 164.541 222.92C164.541 222.003 164.36 221.296 163.997 220.8C163.64 220.299 163.093 220.048 162.357 220.048C161.611 220.048 161.056 220.299 160.693 220.8C160.331 221.296 160.149 222.003 160.149 222.92C160.149 223.837 160.331 224.544 160.693 225.04C161.056 225.531 161.611 225.776 162.357 225.776ZM169.69 224.952C169.93 225.261 170.191 225.48 170.474 225.608C170.762 225.731 171.079 225.792 171.426 225.792C172.098 225.792 172.621 225.547 172.994 225.056C173.373 224.565 173.562 223.835 173.562 222.864C173.562 222.363 173.519 221.936 173.434 221.584C173.349 221.227 173.226 220.936 173.066 220.712C172.906 220.488 172.711 220.325 172.482 220.224C172.253 220.123 171.994 220.072 171.706 220.072C171.269 220.072 170.89 220.168 170.57 220.36C170.255 220.547 169.962 220.816 169.69 221.168V224.952ZM169.602 220.024C169.943 219.624 170.33 219.301 170.762 219.056C171.199 218.811 171.706 218.688 172.282 218.688C172.741 218.688 173.157 218.781 173.53 218.968C173.903 219.149 174.223 219.416 174.49 219.768C174.757 220.12 174.962 220.557 175.106 221.08C175.255 221.597 175.33 222.192 175.33 222.864C175.33 223.467 175.247 224.029 175.082 224.552C174.922 225.069 174.69 225.52 174.386 225.904C174.082 226.283 173.714 226.581 173.282 226.8C172.85 227.013 172.362 227.12 171.818 227.12C171.338 227.12 170.93 227.043 170.594 226.888C170.263 226.733 169.962 226.52 169.69 226.248V229.712H167.97V218.84H169.01C169.245 218.84 169.394 218.949 169.458 219.168L169.602 220.024ZM178.793 218.84V227H177.073V218.84H178.793ZM179.081 216.376C179.081 216.531 179.049 216.677 178.985 216.816C178.926 216.955 178.844 217.077 178.737 217.184C178.63 217.285 178.505 217.368 178.361 217.432C178.222 217.491 178.073 217.52 177.913 217.52C177.758 217.52 177.612 217.491 177.473 217.432C177.34 217.368 177.222 217.285 177.121 217.184C177.02 217.077 176.937 216.955 176.873 216.816C176.814 216.677 176.785 216.531 176.785 216.376C176.785 216.216 176.814 216.067 176.873 215.928C176.937 215.789 177.02 215.669 177.121 215.568C177.222 215.461 177.34 215.379 177.473 215.32C177.612 215.256 177.758 215.224 177.913 215.224C178.073 215.224 178.222 215.256 178.361 215.32C178.505 215.379 178.63 215.461 178.737 215.568C178.844 215.669 178.926 215.789 178.985 215.928C179.049 216.067 179.081 216.216 179.081 216.376ZM181.506 227V220.208L180.706 220.096C180.573 220.069 180.464 220.021 180.378 219.952C180.298 219.883 180.258 219.784 180.258 219.656V218.952H181.506V218.264C181.506 217.8 181.573 217.384 181.706 217.016C181.845 216.648 182.04 216.336 182.29 216.08C182.546 215.824 182.856 215.629 183.218 215.496C183.581 215.357 183.989 215.288 184.442 215.288C184.629 215.288 184.805 215.301 184.97 215.328C185.141 215.355 185.306 215.395 185.466 215.448L185.434 216.312C185.424 216.456 185.352 216.541 185.218 216.568C185.09 216.595 184.928 216.608 184.73 216.608C184.49 216.608 184.274 216.637 184.082 216.696C183.89 216.749 183.725 216.843 183.586 216.976C183.453 217.109 183.349 217.285 183.274 217.504C183.205 217.723 183.17 217.995 183.17 218.32V218.952H185.402V220.192H183.226V227H181.506ZM193.866 218.84L189.37 229.32C189.311 229.443 189.239 229.539 189.154 229.608C189.074 229.677 188.949 229.712 188.778 229.712H187.506L189.01 226.448L185.682 218.84H187.178C187.322 218.84 187.431 218.875 187.506 218.944C187.586 219.008 187.645 219.085 187.682 219.176L189.626 223.808C189.674 223.941 189.717 224.075 189.754 224.208C189.797 224.336 189.837 224.469 189.874 224.608C189.917 224.469 189.959 224.333 190.002 224.2C190.045 224.067 190.093 223.933 190.146 223.8L192.01 219.176C192.047 219.08 192.109 219 192.194 218.936C192.285 218.872 192.383 218.84 192.49 218.84H193.866ZM194.143 226.008C194.143 225.853 194.17 225.709 194.223 225.576C194.282 225.437 194.359 225.317 194.455 225.216C194.557 225.115 194.674 225.035 194.807 224.976C194.946 224.917 195.093 224.888 195.247 224.888C195.402 224.888 195.546 224.917 195.679 224.976C195.818 225.035 195.938 225.115 196.039 225.216C196.141 225.317 196.221 225.437 196.279 225.576C196.338 225.709 196.367 225.853 196.367 226.008C196.367 226.168 196.338 226.315 196.279 226.448C196.221 226.581 196.141 226.699 196.039 226.8C195.938 226.901 195.818 226.979 195.679 227.032C195.546 227.091 195.402 227.12 195.247 227.12C195.093 227.12 194.946 227.091 194.807 227.032C194.674 226.979 194.557 226.901 194.455 226.8C194.359 226.699 194.282 226.581 194.223 226.448C194.17 226.315 194.143 226.168 194.143 226.008ZM203.957 220.44C203.903 220.509 203.853 220.563 203.805 220.6C203.757 220.637 203.687 220.656 203.597 220.656C203.506 220.656 203.41 220.624 203.309 220.56C203.213 220.496 203.095 220.427 202.957 220.352C202.823 220.272 202.661 220.2 202.469 220.136C202.277 220.072 202.037 220.04 201.749 220.04C201.375 220.04 201.047 220.107 200.765 220.24C200.487 220.373 200.253 220.565 200.061 220.816C199.874 221.061 199.733 221.363 199.637 221.72C199.546 222.072 199.501 222.469 199.501 222.912C199.501 223.371 199.551 223.779 199.653 224.136C199.754 224.493 199.898 224.795 200.085 225.04C200.277 225.285 200.506 225.472 200.773 225.6C201.045 225.728 201.349 225.792 201.685 225.792C202.015 225.792 202.285 225.752 202.493 225.672C202.701 225.592 202.874 225.504 203.013 225.408C203.151 225.312 203.269 225.224 203.365 225.144C203.466 225.064 203.573 225.024 203.685 225.024C203.823 225.024 203.93 225.077 204.005 225.184L204.493 225.816C204.295 226.056 204.077 226.259 203.837 226.424C203.597 226.589 203.343 226.725 203.077 226.832C202.81 226.933 202.533 227.005 202.245 227.048C201.957 227.096 201.666 227.12 201.373 227.12C200.866 227.12 200.391 227.027 199.949 226.84C199.511 226.648 199.127 226.373 198.797 226.016C198.471 225.653 198.213 225.213 198.021 224.696C197.834 224.173 197.741 223.579 197.741 222.912C197.741 222.309 197.826 221.752 197.997 221.24C198.167 220.723 198.415 220.277 198.741 219.904C199.071 219.531 199.479 219.24 199.965 219.032C200.45 218.819 201.01 218.712 201.645 218.712C202.237 218.712 202.757 218.808 203.205 219C203.658 219.192 204.061 219.464 204.413 219.816L203.957 220.44ZM209.264 218.712C209.866 218.712 210.41 218.811 210.896 219.008C211.386 219.205 211.802 219.485 212.144 219.848C212.49 220.211 212.757 220.651 212.944 221.168C213.13 221.685 213.224 222.267 213.224 222.912C213.224 223.557 213.13 224.139 212.944 224.656C212.757 225.173 212.49 225.616 212.144 225.984C211.802 226.347 211.386 226.627 210.896 226.824C210.41 227.021 209.866 227.12 209.264 227.12C208.656 227.12 208.106 227.021 207.616 226.824C207.13 226.627 206.714 226.347 206.368 225.984C206.021 225.616 205.754 225.173 205.568 224.656C205.381 224.139 205.288 223.557 205.288 222.912C205.288 222.267 205.381 221.685 205.568 221.168C205.754 220.651 206.021 220.211 206.368 219.848C206.714 219.485 207.13 219.205 207.616 219.008C208.106 218.811 208.656 218.712 209.264 218.712ZM209.264 225.776C210 225.776 210.546 225.531 210.904 225.04C211.266 224.544 211.448 223.837 211.448 222.92C211.448 222.003 211.266 221.296 210.904 220.8C210.546 220.299 210 220.048 209.264 220.048C208.517 220.048 207.962 220.299 207.6 220.8C207.237 221.296 207.056 222.003 207.056 222.92C207.056 223.837 207.237 224.544 207.6 225.04C207.962 225.531 208.517 225.776 209.264 225.776ZM214.876 227V218.84H215.916C216.151 218.84 216.3 218.949 216.364 219.168L216.476 219.88C216.625 219.709 216.78 219.555 216.94 219.416C217.1 219.272 217.271 219.149 217.452 219.048C217.639 218.941 217.836 218.859 218.044 218.8C218.257 218.741 218.487 218.712 218.732 218.712C218.993 218.712 219.233 218.749 219.452 218.824C219.671 218.899 219.863 219.005 220.028 219.144C220.199 219.283 220.345 219.451 220.468 219.648C220.591 219.845 220.692 220.067 220.772 220.312C220.895 220.029 221.049 219.787 221.236 219.584C221.423 219.381 221.631 219.216 221.86 219.088C222.089 218.96 222.332 218.867 222.588 218.808C222.849 218.744 223.113 218.712 223.38 218.712C223.817 218.712 224.207 218.781 224.548 218.92C224.895 219.059 225.185 219.261 225.42 219.528C225.66 219.789 225.841 220.112 225.964 220.496C226.087 220.88 226.148 221.317 226.148 221.808V227H224.428V221.808C224.428 221.232 224.303 220.8 224.052 220.512C223.807 220.219 223.441 220.072 222.956 220.072C222.737 220.072 222.532 220.109 222.34 220.184C222.148 220.259 221.98 220.368 221.836 220.512C221.692 220.656 221.577 220.837 221.492 221.056C221.412 221.269 221.372 221.52 221.372 221.808V227H219.652V221.808C219.652 221.211 219.532 220.773 219.292 220.496C219.052 220.213 218.7 220.072 218.236 220.072C217.916 220.072 217.62 220.155 217.348 220.32C217.076 220.48 216.825 220.701 216.596 220.984V227H214.876Z" fill="#1B1B1B"/>
<rect x="0.5" y="199.5" width="357" height="42" rx="3.5" stroke="#F0F0F0"/>
</g>
<defs>
<clipPath id="clip0_1240_15351">
<rect width="358" height="70" fill="white"/>
</clipPath>
<clipPath id="clip1_1240_15351">
<rect width="358" height="70" fill="white" transform="translate(0 86)"/>
</clipPath>
<clipPath id="clip2_1240_15351">
<rect width="358" height="70" fill="white" transform="translate(0 172)"/>
</clipPath>
</defs>
</svg>
