<svg width="362" height="163" viewBox="0 0 362 163" fill="none" xmlns="http://www.w3.org/2000/svg">
<rect x="2" width="357" height="43" rx="6" fill="#DEADAD"/>
<path d="M166.399 25.432C166.501 25.432 166.589 25.472 166.663 25.552L167.407 26.36C166.938 26.9253 166.362 27.3627 165.679 27.672C164.997 27.976 164.181 28.128 163.231 28.128C162.389 28.128 161.626 27.984 160.943 27.696C160.266 27.4027 159.687 26.9973 159.207 26.48C158.727 25.9573 158.357 25.336 158.095 24.616C157.839 23.896 157.711 23.104 157.711 22.24C157.711 21.376 157.847 20.584 158.119 19.864C158.397 19.1387 158.783 18.5173 159.279 18C159.781 17.4773 160.378 17.072 161.071 16.784C161.77 16.496 162.538 16.352 163.375 16.352C164.207 16.352 164.941 16.488 165.575 16.76C166.215 17.0267 166.77 17.384 167.239 17.832L166.623 18.704C166.581 18.7627 166.53 18.8133 166.471 18.856C166.413 18.8987 166.333 18.92 166.231 18.92C166.125 18.92 166.002 18.872 165.863 18.776C165.73 18.6747 165.557 18.5653 165.343 18.448C165.135 18.3253 164.871 18.216 164.551 18.12C164.237 18.0187 163.842 17.968 163.367 17.968C162.818 17.968 162.314 18.064 161.855 18.256C161.397 18.448 161.002 18.728 160.671 19.096C160.341 19.464 160.082 19.912 159.895 20.44C159.714 20.968 159.623 21.568 159.623 22.24C159.623 22.9173 159.719 23.5227 159.911 24.056C160.103 24.584 160.367 25.032 160.703 25.4C161.039 25.7627 161.434 26.04 161.887 26.232C162.341 26.424 162.829 26.52 163.351 26.52C163.671 26.52 163.957 26.504 164.207 26.472C164.463 26.4347 164.698 26.3787 164.911 26.304C165.125 26.224 165.325 26.1253 165.511 26.008C165.703 25.8907 165.893 25.7467 166.079 25.576C166.186 25.48 166.293 25.432 166.399 25.432ZM170.297 21.352C170.553 20.8347 170.862 20.4293 171.225 20.136C171.588 19.8373 172.022 19.688 172.529 19.688C172.705 19.688 172.87 19.7093 173.025 19.752C173.18 19.7893 173.318 19.848 173.441 19.928L173.321 21.224C173.3 21.3147 173.265 21.3787 173.217 21.416C173.174 21.448 173.116 21.464 173.041 21.464C172.961 21.464 172.846 21.4507 172.697 21.424C172.548 21.392 172.39 21.376 172.225 21.376C171.985 21.376 171.772 21.4107 171.585 21.48C171.404 21.5493 171.238 21.6507 171.089 21.784C170.945 21.9173 170.817 22.08 170.705 22.272C170.593 22.464 170.489 22.6827 170.393 22.928V28H168.673V19.84H169.673C169.854 19.84 169.98 19.8747 170.049 19.944C170.118 20.008 170.166 20.1227 170.193 20.288L170.297 21.352ZM179.65 23C179.65 22.712 179.607 22.4453 179.522 22.2C179.442 21.9493 179.322 21.7333 179.162 21.552C179.002 21.3653 178.802 21.2213 178.562 21.12C178.327 21.0133 178.055 20.96 177.746 20.96C177.122 20.96 176.631 21.1387 176.274 21.496C175.917 21.8533 175.69 22.3547 175.594 23H179.65ZM175.546 24.056C175.567 24.52 175.639 24.9227 175.762 25.264C175.885 25.6 176.047 25.88 176.25 26.104C176.458 26.328 176.703 26.496 176.986 26.608C177.274 26.7147 177.594 26.768 177.946 26.768C178.282 26.768 178.573 26.7307 178.818 26.656C179.063 26.576 179.277 26.4907 179.458 26.4C179.639 26.304 179.794 26.2187 179.922 26.144C180.05 26.064 180.167 26.024 180.274 26.024C180.413 26.024 180.519 26.0773 180.594 26.184L181.082 26.816C180.879 27.056 180.65 27.2587 180.394 27.424C180.138 27.5893 179.866 27.7253 179.578 27.832C179.29 27.9333 178.994 28.0053 178.69 28.048C178.386 28.096 178.09 28.12 177.802 28.12C177.237 28.12 176.711 28.0267 176.226 27.84C175.746 27.648 175.327 27.368 174.97 27C174.618 26.632 174.341 26.176 174.138 25.632C173.941 25.088 173.842 24.4613 173.842 23.752C173.842 23.1867 173.93 22.6587 174.106 22.168C174.287 21.6773 174.543 21.2507 174.874 20.888C175.21 20.5253 175.615 20.24 176.09 20.032C176.57 19.8187 177.111 19.712 177.714 19.712C178.215 19.712 178.679 19.7947 179.106 19.96C179.533 20.12 179.901 20.3573 180.21 20.672C180.519 20.9867 180.759 21.3733 180.93 21.832C181.106 22.2853 181.194 22.8027 181.194 23.384C181.194 23.6507 181.165 23.8293 181.106 23.92C181.047 24.0107 180.941 24.056 180.786 24.056H175.546ZM187.158 24.432C186.545 24.4533 186.027 24.504 185.606 24.584C185.185 24.6587 184.843 24.7573 184.582 24.88C184.321 24.9973 184.131 25.1387 184.014 25.304C183.902 25.4693 183.846 25.6507 183.846 25.848C183.846 26.04 183.875 26.2053 183.934 26.344C183.998 26.4773 184.083 26.5893 184.19 26.68C184.302 26.7653 184.43 26.8293 184.574 26.872C184.723 26.9093 184.886 26.928 185.062 26.928C185.51 26.928 185.894 26.8453 186.214 26.68C186.539 26.5093 186.854 26.264 187.158 25.944V24.432ZM182.598 20.976C183.521 20.1173 184.619 19.688 185.894 19.688C186.363 19.688 186.779 19.7653 187.142 19.92C187.51 20.0693 187.817 20.2827 188.062 20.56C188.313 20.8373 188.502 21.168 188.63 21.552C188.763 21.9307 188.83 22.352 188.83 22.816V28H188.062C187.897 28 187.771 27.976 187.686 27.928C187.601 27.8747 187.529 27.7707 187.47 27.616L187.302 26.952C187.094 27.1387 186.889 27.3067 186.686 27.456C186.483 27.6 186.273 27.7227 186.054 27.824C185.841 27.9253 185.609 28 185.358 28.048C185.113 28.1013 184.841 28.128 184.542 28.128C184.211 28.128 183.902 28.0827 183.614 27.992C183.331 27.9013 183.086 27.7653 182.878 27.584C182.67 27.3973 182.505 27.168 182.382 26.896C182.265 26.624 182.206 26.304 182.206 25.936C182.206 25.6213 182.289 25.3147 182.454 25.016C182.625 24.7173 182.902 24.4507 183.286 24.216C183.675 23.976 184.185 23.7787 184.814 23.624C185.449 23.4693 186.23 23.3813 187.158 23.36V22.816C187.158 22.2293 187.033 21.792 186.782 21.504C186.531 21.216 186.163 21.072 185.678 21.072C185.347 21.072 185.07 21.1147 184.846 21.2C184.622 21.28 184.427 21.368 184.262 21.464C184.097 21.56 183.95 21.6507 183.822 21.736C183.694 21.816 183.558 21.856 183.414 21.856C183.297 21.856 183.195 21.8267 183.11 21.768C183.03 21.704 182.963 21.6267 182.91 21.536L182.598 20.976ZM193.352 28.128C192.674 28.128 192.152 27.9387 191.784 27.56C191.421 27.176 191.24 26.6373 191.24 25.944V21.192H190.344C190.248 21.192 190.165 21.1627 190.096 21.104C190.026 21.04 189.992 20.9467 189.992 20.824V20.128L191.312 19.936L191.688 17.576C191.714 17.4853 191.76 17.4133 191.824 17.36C191.888 17.3013 191.973 17.272 192.08 17.272H192.96V19.952H195.224V21.192H192.96V25.824C192.96 26.1173 193.032 26.3413 193.176 26.496C193.32 26.6507 193.512 26.728 193.752 26.728C193.885 26.728 194 26.712 194.095 26.68C194.192 26.6427 194.274 26.6053 194.344 26.568C194.413 26.5253 194.472 26.488 194.52 26.456C194.573 26.4187 194.624 26.4 194.672 26.4C194.768 26.4 194.845 26.4533 194.904 26.56L195.416 27.4C195.149 27.6347 194.834 27.816 194.472 27.944C194.109 28.0667 193.736 28.128 193.352 28.128ZM201.869 23C201.869 22.712 201.826 22.4453 201.741 22.2C201.661 21.9493 201.541 21.7333 201.381 21.552C201.221 21.3653 201.021 21.2213 200.781 21.12C200.546 21.0133 200.274 20.96 199.965 20.96C199.341 20.96 198.85 21.1387 198.493 21.496C198.135 21.8533 197.909 22.3547 197.813 23H201.869ZM197.765 24.056C197.786 24.52 197.858 24.9227 197.981 25.264C198.103 25.6 198.266 25.88 198.469 26.104C198.677 26.328 198.922 26.496 199.205 26.608C199.493 26.7147 199.813 26.768 200.165 26.768C200.501 26.768 200.791 26.7307 201.037 26.656C201.282 26.576 201.495 26.4907 201.677 26.4C201.858 26.304 202.013 26.2187 202.141 26.144C202.269 26.064 202.386 26.024 202.493 26.024C202.631 26.024 202.738 26.0773 202.813 26.184L203.301 26.816C203.098 27.056 202.869 27.2587 202.613 27.424C202.357 27.5893 202.085 27.7253 201.797 27.832C201.509 27.9333 201.213 28.0053 200.909 28.048C200.605 28.096 200.309 28.12 200.021 28.12C199.455 28.12 198.93 28.0267 198.445 27.84C197.965 27.648 197.546 27.368 197.189 27C196.837 26.632 196.559 26.176 196.357 25.632C196.159 25.088 196.061 24.4613 196.061 23.752C196.061 23.1867 196.149 22.6587 196.325 22.168C196.506 21.6773 196.762 21.2507 197.093 20.888C197.429 20.5253 197.834 20.24 198.309 20.032C198.789 19.8187 199.33 19.712 199.933 19.712C200.434 19.712 200.898 19.7947 201.325 19.96C201.751 20.12 202.119 20.3573 202.429 20.672C202.738 20.9867 202.978 21.3733 203.149 21.832C203.325 22.2853 203.413 22.8027 203.413 23.384C203.413 23.6507 203.383 23.8293 203.325 23.92C203.266 24.0107 203.159 24.056 203.005 24.056H197.765Z" fill="#1B1B1B"/>
<rect x="2" y="59" width="358" height="43" rx="6" fill="#CFE8FF"/>
<path d="M167.688 85.432V87H161.032V75.48H162.904V85.432H167.688ZM172.006 78.712C172.608 78.712 173.152 78.8107 173.638 79.008C174.128 79.2053 174.544 79.4853 174.886 79.848C175.232 80.2107 175.499 80.6507 175.686 81.168C175.872 81.6853 175.966 82.2667 175.966 82.912C175.966 83.5573 175.872 84.1387 175.686 84.656C175.499 85.1733 175.232 85.616 174.886 85.984C174.544 86.3467 174.128 86.6267 173.638 86.824C173.152 87.0213 172.608 87.12 172.006 87.12C171.398 87.12 170.848 87.0213 170.358 86.824C169.872 86.6267 169.456 86.3467 169.11 85.984C168.763 85.616 168.496 85.1733 168.31 84.656C168.123 84.1387 168.03 83.5573 168.03 82.912C168.03 82.2667 168.123 81.6853 168.31 81.168C168.496 80.6507 168.763 80.2107 169.11 79.848C169.456 79.4853 169.872 79.2053 170.358 79.008C170.848 78.8107 171.398 78.712 172.006 78.712ZM172.006 85.776C172.742 85.776 173.288 85.5307 173.646 85.04C174.008 84.544 174.19 83.8373 174.19 82.92C174.19 82.0027 174.008 81.296 173.646 80.8C173.288 80.2987 172.742 80.048 172.006 80.048C171.259 80.048 170.704 80.2987 170.342 80.8C169.979 81.296 169.798 82.0027 169.798 82.92C169.798 83.8373 169.979 84.544 170.342 85.04C170.704 85.5307 171.259 85.776 172.006 85.776ZM180.468 82.848C181.001 82.848 181.401 82.712 181.668 82.44C181.934 82.168 182.068 81.8133 182.068 81.376C182.068 80.928 181.934 80.5733 181.668 80.312C181.401 80.0507 181.001 79.92 180.468 79.92C179.94 79.92 179.54 80.0507 179.268 80.312C179.001 80.5733 178.868 80.928 178.868 81.376C178.868 81.5893 178.902 81.7867 178.972 81.968C179.041 82.1493 179.142 82.3067 179.276 82.44C179.409 82.568 179.574 82.6693 179.772 82.744C179.974 82.8133 180.206 82.848 180.468 82.848ZM182.86 87.4C182.86 87.2187 182.806 87.0747 182.7 86.968C182.598 86.856 182.46 86.7707 182.284 86.712C182.108 86.648 181.902 86.6027 181.668 86.576C181.433 86.544 181.182 86.5227 180.916 86.512C180.654 86.496 180.385 86.4827 180.108 86.472C179.836 86.456 179.572 86.4293 179.316 86.392C179.06 86.5253 178.849 86.6853 178.684 86.872C178.524 87.0587 178.444 87.2747 178.444 87.52C178.444 87.68 178.484 87.8293 178.564 87.968C178.649 88.1067 178.777 88.2267 178.948 88.328C179.124 88.4293 179.345 88.5093 179.612 88.568C179.884 88.6267 180.209 88.656 180.588 88.656C181.345 88.656 181.913 88.5387 182.292 88.304C182.67 88.0693 182.86 87.768 182.86 87.4ZM184.588 79.136V79.776C184.588 79.9893 184.46 80.12 184.204 80.168L183.388 80.304C183.526 80.6133 183.596 80.9573 183.596 81.336C183.596 81.736 183.516 82.0987 183.356 82.424C183.201 82.7493 182.985 83.0267 182.708 83.256C182.43 83.4853 182.1 83.6613 181.716 83.784C181.332 83.9067 180.916 83.968 180.468 83.968C180.297 83.968 180.129 83.96 179.964 83.944C179.804 83.9227 179.646 83.896 179.492 83.864C179.337 83.9547 179.222 84.0507 179.148 84.152C179.073 84.2533 179.036 84.3573 179.036 84.464C179.036 84.64 179.113 84.7707 179.268 84.856C179.422 84.9413 179.625 85.0027 179.876 85.04C180.132 85.0773 180.422 85.1013 180.748 85.112C181.073 85.1227 181.404 85.1413 181.74 85.168C182.076 85.1947 182.406 85.24 182.732 85.304C183.057 85.3627 183.345 85.464 183.596 85.608C183.852 85.7467 184.057 85.936 184.212 86.176C184.366 86.416 184.444 86.728 184.444 87.112C184.444 87.464 184.356 87.808 184.18 88.144C184.004 88.48 183.748 88.7787 183.412 89.04C183.081 89.3013 182.676 89.5093 182.196 89.664C181.716 89.824 181.169 89.904 180.556 89.904C179.948 89.904 179.417 89.8453 178.964 89.728C178.516 89.6107 178.14 89.4507 177.836 89.248C177.537 89.0507 177.313 88.8213 177.164 88.56C177.02 88.2987 176.948 88.0267 176.948 87.744C176.948 87.36 177.068 87.032 177.308 86.76C177.553 86.488 177.884 86.2747 178.3 86.12C178.076 86.0133 177.894 85.8667 177.756 85.68C177.622 85.4933 177.556 85.248 177.556 84.944C177.556 84.704 177.644 84.4533 177.82 84.192C177.996 83.9307 178.26 83.7093 178.612 83.528C178.206 83.304 177.886 83.008 177.652 82.64C177.417 82.2667 177.3 81.832 177.3 81.336C177.3 80.9307 177.377 80.5653 177.532 80.24C177.692 79.9147 177.913 79.6373 178.196 79.408C178.478 79.1787 178.812 79.0027 179.196 78.88C179.585 78.7573 180.009 78.696 180.468 78.696C181.172 78.696 181.785 78.8427 182.308 79.136H184.588ZM192.131 87H190.251V75.48H192.131V87ZM196.023 79.92C196.199 79.7387 196.381 79.576 196.567 79.432C196.759 79.2827 196.962 79.1547 197.175 79.048C197.389 78.9413 197.615 78.8587 197.855 78.8C198.095 78.7413 198.357 78.712 198.639 78.712C199.087 78.712 199.479 78.7867 199.815 78.936C200.157 79.0853 200.442 79.296 200.671 79.568C200.906 79.84 201.082 80.168 201.199 80.552C201.317 80.9307 201.375 81.3493 201.375 81.808V87H199.663V81.808C199.663 81.2587 199.535 80.832 199.279 80.528C199.029 80.224 198.645 80.072 198.127 80.072C197.743 80.072 197.386 80.16 197.055 80.336C196.73 80.512 196.423 80.752 196.135 81.056V87H194.415V78.84H195.455C195.69 78.84 195.839 78.9493 195.903 79.168L196.023 79.92Z" fill="#1B1B1B"/>
<rect x="1.25" y="117.25" width="359.5" height="44.5" rx="6.75" fill="#2868A3"/>
<path d="M161.103 136.448C161.044 136.544 160.983 136.616 160.919 136.664C160.855 136.707 160.775 136.728 160.679 136.728C160.578 136.728 160.463 136.685 160.335 136.6C160.212 136.515 160.058 136.421 159.871 136.32C159.69 136.213 159.474 136.117 159.223 136.032C158.972 135.941 158.674 135.896 158.327 135.896C158.007 135.896 157.724 135.936 157.479 136.016C157.239 136.096 157.036 136.208 156.871 136.352C156.706 136.496 156.58 136.667 156.495 136.864C156.415 137.056 156.375 137.267 156.375 137.496C156.375 137.789 156.452 138.035 156.607 138.232C156.762 138.424 156.964 138.589 157.215 138.728C157.471 138.867 157.762 138.989 158.087 139.096C158.412 139.197 158.743 139.307 159.079 139.424C159.42 139.541 159.754 139.675 160.079 139.824C160.404 139.973 160.692 140.163 160.943 140.392C161.199 140.621 161.404 140.901 161.559 141.232C161.714 141.563 161.791 141.965 161.791 142.44C161.791 142.952 161.703 143.432 161.527 143.88C161.351 144.328 161.095 144.72 160.759 145.056C160.428 145.387 160.018 145.648 159.527 145.84C159.042 146.032 158.487 146.128 157.863 146.128C157.495 146.128 157.135 146.091 156.783 146.016C156.436 145.947 156.103 145.848 155.783 145.72C155.468 145.587 155.172 145.427 154.895 145.24C154.618 145.053 154.37 144.845 154.151 144.616L154.695 143.72C154.743 143.645 154.804 143.587 154.879 143.544C154.954 143.501 155.036 143.48 155.127 143.48C155.25 143.48 155.386 143.539 155.535 143.656C155.684 143.768 155.863 143.893 156.071 144.032C156.284 144.165 156.54 144.291 156.839 144.408C157.138 144.52 157.495 144.576 157.911 144.576C158.588 144.576 159.111 144.411 159.479 144.08C159.852 143.749 160.039 143.293 160.039 142.712C160.039 142.387 159.962 142.123 159.807 141.92C159.652 141.712 159.447 141.539 159.191 141.4C158.94 141.261 158.652 141.144 158.327 141.048C158.002 140.952 157.671 140.851 157.335 140.744C156.999 140.632 156.668 140.504 156.343 140.36C156.018 140.211 155.727 140.019 155.471 139.784C155.22 139.544 155.018 139.251 154.863 138.904C154.708 138.552 154.631 138.115 154.631 137.592C154.631 137.176 154.711 136.773 154.871 136.384C155.036 135.995 155.274 135.651 155.583 135.352C155.898 135.048 156.284 134.805 156.743 134.624C157.202 134.443 157.724 134.352 158.311 134.352C158.972 134.352 159.578 134.456 160.127 134.664C160.682 134.872 161.159 135.168 161.559 135.552L161.103 136.448ZM165.223 137.84V146H163.503V137.84H165.223ZM165.511 135.376C165.511 135.531 165.479 135.677 165.415 135.816C165.356 135.955 165.273 136.077 165.167 136.184C165.06 136.285 164.935 136.368 164.791 136.432C164.652 136.491 164.503 136.52 164.343 136.52C164.188 136.52 164.041 136.491 163.903 136.432C163.769 136.368 163.652 136.285 163.551 136.184C163.449 136.077 163.367 135.955 163.303 135.816C163.244 135.677 163.215 135.531 163.215 135.376C163.215 135.216 163.244 135.067 163.303 134.928C163.367 134.789 163.449 134.669 163.551 134.568C163.652 134.461 163.769 134.379 163.903 134.32C164.041 134.256 164.188 134.224 164.343 134.224C164.503 134.224 164.652 134.256 164.791 134.32C164.935 134.379 165.06 134.461 165.167 134.568C165.273 134.669 165.356 134.789 165.415 134.928C165.479 135.067 165.511 135.216 165.511 135.376ZM170.296 141.848C170.829 141.848 171.229 141.712 171.496 141.44C171.763 141.168 171.896 140.813 171.896 140.376C171.896 139.928 171.763 139.573 171.496 139.312C171.229 139.051 170.829 138.92 170.296 138.92C169.768 138.92 169.368 139.051 169.096 139.312C168.829 139.573 168.696 139.928 168.696 140.376C168.696 140.589 168.731 140.787 168.8 140.968C168.869 141.149 168.971 141.307 169.104 141.44C169.237 141.568 169.403 141.669 169.6 141.744C169.803 141.813 170.035 141.848 170.296 141.848ZM172.688 146.4C172.688 146.219 172.635 146.075 172.528 145.968C172.427 145.856 172.288 145.771 172.112 145.712C171.936 145.648 171.731 145.603 171.496 145.576C171.261 145.544 171.011 145.523 170.744 145.512C170.483 145.496 170.213 145.483 169.936 145.472C169.664 145.456 169.4 145.429 169.144 145.392C168.888 145.525 168.677 145.685 168.512 145.872C168.352 146.059 168.272 146.275 168.272 146.52C168.272 146.68 168.312 146.829 168.392 146.968C168.477 147.107 168.605 147.227 168.776 147.328C168.952 147.429 169.173 147.509 169.44 147.568C169.712 147.627 170.037 147.656 170.416 147.656C171.173 147.656 171.741 147.539 172.12 147.304C172.499 147.069 172.688 146.768 172.688 146.4ZM174.416 138.136V138.776C174.416 138.989 174.288 139.12 174.032 139.168L173.216 139.304C173.355 139.613 173.424 139.957 173.424 140.336C173.424 140.736 173.344 141.099 173.184 141.424C173.029 141.749 172.813 142.027 172.536 142.256C172.259 142.485 171.928 142.661 171.544 142.784C171.16 142.907 170.744 142.968 170.296 142.968C170.125 142.968 169.957 142.96 169.792 142.944C169.632 142.923 169.475 142.896 169.32 142.864C169.165 142.955 169.051 143.051 168.976 143.152C168.901 143.253 168.864 143.357 168.864 143.464C168.864 143.64 168.941 143.771 169.096 143.856C169.251 143.941 169.453 144.003 169.704 144.04C169.96 144.077 170.251 144.101 170.576 144.112C170.901 144.123 171.232 144.141 171.568 144.168C171.904 144.195 172.235 144.24 172.56 144.304C172.885 144.363 173.173 144.464 173.424 144.608C173.68 144.747 173.885 144.936 174.04 145.176C174.195 145.416 174.272 145.728 174.272 146.112C174.272 146.464 174.184 146.808 174.008 147.144C173.832 147.48 173.576 147.779 173.24 148.04C172.909 148.301 172.504 148.509 172.024 148.664C171.544 148.824 170.997 148.904 170.384 148.904C169.776 148.904 169.245 148.845 168.792 148.728C168.344 148.611 167.968 148.451 167.664 148.248C167.365 148.051 167.141 147.821 166.992 147.56C166.848 147.299 166.776 147.027 166.776 146.744C166.776 146.36 166.896 146.032 167.136 145.76C167.381 145.488 167.712 145.275 168.128 145.12C167.904 145.013 167.723 144.867 167.584 144.68C167.451 144.493 167.384 144.248 167.384 143.944C167.384 143.704 167.472 143.453 167.648 143.192C167.824 142.931 168.088 142.709 168.44 142.528C168.035 142.304 167.715 142.008 167.48 141.64C167.245 141.267 167.128 140.832 167.128 140.336C167.128 139.931 167.205 139.565 167.36 139.24C167.52 138.915 167.741 138.637 168.024 138.408C168.307 138.179 168.64 138.003 169.024 137.88C169.413 137.757 169.837 137.696 170.296 137.696C171 137.696 171.613 137.843 172.136 138.136H174.416ZM177.383 138.92C177.559 138.739 177.74 138.576 177.927 138.432C178.119 138.283 178.321 138.155 178.535 138.048C178.748 137.941 178.975 137.859 179.215 137.8C179.455 137.741 179.716 137.712 179.999 137.712C180.447 137.712 180.839 137.787 181.175 137.936C181.516 138.085 181.801 138.296 182.031 138.568C182.265 138.84 182.441 139.168 182.559 139.552C182.676 139.931 182.735 140.349 182.735 140.808V146H181.023V140.808C181.023 140.259 180.895 139.832 180.639 139.528C180.388 139.224 180.004 139.072 179.487 139.072C179.103 139.072 178.745 139.16 178.415 139.336C178.089 139.512 177.783 139.752 177.495 140.056V146H175.775V137.84H176.815C177.049 137.84 177.199 137.949 177.263 138.168L177.383 138.92ZM193.592 144.488C194.034 144.488 194.429 144.413 194.776 144.264C195.128 144.115 195.424 143.907 195.664 143.64C195.909 143.373 196.096 143.053 196.224 142.68C196.352 142.301 196.416 141.883 196.416 141.424V134.48H198.28V141.424C198.28 142.101 198.17 142.728 197.952 143.304C197.738 143.88 197.429 144.379 197.024 144.8C196.618 145.216 196.125 145.544 195.544 145.784C194.968 146.019 194.317 146.136 193.592 146.136C192.866 146.136 192.213 146.019 191.632 145.784C191.056 145.544 190.565 145.216 190.16 144.8C189.754 144.379 189.442 143.88 189.224 143.304C189.01 142.728 188.904 142.101 188.904 141.424V134.48H190.776V141.416C190.776 141.875 190.84 142.293 190.968 142.672C191.096 143.045 191.28 143.368 191.52 143.64C191.76 143.907 192.053 144.115 192.4 144.264C192.752 144.413 193.149 144.488 193.592 144.488ZM202.026 143.952C202.266 144.261 202.527 144.48 202.81 144.608C203.098 144.731 203.415 144.792 203.762 144.792C204.434 144.792 204.956 144.547 205.33 144.056C205.708 143.565 205.898 142.835 205.898 141.864C205.898 141.363 205.855 140.936 205.77 140.584C205.684 140.227 205.562 139.936 205.402 139.712C205.242 139.488 205.047 139.325 204.818 139.224C204.588 139.123 204.33 139.072 204.042 139.072C203.604 139.072 203.226 139.168 202.906 139.36C202.591 139.547 202.298 139.816 202.026 140.168V143.952ZM201.938 139.024C202.279 138.624 202.666 138.301 203.098 138.056C203.535 137.811 204.042 137.688 204.618 137.688C205.076 137.688 205.492 137.781 205.866 137.968C206.239 138.149 206.559 138.416 206.826 138.768C207.092 139.12 207.298 139.557 207.442 140.08C207.591 140.597 207.666 141.192 207.666 141.864C207.666 142.467 207.583 143.029 207.418 143.552C207.258 144.069 207.026 144.52 206.722 144.904C206.418 145.283 206.05 145.581 205.618 145.8C205.186 146.013 204.698 146.12 204.154 146.12C203.674 146.12 203.266 146.043 202.93 145.888C202.599 145.733 202.298 145.52 202.026 145.248V148.712H200.306V137.84H201.346C201.58 137.84 201.73 137.949 201.794 138.168L201.938 139.024Z" fill="#F8F8F8"/>
<rect x="1.25" y="117.25" width="359.5" height="44.5" rx="6.75" stroke="#F8F8F8" stroke-width="1.5"/>
</svg>
