<svg width="584" height="91" viewBox="0 0 584 91" fill="none" xmlns="http://www.w3.org/2000/svg">
<rect width="33" height="18" rx="9" fill="#D5DAEE"/>
<path d="M6.44034 6.67188V5.72727H12.0689V6.67188H9.79972V13H8.70597V6.67188H6.44034ZM14.7873 13.1101C14.2499 13.1101 13.7871 12.9953 13.3988 12.7656C13.0129 12.5336 12.7146 12.2081 12.5039 11.7891C12.2956 11.3677 12.1914 10.8741 12.1914 10.3082C12.1914 9.74953 12.2956 9.2571 12.5039 8.83097C12.7146 8.40483 13.0082 8.07221 13.3846 7.8331C13.7634 7.59399 14.2061 7.47443 14.7127 7.47443C15.0205 7.47443 15.3188 7.52533 15.6076 7.62713C15.8964 7.72893 16.1557 7.88873 16.3853 8.10653C16.6149 8.32434 16.796 8.60724 16.9286 8.95526C17.0612 9.3009 17.1275 9.72112 17.1275 10.2159V10.5923H12.7915V9.79688H16.087C16.087 9.51752 16.0302 9.27012 15.9165 9.05469C15.8029 8.83688 15.6431 8.66525 15.4371 8.53977C15.2335 8.4143 14.9944 8.35156 14.7198 8.35156C14.4215 8.35156 14.1611 8.42495 13.9386 8.57173C13.7184 8.71615 13.5479 8.90554 13.4272 9.13991C13.3088 9.37192 13.2496 9.62405 13.2496 9.89631V10.5178C13.2496 10.8823 13.3136 11.1925 13.4414 11.4482C13.5716 11.7038 13.7527 11.8991 13.9847 12.0341C14.2167 12.1667 14.4878 12.233 14.7979 12.233C14.9992 12.233 15.1826 12.2045 15.3484 12.1477C15.5141 12.0885 15.6573 12.0009 15.7781 11.8849C15.8988 11.7689 15.9911 11.6257 16.055 11.4553L17.06 11.6364C16.9795 11.9323 16.8351 12.1915 16.6268 12.4141C16.4208 12.6342 16.1616 12.8059 15.8491 12.929C15.5389 13.0497 15.185 13.1101 14.7873 13.1101ZM19.0167 7.54545L20.2205 9.66903L21.435 7.54545H22.5962L20.8952 10.2727L22.6104 13H21.4492L20.2205 10.9616L18.9954 13H17.8306L19.5281 10.2727L17.8519 7.54545H19.0167ZM26.2326 7.54545V8.39773H23.2532V7.54545H26.2326ZM24.0522 6.23864H25.114V11.3984C25.114 11.6044 25.1448 11.7595 25.2063 11.8636C25.2679 11.9654 25.3472 12.0353 25.4442 12.0732C25.5437 12.1087 25.6514 12.1264 25.7674 12.1264C25.8526 12.1264 25.9272 12.1205 25.9911 12.1087C26.055 12.0968 26.1048 12.0874 26.1403 12.0803L26.332 12.9574C26.2705 12.9811 26.1829 13.0047 26.0692 13.0284C25.9556 13.0545 25.8136 13.0687 25.6431 13.071C25.3638 13.0758 25.1033 13.026 24.8619 12.9219C24.6204 12.8177 24.4251 12.6567 24.2759 12.4389C24.1268 12.2211 24.0522 11.9477 24.0522 11.6186V6.23864Z" fill="black" fill-opacity="0.25"/>
<rect x="0.5" y="26.5" width="63.9252" height="63.9252" rx="1.5" fill="#1B1B1B"/>
<path d="M15.9716 53.7416V62.4689H14.9148V54.8496H14.8636L12.733 56.2644V55.1905L14.9148 53.7416H15.9716ZM18.6349 62.4689V53.7416H21.6861C22.294 53.7416 22.7955 53.8467 23.1903 54.057C23.5852 54.2644 23.8793 54.5442 24.0724 54.8965C24.2656 55.2459 24.3622 55.6337 24.3622 56.0598C24.3622 56.4348 24.2955 56.7445 24.1619 56.9888C24.0313 57.2331 23.858 57.4263 23.642 57.5683C23.429 57.7104 23.1974 57.8155 22.9474 57.8837V57.9689C23.2145 57.9859 23.483 58.0797 23.7528 58.2502C24.0227 58.4206 24.2486 58.6649 24.4304 58.9831C24.6122 59.3013 24.7031 59.6905 24.7031 60.1507C24.7031 60.5882 24.6037 60.9817 24.4048 61.3311C24.206 61.6806 23.892 61.9575 23.4631 62.1621C23.0341 62.3666 22.4759 62.4689 21.7884 62.4689H18.6349ZM19.6918 61.5314H21.7884C22.4787 61.5314 22.9688 61.3979 23.2585 61.1308C23.5511 60.8609 23.6974 60.5342 23.6974 60.1507C23.6974 59.8553 23.6222 59.5825 23.4716 59.3325C23.321 59.0797 23.1065 58.878 22.8281 58.7274C22.5497 58.574 22.2202 58.4973 21.8395 58.4973H19.6918V61.5314ZM19.6918 57.5769H21.652C21.9702 57.5769 22.2571 57.5144 22.5128 57.3894C22.7713 57.2644 22.9759 57.0882 23.1264 56.8609C23.2798 56.6337 23.3565 56.3666 23.3565 56.0598C23.3565 55.6763 23.223 55.351 22.956 55.084C22.6889 54.8141 22.2656 54.6791 21.6861 54.6791H19.6918V57.5769ZM29.3544 53.7416V62.4689H28.2976V54.8496H28.2464L26.1158 56.2644V55.1905L28.2976 53.7416H29.3544ZM32.0178 62.4689V53.7416H35.0689C35.6768 53.7416 36.1783 53.8467 36.5732 54.057C36.968 54.2644 37.2621 54.5442 37.4553 54.8965C37.6484 55.2459 37.745 55.6337 37.745 56.0598C37.745 56.4348 37.6783 56.7445 37.5447 56.9888C37.4141 57.2331 37.2408 57.4263 37.0249 57.5683C36.8118 57.7104 36.5803 57.8155 36.3303 57.8837V57.9689C36.5973 57.9859 36.8658 58.0797 37.1357 58.2502C37.4055 58.4206 37.6314 58.6649 37.8132 58.9831C37.995 59.3013 38.0859 59.6905 38.0859 60.1507C38.0859 60.5882 37.9865 60.9817 37.7876 61.3311C37.5888 61.6806 37.2749 61.9575 36.8459 62.1621C36.4169 62.3666 35.8587 62.4689 35.1712 62.4689H32.0178ZM33.0746 61.5314H35.1712C35.8615 61.5314 36.3516 61.3979 36.6413 61.1308C36.9339 60.8609 37.0803 60.5342 37.0803 60.1507C37.0803 59.8553 37.005 59.5825 36.8544 59.3325C36.7038 59.0797 36.4893 58.878 36.2109 58.7274C35.9325 58.574 35.603 58.4973 35.2223 58.4973H33.0746V61.5314ZM33.0746 57.5769H35.0348C35.353 57.5769 35.6399 57.5144 35.8956 57.3894C36.1541 57.2644 36.3587 57.0882 36.5092 56.8609C36.6626 56.6337 36.7393 56.3666 36.7393 56.0598C36.7393 55.6763 36.6058 55.351 36.3388 55.084C36.0717 54.8141 35.6484 54.6791 35.0689 54.6791H33.0746V57.5769ZM42.7372 53.7416V62.4689H41.6804V54.8496H41.6293L39.4986 56.2644V55.1905L41.6804 53.7416H42.7372ZM45.4006 62.4689V53.7416H48.4517C49.0597 53.7416 49.5611 53.8467 49.956 54.057C50.3509 54.2644 50.6449 54.5442 50.8381 54.8965C51.0313 55.2459 51.1278 55.6337 51.1278 56.0598C51.1278 56.4348 51.0611 56.7445 50.9276 56.9888C50.7969 57.2331 50.6236 57.4263 50.4077 57.5683C50.1946 57.7104 49.9631 57.8155 49.7131 57.8837V57.9689C49.9801 57.9859 50.2486 58.0797 50.5185 58.2502C50.7884 58.4206 51.0142 58.6649 51.196 58.9831C51.3778 59.3013 51.4688 59.6905 51.4688 60.1507C51.4688 60.5882 51.3693 60.9817 51.1705 61.3311C50.9716 61.6806 50.6577 61.9575 50.2287 62.1621C49.7997 62.3666 49.2415 62.4689 48.554 62.4689H45.4006ZM46.4574 61.5314H48.554C49.2443 61.5314 49.7344 61.3979 50.0241 61.1308C50.3168 60.8609 50.4631 60.5342 50.4631 60.1507C50.4631 59.8553 50.3878 59.5825 50.2372 59.3325C50.0866 59.0797 49.8722 58.878 49.5938 58.7274C49.3153 58.574 48.9858 58.4973 48.6051 58.4973H46.4574V61.5314ZM46.4574 57.5769H48.4176C48.7358 57.5769 49.0227 57.5144 49.2784 57.3894C49.5369 57.2644 49.7415 57.0882 49.892 56.8609C50.0455 56.6337 50.1222 56.3666 50.1222 56.0598C50.1222 55.6763 49.9886 55.351 49.7216 55.084C49.4545 54.8141 49.0313 54.6791 48.4517 54.6791H46.4574V57.5769Z" fill="white"/>
<rect x="0.5" y="26.5" width="63.9252" height="63.9252" rx="1.5" stroke="black"/>
<rect x="73.4253" y="26.5" width="63.9252" height="63.9252" rx="1.5" fill="#5A5A5A"/>
<path d="M85.408 62.5882C84.908 62.5882 84.4577 62.4888 84.0572 62.2899C83.6566 62.0911 83.3356 61.8183 83.0941 61.4717C82.8526 61.1252 82.7205 60.7303 82.6978 60.2871H83.7205C83.7603 60.682 83.9393 61.0087 84.2575 61.2672C84.5785 61.5229 84.962 61.6507 85.408 61.6507C85.766 61.6507 86.0842 61.5669 86.3626 61.3993C86.6438 61.2317 86.864 61.0016 87.0231 60.709C87.185 60.4135 87.266 60.0797 87.266 59.7075C87.266 59.3269 87.1822 58.9874 87.0146 58.6891C86.8498 58.3879 86.6225 58.1507 86.3327 57.9774C86.043 57.8041 85.712 57.7161 85.3398 57.7132C85.0728 57.7104 84.7987 57.7516 84.5174 57.8368C84.2362 57.9192 84.0046 58.0257 83.8228 58.1564L82.8342 58.0371L83.3626 53.7416H87.8967V54.6791H84.2489L83.9421 57.253H83.9933C84.1722 57.1109 84.3967 56.9931 84.6665 56.8993C84.9364 56.8056 85.2177 56.7587 85.5103 56.7587C86.0444 56.7587 86.5202 56.8865 86.9379 57.1422C87.3583 57.395 87.6879 57.7416 87.9265 58.182C88.168 58.6223 88.2887 59.1252 88.2887 59.6905C88.2887 60.2473 88.1637 60.7445 87.9137 61.182C87.6665 61.6166 87.3256 61.9604 86.891 62.2132C86.4563 62.4632 85.962 62.5882 85.408 62.5882ZM90.4929 62.4689H89.3849L92.5895 53.7416H93.6804L96.8849 62.4689H95.777L93.169 55.1223H93.1009L90.4929 62.4689ZM90.902 59.0598H95.3679V59.9973H90.902V59.0598ZM100.818 62.5882C100.318 62.5882 99.8679 62.4888 99.4673 62.2899C99.0668 62.0911 98.7457 61.8183 98.5043 61.4717C98.2628 61.1252 98.1307 60.7303 98.108 60.2871H99.1307C99.1705 60.682 99.3494 61.0087 99.6676 61.2672C99.9886 61.5229 100.372 61.6507 100.818 61.6507C101.176 61.6507 101.494 61.5669 101.773 61.3993C102.054 61.2317 102.274 61.0016 102.433 60.709C102.595 60.4135 102.676 60.0797 102.676 59.7075C102.676 59.3269 102.592 58.9874 102.425 58.6891C102.26 58.3879 102.033 58.1507 101.743 57.9774C101.453 57.8041 101.122 57.7161 100.75 57.7132C100.483 57.7104 100.209 57.7516 99.9276 57.8368C99.6463 57.9192 99.4148 58.0257 99.233 58.1564L98.2443 58.0371L98.7727 53.7416H103.307V54.6791H99.6591L99.3523 57.253H99.4034C99.5824 57.1109 99.8068 56.9931 100.077 56.8993C100.347 56.8056 100.628 56.7587 100.92 56.7587C101.455 56.7587 101.93 56.8865 102.348 57.1422C102.768 57.395 103.098 57.7416 103.337 58.182C103.578 58.6223 103.699 59.1252 103.699 59.6905C103.699 60.2473 103.574 60.7445 103.324 61.182C103.077 61.6166 102.736 61.9604 102.301 62.2132C101.866 62.4632 101.372 62.5882 100.818 62.5882ZM105.903 62.4689H104.795L108 53.7416H109.091L112.295 62.4689H111.187L108.579 55.1223H108.511L105.903 62.4689ZM106.312 59.0598H110.778V59.9973H106.312V59.0598ZM116.228 62.5882C115.728 62.5882 115.278 62.4888 114.877 62.2899C114.477 62.0911 114.156 61.8183 113.914 61.4717C113.673 61.1252 113.541 60.7303 113.518 60.2871H114.541C114.581 60.682 114.76 61.0087 115.078 61.2672C115.399 61.5229 115.782 61.6507 116.228 61.6507C116.586 61.6507 116.904 61.5669 117.183 61.3993C117.464 61.2317 117.684 61.0016 117.843 60.709C118.005 60.4135 118.086 60.0797 118.086 59.7075C118.086 59.3269 118.002 58.9874 117.835 58.6891C117.67 58.3879 117.443 58.1507 117.153 57.9774C116.863 57.8041 116.532 57.7161 116.16 57.7132C115.893 57.7104 115.619 57.7516 115.338 57.8368C115.056 57.9192 114.825 58.0257 114.643 58.1564L113.654 58.0371L114.183 53.7416H118.717V54.6791H115.069L114.762 57.253H114.814C114.993 57.1109 115.217 56.9931 115.487 56.8993C115.757 56.8056 116.038 56.7587 116.331 56.7587C116.865 56.7587 117.341 56.8865 117.758 57.1422C118.179 57.395 118.508 57.7416 118.747 58.182C118.988 58.6223 119.109 59.1252 119.109 59.6905C119.109 60.2473 118.984 60.7445 118.734 61.182C118.487 61.6166 118.146 61.9604 117.711 62.2132C117.277 62.4632 116.782 62.5882 116.228 62.5882ZM121.313 62.4689H120.205L123.41 53.7416H124.501L127.705 62.4689H126.597L123.989 55.1223H123.921L121.313 62.4689ZM121.722 59.0598H126.188V59.9973H121.722V59.0598Z" fill="white"/>
<rect x="73.4253" y="26.5" width="63.9252" height="63.9252" rx="1.5" stroke="black"/>
<rect x="146.351" y="26.5" width="63.9252" height="63.9252" rx="1.5" fill="#F0F0F0"/>
<path d="M157.834 62.4689V53.7416H163.067V54.6791H158.891V57.628H162.675V58.5655H158.891V62.4689H157.834ZM167.519 62.5882C166.934 62.5882 166.417 62.4845 165.968 62.2771C165.522 62.0669 165.174 61.7786 164.924 61.4121C164.674 61.0428 164.55 60.6223 164.553 60.1507C164.55 59.7814 164.623 59.4405 164.771 59.128C164.918 58.8127 165.12 58.5499 165.376 58.3396C165.634 58.1266 165.923 57.9916 166.241 57.9348V57.8837C165.823 57.7757 165.491 57.5413 165.244 57.1806C164.996 56.8169 164.874 56.4036 164.877 55.9405C164.874 55.4973 164.987 55.101 165.214 54.7516C165.441 54.4021 165.754 54.1266 166.151 53.9249C166.552 53.7232 167.008 53.6223 167.519 53.6223C168.025 53.6223 168.477 53.7232 168.874 53.9249C169.272 54.1266 169.585 54.4021 169.812 54.7516C170.042 55.101 170.158 55.4973 170.161 55.9405C170.158 56.4036 170.032 56.8169 169.782 57.1806C169.535 57.5413 169.207 57.7757 168.798 57.8837V57.9348C169.113 57.9916 169.397 58.1266 169.65 58.3396C169.903 58.5499 170.104 58.8127 170.255 59.128C170.406 59.4405 170.482 59.7814 170.485 60.1507C170.482 60.6223 170.354 61.0428 170.102 61.4121C169.852 61.7786 169.504 62.0669 169.058 62.2771C168.614 62.4845 168.102 62.5882 167.519 62.5882ZM167.519 61.6507C167.914 61.6507 168.255 61.5868 168.542 61.459C168.829 61.3311 169.05 61.1507 169.207 60.9178C169.363 60.6848 169.442 60.4121 169.445 60.0996C169.442 59.77 169.357 59.4788 169.19 59.226C169.022 58.9732 168.793 58.7743 168.504 58.6294C168.217 58.4845 167.888 58.4121 167.519 58.4121C167.147 58.4121 166.815 58.4845 166.522 58.6294C166.232 58.7743 166.004 58.9732 165.836 59.226C165.671 59.4788 165.59 59.77 165.593 60.0996C165.59 60.4121 165.665 60.6848 165.819 60.9178C165.975 61.1507 166.198 61.3311 166.488 61.459C166.778 61.5868 167.121 61.6507 167.519 61.6507ZM167.519 57.5087C167.832 57.5087 168.109 57.4462 168.35 57.3212C168.594 57.1962 168.786 57.0215 168.925 56.797C169.065 56.5726 169.136 56.3098 169.138 56.0087C169.136 55.7132 169.066 55.4561 168.93 55.2374C168.793 55.0158 168.604 54.8453 168.363 54.726C168.121 54.6038 167.84 54.5428 167.519 54.5428C167.192 54.5428 166.907 54.6038 166.663 54.726C166.418 54.8453 166.229 55.0158 166.096 55.2374C165.962 55.4561 165.897 55.7132 165.9 56.0087C165.897 56.3098 165.964 56.5726 166.1 56.797C166.239 57.0215 166.431 57.1962 166.675 57.3212C166.92 57.4462 167.201 57.5087 167.519 57.5087ZM172.272 62.4689V53.7416H177.505V54.6791H173.328V57.628H177.113V58.5655H173.328V62.4689H172.272ZM181.957 62.5882C181.371 62.5882 180.854 62.4845 180.406 62.2771C179.96 62.0669 179.612 61.7786 179.362 61.4121C179.112 61.0428 178.988 60.6223 178.991 60.1507C178.988 59.7814 179.06 59.4405 179.208 59.128C179.356 58.8127 179.558 58.5499 179.813 58.3396C180.072 58.1266 180.36 57.9916 180.678 57.9348V57.8837C180.261 57.7757 179.928 57.5413 179.681 57.1806C179.434 56.8169 179.312 56.4036 179.315 55.9405C179.312 55.4973 179.424 55.101 179.651 54.7516C179.879 54.4021 180.191 54.1266 180.589 53.9249C180.989 53.7232 181.445 53.6223 181.957 53.6223C182.462 53.6223 182.914 53.7232 183.312 53.9249C183.71 54.1266 184.022 54.4021 184.249 54.7516C184.479 55.101 184.596 55.4973 184.599 55.9405C184.596 56.4036 184.469 56.8169 184.219 57.1806C183.972 57.5413 183.644 57.7757 183.235 57.8837V57.9348C183.55 57.9916 183.835 58.1266 184.087 58.3396C184.34 58.5499 184.542 58.8127 184.692 59.128C184.843 59.4405 184.92 59.7814 184.923 60.1507C184.92 60.6223 184.792 61.0428 184.539 61.4121C184.289 61.7786 183.941 62.0669 183.495 62.2771C183.052 62.4845 182.539 62.5882 181.957 62.5882ZM181.957 61.6507C182.352 61.6507 182.692 61.5868 182.979 61.459C183.266 61.3311 183.488 61.1507 183.644 60.9178C183.8 60.6848 183.88 60.4121 183.883 60.0996C183.88 59.77 183.795 59.4788 183.627 59.226C183.46 58.9732 183.231 58.7743 182.941 58.6294C182.654 58.4845 182.326 58.4121 181.957 58.4121C181.585 58.4121 181.252 58.4845 180.96 58.6294C180.67 58.7743 180.441 58.9732 180.273 59.226C180.109 59.4788 180.028 59.77 180.031 60.0996C180.028 60.4121 180.103 60.6848 180.256 60.9178C180.413 61.1507 180.636 61.3311 180.925 61.459C181.215 61.5868 181.559 61.6507 181.957 61.6507ZM181.957 57.5087C182.269 57.5087 182.546 57.4462 182.788 57.3212C183.032 57.1962 183.224 57.0215 183.363 56.797C183.502 56.5726 183.573 56.3098 183.576 56.0087C183.573 55.7132 183.504 55.4561 183.367 55.2374C183.231 55.0158 183.042 54.8453 182.8 54.726C182.559 54.6038 182.278 54.5428 181.957 54.5428C181.63 54.5428 181.344 54.6038 181.1 54.726C180.856 54.8453 180.667 55.0158 180.533 55.2374C180.4 55.4561 180.335 55.7132 180.337 56.0087C180.335 56.3098 180.401 56.5726 180.538 56.797C180.677 57.0215 180.869 57.1962 181.113 57.3212C181.357 57.4462 181.638 57.5087 181.957 57.5087ZM186.709 62.4689V53.7416H191.942V54.6791H187.766V57.628H191.55V58.5655H187.766V62.4689H186.709ZM196.394 62.5882C195.809 62.5882 195.292 62.4845 194.843 62.2771C194.397 62.0669 194.049 61.7786 193.799 61.4121C193.549 61.0428 193.425 60.6223 193.428 60.1507C193.425 59.7814 193.498 59.4405 193.646 59.128C193.793 58.8127 193.995 58.5499 194.251 58.3396C194.509 58.1266 194.798 57.9916 195.116 57.9348V57.8837C194.698 57.7757 194.366 57.5413 194.119 57.1806C193.871 56.8169 193.749 56.4036 193.752 55.9405C193.749 55.4973 193.862 55.101 194.089 54.7516C194.316 54.4021 194.629 54.1266 195.026 53.9249C195.427 53.7232 195.883 53.6223 196.394 53.6223C196.9 53.6223 197.352 53.7232 197.749 53.9249C198.147 54.1266 198.46 54.4021 198.687 54.7516C198.917 55.101 199.033 55.4973 199.036 55.9405C199.033 56.4036 198.907 56.8169 198.657 57.1806C198.41 57.5413 198.082 57.7757 197.673 57.8837V57.9348C197.988 57.9916 198.272 58.1266 198.525 58.3396C198.778 58.5499 198.979 58.8127 199.13 59.128C199.281 59.4405 199.357 59.7814 199.36 60.1507C199.357 60.6223 199.229 61.0428 198.977 61.4121C198.727 61.7786 198.379 62.0669 197.933 62.2771C197.489 62.4845 196.977 62.5882 196.394 62.5882ZM196.394 61.6507C196.789 61.6507 197.13 61.5868 197.417 61.459C197.704 61.3311 197.925 61.1507 198.082 60.9178C198.238 60.6848 198.317 60.4121 198.32 60.0996C198.317 59.77 198.232 59.4788 198.065 59.226C197.897 58.9732 197.668 58.7743 197.379 58.6294C197.092 58.4845 196.763 58.4121 196.394 58.4121C196.022 58.4121 195.69 58.4845 195.397 58.6294C195.107 58.7743 194.879 58.9732 194.711 59.226C194.546 59.4788 194.465 59.77 194.468 60.0996C194.465 60.4121 194.54 60.6848 194.694 60.9178C194.85 61.1507 195.073 61.3311 195.363 61.459C195.653 61.5868 195.996 61.6507 196.394 61.6507ZM196.394 57.5087C196.707 57.5087 196.984 57.4462 197.225 57.3212C197.469 57.1962 197.661 57.0215 197.8 56.797C197.94 56.5726 198.011 56.3098 198.013 56.0087C198.011 55.7132 197.941 55.4561 197.805 55.2374C197.668 55.0158 197.479 54.8453 197.238 54.726C196.996 54.6038 196.715 54.5428 196.394 54.5428C196.067 54.5428 195.782 54.6038 195.538 54.726C195.293 54.8453 195.104 55.0158 194.971 55.2374C194.837 55.4561 194.772 55.7132 194.775 56.0087C194.772 56.3098 194.839 56.5726 194.975 56.797C195.114 57.0215 195.306 57.1962 195.55 57.3212C195.795 57.4462 196.076 57.5087 196.394 57.5087Z" fill="black"/>
<rect x="146.351" y="26.5" width="63.9252" height="63.9252" rx="1.5" stroke="black"/>
<rect x="219.275" y="26.5" width="63.9252" height="63.9252" rx="1.5" fill="#F8F8F8"/>
<path d="M229.834 62.4689V53.7416H235.067V54.6791H230.891V57.628H234.675V58.5655H230.891V62.4689H229.834ZM239.57 62.5882C238.928 62.5882 238.381 62.4135 237.93 62.0641C237.478 61.7118 237.133 61.2019 236.894 60.5342C236.656 59.8638 236.536 59.0541 236.536 58.1053C236.536 57.1621 236.656 56.3567 236.894 55.6891C237.136 55.0186 237.482 54.5073 237.934 54.155C238.388 53.7999 238.934 53.6223 239.57 53.6223C240.207 53.6223 240.751 53.7999 241.202 54.155C241.657 54.5073 242.004 55.0186 242.242 55.6891C242.484 56.3567 242.604 57.1621 242.604 58.1053C242.604 59.0541 242.485 59.8638 242.246 60.5342C242.008 61.2019 241.663 61.7118 241.211 62.0641C240.759 62.4135 240.212 62.5882 239.57 62.5882ZM239.57 61.6507C240.207 61.6507 240.701 61.3439 241.053 60.7303C241.406 60.1166 241.582 59.2416 241.582 58.1053C241.582 57.3496 241.501 56.7061 241.339 56.1749C241.18 55.6436 240.95 55.2388 240.648 54.9604C240.35 54.682 239.991 54.5428 239.57 54.5428C238.94 54.5428 238.447 54.8538 238.092 55.476C237.737 56.0953 237.559 56.9717 237.559 58.1053C237.559 58.8609 237.638 59.503 237.798 60.0314C237.957 60.5598 238.185 60.9618 238.484 61.2374C238.785 61.5129 239.147 61.6507 239.57 61.6507ZM244.377 62.4689V53.7416H249.61V54.6791H245.434V57.628H249.218V58.5655H245.434V62.4689H244.377ZM254.113 62.5882C253.471 62.5882 252.924 62.4135 252.473 62.0641C252.021 61.7118 251.676 61.2019 251.437 60.5342C251.199 59.8638 251.079 59.0541 251.079 58.1053C251.079 57.1621 251.199 56.3567 251.437 55.6891C251.679 55.0186 252.025 54.5073 252.477 54.155C252.931 53.7999 253.477 53.6223 254.113 53.6223C254.75 53.6223 255.294 53.7999 255.745 54.155C256.2 54.5073 256.547 55.0186 256.785 55.6891C257.027 56.3567 257.147 57.1621 257.147 58.1053C257.147 59.0541 257.028 59.8638 256.789 60.5342C256.551 61.2019 256.206 61.7118 255.754 62.0641C255.302 62.4135 254.755 62.5882 254.113 62.5882ZM254.113 61.6507C254.75 61.6507 255.244 61.3439 255.596 60.7303C255.949 60.1166 256.125 59.2416 256.125 58.1053C256.125 57.3496 256.044 56.7061 255.882 56.1749C255.723 55.6436 255.493 55.2388 255.191 54.9604C254.893 54.682 254.534 54.5428 254.113 54.5428C253.483 54.5428 252.99 54.8538 252.635 55.476C252.279 56.0953 252.102 56.9717 252.102 58.1053C252.102 58.8609 252.181 59.503 252.341 60.0314C252.5 60.5598 252.728 60.9618 253.027 61.2374C253.328 61.5129 253.69 61.6507 254.113 61.6507ZM258.92 62.4689V53.7416H264.153V54.6791H259.977V57.628H263.761V58.5655H259.977V62.4689H258.92ZM268.656 62.5882C268.014 62.5882 267.467 62.4135 267.016 62.0641C266.564 61.7118 266.219 61.2019 265.98 60.5342C265.741 59.8638 265.622 59.0541 265.622 58.1053C265.622 57.1621 265.741 56.3567 265.98 55.6891C266.222 55.0186 266.568 54.5073 267.02 54.155C267.474 53.7999 268.02 53.6223 268.656 53.6223C269.293 53.6223 269.837 53.7999 270.288 54.155C270.743 54.5073 271.089 55.0186 271.328 55.6891C271.57 56.3567 271.69 57.1621 271.69 58.1053C271.69 59.0541 271.571 59.8638 271.332 60.5342C271.094 61.2019 270.749 61.7118 270.297 62.0641C269.845 62.4135 269.298 62.5882 268.656 62.5882ZM268.656 61.6507C269.293 61.6507 269.787 61.3439 270.139 60.7303C270.491 60.1166 270.668 59.2416 270.668 58.1053C270.668 57.3496 270.587 56.7061 270.425 56.1749C270.266 55.6436 270.036 55.2388 269.734 54.9604C269.436 54.682 269.077 54.5428 268.656 54.5428C268.026 54.5428 267.533 54.8538 267.178 55.476C266.822 56.0953 266.645 56.9717 266.645 58.1053C266.645 58.8609 266.724 59.503 266.884 60.0314C267.043 60.5598 267.271 60.9618 267.57 61.2374C267.871 61.5129 268.233 61.6507 268.656 61.6507Z" fill="black"/>
<rect x="219.275" y="26.5" width="63.9252" height="63.9252" rx="1.5" stroke="black"/>
<rect x="299.701" width="89" height="18" rx="9" fill="#D5DAEE"/>
<path d="M306.5 13V5.72727H309.092C309.658 5.72727 310.127 5.83026 310.498 6.03622C310.87 6.24219 311.148 6.52391 311.333 6.88139C311.517 7.23651 311.61 7.6366 311.61 8.08168C311.61 8.52912 311.516 8.93158 311.329 9.28906C311.145 9.64418 310.865 9.9259 310.491 10.1342C310.119 10.3402 309.652 10.4432 309.088 10.4432H307.306V9.51278H308.989C309.347 9.51278 309.637 9.45123 309.859 9.32812C310.082 9.20265 310.245 9.0322 310.349 8.81676C310.453 8.60133 310.505 8.3563 310.505 8.08168C310.505 7.80705 310.453 7.56321 310.349 7.35014C310.245 7.13707 310.08 6.97017 309.856 6.84943C309.633 6.72869 309.339 6.66832 308.975 6.66832H307.597V13H306.5ZM312.811 13V7.54545H313.837V8.41193H313.894C313.993 8.11837 314.169 7.88755 314.42 7.71946C314.673 7.54901 314.959 7.46378 315.279 7.46378C315.345 7.46378 315.423 7.46615 315.513 7.47088C315.606 7.47562 315.678 7.48153 315.73 7.48864V8.50426C315.687 8.49242 315.612 8.4794 315.503 8.4652C315.394 8.44863 315.285 8.44034 315.176 8.44034C314.925 8.44034 314.701 8.49361 314.505 8.60014C314.311 8.70431 314.157 8.84991 314.043 9.03693C313.93 9.22159 313.873 9.43229 313.873 9.66903V13H312.811ZM316.649 13V7.54545H317.711V13H316.649ZM317.185 6.70384C317 6.70384 316.842 6.64228 316.709 6.51918C316.579 6.3937 316.514 6.24455 316.514 6.07173C316.514 5.89654 316.579 5.7474 316.709 5.62429C316.842 5.49882 317 5.43608 317.185 5.43608C317.37 5.43608 317.527 5.49882 317.657 5.62429C317.79 5.7474 317.856 5.89654 317.856 6.07173C317.856 6.24455 317.79 6.3937 317.657 6.51918C317.527 6.64228 317.37 6.70384 317.185 6.70384ZM319.139 13V7.54545H320.158V8.43324H320.226C320.339 8.13258 320.525 7.8982 320.783 7.73011C321.041 7.55966 321.35 7.47443 321.71 7.47443C322.075 7.47443 322.38 7.55966 322.626 7.73011C322.875 7.90057 323.058 8.13494 323.177 8.43324H323.234C323.364 8.14205 323.571 7.91004 323.855 7.73722C324.139 7.56203 324.478 7.47443 324.871 7.47443C325.365 7.47443 325.769 7.6295 326.082 7.93963C326.396 8.24976 326.554 8.71733 326.554 9.34233V13H325.492V9.44176C325.492 9.07244 325.391 8.80492 325.19 8.6392C324.989 8.47348 324.749 8.39062 324.469 8.39062C324.124 8.39062 323.855 8.49716 323.663 8.71023C323.471 8.92093 323.376 9.192 323.376 9.52344V13H322.317V9.37429C322.317 9.07836 322.225 8.84044 322.04 8.66051C321.856 8.48059 321.615 8.39062 321.319 8.39062C321.118 8.39062 320.932 8.44389 320.762 8.55043C320.594 8.65459 320.458 8.80019 320.354 8.98722C320.252 9.17424 320.201 9.39086 320.201 9.63707V13H319.139ZM329.564 13.1207C329.219 13.1207 328.906 13.0568 328.627 12.929C328.347 12.7988 328.126 12.6106 327.963 12.3643C327.802 12.1181 327.721 11.8163 327.721 11.4588C327.721 11.151 327.78 10.8977 327.899 10.6989C328.017 10.5 328.177 10.3426 328.378 10.2266C328.579 10.1106 328.804 10.023 329.053 9.96378C329.302 9.90459 329.555 9.85961 329.813 9.82884C330.14 9.79096 330.405 9.76018 330.608 9.73651C330.812 9.71046 330.96 9.66903 331.052 9.61222C331.145 9.5554 331.191 9.46307 331.191 9.33523V9.31037C331.191 9.00024 331.103 8.75994 330.928 8.58949C330.755 8.41903 330.497 8.33381 330.154 8.33381C329.796 8.33381 329.515 8.41312 329.309 8.57173C329.105 8.72798 328.964 8.90199 328.886 9.09375L327.888 8.86648C328.007 8.53504 328.179 8.26752 328.407 8.06392C328.636 7.85795 328.9 7.70881 329.199 7.61648C329.497 7.52178 329.811 7.47443 330.14 7.47443C330.357 7.47443 330.588 7.50047 330.832 7.55256C331.078 7.60227 331.308 7.6946 331.521 7.82955C331.736 7.96449 331.913 8.15743 332.05 8.40838C332.187 8.65696 332.256 8.98011 332.256 9.37784V13H331.219V12.2543H331.177C331.108 12.3916 331.005 12.5265 330.868 12.6591C330.73 12.7917 330.554 12.9018 330.338 12.9893C330.123 13.0769 329.865 13.1207 329.564 13.1207ZM329.795 12.2685C330.089 12.2685 330.34 12.2105 330.548 12.0945C330.759 11.9785 330.918 11.8269 331.027 11.6399C331.139 11.4505 331.194 11.2481 331.194 11.0327V10.3295C331.156 10.3674 331.083 10.4029 330.974 10.4361C330.868 10.4669 330.746 10.4941 330.608 10.5178C330.471 10.5391 330.337 10.5592 330.207 10.5781C330.077 10.5947 329.968 10.6089 329.88 10.6207C329.674 10.6468 329.486 10.6906 329.316 10.7521C329.148 10.8137 329.013 10.9025 328.911 11.0185C328.811 11.1321 328.762 11.2836 328.762 11.473C328.762 11.7358 328.859 11.9347 329.053 12.0696C329.247 12.2022 329.494 12.2685 329.795 12.2685ZM333.67 13V7.54545H334.697V8.41193H334.753C334.853 8.11837 335.028 7.88755 335.279 7.71946C335.532 7.54901 335.819 7.46378 336.138 7.46378C336.205 7.46378 336.283 7.46615 336.373 7.47088C336.465 7.47562 336.537 7.48153 336.589 7.48864V8.50426C336.547 8.49242 336.471 8.4794 336.362 8.4652C336.253 8.44863 336.144 8.44034 336.035 8.44034C335.784 8.44034 335.561 8.49361 335.364 8.60014C335.17 8.70431 335.016 8.84991 334.903 9.03693C334.789 9.22159 334.732 9.43229 334.732 9.66903V13H333.67ZM338.345 15.0455C338.187 15.0455 338.042 15.0324 337.912 15.0064C337.782 14.9827 337.685 14.9567 337.621 14.9283L337.877 14.0582C338.071 14.1103 338.244 14.1328 338.395 14.1257C338.547 14.1186 338.68 14.0618 338.796 13.9553C338.915 13.8487 339.019 13.6747 339.109 13.4332L339.24 13.071L337.245 7.54545H338.381L339.762 11.7784H339.819L341.201 7.54545H342.34L340.093 13.728C339.988 14.0121 339.856 14.2524 339.695 14.4489C339.534 14.6477 339.342 14.7969 339.12 14.8963C338.897 14.9957 338.639 15.0455 338.345 15.0455ZM352.11 8.09233H351.003C350.96 7.85559 350.881 7.64725 350.765 7.46733C350.649 7.28741 350.507 7.13471 350.338 7.00923C350.17 6.88376 349.982 6.78906 349.774 6.72514C349.568 6.66122 349.349 6.62926 349.117 6.62926C348.698 6.62926 348.323 6.73461 347.991 6.94531C347.662 7.15601 347.402 7.46496 347.21 7.87216C347.021 8.27936 346.926 8.77652 346.926 9.36364C346.926 9.95549 347.021 10.455 347.21 10.8622C347.402 11.2694 347.663 11.5772 347.995 11.7855C348.326 11.9938 348.699 12.098 349.113 12.098C349.343 12.098 349.561 12.0672 349.767 12.0057C349.975 11.9418 350.163 11.8482 350.331 11.7251C350.499 11.602 350.641 11.4517 350.758 11.2741C350.876 11.0942 350.958 10.8883 351.003 10.6562L352.11 10.6598C352.051 11.0173 351.936 11.3464 351.766 11.647C351.598 11.9453 351.381 12.2034 351.116 12.4212C350.853 12.6366 350.553 12.8035 350.214 12.9219C349.876 13.0402 349.506 13.0994 349.106 13.0994C348.476 13.0994 347.915 12.9503 347.423 12.652C346.931 12.3513 346.542 11.9216 346.258 11.3629C345.976 10.8042 345.836 10.1378 345.836 9.36364C345.836 8.58712 345.978 7.92069 346.262 7.36435C346.546 6.80563 346.934 6.37713 347.427 6.07884C347.919 5.77817 348.479 5.62784 349.106 5.62784C349.492 5.62784 349.852 5.68348 350.186 5.79474C350.522 5.90365 350.824 6.06463 351.091 6.2777C351.359 6.4884 351.58 6.74645 351.755 7.05185C351.931 7.35488 352.049 7.7017 352.11 8.09233ZM355.636 13.1101C355.125 13.1101 354.678 12.9929 354.297 12.7585C353.916 12.5241 353.62 12.1963 353.409 11.7749C353.199 11.3535 353.093 10.861 353.093 10.2976C353.093 9.73177 353.199 9.23698 353.409 8.81321C353.62 8.38944 353.916 8.06037 354.297 7.82599C354.678 7.59162 355.125 7.47443 355.636 7.47443C356.147 7.47443 356.593 7.59162 356.975 7.82599C357.356 8.06037 357.652 8.38944 357.862 8.81321C358.073 9.23698 358.178 9.73177 358.178 10.2976C358.178 10.861 358.073 11.3535 357.862 11.7749C357.652 12.1963 357.356 12.5241 356.975 12.7585C356.593 12.9929 356.147 13.1101 355.636 13.1101ZM355.639 12.2188C355.971 12.2188 356.245 12.1312 356.463 11.956C356.681 11.7808 356.842 11.5476 356.946 11.2564C357.053 10.9652 357.106 10.6444 357.106 10.294C357.106 9.94602 357.053 9.62642 356.946 9.33523C356.842 9.04167 356.681 8.80611 356.463 8.62855C356.245 8.45099 355.971 8.36222 355.639 8.36222C355.306 8.36222 355.029 8.45099 354.808 8.62855C354.591 8.80611 354.428 9.04167 354.322 9.33523C354.218 9.62642 354.166 9.94602 354.166 10.294C354.166 10.6444 354.218 10.9652 354.322 11.2564C354.428 11.5476 354.591 11.7808 354.808 11.956C355.029 12.1312 355.306 12.2188 355.639 12.2188ZM360.425 5.72727V13H359.364V5.72727H360.425ZM364.152 13.1101C363.64 13.1101 363.194 12.9929 362.813 12.7585C362.432 12.5241 362.136 12.1963 361.925 11.7749C361.714 11.3535 361.609 10.861 361.609 10.2976C361.609 9.73177 361.714 9.23698 361.925 8.81321C362.136 8.38944 362.432 8.06037 362.813 7.82599C363.194 7.59162 363.64 7.47443 364.152 7.47443C364.663 7.47443 365.109 7.59162 365.49 7.82599C365.871 8.06037 366.167 8.38944 366.378 8.81321C366.589 9.23698 366.694 9.73177 366.694 10.2976C366.694 10.861 366.589 11.3535 366.378 11.7749C366.167 12.1963 365.871 12.5241 365.49 12.7585C365.109 12.9929 364.663 13.1101 364.152 13.1101ZM364.155 12.2188C364.486 12.2188 364.761 12.1312 364.979 11.956C365.197 11.7808 365.358 11.5476 365.462 11.2564C365.568 10.9652 365.622 10.6444 365.622 10.294C365.622 9.94602 365.568 9.62642 365.462 9.33523C365.358 9.04167 365.197 8.80611 364.979 8.62855C364.761 8.45099 364.486 8.36222 364.155 8.36222C363.821 8.36222 363.544 8.45099 363.324 8.62855C363.106 8.80611 362.944 9.04167 362.838 9.33523C362.733 9.62642 362.681 9.94602 362.681 10.294C362.681 10.6444 362.733 10.9652 362.838 11.2564C362.944 11.5476 363.106 11.7808 363.324 11.956C363.544 12.1312 363.821 12.2188 364.155 12.2188ZM371.335 10.7379V7.54545H372.4V13H371.356V12.0554H371.299C371.174 12.3466 370.972 12.5893 370.695 12.7834C370.421 12.9751 370.079 13.071 369.669 13.071C369.319 13.071 369.009 12.9941 368.739 12.8402C368.471 12.6839 368.26 12.4531 368.107 12.1477C367.955 11.8423 367.879 11.4647 367.879 11.0149V7.54545H368.941V10.8871C368.941 11.2588 369.044 11.5547 369.25 11.7749C369.456 11.995 369.724 12.1051 370.053 12.1051C370.251 12.1051 370.449 12.0554 370.646 11.956C370.845 11.8565 371.009 11.7062 371.139 11.505C371.272 11.3037 371.337 11.0481 371.335 10.7379ZM373.827 13V7.54545H374.853V8.41193H374.91C375.009 8.11837 375.184 7.88755 375.435 7.71946C375.689 7.54901 375.975 7.46378 376.295 7.46378C376.361 7.46378 376.439 7.46615 376.529 7.47088C376.621 7.47562 376.694 7.48153 376.746 7.48864V8.50426C376.703 8.49242 376.627 8.4794 376.518 8.4652C376.409 8.44863 376.301 8.44034 376.192 8.44034C375.941 8.44034 375.717 8.49361 375.52 8.60014C375.326 8.70431 375.172 8.84991 375.059 9.03693C374.945 9.22159 374.888 9.43229 374.888 9.66903V13H373.827ZM381.752 8.87713L380.789 9.04759C380.749 8.92448 380.685 8.80729 380.598 8.69602C380.512 8.58475 380.396 8.49361 380.25 8.42259C380.103 8.35156 379.919 8.31605 379.699 8.31605C379.399 8.31605 379.148 8.38352 378.946 8.51847C378.745 8.65104 378.645 8.82268 378.645 9.03338C378.645 9.21567 378.712 9.36245 378.847 9.47372C378.982 9.58499 379.2 9.67614 379.5 9.74716L380.367 9.94602C380.869 10.062 381.243 10.2408 381.489 10.4822C381.735 10.7237 381.858 11.0374 381.858 11.4233C381.858 11.75 381.764 12.0412 381.574 12.2969C381.387 12.5502 381.126 12.7491 380.789 12.8935C380.456 13.0379 380.069 13.1101 379.628 13.1101C379.017 13.1101 378.519 12.9799 378.133 12.7195C377.747 12.4567 377.511 12.0838 377.423 11.6009L378.449 11.4446C378.513 11.7121 378.645 11.9145 378.843 12.0518C379.042 12.1868 379.302 12.2543 379.621 12.2543C379.969 12.2543 380.247 12.1821 380.456 12.0376C380.664 11.8909 380.768 11.7121 380.768 11.5014C380.768 11.331 380.704 11.1877 380.576 11.0717C380.451 10.9557 380.258 10.8681 379.998 10.8089L379.074 10.6065C378.565 10.4905 378.189 10.3059 377.945 10.0526C377.704 9.79924 377.583 9.47846 377.583 9.0902C377.583 8.76823 377.673 8.48651 377.853 8.24503C378.033 8.00355 378.281 7.81534 378.598 7.6804C378.916 7.54309 379.279 7.47443 379.689 7.47443C380.278 7.47443 380.742 7.60227 381.081 7.85795C381.419 8.11127 381.643 8.45099 381.752 8.87713Z" fill="black" fill-opacity="0.25"/>
<rect x="300.201" y="26.5" width="63.9252" height="63.9252" rx="1.5" fill="#2868A3"/>
<path d="M309.604 62.5437V61.7767L312.485 58.6233C312.823 58.254 313.101 57.9329 313.32 57.6602C313.539 57.3846 313.701 57.1261 313.806 56.8846C313.914 56.6403 313.968 56.3846 313.968 56.1176C313.968 55.8108 313.894 55.5452 313.746 55.3207C313.601 55.0963 313.402 54.923 313.15 54.8008C312.897 54.6787 312.613 54.6176 312.297 54.6176C311.962 54.6176 311.669 54.6872 311.419 54.8264C311.172 54.9628 310.981 55.1545 310.844 55.4017C310.711 55.6488 310.644 55.9386 310.644 56.271H309.638C309.638 55.7596 309.756 55.3108 309.992 54.9244C310.228 54.538 310.549 54.2369 310.955 54.021C311.364 53.8051 311.823 53.6971 312.331 53.6971C312.843 53.6971 313.296 53.8051 313.691 54.021C314.086 54.2369 314.395 54.5281 314.62 54.8946C314.844 55.2611 314.956 55.6687 314.956 56.1176C314.956 56.4386 314.898 56.7525 314.782 57.0594C314.668 57.3633 314.469 57.7028 314.185 58.0778C313.904 58.45 313.513 58.9045 313.013 59.4415L311.053 61.538V61.6062H315.11V62.5437H309.604ZM319.665 62.663C319.08 62.663 318.563 62.5594 318.114 62.352C317.668 62.1417 317.32 61.8534 317.07 61.4869C316.82 61.1176 316.696 60.6971 316.699 60.2255C316.696 59.8562 316.769 59.5153 316.917 59.2028C317.064 58.8875 317.266 58.6247 317.522 58.4145C317.78 58.2014 318.069 58.0665 318.387 58.0096V57.9585C317.969 57.8505 317.637 57.6162 317.39 57.2554C317.142 56.8917 317.02 56.4784 317.023 56.0153C317.02 55.5721 317.133 55.1758 317.36 54.8264C317.587 54.477 317.9 54.2014 318.297 53.9997C318.698 53.798 319.154 53.6971 319.665 53.6971C320.171 53.6971 320.623 53.798 321.02 53.9997C321.418 54.2014 321.731 54.477 321.958 54.8264C322.188 55.1758 322.304 55.5721 322.307 56.0153C322.304 56.4784 322.178 56.8917 321.928 57.2554C321.681 57.6162 321.353 57.8505 320.944 57.9585V58.0096C321.259 58.0665 321.543 58.2014 321.796 58.4145C322.049 58.6247 322.25 58.8875 322.401 59.2028C322.552 59.5153 322.628 59.8562 322.631 60.2255C322.628 60.6971 322.5 61.1176 322.248 61.4869C321.998 61.8534 321.65 62.1417 321.204 62.352C320.76 62.5594 320.248 62.663 319.665 62.663ZM319.665 61.7255C320.06 61.7255 320.401 61.6616 320.688 61.5338C320.975 61.4059 321.196 61.2255 321.353 60.9926C321.509 60.7596 321.588 60.4869 321.591 60.1744C321.588 59.8449 321.503 59.5537 321.336 59.3008C321.168 59.048 320.939 58.8491 320.65 58.7042C320.363 58.5594 320.034 58.4869 319.665 58.4869C319.293 58.4869 318.961 58.5594 318.668 58.7042C318.378 58.8491 318.15 59.048 317.982 59.3008C317.817 59.5537 317.736 59.8449 317.739 60.1744C317.736 60.4869 317.811 60.7596 317.965 60.9926C318.121 61.2255 318.344 61.4059 318.634 61.5338C318.924 61.6616 319.267 61.7255 319.665 61.7255ZM319.665 57.5835C319.978 57.5835 320.255 57.521 320.496 57.396C320.74 57.271 320.932 57.0963 321.071 56.8719C321.211 56.6474 321.282 56.3846 321.284 56.0835C321.282 55.788 321.212 55.5309 321.076 55.3122C320.939 55.0906 320.75 54.9202 320.509 54.8008C320.267 54.6787 319.986 54.6176 319.665 54.6176C319.338 54.6176 319.053 54.6787 318.809 54.8008C318.564 54.9202 318.375 55.0906 318.242 55.3122C318.108 55.5309 318.043 55.788 318.046 56.0835C318.043 56.3846 318.11 56.6474 318.246 56.8719C318.385 57.0963 318.577 57.271 318.821 57.396C319.066 57.521 319.347 57.5835 319.665 57.5835ZM327.162 62.663C326.804 62.6574 326.446 62.5892 326.088 62.4585C325.73 62.3278 325.403 62.1077 325.108 61.798C324.813 61.4855 324.575 61.0636 324.396 60.5324C324.217 59.9983 324.128 59.3278 324.128 58.521C324.128 57.7483 324.2 57.0636 324.345 56.467C324.49 55.8676 324.7 55.3633 324.976 54.9542C325.251 54.5423 325.584 54.2298 325.973 54.0167C326.365 53.8037 326.807 53.6971 327.298 53.6971C327.787 53.6971 328.222 53.7952 328.602 53.9912C328.986 54.1844 329.298 54.4542 329.54 54.8008C329.781 55.1474 329.938 55.5466 330.009 55.9983H328.969C328.872 55.6062 328.685 55.2809 328.406 55.0224C328.128 54.7639 327.759 54.6346 327.298 54.6346C326.622 54.6346 326.09 54.9287 325.7 55.5167C325.314 56.1048 325.119 56.9301 325.117 57.9926H325.185C325.344 57.7511 325.533 57.5452 325.751 57.3747C325.973 57.2014 326.217 57.0679 326.484 56.9741C326.751 56.8804 327.034 56.8335 327.332 56.8335C327.832 56.8335 328.29 56.9585 328.705 57.2085C329.119 57.4557 329.452 57.798 329.702 58.2355C329.952 58.6702 330.077 59.1687 330.077 59.7312C330.077 60.271 329.956 60.7653 329.715 61.2142C329.473 61.6602 329.134 62.0153 328.696 62.2795C328.261 62.5409 327.75 62.6687 327.162 62.663ZM327.162 61.7255C327.52 61.7255 327.841 61.6361 328.125 61.4571C328.412 61.2781 328.638 61.038 328.803 60.7369C328.97 60.4358 329.054 60.1005 329.054 59.7312C329.054 59.3704 328.973 59.0423 328.811 58.7469C328.652 58.4486 328.432 58.2113 328.151 58.0352C327.872 57.8591 327.554 57.771 327.196 57.771C326.926 57.771 326.675 57.825 326.442 57.9329C326.209 58.038 326.004 58.1829 325.828 58.3676C325.655 58.5523 325.519 58.7639 325.419 59.0025C325.32 59.2383 325.27 59.4869 325.27 59.7483C325.27 60.0949 325.351 60.4187 325.513 60.7199C325.678 61.021 325.902 61.2639 326.186 61.4486C326.473 61.6332 326.798 61.7255 327.162 61.7255ZM334.548 62.663C333.963 62.663 333.446 62.5594 332.997 62.352C332.551 62.1417 332.203 61.8534 331.953 61.4869C331.703 61.1176 331.579 60.6971 331.582 60.2255C331.579 59.8562 331.652 59.5153 331.799 59.2028C331.947 58.8875 332.149 58.6247 332.405 58.4145C332.663 58.2014 332.951 58.0665 333.27 58.0096V57.9585C332.852 57.8505 332.52 57.6162 332.272 57.2554C332.025 56.8917 331.903 56.4784 331.906 56.0153C331.903 55.5721 332.015 55.1758 332.243 54.8264C332.47 54.477 332.782 54.2014 333.18 53.9997C333.581 53.798 334.037 53.6971 334.548 53.6971C335.054 53.6971 335.505 53.798 335.903 53.9997C336.301 54.2014 336.613 54.477 336.841 54.8264C337.071 55.1758 337.187 55.5721 337.19 56.0153C337.187 56.4784 337.061 56.8917 336.811 57.2554C336.564 57.6162 336.235 57.8505 335.826 57.9585V58.0096C336.142 58.0665 336.426 58.2014 336.679 58.4145C336.932 58.6247 337.133 58.8875 337.284 59.2028C337.434 59.5153 337.511 59.8562 337.514 60.2255C337.511 60.6971 337.383 61.1176 337.13 61.4869C336.88 61.8534 336.532 62.1417 336.086 62.352C335.643 62.5594 335.13 62.663 334.548 62.663ZM334.548 61.7255C334.943 61.7255 335.284 61.6616 335.571 61.5338C335.858 61.4059 336.079 61.2255 336.235 60.9926C336.392 60.7596 336.471 60.4869 336.474 60.1744C336.471 59.8449 336.386 59.5537 336.218 59.3008C336.051 59.048 335.822 58.8491 335.532 58.7042C335.245 58.5594 334.917 58.4869 334.548 58.4869C334.176 58.4869 333.843 58.5594 333.551 58.7042C333.261 58.8491 333.032 59.048 332.865 59.3008C332.7 59.5537 332.619 59.8449 332.622 60.1744C332.619 60.4869 332.694 60.7596 332.848 60.9926C333.004 61.2255 333.227 61.4059 333.517 61.5338C333.807 61.6616 334.15 61.7255 334.548 61.7255ZM334.548 57.5835C334.86 57.5835 335.137 57.521 335.379 57.396C335.623 57.271 335.815 57.0963 335.954 56.8719C336.093 56.6474 336.164 56.3846 336.167 56.0835C336.164 55.788 336.095 55.5309 335.958 55.3122C335.822 55.0906 335.633 54.9202 335.392 54.8008C335.15 54.6787 334.869 54.6176 334.548 54.6176C334.221 54.6176 333.936 54.6787 333.691 54.8008C333.447 54.9202 333.258 55.0906 333.125 55.3122C332.991 55.5309 332.926 55.788 332.929 56.0835C332.926 56.3846 332.993 56.6474 333.129 56.8719C333.268 57.0963 333.46 57.271 333.704 57.396C333.949 57.521 334.23 57.5835 334.548 57.5835ZM339.658 62.5437H338.55L341.755 53.8165H342.846L346.05 62.5437H344.943L342.335 55.1971H342.266L339.658 62.5437ZM340.068 59.1346H344.533V60.0721H340.068V59.1346ZM350.205 62.663C349.643 62.663 349.141 62.5665 348.701 62.3733C348.264 62.1801 347.916 61.9116 347.657 61.5679C347.401 61.2213 347.262 60.8193 347.239 60.3619H348.313C348.336 60.6432 348.433 60.8861 348.603 61.0906C348.773 61.2923 348.996 61.4486 349.272 61.5594C349.548 61.6702 349.853 61.7255 350.188 61.7255C350.563 61.7255 350.896 61.6602 351.185 61.5295C351.475 61.3988 351.702 61.217 351.867 60.9841C352.032 60.7511 352.114 60.4812 352.114 60.1744C352.114 59.8534 352.035 59.5707 351.876 59.3264C351.717 59.0792 351.484 58.8861 351.177 58.7469C350.87 58.6077 350.495 58.538 350.052 58.538H349.353V57.6005H350.052C350.398 57.6005 350.702 57.538 350.964 57.413C351.228 57.288 351.434 57.1119 351.582 56.8846C351.732 56.6574 351.808 56.3903 351.808 56.0835C351.808 55.788 351.742 55.5309 351.612 55.3122C351.481 55.0934 351.296 54.923 351.058 54.8008C350.822 54.6787 350.543 54.6176 350.222 54.6176C349.921 54.6176 349.637 54.673 349.37 54.7838C349.106 54.8917 348.89 55.0494 348.722 55.2568C348.555 55.4613 348.464 55.7085 348.45 55.9983H347.427C347.444 55.5409 347.582 55.1403 347.84 54.7966C348.099 54.45 348.437 54.1801 348.854 53.9869C349.275 53.7937 349.737 53.6971 350.239 53.6971C350.779 53.6971 351.242 53.8065 351.629 54.0253C352.015 54.2412 352.312 54.5267 352.519 54.8818C352.727 55.2369 352.83 55.6204 352.83 56.0324C352.83 56.5238 352.701 56.9429 352.443 57.2895C352.187 57.6361 351.839 57.8761 351.398 58.0096V58.0778C351.95 58.1687 352.38 58.4031 352.69 58.7809C352.999 59.1559 353.154 59.6204 353.154 60.1744C353.154 60.6488 353.025 61.075 352.766 61.4528C352.511 61.8278 352.161 62.1233 351.718 62.3392C351.275 62.5551 350.771 62.663 350.205 62.663Z" fill="white"/>
<rect x="300.201" y="26.5" width="63.9252" height="63.9252" rx="1.5" stroke="black"/>
<rect x="373.126" y="26.5" width="63.9252" height="63.9252" rx="1.5" fill="#DEE8F7"/>
<path d="M386.228 62.5437H383.535V53.8165H386.347C387.194 53.8165 387.918 53.9912 388.521 54.3406C389.123 54.6872 389.585 55.1858 389.906 55.8363C390.227 56.4841 390.387 57.2596 390.387 58.163C390.387 59.0721 390.225 59.8548 389.901 60.5111C389.577 61.1645 389.106 61.6673 388.487 62.0196C387.867 62.369 387.114 62.5437 386.228 62.5437ZM384.592 61.6062H386.16C386.881 61.6062 387.479 61.467 387.954 61.1886C388.428 60.9102 388.782 60.5139 389.015 59.9997C389.248 59.4855 389.364 58.8733 389.364 58.163C389.364 57.4585 389.249 56.852 389.019 56.3434C388.789 55.8321 388.445 55.44 387.988 55.1673C387.531 54.8917 386.961 54.754 386.279 54.754H384.592V61.6062ZM392.16 62.5437V53.8165H397.427V54.754H393.217V57.7028H397.154V58.6403H393.217V61.6062H397.495V62.5437H392.16ZM399.332 62.5437V53.8165H404.599V54.754H400.389V57.7028H404.326V58.6403H400.389V61.6062H404.667V62.5437H399.332ZM409.146 62.663C408.56 62.663 408.043 62.5594 407.595 62.352C407.148 62.1417 406.8 61.8534 406.55 61.4869C406.3 61.1176 406.177 60.6971 406.18 60.2255C406.177 59.8562 406.249 59.5153 406.397 59.2028C406.545 58.8875 406.746 58.6247 407.002 58.4145C407.261 58.2014 407.549 58.0665 407.867 58.0096V57.9585C407.45 57.8505 407.117 57.6162 406.87 57.2554C406.623 56.8917 406.501 56.4784 406.504 56.0153C406.501 55.5721 406.613 55.1758 406.84 54.8264C407.068 54.477 407.38 54.2014 407.778 53.9997C408.178 53.798 408.634 53.6971 409.146 53.6971C409.651 53.6971 410.103 53.798 410.501 53.9997C410.898 54.2014 411.211 54.477 411.438 54.8264C411.668 55.1758 411.785 55.5721 411.788 56.0153C411.785 56.4784 411.658 56.8917 411.408 57.2554C411.161 57.6162 410.833 57.8505 410.424 57.9585V58.0096C410.739 58.0665 411.023 58.2014 411.276 58.4145C411.529 58.6247 411.731 58.8875 411.881 59.2028C412.032 59.5153 412.109 59.8562 412.112 60.2255C412.109 60.6971 411.981 61.1176 411.728 61.4869C411.478 61.8534 411.13 62.1417 410.684 62.352C410.241 62.5594 409.728 62.663 409.146 62.663ZM409.146 61.7255C409.541 61.7255 409.881 61.6616 410.168 61.5338C410.455 61.4059 410.677 61.2255 410.833 60.9926C410.989 60.7596 411.069 60.4869 411.072 60.1744C411.069 59.8449 410.984 59.5537 410.816 59.3008C410.648 59.048 410.42 58.8491 410.13 58.7042C409.843 58.5594 409.515 58.4869 409.146 58.4869C408.773 58.4869 408.441 58.5594 408.148 58.7042C407.859 58.8491 407.63 59.048 407.462 59.3008C407.298 59.5537 407.217 59.8449 407.22 60.1744C407.217 60.4869 407.292 60.7596 407.445 60.9926C407.602 61.2255 407.825 61.4059 408.114 61.5338C408.404 61.6616 408.748 61.7255 409.146 61.7255ZM409.146 57.5835C409.458 57.5835 409.735 57.521 409.977 57.396C410.221 57.271 410.413 57.0963 410.552 56.8719C410.691 56.6474 410.762 56.3846 410.765 56.0835C410.762 55.788 410.693 55.5309 410.556 55.3122C410.42 55.0906 410.231 54.9202 409.989 54.8008C409.748 54.6787 409.467 54.6176 409.146 54.6176C408.819 54.6176 408.533 54.6787 408.289 54.8008C408.045 54.9202 407.856 55.0906 407.722 55.3122C407.589 55.5309 407.523 55.788 407.526 56.0835C407.523 56.3846 407.59 56.6474 407.727 56.8719C407.866 57.0963 408.058 57.271 408.302 57.396C408.546 57.521 408.827 57.5835 409.146 57.5835ZM413.898 62.5437V53.8165H419.131V54.754H414.955V57.7028H418.739V58.6403H414.955V62.5437H413.898ZM421.06 62.5437L424.964 54.8221V54.754H420.464V53.8165H426.055V54.8051L422.168 62.5437H421.06Z" fill="black"/>
<rect x="373.126" y="26.5" width="63.9252" height="63.9252" rx="1.5" stroke="black"/>
<rect x="446.051" y="26.5" width="63.9252" height="63.9252" rx="1.5" fill="#DEADAD"/>
<path d="M457.228 62.5437H454.535V53.8165H457.347C458.194 53.8165 458.918 53.9912 459.521 54.3406C460.123 54.6872 460.585 55.1858 460.906 55.8363C461.227 56.4841 461.387 57.2596 461.387 58.163C461.387 59.0721 461.225 59.8548 460.901 60.5111C460.577 61.1645 460.106 61.6673 459.487 62.0196C458.867 62.369 458.114 62.5437 457.228 62.5437ZM455.592 61.6062H457.16C457.881 61.6062 458.479 61.467 458.954 61.1886C459.428 60.9102 459.782 60.5139 460.015 59.9997C460.248 59.4855 460.364 58.8733 460.364 58.163C460.364 57.4585 460.249 56.852 460.019 56.3434C459.789 55.8321 459.445 55.44 458.988 55.1673C458.531 54.8917 457.961 54.754 457.279 54.754H455.592V61.6062ZM463.16 62.5437V53.8165H468.427V54.754H464.217V57.7028H468.154V58.6403H464.217V61.6062H468.495V62.5437H463.16ZM470.69 62.5437H469.582L472.786 53.8165H473.877L477.082 62.5437H475.974L473.366 55.1971H473.298L470.69 62.5437ZM471.099 59.1346H475.565V60.0721H471.099V59.1346ZM481.134 62.5437H478.441V53.8165H481.254C482.1 53.8165 482.825 53.9912 483.427 54.3406C484.029 54.6872 484.491 55.1858 484.812 55.8363C485.133 56.4841 485.293 57.2596 485.293 58.163C485.293 59.0721 485.131 59.8548 484.808 60.5111C484.484 61.1645 484.012 61.6673 483.393 62.0196C482.773 62.369 482.021 62.5437 481.134 62.5437ZM479.498 61.6062H481.066C481.788 61.6062 482.386 61.467 482.86 61.1886C483.335 60.9102 483.688 60.5139 483.921 59.9997C484.154 59.4855 484.271 58.8733 484.271 58.163C484.271 57.4585 484.156 56.852 483.925 56.3434C483.695 55.8321 483.352 55.44 482.894 55.1673C482.437 54.8917 481.867 54.754 481.185 54.754H479.498V61.6062ZM487.014 62.5437H485.906L489.11 53.8165H490.201L493.406 62.5437H492.298L489.69 55.1971H489.622L487.014 62.5437ZM487.423 59.1346H491.889V60.0721H487.423V59.1346ZM497.458 62.5437H494.765V53.8165H497.578C498.424 53.8165 499.149 53.9912 499.751 54.3406C500.353 54.6872 500.815 55.1858 501.136 55.8363C501.457 56.4841 501.618 57.2596 501.618 58.163C501.618 59.0721 501.456 59.8548 501.132 60.5111C500.808 61.1645 500.336 61.6673 499.717 62.0196C499.098 62.369 498.345 62.5437 497.458 62.5437ZM495.822 61.6062H497.39C498.112 61.6062 498.71 61.467 499.184 61.1886C499.659 60.9102 500.012 60.5139 500.245 59.9997C500.478 59.4855 500.595 58.8733 500.595 58.163C500.595 57.4585 500.48 56.852 500.25 56.3434C500.02 55.8321 499.676 55.44 499.218 55.1673C498.761 54.8917 498.191 54.754 497.51 54.754H495.822V61.6062Z" fill="black"/>
<rect x="446.051" y="26.5" width="63.9252" height="63.9252" rx="1.5" stroke="black"/>
<rect x="518.476" width="52" height="18" rx="9" fill="#D5DAEE"/>
<path d="M526.699 13L524.682 5.72727H525.836L527.253 11.3594H527.321L528.794 5.72727H529.938L531.411 11.3629H531.479L532.892 5.72727H534.05L532.029 13H530.925L529.394 7.55256H529.338L527.807 13H526.699ZM536.015 13.1207C535.67 13.1207 535.357 13.0568 535.078 12.929C534.799 12.7988 534.577 12.6106 534.414 12.3643C534.253 12.1181 534.172 11.8163 534.172 11.4588C534.172 11.151 534.232 10.8977 534.35 10.6989C534.468 10.5 534.628 10.3426 534.829 10.2266C535.031 10.1106 535.256 10.023 535.504 9.96378C535.753 9.90459 536.006 9.85961 536.264 9.82884C536.591 9.79096 536.856 9.76018 537.06 9.73651C537.263 9.71046 537.411 9.66903 537.503 9.61222C537.596 9.5554 537.642 9.46307 537.642 9.33523V9.31037C537.642 9.00024 537.554 8.75994 537.379 8.58949C537.206 8.41903 536.948 8.33381 536.605 8.33381C536.247 8.33381 535.966 8.41312 535.76 8.57173C535.556 8.72798 535.415 8.90199 535.337 9.09375L534.339 8.86648C534.458 8.53504 534.631 8.26752 534.858 8.06392C535.087 7.85795 535.351 7.70881 535.65 7.61648C535.948 7.52178 536.262 7.47443 536.591 7.47443C536.809 7.47443 537.039 7.50047 537.283 7.55256C537.529 7.60227 537.759 7.6946 537.972 7.82955C538.188 7.96449 538.364 8.15743 538.501 8.40838C538.639 8.65696 538.707 8.98011 538.707 9.37784V13H537.67V12.2543H537.628C537.559 12.3916 537.456 12.5265 537.319 12.6591C537.181 12.7917 537.005 12.9018 536.79 12.9893C536.574 13.0769 536.316 13.1207 536.015 13.1207ZM536.246 12.2685C536.54 12.2685 536.791 12.2105 536.999 12.0945C537.21 11.9785 537.37 11.8269 537.479 11.6399C537.59 11.4505 537.645 11.2481 537.645 11.0327V10.3295C537.608 10.3674 537.534 10.4029 537.425 10.4361C537.319 10.4669 537.197 10.4941 537.06 10.5178C536.922 10.5391 536.788 10.5592 536.658 10.5781C536.528 10.5947 536.419 10.6089 536.332 10.6207C536.126 10.6468 535.937 10.6906 535.767 10.7521C535.599 10.8137 535.464 10.9025 535.362 11.0185C535.263 11.1321 535.213 11.2836 535.213 11.473C535.213 11.7358 535.31 11.9347 535.504 12.0696C535.698 12.2022 535.946 12.2685 536.246 12.2685ZM540.121 13V7.54545H541.148V8.41193H541.205C541.304 8.11837 541.479 7.88755 541.73 7.71946C541.983 7.54901 542.27 7.46378 542.59 7.46378C542.656 7.46378 542.734 7.46615 542.824 7.47088C542.916 7.47562 542.988 7.48153 543.041 7.48864V8.50426C542.998 8.49242 542.922 8.4794 542.813 8.4652C542.704 8.44863 542.595 8.44034 542.487 8.44034C542.236 8.44034 542.012 8.49361 541.815 8.60014C541.621 8.70431 541.467 8.84991 541.354 9.03693C541.24 9.22159 541.183 9.43229 541.183 9.66903V13H540.121ZM545.021 9.76136V13H543.959V7.54545H544.979V8.43324H545.046C545.172 8.14441 545.368 7.91241 545.636 7.73722C545.905 7.56203 546.245 7.47443 546.655 7.47443C547.026 7.47443 547.352 7.55256 547.631 7.70881C547.911 7.86269 548.127 8.09233 548.281 8.39773C548.435 8.70312 548.512 9.08073 548.512 9.53054V13H547.45V9.65838C547.45 9.26302 547.347 8.95407 547.141 8.73153C546.935 8.50663 546.652 8.39418 546.292 8.39418C546.046 8.39418 545.827 8.44744 545.636 8.55398C545.446 8.66051 545.296 8.81676 545.185 9.02273C545.076 9.22633 545.021 9.47254 545.021 9.76136ZM549.936 13V7.54545H550.998V13H549.936ZM550.472 6.70384C550.288 6.70384 550.129 6.64228 549.996 6.51918C549.866 6.3937 549.801 6.24455 549.801 6.07173C549.801 5.89654 549.866 5.7474 549.996 5.62429C550.129 5.49882 550.288 5.43608 550.472 5.43608C550.657 5.43608 550.814 5.49882 550.944 5.62429C551.077 5.7474 551.143 5.89654 551.143 6.07173C551.143 6.24455 551.077 6.3937 550.944 6.51918C550.814 6.64228 550.657 6.70384 550.472 6.70384ZM553.488 9.76136V13H552.426V7.54545H553.445V8.43324H553.513C553.638 8.14441 553.835 7.91241 554.102 7.73722C554.372 7.56203 554.712 7.47443 555.121 7.47443C555.493 7.47443 555.819 7.55256 556.098 7.70881C556.377 7.86269 556.594 8.09233 556.748 8.39773C556.902 8.70312 556.979 9.08073 556.979 9.53054V13H555.917V9.65838C555.917 9.26302 555.814 8.95407 555.608 8.73153C555.402 8.50663 555.119 8.39418 554.759 8.39418C554.513 8.39418 554.294 8.44744 554.102 8.55398C553.913 8.66051 553.763 8.81676 553.651 9.02273C553.542 9.22633 553.488 9.47254 553.488 9.76136ZM560.69 15.1591C560.256 15.1591 559.884 15.1023 559.571 14.9886C559.261 14.875 559.008 14.7247 558.811 14.5376C558.615 14.3506 558.468 14.1458 558.371 13.9233L559.283 13.5469C559.347 13.651 559.433 13.7611 559.539 13.8771C559.648 13.9955 559.795 14.0961 559.979 14.179C560.166 14.2618 560.407 14.3033 560.7 14.3033C561.103 14.3033 561.435 14.205 561.698 14.0085C561.961 13.8144 562.092 13.5043 562.092 13.0781V12.0057H562.025C561.961 12.1217 561.869 12.2507 561.748 12.3928C561.63 12.5348 561.466 12.6579 561.258 12.7621C561.05 12.8662 560.778 12.9183 560.445 12.9183C560.014 12.9183 559.626 12.8177 559.28 12.6165C558.937 12.4129 558.664 12.1134 558.463 11.718C558.264 11.3203 558.165 10.8314 558.165 10.2514C558.165 9.6714 558.263 9.17424 558.46 8.75994C558.658 8.34564 558.931 8.02841 559.276 7.80824C559.622 7.5857 560.014 7.47443 560.452 7.47443C560.79 7.47443 561.064 7.53125 561.272 7.64489C561.48 7.75616 561.643 7.88636 561.759 8.03551C561.877 8.18466 561.968 8.31605 562.032 8.42969H562.11V7.54545H563.151V13.1207C563.151 13.5895 563.042 13.9742 562.824 14.2749C562.606 14.5755 562.311 14.7981 561.94 14.9425C561.57 15.0869 561.154 15.1591 560.69 15.1591ZM560.679 12.0376C560.984 12.0376 561.242 11.9666 561.453 11.8246C561.666 11.6802 561.827 11.4742 561.936 11.2067C562.047 10.9368 562.103 10.6136 562.103 10.2372C562.103 9.87027 562.049 9.54711 561.94 9.26776C561.831 8.9884 561.671 8.7706 561.46 8.61435C561.25 8.45573 560.989 8.37642 560.679 8.37642C560.359 8.37642 560.093 8.45928 559.88 8.625C559.667 8.78835 559.506 9.01089 559.397 9.29261C559.291 9.57434 559.237 9.8892 559.237 10.2372C559.237 10.5947 559.292 10.9084 559.401 11.1783C559.51 11.4482 559.67 11.6589 559.884 11.8104C560.099 11.9619 560.364 12.0376 560.679 12.0376Z" fill="black" fill-opacity="0.25"/>
<rect x="518.976" y="26.5" width="63.9252" height="63.9252" rx="1.5" fill="#CA5B5B"/>
<path d="M534.556 56.6186H533.499C533.436 56.3146 533.327 56.0475 533.171 55.8174C533.017 55.5873 532.83 55.3941 532.608 55.2379C532.389 55.0788 532.147 54.9595 531.879 54.8799C531.612 54.8004 531.334 54.7606 531.044 54.7606C530.516 54.7606 530.037 54.8941 529.608 55.1612C529.182 55.4282 528.843 55.8217 528.59 56.3416C528.34 56.8615 528.215 57.4992 528.215 58.2549C528.215 59.0106 528.34 59.6484 528.59 60.1683C528.843 60.6882 529.182 61.0816 529.608 61.3487C530.037 61.6157 530.516 61.7492 531.044 61.7492C531.334 61.7492 531.612 61.7095 531.879 61.6299C532.147 61.5504 532.389 61.4325 532.608 61.2762C532.83 61.1171 533.017 60.9225 533.171 60.6924C533.327 60.4595 533.436 60.1924 533.499 59.8913H534.556C534.476 60.3373 534.331 60.7365 534.121 61.0887C533.911 61.441 533.649 61.7407 533.337 61.9879C533.024 62.2322 532.674 62.4183 532.284 62.5461C531.898 62.674 531.485 62.7379 531.044 62.7379C530.3 62.7379 529.638 62.5561 529.058 62.1924C528.479 61.8288 528.023 61.3117 527.691 60.6413C527.358 59.9708 527.192 59.1754 527.192 58.2549C527.192 57.3345 527.358 56.539 527.691 55.8686C528.023 55.1981 528.479 54.6811 529.058 54.3174C529.638 53.9538 530.3 53.772 531.044 53.772C531.485 53.772 531.898 53.8359 532.284 53.9637C532.674 54.0916 533.024 54.2791 533.337 54.5262C533.649 54.7705 533.911 55.0688 534.121 55.4211C534.331 55.7705 534.476 56.1697 534.556 56.6186ZM536.621 62.6186H535.513L538.718 53.8913H539.809L543.013 62.6186H541.905L539.297 55.272H539.229L536.621 62.6186ZM537.03 59.2095H541.496V60.147H537.03V59.2095ZM546.947 62.7379C546.447 62.7379 545.996 62.6384 545.596 62.4396C545.195 62.2407 544.874 61.968 544.633 61.6214C544.391 61.2748 544.259 60.8799 544.236 60.4367H545.259C545.299 60.8316 545.478 61.1583 545.796 61.4169C546.117 61.6725 546.501 61.8004 546.947 61.8004C547.305 61.8004 547.623 61.7166 547.901 61.549C548.182 61.3813 548.403 61.1512 548.562 60.8586C548.724 60.5632 548.805 60.2294 548.805 59.8572C548.805 59.4765 548.721 59.137 548.553 58.8387C548.388 58.5376 548.161 58.3004 547.871 58.1271C547.582 57.9538 547.251 57.8657 546.878 57.8629C546.611 57.86 546.337 57.9012 546.056 57.9865C545.775 58.0688 545.543 58.1754 545.361 58.3061L544.373 58.1867L544.901 53.8913H549.435V54.8288H545.788L545.481 57.4027H545.532C545.711 57.2606 545.935 57.1427 546.205 57.049C546.475 56.9552 546.756 56.9083 547.049 56.9083C547.583 56.9083 548.059 57.0362 548.476 57.2919C548.897 57.5447 549.226 57.8913 549.465 58.3316C549.707 58.772 549.827 59.2748 549.827 59.8402C549.827 60.397 549.702 60.8941 549.452 61.3316C549.205 61.7663 548.864 62.11 548.43 62.3629C547.995 62.6129 547.501 62.7379 546.947 62.7379ZM551.674 62.6186V53.8913H554.725C555.333 53.8913 555.834 53.9964 556.229 54.2066C556.624 54.414 556.918 54.6938 557.111 55.0461C557.304 55.3955 557.401 55.7833 557.401 56.2095C557.401 56.5845 557.334 56.8941 557.201 57.1384C557.07 57.3828 556.897 57.5759 556.681 57.718C556.468 57.86 556.236 57.9652 555.986 58.0333V58.1186C556.253 58.1356 556.522 58.2294 556.791 58.3998C557.061 58.5703 557.287 58.8146 557.469 59.1328C557.651 59.4509 557.742 59.8402 557.742 60.3004C557.742 60.7379 557.642 61.1313 557.443 61.4808C557.245 61.8302 556.931 62.1072 556.502 62.3117C556.073 62.5163 555.514 62.6186 554.827 62.6186H551.674ZM552.73 61.6811H554.827C555.517 61.6811 556.007 61.5475 556.297 61.2805C556.59 61.0106 556.736 60.6839 556.736 60.3004C556.736 60.0049 556.661 59.7322 556.51 59.4822C556.36 59.2294 556.145 59.0277 555.867 58.8771C555.588 58.7237 555.259 58.647 554.878 58.647H552.73V61.6811ZM552.73 57.7265H554.691C555.009 57.7265 555.296 57.664 555.551 57.539C555.81 57.414 556.014 57.2379 556.165 57.0106C556.318 56.7833 556.395 56.5163 556.395 56.2095C556.395 55.8259 556.262 55.5007 555.995 55.2336C555.727 54.9637 555.304 54.8288 554.725 54.8288H552.73V57.7265ZM562.052 62.7379C561.552 62.7379 561.102 62.6384 560.701 62.4396C560.301 62.2407 559.98 61.968 559.738 61.6214C559.497 61.2748 559.365 60.8799 559.342 60.4367H560.365C560.404 60.8316 560.583 61.1583 560.902 61.4169C561.223 61.6725 561.606 61.8004 562.052 61.8004C562.41 61.8004 562.728 61.7166 563.007 61.549C563.288 61.3813 563.508 61.1512 563.667 60.8586C563.829 60.5632 563.91 60.2294 563.91 59.8572C563.91 59.4765 563.826 59.137 563.659 58.8387C563.494 58.5376 563.267 58.3004 562.977 58.1271C562.687 57.9538 562.356 57.8657 561.984 57.8629C561.717 57.86 561.443 57.9012 561.161 57.9865C560.88 58.0688 560.649 58.1754 560.467 58.3061L559.478 58.1867L560.007 53.8913H564.541V54.8288H560.893L560.586 57.4027H560.637C560.816 57.2606 561.041 57.1427 561.311 57.049C561.58 56.9552 561.862 56.9083 562.154 56.9083C562.688 56.9083 563.164 57.0362 563.582 57.2919C564.002 57.5447 564.332 57.8913 564.571 58.3316C564.812 58.772 564.933 59.2748 564.933 59.8402C564.933 60.397 564.808 60.8941 564.558 61.3316C564.311 61.7663 563.97 62.11 563.535 62.3629C563.1 62.6129 562.606 62.7379 562.052 62.7379ZM566.779 62.6186V53.8913H569.83C570.438 53.8913 570.939 53.9964 571.334 54.2066C571.729 54.414 572.023 54.6938 572.216 55.0461C572.41 55.3955 572.506 55.7833 572.506 56.2095C572.506 56.5845 572.439 56.8941 572.306 57.1384C572.175 57.3828 572.002 57.5759 571.786 57.718C571.573 57.86 571.341 57.9652 571.091 58.0333V58.1186C571.359 58.1356 571.627 58.2294 571.897 58.3998C572.167 58.5703 572.393 58.8146 572.574 59.1328C572.756 59.4509 572.847 59.8402 572.847 60.3004C572.847 60.7379 572.748 61.1313 572.549 61.4808C572.35 61.8302 572.036 62.1072 571.607 62.3117C571.178 62.5163 570.62 62.6186 569.932 62.6186H566.779ZM567.836 61.6811H569.932C570.623 61.6811 571.113 61.5475 571.403 61.2805C571.695 61.0106 571.841 60.6839 571.841 60.3004C571.841 60.0049 571.766 59.7322 571.616 59.4822C571.465 59.2294 571.251 59.0277 570.972 58.8771C570.694 58.7237 570.364 58.647 569.984 58.647H567.836V61.6811ZM567.836 57.7265H569.796C570.114 57.7265 570.401 57.664 570.657 57.539C570.915 57.414 571.12 57.2379 571.27 57.0106C571.424 56.7833 571.501 56.5163 571.501 56.2095C571.501 55.8259 571.367 55.5007 571.1 55.2336C570.833 54.9637 570.41 54.8288 569.83 54.8288H567.836V57.7265Z" fill="white"/>
<rect x="518.976" y="26.5" width="63.9252" height="63.9252" rx="1.5" stroke="black"/>
</svg>
