<svg width="79" height="79" viewBox="0 0 79 79" fill="none" xmlns="http://www.w3.org/2000/svg">
<circle cx="39.5" cy="39.5" r="38.8828" fill="#2868A3" stroke="#F8F8F8" stroke-width="1.23438"/>
<path d="M39.6144 30.4245C32.9019 25.5637 25.0315 23.2492 18.7823 24.8694C9.06067 27.4156 6.97705 38.7571 13.9215 49.868C18.7827 57.7375 27.1156 63.5242 34.9851 65.3761C47.0214 68.1539 59.289 59.3586 65.3074 49.868C72.2516 38.7573 70.168 27.4156 60.4465 24.8694C54.1967 23.2492 46.327 25.5636 39.6144 30.4245Z" fill="#F8F8F8"/>
<path d="M46.2146 51.3053L40.8905 45.056L35.5663 51.3053L40.8905 61.7217L46.2146 51.3053Z" fill="#1B1B1B"/>
<path d="M24.4565 46.4443C28.3913 46.4443 31.6318 43.2038 31.6318 39.269C31.6318 35.3343 28.3913 32.0938 24.4565 32.0938C20.5218 32.0938 17.2812 35.3343 17.2812 39.269C17.2812 43.2038 20.5218 46.4443 24.4565 46.4443Z" fill="#1B1B1B"/>
<path d="M55.4733 46.4443C59.408 46.4443 62.6486 43.2038 62.6486 39.269C62.6486 35.3343 59.408 32.0938 55.4733 32.0938C51.5385 32.0938 48.298 35.3343 48.298 39.269C48.298 43.2038 51.5385 46.4443 55.4733 46.4443Z" fill="#1B1B1B"/>
</svg>
