<svg width="289" height="199" viewBox="0 0 289 199" fill="none" xmlns="http://www.w3.org/2000/svg">
<rect width="139" height="44" rx="8" fill="#36C3C3"/>
<path d="M44.9727 25H40.543V15.1357H44.8564C45.8089 15.1357 46.5563 15.3545 47.0986 15.792C47.641 16.2295 47.9121 16.8311 47.9121 17.5967C47.9121 18.1208 47.7412 18.5833 47.3994 18.9844C47.0576 19.3854 46.6338 19.6247 46.1279 19.7021V19.8252C46.7796 19.8753 47.3174 20.1214 47.7412 20.5635C48.1696 21.0055 48.3838 21.5433 48.3838 22.1768C48.3838 23.0426 48.0785 23.7308 47.4678 24.2412C46.8571 24.7471 46.0254 25 44.9727 25ZM42.6074 16.7148V19.2236H44.1592C44.7152 19.2236 45.1413 19.1143 45.4375 18.8955C45.7337 18.6768 45.8818 18.3691 45.8818 17.9727C45.8818 17.5762 45.7451 17.2686 45.4717 17.0498C45.2028 16.8265 44.8223 16.7148 44.3301 16.7148H42.6074ZM42.6074 23.4209H44.4463C45.0387 23.4209 45.4922 23.3001 45.8066 23.0586C46.1211 22.8125 46.2783 22.4593 46.2783 21.999C46.2783 21.5479 46.1165 21.2061 45.793 20.9736C45.474 20.7367 45.0091 20.6182 44.3984 20.6182H42.6074V23.4209ZM52.335 15.1357V21.3838C52.335 22.0127 52.515 22.5094 52.875 22.874C53.2396 23.2386 53.7477 23.4209 54.3994 23.4209C55.0557 23.4209 55.5638 23.2386 55.9238 22.874C56.2884 22.5094 56.4707 22.0127 56.4707 21.3838V15.1357H58.5352V21.5957C58.5352 22.694 58.1592 23.5781 57.4072 24.248C56.6598 24.918 55.6572 25.2529 54.3994 25.2529C53.1462 25.2529 52.1436 24.918 51.3916 24.248C50.6442 23.5781 50.2705 22.694 50.2705 21.5957V15.1357H52.335ZM65.3984 25H63.334V16.8994H60.374V15.1357H68.3584V16.8994H65.3984V25ZM74.6406 25H72.5762V16.8994H69.6162V15.1357H77.6006V16.8994H74.6406V25ZM83.3975 14.8828C84.8558 14.8828 86.0088 15.3477 86.8564 16.2773C87.7087 17.207 88.1348 18.4694 88.1348 20.0645C88.1348 21.6641 87.7087 22.9287 86.8564 23.8584C86.0088 24.7881 84.8558 25.2529 83.3975 25.2529C81.9346 25.2529 80.777 24.7881 79.9248 23.8584C79.0726 22.9287 78.6465 21.6641 78.6465 20.0645C78.6465 18.4694 79.0749 17.207 79.9316 16.2773C80.7884 15.3477 81.9437 14.8828 83.3975 14.8828ZM85.3115 17.6104C84.8376 16.9997 84.1995 16.6943 83.3975 16.6943C82.5954 16.6943 81.9551 16.9997 81.4766 17.6104C80.998 18.2165 80.7588 19.0345 80.7588 20.0645C80.7588 21.0944 80.9958 21.9147 81.4697 22.5254C81.9482 23.1361 82.5908 23.4414 83.3975 23.4414C84.1995 23.4414 84.8376 23.1361 85.3115 22.5254C85.79 21.9147 86.0293 21.0944 86.0293 20.0645C86.0293 19.0345 85.79 18.2165 85.3115 17.6104ZM92.0654 25H90.0898V15.1357H91.8125L96.3516 21.2812H96.4746V15.1357H98.4502V25H96.7412L92.1885 18.8271H92.0654V25Z" fill="white"/>
<rect x="156" width="44" height="44" rx="8" fill="#36C3C3"/>
<path d="M188 22.5L169 22.5" stroke="white" stroke-width="3" stroke-linecap="round"/>
<path d="M178.5 32L178.5 13" stroke="white" stroke-width="3" stroke-linecap="round"/>
<path d="M243 22.5L224 22.5" stroke="#36C3C3" stroke-width="3" stroke-linecap="round"/>
<path d="M233.5 32L233.5 13" stroke="#36C3C3" stroke-width="3" stroke-linecap="round"/>
<rect x="211.5" y="0.5" width="43" height="43" rx="7.5" stroke="#36C3C3"/>
<rect x="0.5" y="55.5" width="138" height="43" rx="7.5" stroke="#36C3C3"/>
<path d="M44.9727 80H40.543V70.1357H44.8564C45.8089 70.1357 46.5563 70.3545 47.0986 70.792C47.641 71.2295 47.9121 71.8311 47.9121 72.5967C47.9121 73.1208 47.7412 73.5833 47.3994 73.9844C47.0576 74.3854 46.6338 74.6247 46.1279 74.7021V74.8252C46.7796 74.8753 47.3174 75.1214 47.7412 75.5635C48.1696 76.0055 48.3838 76.5433 48.3838 77.1768C48.3838 78.0426 48.0785 78.7308 47.4678 79.2412C46.8571 79.7471 46.0254 80 44.9727 80ZM42.6074 71.7148V74.2236H44.1592C44.7152 74.2236 45.1413 74.1143 45.4375 73.8955C45.7337 73.6768 45.8818 73.3691 45.8818 72.9727C45.8818 72.5762 45.7451 72.2686 45.4717 72.0498C45.2028 71.8265 44.8223 71.7148 44.3301 71.7148H42.6074ZM42.6074 78.4209H44.4463C45.0387 78.4209 45.4922 78.3001 45.8066 78.0586C46.1211 77.8125 46.2783 77.4593 46.2783 76.999C46.2783 76.5479 46.1165 76.2061 45.793 75.9736C45.474 75.7367 45.0091 75.6182 44.3984 75.6182H42.6074V78.4209ZM52.335 70.1357V76.3838C52.335 77.0127 52.515 77.5094 52.875 77.874C53.2396 78.2386 53.7477 78.4209 54.3994 78.4209C55.0557 78.4209 55.5638 78.2386 55.9238 77.874C56.2884 77.5094 56.4707 77.0127 56.4707 76.3838V70.1357H58.5352V76.5957C58.5352 77.694 58.1592 78.5781 57.4072 79.248C56.6598 79.918 55.6572 80.2529 54.3994 80.2529C53.1462 80.2529 52.1436 79.918 51.3916 79.248C50.6442 78.5781 50.2705 77.694 50.2705 76.5957V70.1357H52.335ZM65.3984 80H63.334V71.8994H60.374V70.1357H68.3584V71.8994H65.3984V80ZM74.6406 80H72.5762V71.8994H69.6162V70.1357H77.6006V71.8994H74.6406V80ZM83.3975 69.8828C84.8558 69.8828 86.0088 70.3477 86.8564 71.2773C87.7087 72.207 88.1348 73.4694 88.1348 75.0645C88.1348 76.6641 87.7087 77.9287 86.8564 78.8584C86.0088 79.7881 84.8558 80.2529 83.3975 80.2529C81.9346 80.2529 80.777 79.7881 79.9248 78.8584C79.0726 77.9287 78.6465 76.6641 78.6465 75.0645C78.6465 73.4694 79.0749 72.207 79.9316 71.2773C80.7884 70.3477 81.9437 69.8828 83.3975 69.8828ZM85.3115 72.6104C84.8376 71.9997 84.1995 71.6943 83.3975 71.6943C82.5954 71.6943 81.9551 71.9997 81.4766 72.6104C80.998 73.2165 80.7588 74.0345 80.7588 75.0645C80.7588 76.0944 80.9958 76.9147 81.4697 77.5254C81.9482 78.1361 82.5908 78.4414 83.3975 78.4414C84.1995 78.4414 84.8376 78.1361 85.3115 77.5254C85.79 76.9147 86.0293 76.0944 86.0293 75.0645C86.0293 74.0345 85.79 73.2165 85.3115 72.6104ZM92.0654 80H90.0898V70.1357H91.8125L96.3516 76.2812H96.4746V70.1357H98.4502V80H96.7412L92.1885 73.8271H92.0654V80Z" fill="#36C3C3"/>
<g clip-path="url(#clip0_736_3970)">
<path d="M172.848 69H163.152C162.75 69 162.424 69.3256 162.424 69.7273V84.2727C162.424 84.5523 162.584 84.8071 162.836 84.9282C163.088 85.0494 163.388 85.0153 163.606 84.8406L168 81.3253L172.394 84.8406C172.526 84.9458 172.686 85 172.849 85C172.956 85 173.063 84.9764 173.164 84.9282C173.416 84.8072 173.576 84.5523 173.576 84.2727V69.7273C173.576 69.3256 173.25 69 172.848 69ZM172.121 82.7595L168.454 79.826C168.322 79.7198 168.161 79.6667 168 79.6667C167.839 79.6667 167.679 79.7198 167.546 79.826L163.879 82.7595V70.4545H172.121V82.7595Z" fill="#36C3C3"/>
</g>
<path d="M189.626 81.5H185.196V71.6357H189.51C190.462 71.6357 191.21 71.8545 191.752 72.292C192.294 72.7295 192.565 73.3311 192.565 74.0967C192.565 74.6208 192.395 75.0833 192.053 75.4844C191.711 75.8854 191.287 76.1247 190.781 76.2021V76.3252C191.433 76.3753 191.971 76.6214 192.395 77.0635C192.823 77.5055 193.037 78.0433 193.037 78.6768C193.037 79.5426 192.732 80.2308 192.121 80.7412C191.51 81.2471 190.679 81.5 189.626 81.5ZM187.261 73.2148V75.7236H188.812C189.368 75.7236 189.795 75.6143 190.091 75.3955C190.387 75.1768 190.535 74.8691 190.535 74.4727C190.535 74.0762 190.398 73.7686 190.125 73.5498C189.856 73.3265 189.476 73.2148 188.983 73.2148H187.261ZM187.261 79.9209H189.1C189.692 79.9209 190.146 79.8001 190.46 79.5586C190.774 79.3125 190.932 78.9593 190.932 78.499C190.932 78.0479 190.77 77.7061 190.446 77.4736C190.127 77.2367 189.662 77.1182 189.052 77.1182H187.261V79.9209ZM196.988 71.6357V77.8838C196.988 78.5127 197.168 79.0094 197.528 79.374C197.893 79.7386 198.401 79.9209 199.053 79.9209C199.709 79.9209 200.217 79.7386 200.577 79.374C200.942 79.0094 201.124 78.5127 201.124 77.8838V71.6357H203.188V78.0957C203.188 79.194 202.812 80.0781 202.061 80.748C201.313 81.418 200.311 81.7529 199.053 81.7529C197.799 81.7529 196.797 81.418 196.045 80.748C195.298 80.0781 194.924 79.194 194.924 78.0957V71.6357H196.988ZM210.052 81.5H207.987V73.3994H205.027V71.6357H213.012V73.3994H210.052V81.5ZM219.294 81.5H217.229V73.3994H214.27V71.6357H222.254V73.3994H219.294V81.5ZM228.051 71.3828C229.509 71.3828 230.662 71.8477 231.51 72.7773C232.362 73.707 232.788 74.9694 232.788 76.5645C232.788 78.1641 232.362 79.4287 231.51 80.3584C230.662 81.2881 229.509 81.7529 228.051 81.7529C226.588 81.7529 225.43 81.2881 224.578 80.3584C223.726 79.4287 223.3 78.1641 223.3 76.5645C223.3 74.9694 223.728 73.707 224.585 72.7773C225.442 71.8477 226.597 71.3828 228.051 71.3828ZM229.965 74.1104C229.491 73.4997 228.853 73.1943 228.051 73.1943C227.249 73.1943 226.608 73.4997 226.13 74.1104C225.651 74.7165 225.412 75.5345 225.412 76.5645C225.412 77.5944 225.649 78.4147 226.123 79.0254C226.602 79.6361 227.244 79.9414 228.051 79.9414C228.853 79.9414 229.491 79.6361 229.965 79.0254C230.443 78.4147 230.683 77.5944 230.683 76.5645C230.683 75.5345 230.443 74.7165 229.965 74.1104ZM236.719 81.5H234.743V71.6357H236.466L241.005 77.7812H241.128V71.6357H243.104V81.5H241.395L236.842 75.3271H236.719V81.5Z" fill="#36C3C3"/>
<rect x="150.5" y="55.5" width="104" height="43" rx="7.5" stroke="#36C3C3"/>
<rect y="109" width="139" height="44" rx="8" fill="#2A2B2E"/>
<path d="M44.9727 134H40.543V124.136H44.8564C45.8089 124.136 46.5563 124.354 47.0986 124.792C47.641 125.229 47.9121 125.831 47.9121 126.597C47.9121 127.121 47.7412 127.583 47.3994 127.984C47.0576 128.385 46.6338 128.625 46.1279 128.702V128.825C46.7796 128.875 47.3174 129.121 47.7412 129.563C48.1696 130.006 48.3838 130.543 48.3838 131.177C48.3838 132.043 48.0785 132.731 47.4678 133.241C46.8571 133.747 46.0254 134 44.9727 134ZM42.6074 125.715V128.224H44.1592C44.7152 128.224 45.1413 128.114 45.4375 127.896C45.7337 127.677 45.8818 127.369 45.8818 126.973C45.8818 126.576 45.7451 126.269 45.4717 126.05C45.2028 125.826 44.8223 125.715 44.3301 125.715H42.6074ZM42.6074 132.421H44.4463C45.0387 132.421 45.4922 132.3 45.8066 132.059C46.1211 131.812 46.2783 131.459 46.2783 130.999C46.2783 130.548 46.1165 130.206 45.793 129.974C45.474 129.737 45.0091 129.618 44.3984 129.618H42.6074V132.421ZM52.335 124.136V130.384C52.335 131.013 52.515 131.509 52.875 131.874C53.2396 132.239 53.7477 132.421 54.3994 132.421C55.0557 132.421 55.5638 132.239 55.9238 131.874C56.2884 131.509 56.4707 131.013 56.4707 130.384V124.136H58.5352V130.596C58.5352 131.694 58.1592 132.578 57.4072 133.248C56.6598 133.918 55.6572 134.253 54.3994 134.253C53.1462 134.253 52.1436 133.918 51.3916 133.248C50.6442 132.578 50.2705 131.694 50.2705 130.596V124.136H52.335ZM65.3984 134H63.334V125.899H60.374V124.136H68.3584V125.899H65.3984V134ZM74.6406 134H72.5762V125.899H69.6162V124.136H77.6006V125.899H74.6406V134ZM83.3975 123.883C84.8558 123.883 86.0088 124.348 86.8564 125.277C87.7087 126.207 88.1348 127.469 88.1348 129.064C88.1348 130.664 87.7087 131.929 86.8564 132.858C86.0088 133.788 84.8558 134.253 83.3975 134.253C81.9346 134.253 80.777 133.788 79.9248 132.858C79.0726 131.929 78.6465 130.664 78.6465 129.064C78.6465 127.469 79.0749 126.207 79.9316 125.277C80.7884 124.348 81.9437 123.883 83.3975 123.883ZM85.3115 126.61C84.8376 126 84.1995 125.694 83.3975 125.694C82.5954 125.694 81.9551 126 81.4766 126.61C80.998 127.216 80.7588 128.035 80.7588 129.064C80.7588 130.094 80.9958 130.915 81.4697 131.525C81.9482 132.136 82.5908 132.441 83.3975 132.441C84.1995 132.441 84.8376 132.136 85.3115 131.525C85.79 130.915 86.0293 130.094 86.0293 129.064C86.0293 128.035 85.79 127.216 85.3115 126.61ZM92.0654 134H90.0898V124.136H91.8125L96.3516 130.281H96.4746V124.136H98.4502V134H96.7412L92.1885 127.827H92.0654V134Z" fill="white"/>
<rect x="150.5" y="109.5" width="138" height="43" rx="7.5" stroke="black"/>
<path d="M194.973 134H190.543V124.136H194.856C195.809 124.136 196.556 124.354 197.099 124.792C197.641 125.229 197.912 125.831 197.912 126.597C197.912 127.121 197.741 127.583 197.399 127.984C197.058 128.385 196.634 128.625 196.128 128.702V128.825C196.78 128.875 197.317 129.121 197.741 129.563C198.17 130.006 198.384 130.543 198.384 131.177C198.384 132.043 198.078 132.731 197.468 133.241C196.857 133.747 196.025 134 194.973 134ZM192.607 125.715V128.224H194.159C194.715 128.224 195.141 128.114 195.438 127.896C195.734 127.677 195.882 127.369 195.882 126.973C195.882 126.576 195.745 126.269 195.472 126.05C195.203 125.826 194.822 125.715 194.33 125.715H192.607ZM192.607 132.421H194.446C195.039 132.421 195.492 132.3 195.807 132.059C196.121 131.812 196.278 131.459 196.278 130.999C196.278 130.548 196.117 130.206 195.793 129.974C195.474 129.737 195.009 129.618 194.398 129.618H192.607V132.421ZM202.335 124.136V130.384C202.335 131.013 202.515 131.509 202.875 131.874C203.24 132.239 203.748 132.421 204.399 132.421C205.056 132.421 205.564 132.239 205.924 131.874C206.288 131.509 206.471 131.013 206.471 130.384V124.136H208.535V130.596C208.535 131.694 208.159 132.578 207.407 133.248C206.66 133.918 205.657 134.253 204.399 134.253C203.146 134.253 202.144 133.918 201.392 133.248C200.644 132.578 200.271 131.694 200.271 130.596V124.136H202.335ZM215.398 134H213.334V125.899H210.374V124.136H218.358V125.899H215.398V134ZM224.641 134H222.576V125.899H219.616V124.136H227.601V125.899H224.641V134ZM233.397 123.883C234.856 123.883 236.009 124.348 236.856 125.277C237.709 126.207 238.135 127.469 238.135 129.064C238.135 130.664 237.709 131.929 236.856 132.858C236.009 133.788 234.856 134.253 233.397 134.253C231.935 134.253 230.777 133.788 229.925 132.858C229.073 131.929 228.646 130.664 228.646 129.064C228.646 127.469 229.075 126.207 229.932 125.277C230.788 124.348 231.944 123.883 233.397 123.883ZM235.312 126.61C234.838 126 234.2 125.694 233.397 125.694C232.595 125.694 231.955 126 231.477 126.61C230.998 127.216 230.759 128.035 230.759 129.064C230.759 130.094 230.996 130.915 231.47 131.525C231.948 132.136 232.591 132.441 233.397 132.441C234.2 132.441 234.838 132.136 235.312 131.525C235.79 130.915 236.029 130.094 236.029 129.064C236.029 128.035 235.79 127.216 235.312 126.61ZM242.065 134H240.09V124.136H241.812L246.352 130.281H246.475V124.136H248.45V134H246.741L242.188 127.827H242.065V134Z" fill="black"/>
<rect y="163" width="139" height="36" rx="8" fill="#8D8D8D"/>
<path d="M48.4766 184H44.6797V175.545H48.377C49.1934 175.545 49.834 175.732 50.2988 176.107C50.7637 176.482 50.9961 176.998 50.9961 177.654C50.9961 178.104 50.8496 178.5 50.5566 178.844C50.2637 179.188 49.9004 179.393 49.4668 179.459V179.564C50.0254 179.607 50.4863 179.818 50.8496 180.197C51.2168 180.576 51.4004 181.037 51.4004 181.58C51.4004 182.322 51.1387 182.912 50.6152 183.35C50.0918 183.783 49.3789 184 48.4766 184ZM46.4492 176.898V179.049H47.7793C48.2559 179.049 48.6211 178.955 48.875 178.768C49.1289 178.58 49.2559 178.316 49.2559 177.977C49.2559 177.637 49.1387 177.373 48.9043 177.186C48.6738 176.994 48.3477 176.898 47.9258 176.898H46.4492ZM46.4492 182.646H48.0254C48.5332 182.646 48.9219 182.543 49.1914 182.336C49.4609 182.125 49.5957 181.822 49.5957 181.428C49.5957 181.041 49.457 180.748 49.1797 180.549C48.9062 180.346 48.5078 180.244 47.9844 180.244H46.4492V182.646ZM54.7871 175.545V180.9C54.7871 181.439 54.9414 181.865 55.25 182.178C55.5625 182.49 55.998 182.646 56.5566 182.646C57.1191 182.646 57.5547 182.49 57.8633 182.178C58.1758 181.865 58.332 181.439 58.332 180.9V175.545H60.1016V181.082C60.1016 182.023 59.7793 182.781 59.1348 183.355C58.4941 183.93 57.6348 184.217 56.5566 184.217C55.4824 184.217 54.623 183.93 53.9785 183.355C53.3379 182.781 53.0176 182.023 53.0176 181.082V175.545H54.7871ZM65.9844 184H64.2148V177.057H61.6777V175.545H68.5215V177.057H65.9844V184ZM73.9062 184H72.1367V177.057H69.5996V175.545H76.4434V177.057H73.9062V184ZM81.4121 175.328C82.6621 175.328 83.6504 175.727 84.377 176.523C85.1074 177.32 85.4727 178.402 85.4727 179.77C85.4727 181.141 85.1074 182.225 84.377 183.021C83.6504 183.818 82.6621 184.217 81.4121 184.217C80.1582 184.217 79.166 183.818 78.4355 183.021C77.7051 182.225 77.3398 181.141 77.3398 179.77C77.3398 178.402 77.707 177.32 78.4414 176.523C79.1758 175.727 80.166 175.328 81.4121 175.328ZM83.0527 177.666C82.6465 177.143 82.0996 176.881 81.4121 176.881C80.7246 176.881 80.1758 177.143 79.7656 177.666C79.3555 178.186 79.1504 178.887 79.1504 179.77C79.1504 180.652 79.3535 181.355 79.7598 181.879C80.1699 182.402 80.7207 182.664 81.4121 182.664C82.0996 182.664 82.6465 182.402 83.0527 181.879C83.4629 181.355 83.668 180.652 83.668 179.77C83.668 178.887 83.4629 178.186 83.0527 177.666ZM88.8418 184H87.1484V175.545H88.625L92.5156 180.812H92.6211V175.545H94.3145V184H92.8496L88.9473 178.709H88.8418V184Z" fill="white"/>
<rect x="150.5" y="163.5" width="138" height="35" rx="7.5" stroke="#8D8D8D"/>
<path d="M198.477 184H194.68V175.545H198.377C199.193 175.545 199.834 175.732 200.299 176.107C200.764 176.482 200.996 176.998 200.996 177.654C200.996 178.104 200.85 178.5 200.557 178.844C200.264 179.188 199.9 179.393 199.467 179.459V179.564C200.025 179.607 200.486 179.818 200.85 180.197C201.217 180.576 201.4 181.037 201.4 181.58C201.4 182.322 201.139 182.912 200.615 183.35C200.092 183.783 199.379 184 198.477 184ZM196.449 176.898V179.049H197.779C198.256 179.049 198.621 178.955 198.875 178.768C199.129 178.58 199.256 178.316 199.256 177.977C199.256 177.637 199.139 177.373 198.904 177.186C198.674 176.994 198.348 176.898 197.926 176.898H196.449ZM196.449 182.646H198.025C198.533 182.646 198.922 182.543 199.191 182.336C199.461 182.125 199.596 181.822 199.596 181.428C199.596 181.041 199.457 180.748 199.18 180.549C198.906 180.346 198.508 180.244 197.984 180.244H196.449V182.646ZM204.787 175.545V180.9C204.787 181.439 204.941 181.865 205.25 182.178C205.562 182.49 205.998 182.646 206.557 182.646C207.119 182.646 207.555 182.49 207.863 182.178C208.176 181.865 208.332 181.439 208.332 180.9V175.545H210.102V181.082C210.102 182.023 209.779 182.781 209.135 183.355C208.494 183.93 207.635 184.217 206.557 184.217C205.482 184.217 204.623 183.93 203.979 183.355C203.338 182.781 203.018 182.023 203.018 181.082V175.545H204.787ZM215.984 184H214.215V177.057H211.678V175.545H218.521V177.057H215.984V184ZM223.906 184H222.137V177.057H219.6V175.545H226.443V177.057H223.906V184ZM231.412 175.328C232.662 175.328 233.65 175.727 234.377 176.523C235.107 177.32 235.473 178.402 235.473 179.77C235.473 181.141 235.107 182.225 234.377 183.021C233.65 183.818 232.662 184.217 231.412 184.217C230.158 184.217 229.166 183.818 228.436 183.021C227.705 182.225 227.34 181.141 227.34 179.77C227.34 178.402 227.707 177.32 228.441 176.523C229.176 175.727 230.166 175.328 231.412 175.328ZM233.053 177.666C232.646 177.143 232.1 176.881 231.412 176.881C230.725 176.881 230.176 177.143 229.766 177.666C229.355 178.186 229.15 178.887 229.15 179.77C229.15 180.652 229.354 181.355 229.76 181.879C230.17 182.402 230.721 182.664 231.412 182.664C232.1 182.664 232.646 182.402 233.053 181.879C233.463 181.355 233.668 180.652 233.668 179.77C233.668 178.887 233.463 178.186 233.053 177.666ZM238.842 184H237.148V175.545H238.625L242.516 180.812H242.621V175.545H244.314V184H242.85L238.947 178.709H238.842V184Z" fill="#8D8D8D"/>
<defs>
<clipPath id="clip0_736_3970">
<rect width="16" height="16" fill="white" transform="translate(160 69)"/>
</clipPath>
</defs>
</svg>
