<svg width="158" height="57" viewBox="0 0 158 57" fill="none" xmlns="http://www.w3.org/2000/svg">
<g clip-path="url(#clip0_735_3966)">
<path d="M29.6219 27.8512L21.0144 19.2376C22.7113 17.2026 23.7319 14.6019 23.7319 11.7615C23.7319 5.28128 18.4138 0.0122986 11.8721 0.0122986C5.33046 0.0122986 0 5.28743 0 11.7676C0 18.2478 5.31817 23.5168 11.8598 23.5168C14.6388 23.5168 17.1964 22.5638 19.2253 20.9714L27.8635 29.6096C28.3677 30.1137 29.1177 30.1137 29.6219 29.6096C30.126 29.1054 30.126 28.3554 29.6219 27.8512ZM2.52075 11.7676C2.52075 6.67692 6.7138 2.5392 11.8598 2.5392C17.0058 2.5392 21.1989 6.67692 21.1989 11.7676C21.1989 16.8583 17.0058 20.996 11.8598 20.996C6.7138 20.996 2.52075 16.8521 2.52075 11.7676Z" fill="black"/>
</g>
<path d="M9.2168 48.7207V47.1826H10.4199C10.8893 47.1826 11.2676 47.0573 11.5547 46.8066C11.8464 46.556 11.9922 46.2301 11.9922 45.8291C11.9922 45.4326 11.8486 45.1182 11.5615 44.8857C11.279 44.6488 10.8962 44.5303 10.4131 44.5303C9.93457 44.5303 9.5472 44.6556 9.25098 44.9062C8.95475 45.1569 8.79297 45.4964 8.76562 45.9248H6.8584C6.89486 44.9906 7.23665 44.25 7.88379 43.7031C8.53092 43.1562 9.39225 42.8828 10.4678 42.8828C11.4795 42.8828 12.3112 43.1335 12.9629 43.6348C13.6191 44.1315 13.9473 44.7673 13.9473 45.542C13.9473 46.1117 13.7809 46.6016 13.4482 47.0117C13.1201 47.4219 12.6803 47.6839 12.1289 47.7979V47.9209C12.8079 47.9984 13.3434 48.249 13.7354 48.6729C14.1318 49.0921 14.3301 49.6253 14.3301 50.2725C14.3301 50.8421 14.1637 51.3548 13.8311 51.8105C13.5029 52.2617 13.0426 52.6149 12.4502 52.8701C11.8577 53.1253 11.1924 53.2529 10.4541 53.2529C9.35579 53.2529 8.46257 52.9727 7.77441 52.4121C7.08626 51.8516 6.7194 51.1064 6.67383 50.1768H8.64941C8.68132 50.596 8.86133 50.9287 9.18945 51.1748C9.51758 51.4163 9.94596 51.5371 10.4746 51.5371C10.9896 51.5371 11.4089 51.4049 11.7324 51.1406C12.0605 50.8763 12.2246 50.5345 12.2246 50.1152C12.2246 49.6823 12.0651 49.3428 11.7461 49.0967C11.4271 48.846 10.9919 48.7207 10.4404 48.7207H9.2168ZM16.0596 46.0889C16.0596 45.1364 16.3923 44.3639 17.0576 43.7715C17.723 43.179 18.5889 42.8828 19.6553 42.8828C20.6852 42.8828 21.5238 43.1517 22.1709 43.6895C22.8226 44.2227 23.1484 44.9131 23.1484 45.7607C23.1484 46.2985 22.9798 46.834 22.6426 47.3672C22.3053 47.8958 21.7106 48.5612 20.8584 49.3633L18.9717 51.1611V51.2842H23.292V53H16.1758V51.5576L19.3955 48.4062C20.0882 47.7318 20.5508 47.2259 20.7832 46.8887C21.0156 46.5514 21.1318 46.221 21.1318 45.8975C21.1318 45.501 20.986 45.1774 20.6943 44.9268C20.4072 44.6715 20.0381 44.5439 19.5869 44.5439C19.1084 44.5439 18.7188 44.6875 18.418 44.9746C18.1217 45.2572 17.9736 45.6263 17.9736 46.082V46.123H16.0596V46.0889Z" fill="black"/>
<path d="M75.7169 23.7894L68.8253 16.8929C70.184 15.2635 71.0011 13.1813 71.0011 10.907C71.0011 5.71864 66.7431 1.5 61.5055 1.5C56.2679 1.5 52 5.72357 52 10.912C52 16.1003 56.258 20.319 61.4956 20.319C63.7206 20.319 65.7684 19.556 67.3929 18.281L74.3091 25.1973C74.7127 25.6009 75.3133 25.6009 75.7169 25.1973C76.1206 24.7936 76.1206 24.1931 75.7169 23.7894ZM54.0183 10.912C54.0183 6.83607 57.3754 3.52318 61.4956 3.52318C65.6158 3.52318 68.973 6.83607 68.973 10.912C68.973 14.9878 65.6158 18.3007 61.4956 18.3007C57.3754 18.3007 54.0183 14.9829 54.0183 10.912Z" fill="black"/>
<path d="M55.6221 44.5889C55.6221 43.6364 55.9548 42.8639 56.6202 42.2715C57.2856 41.679 58.1514 41.3828 59.2178 41.3828C60.2478 41.3828 61.0863 41.6517 61.7335 42.1895C62.3852 42.7227 62.711 43.4131 62.711 44.2607C62.711 44.7985 62.5424 45.334 62.2052 45.8672C61.8679 46.3958 61.2732 47.0612 60.421 47.8633L58.5343 49.6611V49.7842H62.8546V51.5H55.7384V50.0576L58.9581 46.9062C59.6508 46.2318 60.1134 45.7259 60.3458 45.3887C60.5782 45.0514 60.6944 44.721 60.6944 44.3975C60.6944 44.001 60.5486 43.6774 60.2569 43.4268C59.9698 43.1715 59.6007 43.0439 59.1495 43.0439C58.671 43.0439 58.2813 43.1875 57.9805 43.4746C57.6843 43.7572 57.5362 44.1263 57.5362 44.582V44.623H55.6221V44.5889ZM69.2462 51.5V49.7773H64.42V47.9521C65.1902 46.4984 66.4913 44.3929 68.3233 41.6357H71.2149V48.0615H72.5069V49.7773H71.2149V51.5H69.2462ZM66.2725 48.0137V48.123H69.294V43.2422H69.1846C68.1319 44.8145 67.1612 46.4049 66.2725 48.0137Z" fill="black"/>
<path d="M117.784 21.0745L112.041 15.3274C113.173 13.9696 113.854 12.2344 113.854 10.3392C113.854 6.01554 110.306 2.5 105.941 2.5C101.576 2.5 98.0197 6.01964 98.0197 10.3433C98.0197 14.667 101.568 18.1825 105.933 18.1825C107.787 18.1825 109.493 17.5467 110.847 16.4842L116.611 22.2477C116.947 22.5841 117.447 22.5841 117.784 22.2477C118.12 21.9113 118.12 21.4109 117.784 21.0745ZM99.7016 10.3433C99.7016 6.94672 102.499 4.18598 105.933 4.18598C109.366 4.18598 112.164 6.94672 112.164 10.3433C112.164 13.7399 109.366 16.5006 105.933 16.5006C102.499 16.5006 99.7016 13.7358 99.7016 10.3433Z" fill="black"/>
<path d="M99.1046 43.5889C99.1046 42.6364 99.4373 41.8639 100.103 41.2715C100.768 40.679 101.634 40.3828 102.7 40.3828C103.73 40.3828 104.569 40.6517 105.216 41.1895C105.868 41.7227 106.194 42.4131 106.194 43.2607C106.194 43.7985 106.025 44.334 105.688 44.8672C105.35 45.3958 104.756 46.0612 103.903 46.8633L102.017 48.6611V48.7842H106.337V50.5H99.2209V49.0576L102.441 45.9062C103.133 45.2318 103.596 44.7259 103.828 44.3887C104.061 44.0514 104.177 43.721 104.177 43.3975C104.177 43.001 104.031 42.6774 103.739 42.4268C103.452 42.1715 103.083 42.0439 102.632 42.0439C102.153 42.0439 101.764 42.1875 101.463 42.4746C101.167 42.7572 101.019 43.1263 101.019 43.582V43.623H99.1046V43.5889ZM114.896 49.3789C114.203 50.2949 113.246 50.7529 112.025 50.7529C110.803 50.7529 109.844 50.2949 109.147 49.3789C108.454 48.4583 108.108 47.1823 108.108 45.5508C108.108 43.9238 108.454 42.6569 109.147 41.75C109.844 40.8385 110.803 40.3828 112.025 40.3828C113.241 40.3828 114.198 40.8385 114.896 41.75C115.593 42.6615 115.942 43.9307 115.942 45.5576C115.942 47.1846 115.593 48.4583 114.896 49.3789ZM110.678 48.1621C111.001 48.7682 111.45 49.0713 112.025 49.0713C112.599 49.0713 113.045 48.7705 113.364 48.1689C113.688 47.5628 113.85 46.6901 113.85 45.5508C113.85 44.4206 113.688 43.5592 113.364 42.9668C113.045 42.3698 112.599 42.0713 112.025 42.0713C111.455 42.0713 111.008 42.3698 110.685 42.9668C110.361 43.5638 110.199 44.4251 110.199 45.5508C110.199 46.6855 110.359 47.556 110.678 48.1621Z" fill="black"/>
<path d="M155.847 18.3596L151.253 13.7619C152.159 12.6757 152.703 11.2875 152.703 9.77136C152.703 6.31243 149.865 3.5 146.373 3.5C142.881 3.5 140.036 6.31571 140.036 9.77464C140.036 13.2336 142.875 16.046 146.366 16.046C147.85 16.046 149.215 15.5373 150.298 14.6874L154.909 19.2982C155.178 19.5673 155.578 19.5673 155.847 19.2982C156.116 19.0291 156.116 18.6287 155.847 18.3596ZM141.382 9.77464C141.382 7.05738 143.62 4.84878 146.366 4.84878C149.113 4.84878 151.351 7.05738 151.351 9.77464C151.351 12.4919 149.113 14.7005 146.366 14.7005C143.62 14.7005 141.382 12.4886 141.382 9.77464Z" fill="black"/>
<path d="M143.532 49.5V41.6455H143.409L140.989 43.3135V41.3926L143.539 39.6357H145.597V49.5H143.532ZM152.275 49.7529C151.56 49.7529 150.922 49.6003 150.361 49.2949C149.805 48.9896 149.359 48.5475 149.021 47.9688C148.47 47.1211 148.194 46.0114 148.194 44.6396C148.194 43.0036 148.559 41.7184 149.288 40.7842C150.017 39.8499 151.024 39.3828 152.31 39.3828C153.248 39.3828 154.048 39.6357 154.709 40.1416C155.374 40.6475 155.778 41.3128 155.919 42.1377H153.875C153.779 41.8141 153.588 41.5566 153.301 41.3652C153.018 41.1738 152.683 41.0781 152.296 41.0781C151.621 41.0781 151.09 41.3812 150.703 41.9873C150.32 42.5889 150.14 43.4023 150.163 44.4277H150.286C150.509 43.9629 150.84 43.6051 151.277 43.3545C151.719 43.0993 152.227 42.9717 152.802 42.9717C153.736 42.9717 154.511 43.2816 155.126 43.9014C155.741 44.5212 156.049 45.3027 156.049 46.2461C156.049 47.2715 155.696 48.1123 154.989 48.7686C154.283 49.4248 153.378 49.7529 152.275 49.7529ZM150.983 47.5518C151.325 47.889 151.749 48.0576 152.255 48.0576C152.761 48.0576 153.185 47.8913 153.526 47.5586C153.873 47.2214 154.046 46.8044 154.046 46.3076C154.046 45.8063 153.877 45.3916 153.54 45.0635C153.203 44.7308 152.777 44.5645 152.262 44.5645C151.747 44.5645 151.318 44.7285 150.977 45.0566C150.639 45.3848 150.471 45.7949 150.471 46.2871C150.471 46.7884 150.642 47.21 150.983 47.5518Z" fill="black"/>
<defs>
<clipPath id="clip0_735_3966">
<rect width="30" height="30" fill="white"/>
</clipPath>
</defs>
</svg>
