<svg width="340" height="401" viewBox="0 0 340 401" fill="none" xmlns="http://www.w3.org/2000/svg">
<g clip-path="url(#clip0_211_2191)">
<path d="M64.6219 55.8512L56.0144 47.2376C57.7113 45.2026 58.7319 42.6019 58.7319 39.7615C58.7319 33.2813 53.4138 28.0123 46.8721 28.0123C40.3305 28.0123 35 33.2874 35 39.7676C35 46.2478 40.3182 51.5168 46.8598 51.5168C49.6388 51.5168 52.1964 50.5638 54.2253 48.9714L62.8635 57.6096C63.3677 58.1137 64.1177 58.1137 64.6219 57.6096C65.126 57.1054 65.126 56.3554 64.6219 55.8512ZM37.5207 39.7676C37.5207 34.6769 41.7138 30.5392 46.8598 30.5392C52.0058 30.5392 56.1989 34.6769 56.1989 39.7676C56.1989 44.8583 52.0058 48.996 46.8598 48.996C41.7138 48.996 37.5207 44.8521 37.5207 39.7676Z" fill="#D5D5D5"/>
</g>
<path d="M77.752 44.7588H79.748C79.7936 45.1598 80.0033 45.4788 80.377 45.7158C80.7507 45.9528 81.2292 46.0713 81.8125 46.0713C82.3503 46.0713 82.79 45.9551 83.1318 45.7227C83.4736 45.4857 83.6445 45.1803 83.6445 44.8066C83.6445 44.4922 83.5124 44.237 83.248 44.041C82.9837 43.8451 82.5485 43.6833 81.9424 43.5557L80.6572 43.2822C78.8708 42.9085 77.9775 41.9697 77.9775 40.4658C77.9775 39.5361 78.3216 38.791 79.0098 38.2305C79.6979 37.6654 80.6117 37.3828 81.751 37.3828C82.8356 37.3828 83.7266 37.6585 84.4238 38.21C85.1257 38.7614 85.4925 39.4769 85.5244 40.3564H83.583C83.5329 39.9645 83.3415 39.6501 83.0088 39.4131C82.6761 39.1761 82.2614 39.0576 81.7646 39.0576C81.2451 39.0576 80.8281 39.1693 80.5137 39.3926C80.2038 39.6159 80.0488 39.9144 80.0488 40.2881C80.0488 40.5934 80.1742 40.8395 80.4248 41.0264C80.68 41.2132 81.097 41.3682 81.6758 41.4912L82.8652 41.7441C83.8542 41.9538 84.5742 42.2819 85.0254 42.7285C85.4766 43.1751 85.7021 43.7812 85.7021 44.5469C85.7021 45.5404 85.3444 46.3242 84.6289 46.8984C83.918 47.4681 82.9427 47.7529 81.7031 47.7529C80.5273 47.7529 79.584 47.484 78.873 46.9463C78.1621 46.4085 77.7884 45.6794 77.752 44.7588ZM90.7197 41.3203C90.2594 41.3203 89.8789 41.4684 89.5781 41.7646C89.2819 42.0609 89.1156 42.4528 89.0791 42.9404H92.292C92.2692 42.4391 92.1165 42.0449 91.834 41.7578C91.556 41.4661 91.1846 41.3203 90.7197 41.3203ZM92.333 45.3535H94.1855C94.0352 46.069 93.6523 46.6341 93.0371 47.0488C92.4264 47.459 91.6608 47.6641 90.7402 47.6641C89.5918 47.6641 88.6963 47.3223 88.0537 46.6387C87.4111 45.9505 87.0898 44.9935 87.0898 43.7676C87.0898 42.5417 87.4134 41.5732 88.0605 40.8623C88.7077 40.1514 89.5918 39.7959 90.7129 39.7959C91.8249 39.7959 92.6908 40.1309 93.3105 40.8008C93.9349 41.4707 94.2471 42.4049 94.2471 43.6035V44.2119H89.0723V44.3145C89.0859 44.875 89.2454 45.3193 89.5508 45.6475C89.8607 45.971 90.2754 46.1328 90.7949 46.1328C91.1868 46.1328 91.515 46.0667 91.7793 45.9346C92.0436 45.7979 92.2282 45.6042 92.333 45.3535ZM98.6016 46.1191C99.0618 46.1191 99.4469 45.9893 99.7568 45.7295C100.067 45.4697 100.222 45.1484 100.222 44.7656V44.2119L98.6973 44.3076C97.8496 44.3669 97.4258 44.6699 97.4258 45.2168C97.4258 45.4948 97.5329 45.7158 97.7471 45.8799C97.9658 46.0394 98.2507 46.1191 98.6016 46.1191ZM97.9453 47.6162C97.2161 47.6162 96.6214 47.4089 96.1611 46.9941C95.7054 46.5794 95.4775 46.0303 95.4775 45.3467C95.4775 44.6676 95.7282 44.1344 96.2295 43.7471C96.7354 43.3551 97.4577 43.1318 98.3965 43.0771L100.222 42.9678V42.3525C100.222 42.0381 100.112 41.7965 99.8936 41.6279C99.6748 41.4548 99.3604 41.3682 98.9502 41.3682C98.2119 41.3682 97.7585 41.6006 97.5898 42.0654H95.7578C95.8216 41.3682 96.1497 40.8167 96.7422 40.4111C97.3392 40.001 98.1117 39.7959 99.0596 39.7959C100.053 39.7959 100.821 40.0192 101.363 40.4658C101.91 40.9124 102.184 41.5413 102.184 42.3525V47.5H100.256V46.5156H100.133C99.9368 46.862 99.6452 47.1331 99.2578 47.3291C98.8704 47.5205 98.4329 47.6162 97.9453 47.6162ZM104.139 47.5V39.96H106.066V41.1631H106.189C106.29 40.7803 106.518 40.4635 106.873 40.2129C107.233 39.9622 107.65 39.8369 108.124 39.8369C108.466 39.8369 108.726 39.8688 108.903 39.9326V41.7441C108.694 41.6621 108.379 41.6211 107.96 41.6211C107.409 41.6211 106.964 41.7738 106.627 42.0791C106.294 42.3844 106.128 42.7992 106.128 43.3232V47.5H104.139ZM116.73 42.6191H114.871C114.803 42.25 114.639 41.9606 114.379 41.751C114.124 41.5368 113.789 41.4297 113.374 41.4297C112.836 41.4297 112.422 41.6257 112.13 42.0176C111.843 42.4095 111.699 42.9746 111.699 43.7129C111.699 44.4603 111.843 45.0345 112.13 45.4355C112.422 45.832 112.836 46.0303 113.374 46.0303C113.784 46.0303 114.117 45.9323 114.372 45.7363C114.632 45.5404 114.798 45.2578 114.871 44.8887H116.73C116.648 45.7409 116.311 46.4176 115.719 46.9189C115.126 47.4157 114.345 47.6641 113.374 47.6641C112.198 47.6641 111.289 47.3223 110.646 46.6387C110.008 45.9505 109.689 44.9753 109.689 43.7129C109.689 42.4596 110.008 41.4935 110.646 40.8145C111.285 40.1354 112.194 39.7959 113.374 39.7959C114.358 39.7959 115.142 40.0488 115.726 40.5547C116.313 41.0605 116.648 41.7487 116.73 42.6191ZM118.357 47.5V37.082H120.312V41.1973H120.436C120.613 40.7643 120.898 40.4271 121.29 40.1855C121.687 39.9395 122.16 39.8164 122.712 39.8164C123.528 39.8164 124.161 40.0625 124.612 40.5547C125.068 41.0469 125.296 41.7441 125.296 42.6465V47.5H123.307V43.1182C123.307 42.5986 123.188 42.2044 122.951 41.9355C122.714 41.6667 122.37 41.5322 121.919 41.5322C121.427 41.5322 121.042 41.6826 120.764 41.9834C120.486 42.2796 120.347 42.6761 120.347 43.1729V47.5H118.357ZM129.541 47.3564C129.322 47.5752 129.031 47.6846 128.666 47.6846C128.301 47.6846 128.007 47.5752 127.784 47.3564C127.565 47.1331 127.456 46.846 127.456 46.4951C127.456 46.1488 127.565 45.8662 127.784 45.6475C128.007 45.4242 128.301 45.3125 128.666 45.3125C129.031 45.3125 129.322 45.4219 129.541 45.6406C129.764 45.8594 129.876 46.1442 129.876 46.4951C129.876 46.846 129.764 47.1331 129.541 47.3564ZM134.408 47.3564C134.189 47.5752 133.898 47.6846 133.533 47.6846C133.169 47.6846 132.875 47.5752 132.651 47.3564C132.433 47.1331 132.323 46.846 132.323 46.4951C132.323 46.1488 132.433 45.8662 132.651 45.6475C132.875 45.4242 133.169 45.3125 133.533 45.3125C133.898 45.3125 134.189 45.4219 134.408 45.6406C134.632 45.8594 134.743 46.1442 134.743 46.4951C134.743 46.846 134.632 47.1331 134.408 47.3564Z" fill="#D5D5D5"/>
<path fill-rule="evenodd" clip-rule="evenodd" d="M290.368 34.6554C290.58 32.2591 292.624 30.5 295 30.5C297.376 30.5 299.42 32.2591 299.632 34.6554C299.742 35.9104 299.839 37.3355 299.839 38.5128C299.839 39.6901 299.742 41.1152 299.632 42.3702C299.42 44.7665 297.376 46.5256 295 46.5256C292.624 46.5256 290.58 44.7665 290.368 42.3702C290.258 41.1152 290.161 39.6901 290.161 38.5128C290.161 37.3355 290.258 35.9104 290.368 34.6554ZM295 32.4231C293.582 32.4231 292.416 33.4643 292.296 34.8233C292.187 36.0615 292.097 37.4204 292.097 38.5128C292.097 39.6052 292.187 40.9641 292.296 42.2024C292.416 43.5614 293.582 44.6026 295 44.6026C296.418 44.6026 297.584 43.5614 297.704 42.2024C297.813 40.9641 297.903 39.6052 297.903 38.5128C297.903 37.4204 297.813 36.0615 297.704 34.8233C297.584 33.4643 296.418 32.4231 295 32.4231Z" fill="#36C3C3"/>
<path fill-rule="evenodd" clip-rule="evenodd" d="M285.968 38.1923C286.502 38.1923 286.935 38.6228 286.935 39.1539C286.935 40.303 287.022 41.6348 287.153 42.9835C287.529 46.8745 290.961 49.7308 295 49.7308C299.038 49.7308 302.471 46.8745 302.847 42.9835C302.978 41.6348 303.064 40.303 303.064 39.1539C303.064 38.6228 303.498 38.1923 304.032 38.1923C304.567 38.1923 305 38.6228 305 39.1539C305 40.3885 304.907 41.7874 304.774 43.1675C304.324 47.8178 300.489 51.1844 295.968 51.6086V54.5385C295.968 55.0695 295.535 55.5 295 55.5C294.465 55.5 294.032 55.0695 294.032 54.5385V51.6086C289.511 51.1844 285.676 47.8178 285.226 43.1675C285.093 41.7874 285 40.3885 285 39.1539C285 38.6228 285.433 38.1923 285.968 38.1923Z" fill="#36C3C3"/>
<path fill-rule="evenodd" clip-rule="evenodd" d="M285.968 38.1923C286.502 38.1923 286.935 38.6228 286.935 39.1538C286.935 40.303 287.022 41.6347 287.153 42.9835C287.529 46.8745 290.961 49.7307 295 49.7307C299.038 49.7307 302.471 46.8745 302.847 42.9835C302.978 41.6347 303.064 40.303 303.064 39.1538C303.064 38.6228 303.498 38.1923 304.032 38.1923C304.567 38.1923 305 38.6228 305 39.1538C305 40.3885 304.907 41.7874 304.774 43.1675C304.324 47.8177 300.489 51.1844 295.968 51.6086V54.5385C295.968 55.0695 295.535 55.5 295 55.5C294.465 55.5 294.032 55.0695 294.032 54.5385V51.6086C289.511 51.1844 285.676 47.8177 285.226 43.1675C285.093 41.7874 285 40.3885 285 39.1538C285 38.6228 285.433 38.1923 285.968 38.1923Z" fill="#36C3C3"/>
<rect x="20.5" y="20.5" width="299" height="45" rx="7.5" stroke="#D5D5D5"/>
<g clip-path="url(#clip1_211_2191)">
<path d="M64.6219 115.851L56.0144 107.238C57.7113 105.203 58.7319 102.602 58.7319 99.7615C58.7319 93.2813 53.4138 88.0123 46.8721 88.0123C40.3305 88.0123 35 93.2874 35 99.7676C35 106.248 40.3182 111.517 46.8598 111.517C49.6388 111.517 52.1964 110.564 54.2253 108.971L62.8635 117.61C63.3677 118.114 64.1177 118.114 64.6219 117.61C65.126 117.105 65.126 116.355 64.6219 115.851ZM37.5207 99.7676C37.5207 94.6769 41.7138 90.5392 46.8598 90.5392C52.0058 90.5392 56.1989 94.6769 56.1989 99.7676C56.1989 104.858 52.0058 108.996 46.8598 108.996C41.7138 108.996 37.5207 104.852 37.5207 99.7676Z" fill="#D5D5D5"/>
</g>
<path d="M77.752 104.759H79.748C79.7936 105.16 80.0033 105.479 80.377 105.716C80.7507 105.953 81.2292 106.071 81.8125 106.071C82.3503 106.071 82.79 105.955 83.1318 105.723C83.4736 105.486 83.6445 105.18 83.6445 104.807C83.6445 104.492 83.5124 104.237 83.248 104.041C82.9837 103.845 82.5485 103.683 81.9424 103.556L80.6572 103.282C78.8708 102.909 77.9775 101.97 77.9775 100.466C77.9775 99.5361 78.3216 98.791 79.0098 98.2305C79.6979 97.6654 80.6117 97.3828 81.751 97.3828C82.8356 97.3828 83.7266 97.6585 84.4238 98.21C85.1257 98.7614 85.4925 99.4769 85.5244 100.356H83.583C83.5329 99.9645 83.3415 99.6501 83.0088 99.4131C82.6761 99.1761 82.2614 99.0576 81.7646 99.0576C81.2451 99.0576 80.8281 99.1693 80.5137 99.3926C80.2038 99.6159 80.0488 99.9144 80.0488 100.288C80.0488 100.593 80.1742 100.84 80.4248 101.026C80.68 101.213 81.097 101.368 81.6758 101.491L82.8652 101.744C83.8542 101.954 84.5742 102.282 85.0254 102.729C85.4766 103.175 85.7021 103.781 85.7021 104.547C85.7021 105.54 85.3444 106.324 84.6289 106.898C83.918 107.468 82.9427 107.753 81.7031 107.753C80.5273 107.753 79.584 107.484 78.873 106.946C78.1621 106.409 77.7884 105.679 77.752 104.759ZM90.7197 101.32C90.2594 101.32 89.8789 101.468 89.5781 101.765C89.2819 102.061 89.1156 102.453 89.0791 102.94H92.292C92.2692 102.439 92.1165 102.045 91.834 101.758C91.556 101.466 91.1846 101.32 90.7197 101.32ZM92.333 105.354H94.1855C94.0352 106.069 93.6523 106.634 93.0371 107.049C92.4264 107.459 91.6608 107.664 90.7402 107.664C89.5918 107.664 88.6963 107.322 88.0537 106.639C87.4111 105.951 87.0898 104.993 87.0898 103.768C87.0898 102.542 87.4134 101.573 88.0605 100.862C88.7077 100.151 89.5918 99.7959 90.7129 99.7959C91.8249 99.7959 92.6908 100.131 93.3105 100.801C93.9349 101.471 94.2471 102.405 94.2471 103.604V104.212H89.0723V104.314C89.0859 104.875 89.2454 105.319 89.5508 105.647C89.8607 105.971 90.2754 106.133 90.7949 106.133C91.1868 106.133 91.515 106.067 91.7793 105.935C92.0436 105.798 92.2282 105.604 92.333 105.354ZM98.6016 106.119C99.0618 106.119 99.4469 105.989 99.7568 105.729C100.067 105.47 100.222 105.148 100.222 104.766V104.212L98.6973 104.308C97.8496 104.367 97.4258 104.67 97.4258 105.217C97.4258 105.495 97.5329 105.716 97.7471 105.88C97.9658 106.039 98.2507 106.119 98.6016 106.119ZM97.9453 107.616C97.2161 107.616 96.6214 107.409 96.1611 106.994C95.7054 106.579 95.4775 106.03 95.4775 105.347C95.4775 104.668 95.7282 104.134 96.2295 103.747C96.7354 103.355 97.4577 103.132 98.3965 103.077L100.222 102.968V102.353C100.222 102.038 100.112 101.797 99.8936 101.628C99.6748 101.455 99.3604 101.368 98.9502 101.368C98.2119 101.368 97.7585 101.601 97.5898 102.065H95.7578C95.8216 101.368 96.1497 100.817 96.7422 100.411C97.3392 100.001 98.1117 99.7959 99.0596 99.7959C100.053 99.7959 100.821 100.019 101.363 100.466C101.91 100.912 102.184 101.541 102.184 102.353V107.5H100.256V106.516H100.133C99.9368 106.862 99.6452 107.133 99.2578 107.329C98.8704 107.521 98.4329 107.616 97.9453 107.616ZM104.139 107.5V99.96H106.066V101.163H106.189C106.29 100.78 106.518 100.464 106.873 100.213C107.233 99.9622 107.65 99.8369 108.124 99.8369C108.466 99.8369 108.726 99.8688 108.903 99.9326V101.744C108.694 101.662 108.379 101.621 107.96 101.621C107.409 101.621 106.964 101.774 106.627 102.079C106.294 102.384 106.128 102.799 106.128 103.323V107.5H104.139ZM116.73 102.619H114.871C114.803 102.25 114.639 101.961 114.379 101.751C114.124 101.537 113.789 101.43 113.374 101.43C112.836 101.43 112.422 101.626 112.13 102.018C111.843 102.41 111.699 102.975 111.699 103.713C111.699 104.46 111.843 105.035 112.13 105.436C112.422 105.832 112.836 106.03 113.374 106.03C113.784 106.03 114.117 105.932 114.372 105.736C114.632 105.54 114.798 105.258 114.871 104.889H116.73C116.648 105.741 116.311 106.418 115.719 106.919C115.126 107.416 114.345 107.664 113.374 107.664C112.198 107.664 111.289 107.322 110.646 106.639C110.008 105.951 109.689 104.975 109.689 103.713C109.689 102.46 110.008 101.493 110.646 100.814C111.285 100.135 112.194 99.7959 113.374 99.7959C114.358 99.7959 115.142 100.049 115.726 100.555C116.313 101.061 116.648 101.749 116.73 102.619ZM118.357 107.5V97.082H120.312V101.197H120.436C120.613 100.764 120.898 100.427 121.29 100.186C121.687 99.9395 122.16 99.8164 122.712 99.8164C123.528 99.8164 124.161 100.062 124.612 100.555C125.068 101.047 125.296 101.744 125.296 102.646V107.5H123.307V103.118C123.307 102.599 123.188 102.204 122.951 101.936C122.714 101.667 122.37 101.532 121.919 101.532C121.427 101.532 121.042 101.683 120.764 101.983C120.486 102.28 120.347 102.676 120.347 103.173V107.5H118.357ZM129.541 107.356C129.322 107.575 129.031 107.685 128.666 107.685C128.301 107.685 128.007 107.575 127.784 107.356C127.565 107.133 127.456 106.846 127.456 106.495C127.456 106.149 127.565 105.866 127.784 105.647C128.007 105.424 128.301 105.312 128.666 105.312C129.031 105.312 129.322 105.422 129.541 105.641C129.764 105.859 129.876 106.144 129.876 106.495C129.876 106.846 129.764 107.133 129.541 107.356ZM134.408 107.356C134.189 107.575 133.898 107.685 133.533 107.685C133.169 107.685 132.875 107.575 132.651 107.356C132.433 107.133 132.323 106.846 132.323 106.495C132.323 106.149 132.433 105.866 132.651 105.647C132.875 105.424 133.169 105.312 133.533 105.312C133.898 105.312 134.189 105.422 134.408 105.641C134.632 105.859 134.743 106.144 134.743 106.495C134.743 106.846 134.632 107.133 134.408 107.356Z" fill="#2A2B2E"/>
<line x1="136.5" y1="96" x2="136.5" y2="110" stroke="black" stroke-linecap="round"/>
<path fill-rule="evenodd" clip-rule="evenodd" d="M290.368 94.6554C290.58 92.2591 292.624 90.5 295 90.5C297.376 90.5 299.42 92.2591 299.632 94.6554C299.742 95.9104 299.839 97.3355 299.839 98.5128C299.839 99.6901 299.742 101.115 299.632 102.37C299.42 104.766 297.376 106.526 295 106.526C292.624 106.526 290.58 104.766 290.368 102.37C290.258 101.115 290.161 99.6901 290.161 98.5128C290.161 97.3355 290.258 95.9104 290.368 94.6554ZM295 92.4231C293.582 92.4231 292.416 93.4643 292.296 94.8233C292.187 96.0615 292.097 97.4204 292.097 98.5128C292.097 99.6052 292.187 100.964 292.296 102.202C292.416 103.561 293.582 104.603 295 104.603C296.418 104.603 297.584 103.561 297.704 102.202C297.813 100.964 297.903 99.6052 297.903 98.5128C297.903 97.4204 297.813 96.0615 297.704 94.8233C297.584 93.4643 296.418 92.4231 295 92.4231Z" fill="#36C3C3"/>
<path fill-rule="evenodd" clip-rule="evenodd" d="M285.968 98.1923C286.502 98.1923 286.935 98.6228 286.935 99.1539C286.935 100.303 287.022 101.635 287.153 102.984C287.529 106.875 290.961 109.731 295 109.731C299.038 109.731 302.471 106.875 302.847 102.984C302.978 101.635 303.064 100.303 303.064 99.1539C303.064 98.6228 303.498 98.1923 304.032 98.1923C304.567 98.1923 305 98.6228 305 99.1539C305 100.389 304.907 101.787 304.774 103.168C304.324 107.818 300.489 111.184 295.968 111.609V114.539C295.968 115.07 295.535 115.5 295 115.5C294.465 115.5 294.032 115.07 294.032 114.539V111.609C289.511 111.184 285.676 107.818 285.226 103.168C285.093 101.787 285 100.389 285 99.1539C285 98.6228 285.433 98.1923 285.968 98.1923Z" fill="#36C3C3"/>
<path fill-rule="evenodd" clip-rule="evenodd" d="M285.968 98.1923C286.502 98.1923 286.935 98.6228 286.935 99.1538C286.935 100.303 287.022 101.635 287.153 102.983C287.529 106.874 290.961 109.731 295 109.731C299.038 109.731 302.471 106.874 302.847 102.983C302.978 101.635 303.064 100.303 303.064 99.1538C303.064 98.6228 303.498 98.1923 304.032 98.1923C304.567 98.1923 305 98.6228 305 99.1538C305 100.388 304.907 101.787 304.774 103.167C304.324 107.818 300.489 111.184 295.968 111.609V114.538C295.968 115.069 295.535 115.5 295 115.5C294.465 115.5 294.032 115.069 294.032 114.538V111.609C289.511 111.184 285.676 107.818 285.226 103.167C285.093 101.787 285 100.388 285 99.1538C285 98.6228 285.433 98.1923 285.968 98.1923Z" fill="#36C3C3"/>
<rect x="20.75" y="80.75" width="298.5" height="44.5" rx="7.25" stroke="#2A2B2E" stroke-width="1.5"/>
<g clip-path="url(#clip2_211_2191)">
<path d="M64.6219 175.851L56.0144 167.238C57.7113 165.203 58.7319 162.602 58.7319 159.761C58.7319 153.281 53.4138 148.012 46.8721 148.012C40.3305 148.012 35 153.287 35 159.768C35 166.248 40.3182 171.517 46.8598 171.517C49.6388 171.517 52.1964 170.564 54.2253 168.971L62.8635 177.61C63.3677 178.114 64.1177 178.114 64.6219 177.61C65.126 177.105 65.126 176.355 64.6219 175.851ZM37.5207 159.768C37.5207 154.677 41.7138 150.539 46.8598 150.539C52.0058 150.539 56.1989 154.677 56.1989 159.768C56.1989 164.858 52.0058 168.996 46.8598 168.996C41.7138 168.996 37.5207 164.852 37.5207 159.768Z" fill="#D5D5D5"/>
</g>
<path d="M77.752 164.759H79.748C79.7936 165.16 80.0033 165.479 80.377 165.716C80.7507 165.953 81.2292 166.071 81.8125 166.071C82.3503 166.071 82.79 165.955 83.1318 165.723C83.4736 165.486 83.6445 165.18 83.6445 164.807C83.6445 164.492 83.5124 164.237 83.248 164.041C82.9837 163.845 82.5485 163.683 81.9424 163.556L80.6572 163.282C78.8708 162.909 77.9775 161.97 77.9775 160.466C77.9775 159.536 78.3216 158.791 79.0098 158.23C79.6979 157.665 80.6117 157.383 81.751 157.383C82.8356 157.383 83.7266 157.659 84.4238 158.21C85.1257 158.761 85.4925 159.477 85.5244 160.356H83.583C83.5329 159.965 83.3415 159.65 83.0088 159.413C82.6761 159.176 82.2614 159.058 81.7646 159.058C81.2451 159.058 80.8281 159.169 80.5137 159.393C80.2038 159.616 80.0488 159.914 80.0488 160.288C80.0488 160.593 80.1742 160.84 80.4248 161.026C80.68 161.213 81.097 161.368 81.6758 161.491L82.8652 161.744C83.8542 161.954 84.5742 162.282 85.0254 162.729C85.4766 163.175 85.7021 163.781 85.7021 164.547C85.7021 165.54 85.3444 166.324 84.6289 166.898C83.918 167.468 82.9427 167.753 81.7031 167.753C80.5273 167.753 79.584 167.484 78.873 166.946C78.1621 166.409 77.7884 165.679 77.752 164.759ZM90.7197 161.32C90.2594 161.32 89.8789 161.468 89.5781 161.765C89.2819 162.061 89.1156 162.453 89.0791 162.94H92.292C92.2692 162.439 92.1165 162.045 91.834 161.758C91.556 161.466 91.1846 161.32 90.7197 161.32ZM92.333 165.354H94.1855C94.0352 166.069 93.6523 166.634 93.0371 167.049C92.4264 167.459 91.6608 167.664 90.7402 167.664C89.5918 167.664 88.6963 167.322 88.0537 166.639C87.4111 165.951 87.0898 164.993 87.0898 163.768C87.0898 162.542 87.4134 161.573 88.0605 160.862C88.7077 160.151 89.5918 159.796 90.7129 159.796C91.8249 159.796 92.6908 160.131 93.3105 160.801C93.9349 161.471 94.2471 162.405 94.2471 163.604V164.212H89.0723V164.314C89.0859 164.875 89.2454 165.319 89.5508 165.647C89.8607 165.971 90.2754 166.133 90.7949 166.133C91.1868 166.133 91.515 166.067 91.7793 165.935C92.0436 165.798 92.2282 165.604 92.333 165.354ZM98.6016 166.119C99.0618 166.119 99.4469 165.989 99.7568 165.729C100.067 165.47 100.222 165.148 100.222 164.766V164.212L98.6973 164.308C97.8496 164.367 97.4258 164.67 97.4258 165.217C97.4258 165.495 97.5329 165.716 97.7471 165.88C97.9658 166.039 98.2507 166.119 98.6016 166.119ZM97.9453 167.616C97.2161 167.616 96.6214 167.409 96.1611 166.994C95.7054 166.579 95.4775 166.03 95.4775 165.347C95.4775 164.668 95.7282 164.134 96.2295 163.747C96.7354 163.355 97.4577 163.132 98.3965 163.077L100.222 162.968V162.353C100.222 162.038 100.112 161.797 99.8936 161.628C99.6748 161.455 99.3604 161.368 98.9502 161.368C98.2119 161.368 97.7585 161.601 97.5898 162.065H95.7578C95.8216 161.368 96.1497 160.817 96.7422 160.411C97.3392 160.001 98.1117 159.796 99.0596 159.796C100.053 159.796 100.821 160.019 101.363 160.466C101.91 160.912 102.184 161.541 102.184 162.353V167.5H100.256V166.516H100.133C99.9368 166.862 99.6452 167.133 99.2578 167.329C98.8704 167.521 98.4329 167.616 97.9453 167.616ZM104.139 167.5V159.96H106.066V161.163H106.189C106.29 160.78 106.518 160.464 106.873 160.213C107.233 159.962 107.65 159.837 108.124 159.837C108.466 159.837 108.726 159.869 108.903 159.933V161.744C108.694 161.662 108.379 161.621 107.96 161.621C107.409 161.621 106.964 161.774 106.627 162.079C106.294 162.384 106.128 162.799 106.128 163.323V167.5H104.139ZM116.73 162.619H114.871C114.803 162.25 114.639 161.961 114.379 161.751C114.124 161.537 113.789 161.43 113.374 161.43C112.836 161.43 112.422 161.626 112.13 162.018C111.843 162.41 111.699 162.975 111.699 163.713C111.699 164.46 111.843 165.035 112.13 165.436C112.422 165.832 112.836 166.03 113.374 166.03C113.784 166.03 114.117 165.932 114.372 165.736C114.632 165.54 114.798 165.258 114.871 164.889H116.73C116.648 165.741 116.311 166.418 115.719 166.919C115.126 167.416 114.345 167.664 113.374 167.664C112.198 167.664 111.289 167.322 110.646 166.639C110.008 165.951 109.689 164.975 109.689 163.713C109.689 162.46 110.008 161.493 110.646 160.814C111.285 160.135 112.194 159.796 113.374 159.796C114.358 159.796 115.142 160.049 115.726 160.555C116.313 161.061 116.648 161.749 116.73 162.619ZM118.357 167.5V157.082H120.312V161.197H120.436C120.613 160.764 120.898 160.427 121.29 160.186C121.687 159.939 122.16 159.816 122.712 159.816C123.528 159.816 124.161 160.062 124.612 160.555C125.068 161.047 125.296 161.744 125.296 162.646V167.5H123.307V163.118C123.307 162.599 123.188 162.204 122.951 161.936C122.714 161.667 122.37 161.532 121.919 161.532C121.427 161.532 121.042 161.683 120.764 161.983C120.486 162.28 120.347 162.676 120.347 163.173V167.5H118.357ZM129.541 167.356C129.322 167.575 129.031 167.685 128.666 167.685C128.301 167.685 128.007 167.575 127.784 167.356C127.565 167.133 127.456 166.846 127.456 166.495C127.456 166.149 127.565 165.866 127.784 165.647C128.007 165.424 128.301 165.312 128.666 165.312C129.031 165.312 129.322 165.422 129.541 165.641C129.764 165.859 129.876 166.144 129.876 166.495C129.876 166.846 129.764 167.133 129.541 167.356ZM134.408 167.356C134.189 167.575 133.898 167.685 133.533 167.685C133.169 167.685 132.875 167.575 132.651 167.356C132.433 167.133 132.323 166.846 132.323 166.495C132.323 166.149 132.433 165.866 132.651 165.647C132.875 165.424 133.169 165.312 133.533 165.312C133.898 165.312 134.189 165.422 134.408 165.641C134.632 165.859 134.743 166.144 134.743 166.495C134.743 166.846 134.632 167.133 134.408 167.356Z" fill="#2A2B2E"/>
<path fill-rule="evenodd" clip-rule="evenodd" d="M290.368 154.655C290.58 152.259 292.624 150.5 295 150.5C297.376 150.5 299.42 152.259 299.632 154.655C299.742 155.91 299.839 157.336 299.839 158.513C299.839 159.69 299.742 161.115 299.632 162.37C299.42 164.766 297.376 166.526 295 166.526C292.624 166.526 290.58 164.766 290.368 162.37C290.258 161.115 290.161 159.69 290.161 158.513C290.161 157.336 290.258 155.91 290.368 154.655ZM295 152.423C293.582 152.423 292.416 153.464 292.296 154.823C292.187 156.061 292.097 157.42 292.097 158.513C292.097 159.605 292.187 160.964 292.296 162.202C292.416 163.561 293.582 164.603 295 164.603C296.418 164.603 297.584 163.561 297.704 162.202C297.813 160.964 297.903 159.605 297.903 158.513C297.903 157.42 297.813 156.061 297.704 154.823C297.584 153.464 296.418 152.423 295 152.423Z" fill="#36C3C3"/>
<path fill-rule="evenodd" clip-rule="evenodd" d="M285.968 158.192C286.502 158.192 286.935 158.623 286.935 159.154C286.935 160.303 287.022 161.635 287.153 162.984C287.529 166.875 290.961 169.731 295 169.731C299.038 169.731 302.471 166.875 302.847 162.984C302.978 161.635 303.064 160.303 303.064 159.154C303.064 158.623 303.498 158.192 304.032 158.192C304.567 158.192 305 158.623 305 159.154C305 160.389 304.907 161.787 304.774 163.168C304.324 167.818 300.489 171.184 295.968 171.609V174.539C295.968 175.07 295.535 175.5 295 175.5C294.465 175.5 294.032 175.07 294.032 174.539V171.609C289.511 171.184 285.676 167.818 285.226 163.168C285.093 161.787 285 160.389 285 159.154C285 158.623 285.433 158.192 285.968 158.192Z" fill="#36C3C3"/>
<path fill-rule="evenodd" clip-rule="evenodd" d="M285.968 158.192C286.502 158.192 286.935 158.623 286.935 159.154C286.935 160.303 287.022 161.635 287.153 162.984C287.529 166.875 290.961 169.731 295 169.731C299.038 169.731 302.471 166.875 302.847 162.984C302.978 161.635 303.064 160.303 303.064 159.154C303.064 158.623 303.498 158.192 304.032 158.192C304.567 158.192 305 158.623 305 159.154C305 160.389 304.907 161.787 304.774 163.168C304.324 167.818 300.489 171.184 295.968 171.609V174.539C295.968 175.07 295.535 175.5 295 175.5C294.465 175.5 294.032 175.07 294.032 174.539V171.609C289.511 171.184 285.676 167.818 285.226 163.168C285.093 161.787 285 160.389 285 159.154C285 158.623 285.433 158.192 285.968 158.192Z" fill="#36C3C3"/>
<rect x="20.5" y="140.5" width="299" height="45" rx="7.5" stroke="#D5D5D5"/>
<path d="M35.752 224.759H37.748C37.7936 225.16 38.0033 225.479 38.377 225.716C38.7507 225.953 39.2292 226.071 39.8125 226.071C40.3503 226.071 40.79 225.955 41.1318 225.723C41.4736 225.486 41.6445 225.18 41.6445 224.807C41.6445 224.492 41.5124 224.237 41.248 224.041C40.9837 223.845 40.5485 223.683 39.9424 223.556L38.6572 223.282C36.8708 222.909 35.9775 221.97 35.9775 220.466C35.9775 219.536 36.3216 218.791 37.0098 218.23C37.6979 217.665 38.6117 217.383 39.751 217.383C40.8356 217.383 41.7266 217.659 42.4238 218.21C43.1257 218.761 43.4925 219.477 43.5244 220.356H41.583C41.5329 219.965 41.3415 219.65 41.0088 219.413C40.6761 219.176 40.2614 219.058 39.7646 219.058C39.2451 219.058 38.8281 219.169 38.5137 219.393C38.2038 219.616 38.0488 219.914 38.0488 220.288C38.0488 220.593 38.1742 220.84 38.4248 221.026C38.68 221.213 39.097 221.368 39.6758 221.491L40.8652 221.744C41.8542 221.954 42.5742 222.282 43.0254 222.729C43.4766 223.175 43.7021 223.781 43.7021 224.547C43.7021 225.54 43.3444 226.324 42.6289 226.898C41.918 227.468 40.9427 227.753 39.7031 227.753C38.5273 227.753 37.584 227.484 36.873 226.946C36.1621 226.409 35.7884 225.679 35.752 224.759ZM48.7197 221.32C48.2594 221.32 47.8789 221.468 47.5781 221.765C47.2819 222.061 47.1156 222.453 47.0791 222.94H50.292C50.2692 222.439 50.1165 222.045 49.834 221.758C49.556 221.466 49.1846 221.32 48.7197 221.32ZM50.333 225.354H52.1855C52.0352 226.069 51.6523 226.634 51.0371 227.049C50.4264 227.459 49.6608 227.664 48.7402 227.664C47.5918 227.664 46.6963 227.322 46.0537 226.639C45.4111 225.951 45.0898 224.993 45.0898 223.768C45.0898 222.542 45.4134 221.573 46.0605 220.862C46.7077 220.151 47.5918 219.796 48.7129 219.796C49.8249 219.796 50.6908 220.131 51.3105 220.801C51.9349 221.471 52.2471 222.405 52.2471 223.604V224.212H47.0723V224.314C47.0859 224.875 47.2454 225.319 47.5508 225.647C47.8607 225.971 48.2754 226.133 48.7949 226.133C49.1868 226.133 49.515 226.067 49.7793 225.935C50.0436 225.798 50.2282 225.604 50.333 225.354ZM56.6016 226.119C57.0618 226.119 57.4469 225.989 57.7568 225.729C58.0667 225.47 58.2217 225.148 58.2217 224.766V224.212L56.6973 224.308C55.8496 224.367 55.4258 224.67 55.4258 225.217C55.4258 225.495 55.5329 225.716 55.7471 225.88C55.9658 226.039 56.2507 226.119 56.6016 226.119ZM55.9453 227.616C55.2161 227.616 54.6214 227.409 54.1611 226.994C53.7054 226.579 53.4775 226.03 53.4775 225.347C53.4775 224.668 53.7282 224.134 54.2295 223.747C54.7354 223.355 55.4577 223.132 56.3965 223.077L58.2217 222.968V222.353C58.2217 222.038 58.1123 221.797 57.8936 221.628C57.6748 221.455 57.3604 221.368 56.9502 221.368C56.2119 221.368 55.7585 221.601 55.5898 222.065H53.7578C53.8216 221.368 54.1497 220.817 54.7422 220.411C55.3392 220.001 56.1117 219.796 57.0596 219.796C58.0531 219.796 58.821 220.019 59.3633 220.466C59.9102 220.912 60.1836 221.541 60.1836 222.353V227.5H58.2559V226.516H58.1328C57.9368 226.862 57.6452 227.133 57.2578 227.329C56.8704 227.521 56.4329 227.616 55.9453 227.616ZM62.1387 227.5V219.96H64.0664V221.163H64.1895C64.2897 220.78 64.5176 220.464 64.873 220.213C65.2331 219.962 65.6501 219.837 66.124 219.837C66.4658 219.837 66.7256 219.869 66.9033 219.933V221.744C66.6937 221.662 66.3792 221.621 65.96 221.621C65.4085 221.621 64.9642 221.774 64.627 222.079C64.2943 222.384 64.1279 222.799 64.1279 223.323V227.5H62.1387ZM74.7305 222.619H72.8711C72.8027 222.25 72.6387 221.961 72.3789 221.751C72.1237 221.537 71.7887 221.43 71.374 221.43C70.8363 221.43 70.4215 221.626 70.1299 222.018C69.8428 222.41 69.6992 222.975 69.6992 223.713C69.6992 224.46 69.8428 225.035 70.1299 225.436C70.4215 225.832 70.8363 226.03 71.374 226.03C71.7842 226.03 72.1169 225.932 72.3721 225.736C72.6318 225.54 72.7982 225.258 72.8711 224.889H74.7305C74.6484 225.741 74.3112 226.418 73.7188 226.919C73.1263 227.416 72.3447 227.664 71.374 227.664C70.1982 227.664 69.2891 227.322 68.6465 226.639C68.0085 225.951 67.6895 224.975 67.6895 223.713C67.6895 222.46 68.0085 221.493 68.6465 220.814C69.2845 220.135 70.1937 219.796 71.374 219.796C72.3584 219.796 73.1423 220.049 73.7256 220.555C74.3135 221.061 74.6484 221.749 74.7305 222.619ZM76.3574 227.5V217.082H78.3125V221.197H78.4355C78.6133 220.764 78.8981 220.427 79.29 220.186C79.6865 219.939 80.1605 219.816 80.7119 219.816C81.5277 219.816 82.1611 220.062 82.6123 220.555C83.068 221.047 83.2959 221.744 83.2959 222.646V227.5H81.3066V223.118C81.3066 222.599 81.1882 222.204 80.9512 221.936C80.7142 221.667 80.3701 221.532 79.9189 221.532C79.4268 221.532 79.0417 221.683 78.7637 221.983C78.4857 222.28 78.3467 222.676 78.3467 223.173V227.5H76.3574ZM87.541 227.356C87.3223 227.575 87.0306 227.685 86.666 227.685C86.3014 227.685 86.0075 227.575 85.7842 227.356C85.5654 227.133 85.4561 226.846 85.4561 226.495C85.4561 226.149 85.5654 225.866 85.7842 225.647C86.0075 225.424 86.3014 225.312 86.666 225.312C87.0306 225.312 87.3223 225.422 87.541 225.641C87.7643 225.859 87.876 226.144 87.876 226.495C87.876 226.846 87.7643 227.133 87.541 227.356ZM92.4082 227.356C92.1895 227.575 91.8978 227.685 91.5332 227.685C91.1686 227.685 90.8747 227.575 90.6514 227.356C90.4326 227.133 90.3232 226.846 90.3232 226.495C90.3232 226.149 90.4326 225.866 90.6514 225.647C90.8747 225.424 91.1686 225.312 91.5332 225.312C91.8978 225.312 92.1895 225.422 92.4082 225.641C92.6315 225.859 92.7432 226.144 92.7432 226.495C92.7432 226.846 92.6315 227.133 92.4082 227.356Z" fill="#D5D5D5"/>
<path fill-rule="evenodd" clip-rule="evenodd" d="M290.368 214.655C290.58 212.259 292.624 210.5 295 210.5C297.376 210.5 299.42 212.259 299.632 214.655C299.742 215.91 299.839 217.336 299.839 218.513C299.839 219.69 299.742 221.115 299.632 222.37C299.42 224.766 297.376 226.526 295 226.526C292.624 226.526 290.58 224.766 290.368 222.37C290.258 221.115 290.161 219.69 290.161 218.513C290.161 217.336 290.258 215.91 290.368 214.655ZM295 212.423C293.582 212.423 292.416 213.464 292.296 214.823C292.187 216.061 292.097 217.42 292.097 218.513C292.097 219.605 292.187 220.964 292.296 222.202C292.416 223.561 293.582 224.603 295 224.603C296.418 224.603 297.584 223.561 297.704 222.202C297.813 220.964 297.903 219.605 297.903 218.513C297.903 217.42 297.813 216.061 297.704 214.823C297.584 213.464 296.418 212.423 295 212.423Z" fill="#36C3C3"/>
<path fill-rule="evenodd" clip-rule="evenodd" d="M285.968 218.192C286.502 218.192 286.935 218.623 286.935 219.154C286.935 220.303 287.022 221.635 287.153 222.984C287.529 226.875 290.961 229.731 295 229.731C299.038 229.731 302.471 226.875 302.847 222.984C302.978 221.635 303.064 220.303 303.064 219.154C303.064 218.623 303.498 218.192 304.032 218.192C304.567 218.192 305 218.623 305 219.154C305 220.389 304.907 221.787 304.774 223.168C304.324 227.818 300.489 231.184 295.968 231.609V234.539C295.968 235.07 295.535 235.5 295 235.5C294.465 235.5 294.032 235.07 294.032 234.539V231.609C289.511 231.184 285.676 227.818 285.226 223.168C285.093 221.787 285 220.389 285 219.154C285 218.623 285.433 218.192 285.968 218.192Z" fill="#36C3C3"/>
<path fill-rule="evenodd" clip-rule="evenodd" d="M285.968 218.192C286.502 218.192 286.935 218.623 286.935 219.154C286.935 220.303 287.022 221.635 287.153 222.984C287.529 226.875 290.961 229.731 295 229.731C299.038 229.731 302.471 226.875 302.847 222.984C302.978 221.635 303.064 220.303 303.064 219.154C303.064 218.623 303.498 218.192 304.032 218.192C304.567 218.192 305 218.623 305 219.154C305 220.389 304.907 221.787 304.774 223.168C304.324 227.818 300.489 231.184 295.968 231.609V234.539C295.968 235.07 295.535 235.5 295 235.5C294.465 235.5 294.032 235.07 294.032 234.539V231.609C289.511 231.184 285.676 227.818 285.226 223.168C285.093 221.787 285 220.389 285 219.154C285 218.623 285.433 218.192 285.968 218.192Z" fill="#36C3C3"/>
<rect x="20.5" y="200.5" width="299" height="45" rx="7.5" stroke="#D5D5D5"/>
<path d="M30.752 284.759H32.748C32.7936 285.16 33.0033 285.479 33.377 285.716C33.7507 285.953 34.2292 286.071 34.8125 286.071C35.3503 286.071 35.79 285.955 36.1318 285.723C36.4736 285.486 36.6445 285.18 36.6445 284.807C36.6445 284.492 36.5124 284.237 36.248 284.041C35.9837 283.845 35.5485 283.683 34.9424 283.556L33.6572 283.282C31.8708 282.909 30.9775 281.97 30.9775 280.466C30.9775 279.536 31.3216 278.791 32.0098 278.23C32.6979 277.665 33.6117 277.383 34.751 277.383C35.8356 277.383 36.7266 277.659 37.4238 278.21C38.1257 278.761 38.4925 279.477 38.5244 280.356H36.583C36.5329 279.965 36.3415 279.65 36.0088 279.413C35.6761 279.176 35.2614 279.058 34.7646 279.058C34.2451 279.058 33.8281 279.169 33.5137 279.393C33.2038 279.616 33.0488 279.914 33.0488 280.288C33.0488 280.593 33.1742 280.84 33.4248 281.026C33.68 281.213 34.097 281.368 34.6758 281.491L35.8652 281.744C36.8542 281.954 37.5742 282.282 38.0254 282.729C38.4766 283.175 38.7021 283.781 38.7021 284.547C38.7021 285.54 38.3444 286.324 37.6289 286.898C36.918 287.468 35.9427 287.753 34.7031 287.753C33.5273 287.753 32.584 287.484 31.873 286.946C31.1621 286.409 30.7884 285.679 30.752 284.759ZM43.7197 281.32C43.2594 281.32 42.8789 281.468 42.5781 281.765C42.2819 282.061 42.1156 282.453 42.0791 282.94H45.292C45.2692 282.439 45.1165 282.045 44.834 281.758C44.556 281.466 44.1846 281.32 43.7197 281.32ZM45.333 285.354H47.1855C47.0352 286.069 46.6523 286.634 46.0371 287.049C45.4264 287.459 44.6608 287.664 43.7402 287.664C42.5918 287.664 41.6963 287.322 41.0537 286.639C40.4111 285.951 40.0898 284.993 40.0898 283.768C40.0898 282.542 40.4134 281.573 41.0605 280.862C41.7077 280.151 42.5918 279.796 43.7129 279.796C44.8249 279.796 45.6908 280.131 46.3105 280.801C46.9349 281.471 47.2471 282.405 47.2471 283.604V284.212H42.0723V284.314C42.0859 284.875 42.2454 285.319 42.5508 285.647C42.8607 285.971 43.2754 286.133 43.7949 286.133C44.1868 286.133 44.515 286.067 44.7793 285.935C45.0436 285.798 45.2282 285.604 45.333 285.354ZM51.6016 286.119C52.0618 286.119 52.4469 285.989 52.7568 285.729C53.0667 285.47 53.2217 285.148 53.2217 284.766V284.212L51.6973 284.308C50.8496 284.367 50.4258 284.67 50.4258 285.217C50.4258 285.495 50.5329 285.716 50.7471 285.88C50.9658 286.039 51.2507 286.119 51.6016 286.119ZM50.9453 287.616C50.2161 287.616 49.6214 287.409 49.1611 286.994C48.7054 286.579 48.4775 286.03 48.4775 285.347C48.4775 284.668 48.7282 284.134 49.2295 283.747C49.7354 283.355 50.4577 283.132 51.3965 283.077L53.2217 282.968V282.353C53.2217 282.038 53.1123 281.797 52.8936 281.628C52.6748 281.455 52.3604 281.368 51.9502 281.368C51.2119 281.368 50.7585 281.601 50.5898 282.065H48.7578C48.8216 281.368 49.1497 280.817 49.7422 280.411C50.3392 280.001 51.1117 279.796 52.0596 279.796C53.0531 279.796 53.821 280.019 54.3633 280.466C54.9102 280.912 55.1836 281.541 55.1836 282.353V287.5H53.2559V286.516H53.1328C52.9368 286.862 52.6452 287.133 52.2578 287.329C51.8704 287.521 51.4329 287.616 50.9453 287.616ZM57.1387 287.5V279.96H59.0664V281.163H59.1895C59.2897 280.78 59.5176 280.464 59.873 280.213C60.2331 279.962 60.6501 279.837 61.124 279.837C61.4658 279.837 61.7256 279.869 61.9033 279.933V281.744C61.6937 281.662 61.3792 281.621 60.96 281.621C60.4085 281.621 59.9642 281.774 59.627 282.079C59.2943 282.384 59.1279 282.799 59.1279 283.323V287.5H57.1387ZM69.7305 282.619H67.8711C67.8027 282.25 67.6387 281.961 67.3789 281.751C67.1237 281.537 66.7887 281.43 66.374 281.43C65.8363 281.43 65.4215 281.626 65.1299 282.018C64.8428 282.41 64.6992 282.975 64.6992 283.713C64.6992 284.46 64.8428 285.035 65.1299 285.436C65.4215 285.832 65.8363 286.03 66.374 286.03C66.7842 286.03 67.1169 285.932 67.3721 285.736C67.6318 285.54 67.7982 285.258 67.8711 284.889H69.7305C69.6484 285.741 69.3112 286.418 68.7188 286.919C68.1263 287.416 67.3447 287.664 66.374 287.664C65.1982 287.664 64.2891 287.322 63.6465 286.639C63.0085 285.951 62.6895 284.975 62.6895 283.713C62.6895 282.46 63.0085 281.493 63.6465 280.814C64.2845 280.135 65.1937 279.796 66.374 279.796C67.3584 279.796 68.1423 280.049 68.7256 280.555C69.3135 281.061 69.6484 281.749 69.7305 282.619ZM71.3574 287.5V277.082H73.3125V281.197H73.4355C73.6133 280.764 73.8981 280.427 74.29 280.186C74.6865 279.939 75.1605 279.816 75.7119 279.816C76.5277 279.816 77.1611 280.062 77.6123 280.555C78.068 281.047 78.2959 281.744 78.2959 282.646V287.5H76.3066V283.118C76.3066 282.599 76.1882 282.204 75.9512 281.936C75.7142 281.667 75.3701 281.532 74.9189 281.532C74.4268 281.532 74.0417 281.683 73.7637 281.983C73.4857 282.28 73.3467 282.676 73.3467 283.173V287.5H71.3574ZM82.541 287.356C82.3223 287.575 82.0306 287.685 81.666 287.685C81.3014 287.685 81.0075 287.575 80.7842 287.356C80.5654 287.133 80.4561 286.846 80.4561 286.495C80.4561 286.149 80.5654 285.866 80.7842 285.647C81.0075 285.424 81.3014 285.312 81.666 285.312C82.0306 285.312 82.3223 285.422 82.541 285.641C82.7643 285.859 82.876 286.144 82.876 286.495C82.876 286.846 82.7643 287.133 82.541 287.356ZM87.4082 287.356C87.1895 287.575 86.8978 287.685 86.5332 287.685C86.1686 287.685 85.8747 287.575 85.6514 287.356C85.4326 287.133 85.3232 286.846 85.3232 286.495C85.3232 286.149 85.4326 285.866 85.6514 285.647C85.8747 285.424 86.1686 285.312 86.5332 285.312C86.8978 285.312 87.1895 285.422 87.4082 285.641C87.6315 285.859 87.7432 286.144 87.7432 286.495C87.7432 286.846 87.6315 287.133 87.4082 287.356Z" fill="#2A2B2E"/>
<line x1="89.5" y1="276" x2="89.5" y2="290" stroke="black" stroke-linecap="round"/>
<path fill-rule="evenodd" clip-rule="evenodd" d="M290.368 274.655C290.58 272.259 292.624 270.5 295 270.5C297.376 270.5 299.42 272.259 299.632 274.655C299.742 275.91 299.839 277.336 299.839 278.513C299.839 279.69 299.742 281.115 299.632 282.37C299.42 284.766 297.376 286.526 295 286.526C292.624 286.526 290.58 284.766 290.368 282.37C290.258 281.115 290.161 279.69 290.161 278.513C290.161 277.336 290.258 275.91 290.368 274.655ZM295 272.423C293.582 272.423 292.416 273.464 292.296 274.823C292.187 276.061 292.097 277.42 292.097 278.513C292.097 279.605 292.187 280.964 292.296 282.202C292.416 283.561 293.582 284.603 295 284.603C296.418 284.603 297.584 283.561 297.704 282.202C297.813 280.964 297.903 279.605 297.903 278.513C297.903 277.42 297.813 276.061 297.704 274.823C297.584 273.464 296.418 272.423 295 272.423Z" fill="#36C3C3"/>
<path fill-rule="evenodd" clip-rule="evenodd" d="M285.968 278.192C286.502 278.192 286.935 278.623 286.935 279.154C286.935 280.303 287.022 281.635 287.153 282.984C287.529 286.875 290.961 289.731 295 289.731C299.038 289.731 302.471 286.875 302.847 282.984C302.978 281.635 303.064 280.303 303.064 279.154C303.064 278.623 303.498 278.192 304.032 278.192C304.567 278.192 305 278.623 305 279.154C305 280.389 304.907 281.787 304.774 283.168C304.324 287.818 300.489 291.184 295.968 291.609V294.539C295.968 295.07 295.535 295.5 295 295.5C294.465 295.5 294.032 295.07 294.032 294.539V291.609C289.511 291.184 285.676 287.818 285.226 283.168C285.093 281.787 285 280.389 285 279.154C285 278.623 285.433 278.192 285.968 278.192Z" fill="#36C3C3"/>
<path fill-rule="evenodd" clip-rule="evenodd" d="M285.968 278.192C286.502 278.192 286.935 278.623 286.935 279.154C286.935 280.303 287.022 281.635 287.153 282.984C287.529 286.875 290.961 289.731 295 289.731C299.038 289.731 302.471 286.875 302.847 282.984C302.978 281.635 303.064 280.303 303.064 279.154C303.064 278.623 303.498 278.192 304.032 278.192C304.567 278.192 305 278.623 305 279.154C305 280.389 304.907 281.787 304.774 283.168C304.324 287.818 300.489 291.184 295.968 291.609V294.539C295.968 295.07 295.535 295.5 295 295.5C294.465 295.5 294.032 295.07 294.032 294.539V291.609C289.511 291.184 285.676 287.818 285.226 283.168C285.093 281.787 285 280.389 285 279.154C285 278.623 285.433 278.192 285.968 278.192Z" fill="#36C3C3"/>
<rect x="20.5" y="260.5" width="299" height="45" rx="7.5" stroke="#2A2B2E"/>
<path d="M35.752 344.759H37.748C37.7936 345.16 38.0033 345.479 38.377 345.716C38.7507 345.953 39.2292 346.071 39.8125 346.071C40.3503 346.071 40.79 345.955 41.1318 345.723C41.4736 345.486 41.6445 345.18 41.6445 344.807C41.6445 344.492 41.5124 344.237 41.248 344.041C40.9837 343.845 40.5485 343.683 39.9424 343.556L38.6572 343.282C36.8708 342.909 35.9775 341.97 35.9775 340.466C35.9775 339.536 36.3216 338.791 37.0098 338.23C37.6979 337.665 38.6117 337.383 39.751 337.383C40.8356 337.383 41.7266 337.659 42.4238 338.21C43.1257 338.761 43.4925 339.477 43.5244 340.356H41.583C41.5329 339.965 41.3415 339.65 41.0088 339.413C40.6761 339.176 40.2614 339.058 39.7646 339.058C39.2451 339.058 38.8281 339.169 38.5137 339.393C38.2038 339.616 38.0488 339.914 38.0488 340.288C38.0488 340.593 38.1742 340.84 38.4248 341.026C38.68 341.213 39.097 341.368 39.6758 341.491L40.8652 341.744C41.8542 341.954 42.5742 342.282 43.0254 342.729C43.4766 343.175 43.7021 343.781 43.7021 344.547C43.7021 345.54 43.3444 346.324 42.6289 346.898C41.918 347.468 40.9427 347.753 39.7031 347.753C38.5273 347.753 37.584 347.484 36.873 346.946C36.1621 346.409 35.7884 345.679 35.752 344.759ZM48.7197 341.32C48.2594 341.32 47.8789 341.468 47.5781 341.765C47.2819 342.061 47.1156 342.453 47.0791 342.94H50.292C50.2692 342.439 50.1165 342.045 49.834 341.758C49.556 341.466 49.1846 341.32 48.7197 341.32ZM50.333 345.354H52.1855C52.0352 346.069 51.6523 346.634 51.0371 347.049C50.4264 347.459 49.6608 347.664 48.7402 347.664C47.5918 347.664 46.6963 347.322 46.0537 346.639C45.4111 345.951 45.0898 344.993 45.0898 343.768C45.0898 342.542 45.4134 341.573 46.0605 340.862C46.7077 340.151 47.5918 339.796 48.7129 339.796C49.8249 339.796 50.6908 340.131 51.3105 340.801C51.9349 341.471 52.2471 342.405 52.2471 343.604V344.212H47.0723V344.314C47.0859 344.875 47.2454 345.319 47.5508 345.647C47.8607 345.971 48.2754 346.133 48.7949 346.133C49.1868 346.133 49.515 346.067 49.7793 345.935C50.0436 345.798 50.2282 345.604 50.333 345.354ZM56.6016 346.119C57.0618 346.119 57.4469 345.989 57.7568 345.729C58.0667 345.47 58.2217 345.148 58.2217 344.766V344.212L56.6973 344.308C55.8496 344.367 55.4258 344.67 55.4258 345.217C55.4258 345.495 55.5329 345.716 55.7471 345.88C55.9658 346.039 56.2507 346.119 56.6016 346.119ZM55.9453 347.616C55.2161 347.616 54.6214 347.409 54.1611 346.994C53.7054 346.579 53.4775 346.03 53.4775 345.347C53.4775 344.668 53.7282 344.134 54.2295 343.747C54.7354 343.355 55.4577 343.132 56.3965 343.077L58.2217 342.968V342.353C58.2217 342.038 58.1123 341.797 57.8936 341.628C57.6748 341.455 57.3604 341.368 56.9502 341.368C56.2119 341.368 55.7585 341.601 55.5898 342.065H53.7578C53.8216 341.368 54.1497 340.817 54.7422 340.411C55.3392 340.001 56.1117 339.796 57.0596 339.796C58.0531 339.796 58.821 340.019 59.3633 340.466C59.9102 340.912 60.1836 341.541 60.1836 342.353V347.5H58.2559V346.516H58.1328C57.9368 346.862 57.6452 347.133 57.2578 347.329C56.8704 347.521 56.4329 347.616 55.9453 347.616ZM62.1387 347.5V339.96H64.0664V341.163H64.1895C64.2897 340.78 64.5176 340.464 64.873 340.213C65.2331 339.962 65.6501 339.837 66.124 339.837C66.4658 339.837 66.7256 339.869 66.9033 339.933V341.744C66.6937 341.662 66.3792 341.621 65.96 341.621C65.4085 341.621 64.9642 341.774 64.627 342.079C64.2943 342.384 64.1279 342.799 64.1279 343.323V347.5H62.1387ZM74.7305 342.619H72.8711C72.8027 342.25 72.6387 341.961 72.3789 341.751C72.1237 341.537 71.7887 341.43 71.374 341.43C70.8363 341.43 70.4215 341.626 70.1299 342.018C69.8428 342.41 69.6992 342.975 69.6992 343.713C69.6992 344.46 69.8428 345.035 70.1299 345.436C70.4215 345.832 70.8363 346.03 71.374 346.03C71.7842 346.03 72.1169 345.932 72.3721 345.736C72.6318 345.54 72.7982 345.258 72.8711 344.889H74.7305C74.6484 345.741 74.3112 346.418 73.7188 346.919C73.1263 347.416 72.3447 347.664 71.374 347.664C70.1982 347.664 69.2891 347.322 68.6465 346.639C68.0085 345.951 67.6895 344.975 67.6895 343.713C67.6895 342.46 68.0085 341.493 68.6465 340.814C69.2845 340.135 70.1937 339.796 71.374 339.796C72.3584 339.796 73.1423 340.049 73.7256 340.555C74.3135 341.061 74.6484 341.749 74.7305 342.619ZM76.3574 347.5V337.082H78.3125V341.197H78.4355C78.6133 340.764 78.8981 340.427 79.29 340.186C79.6865 339.939 80.1605 339.816 80.7119 339.816C81.5277 339.816 82.1611 340.062 82.6123 340.555C83.068 341.047 83.2959 341.744 83.2959 342.646V347.5H81.3066V343.118C81.3066 342.599 81.1882 342.204 80.9512 341.936C80.7142 341.667 80.3701 341.532 79.9189 341.532C79.4268 341.532 79.0417 341.683 78.7637 341.983C78.4857 342.28 78.3467 342.676 78.3467 343.173V347.5H76.3574ZM87.541 347.356C87.3223 347.575 87.0306 347.685 86.666 347.685C86.3014 347.685 86.0075 347.575 85.7842 347.356C85.5654 347.133 85.4561 346.846 85.4561 346.495C85.4561 346.149 85.5654 345.866 85.7842 345.647C86.0075 345.424 86.3014 345.312 86.666 345.312C87.0306 345.312 87.3223 345.422 87.541 345.641C87.7643 345.859 87.876 346.144 87.876 346.495C87.876 346.846 87.7643 347.133 87.541 347.356ZM92.4082 347.356C92.1895 347.575 91.8978 347.685 91.5332 347.685C91.1686 347.685 90.8747 347.575 90.6514 347.356C90.4326 347.133 90.3232 346.846 90.3232 346.495C90.3232 346.149 90.4326 345.866 90.6514 345.647C90.8747 345.424 91.1686 345.312 91.5332 345.312C91.8978 345.312 92.1895 345.422 92.4082 345.641C92.6315 345.859 92.7432 346.144 92.7432 346.495C92.7432 346.846 92.6315 347.133 92.4082 347.356Z" fill="#2A2B2E"/>
<path fill-rule="evenodd" clip-rule="evenodd" d="M290.368 334.655C290.58 332.259 292.624 330.5 295 330.5C297.376 330.5 299.42 332.259 299.632 334.655C299.742 335.91 299.839 337.336 299.839 338.513C299.839 339.69 299.742 341.115 299.632 342.37C299.42 344.766 297.376 346.526 295 346.526C292.624 346.526 290.58 344.766 290.368 342.37C290.258 341.115 290.161 339.69 290.161 338.513C290.161 337.336 290.258 335.91 290.368 334.655ZM295 332.423C293.582 332.423 292.416 333.464 292.296 334.823C292.187 336.061 292.097 337.42 292.097 338.513C292.097 339.605 292.187 340.964 292.296 342.202C292.416 343.561 293.582 344.603 295 344.603C296.418 344.603 297.584 343.561 297.704 342.202C297.813 340.964 297.903 339.605 297.903 338.513C297.903 337.42 297.813 336.061 297.704 334.823C297.584 333.464 296.418 332.423 295 332.423Z" fill="#36C3C3"/>
<path fill-rule="evenodd" clip-rule="evenodd" d="M285.968 338.192C286.502 338.192 286.935 338.623 286.935 339.154C286.935 340.303 287.022 341.635 287.153 342.984C287.529 346.875 290.961 349.731 295 349.731C299.038 349.731 302.471 346.875 302.847 342.984C302.978 341.635 303.064 340.303 303.064 339.154C303.064 338.623 303.498 338.192 304.032 338.192C304.567 338.192 305 338.623 305 339.154C305 340.389 304.907 341.787 304.774 343.168C304.324 347.818 300.489 351.184 295.968 351.609V354.539C295.968 355.07 295.535 355.5 295 355.5C294.465 355.5 294.032 355.07 294.032 354.539V351.609C289.511 351.184 285.676 347.818 285.226 343.168C285.093 341.787 285 340.389 285 339.154C285 338.623 285.433 338.192 285.968 338.192Z" fill="#36C3C3"/>
<path fill-rule="evenodd" clip-rule="evenodd" d="M285.968 338.192C286.502 338.192 286.935 338.623 286.935 339.154C286.935 340.303 287.022 341.635 287.153 342.984C287.529 346.875 290.961 349.731 295 349.731C299.038 349.731 302.471 346.875 302.847 342.984C302.978 341.635 303.064 340.303 303.064 339.154C303.064 338.623 303.498 338.192 304.032 338.192C304.567 338.192 305 338.623 305 339.154C305 340.389 304.907 341.787 304.774 343.168C304.324 347.818 300.489 351.184 295.968 351.609V354.539C295.968 355.07 295.535 355.5 295 355.5C294.465 355.5 294.032 355.07 294.032 354.539V351.609C289.511 351.184 285.676 347.818 285.226 343.168C285.093 341.787 285 340.389 285 339.154C285 338.623 285.433 338.192 285.968 338.192Z" fill="#36C3C3"/>
<rect x="20.5" y="320.5" width="299" height="45" rx="7.5" stroke="#D5D5D5"/>
<rect x="0.5" y="0.5" width="339" height="400" rx="4.5" stroke="#9747FF" stroke-dasharray="10 5"/>
<defs>
<clipPath id="clip0_211_2191">
<rect width="30" height="30" fill="white" transform="translate(35 28)"/>
</clipPath>
<clipPath id="clip1_211_2191">
<rect width="30" height="30" fill="white" transform="translate(35 88)"/>
</clipPath>
<clipPath id="clip2_211_2191">
<rect width="30" height="30" fill="white" transform="translate(35 148)"/>
</clipPath>
</defs>
</svg>
