<svg width="395" height="540" viewBox="0 0 395 540" fill="none" xmlns="http://www.w3.org/2000/svg">
<g filter="url(#filter0_d_223_6292)">
<path d="M10.5 42C10.5 25.7076 23.7076 12.5 40 12.5H355C371.292 12.5 384.5 25.7076 384.5 42V531.5H10.5V42Z" fill="white" stroke="#F4F4F4"/>
<rect x="167.332" y="32.8157" width="60.3351" height="2.3686" rx="1.1843" fill="#D5D5D5" stroke="#D5D5D5" stroke-width="2"/>
<path d="M112.109 87.1843H109.086V70.2742H112.109V87.1843ZM115.977 87.1843V74.364H118.777V76.4148H118.977C119.289 75.6804 119.766 75.114 120.406 74.7156C121.055 74.3093 121.848 74.1062 122.785 74.1062C124.207 74.1062 125.297 74.5203 126.055 75.3484C126.82 76.1765 127.203 77.3562 127.203 78.8875V87.1843H124.297V79.5789C124.297 77.6179 123.434 76.6375 121.707 76.6375C120.84 76.6375 120.152 76.9148 119.645 77.4695C119.137 78.0242 118.883 78.7742 118.883 79.7195V87.1843H115.977ZM130.355 78.032C130.355 76.8757 130.832 75.9343 131.785 75.2078C132.738 74.4734 133.973 74.1062 135.488 74.1062C137.012 74.1062 138.227 74.4304 139.133 75.0789C140.047 75.7195 140.555 76.6218 140.656 77.7859H137.926C137.816 77.325 137.551 76.9656 137.129 76.7078C136.715 76.4421 136.172 76.3093 135.5 76.3093C134.828 76.3093 134.273 76.4539 133.836 76.7429C133.398 77.032 133.18 77.407 133.18 77.8679C133.18 78.2273 133.332 78.5242 133.637 78.7585C133.949 78.9929 134.43 79.1843 135.078 79.3328L137.34 79.8484C138.574 80.1296 139.48 80.5476 140.059 81.1023C140.637 81.657 140.926 82.4031 140.926 83.3406C140.926 84.5671 140.418 85.5593 139.402 86.3171C138.387 87.0671 137.074 87.4421 135.465 87.4421C133.863 87.4421 132.582 87.114 131.621 86.4578C130.668 85.8015 130.137 84.8914 130.027 83.7273H132.898C133.039 84.2117 133.332 84.5867 133.777 84.8523C134.23 85.1101 134.816 85.239 135.535 85.239C136.27 85.239 136.867 85.0945 137.328 84.8054C137.789 84.5085 138.02 84.1218 138.02 83.6453C138.02 82.9343 137.43 82.45 136.25 82.1921L133.977 81.6648C132.742 81.3835 131.828 80.95 131.234 80.364C130.648 79.7703 130.355 78.9929 130.355 78.032ZM149.246 76.4148C148.379 76.4148 147.664 76.7 147.102 77.2703C146.539 77.8406 146.227 78.5945 146.164 79.532H152.199C152.168 78.5789 151.887 77.821 151.355 77.2585C150.824 76.696 150.121 76.4148 149.246 76.4148ZM152.223 83.657H154.977C154.703 84.8289 154.059 85.7546 153.043 86.4343C152.035 87.1062 150.781 87.4421 149.281 87.4421C147.398 87.4421 145.918 86.8562 144.84 85.6843C143.77 84.5046 143.234 82.8835 143.234 80.821C143.234 78.7585 143.773 77.1257 144.852 75.9226C145.93 74.7117 147.398 74.1062 149.258 74.1062C151.086 74.1062 152.516 74.6804 153.547 75.8289C154.586 76.9695 155.105 78.5515 155.105 80.575V81.5125H146.152V81.6648C146.191 82.7351 146.496 83.5828 147.066 84.2078C147.645 84.825 148.41 85.1335 149.363 85.1335C150.832 85.1335 151.785 84.6414 152.223 83.657ZM158.023 87.1843V74.364H160.824V76.3562H161.023C161.203 75.7156 161.605 75.1882 162.23 74.7742C162.863 74.3601 163.59 74.1531 164.41 74.1531C164.934 74.1531 165.336 74.196 165.617 74.282V76.9773C165.32 76.8679 164.824 76.8132 164.129 76.8132C163.184 76.8132 162.414 77.0867 161.82 77.6335C161.227 78.1726 160.93 78.8875 160.93 79.7781V87.1843H158.023ZM169.52 71.2234H172.414V74.446H175.156V76.7664H172.414V83.0593C172.414 83.6921 172.555 84.157 172.836 84.4539C173.117 84.7429 173.562 84.8875 174.172 84.8875C174.438 84.8875 174.766 84.8679 175.156 84.8289V87.1023C174.672 87.196 174.164 87.2429 173.633 87.2429C172.164 87.2429 171.109 86.9734 170.469 86.4343C169.836 85.8953 169.52 85.0046 169.52 83.7625V76.7664H167.492V74.446H169.52V71.2234ZM185.387 71.2234H188.281V74.446H191.023V76.7664H188.281V83.0593C188.281 83.6921 188.422 84.157 188.703 84.4539C188.984 84.7429 189.43 84.8875 190.039 84.8875C190.305 84.8875 190.633 84.8679 191.023 84.8289V87.1023C190.539 87.196 190.031 87.2429 189.5 87.2429C188.031 87.2429 186.977 86.9734 186.336 86.4343C185.703 85.8953 185.387 85.0046 185.387 83.7625V76.7664H183.359V74.446H185.387V71.2234ZM199.191 76.4148C198.324 76.4148 197.609 76.7 197.047 77.2703C196.484 77.8406 196.172 78.5945 196.109 79.532H202.145C202.113 78.5789 201.832 77.821 201.301 77.2585C200.77 76.696 200.066 76.4148 199.191 76.4148ZM202.168 83.657H204.922C204.648 84.8289 204.004 85.7546 202.988 86.4343C201.98 87.1062 200.727 87.4421 199.227 87.4421C197.344 87.4421 195.863 86.8562 194.785 85.6843C193.715 84.5046 193.18 82.8835 193.18 80.821C193.18 78.7585 193.719 77.1257 194.797 75.9226C195.875 74.7117 197.344 74.1062 199.203 74.1062C201.031 74.1062 202.461 74.6804 203.492 75.8289C204.531 76.9695 205.051 78.5515 205.051 80.575V81.5125H196.098V81.6648C196.137 82.7351 196.441 83.5828 197.012 84.2078C197.59 84.825 198.355 85.1335 199.309 85.1335C200.777 85.1335 201.73 84.6414 202.168 83.657ZM212.445 82.7664H212.246L209.621 87.1843H206.492L210.641 80.821L206.457 74.364H209.82L212.375 78.7703H212.574L215.105 74.364H218.305L214.168 80.7039L218.352 87.1843H215.07L212.445 82.7664ZM221.855 71.2234H224.75V74.446H227.492V76.7664H224.75V83.0593C224.75 83.6921 224.891 84.157 225.172 84.4539C225.453 84.7429 225.898 84.8875 226.508 84.8875C226.773 84.8875 227.102 84.8679 227.492 84.8289V87.1023C227.008 87.196 226.5 87.2429 225.969 87.2429C224.5 87.2429 223.445 86.9734 222.805 86.4343C222.172 85.8953 221.855 85.0046 221.855 83.7625V76.7664H219.828V74.446H221.855V71.2234ZM236.914 87.1843V69.407H239.773V76.4382H239.984C240.289 75.7117 240.777 75.1453 241.449 74.739C242.121 74.3328 242.93 74.1296 243.875 74.1296C245.258 74.1296 246.336 74.5476 247.109 75.3835C247.891 76.2195 248.281 77.3953 248.281 78.9109V87.1843H245.375V79.6023C245.375 78.6335 245.156 77.9031 244.719 77.4109C244.281 76.9109 243.641 76.6609 242.797 76.6609C241.859 76.6609 241.129 76.9421 240.605 77.5046C240.082 78.0593 239.82 78.8054 239.82 79.7429V87.1843H236.914ZM257.105 76.4148C256.238 76.4148 255.523 76.7 254.961 77.2703C254.398 77.8406 254.086 78.5945 254.023 79.532H260.059C260.027 78.5789 259.746 77.821 259.215 77.2585C258.684 76.696 257.98 76.4148 257.105 76.4148ZM260.082 83.657H262.836C262.562 84.8289 261.918 85.7546 260.902 86.4343C259.895 87.1062 258.641 87.4421 257.141 87.4421C255.258 87.4421 253.777 86.8562 252.699 85.6843C251.629 84.5046 251.094 82.8835 251.094 80.821C251.094 78.7585 251.633 77.1257 252.711 75.9226C253.789 74.7117 255.258 74.1062 257.117 74.1062C258.945 74.1062 260.375 74.6804 261.406 75.8289C262.445 76.9695 262.965 78.5515 262.965 80.575V81.5125H254.012V81.6648C254.051 82.7351 254.355 83.5828 254.926 84.2078C255.504 84.825 256.27 85.1335 257.223 85.1335C258.691 85.1335 259.645 84.6414 260.082 83.657ZM265.883 87.1843V74.364H268.684V76.3562H268.883C269.062 75.7156 269.465 75.1882 270.09 74.7742C270.723 74.3601 271.449 74.1531 272.27 74.1531C272.793 74.1531 273.195 74.196 273.477 74.282V76.9773C273.18 76.8679 272.684 76.8132 271.988 76.8132C271.043 76.8132 270.273 77.0867 269.68 77.6335C269.086 78.1726 268.789 78.8875 268.789 79.7781V87.1843H265.883ZM280.918 76.4148C280.051 76.4148 279.336 76.7 278.773 77.2703C278.211 77.8406 277.898 78.5945 277.836 79.532H283.871C283.84 78.5789 283.559 77.821 283.027 77.2585C282.496 76.696 281.793 76.4148 280.918 76.4148ZM283.895 83.657H286.648C286.375 84.8289 285.73 85.7546 284.715 86.4343C283.707 87.1062 282.453 87.4421 280.953 87.4421C279.07 87.4421 277.59 86.8562 276.512 85.6843C275.441 84.5046 274.906 82.8835 274.906 80.821C274.906 78.7585 275.445 77.1257 276.523 75.9226C277.602 74.7117 279.07 74.1062 280.93 74.1062C282.758 74.1062 284.188 74.6804 285.219 75.8289C286.258 76.9695 286.777 78.5515 286.777 80.575V81.5125H277.824V81.6648C277.863 82.7351 278.168 83.5828 278.738 84.2078C279.316 84.825 280.082 85.1335 281.035 85.1335C282.504 85.1335 283.457 84.6414 283.895 83.657Z" fill="black"/>
</g>
<defs>
<filter id="filter0_d_223_6292" x="0" y="0" width="395" height="540" filterUnits="userSpaceOnUse" color-interpolation-filters="sRGB">
<feFlood flood-opacity="0" result="BackgroundImageFix"/>
<feColorMatrix in="SourceAlpha" type="matrix" values="0 0 0 0 0 0 0 0 0 0 0 0 0 0 0 0 0 0 127 0" result="hardAlpha"/>
<feOffset dy="-2"/>
<feGaussianBlur stdDeviation="5"/>
<feComposite in2="hardAlpha" operator="out"/>
<feColorMatrix type="matrix" values="0 0 0 0 0 0 0 0 0 0 0 0 0 0 0 0 0 0 0.05 0"/>
<feBlend mode="normal" in2="BackgroundImageFix" result="effect1_dropShadow_223_6292"/>
<feBlend mode="normal" in="SourceGraphic" in2="effect1_dropShadow_223_6292" result="shape"/>
</filter>
</defs>
</svg>
