<svg width="373" height="64" viewBox="0 0 373 64" fill="none" xmlns="http://www.w3.org/2000/svg">
<rect width="373" height="64" fill="white"/>
<path d="M42.5 10C38.034 10 34.4007 13.6333 34.4007 18.0993C34.4007 19.9421 35.0046 21.6776 36.1472 23.1182C37.6265 24.9835 41.9286 29.4123 42.111 29.5999L42.5 30L42.8889 29.6C43.0714 29.4123 47.3748 24.9825 48.8544 23.1166C49.996 21.6771 50.5993 19.9422 50.5993 18.0993C50.5993 13.6333 46.966 10 42.5 10ZM48.0043 22.4424C46.8132 23.9444 43.6144 27.2857 42.5 28.4414C41.3857 27.2858 38.1881 23.9455 36.9972 22.444C36.0084 21.1971 35.4857 19.6948 35.4857 18.0993C35.4857 14.2316 38.6323 11.085 42.5 11.085C46.3677 11.085 49.5143 14.2316 49.5143 18.0993C49.5143 19.6949 48.9921 21.1967 48.0043 22.4424Z" fill="#36C3C3"/>
<path d="M42.5 13.2151C39.8564 13.2151 37.7057 15.3658 37.7057 18.0094C37.7057 20.6529 39.8565 22.8036 42.5 22.8036C45.1435 22.8036 47.2943 20.6529 47.2943 18.0094C47.2943 15.3658 45.1436 13.2151 42.5 13.2151ZM42.5 21.7186C40.4547 21.7186 38.7907 20.0546 38.7907 18.0094C38.7907 15.964 40.4547 14.3001 42.5 14.3001C44.5453 14.3001 46.2092 15.9641 46.2093 18.0094C46.2093 20.0547 44.5453 21.7186 42.5 21.7186Z" fill="#36C3C3"/>
<path d="M33.6963 46H32.2852V38.9541H33.5156L36.7578 43.3438H36.8457V38.9541H38.2568V46H37.0361L33.7842 41.5908H33.6963V46ZM41.7725 45.0137C42.1012 45.0137 42.3763 44.9209 42.5977 44.7354C42.819 44.5498 42.9297 44.3203 42.9297 44.0469V43.6514L41.8408 43.7197C41.2354 43.762 40.9326 43.9785 40.9326 44.3691C40.9326 44.5677 41.0091 44.7256 41.1621 44.8428C41.3184 44.9567 41.5218 45.0137 41.7725 45.0137ZM41.3037 46.083C40.7829 46.083 40.3581 45.9349 40.0293 45.6387C39.7038 45.3424 39.541 44.9502 39.541 44.4619C39.541 43.9769 39.7201 43.596 40.0781 43.3193C40.4395 43.0394 40.9554 42.8799 41.626 42.8408L42.9297 42.7627V42.3232C42.9297 42.0986 42.8516 41.9261 42.6953 41.8057C42.5391 41.682 42.3145 41.6201 42.0215 41.6201C41.4941 41.6201 41.1702 41.7861 41.0498 42.1182H39.7412C39.7868 41.6201 40.0212 41.2262 40.4443 40.9365C40.8708 40.6436 41.4225 40.4971 42.0996 40.4971C42.8092 40.4971 43.3577 40.6566 43.7451 40.9756C44.1357 41.2946 44.3311 41.7438 44.3311 42.3232V46H42.9541V45.2969H42.8662C42.7262 45.5443 42.5179 45.738 42.2412 45.8779C41.9645 46.0146 41.652 46.083 41.3037 46.083ZM50.4492 40.6143L48.5889 46H46.9873L45.1172 40.6143H46.6455L47.7588 44.6279H47.8467L48.9502 40.6143H50.4492ZM51.4209 46V40.6143H52.8418V46H51.4209ZM52.1338 39.8623C51.8799 39.8623 51.6764 39.7956 51.5234 39.6621C51.3704 39.5286 51.2939 39.3561 51.2939 39.1445C51.2939 38.9297 51.3704 38.7572 51.5234 38.627C51.6764 38.4935 51.8799 38.4268 52.1338 38.4268C52.3877 38.4268 52.5911 38.4935 52.7441 38.627C52.8971 38.7572 52.9736 38.9297 52.9736 39.1445C52.9736 39.3561 52.8955 39.5286 52.7393 39.6621C52.5863 39.7956 52.3844 39.8623 52.1338 39.8623Z" fill="#36C3C3"/>
<rect x="20.5" y="55" width="44" height="5" rx="2.5" fill="#36C3C3"/>
<path d="M105.327 23.4483H103.258V25.5172H105.327V23.4483Z" fill="#D5D5D5"/>
<path d="M111.535 23.4483H109.466V25.5172H111.535V23.4483Z" fill="#D5D5D5"/>
<path d="M117.741 23.4483H115.672V25.5172H117.741V23.4483Z" fill="#D5D5D5"/>
<path d="M123.948 10H97.0518C96.5032 10.0006 95.9773 10.2188 95.5895 10.6067C95.2016 10.9945 94.9834 11.5204 94.9828 12.069V30.6897C94.9834 31.2382 95.2016 31.7641 95.5895 32.152C95.9773 32.5398 96.5032 32.758 97.0518 32.7586H101.19V40H103.17L110.411 32.7586H123.948C124.497 32.758 125.023 32.5398 125.411 32.152C125.798 31.7641 126.017 31.2382 126.017 30.6897V12.069C126.017 11.5204 125.798 10.9945 125.411 10.6067C125.023 10.2188 124.497 10.0006 123.948 10ZM123.948 30.6897H109.554L103.259 36.9853V30.6897H97.0518V12.069H123.948V30.6897Z" fill="#D5D5D5"/>
<path d="M96.8721 54.1592H97.7607C97.8161 54.527 98.0065 54.82 98.332 55.0381C98.6576 55.2562 99.071 55.3652 99.5723 55.3652C100.048 55.3652 100.44 55.2513 100.749 55.0234C101.062 54.7923 101.218 54.5026 101.218 54.1543C101.218 53.8548 101.104 53.6074 100.876 53.4121C100.648 53.2135 100.292 53.0524 99.8066 52.9287L98.9033 52.6943C98.2653 52.5348 97.8014 52.3037 97.5117 52.001C97.222 51.6982 97.0771 51.2962 97.0771 50.7949C97.0771 50.196 97.305 49.7126 97.7607 49.3447C98.2197 48.9736 98.8219 48.7881 99.5674 48.7881C100.248 48.7881 100.817 48.9704 101.276 49.335C101.735 49.6995 101.983 50.1667 102.019 50.7363H101.135C101.073 50.375 100.9 50.0934 100.617 49.8916C100.337 49.6865 99.9775 49.584 99.5381 49.584C99.0693 49.584 98.6917 49.693 98.4053 49.9111C98.1221 50.126 97.9805 50.4108 97.9805 50.7656C97.9805 51.0423 98.0846 51.2669 98.293 51.4395C98.5046 51.612 98.8529 51.7601 99.3379 51.8838L100.075 52.0791C100.804 52.2614 101.327 52.5055 101.643 52.8115C101.962 53.1175 102.121 53.5293 102.121 54.0469C102.121 54.6947 101.883 55.2106 101.408 55.5947C100.933 55.9756 100.293 56.166 99.4893 56.166C98.7438 56.166 98.1318 55.9837 97.6533 55.6191C97.1781 55.2546 96.9176 54.7679 96.8721 54.1592ZM107.414 55.3652C106.981 55.8503 106.39 56.0928 105.642 56.0928C104.893 56.0928 104.3 55.8503 103.864 55.3652C103.431 54.877 103.215 54.2113 103.215 53.3682C103.215 52.5218 103.431 51.8561 103.864 51.3711C104.297 50.8861 104.89 50.6436 105.642 50.6436C106.394 50.6436 106.986 50.8861 107.419 51.3711C107.852 51.8561 108.068 52.5218 108.068 53.3682C108.068 54.2113 107.85 54.877 107.414 55.3652ZM104.489 54.8232C104.759 55.165 105.144 55.3359 105.642 55.3359C106.14 55.3359 106.524 55.165 106.794 54.8232C107.064 54.4782 107.199 53.9932 107.199 53.3682C107.199 52.7432 107.064 52.2598 106.794 51.918C106.524 51.5729 106.14 51.4004 105.642 51.4004C105.144 51.4004 104.759 51.5729 104.489 51.918C104.219 52.2598 104.084 52.7432 104.084 53.3682C104.084 53.9932 104.219 54.4782 104.489 54.8232ZM113.742 52.3477H112.893C112.821 52.071 112.666 51.8447 112.429 51.6689C112.194 51.4899 111.896 51.4004 111.535 51.4004C111.063 51.4004 110.687 51.5762 110.407 51.9277C110.131 52.2793 109.992 52.7529 109.992 53.3486C109.992 53.9541 110.132 54.4375 110.412 54.7988C110.692 55.1569 111.066 55.3359 111.535 55.3359C111.89 55.3359 112.185 55.2562 112.419 55.0967C112.657 54.9372 112.814 54.7093 112.893 54.4131H113.742C113.664 54.9111 113.431 55.3164 113.044 55.6289C112.657 55.9382 112.155 56.0928 111.54 56.0928C110.801 56.0928 110.214 55.8454 109.777 55.3506C109.341 54.8525 109.123 54.1852 109.123 53.3486C109.123 52.5283 109.341 51.8724 109.777 51.3809C110.214 50.8893 110.799 50.6436 111.535 50.6436C112.15 50.6436 112.652 50.8047 113.039 51.127C113.43 51.4492 113.664 51.8561 113.742 52.3477ZM115.002 56V50.7363H115.842V56H115.002ZM115.837 49.4961C115.723 49.61 115.585 49.667 115.422 49.667C115.259 49.667 115.121 49.61 115.007 49.4961C114.893 49.3789 114.836 49.2406 114.836 49.0811C114.836 48.9215 114.893 48.7848 115.007 48.6709C115.121 48.5537 115.259 48.4951 115.422 48.4951C115.585 48.4951 115.723 48.5537 115.837 48.6709C115.951 48.7848 116.008 48.9215 116.008 49.0811C116.008 49.2406 115.951 49.3789 115.837 49.4961ZM119.064 55.3555C119.497 55.3555 119.855 55.2301 120.139 54.9795C120.425 54.7288 120.568 54.4147 120.568 54.0371V53.5537L119.152 53.6465C118.755 53.6725 118.464 53.7555 118.278 53.8955C118.093 54.0355 118 54.2389 118 54.5059C118 54.7695 118.099 54.9779 118.298 55.1309C118.496 55.2806 118.752 55.3555 119.064 55.3555ZM118.908 56.0928C118.391 56.0928 117.964 55.9512 117.629 55.668C117.297 55.3815 117.131 55.0007 117.131 54.5254C117.131 54.0566 117.297 53.6888 117.629 53.4219C117.961 53.1549 118.435 53.0036 119.05 52.9678L120.568 52.875V52.3965C120.568 52.071 120.467 51.8219 120.266 51.6494C120.064 51.4769 119.768 51.3906 119.377 51.3906C119.061 51.3906 118.799 51.4476 118.591 51.5615C118.382 51.6755 118.249 51.8366 118.19 52.0449H117.341C117.396 51.625 117.613 51.2865 117.99 51.0293C118.371 50.7721 118.843 50.6436 119.406 50.6436C120.044 50.6436 120.537 50.7982 120.886 51.1074C121.234 51.4167 121.408 51.8464 121.408 52.3965V56H120.607V55.2236H120.529C120.36 55.5036 120.135 55.7184 119.855 55.8682C119.576 56.0179 119.26 56.0928 118.908 56.0928ZM123.01 56V48.6465H123.85V56H123.01Z" fill="black" fill-opacity="0.3"/>
<path d="M178.5 28C178.797 28 179.087 27.912 179.333 27.7472C179.58 27.5824 179.772 27.3481 179.886 27.074C179.999 26.7999 180.029 26.4983 179.971 26.2074C179.913 25.9164 179.77 25.6491 179.561 25.4393C179.351 25.2296 179.084 25.0867 178.793 25.0288C178.502 24.9709 178.2 25.0006 177.926 25.1142C177.652 25.2277 177.418 25.42 177.253 25.6666C177.088 25.9133 177 26.2033 177 26.5C177 26.8978 177.158 27.2794 177.439 27.5607C177.721 27.842 178.102 28 178.5 28ZM186 28C186.297 28 186.587 27.912 186.833 27.7472C187.08 27.5824 187.272 27.3481 187.386 27.074C187.499 26.7999 187.529 26.4983 187.471 26.2074C187.413 25.9164 187.27 25.6491 187.061 25.4393C186.851 25.2296 186.584 25.0867 186.293 25.0288C186.002 24.9709 185.7 25.0006 185.426 25.1142C185.152 25.2277 184.918 25.42 184.753 25.6666C184.588 25.9133 184.5 26.2033 184.5 26.5C184.5 26.8978 184.658 27.2794 184.939 27.5607C185.221 27.842 185.602 28 186 28ZM178.5 34C178.797 34 179.087 33.912 179.333 33.7472C179.58 33.5824 179.772 33.3481 179.886 33.074C179.999 32.7999 180.029 32.4983 179.971 32.2074C179.913 31.9164 179.77 31.6491 179.561 31.4393C179.351 31.2296 179.084 31.0867 178.793 31.0288C178.502 30.9709 178.2 31.0006 177.926 31.1142C177.652 31.2277 177.418 31.42 177.253 31.6666C177.088 31.9133 177 32.2033 177 32.5C177 32.8978 177.158 33.2794 177.439 33.5607C177.721 33.842 178.102 34 178.5 34ZM186 34C186.297 34 186.587 33.912 186.833 33.7472C187.08 33.5824 187.272 33.3481 187.386 33.074C187.499 32.7999 187.529 32.4983 187.471 32.2074C187.413 31.9164 187.27 31.6491 187.061 31.4393C186.851 31.2296 186.584 31.0867 186.293 31.0288C186.002 30.9709 185.7 31.0006 185.426 31.1142C185.152 31.2277 184.918 31.42 184.753 31.6666C184.588 31.9133 184.5 32.2033 184.5 32.5C184.5 32.8978 184.658 33.2794 184.939 33.5607C185.221 33.842 185.602 34 186 34ZM171 28C171.297 28 171.587 27.912 171.833 27.7472C172.08 27.5824 172.272 27.3481 172.386 27.074C172.499 26.7999 172.529 26.4983 172.471 26.2074C172.413 25.9164 172.27 25.6491 172.061 25.4393C171.851 25.2296 171.584 25.0867 171.293 25.0288C171.002 24.9709 170.7 25.0006 170.426 25.1142C170.152 25.2277 169.918 25.42 169.753 25.6666C169.588 25.9133 169.5 26.2033 169.5 26.5C169.5 26.8978 169.658 27.2794 169.939 27.5607C170.221 27.842 170.602 28 171 28ZM189 13H187.5V11.5C187.5 11.1022 187.342 10.7206 187.061 10.4393C186.779 10.158 186.398 10 186 10C185.602 10 185.221 10.158 184.939 10.4393C184.658 10.7206 184.5 11.1022 184.5 11.5V13H172.5V11.5C172.5 11.1022 172.342 10.7206 172.061 10.4393C171.779 10.158 171.398 10 171 10C170.602 10 170.221 10.158 169.939 10.4393C169.658 10.7206 169.5 11.1022 169.5 11.5V13H168C166.807 13 165.662 13.4741 164.818 14.318C163.974 15.1619 163.5 16.3065 163.5 17.5V35.5C163.5 36.6935 163.974 37.8381 164.818 38.682C165.662 39.5259 166.807 40 168 40H189C190.193 40 191.338 39.5259 192.182 38.682C193.026 37.8381 193.5 36.6935 193.5 35.5V17.5C193.5 16.3065 193.026 15.1619 192.182 14.318C191.338 13.4741 190.193 13 189 13ZM190.5 35.5C190.5 35.8978 190.342 36.2794 190.061 36.5607C189.779 36.842 189.398 37 189 37H168C167.602 37 167.221 36.842 166.939 36.5607C166.658 36.2794 166.5 35.8978 166.5 35.5V22H190.5V35.5ZM190.5 19H166.5V17.5C166.5 17.1022 166.658 16.7206 166.939 16.4393C167.221 16.158 167.602 16 168 16H189C189.398 16 189.779 16.158 190.061 16.4393C190.342 16.7206 190.5 17.1022 190.5 17.5V19ZM171 34C171.297 34 171.587 33.912 171.833 33.7472C172.08 33.5824 172.272 33.3481 172.386 33.074C172.499 32.7999 172.529 32.4983 172.471 32.2074C172.413 31.9164 172.27 31.6491 172.061 31.4393C171.851 31.2296 171.584 31.0867 171.293 31.0288C171.002 30.9709 170.7 31.0006 170.426 31.1142C170.152 31.2277 169.918 31.42 169.753 31.6666C169.588 31.9133 169.5 32.2033 169.5 32.5C169.5 32.8978 169.658 33.2794 169.939 33.5607C170.221 33.842 170.602 34 171 34Z" fill="#D5D5D5"/>
<path d="M157.143 55.1592H158.031C158.087 55.527 158.277 55.82 158.603 56.0381C158.928 56.2562 159.341 56.3652 159.843 56.3652C160.318 56.3652 160.71 56.2513 161.02 56.0234C161.332 55.7923 161.488 55.5026 161.488 55.1543C161.488 54.8548 161.374 54.6074 161.146 54.4121C160.919 54.2135 160.562 54.0524 160.077 53.9287L159.174 53.6943C158.536 53.5348 158.072 53.3037 157.782 53.001C157.493 52.6982 157.348 52.2962 157.348 51.7949C157.348 51.196 157.576 50.7126 158.031 50.3447C158.49 49.9736 159.092 49.7881 159.838 49.7881C160.518 49.7881 161.088 49.9704 161.547 50.335C162.006 50.6995 162.253 51.1667 162.289 51.7363H161.405C161.343 51.375 161.171 51.0934 160.888 50.8916C160.608 50.6865 160.248 50.584 159.809 50.584C159.34 50.584 158.962 50.693 158.676 50.9111C158.393 51.126 158.251 51.4108 158.251 51.7656C158.251 52.0423 158.355 52.2669 158.563 52.4395C158.775 52.612 159.123 52.7601 159.608 52.8838L160.346 53.0791C161.075 53.2614 161.597 53.5055 161.913 53.8115C162.232 54.1175 162.392 54.5293 162.392 55.0469C162.392 55.6947 162.154 56.2106 161.679 56.5947C161.203 56.9756 160.564 57.166 159.76 57.166C159.014 57.166 158.402 56.9837 157.924 56.6191C157.449 56.2546 157.188 55.7679 157.143 55.1592ZM168.104 53.3477H167.255C167.183 53.071 167.029 52.8447 166.791 52.6689C166.557 52.4899 166.259 52.4004 165.897 52.4004C165.425 52.4004 165.049 52.5762 164.77 52.9277C164.493 53.2793 164.354 53.7529 164.354 54.3486C164.354 54.9541 164.494 55.4375 164.774 55.7988C165.054 56.1569 165.429 56.3359 165.897 56.3359C166.252 56.3359 166.547 56.2562 166.781 56.0967C167.019 55.9372 167.177 55.7093 167.255 55.4131H168.104C168.026 55.9111 167.794 56.3164 167.406 56.6289C167.019 56.9382 166.518 57.0928 165.902 57.0928C165.163 57.0928 164.576 56.8454 164.14 56.3506C163.703 55.8525 163.485 55.1852 163.485 54.3486C163.485 53.5283 163.703 52.8724 164.14 52.3809C164.576 51.8893 165.162 51.6436 165.897 51.6436C166.513 51.6436 167.014 51.8047 167.401 52.127C167.792 52.4492 168.026 52.8561 168.104 53.3477ZM169.394 57V49.6465H170.233V52.5664H170.312C170.445 52.2702 170.648 52.0423 170.922 51.8828C171.199 51.7233 171.535 51.6436 171.933 51.6436C172.493 51.6436 172.935 51.8161 173.261 52.1611C173.586 52.5029 173.749 52.9798 173.749 53.5918V57H172.909V53.7969C172.909 52.8659 172.504 52.4004 171.693 52.4004C171.231 52.4004 170.871 52.5355 170.614 52.8057C170.36 53.0726 170.233 53.4323 170.233 53.8848V57H169.394ZM177.382 52.3857C176.962 52.3857 176.617 52.5273 176.347 52.8105C176.076 53.0938 175.925 53.4681 175.893 53.9336H178.793C178.783 53.4681 178.65 53.0938 178.393 52.8105C178.135 52.5273 177.799 52.3857 177.382 52.3857ZM178.769 55.6377H179.608C179.481 56.0934 179.223 56.4499 178.832 56.707C178.445 56.9642 177.965 57.0928 177.392 57.0928C176.662 57.0928 176.085 56.8486 175.658 56.3604C175.232 55.8688 175.019 55.2064 175.019 54.373C175.019 53.543 175.233 52.8805 175.663 52.3857C176.093 51.891 176.669 51.6436 177.392 51.6436C178.101 51.6436 178.66 51.8796 179.066 52.3516C179.473 52.8236 179.677 53.4697 179.677 54.29V54.6123H175.893V54.6514C175.915 55.1722 176.062 55.5856 176.332 55.8916C176.605 56.1976 176.965 56.3506 177.411 56.3506C178.091 56.3506 178.544 56.113 178.769 55.6377ZM182.943 57.0928C182.27 57.0928 181.732 56.8454 181.332 56.3506C180.932 55.8558 180.731 55.195 180.731 54.3682C180.731 53.5446 180.932 52.8854 181.332 52.3906C181.736 51.8926 182.273 51.6436 182.943 51.6436C183.311 51.6436 183.64 51.7266 183.93 51.8926C184.223 52.0553 184.444 52.2799 184.594 52.5664H184.667V49.6465H185.507V57H184.706V56.1602H184.628C184.462 56.4531 184.231 56.6826 183.935 56.8486C183.638 57.0114 183.308 57.0928 182.943 57.0928ZM183.139 52.4004C182.66 52.4004 182.284 52.5762 182.011 52.9277C181.737 53.276 181.601 53.7562 181.601 54.3682C181.601 54.9834 181.736 55.4652 182.006 55.8135C182.279 56.1618 182.657 56.3359 183.139 56.3359C183.617 56.3359 183.995 56.1602 184.271 55.8086C184.548 55.457 184.687 54.9769 184.687 54.3682C184.687 53.766 184.547 53.2874 184.267 52.9326C183.99 52.5778 183.614 52.4004 183.139 52.4004ZM191.396 51.7363V57H190.595V56.1748H190.517C190.383 56.471 190.178 56.6989 189.901 56.8584C189.625 57.0146 189.286 57.0928 188.886 57.0928C188.3 57.0928 187.854 56.9251 187.548 56.5898C187.242 56.2546 187.089 55.7728 187.089 55.1445V51.7363H187.929V54.9395C187.929 55.418 188.023 55.7695 188.212 55.9941C188.401 56.2155 188.703 56.3262 189.12 56.3262C189.579 56.3262 189.932 56.1976 190.18 55.9404C190.43 55.68 190.556 55.3171 190.556 54.8516V51.7363H191.396ZM193.026 57V49.6465H193.866V57H193.026ZM197.597 52.3857C197.177 52.3857 196.832 52.5273 196.562 52.8105C196.291 53.0938 196.14 53.4681 196.107 53.9336H199.008C198.998 53.4681 198.865 53.0938 198.607 52.8105C198.35 52.5273 198.013 52.3857 197.597 52.3857ZM198.983 55.6377H199.823C199.696 56.0934 199.438 56.4499 199.047 56.707C198.66 56.9642 198.179 57.0928 197.606 57.0928C196.877 57.0928 196.299 56.8486 195.873 56.3604C195.447 55.8688 195.233 55.2064 195.233 54.373C195.233 53.543 195.448 52.8805 195.878 52.3857C196.308 51.891 196.884 51.6436 197.606 51.6436C198.316 51.6436 198.874 51.8796 199.281 52.3516C199.688 52.8236 199.892 53.4697 199.892 54.29V54.6123H196.107V54.6514C196.13 55.1722 196.277 55.5856 196.547 55.8916C196.82 56.1976 197.18 56.3506 197.626 56.3506C198.306 56.3506 198.759 56.113 198.983 55.6377Z" fill="black" fill-opacity="0.3"/>
<path d="M244.5 33.75V21.25C244.5 15.7275 248.977 11.25 254.5 11.25C260.023 11.25 264.5 15.7275 264.5 21.25V33.75M240.75 33.75H268.25M258.25 33.75V35C258.25 37.0712 256.571 38.75 254.5 38.75C252.429 38.75 250.75 37.0712 250.75 35V33.75" stroke="#D5D5D5" stroke-width="2"/>
<path d="M226.419 56H225.55V48.9541H226.404L230.228 54.4375H230.306V48.9541H231.175V56H230.32L226.497 50.5361H226.419V56ZM236.8 55.3652C236.367 55.8503 235.776 56.0928 235.027 56.0928C234.279 56.0928 233.686 55.8503 233.25 55.3652C232.817 54.877 232.601 54.2113 232.601 53.3682C232.601 52.5218 232.817 51.8561 233.25 51.3711C233.683 50.8861 234.275 50.6436 235.027 50.6436C235.779 50.6436 236.372 50.8861 236.805 51.3711C237.238 51.8561 237.454 52.5218 237.454 53.3682C237.454 54.2113 237.236 54.877 236.8 55.3652ZM233.875 54.8232C234.145 55.165 234.529 55.3359 235.027 55.3359C235.525 55.3359 235.91 55.165 236.18 54.8232C236.45 54.4782 236.585 53.9932 236.585 53.3682C236.585 52.7432 236.45 52.2598 236.18 51.918C235.91 51.5729 235.525 51.4004 235.027 51.4004C234.529 51.4004 234.145 51.5729 233.875 51.918C233.605 52.2598 233.47 52.7432 233.47 53.3682C233.47 53.9932 233.605 54.4782 233.875 54.8232ZM239.124 49.374H239.964V50.7363H241.136V51.4395H239.964V54.418C239.964 54.7272 240.026 54.9518 240.149 55.0918C240.273 55.2318 240.472 55.3018 240.745 55.3018C240.866 55.3018 240.996 55.2952 241.136 55.2822V55.9902C240.95 56.0228 240.786 56.0391 240.643 56.0391C240.099 56.0391 239.71 55.93 239.476 55.7119C239.241 55.4938 239.124 55.1341 239.124 54.6328V51.4395H238.274V50.7363H239.124V49.374ZM242.425 56V50.7363H243.265V56H242.425ZM243.26 49.4961C243.146 49.61 243.007 49.667 242.845 49.667C242.682 49.667 242.544 49.61 242.43 49.4961C242.316 49.3789 242.259 49.2406 242.259 49.0811C242.259 48.9215 242.316 48.7848 242.43 48.6709C242.544 48.5537 242.682 48.4951 242.845 48.4951C243.007 48.4951 243.146 48.5537 243.26 48.6709C243.374 48.7848 243.431 48.9215 243.431 49.0811C243.431 49.2406 243.374 49.3789 243.26 49.4961ZM245.218 56V51.4395H244.344V50.7363H245.218V50.1504C245.218 49.1152 245.727 48.5977 246.746 48.5977C246.958 48.5977 247.146 48.6139 247.312 48.6465V49.3301C247.228 49.3138 247.096 49.3057 246.917 49.3057C246.618 49.3057 246.399 49.3773 246.263 49.5205C246.126 49.6637 246.058 49.8818 246.058 50.1748V50.7363H247.264V51.4395H246.058V56H245.218ZM248.509 56V50.7363H249.349V56H248.509ZM249.344 49.4961C249.23 49.61 249.091 49.667 248.929 49.667C248.766 49.667 248.628 49.61 248.514 49.4961C248.4 49.3789 248.343 49.2406 248.343 49.0811C248.343 48.9215 248.4 48.7848 248.514 48.6709C248.628 48.5537 248.766 48.4951 248.929 48.4951C249.091 48.4951 249.23 48.5537 249.344 48.6709C249.458 48.7848 249.515 48.9215 249.515 49.0811C249.515 49.2406 249.458 49.3789 249.344 49.4961ZM255.306 52.3477H254.456C254.384 52.071 254.23 51.8447 253.992 51.6689C253.758 51.4899 253.46 51.4004 253.099 51.4004C252.627 51.4004 252.251 51.5762 251.971 51.9277C251.694 52.2793 251.556 52.7529 251.556 53.3486C251.556 53.9541 251.696 54.4375 251.976 54.7988C252.256 55.1569 252.63 55.3359 253.099 55.3359C253.453 55.3359 253.748 55.2562 253.982 55.0967C254.22 54.9372 254.378 54.7093 254.456 54.4131H255.306C255.228 54.9111 254.995 55.3164 254.607 55.6289C254.22 55.9382 253.719 56.0928 253.104 56.0928C252.365 56.0928 251.777 55.8454 251.341 55.3506C250.905 54.8525 250.687 54.1852 250.687 53.3486C250.687 52.5283 250.905 51.8724 251.341 51.3809C251.777 50.8893 252.363 50.6436 253.099 50.6436C253.714 50.6436 254.215 50.8047 254.603 51.127C254.993 51.4492 255.228 51.8561 255.306 52.3477ZM258.167 55.3555C258.6 55.3555 258.958 55.2301 259.241 54.9795C259.528 54.7288 259.671 54.4147 259.671 54.0371V53.5537L258.255 53.6465C257.858 53.6725 257.566 53.7555 257.381 53.8955C257.195 54.0355 257.103 54.2389 257.103 54.5059C257.103 54.7695 257.202 54.9779 257.4 55.1309C257.599 55.2806 257.854 55.3555 258.167 55.3555ZM258.011 56.0928C257.493 56.0928 257.067 55.9512 256.731 55.668C256.399 55.3815 256.233 55.0007 256.233 54.5254C256.233 54.0566 256.399 53.6888 256.731 53.4219C257.063 53.1549 257.537 53.0036 258.152 52.9678L259.671 52.875V52.3965C259.671 52.071 259.57 51.8219 259.368 51.6494C259.166 51.4769 258.87 51.3906 258.479 51.3906C258.164 51.3906 257.902 51.4476 257.693 51.5615C257.485 51.6755 257.352 51.8366 257.293 52.0449H256.443C256.499 51.625 256.715 51.2865 257.093 51.0293C257.474 50.7721 257.946 50.6436 258.509 50.6436C259.147 50.6436 259.64 50.7982 259.988 51.1074C260.337 51.4167 260.511 51.8464 260.511 52.3965V56H259.71V55.2236H259.632C259.463 55.5036 259.238 55.7184 258.958 55.8682C258.678 56.0179 258.362 56.0928 258.011 56.0928ZM262.415 49.374H263.255V50.7363H264.427V51.4395H263.255V54.418C263.255 54.7272 263.317 54.9518 263.44 55.0918C263.564 55.2318 263.763 55.3018 264.036 55.3018C264.157 55.3018 264.287 55.2952 264.427 55.2822V55.9902C264.241 56.0228 264.077 56.0391 263.934 56.0391C263.39 56.0391 263.001 55.93 262.767 55.7119C262.532 55.4938 262.415 55.1341 262.415 54.6328V51.4395H261.565V50.7363H262.415V49.374ZM265.716 56V50.7363H266.556V56H265.716ZM266.551 49.4961C266.437 49.61 266.299 49.667 266.136 49.667C265.973 49.667 265.835 49.61 265.721 49.4961C265.607 49.3789 265.55 49.2406 265.55 49.0811C265.55 48.9215 265.607 48.7848 265.721 48.6709C265.835 48.5537 265.973 48.4951 266.136 48.4951C266.299 48.4951 266.437 48.5537 266.551 48.6709C266.665 48.7848 266.722 48.9215 266.722 49.0811C266.722 49.2406 266.665 49.3789 266.551 49.4961ZM272.093 55.3652C271.66 55.8503 271.069 56.0928 270.32 56.0928C269.572 56.0928 268.979 55.8503 268.543 55.3652C268.11 54.877 267.894 54.2113 267.894 53.3682C267.894 52.5218 268.11 51.8561 268.543 51.3711C268.976 50.8861 269.568 50.6436 270.32 50.6436C271.072 50.6436 271.665 50.8861 272.098 51.3711C272.531 51.8561 272.747 52.5218 272.747 53.3682C272.747 54.2113 272.529 54.877 272.093 55.3652ZM269.168 54.8232C269.438 55.165 269.822 55.3359 270.32 55.3359C270.818 55.3359 271.202 55.165 271.473 54.8232C271.743 54.4782 271.878 53.9932 271.878 53.3682C271.878 52.7432 271.743 52.2598 271.473 51.918C271.202 51.5729 270.818 51.4004 270.32 51.4004C269.822 51.4004 269.438 51.5729 269.168 51.918C268.898 52.2598 268.763 52.7432 268.763 53.3682C268.763 53.9932 268.898 54.4782 269.168 54.8232ZM274.065 56V50.7363H274.866V51.5664H274.944C275.224 50.9512 275.752 50.6436 276.526 50.6436C277.116 50.6436 277.57 50.8128 277.889 51.1514C278.208 51.4867 278.367 51.9668 278.367 52.5918V56H277.527V52.7969C277.527 52.3249 277.425 51.9749 277.22 51.7471C277.018 51.516 276.707 51.4004 276.287 51.4004C275.864 51.4004 275.527 51.5339 275.276 51.8008C275.029 52.0645 274.905 52.4258 274.905 52.8848V56H274.065ZM279.783 52.1768C279.783 51.7406 279.97 51.376 280.345 51.083C280.719 50.79 281.186 50.6436 281.746 50.6436C282.296 50.6436 282.75 50.7705 283.108 51.0244C283.466 51.2783 283.673 51.6217 283.729 52.0547H282.898C282.84 51.8398 282.71 51.6706 282.508 51.5469C282.309 51.4199 282.054 51.3564 281.741 51.3564C281.425 51.3564 281.16 51.4297 280.945 51.5762C280.734 51.7227 280.628 51.9115 280.628 52.1426C280.628 52.3216 280.701 52.4714 280.848 52.5918C280.997 52.709 281.229 52.805 281.541 52.8799L282.352 53.0752C282.853 53.1956 283.222 53.3698 283.46 53.5977C283.701 53.8255 283.821 54.1266 283.821 54.501C283.821 54.9665 283.621 55.349 283.221 55.6484C282.82 55.9447 282.317 56.0928 281.712 56.0928C281.126 56.0928 280.646 55.9626 280.271 55.7021C279.897 55.4417 279.687 55.0934 279.642 54.6572H280.506C280.577 54.8851 280.719 55.0641 280.931 55.1943C281.142 55.3213 281.412 55.3848 281.741 55.3848C282.096 55.3848 282.387 55.3083 282.615 55.1553C282.843 55.0023 282.957 54.8053 282.957 54.5645C282.957 54.2064 282.679 53.959 282.122 53.8223L281.219 53.6025C280.721 53.4821 280.356 53.3096 280.125 53.085C279.897 52.8571 279.783 52.5544 279.783 52.1768Z" fill="black" fill-opacity="0.3"/>
<path fill-rule="evenodd" clip-rule="evenodd" d="M335.954 20.9091C335.954 23.9215 333.512 26.3636 330.5 26.3636C327.487 26.3636 325.045 23.9215 325.045 20.9091C325.045 17.8966 327.487 15.4545 330.5 15.4545C333.512 15.4545 335.954 17.8966 335.954 20.9091ZM333.227 20.9091C333.227 22.4154 332.006 23.6364 330.5 23.6364C328.994 23.6364 327.773 22.4154 327.773 20.9091C327.773 19.4029 328.994 18.1818 330.5 18.1818C332.006 18.1818 333.227 19.4029 333.227 20.9091Z" fill="#D5D5D5"/>
<path fill-rule="evenodd" clip-rule="evenodd" d="M330.5 10C322.216 10 315.5 16.7157 315.5 25C315.5 33.2842 322.216 40 330.5 40C338.784 40 345.5 33.2842 345.5 25C345.5 16.7157 338.784 10 330.5 10ZM318.227 25C318.227 27.8503 319.199 30.4736 320.829 32.5569C323.072 29.6212 326.609 27.7273 330.588 27.7273C334.516 27.7273 338.013 29.5724 340.259 32.4431C341.836 30.3786 342.773 27.7987 342.773 25C342.773 18.222 337.278 12.7273 330.5 12.7273C323.722 12.7273 318.227 18.222 318.227 25ZM330.5 37.2727C327.568 37.2727 324.876 36.2444 322.765 34.5288C324.491 32.0653 327.351 30.4545 330.588 30.4545C333.784 30.4545 336.614 32.0256 338.346 34.4376C336.219 36.2079 333.484 37.2727 330.5 37.2727Z" fill="#D5D5D5"/>
<path d="M316.276 48.9541H318.938C319.605 48.9541 320.147 49.1673 320.563 49.5938C320.983 50.0169 321.193 50.5638 321.193 51.2344C321.193 51.8919 320.98 52.4323 320.554 52.8555C320.131 53.2754 319.589 53.4854 318.928 53.4854H317.155V56H316.276V48.9541ZM317.155 49.7354V52.7041H318.708C319.209 52.7041 319.598 52.5755 319.875 52.3184C320.152 52.0612 320.29 51.6999 320.29 51.2344C320.29 50.7493 320.153 50.3783 319.88 50.1211C319.61 49.8639 319.219 49.7354 318.708 49.7354H317.155ZM322.526 56V50.7363H323.327V51.5176H323.405C323.483 51.2604 323.659 51.0505 323.933 50.8877C324.206 50.7249 324.517 50.6436 324.865 50.6436C325.025 50.6436 325.165 50.6517 325.285 50.668V51.5078C325.171 51.4753 324.992 51.459 324.748 51.459C324.348 51.459 324.017 51.5794 323.757 51.8203C323.496 52.0612 323.366 52.3672 323.366 52.7383V56H322.526ZM330.124 55.3652C329.691 55.8503 329.1 56.0928 328.352 56.0928C327.603 56.0928 327.01 55.8503 326.574 55.3652C326.141 54.877 325.925 54.2113 325.925 53.3682C325.925 52.5218 326.141 51.8561 326.574 51.3711C327.007 50.8861 327.6 50.6436 328.352 50.6436C329.104 50.6436 329.696 50.8861 330.129 51.3711C330.562 51.8561 330.778 52.5218 330.778 53.3682C330.778 54.2113 330.56 54.877 330.124 55.3652ZM327.199 54.8232C327.469 55.165 327.854 55.3359 328.352 55.3359C328.85 55.3359 329.234 55.165 329.504 54.8232C329.774 54.4782 329.909 53.9932 329.909 53.3682C329.909 52.7432 329.774 52.2598 329.504 51.918C329.234 51.5729 328.85 51.4004 328.352 51.4004C327.854 51.4004 327.469 51.5729 327.199 51.918C326.929 52.2598 326.794 52.7432 326.794 53.3682C326.794 53.9932 326.929 54.4782 327.199 54.8232ZM332.448 56V51.4395H331.574V50.7363H332.448V50.1504C332.448 49.1152 332.958 48.5977 333.977 48.5977C334.188 48.5977 334.377 48.6139 334.543 48.6465V49.3301C334.458 49.3138 334.326 49.3057 334.147 49.3057C333.848 49.3057 333.63 49.3773 333.493 49.5205C333.356 49.6637 333.288 49.8818 333.288 50.1748V50.7363H334.494V51.4395H333.288V56H332.448ZM335.739 56V50.7363H336.579V56H335.739ZM336.574 49.4961C336.46 49.61 336.322 49.667 336.159 49.667C335.996 49.667 335.858 49.61 335.744 49.4961C335.63 49.3789 335.573 49.2406 335.573 49.0811C335.573 48.9215 335.63 48.7848 335.744 48.6709C335.858 48.5537 335.996 48.4951 336.159 48.4951C336.322 48.4951 336.46 48.5537 336.574 48.6709C336.688 48.7848 336.745 48.9215 336.745 49.0811C336.745 49.2406 336.688 49.3789 336.574 49.4961ZM338.229 56V48.6465H339.069V56H338.229ZM342.8 51.3857C342.38 51.3857 342.035 51.5273 341.765 51.8105C341.494 52.0938 341.343 52.4681 341.311 52.9336H344.211C344.201 52.4681 344.068 52.0938 343.811 51.8105C343.553 51.5273 343.216 51.3857 342.8 51.3857ZM344.187 54.6377H345.026C344.899 55.0934 344.641 55.4499 344.25 55.707C343.863 55.9642 343.382 56.0928 342.81 56.0928C342.08 56.0928 341.503 55.8486 341.076 55.3604C340.65 54.8688 340.437 54.2064 340.437 53.373C340.437 52.543 340.651 51.8805 341.081 51.3857C341.511 50.891 342.087 50.6436 342.81 50.6436C343.519 50.6436 344.077 50.8796 344.484 51.3516C344.891 51.8236 345.095 52.4697 345.095 53.29V53.6123H341.311V53.6514C341.333 54.1722 341.48 54.5856 341.75 54.8916C342.023 55.1976 342.383 55.3506 342.829 55.3506C343.509 55.3506 343.962 55.113 344.187 54.6377Z" fill="black" fill-opacity="0.3"/>
</svg>
