<svg width="586" height="91" viewBox="0 0 586 91" fill="none" xmlns="http://www.w3.org/2000/svg">
<rect width="33" height="18" rx="9" fill="#D5DAEE"/>
<path d="M6.44034 6.67188V5.72727H12.0689V6.67188H9.79972V13H8.70597V6.67188H6.44034ZM14.7873 13.1101C14.2499 13.1101 13.7871 12.9953 13.3988 12.7656C13.0129 12.5336 12.7146 12.2081 12.5039 11.7891C12.2956 11.3677 12.1914 10.8741 12.1914 10.3082C12.1914 9.74953 12.2956 9.2571 12.5039 8.83097C12.7146 8.40483 13.0082 8.07221 13.3846 7.8331C13.7634 7.59399 14.2061 7.47443 14.7127 7.47443C15.0205 7.47443 15.3188 7.52533 15.6076 7.62713C15.8964 7.72893 16.1557 7.88873 16.3853 8.10653C16.6149 8.32434 16.796 8.60724 16.9286 8.95526C17.0612 9.3009 17.1275 9.72112 17.1275 10.2159V10.5923H12.7915V9.79688H16.087C16.087 9.51752 16.0302 9.27012 15.9165 9.05469C15.8029 8.83688 15.6431 8.66525 15.4371 8.53977C15.2335 8.4143 14.9944 8.35156 14.7198 8.35156C14.4215 8.35156 14.1611 8.42495 13.9386 8.57173C13.7184 8.71615 13.5479 8.90554 13.4272 9.13991C13.3088 9.37192 13.2496 9.62405 13.2496 9.89631V10.5178C13.2496 10.8823 13.3136 11.1925 13.4414 11.4482C13.5716 11.7038 13.7527 11.8991 13.9847 12.0341C14.2167 12.1667 14.4878 12.233 14.7979 12.233C14.9992 12.233 15.1826 12.2045 15.3484 12.1477C15.5141 12.0885 15.6573 12.0009 15.7781 11.8849C15.8988 11.7689 15.9911 11.6257 16.055 11.4553L17.06 11.6364C16.9795 11.9323 16.8351 12.1915 16.6268 12.4141C16.4208 12.6342 16.1616 12.8059 15.8491 12.929C15.5389 13.0497 15.185 13.1101 14.7873 13.1101ZM19.0167 7.54545L20.2205 9.66903L21.435 7.54545H22.5962L20.8952 10.2727L22.6104 13H21.4492L20.2205 10.9616L18.9954 13H17.8306L19.5281 10.2727L17.8519 7.54545H19.0167ZM26.2326 7.54545V8.39773H23.2532V7.54545H26.2326ZM24.0522 6.23864H25.114V11.3984C25.114 11.6044 25.1448 11.7595 25.2063 11.8636C25.2679 11.9654 25.3472 12.0353 25.4442 12.0732C25.5437 12.1087 25.6514 12.1264 25.7674 12.1264C25.8526 12.1264 25.9272 12.1205 25.9911 12.1087C26.055 12.0968 26.1048 12.0874 26.1403 12.0803L26.332 12.9574C26.2705 12.9811 26.1829 13.0047 26.0692 13.0284C25.9556 13.0545 25.8136 13.0687 25.6431 13.071C25.3638 13.0758 25.1033 13.026 24.8619 12.9219C24.6204 12.8177 24.4251 12.6567 24.2759 12.4389C24.1268 12.2211 24.0522 11.9477 24.0522 11.6186V6.23864Z" fill="black" fill-opacity="0.25"/>
<rect x="0.5" y="26.5" width="63.9252" height="63.9252" rx="1.5" fill="#2A2B2E"/>
<path d="M10.9034 62.4689V61.7019L13.7841 58.5484C14.1222 58.1791 14.4006 57.8581 14.6193 57.5854C14.8381 57.3098 15 57.0513 15.1051 56.8098C15.2131 56.5655 15.267 56.3098 15.267 56.0428C15.267 55.7359 15.1932 55.4703 15.0455 55.2459C14.9006 55.0215 14.7017 54.8482 14.4489 54.726C14.196 54.6038 13.9119 54.5428 13.5966 54.5428C13.2614 54.5428 12.9688 54.6124 12.7188 54.7516C12.4716 54.8879 12.2798 55.0797 12.1435 55.3269C12.0099 55.574 11.9432 55.8638 11.9432 56.1962H10.9375C10.9375 55.6848 11.0554 55.2359 11.2912 54.8496C11.527 54.4632 11.848 54.1621 12.2543 53.9462C12.6634 53.7303 13.1222 53.6223 13.6307 53.6223C14.142 53.6223 14.5952 53.7303 14.9901 53.9462C15.3849 54.1621 15.6946 54.4533 15.919 54.8198C16.1435 55.1862 16.2557 55.5939 16.2557 56.0428C16.2557 56.3638 16.1974 56.6777 16.081 56.9845C15.9673 57.2885 15.7685 57.628 15.4844 58.003C15.2031 58.3752 14.8125 58.8297 14.3125 59.3666L12.3523 61.4632V61.5314H16.4091V62.4689H10.9034ZM18.6804 62.4689H17.5724L20.777 53.7416H21.8679L25.0724 62.4689H23.9645L21.3565 55.1223H21.2884L18.6804 62.4689ZM19.0895 59.0598H23.5554V59.9973H19.0895V59.0598ZM26.2784 62.4689V61.7019L29.1591 58.5484C29.4972 58.1791 29.7756 57.8581 29.9943 57.5854C30.2131 57.3098 30.375 57.0513 30.4801 56.8098C30.5881 56.5655 30.642 56.3098 30.642 56.0428C30.642 55.7359 30.5682 55.4703 30.4205 55.2459C30.2756 55.0215 30.0767 54.8482 29.8239 54.726C29.571 54.6038 29.2869 54.5428 28.9716 54.5428C28.6364 54.5428 28.3438 54.6124 28.0938 54.7516C27.8466 54.8879 27.6548 55.0797 27.5185 55.3269C27.3849 55.574 27.3182 55.8638 27.3182 56.1962H26.3125C26.3125 55.6848 26.4304 55.2359 26.6662 54.8496C26.902 54.4632 27.223 54.1621 27.6293 53.9462C28.0384 53.7303 28.4972 53.6223 29.0057 53.6223C29.517 53.6223 29.9702 53.7303 30.3651 53.9462C30.7599 54.1621 31.0696 54.4533 31.294 54.8198C31.5185 55.1862 31.6307 55.5939 31.6307 56.0428C31.6307 56.3638 31.5724 56.6777 31.456 56.9845C31.3423 57.2885 31.1435 57.628 30.8594 58.003C30.5781 58.3752 30.1875 58.8297 29.6875 59.3666L27.7273 61.4632V61.5314H31.7841V62.4689H26.2784ZM33.6974 62.4689V53.7416H36.7486C37.3565 53.7416 37.858 53.8467 38.2528 54.057C38.6477 54.2644 38.9418 54.5442 39.1349 54.8965C39.3281 55.2459 39.4247 55.6337 39.4247 56.0598C39.4247 56.4348 39.358 56.7445 39.2244 56.9888C39.0938 57.2331 38.9205 57.4263 38.7045 57.5683C38.4915 57.7104 38.2599 57.8155 38.0099 57.8837V57.9689C38.277 57.9859 38.5455 58.0797 38.8153 58.2502C39.0852 58.4206 39.3111 58.6649 39.4929 58.9831C39.6747 59.3013 39.7656 59.6905 39.7656 60.1507C39.7656 60.5882 39.6662 60.9817 39.4673 61.3311C39.2685 61.6806 38.9545 61.9575 38.5256 62.1621C38.0966 62.3666 37.5384 62.4689 36.8509 62.4689H33.6974ZM34.7543 61.5314H36.8509C37.5412 61.5314 38.0313 61.3979 38.321 61.1308C38.6136 60.8609 38.7599 60.5342 38.7599 60.1507C38.7599 59.8553 38.6847 59.5825 38.5341 59.3325C38.3835 59.0797 38.169 58.878 37.8906 58.7274C37.6122 58.574 37.2827 58.4973 36.902 58.4973H34.7543V61.5314ZM34.7543 57.5769H36.7145C37.0327 57.5769 37.3196 57.5144 37.5753 57.3894C37.8338 57.2644 38.0384 57.0882 38.1889 56.8609C38.3423 56.6337 38.419 56.3666 38.419 56.0598C38.419 55.6763 38.2855 55.351 38.0185 55.084C37.7514 54.8141 37.3281 54.6791 36.7486 54.6791H34.7543V57.5769ZM41.3487 62.4689V61.7019L44.2294 58.5484C44.5675 58.1791 44.8459 57.8581 45.0646 57.5854C45.2834 57.3098 45.4453 57.0513 45.5504 56.8098C45.6584 56.5655 45.7124 56.3098 45.7124 56.0428C45.7124 55.7359 45.6385 55.4703 45.4908 55.2459C45.3459 55.0215 45.147 54.8482 44.8942 54.726C44.6413 54.6038 44.3572 54.5428 44.0419 54.5428C43.7067 54.5428 43.4141 54.6124 43.1641 54.7516C42.9169 54.8879 42.7251 55.0797 42.5888 55.3269C42.4553 55.574 42.3885 55.8638 42.3885 56.1962H41.3828C41.3828 55.6848 41.5007 55.2359 41.7365 54.8496C41.9723 54.4632 42.2933 54.1621 42.6996 53.9462C43.1087 53.7303 43.5675 53.6223 44.076 53.6223C44.5874 53.6223 45.0405 53.7303 45.4354 53.9462C45.8303 54.1621 46.1399 54.4533 46.3643 54.8198C46.5888 55.1862 46.701 55.5939 46.701 56.0428C46.701 56.3638 46.6428 56.6777 46.5263 56.9845C46.4126 57.2885 46.2138 57.628 45.9297 58.003C45.6484 58.3752 45.2578 58.8297 44.7578 59.3666L42.7976 61.4632V61.5314H46.8544V62.4689H41.3487ZM48.7678 62.4689V53.7416H54.0348V54.6791H49.8246V57.628H53.7621V58.5655H49.8246V61.5314H54.103V62.4689H48.7678Z" fill="white"/>
<rect x="0.5" y="26.5" width="63.9252" height="63.9252" rx="1.5" stroke="black"/>
<rect x="73.4253" y="26.5" width="63.9252" height="63.9252" rx="1.5" fill="#8C8C8C"/>
<path d="M85.4762 62.5882C84.891 62.5882 84.3739 62.4845 83.9251 62.2771C83.479 62.0669 83.131 61.7786 82.881 61.4121C82.631 61.0428 82.5075 60.6223 82.5103 60.1507C82.5075 59.7814 82.5799 59.4405 82.7276 59.128C82.8754 58.8127 83.0771 58.5499 83.3327 58.3396C83.5913 58.1266 83.8796 57.9916 84.1978 57.9348V57.8837C83.7802 57.7757 83.4478 57.5413 83.2006 57.1806C82.9535 56.8169 82.8313 56.4036 82.8342 55.9405C82.8313 55.4973 82.9435 55.101 83.1708 54.7516C83.3981 54.4021 83.7106 54.1266 84.1083 53.9249C84.5089 53.7232 84.9648 53.6223 85.4762 53.6223C85.9819 53.6223 86.4336 53.7232 86.8313 53.9249C87.229 54.1266 87.5415 54.4021 87.7688 54.7516C87.9989 55.101 88.1154 55.4973 88.1183 55.9405C88.1154 56.4036 87.989 56.8169 87.739 57.1806C87.4918 57.5413 87.1637 57.7757 86.7546 57.8837V57.9348C87.07 57.9916 87.354 58.1266 87.6069 58.3396C87.8597 58.5499 88.0614 58.8127 88.212 59.128C88.3626 59.4405 88.4393 59.7814 88.4421 60.1507C88.4393 60.6223 88.3114 61.0428 88.0586 61.4121C87.8086 61.7786 87.4606 62.0669 87.0146 62.2771C86.5714 62.4845 86.0586 62.5882 85.4762 62.5882ZM85.4762 61.6507C85.8711 61.6507 86.212 61.5868 86.4989 61.459C86.7859 61.3311 87.0075 61.1507 87.1637 60.9178C87.32 60.6848 87.3995 60.4121 87.4023 60.0996C87.3995 59.77 87.3143 59.4788 87.1467 59.226C86.979 58.9732 86.7504 58.7743 86.4606 58.6294C86.1737 58.4845 85.8455 58.4121 85.4762 58.4121C85.104 58.4121 84.7717 58.4845 84.479 58.6294C84.1893 58.7743 83.9606 58.9732 83.793 59.226C83.6282 59.4788 83.5472 59.77 83.5501 60.0996C83.5472 60.4121 83.6225 60.6848 83.7759 60.9178C83.9322 61.1507 84.1552 61.3311 84.445 61.459C84.7347 61.5868 85.0785 61.6507 85.4762 61.6507ZM85.4762 57.5087C85.7887 57.5087 86.0657 57.4462 86.3072 57.3212C86.5515 57.1962 86.7433 57.0215 86.8825 56.797C87.0217 56.5726 87.0927 56.3098 87.0955 56.0087C87.0927 55.7132 87.0231 55.4561 86.8867 55.2374C86.7504 55.0158 86.5614 54.8453 86.32 54.726C86.0785 54.6038 85.7972 54.5428 85.4762 54.5428C85.1495 54.5428 84.864 54.6038 84.6197 54.726C84.3754 54.8453 84.1864 55.0158 84.0529 55.2374C83.9194 55.4561 83.854 55.7132 83.8569 56.0087C83.854 56.3098 83.9208 56.5726 84.0572 56.797C84.1964 57.0215 84.3881 57.1962 84.6325 57.3212C84.8768 57.4462 85.158 57.5087 85.4762 57.5087ZM97.2514 56.4689H96.1946C96.1321 56.1649 96.0227 55.8979 95.8665 55.6678C95.7131 55.4377 95.5256 55.2445 95.304 55.0882C95.0852 54.9291 94.8423 54.8098 94.5753 54.7303C94.3082 54.6507 94.0298 54.6109 93.7401 54.6109C93.2116 54.6109 92.733 54.7445 92.304 55.0115C91.8778 55.2786 91.5384 55.672 91.2855 56.1919C91.0355 56.7118 90.9105 57.3496 90.9105 58.1053C90.9105 58.8609 91.0355 59.4987 91.2855 60.0186C91.5384 60.5385 91.8778 60.932 92.304 61.199C92.733 61.4661 93.2116 61.5996 93.7401 61.5996C94.0298 61.5996 94.3082 61.5598 94.5753 61.4803C94.8423 61.4007 95.0852 61.2828 95.304 61.1266C95.5256 60.9675 95.7131 60.7729 95.8665 60.5428C96.0227 60.3098 96.1321 60.0428 96.1946 59.7416H97.2514C97.1719 60.1877 97.027 60.5868 96.8168 60.9391C96.6065 61.2913 96.3452 61.5911 96.0327 61.8382C95.7202 62.0825 95.3693 62.2686 94.9801 62.3965C94.5938 62.5243 94.1804 62.5882 93.7401 62.5882C92.9957 62.5882 92.3338 62.4064 91.7543 62.0428C91.1747 61.6791 90.7188 61.1621 90.3864 60.4916C90.054 59.8212 89.8878 59.0257 89.8878 58.1053C89.8878 57.1848 90.054 56.3894 90.3864 55.7189C90.7188 55.0484 91.1747 54.5314 91.7543 54.1678C92.3338 53.8041 92.9957 53.6223 93.7401 53.6223C94.1804 53.6223 94.5938 53.6862 94.9801 53.8141C95.3693 53.9419 95.7202 54.1294 96.0327 54.3766C96.3452 54.6209 96.6065 54.9192 96.8168 55.2715C97.027 55.6209 97.1719 56.02 97.2514 56.4689ZM101.601 62.5882C101.016 62.5882 100.499 62.4845 100.05 62.2771C99.604 62.0669 99.256 61.7786 99.006 61.4121C98.756 61.0428 98.6325 60.6223 98.6353 60.1507C98.6325 59.7814 98.7049 59.4405 98.8526 59.128C99.0004 58.8127 99.2021 58.5499 99.4577 58.3396C99.7163 58.1266 100.005 57.9916 100.323 57.9348V57.8837C99.9052 57.7757 99.5728 57.5413 99.3256 57.1806C99.0785 56.8169 98.9563 56.4036 98.9592 55.9405C98.9563 55.4973 99.0685 55.101 99.2958 54.7516C99.5231 54.4021 99.8356 54.1266 100.233 53.9249C100.634 53.7232 101.09 53.6223 101.601 53.6223C102.107 53.6223 102.559 53.7232 102.956 53.9249C103.354 54.1266 103.667 54.4021 103.894 54.7516C104.124 55.101 104.24 55.4973 104.243 55.9405C104.24 56.4036 104.114 56.8169 103.864 57.1806C103.617 57.5413 103.289 57.7757 102.88 57.8837V57.9348C103.195 57.9916 103.479 58.1266 103.732 58.3396C103.985 58.5499 104.186 58.8127 104.337 59.128C104.488 59.4405 104.564 59.7814 104.567 60.1507C104.564 60.6223 104.436 61.0428 104.184 61.4121C103.934 61.7786 103.586 62.0669 103.14 62.2771C102.696 62.4845 102.184 62.5882 101.601 62.5882ZM101.601 61.6507C101.996 61.6507 102.337 61.5868 102.624 61.459C102.911 61.3311 103.132 61.1507 103.289 60.9178C103.445 60.6848 103.525 60.4121 103.527 60.0996C103.525 59.77 103.439 59.4788 103.272 59.226C103.104 58.9732 102.875 58.7743 102.586 58.6294C102.299 58.4845 101.971 58.4121 101.601 58.4121C101.229 58.4121 100.897 58.4845 100.604 58.6294C100.314 58.7743 100.086 58.9732 99.918 59.226C99.7532 59.4788 99.6722 59.77 99.6751 60.0996C99.6722 60.4121 99.7475 60.6848 99.9009 60.9178C100.057 61.1507 100.28 61.3311 100.57 61.459C100.86 61.5868 101.203 61.6507 101.601 61.6507ZM101.601 57.5087C101.914 57.5087 102.191 57.4462 102.432 57.3212C102.676 57.1962 102.868 57.0215 103.007 56.797C103.147 56.5726 103.218 56.3098 103.221 56.0087C103.218 55.7132 103.148 55.4561 103.012 55.2374C102.875 55.0158 102.686 54.8453 102.445 54.726C102.203 54.6038 101.922 54.5428 101.601 54.5428C101.275 54.5428 100.989 54.6038 100.745 54.726C100.5 54.8453 100.311 55.0158 100.178 55.2374C100.044 55.4561 99.979 55.7132 99.9819 56.0087C99.979 56.3098 100.046 56.5726 100.182 56.797C100.321 57.0215 100.513 57.1962 100.757 57.3212C101.002 57.4462 101.283 57.5087 101.601 57.5087ZM113.376 56.4689H112.32C112.257 56.1649 112.148 55.8979 111.991 55.6678C111.838 55.4377 111.651 55.2445 111.429 55.0882C111.21 54.9291 110.967 54.8098 110.7 54.7303C110.433 54.6507 110.155 54.6109 109.865 54.6109C109.337 54.6109 108.858 54.7445 108.429 55.0115C108.003 55.2786 107.663 55.672 107.411 56.1919C107.161 56.7118 107.036 57.3496 107.036 58.1053C107.036 58.8609 107.161 59.4987 107.411 60.0186C107.663 60.5385 108.003 60.932 108.429 61.199C108.858 61.4661 109.337 61.5996 109.865 61.5996C110.155 61.5996 110.433 61.5598 110.7 61.4803C110.967 61.4007 111.21 61.2828 111.429 61.1266C111.651 60.9675 111.838 60.7729 111.991 60.5428C112.148 60.3098 112.257 60.0428 112.32 59.7416H113.376C113.297 60.1877 113.152 60.5868 112.942 60.9391C112.732 61.2913 112.47 61.5911 112.158 61.8382C111.845 62.0825 111.494 62.2686 111.105 62.3965C110.719 62.5243 110.305 62.5882 109.865 62.5882C109.121 62.5882 108.459 62.4064 107.879 62.0428C107.3 61.6791 106.844 61.1621 106.511 60.4916C106.179 59.8212 106.013 59.0257 106.013 58.1053C106.013 57.1848 106.179 56.3894 106.511 55.7189C106.844 55.0484 107.3 54.5314 107.879 54.1678C108.459 53.8041 109.121 53.6223 109.865 53.6223C110.305 53.6223 110.719 53.6862 111.105 53.8141C111.494 53.9419 111.845 54.1294 112.158 54.3766C112.47 54.6209 112.732 54.9192 112.942 55.2715C113.152 55.6209 113.297 56.02 113.376 56.4689ZM117.726 62.5882C117.141 62.5882 116.624 62.4845 116.175 62.2771C115.729 62.0669 115.381 61.7786 115.131 61.4121C114.881 61.0428 114.757 60.6223 114.76 60.1507C114.757 59.7814 114.83 59.4405 114.978 59.128C115.125 58.8127 115.327 58.5499 115.583 58.3396C115.841 58.1266 116.13 57.9916 116.448 57.9348V57.8837C116.03 57.7757 115.698 57.5413 115.451 57.1806C115.203 56.8169 115.081 56.4036 115.084 55.9405C115.081 55.4973 115.194 55.101 115.421 54.7516C115.648 54.4021 115.961 54.1266 116.358 53.9249C116.759 53.7232 117.215 53.6223 117.726 53.6223C118.232 53.6223 118.684 53.7232 119.081 53.9249C119.479 54.1266 119.792 54.4021 120.019 54.7516C120.249 55.101 120.365 55.4973 120.368 55.9405C120.365 56.4036 120.239 56.8169 119.989 57.1806C119.742 57.5413 119.414 57.7757 119.005 57.8837V57.9348C119.32 57.9916 119.604 58.1266 119.857 58.3396C120.11 58.5499 120.311 58.8127 120.462 59.128C120.613 59.4405 120.689 59.7814 120.692 60.1507C120.689 60.6223 120.561 61.0428 120.309 61.4121C120.059 61.7786 119.711 62.0669 119.265 62.2771C118.821 62.4845 118.309 62.5882 117.726 62.5882ZM117.726 61.6507C118.121 61.6507 118.462 61.5868 118.749 61.459C119.036 61.3311 119.257 61.1507 119.414 60.9178C119.57 60.6848 119.65 60.4121 119.652 60.0996C119.65 59.77 119.564 59.4788 119.397 59.226C119.229 58.9732 119 58.7743 118.711 58.6294C118.424 58.4845 118.096 58.4121 117.726 58.4121C117.354 58.4121 117.022 58.4845 116.729 58.6294C116.439 58.7743 116.211 58.9732 116.043 59.226C115.878 59.4788 115.797 59.77 115.8 60.0996C115.797 60.4121 115.873 60.6848 116.026 60.9178C116.182 61.1507 116.405 61.3311 116.695 61.459C116.985 61.5868 117.328 61.6507 117.726 61.6507ZM117.726 57.5087C118.039 57.5087 118.316 57.4462 118.557 57.3212C118.801 57.1962 118.993 57.0215 119.132 56.797C119.272 56.5726 119.343 56.3098 119.346 56.0087C119.343 55.7132 119.273 55.4561 119.137 55.2374C119 55.0158 118.811 54.8453 118.57 54.726C118.328 54.6038 118.047 54.5428 117.726 54.5428C117.4 54.5428 117.114 54.6038 116.87 54.726C116.625 54.8453 116.436 55.0158 116.303 55.2374C116.169 55.4561 116.104 55.7132 116.107 56.0087C116.104 56.3098 116.171 56.5726 116.307 56.797C116.446 57.0215 116.638 57.1962 116.882 57.3212C117.127 57.4462 117.408 57.5087 117.726 57.5087ZM129.501 56.4689H128.445C128.382 56.1649 128.273 55.8979 128.116 55.6678C127.963 55.4377 127.776 55.2445 127.554 55.0882C127.335 54.9291 127.092 54.8098 126.825 54.7303C126.558 54.6507 126.28 54.6109 125.99 54.6109C125.462 54.6109 124.983 54.7445 124.554 55.0115C124.128 55.2786 123.788 55.672 123.536 56.1919C123.286 56.7118 123.161 57.3496 123.161 58.1053C123.161 58.8609 123.286 59.4987 123.536 60.0186C123.788 60.5385 124.128 60.932 124.554 61.199C124.983 61.4661 125.462 61.5996 125.99 61.5996C126.28 61.5996 126.558 61.5598 126.825 61.4803C127.092 61.4007 127.335 61.2828 127.554 61.1266C127.776 60.9675 127.963 60.7729 128.116 60.5428C128.273 60.3098 128.382 60.0428 128.445 59.7416H129.501C129.422 60.1877 129.277 60.5868 129.067 60.9391C128.857 61.2913 128.595 61.5911 128.283 61.8382C127.97 62.0825 127.619 62.2686 127.23 62.3965C126.844 62.5243 126.43 62.5882 125.99 62.5882C125.246 62.5882 124.584 62.4064 124.004 62.0428C123.425 61.6791 122.969 61.1621 122.636 60.4916C122.304 59.8212 122.138 59.0257 122.138 58.1053C122.138 57.1848 122.304 56.3894 122.636 55.7189C122.969 55.0484 123.425 54.5314 124.004 54.1678C124.584 53.8041 125.246 53.6223 125.99 53.6223C126.43 53.6223 126.844 53.6862 127.23 53.8141C127.619 53.9419 127.97 54.1294 128.283 54.3766C128.595 54.6209 128.857 54.9192 129.067 55.2715C129.277 55.6209 129.422 56.02 129.501 56.4689Z" fill="white"/>
<rect x="73.4253" y="26.5" width="63.9252" height="63.9252" rx="1.5" stroke="black"/>
<rect x="146.351" y="26.5" width="63.9252" height="63.9252" rx="1.5" fill="#F4F4F4"/>
<path d="M157.834 62.4689V53.7416H163.067V54.6791H158.891V57.628H162.675V58.5655H158.891V62.4689H157.834ZM164.519 60.6791V59.8098L168.354 53.7416H168.985V55.0882H168.559L165.661 59.6734V59.7416H170.826V60.6791H164.519ZM168.627 62.4689V60.4149V60.0101V53.7416H169.633V62.4689H168.627ZM172.576 62.4689V53.7416H177.809V54.6791H173.633V57.628H177.417V58.5655H173.633V62.4689H172.576ZM179.261 60.6791V59.8098L183.097 53.7416H183.727V55.0882H183.301L180.403 59.6734V59.7416H185.568V60.6791H179.261ZM183.369 62.4689V60.4149V60.0101V53.7416H184.375V62.4689H183.369ZM187.319 62.4689V53.7416H192.551V54.6791H188.375V57.628H192.159V58.5655H188.375V62.4689H187.319ZM194.004 60.6791V59.8098L197.839 53.7416H198.469V55.0882H198.043L195.146 59.6734V59.7416H200.31V60.6791H194.004ZM198.112 62.4689V60.4149V60.0101V53.7416H199.117V62.4689H198.112Z" fill="black"/>
<rect x="146.351" y="26.5" width="63.9252" height="63.9252" rx="1.5" stroke="black"/>
<rect x="219.275" y="26.5" width="63.9252" height="63.9252" rx="1.5" fill="white"/>
<path d="M229.834 62.4689V53.7416H235.067V54.6791H230.891V57.628H234.675V58.5655H230.891V62.4689H229.834ZM236.877 62.4689V53.7416H242.11V54.6791H237.934V57.628H241.718V58.5655H237.934V62.4689H236.877ZM243.92 62.4689V53.7416H249.153V54.6791H244.977V57.628H248.761V58.5655H244.977V62.4689H243.92ZM250.963 62.4689V53.7416H256.196V54.6791H252.02V57.628H255.804V58.5655H252.02V62.4689H250.963ZM258.006 62.4689V53.7416H263.239V54.6791H259.063V57.628H262.847V58.5655H259.063V62.4689H258.006ZM265.049 62.4689V53.7416H270.282V54.6791H266.106V57.628H269.89V58.5655H266.106V62.4689H265.049Z" fill="black"/>
<rect x="219.275" y="26.5" width="63.9252" height="63.9252" rx="1.5" stroke="black"/>
<rect x="299.701" width="89" height="18" rx="9" fill="#D5DAEE"/>
<path d="M306.5 13V5.72727H309.092C309.658 5.72727 310.127 5.83026 310.498 6.03622C310.87 6.24219 311.148 6.52391 311.333 6.88139C311.517 7.23651 311.61 7.6366 311.61 8.08168C311.61 8.52912 311.516 8.93158 311.329 9.28906C311.145 9.64418 310.865 9.9259 310.491 10.1342C310.119 10.3402 309.652 10.4432 309.088 10.4432H307.306V9.51278H308.989C309.347 9.51278 309.637 9.45123 309.859 9.32812C310.082 9.20265 310.245 9.0322 310.349 8.81676C310.453 8.60133 310.505 8.3563 310.505 8.08168C310.505 7.80705 310.453 7.56321 310.349 7.35014C310.245 7.13707 310.08 6.97017 309.856 6.84943C309.633 6.72869 309.339 6.66832 308.975 6.66832H307.597V13H306.5ZM312.811 13V7.54545H313.837V8.41193H313.894C313.993 8.11837 314.169 7.88755 314.42 7.71946C314.673 7.54901 314.959 7.46378 315.279 7.46378C315.345 7.46378 315.423 7.46615 315.513 7.47088C315.606 7.47562 315.678 7.48153 315.73 7.48864V8.50426C315.687 8.49242 315.612 8.4794 315.503 8.4652C315.394 8.44863 315.285 8.44034 315.176 8.44034C314.925 8.44034 314.701 8.49361 314.505 8.60014C314.311 8.70431 314.157 8.84991 314.043 9.03693C313.93 9.22159 313.873 9.43229 313.873 9.66903V13H312.811ZM316.649 13V7.54545H317.711V13H316.649ZM317.185 6.70384C317 6.70384 316.842 6.64228 316.709 6.51918C316.579 6.3937 316.514 6.24455 316.514 6.07173C316.514 5.89654 316.579 5.7474 316.709 5.62429C316.842 5.49882 317 5.43608 317.185 5.43608C317.37 5.43608 317.527 5.49882 317.657 5.62429C317.79 5.7474 317.856 5.89654 317.856 6.07173C317.856 6.24455 317.79 6.3937 317.657 6.51918C317.527 6.64228 317.37 6.70384 317.185 6.70384ZM319.139 13V7.54545H320.158V8.43324H320.226C320.339 8.13258 320.525 7.8982 320.783 7.73011C321.041 7.55966 321.35 7.47443 321.71 7.47443C322.075 7.47443 322.38 7.55966 322.626 7.73011C322.875 7.90057 323.058 8.13494 323.177 8.43324H323.234C323.364 8.14205 323.571 7.91004 323.855 7.73722C324.139 7.56203 324.478 7.47443 324.871 7.47443C325.365 7.47443 325.769 7.6295 326.082 7.93963C326.396 8.24976 326.554 8.71733 326.554 9.34233V13H325.492V9.44176C325.492 9.07244 325.391 8.80492 325.19 8.6392C324.989 8.47348 324.749 8.39062 324.469 8.39062C324.124 8.39062 323.855 8.49716 323.663 8.71023C323.471 8.92093 323.376 9.192 323.376 9.52344V13H322.317V9.37429C322.317 9.07836 322.225 8.84044 322.04 8.66051C321.856 8.48059 321.615 8.39062 321.319 8.39062C321.118 8.39062 320.932 8.44389 320.762 8.55043C320.594 8.65459 320.458 8.80019 320.354 8.98722C320.252 9.17424 320.201 9.39086 320.201 9.63707V13H319.139ZM329.564 13.1207C329.219 13.1207 328.906 13.0568 328.627 12.929C328.347 12.7988 328.126 12.6106 327.963 12.3643C327.802 12.1181 327.721 11.8163 327.721 11.4588C327.721 11.151 327.78 10.8977 327.899 10.6989C328.017 10.5 328.177 10.3426 328.378 10.2266C328.579 10.1106 328.804 10.023 329.053 9.96378C329.302 9.90459 329.555 9.85961 329.813 9.82884C330.14 9.79096 330.405 9.76018 330.608 9.73651C330.812 9.71046 330.96 9.66903 331.052 9.61222C331.145 9.5554 331.191 9.46307 331.191 9.33523V9.31037C331.191 9.00024 331.103 8.75994 330.928 8.58949C330.755 8.41903 330.497 8.33381 330.154 8.33381C329.796 8.33381 329.515 8.41312 329.309 8.57173C329.105 8.72798 328.964 8.90199 328.886 9.09375L327.888 8.86648C328.007 8.53504 328.179 8.26752 328.407 8.06392C328.636 7.85795 328.9 7.70881 329.199 7.61648C329.497 7.52178 329.811 7.47443 330.14 7.47443C330.357 7.47443 330.588 7.50047 330.832 7.55256C331.078 7.60227 331.308 7.6946 331.521 7.82955C331.736 7.96449 331.913 8.15743 332.05 8.40838C332.187 8.65696 332.256 8.98011 332.256 9.37784V13H331.219V12.2543H331.177C331.108 12.3916 331.005 12.5265 330.868 12.6591C330.73 12.7917 330.554 12.9018 330.338 12.9893C330.123 13.0769 329.865 13.1207 329.564 13.1207ZM329.795 12.2685C330.089 12.2685 330.34 12.2105 330.548 12.0945C330.759 11.9785 330.918 11.8269 331.027 11.6399C331.139 11.4505 331.194 11.2481 331.194 11.0327V10.3295C331.156 10.3674 331.083 10.4029 330.974 10.4361C330.868 10.4669 330.746 10.4941 330.608 10.5178C330.471 10.5391 330.337 10.5592 330.207 10.5781C330.077 10.5947 329.968 10.6089 329.88 10.6207C329.674 10.6468 329.486 10.6906 329.316 10.7521C329.148 10.8137 329.013 10.9025 328.911 11.0185C328.811 11.1321 328.762 11.2836 328.762 11.473C328.762 11.7358 328.859 11.9347 329.053 12.0696C329.247 12.2022 329.494 12.2685 329.795 12.2685ZM333.67 13V7.54545H334.697V8.41193H334.753C334.853 8.11837 335.028 7.88755 335.279 7.71946C335.532 7.54901 335.819 7.46378 336.138 7.46378C336.205 7.46378 336.283 7.46615 336.373 7.47088C336.465 7.47562 336.537 7.48153 336.589 7.48864V8.50426C336.547 8.49242 336.471 8.4794 336.362 8.4652C336.253 8.44863 336.144 8.44034 336.035 8.44034C335.784 8.44034 335.561 8.49361 335.364 8.60014C335.17 8.70431 335.016 8.84991 334.903 9.03693C334.789 9.22159 334.732 9.43229 334.732 9.66903V13H333.67ZM338.345 15.0455C338.187 15.0455 338.042 15.0324 337.912 15.0064C337.782 14.9827 337.685 14.9567 337.621 14.9283L337.877 14.0582C338.071 14.1103 338.244 14.1328 338.395 14.1257C338.547 14.1186 338.68 14.0618 338.796 13.9553C338.915 13.8487 339.019 13.6747 339.109 13.4332L339.24 13.071L337.245 7.54545H338.381L339.762 11.7784H339.819L341.201 7.54545H342.34L340.093 13.728C339.988 14.0121 339.856 14.2524 339.695 14.4489C339.534 14.6477 339.342 14.7969 339.12 14.8963C338.897 14.9957 338.639 15.0455 338.345 15.0455ZM352.11 8.09233H351.003C350.96 7.85559 350.881 7.64725 350.765 7.46733C350.649 7.28741 350.507 7.13471 350.338 7.00923C350.17 6.88376 349.982 6.78906 349.774 6.72514C349.568 6.66122 349.349 6.62926 349.117 6.62926C348.698 6.62926 348.323 6.73461 347.991 6.94531C347.662 7.15601 347.402 7.46496 347.21 7.87216C347.021 8.27936 346.926 8.77652 346.926 9.36364C346.926 9.95549 347.021 10.455 347.21 10.8622C347.402 11.2694 347.663 11.5772 347.995 11.7855C348.326 11.9938 348.699 12.098 349.113 12.098C349.343 12.098 349.561 12.0672 349.767 12.0057C349.975 11.9418 350.163 11.8482 350.331 11.7251C350.499 11.602 350.641 11.4517 350.758 11.2741C350.876 11.0942 350.958 10.8883 351.003 10.6562L352.11 10.6598C352.051 11.0173 351.936 11.3464 351.766 11.647C351.598 11.9453 351.381 12.2034 351.116 12.4212C350.853 12.6366 350.553 12.8035 350.214 12.9219C349.876 13.0402 349.506 13.0994 349.106 13.0994C348.476 13.0994 347.915 12.9503 347.423 12.652C346.931 12.3513 346.542 11.9216 346.258 11.3629C345.976 10.8042 345.836 10.1378 345.836 9.36364C345.836 8.58712 345.978 7.92069 346.262 7.36435C346.546 6.80563 346.934 6.37713 347.427 6.07884C347.919 5.77817 348.479 5.62784 349.106 5.62784C349.492 5.62784 349.852 5.68348 350.186 5.79474C350.522 5.90365 350.824 6.06463 351.091 6.2777C351.359 6.4884 351.58 6.74645 351.755 7.05185C351.931 7.35488 352.049 7.7017 352.11 8.09233ZM355.636 13.1101C355.125 13.1101 354.678 12.9929 354.297 12.7585C353.916 12.5241 353.62 12.1963 353.409 11.7749C353.199 11.3535 353.093 10.861 353.093 10.2976C353.093 9.73177 353.199 9.23698 353.409 8.81321C353.62 8.38944 353.916 8.06037 354.297 7.82599C354.678 7.59162 355.125 7.47443 355.636 7.47443C356.147 7.47443 356.593 7.59162 356.975 7.82599C357.356 8.06037 357.652 8.38944 357.862 8.81321C358.073 9.23698 358.178 9.73177 358.178 10.2976C358.178 10.861 358.073 11.3535 357.862 11.7749C357.652 12.1963 357.356 12.5241 356.975 12.7585C356.593 12.9929 356.147 13.1101 355.636 13.1101ZM355.639 12.2188C355.971 12.2188 356.245 12.1312 356.463 11.956C356.681 11.7808 356.842 11.5476 356.946 11.2564C357.053 10.9652 357.106 10.6444 357.106 10.294C357.106 9.94602 357.053 9.62642 356.946 9.33523C356.842 9.04167 356.681 8.80611 356.463 8.62855C356.245 8.45099 355.971 8.36222 355.639 8.36222C355.306 8.36222 355.029 8.45099 354.808 8.62855C354.591 8.80611 354.428 9.04167 354.322 9.33523C354.218 9.62642 354.166 9.94602 354.166 10.294C354.166 10.6444 354.218 10.9652 354.322 11.2564C354.428 11.5476 354.591 11.7808 354.808 11.956C355.029 12.1312 355.306 12.2188 355.639 12.2188ZM360.425 5.72727V13H359.364V5.72727H360.425ZM364.152 13.1101C363.64 13.1101 363.194 12.9929 362.813 12.7585C362.432 12.5241 362.136 12.1963 361.925 11.7749C361.714 11.3535 361.609 10.861 361.609 10.2976C361.609 9.73177 361.714 9.23698 361.925 8.81321C362.136 8.38944 362.432 8.06037 362.813 7.82599C363.194 7.59162 363.64 7.47443 364.152 7.47443C364.663 7.47443 365.109 7.59162 365.49 7.82599C365.871 8.06037 366.167 8.38944 366.378 8.81321C366.589 9.23698 366.694 9.73177 366.694 10.2976C366.694 10.861 366.589 11.3535 366.378 11.7749C366.167 12.1963 365.871 12.5241 365.49 12.7585C365.109 12.9929 364.663 13.1101 364.152 13.1101ZM364.155 12.2188C364.486 12.2188 364.761 12.1312 364.979 11.956C365.197 11.7808 365.358 11.5476 365.462 11.2564C365.568 10.9652 365.622 10.6444 365.622 10.294C365.622 9.94602 365.568 9.62642 365.462 9.33523C365.358 9.04167 365.197 8.80611 364.979 8.62855C364.761 8.45099 364.486 8.36222 364.155 8.36222C363.821 8.36222 363.544 8.45099 363.324 8.62855C363.106 8.80611 362.944 9.04167 362.838 9.33523C362.733 9.62642 362.681 9.94602 362.681 10.294C362.681 10.6444 362.733 10.9652 362.838 11.2564C362.944 11.5476 363.106 11.7808 363.324 11.956C363.544 12.1312 363.821 12.2188 364.155 12.2188ZM371.335 10.7379V7.54545H372.4V13H371.356V12.0554H371.299C371.174 12.3466 370.972 12.5893 370.695 12.7834C370.421 12.9751 370.079 13.071 369.669 13.071C369.319 13.071 369.009 12.9941 368.739 12.8402C368.471 12.6839 368.26 12.4531 368.107 12.1477C367.955 11.8423 367.879 11.4647 367.879 11.0149V7.54545H368.941V10.8871C368.941 11.2588 369.044 11.5547 369.25 11.7749C369.456 11.995 369.724 12.1051 370.053 12.1051C370.251 12.1051 370.449 12.0554 370.646 11.956C370.845 11.8565 371.009 11.7062 371.139 11.505C371.272 11.3037 371.337 11.0481 371.335 10.7379ZM373.827 13V7.54545H374.853V8.41193H374.91C375.009 8.11837 375.184 7.88755 375.435 7.71946C375.689 7.54901 375.975 7.46378 376.295 7.46378C376.361 7.46378 376.439 7.46615 376.529 7.47088C376.621 7.47562 376.694 7.48153 376.746 7.48864V8.50426C376.703 8.49242 376.627 8.4794 376.518 8.4652C376.409 8.44863 376.301 8.44034 376.192 8.44034C375.941 8.44034 375.717 8.49361 375.52 8.60014C375.326 8.70431 375.172 8.84991 375.059 9.03693C374.945 9.22159 374.888 9.43229 374.888 9.66903V13H373.827ZM381.752 8.87713L380.789 9.04759C380.749 8.92448 380.685 8.80729 380.598 8.69602C380.512 8.58475 380.396 8.49361 380.25 8.42259C380.103 8.35156 379.919 8.31605 379.699 8.31605C379.399 8.31605 379.148 8.38352 378.946 8.51847C378.745 8.65104 378.645 8.82268 378.645 9.03338C378.645 9.21567 378.712 9.36245 378.847 9.47372C378.982 9.58499 379.2 9.67614 379.5 9.74716L380.367 9.94602C380.869 10.062 381.243 10.2408 381.489 10.4822C381.735 10.7237 381.858 11.0374 381.858 11.4233C381.858 11.75 381.764 12.0412 381.574 12.2969C381.387 12.5502 381.126 12.7491 380.789 12.8935C380.456 13.0379 380.069 13.1101 379.628 13.1101C379.017 13.1101 378.519 12.9799 378.133 12.7195C377.747 12.4567 377.511 12.0838 377.423 11.6009L378.449 11.4446C378.513 11.7121 378.645 11.9145 378.843 12.0518C379.042 12.1868 379.302 12.2543 379.621 12.2543C379.969 12.2543 380.247 12.1821 380.456 12.0376C380.664 11.8909 380.768 11.7121 380.768 11.5014C380.768 11.331 380.704 11.1877 380.576 11.0717C380.451 10.9557 380.258 10.8681 379.998 10.8089L379.074 10.6065C378.565 10.4905 378.189 10.3059 377.945 10.0526C377.704 9.79924 377.583 9.47846 377.583 9.0902C377.583 8.76823 377.673 8.48651 377.853 8.24503C378.033 8.00355 378.281 7.81534 378.598 7.6804C378.916 7.54309 379.279 7.47443 379.689 7.47443C380.278 7.47443 380.742 7.60227 381.081 7.85795C381.419 8.11127 381.643 8.45099 381.752 8.87713Z" fill="black" fill-opacity="0.25"/>
<rect x="300.201" y="26.5" width="63.9252" height="63.9252" rx="1.5" fill="#36C3C3"/>
<path d="M312.553 62.663C311.99 62.663 311.489 62.5665 311.049 62.3733C310.611 62.1801 310.263 61.9116 310.005 61.5679C309.749 61.2213 309.61 60.8193 309.587 60.3619H310.661C310.684 60.6432 310.78 60.8861 310.951 61.0906C311.121 61.2923 311.344 61.4486 311.62 61.5594C311.895 61.6702 312.201 61.7255 312.536 61.7255C312.911 61.7255 313.243 61.6602 313.533 61.5295C313.823 61.3988 314.05 61.217 314.215 60.9841C314.38 60.7511 314.462 60.4812 314.462 60.1744C314.462 59.8534 314.383 59.5707 314.223 59.3264C314.064 59.0792 313.831 58.8861 313.525 58.7469C313.218 58.6077 312.843 58.538 312.4 58.538H311.701V57.6005H312.4C312.746 57.6005 313.05 57.538 313.311 57.413C313.576 57.288 313.782 57.1119 313.929 56.8846C314.08 56.6574 314.155 56.3903 314.155 56.0835C314.155 55.788 314.09 55.5309 313.959 55.3122C313.829 55.0934 313.644 54.923 313.405 54.8008C313.169 54.6787 312.891 54.6176 312.57 54.6176C312.269 54.6176 311.985 54.673 311.718 54.7838C311.454 54.8917 311.238 55.0494 311.07 55.2568C310.902 55.4613 310.811 55.7085 310.797 55.9983H309.775C309.792 55.5409 309.929 55.1403 310.188 54.7966C310.446 54.45 310.784 54.1801 311.202 53.9869C311.623 53.7937 312.084 53.6971 312.587 53.6971C313.127 53.6971 313.59 53.8065 313.976 54.0253C314.363 54.2412 314.659 54.5267 314.867 54.8818C315.074 55.2369 315.178 55.6204 315.178 56.0324C315.178 56.5238 315.049 56.9429 314.79 57.2895C314.534 57.6361 314.186 57.8761 313.746 58.0096V58.0778C314.297 58.1687 314.728 58.4031 315.037 58.7809C315.347 59.1559 315.502 59.6204 315.502 60.1744C315.502 60.6488 315.373 61.075 315.114 61.4528C314.858 61.8278 314.509 62.1233 314.066 62.3392C313.623 62.5551 313.118 62.663 312.553 62.663ZM320.142 62.663C319.784 62.6574 319.427 62.5892 319.069 62.4585C318.711 62.3278 318.384 62.1077 318.088 61.798C317.793 61.4855 317.556 61.0636 317.377 60.5324C317.198 59.9983 317.108 59.3278 317.108 58.521C317.108 57.7483 317.181 57.0636 317.326 56.467C317.471 55.8676 317.681 55.3633 317.956 54.9542C318.232 54.5423 318.564 54.2298 318.954 54.0167C319.346 53.8037 319.787 53.6971 320.279 53.6971C320.767 53.6971 321.202 53.7952 321.583 53.9912C321.966 54.1844 322.279 54.4542 322.52 54.8008C322.762 55.1474 322.918 55.5466 322.989 55.9983H321.949C321.853 55.6062 321.665 55.2809 321.387 55.0224C321.108 54.7639 320.739 54.6346 320.279 54.6346C319.603 54.6346 319.07 54.9287 318.681 55.5167C318.294 56.1048 318.1 56.9301 318.097 57.9926H318.165C318.324 57.7511 318.513 57.5452 318.732 57.3747C318.954 57.2014 319.198 57.0679 319.465 56.9741C319.732 56.8804 320.015 56.8335 320.313 56.8335C320.813 56.8335 321.27 56.9585 321.685 57.2085C322.1 57.4557 322.432 57.798 322.682 58.2355C322.932 58.6702 323.057 59.1687 323.057 59.7312C323.057 60.271 322.936 60.7653 322.695 61.2142C322.454 61.6602 322.114 62.0153 321.677 62.2795C321.242 62.5409 320.731 62.6687 320.142 62.663ZM320.142 61.7255C320.5 61.7255 320.821 61.6361 321.106 61.4571C321.392 61.2781 321.618 61.038 321.783 60.7369C321.951 60.4358 322.034 60.1005 322.034 59.7312C322.034 59.3704 321.954 59.0423 321.792 58.7469C321.633 58.4486 321.412 58.2113 321.131 58.0352C320.853 57.8591 320.534 57.771 320.177 57.771C319.907 57.771 319.655 57.825 319.422 57.9329C319.189 58.038 318.985 58.1829 318.809 58.3676C318.635 58.5523 318.499 58.7639 318.4 59.0025C318.3 59.2383 318.25 59.4869 318.25 59.7483C318.25 60.0949 318.331 60.4187 318.493 60.7199C318.658 61.021 318.883 61.2639 319.167 61.4486C319.454 61.6332 319.779 61.7255 320.142 61.7255ZM331.909 56.5437H330.852C330.79 56.2398 330.68 55.9727 330.524 55.7426C330.371 55.5125 330.183 55.3193 329.962 55.163C329.743 55.004 329.5 54.8846 329.233 54.8051C328.966 54.7255 328.688 54.6858 328.398 54.6858C327.869 54.6858 327.391 54.8193 326.962 55.0863C326.536 55.3534 326.196 55.7469 325.943 56.2667C325.693 56.7866 325.568 57.4244 325.568 58.1801C325.568 58.9358 325.693 59.5736 325.943 60.0934C326.196 60.6133 326.536 61.0068 326.962 61.2738C327.391 61.5409 327.869 61.6744 328.398 61.6744C328.688 61.6744 328.966 61.6346 329.233 61.5551C329.5 61.4755 329.743 61.3577 329.962 61.2014C330.183 61.0423 330.371 60.8477 330.524 60.6176C330.68 60.3846 330.79 60.1176 330.852 59.8165H331.909C331.83 60.2625 331.685 60.6616 331.474 61.0139C331.264 61.3662 331.003 61.6659 330.69 61.913C330.378 62.1574 330.027 62.3434 329.638 62.4713C329.251 62.5991 328.838 62.663 328.398 62.663C327.653 62.663 326.992 62.4812 326.412 62.1176C325.832 61.754 325.376 61.2369 325.044 60.5665C324.712 59.896 324.545 59.1005 324.545 58.1801C324.545 57.2596 324.712 56.4642 325.044 55.7937C325.376 55.1233 325.832 54.6062 326.412 54.2426C326.992 53.879 327.653 53.6971 328.398 53.6971C328.838 53.6971 329.251 53.7611 329.638 53.8889C330.027 54.0167 330.378 54.2042 330.69 54.4514C331.003 54.6957 331.264 54.994 331.474 55.3463C331.685 55.6957 331.83 56.0949 331.909 56.5437ZM336.412 62.663C335.85 62.663 335.348 62.5665 334.908 62.3733C334.471 62.1801 334.123 61.9116 333.864 61.5679C333.608 61.2213 333.469 60.8193 333.446 60.3619H334.52C334.543 60.6432 334.64 60.8861 334.81 61.0906C334.981 61.2923 335.204 61.4486 335.479 61.5594C335.755 61.6702 336.06 61.7255 336.395 61.7255C336.77 61.7255 337.103 61.6602 337.392 61.5295C337.682 61.3988 337.909 61.217 338.074 60.9841C338.239 60.7511 338.321 60.4812 338.321 60.1744C338.321 59.8534 338.242 59.5707 338.083 59.3264C337.924 59.0792 337.691 58.8861 337.384 58.7469C337.077 58.6077 336.702 58.538 336.259 58.538H335.56V57.6005H336.259C336.606 57.6005 336.909 57.538 337.171 57.413C337.435 57.288 337.641 57.1119 337.789 56.8846C337.939 56.6574 338.015 56.3903 338.015 56.0835C338.015 55.788 337.949 55.5309 337.819 55.3122C337.688 55.0934 337.503 54.923 337.265 54.8008C337.029 54.6787 336.75 54.6176 336.429 54.6176C336.128 54.6176 335.844 54.673 335.577 54.7838C335.313 54.8917 335.097 55.0494 334.929 55.2568C334.762 55.4613 334.671 55.7085 334.657 55.9983H333.634C333.651 55.5409 333.789 55.1403 334.047 54.7966C334.306 54.45 334.644 54.1801 335.061 53.9869C335.482 53.7937 335.944 53.6971 336.446 53.6971C336.986 53.6971 337.449 53.8065 337.836 54.0253C338.222 54.2412 338.519 54.5267 338.726 54.8818C338.934 55.2369 339.037 55.6204 339.037 56.0324C339.037 56.5238 338.908 56.9429 338.65 57.2895C338.394 57.6361 338.046 57.8761 337.606 58.0096V58.0778C338.157 58.1687 338.587 58.4031 338.897 58.7809C339.206 59.1559 339.361 59.6204 339.361 60.1744C339.361 60.6488 339.232 61.075 338.973 61.4528C338.718 61.8278 338.368 62.1233 337.925 62.3392C337.482 62.5551 336.978 62.663 336.412 62.663ZM348.28 56.5437H347.223C347.161 56.2398 347.052 55.9727 346.895 55.7426C346.742 55.5125 346.554 55.3193 346.333 55.163C346.114 55.004 345.871 54.8846 345.604 54.8051C345.337 54.7255 345.059 54.6858 344.769 54.6858C344.24 54.6858 343.762 54.8193 343.333 55.0863C342.907 55.3534 342.567 55.7469 342.314 56.2667C342.064 56.7866 341.939 57.4244 341.939 58.1801C341.939 58.9358 342.064 59.5736 342.314 60.0934C342.567 60.6133 342.907 61.0068 343.333 61.2738C343.762 61.5409 344.24 61.6744 344.769 61.6744C345.059 61.6744 345.337 61.6346 345.604 61.5551C345.871 61.4755 346.114 61.3577 346.333 61.2014C346.554 61.0423 346.742 60.8477 346.895 60.6176C347.052 60.3846 347.161 60.1176 347.223 59.8165H348.28C348.201 60.2625 348.056 60.6616 347.846 61.0139C347.635 61.3662 347.374 61.6659 347.061 61.913C346.749 62.1574 346.398 62.3434 346.009 62.4713C345.623 62.5991 345.209 62.663 344.769 62.663C344.025 62.663 343.363 62.4812 342.783 62.1176C342.204 61.754 341.748 61.2369 341.415 60.5665C341.083 59.896 340.917 59.1005 340.917 58.1801C340.917 57.2596 341.083 56.4642 341.415 55.7937C341.748 55.1233 342.204 54.6062 342.783 54.2426C343.363 53.879 344.025 53.6971 344.769 53.6971C345.209 53.6971 345.623 53.7611 346.009 53.8889C346.398 54.0167 346.749 54.2042 347.061 54.4514C347.374 54.6957 347.635 54.994 347.846 55.3463C348.056 55.6957 348.201 56.0949 348.28 56.5437ZM352.783 62.663C352.221 62.663 351.72 62.5665 351.279 62.3733C350.842 62.1801 350.494 61.9116 350.235 61.5679C349.979 61.2213 349.84 60.8193 349.818 60.3619H350.891C350.914 60.6432 351.011 60.8861 351.181 61.0906C351.352 61.2923 351.575 61.4486 351.85 61.5594C352.126 61.6702 352.431 61.7255 352.766 61.7255C353.141 61.7255 353.474 61.6602 353.764 61.5295C354.053 61.3988 354.281 61.217 354.445 60.9841C354.61 60.7511 354.693 60.4812 354.693 60.1744C354.693 59.8534 354.613 59.5707 354.454 59.3264C354.295 59.0792 354.062 58.8861 353.755 58.7469C353.448 58.6077 353.073 58.538 352.63 58.538H351.931V57.6005H352.63C352.977 57.6005 353.281 57.538 353.542 57.413C353.806 57.288 354.012 57.1119 354.16 56.8846C354.31 56.6574 354.386 56.3903 354.386 56.0835C354.386 55.788 354.32 55.5309 354.19 55.3122C354.059 55.0934 353.874 54.923 353.636 54.8008C353.4 54.6787 353.121 54.6176 352.8 54.6176C352.499 54.6176 352.215 54.673 351.948 54.7838C351.684 54.8917 351.468 55.0494 351.3 55.2568C351.133 55.4613 351.042 55.7085 351.028 55.9983H350.005C350.022 55.5409 350.16 55.1403 350.418 54.7966C350.677 54.45 351.015 54.1801 351.433 53.9869C351.853 53.7937 352.315 53.6971 352.818 53.6971C353.357 53.6971 353.82 53.8065 354.207 54.0253C354.593 54.2412 354.89 54.5267 355.097 54.8818C355.305 55.2369 355.408 55.6204 355.408 56.0324C355.408 56.5238 355.279 56.9429 355.021 57.2895C354.765 57.6361 354.417 57.8761 353.977 58.0096V58.0778C354.528 58.1687 354.958 58.4031 355.268 58.7809C355.577 59.1559 355.732 59.6204 355.732 60.1744C355.732 60.6488 355.603 61.075 355.345 61.4528C355.089 61.8278 354.739 62.1233 354.296 62.3392C353.853 62.5551 353.349 62.663 352.783 62.663Z" fill="white"/>
<rect x="300.201" y="26.5" width="63.9252" height="63.9252" rx="1.5" stroke="black"/>
<rect x="373.126" y="26.5" width="63.9252" height="63.9252" rx="1.5" fill="#EBF9F9"/>
<path d="M383.535 62.5437V53.8165H388.802V54.754H384.592V57.7028H388.529V58.6403H384.592V61.6062H388.87V62.5437H383.535ZM390.707 62.5437V53.8165H393.758C394.366 53.8165 394.867 53.9216 395.262 54.1318C395.657 54.3392 395.951 54.619 396.144 54.9713C396.337 55.3207 396.434 55.7085 396.434 56.1346C396.434 56.5096 396.367 56.8193 396.234 57.0636C396.103 57.3079 395.93 57.5011 395.714 57.6432C395.501 57.7852 395.269 57.8903 395.019 57.9585V58.0437C395.286 58.0608 395.555 58.1545 395.825 58.325C396.095 58.4954 396.32 58.7398 396.502 59.0579C396.684 59.3761 396.775 59.7653 396.775 60.2255C396.775 60.663 396.675 61.0565 396.477 61.4059C396.278 61.7554 395.964 62.0324 395.535 62.2369C395.106 62.4415 394.548 62.5437 393.86 62.5437H390.707ZM391.764 61.6062H393.86C394.55 61.6062 395.041 61.4727 395.33 61.2057C395.623 60.9358 395.769 60.6091 395.769 60.2255C395.769 59.9301 395.694 59.6574 395.543 59.4074C395.393 59.1545 395.178 58.9528 394.9 58.8023C394.621 58.6488 394.292 58.5721 393.911 58.5721H391.764V61.6062ZM391.764 57.6517H393.724C394.042 57.6517 394.329 57.5892 394.585 57.4642C394.843 57.3392 395.048 57.163 395.198 56.9358C395.352 56.7085 395.428 56.4415 395.428 56.1346C395.428 55.7511 395.295 55.4258 395.028 55.1588C394.761 54.8889 394.337 54.754 393.758 54.754H391.764V57.6517ZM398.511 62.5437V53.8165H403.744V54.754H399.568V57.7028H403.352V58.6403H399.568V62.5437H398.511ZM408.179 53.6971C408.537 53.7 408.895 53.7682 409.253 53.9017C409.611 54.0352 409.938 54.2568 410.233 54.5665C410.529 54.8733 410.766 55.2923 410.945 55.8236C411.124 56.3548 411.213 57.021 411.213 57.8221C411.213 58.5977 411.14 59.2866 410.992 59.8889C410.847 60.4883 410.637 60.994 410.361 61.4059C410.088 61.8179 409.756 62.1304 409.364 62.3434C408.975 62.5565 408.534 62.663 408.043 62.663C407.554 62.663 407.118 62.5665 406.735 62.3733C406.354 62.1773 406.042 61.9059 405.797 61.5594C405.556 61.2099 405.401 60.8051 405.333 60.3449H406.373C406.466 60.7454 406.652 61.0764 406.931 61.3378C407.212 61.5963 407.583 61.7255 408.043 61.7255C408.716 61.7255 409.248 61.4315 409.637 60.8434C410.029 60.2554 410.225 59.4244 410.225 58.3505H410.157C409.998 58.5892 409.809 58.7952 409.59 58.9684C409.371 59.1417 409.128 59.2753 408.861 59.369C408.594 59.4628 408.31 59.5096 408.009 59.5096C407.509 59.5096 407.05 59.3861 406.633 59.1389C406.218 58.8889 405.885 58.5466 405.635 58.1119C405.388 57.6744 405.265 57.1744 405.265 56.6119C405.265 56.0778 405.384 55.5892 405.623 55.146C405.864 54.7 406.202 54.3449 406.637 54.0807C407.074 53.8165 407.588 53.6886 408.179 53.6971ZM408.179 54.6346C407.821 54.6346 407.499 54.7241 407.212 54.9031C406.928 55.0792 406.702 55.3179 406.534 55.619C406.37 55.9173 406.287 56.2483 406.287 56.6119C406.287 56.9755 406.367 57.3065 406.526 57.6048C406.688 57.9003 406.908 58.1361 407.186 58.3122C407.468 58.4855 407.787 58.5721 408.145 58.5721C408.415 58.5721 408.667 58.5196 408.9 58.4145C409.133 58.3065 409.336 58.1602 409.509 57.9755C409.685 57.788 409.823 57.5764 409.922 57.3406C410.022 57.102 410.071 56.8534 410.071 56.5949C410.071 56.254 409.989 55.9344 409.824 55.6361C409.662 55.3378 409.438 55.0963 409.151 54.9116C408.867 54.727 408.543 54.6346 408.179 54.6346ZM413.043 62.5437V53.8165H418.276V54.754H414.099V57.7028H417.884V58.6403H414.099V62.5437H413.043ZM422.711 53.6971C423.069 53.7 423.427 53.7682 423.784 53.9017C424.142 54.0352 424.469 54.2568 424.765 54.5665C425.06 54.8733 425.297 55.2923 425.476 55.8236C425.655 56.3548 425.745 57.021 425.745 57.8221C425.745 58.5977 425.671 59.2866 425.523 59.8889C425.378 60.4883 425.168 60.994 424.892 61.4059C424.62 61.8179 424.287 62.1304 423.895 62.3434C423.506 62.5565 423.066 62.663 422.574 62.663C422.086 62.663 421.65 62.5665 421.266 62.3733C420.885 62.1773 420.573 61.9059 420.329 61.5594C420.087 61.2099 419.932 60.8051 419.864 60.3449H420.904C420.998 60.7454 421.184 61.0764 421.462 61.3378C421.743 61.5963 422.114 61.7255 422.574 61.7255C423.248 61.7255 423.779 61.4315 424.168 60.8434C424.56 60.2554 424.756 59.4244 424.756 58.3505H424.688C424.529 58.5892 424.34 58.7952 424.121 58.9684C423.902 59.1417 423.659 59.2753 423.392 59.369C423.125 59.4628 422.841 59.5096 422.54 59.5096C422.04 59.5096 421.581 59.3861 421.164 59.1389C420.749 58.8889 420.417 58.5466 420.167 58.1119C419.919 57.6744 419.796 57.1744 419.796 56.6119C419.796 56.0778 419.915 55.5892 420.154 55.146C420.395 54.7 420.733 54.3449 421.168 54.0807C421.606 53.8165 422.12 53.6886 422.711 53.6971ZM422.711 54.6346C422.353 54.6346 422.03 54.7241 421.743 54.9031C421.459 55.0792 421.233 55.3179 421.066 55.619C420.901 55.9173 420.819 56.2483 420.819 56.6119C420.819 56.9755 420.898 57.3065 421.057 57.6048C421.219 57.9003 421.439 58.1361 421.718 58.3122C421.999 58.4855 422.319 58.5721 422.677 58.5721C422.946 58.5721 423.198 58.5196 423.431 58.4145C423.664 58.3065 423.867 58.1602 424.04 57.9755C424.216 57.788 424.354 57.5764 424.454 57.3406C424.553 57.102 424.603 56.8534 424.603 56.5949C424.603 56.254 424.52 55.9344 424.356 55.6361C424.194 55.3378 423.969 55.0963 423.682 54.9116C423.398 54.727 423.074 54.6346 422.711 54.6346Z" fill="black"/>
<rect x="373.126" y="26.5" width="63.9252" height="63.9252" rx="1.5" stroke="black"/>
<rect x="445.551" width="52" height="18" rx="9" fill="#D5DAEE"/>
<path d="M453.774 13L451.757 5.72727H452.911L454.328 11.3594H454.395L455.869 5.72727H457.013L458.486 11.3629H458.554L459.967 5.72727H461.125L459.104 13H458L456.469 7.55256H456.413L454.882 13H453.774ZM463.09 13.1207C462.745 13.1207 462.432 13.0568 462.153 12.929C461.874 12.7988 461.652 12.6106 461.489 12.3643C461.328 12.1181 461.247 11.8163 461.247 11.4588C461.247 11.151 461.307 10.8977 461.425 10.6989C461.543 10.5 461.703 10.3426 461.904 10.2266C462.106 10.1106 462.33 10.023 462.579 9.96378C462.828 9.90459 463.081 9.85961 463.339 9.82884C463.666 9.79096 463.931 9.76018 464.134 9.73651C464.338 9.71046 464.486 9.66903 464.578 9.61222C464.671 9.5554 464.717 9.46307 464.717 9.33523V9.31037C464.717 9.00024 464.629 8.75994 464.454 8.58949C464.281 8.41903 464.023 8.33381 463.68 8.33381C463.322 8.33381 463.041 8.41312 462.835 8.57173C462.631 8.72798 462.49 8.90199 462.412 9.09375L461.414 8.86648C461.533 8.53504 461.705 8.26752 461.933 8.06392C462.162 7.85795 462.426 7.70881 462.725 7.61648C463.023 7.52178 463.337 7.47443 463.666 7.47443C463.884 7.47443 464.114 7.50047 464.358 7.55256C464.604 7.60227 464.834 7.6946 465.047 7.82955C465.263 7.96449 465.439 8.15743 465.576 8.40838C465.714 8.65696 465.782 8.98011 465.782 9.37784V13H464.745V12.2543H464.703C464.634 12.3916 464.531 12.5265 464.394 12.6591C464.256 12.7917 464.08 12.9018 463.865 12.9893C463.649 13.0769 463.391 13.1207 463.09 13.1207ZM463.321 12.2685C463.615 12.2685 463.866 12.2105 464.074 12.0945C464.285 11.9785 464.445 11.8269 464.554 11.6399C464.665 11.4505 464.72 11.2481 464.72 11.0327V10.3295C464.683 10.3674 464.609 10.4029 464.5 10.4361C464.394 10.4669 464.272 10.4941 464.134 10.5178C463.997 10.5391 463.863 10.5592 463.733 10.5781C463.603 10.5947 463.494 10.6089 463.406 10.6207C463.201 10.6468 463.012 10.6906 462.842 10.7521C462.674 10.8137 462.539 10.9025 462.437 11.0185C462.338 11.1321 462.288 11.2836 462.288 11.473C462.288 11.7358 462.385 11.9347 462.579 12.0696C462.773 12.2022 463.021 12.2685 463.321 12.2685ZM467.196 13V7.54545H468.223V8.41193H468.28C468.379 8.11837 468.554 7.88755 468.805 7.71946C469.058 7.54901 469.345 7.46378 469.664 7.46378C469.731 7.46378 469.809 7.46615 469.899 7.47088C469.991 7.47562 470.063 7.48153 470.115 7.48864V8.50426C470.073 8.49242 469.997 8.4794 469.888 8.4652C469.779 8.44863 469.67 8.44034 469.562 8.44034C469.311 8.44034 469.087 8.49361 468.89 8.60014C468.696 8.70431 468.542 8.84991 468.429 9.03693C468.315 9.22159 468.258 9.43229 468.258 9.66903V13H467.196ZM472.096 9.76136V13H471.034V7.54545H472.054V8.43324H472.121C472.246 8.14441 472.443 7.91241 472.71 7.73722C472.98 7.56203 473.32 7.47443 473.73 7.47443C474.101 7.47443 474.427 7.55256 474.706 7.70881C474.986 7.86269 475.202 8.09233 475.356 8.39773C475.51 8.70312 475.587 9.08073 475.587 9.53054V13H474.525V9.65838C474.525 9.26302 474.422 8.95407 474.216 8.73153C474.01 8.50663 473.727 8.39418 473.367 8.39418C473.121 8.39418 472.902 8.44744 472.71 8.55398C472.521 8.66051 472.371 8.81676 472.259 9.02273C472.151 9.22633 472.096 9.47254 472.096 9.76136ZM477.011 13V7.54545H478.073V13H477.011ZM477.547 6.70384C477.362 6.70384 477.204 6.64228 477.071 6.51918C476.941 6.3937 476.876 6.24455 476.876 6.07173C476.876 5.89654 476.941 5.7474 477.071 5.62429C477.204 5.49882 477.362 5.43608 477.547 5.43608C477.732 5.43608 477.889 5.49882 478.019 5.62429C478.152 5.7474 478.218 5.89654 478.218 6.07173C478.218 6.24455 478.152 6.3937 478.019 6.51918C477.889 6.64228 477.732 6.70384 477.547 6.70384ZM480.563 9.76136V13H479.501V7.54545H480.52V8.43324H480.588C480.713 8.14441 480.91 7.91241 481.177 7.73722C481.447 7.56203 481.787 7.47443 482.196 7.47443C482.568 7.47443 482.894 7.55256 483.173 7.70881C483.452 7.86269 483.669 8.09233 483.823 8.39773C483.977 8.70312 484.054 9.08073 484.054 9.53054V13H482.992V9.65838C482.992 9.26302 482.889 8.95407 482.683 8.73153C482.477 8.50663 482.194 8.39418 481.834 8.39418C481.588 8.39418 481.369 8.44744 481.177 8.55398C480.988 8.66051 480.838 8.81676 480.726 9.02273C480.617 9.22633 480.563 9.47254 480.563 9.76136ZM487.765 15.1591C487.331 15.1591 486.959 15.1023 486.646 14.9886C486.336 14.875 486.083 14.7247 485.886 14.5376C485.69 14.3506 485.543 14.1458 485.446 13.9233L486.358 13.5469C486.422 13.651 486.508 13.7611 486.614 13.8771C486.723 13.9955 486.87 14.0961 487.054 14.179C487.241 14.2618 487.482 14.3033 487.775 14.3033C488.178 14.3033 488.51 14.205 488.773 14.0085C489.036 13.8144 489.167 13.5043 489.167 13.0781V12.0057H489.1C489.036 12.1217 488.944 12.2507 488.823 12.3928C488.704 12.5348 488.541 12.6579 488.333 12.7621C488.124 12.8662 487.853 12.9183 487.52 12.9183C487.089 12.9183 486.7 12.8177 486.355 12.6165C486.012 12.4129 485.739 12.1134 485.538 11.718C485.339 11.3203 485.24 10.8314 485.24 10.2514C485.24 9.6714 485.338 9.17424 485.535 8.75994C485.733 8.34564 486.006 8.02841 486.351 7.80824C486.697 7.5857 487.089 7.47443 487.527 7.47443C487.865 7.47443 488.139 7.53125 488.347 7.64489C488.555 7.75616 488.718 7.88636 488.834 8.03551C488.952 8.18466 489.043 8.31605 489.107 8.42969H489.185V7.54545H490.226V13.1207C490.226 13.5895 490.117 13.9742 489.899 14.2749C489.681 14.5755 489.386 14.7981 489.015 14.9425C488.645 15.0869 488.229 15.1591 487.765 15.1591ZM487.754 12.0376C488.059 12.0376 488.317 11.9666 488.528 11.8246C488.741 11.6802 488.902 11.4742 489.011 11.2067C489.122 10.9368 489.178 10.6136 489.178 10.2372C489.178 9.87027 489.124 9.54711 489.015 9.26776C488.906 8.9884 488.746 8.7706 488.535 8.61435C488.325 8.45573 488.064 8.37642 487.754 8.37642C487.434 8.37642 487.168 8.45928 486.955 8.625C486.742 8.78835 486.581 9.01089 486.472 9.29261C486.365 9.57434 486.312 9.8892 486.312 10.2372C486.312 10.5947 486.367 10.9084 486.476 11.1783C486.584 11.4482 486.745 11.6589 486.959 11.8104C487.174 11.9619 487.439 12.0376 487.754 12.0376Z" fill="black" fill-opacity="0.25"/>
<rect x="446.051" y="26.5" width="63.9252" height="63.9252" rx="1.5" fill="#E82A2A"/>
<path d="M454.608 62.6186V53.8913H459.875V54.8288H455.665V57.7777H459.602V58.7152H455.665V61.6811H459.943V62.6186H454.608ZM464.422 62.7379C463.837 62.7379 463.319 62.6342 462.871 62.4268C462.425 62.2166 462.077 61.9282 461.827 61.5617C461.577 61.1924 461.453 60.772 461.456 60.3004C461.453 59.9311 461.525 59.5902 461.673 59.2777C461.821 58.9623 462.023 58.6995 462.278 58.4893C462.537 58.2762 462.825 58.1413 463.143 58.0845V58.0333C462.726 57.9254 462.393 57.691 462.146 57.3302C461.899 56.9666 461.777 56.5532 461.78 56.0902C461.777 55.647 461.889 55.2507 462.116 54.9012C462.344 54.5518 462.656 54.2762 463.054 54.0745C463.454 53.8728 463.91 53.772 464.422 53.772C464.927 53.772 465.379 53.8728 465.777 54.0745C466.175 54.2762 466.487 54.5518 466.714 54.9012C466.944 55.2507 467.061 55.647 467.064 56.0902C467.061 56.5532 466.935 56.9666 466.685 57.3302C466.437 57.691 466.109 57.9254 465.7 58.0333V58.0845C466.016 58.1413 466.3 58.2762 466.552 58.4893C466.805 58.6995 467.007 58.9623 467.158 59.2777C467.308 59.5902 467.385 59.9311 467.388 60.3004C467.385 60.772 467.257 61.1924 467.004 61.5617C466.754 61.9282 466.406 62.2166 465.96 62.4268C465.517 62.6342 465.004 62.7379 464.422 62.7379ZM464.422 61.8004C464.817 61.8004 465.158 61.7365 465.444 61.6086C465.731 61.4808 465.953 61.3004 466.109 61.0674C466.266 60.8345 466.345 60.5617 466.348 60.2492C466.345 59.9197 466.26 59.6285 466.092 59.3757C465.925 59.1228 465.696 58.924 465.406 58.7791C465.119 58.6342 464.791 58.5617 464.422 58.5617C464.05 58.5617 463.717 58.6342 463.425 58.7791C463.135 58.924 462.906 59.1228 462.739 59.3757C462.574 59.6285 462.493 59.9197 462.496 60.2492C462.493 60.5617 462.568 60.8345 462.721 61.0674C462.878 61.3004 463.101 61.4808 463.391 61.6086C463.68 61.7365 464.024 61.8004 464.422 61.8004ZM464.422 57.6583C464.734 57.6583 465.011 57.5958 465.253 57.4708C465.497 57.3458 465.689 57.1711 465.828 56.9467C465.967 56.7223 466.038 56.4595 466.041 56.1583C466.038 55.8629 465.969 55.6058 465.832 55.387C465.696 55.1654 465.507 54.995 465.266 54.8757C465.024 54.7535 464.743 54.6924 464.422 54.6924C464.095 54.6924 463.81 54.7535 463.565 54.8757C463.321 54.995 463.132 55.1654 462.998 55.387C462.865 55.6058 462.8 55.8629 462.802 56.1583C462.8 56.4595 462.866 56.7223 463.003 56.9467C463.142 57.1711 463.334 57.3458 463.578 57.4708C463.822 57.5958 464.104 57.6583 464.422 57.6583ZM469.021 62.6186V61.8515L471.902 58.6981C472.24 58.3288 472.518 58.0078 472.737 57.735C472.955 57.4595 473.117 57.2009 473.223 56.9595C473.331 56.7152 473.384 56.4595 473.384 56.1924C473.384 55.8856 473.311 55.62 473.163 55.3955C473.018 55.1711 472.819 54.9978 472.566 54.8757C472.313 54.7535 472.029 54.6924 471.714 54.6924C471.379 54.6924 471.086 54.762 470.836 54.9012C470.589 55.0376 470.397 55.2294 470.261 55.4765C470.127 55.7237 470.061 56.0134 470.061 56.3458H469.055C469.055 55.8345 469.173 55.3856 469.409 54.9992C469.644 54.6129 469.965 54.3117 470.372 54.0958C470.781 53.8799 471.24 53.772 471.748 53.772C472.259 53.772 472.713 53.8799 473.107 54.0958C473.502 54.3117 473.812 54.6029 474.036 54.9694C474.261 55.3359 474.373 55.7436 474.373 56.1924C474.373 56.5134 474.315 56.8274 474.198 57.1342C474.085 57.4382 473.886 57.7777 473.602 58.1527C473.321 58.5248 472.93 58.9794 472.43 59.5163L470.47 61.6129V61.6811H474.527V62.6186H469.021ZM476.798 62.6186H475.69L478.894 53.8913H479.985L483.19 62.6186H482.082L479.474 55.272H479.406L476.798 62.6186ZM477.207 59.2095H481.673V60.147H477.207V59.2095ZM484.396 62.6186V61.8515L487.277 58.6981C487.615 58.3288 487.893 58.0078 488.112 57.735C488.33 57.4595 488.492 57.2009 488.598 56.9595C488.706 56.7152 488.759 56.4595 488.759 56.1924C488.759 55.8856 488.686 55.62 488.538 55.3955C488.393 55.1711 488.194 54.9978 487.941 54.8757C487.688 54.7535 487.404 54.6924 487.089 54.6924C486.754 54.6924 486.461 54.762 486.211 54.9012C485.964 55.0376 485.772 55.2294 485.636 55.4765C485.502 55.7237 485.436 56.0134 485.436 56.3458H484.43C484.43 55.8345 484.548 55.3856 484.784 54.9992C485.019 54.6129 485.34 54.3117 485.747 54.0958C486.156 53.8799 486.615 53.772 487.123 53.772C487.634 53.772 488.088 53.8799 488.482 54.0958C488.877 54.3117 489.187 54.6029 489.411 54.9694C489.636 55.3359 489.748 55.7436 489.748 56.1924C489.748 56.5134 489.69 56.8274 489.573 57.1342C489.46 57.4382 489.261 57.7777 488.977 58.1527C488.696 58.5248 488.305 58.9794 487.805 59.5163L485.845 61.6129V61.6811H489.902V62.6186H484.396ZM492.173 62.6186H491.065L494.269 53.8913H495.36L498.565 62.6186H497.457L494.849 55.272H494.781L492.173 62.6186ZM492.582 59.2095H497.048V60.147H492.582V59.2095Z" fill="white"/>
<rect x="446.051" y="26.5" width="63.9252" height="63.9252" rx="1.5" stroke="black"/>
<rect x="520.976" y="26.5" width="63.9252" height="63.9252" rx="1.5" stroke="black" stroke-opacity="0.25" stroke-dasharray="2 2"/>
</svg>
