<svg width="158" height="159" viewBox="0 0 158 159" fill="none" xmlns="http://www.w3.org/2000/svg">
<circle cx="79" cy="79" r="79" fill="#36C3C3"/>
<mask id="path-2-inside-1_66_6964" fill="white">
<path fill-rule="evenodd" clip-rule="evenodd" d="M79.0345 8.01733C86.7849 8.01733 94.2374 11.3319 99.3049 16.7557C103.478 21.577 105.565 27.6034 104.969 33.63C104.829 34.1954 104.755 34.7608 104.684 35.2951C104.605 35.8998 104.531 36.4646 104.373 36.9445C101.69 49.6002 87.6794 60.7493 82.0154 64.9677C81.1213 65.5703 80.2268 65.8717 79.0345 65.8717C77.8421 65.8717 76.9477 65.5703 76.0535 64.9677C70.0916 60.7493 56.3792 49.6002 53.6964 36.9445C53.3983 36.0405 53.1002 34.8352 53.1002 33.63C52.504 27.6034 54.5907 21.577 58.764 16.7557C63.8316 11.0306 71.284 8.01733 79.0345 8.01733Z"/>
</mask>
<path fill-rule="evenodd" clip-rule="evenodd" d="M79.0345 8.01733C86.7849 8.01733 94.2374 11.3319 99.3049 16.7557C103.478 21.577 105.565 27.6034 104.969 33.63C104.829 34.1954 104.755 34.7608 104.684 35.2951C104.605 35.8998 104.531 36.4646 104.373 36.9445C101.69 49.6002 87.6794 60.7493 82.0154 64.9677C81.1213 65.5703 80.2268 65.8717 79.0345 65.8717C77.8421 65.8717 76.9477 65.5703 76.0535 64.9677C70.0916 60.7493 56.3792 49.6002 53.6964 36.9445C53.3983 36.0405 53.1002 34.8352 53.1002 33.63C52.504 27.6034 54.5907 21.577 58.764 16.7557C63.8316 11.0306 71.284 8.01733 79.0345 8.01733Z" fill="#2A2B2E"/>
<path d="M99.3049 16.7557L100.061 16.1013L100.049 16.0869L100.036 16.0731L99.3049 16.7557ZM104.969 33.63L105.94 33.8703L105.957 33.8003L105.964 33.7285L104.969 33.63ZM104.684 35.2951L105.676 35.4254V35.4253L104.684 35.2951ZM104.373 36.9445L103.423 36.6315L103.406 36.6835L103.394 36.7371L104.373 36.9445ZM82.0154 64.9677L82.5743 65.797L82.5938 65.7838L82.6127 65.7697L82.0154 64.9677ZM76.0535 64.9677L75.4759 65.784L75.4852 65.7906L75.4947 65.797L76.0535 64.9677ZM53.6964 36.9445L54.6746 36.7371L54.6633 36.6835L54.6461 36.6313L53.6964 36.9445ZM53.1002 33.63H54.1002V33.5807L54.0953 33.5316L53.1002 33.63ZM58.764 16.7557L58.0152 16.0929L58.0079 16.1013L58.764 16.7557ZM100.036 16.0731C94.7795 10.4473 87.0626 7.01733 79.0345 7.01733V9.01733C86.5073 9.01733 93.6954 12.2165 98.5742 17.4384L100.036 16.0731ZM105.964 33.7285C106.59 27.402 104.396 21.1088 100.061 16.1013L98.5488 17.4102C102.561 22.0451 104.54 27.8048 103.974 33.5316L105.964 33.7285ZM105.676 35.4253C105.747 34.8833 105.815 34.3727 105.94 33.8703L103.998 33.3898C103.843 34.0181 103.762 34.6382 103.693 35.1649L105.676 35.4253ZM105.322 37.2576C105.516 36.6704 105.6 36.0042 105.676 35.4254L103.693 35.1649C103.61 35.7953 103.546 36.2589 103.423 36.6315L105.322 37.2576ZM82.6127 65.7697C85.4631 63.6468 90.4378 59.7627 95.0447 54.8005C99.6359 49.8552 103.954 43.7425 105.351 37.1519L103.394 36.7371C102.109 42.8022 98.0798 48.5918 93.579 53.4397C89.0941 58.2705 84.2317 62.0702 81.4181 64.1657L82.6127 65.7697ZM79.0345 66.8717C80.433 66.8717 81.5209 66.5069 82.5743 65.797L81.4566 64.1385C80.7217 64.6337 80.0207 64.8717 79.0345 64.8717V66.8717ZM75.4947 65.797C76.548 66.5069 77.636 66.8717 79.0345 66.8717V64.8717C78.0482 64.8717 77.3473 64.6337 76.6124 64.1385L75.4947 65.797ZM52.7181 37.1519C54.1141 43.7372 58.3525 49.8482 62.9097 54.7974C67.481 59.762 72.4589 63.6493 75.4759 65.784L76.6311 64.1514C73.6862 62.0677 68.827 58.2713 64.381 53.4427C59.9208 48.5989 55.9615 42.8075 54.6746 36.7371L52.7181 37.1519ZM52.1002 33.63C52.1002 34.9848 52.4322 36.3041 52.7467 37.2577L54.6461 36.6313C54.3643 35.777 54.1002 34.6855 54.1002 33.63H52.1002ZM58.0079 16.1013C53.6733 21.1088 51.4792 27.4021 52.1051 33.7285L54.0953 33.5316C53.5288 27.8048 55.5081 22.0451 59.5201 17.4102L58.0079 16.1013ZM79.0345 7.01733C71.0309 7.01733 63.2936 10.1297 58.0152 16.0929L59.5128 17.4185C64.3696 11.9315 71.5371 9.01733 79.0345 9.01733V7.01733Z" fill="#2A2B2E" mask="url(#path-2-inside-1_66_6964)"/>
<circle cx="78.534" cy="31.5484" r="10.5139" fill="white"/>
<path d="M52.0538 117.5L54.155 153C62.5549 158.6 77.6551 158.333 84.1552 157.5C80.1552 147.9 80.1552 132.833 80.6552 126.5C88.2552 124.5 94.3869 123 96.5536 121C103.045 123.337 111.691 124.32 117.554 123C119.225 122.624 123.482 121.648 124.554 120C125.514 118.523 125.054 116.385 124.155 116C122.932 115.476 121.73 114.631 120.554 114C119.522 113.446 118.51 113.116 117.523 112.5C109.331 107.387 102.204 99.9449 99.5536 96.5C94.7536 80.9 87.4885 77.1667 84.1552 77C81.2296 77.1009 73.3558 77.0451 67.5537 79.5C63.77 81.1009 61.0537 84.5 59.5537 87C54.5761 95.296 51.5538 109.5 52.0538 117.5Z" fill="#2A2B2E" stroke="#2A2B2E" stroke-linecap="round"/>
<path d="M74.2808 111.978C80.8107 121.3 92.6132 121.5 96.5 121.5C89.0373 123.932 80.8696 127.307 78.3432 126.969C67.6156 123.727 62.6204 118.564 62.0374 117.044C60.094 114.849 56.6736 108.229 58.5393 99.3132C60.8714 88.1679 62.6204 92.7273 63.2035 91.2075C63.6699 89.9916 66.8959 94.416 68.4506 96.7801C67.6732 97.9622 67.7509 102.657 74.2808 111.978Z" fill="white" stroke="white" stroke-linecap="round"/>
<path d="M78 128.5C81 128 91.3 124.7 96.5 121.5" stroke="#2A2B2E" stroke-linecap="round"/>
<ellipse cx="77" cy="96.5" rx="2" ry="2.5" fill="white"/>
</svg>
