<svg width="382" height="521" viewBox="0 0 382 521" fill="none" xmlns="http://www.w3.org/2000/svg">
<g clip-path="url(#clip0_1781_6751)">
<mask id="mask0_1781_6751" style="mask-type:luminance" maskUnits="userSpaceOnUse" x="0" y="0" width="382" height="521">
<path d="M382 0H0V521H382V0Z" fill="white"/>
</mask>
<g mask="url(#mask0_1781_6751)">
<g filter="url(#filter0_d_1781_6751)">
<path d="M320 33H79C56.9086 33 39 50.9086 39 73V647C39 669.091 56.9086 687 79 687H320C342.091 687 360 669.091 360 647V73C360 50.9086 342.091 33 320 33Z" fill="#DEDEDE" stroke="black" stroke-width="3"/>
<path d="M59 555V79C59 62.4315 72.4315 49 89 49H311C327.569 49 341 62.4314 341 79V555C341 571.569 327.569 585 311 585H89C72.4315 585 59 571.569 59 555Z" fill="#E4FD41"/>
<g clip-path="url(#clip1_1781_6751)">
<rect x="58.585" y="48.8721" width="281.83" height="610.256" rx="10" fill="#00A3FF"/>
<path opacity="0.25" d="M137.598 372.96C124.242 376.539 111.464 378.225 99.2636 378.019C87.0629 377.813 75.7506 376.065 65.3265 372.776C59.2837 370.8 53.6506 368.372 48.4271 365.493C42.1958 362.059 40.3428 354.259 43.3652 347.818L45.2872 343.721C49.578 334.577 61.6542 332.207 70.8188 336.456C72.5055 337.238 74.2401 337.963 76.0224 338.632C84.408 341.598 93.4327 343.307 103.097 343.759C112.706 344.008 122.165 342.885 131.473 340.391C143.817 337.083 152.987 332.454 158.983 326.503C164.979 320.552 166.919 313.625 164.801 305.721C163.443 300.655 160.252 296.84 155.228 294.277C150.406 291.659 142.839 290.537 132.529 290.91L87.4283 292.569C75.3905 292.971 64.7001 291.925 55.357 289.433C46.0139 286.941 38.3217 282.92 32.2803 277.371C26.3869 271.565 22.2456 264.203 19.8563 255.286C16.7068 243.532 17.0467 232.255 20.876 221.454C24.9078 210.6 32.0588 200.864 42.3292 192.247C52.8019 183.577 66.4359 176.991 83.2313 172.491C100.836 167.774 117.131 166.666 132.115 169.167C143.102 171.001 153.425 174.706 163.083 180.283C169.297 183.871 171.101 191.764 167.967 198.219L166.235 201.786C162.105 210.292 151.274 212.745 142.739 208.674C136.943 205.909 131.104 203.998 125.224 202.943C114.208 200.682 102.124 201.313 88.9706 204.837C80.0671 207.223 73.081 210.29 68.0124 214.037C62.8895 217.582 59.4003 221.558 57.5448 225.965C55.8917 230.317 55.6896 234.824 56.9385 239.486C57.916 243.133 59.6214 246.26 62.0547 248.866C64.4338 251.27 68.1479 252.99 73.197 254.026C78.4484 255.008 85.5951 255.374 94.637 255.124L133.26 253.572C153.422 252.731 168.764 255.353 179.287 261.439C189.958 267.268 197.112 276.972 200.75 290.55C204.226 303.52 203.846 315.46 199.612 326.369C195.378 337.277 187.842 346.79 177.004 354.907C166.314 362.768 153.179 368.785 137.598 372.96ZM145.021 401.272C137.226 403.36 129.214 398.735 127.125 390.939L65.942 162.602C63.8533 154.807 68.4793 146.795 76.2743 144.706V144.706C84.0694 142.617 92.0817 147.243 94.1704 155.038L155.353 383.376C157.442 391.171 152.816 399.183 145.021 401.272V401.272Z" fill="white"/>
<path opacity="0.25" d="M306.696 247.452C293.34 251.031 280.562 252.717 268.362 252.511C256.161 252.304 244.849 250.557 234.425 247.268C228.382 245.292 222.749 242.864 217.525 239.985C211.294 236.551 209.441 228.751 212.463 222.309L214.385 218.213C218.676 209.068 230.752 206.699 239.917 210.947C241.604 211.729 243.338 212.455 245.12 213.124C253.506 216.09 262.531 217.799 272.195 218.25C281.804 218.499 291.263 217.377 300.571 214.883C312.915 211.575 322.085 206.946 328.081 200.995C334.077 195.044 336.017 188.117 333.899 180.213C332.541 175.147 329.35 171.332 324.326 168.768C319.504 166.151 311.937 165.028 301.627 165.402L256.526 167.061C244.489 167.462 233.798 166.417 224.455 163.925C215.112 161.432 207.42 157.412 201.378 151.863C195.485 146.057 191.344 138.695 188.954 129.778C185.805 118.024 186.145 106.747 189.974 95.9461C194.006 85.0914 201.157 75.3557 211.427 66.7392C221.9 58.0684 235.534 51.4828 252.329 46.9825C269.934 42.2653 286.229 41.1573 301.213 43.6585C312.2 45.4926 322.523 49.198 332.181 54.775C338.395 58.3632 340.2 66.2557 337.065 72.7107L335.333 76.2778C331.203 84.7841 320.372 87.2367 311.837 83.1656C306.041 80.4005 300.202 78.4902 294.322 77.4346C283.306 75.1733 271.222 75.8049 258.069 79.3292C249.165 81.7149 242.179 84.7815 237.11 88.5289C231.988 92.0737 228.498 96.0495 226.643 100.456C224.99 104.809 224.788 109.316 226.037 113.977C227.014 117.625 228.719 120.752 231.153 123.358C233.532 125.762 237.246 127.482 242.295 128.518C247.546 129.5 254.693 129.866 263.735 129.615L302.358 128.063C322.52 127.222 337.862 129.845 348.385 135.931C359.056 141.76 366.21 151.464 369.848 165.042C373.324 178.012 372.944 189.951 368.71 200.86C364.476 211.769 356.94 221.282 346.102 229.399C335.412 237.259 322.277 243.277 306.696 247.452ZM314.119 275.764C306.324 277.852 298.312 273.226 296.223 265.431L235.04 37.0937C232.951 29.2986 237.577 21.2863 245.372 19.1976V19.1976C253.167 17.1089 261.18 21.7348 263.268 29.5299L324.451 257.867C326.54 265.663 321.914 273.675 314.119 275.764V275.764Z" fill="white"/>
<path d="M58.585 407.36C58.585 399.059 65.3146 392.329 73.6159 392.329H325.384C333.685 392.329 340.415 399.058 340.415 407.36V659.128H58.585V407.36Z" fill="#FDFBF8"/>
<path d="M91.6546 424.265C94.295 424.265 96.3136 424.998 97.7105 426.463C99.1244 427.928 99.8314 430.006 99.8314 432.698C99.8314 435.389 99.1244 437.467 97.7105 438.932C96.3136 440.397 94.295 441.13 91.6546 441.13H84.4998V424.265H91.6546ZM91.2202 437.808C92.6511 437.808 93.6902 437.382 94.3376 436.53C95.0019 435.662 95.3341 434.384 95.3341 432.698C95.3341 431.011 95.0019 429.742 94.3376 428.89C93.6902 428.021 92.6511 427.587 91.2202 427.587H88.8949V437.808H91.2202ZM104.145 426.872C103.259 426.872 102.612 426.71 102.203 426.386C101.811 426.045 101.615 425.517 101.615 424.802C101.615 424.069 101.811 423.541 102.203 423.218C102.612 422.877 103.259 422.707 104.145 422.707C105.014 422.707 105.653 422.877 106.062 423.218C106.47 423.541 106.675 424.069 106.675 424.802C106.675 425.517 106.47 426.045 106.062 426.386C105.653 426.71 105.014 426.872 104.145 426.872ZM106.317 428.354V441.13H101.973V428.354H106.317ZM114.264 441.385C112.987 441.385 111.794 441.181 110.687 440.772C109.597 440.346 108.694 439.742 107.978 438.958L110.023 436.556C110.449 437.101 111.011 437.561 111.709 437.936C112.425 438.294 113.217 438.472 114.086 438.472C114.614 438.472 115.048 438.396 115.389 438.243C115.729 438.089 115.9 437.851 115.9 437.527C115.9 437.289 115.815 437.101 115.644 436.965C115.474 436.812 115.133 436.684 114.622 436.582L112.833 436.224C111.232 435.9 110.091 435.423 109.409 434.793C108.745 434.146 108.413 433.302 108.413 432.263C108.413 431.565 108.626 430.9 109.052 430.27C109.478 429.623 110.133 429.103 111.019 428.711C111.905 428.303 113.038 428.098 114.418 428.098C115.712 428.098 116.854 428.286 117.842 428.66C118.83 429.035 119.613 429.58 120.193 430.296L118.123 432.646C117.714 432.135 117.186 431.735 116.539 431.446C115.891 431.156 115.244 431.011 114.597 431.011C114.188 431.011 113.839 431.054 113.549 431.139C113.276 431.207 113.072 431.309 112.936 431.446C112.799 431.582 112.731 431.752 112.731 431.957C112.731 432.178 112.833 432.374 113.038 432.544C113.259 432.698 113.66 432.834 114.239 432.953L116.564 433.413C117.876 433.652 118.821 434.086 119.4 434.716C119.98 435.347 120.269 436.105 120.269 436.99C120.269 437.825 120.048 438.575 119.605 439.239C119.162 439.903 118.498 440.432 117.612 440.823C116.726 441.198 115.61 441.385 114.264 441.385ZM127.993 428.098C129.288 428.098 130.361 428.286 131.213 428.66C132.082 429.018 132.754 429.504 133.231 430.117C133.725 430.713 134.032 431.36 134.151 432.059L130.14 433.388C130.02 432.655 129.799 432.11 129.475 431.752C129.169 431.377 128.717 431.19 128.121 431.19C127.576 431.19 127.116 431.318 126.741 431.573C126.383 431.812 126.111 432.204 125.923 432.749C125.736 433.277 125.642 433.958 125.642 434.793C125.642 435.628 125.744 436.309 125.949 436.837C126.153 437.348 126.443 437.723 126.818 437.961C127.192 438.183 127.635 438.294 128.146 438.294C128.572 438.294 128.922 438.217 129.194 438.064C129.484 437.893 129.722 437.655 129.91 437.348C130.097 437.042 130.216 436.667 130.267 436.224L134.177 437.476C134.058 438.225 133.734 438.898 133.206 439.495C132.695 440.074 132.013 440.534 131.162 440.874C130.31 441.215 129.313 441.385 128.172 441.385C126.775 441.385 125.557 441.13 124.518 440.619C123.479 440.091 122.678 439.333 122.116 438.345C121.554 437.34 121.273 436.139 121.273 434.742C121.273 433.345 121.554 432.152 122.116 431.164C122.678 430.159 123.462 429.401 124.467 428.89C125.489 428.362 126.664 428.098 127.993 428.098ZM142.006 428.098C143.351 428.098 144.527 428.362 145.532 428.89C146.554 429.401 147.346 430.159 147.908 431.164C148.488 432.152 148.777 433.345 148.777 434.742C148.777 436.139 148.488 437.34 147.908 438.345C147.346 439.333 146.554 440.091 145.532 440.619C144.527 441.13 143.351 441.385 142.006 441.385C140.694 441.385 139.527 441.13 138.505 440.619C137.483 440.091 136.682 439.333 136.103 438.345C135.541 437.34 135.26 436.139 135.26 434.742C135.26 433.345 135.541 432.152 136.103 431.164C136.682 430.159 137.483 429.401 138.505 428.89C139.527 428.362 140.694 428.098 142.006 428.098ZM142.006 431.19C141.512 431.19 141.086 431.309 140.728 431.548C140.37 431.786 140.098 432.17 139.91 432.698C139.723 433.226 139.629 433.907 139.629 434.742C139.629 435.577 139.723 436.258 139.91 436.786C140.098 437.297 140.37 437.68 140.728 437.936C141.086 438.174 141.512 438.294 142.006 438.294C142.517 438.294 142.951 438.174 143.309 437.936C143.667 437.68 143.939 437.297 144.127 436.786C144.314 436.258 144.408 435.577 144.408 434.742C144.408 433.907 144.314 433.226 144.127 432.698C143.939 432.17 143.667 431.786 143.309 431.548C142.951 431.309 142.517 431.19 142.006 431.19ZM158.79 428.354H163.287L158.688 441.13H153.5L148.901 428.354H153.475L156.107 438.089L158.79 428.354ZM170.308 441.385C168.894 441.385 167.667 441.121 166.628 440.593C165.606 440.065 164.814 439.307 164.252 438.319C163.69 437.331 163.409 436.139 163.409 434.742C163.409 433.345 163.69 432.152 164.252 431.164C164.814 430.176 165.598 429.418 166.603 428.89C167.625 428.362 168.792 428.098 170.103 428.098C171.449 428.098 172.591 428.362 173.527 428.89C174.481 429.401 175.205 430.117 175.699 431.037C176.193 431.94 176.44 432.979 176.44 434.154C176.44 434.461 176.432 434.767 176.415 435.074C176.398 435.381 176.372 435.636 176.338 435.841H166.219V433.515H174.422L172.352 434.307C172.352 433.285 172.165 432.502 171.79 431.957C171.432 431.411 170.87 431.139 170.103 431.139C169.558 431.139 169.09 431.267 168.698 431.522C168.323 431.778 168.034 432.178 167.829 432.723C167.642 433.268 167.548 433.967 167.548 434.818C167.548 435.653 167.659 436.335 167.88 436.863C168.102 437.374 168.417 437.748 168.826 437.987C169.235 438.208 169.729 438.319 170.308 438.319C170.955 438.319 171.466 438.191 171.841 437.936C172.233 437.68 172.522 437.323 172.71 436.863L176.185 438.013C175.946 438.745 175.529 439.367 174.933 439.878C174.354 440.372 173.655 440.747 172.838 441.002C172.037 441.258 171.194 441.385 170.308 441.385ZM178.359 441.13V428.354H182.192L182.371 431.113C182.695 430.159 183.172 429.418 183.802 428.89C184.45 428.362 185.267 428.098 186.255 428.098C186.579 428.098 186.851 428.124 187.073 428.175C187.311 428.226 187.499 428.294 187.635 428.379L187.201 431.957C187.03 431.888 186.809 431.837 186.536 431.803C186.281 431.752 185.966 431.727 185.591 431.727C185.08 431.727 184.603 431.837 184.16 432.059C183.717 432.28 183.359 432.612 183.087 433.055C182.831 433.481 182.703 434.026 182.703 434.691V441.13H178.359ZM195.229 441.13V428.354H199.062L199.241 431.113C199.565 430.159 200.042 429.418 200.672 428.89C201.319 428.362 202.137 428.098 203.125 428.098C203.449 428.098 203.721 428.124 203.943 428.175C204.181 428.226 204.368 428.294 204.505 428.379L204.07 431.957C203.9 431.888 203.679 431.837 203.406 431.803C203.15 431.752 202.835 431.727 202.461 431.727C201.95 431.727 201.473 431.837 201.03 432.059C200.587 432.28 200.229 432.612 199.956 433.055C199.701 433.481 199.573 434.026 199.573 434.691V441.13H195.229ZM211.783 441.385C210.369 441.385 209.142 441.121 208.103 440.593C207.081 440.065 206.289 439.307 205.727 438.319C205.165 437.331 204.884 436.139 204.884 434.742C204.884 433.345 205.165 432.152 205.727 431.164C206.289 430.176 207.073 429.418 208.078 428.89C209.1 428.362 210.267 428.098 211.578 428.098C212.924 428.098 214.066 428.362 215.002 428.89C215.956 429.401 216.68 430.117 217.174 431.037C217.668 431.94 217.915 432.979 217.915 434.154C217.915 434.461 217.907 434.767 217.89 435.074C217.873 435.381 217.847 435.636 217.813 435.841H207.694V433.515H215.897L213.827 434.307C213.827 433.285 213.64 432.502 213.265 431.957C212.907 431.411 212.345 431.139 211.578 431.139C211.033 431.139 210.565 431.267 210.173 431.522C209.798 431.778 209.509 432.178 209.304 432.723C209.117 433.268 209.023 433.967 209.023 434.818C209.023 435.653 209.134 436.335 209.355 436.863C209.577 437.374 209.892 437.748 210.301 437.987C210.71 438.208 211.204 438.319 211.783 438.319C212.43 438.319 212.941 438.191 213.316 437.936C213.708 437.68 213.997 437.323 214.185 436.863L217.66 438.013C217.421 438.745 217.004 439.367 216.408 439.878C215.829 440.372 215.13 440.747 214.313 441.002C213.512 441.258 212.669 441.385 211.783 441.385ZM225.201 441.385C223.923 441.385 222.73 441.181 221.623 440.772C220.533 440.346 219.63 439.742 218.915 438.958L220.959 436.556C221.385 437.101 221.947 437.561 222.645 437.936C223.361 438.294 224.153 438.472 225.022 438.472C225.55 438.472 225.984 438.396 226.325 438.243C226.666 438.089 226.836 437.851 226.836 437.527C226.836 437.289 226.751 437.101 226.58 436.965C226.41 436.812 226.069 436.684 225.558 436.582L223.77 436.224C222.168 435.9 221.027 435.423 220.346 434.793C219.681 434.146 219.349 433.302 219.349 432.263C219.349 431.565 219.562 430.9 219.988 430.27C220.414 429.623 221.07 429.103 221.955 428.711C222.841 428.303 223.974 428.098 225.354 428.098C226.649 428.098 227.79 428.286 228.778 428.66C229.766 429.035 230.55 429.58 231.129 430.296L229.059 432.646C228.65 432.135 228.122 431.735 227.475 431.446C226.827 431.156 226.18 431.011 225.533 431.011C225.124 431.011 224.775 431.054 224.485 431.139C224.213 431.207 224.008 431.309 223.872 431.446C223.736 431.582 223.667 431.752 223.667 431.957C223.667 432.178 223.77 432.374 223.974 432.544C224.196 432.698 224.596 432.834 225.175 432.953L227.5 433.413C228.812 433.652 229.757 434.086 230.337 434.716C230.916 435.347 231.205 436.105 231.205 436.99C231.205 437.825 230.984 438.575 230.541 439.239C230.098 439.903 229.434 440.432 228.548 440.823C227.662 441.198 226.546 441.385 225.201 441.385ZM238.955 428.098C240.301 428.098 241.476 428.362 242.481 428.89C243.503 429.401 244.295 430.159 244.857 431.164C245.437 432.152 245.726 433.345 245.726 434.742C245.726 436.139 245.437 437.34 244.857 438.345C244.295 439.333 243.503 440.091 242.481 440.619C241.476 441.13 240.301 441.385 238.955 441.385C237.643 441.385 236.476 441.13 235.454 440.619C234.432 440.091 233.631 439.333 233.052 438.345C232.49 437.34 232.209 436.139 232.209 434.742C232.209 433.345 232.49 432.152 233.052 431.164C233.631 430.159 234.432 429.401 235.454 428.89C236.476 428.362 237.643 428.098 238.955 428.098ZM238.955 431.19C238.461 431.19 238.035 431.309 237.677 431.548C237.319 431.786 237.047 432.17 236.86 432.698C236.672 433.226 236.578 433.907 236.578 434.742C236.578 435.577 236.672 436.258 236.86 436.786C237.047 437.297 237.319 437.68 237.677 437.936C238.035 438.174 238.461 438.294 238.955 438.294C239.466 438.294 239.9 438.174 240.258 437.936C240.616 437.68 240.888 437.297 241.076 436.786C241.263 436.258 241.357 435.577 241.357 434.742C241.357 433.907 241.263 433.226 241.076 432.698C240.888 432.17 240.616 431.786 240.258 431.548C239.9 431.309 239.466 431.19 238.955 431.19ZM251.977 441.385C251.108 441.385 250.342 441.241 249.678 440.951C249.03 440.644 248.519 440.159 248.144 439.495C247.77 438.83 247.582 437.961 247.582 436.888V428.354H251.926V435.866C251.926 436.684 252.088 437.254 252.412 437.578C252.735 437.902 253.195 438.064 253.792 438.064C254.098 438.064 254.388 438.013 254.66 437.91C254.933 437.791 255.171 437.621 255.376 437.399C255.58 437.161 255.734 436.863 255.836 436.505C255.955 436.13 256.015 435.696 256.015 435.202V428.354H260.359V441.13H256.475L256.347 438.728C255.938 439.631 255.367 440.304 254.635 440.747C253.902 441.173 253.016 441.385 251.977 441.385ZM262.968 441.13V428.354H266.801L266.98 431.113C267.304 430.159 267.781 429.418 268.411 428.89C269.059 428.362 269.876 428.098 270.864 428.098C271.188 428.098 271.46 428.124 271.682 428.175C271.92 428.226 272.108 428.294 272.244 428.379L271.81 431.957C271.639 431.888 271.418 431.837 271.145 431.803C270.89 431.752 270.575 431.727 270.2 431.727C269.689 431.727 269.212 431.837 268.769 432.059C268.326 432.28 267.968 432.612 267.696 433.055C267.44 433.481 267.312 434.026 267.312 434.691V441.13H262.968ZM279.343 428.098C280.638 428.098 281.711 428.286 282.563 428.66C283.432 429.018 284.105 429.504 284.582 430.117C285.076 430.713 285.382 431.36 285.501 432.059L281.49 433.388C281.37 432.655 281.149 432.11 280.825 431.752C280.519 431.377 280.067 431.19 279.471 431.19C278.926 431.19 278.466 431.318 278.091 431.573C277.733 431.812 277.461 432.204 277.274 432.749C277.086 433.277 276.992 433.958 276.992 434.793C276.992 435.628 277.095 436.309 277.299 436.837C277.504 437.348 277.793 437.723 278.168 437.961C278.543 438.183 278.986 438.294 279.497 438.294C279.922 438.294 280.272 438.217 280.544 438.064C280.834 437.893 281.072 437.655 281.26 437.348C281.447 437.042 281.566 436.667 281.617 436.224L285.527 437.476C285.408 438.225 285.084 438.898 284.556 439.495C284.045 440.074 283.364 440.534 282.512 440.874C281.66 441.215 280.664 441.385 279.522 441.385C278.125 441.385 276.907 441.13 275.868 440.619C274.829 440.091 274.028 439.333 273.466 438.345C272.904 437.34 272.623 436.139 272.623 434.742C272.623 433.345 272.904 432.152 273.466 431.164C274.028 430.159 274.812 429.401 275.817 428.89C276.839 428.362 278.015 428.098 279.343 428.098ZM293.509 441.385C292.095 441.385 290.869 441.121 289.83 440.593C288.808 440.065 288.015 439.307 287.453 438.319C286.891 437.331 286.61 436.139 286.61 434.742C286.61 433.345 286.891 432.152 287.453 431.164C288.015 430.176 288.799 429.418 289.804 428.89C290.826 428.362 291.993 428.098 293.305 428.098C294.651 428.098 295.792 428.362 296.729 428.89C297.683 429.401 298.407 430.117 298.901 431.037C299.395 431.94 299.642 432.979 299.642 434.154C299.642 434.461 299.633 434.767 299.616 435.074C299.599 435.381 299.574 435.636 299.54 435.841H289.421V433.515H297.623L295.553 434.307C295.553 433.285 295.366 432.502 294.991 431.957C294.634 431.411 294.071 431.139 293.305 431.139C292.76 431.139 292.291 431.267 291.899 431.522C291.525 431.778 291.235 432.178 291.031 432.723C290.843 433.268 290.75 433.967 290.75 434.818C290.75 435.653 290.86 436.335 291.082 436.863C291.303 437.374 291.618 437.748 292.027 437.987C292.436 438.208 292.93 438.319 293.509 438.319C294.157 438.319 294.668 438.191 295.042 437.936C295.434 437.68 295.724 437.323 295.911 436.863L299.386 438.013C299.148 438.745 298.73 439.367 298.134 439.878C297.555 440.372 296.857 440.747 296.039 441.002C295.238 441.258 294.395 441.385 293.509 441.385ZM306.927 441.385C305.649 441.385 304.457 441.181 303.35 440.772C302.259 440.346 301.356 439.742 300.641 438.958L302.685 436.556C303.111 437.101 303.673 437.561 304.372 437.936C305.087 438.294 305.879 438.472 306.748 438.472C307.276 438.472 307.711 438.396 308.051 438.243C308.392 438.089 308.562 437.851 308.562 437.527C308.562 437.289 308.477 437.101 308.307 436.965C308.136 436.812 307.796 436.684 307.285 436.582L305.496 436.224C303.895 435.9 302.753 435.423 302.072 434.793C301.408 434.146 301.075 433.302 301.075 432.263C301.075 431.565 301.288 430.9 301.714 430.27C302.14 429.623 302.796 429.103 303.682 428.711C304.568 428.303 305.7 428.098 307.08 428.098C308.375 428.098 309.516 428.286 310.504 428.66C311.492 429.035 312.276 429.58 312.855 430.296L310.785 432.646C310.377 432.135 309.848 431.735 309.201 431.446C308.554 431.156 307.906 431.011 307.259 431.011C306.85 431.011 306.501 431.054 306.211 431.139C305.939 431.207 305.734 431.309 305.598 431.446C305.462 431.582 305.394 431.752 305.394 431.957C305.394 432.178 305.496 432.374 305.7 432.544C305.922 432.698 306.322 432.834 306.901 432.953L309.227 433.413C310.538 433.652 311.484 434.086 312.063 434.716C312.642 435.347 312.932 436.105 312.932 436.99C312.932 437.825 312.71 438.575 312.267 439.239C311.824 439.903 311.16 440.432 310.274 440.823C309.388 441.198 308.273 441.385 306.927 441.385ZM91.3224 463.03C91.3224 462.434 91.152 461.965 90.8113 461.624C90.4877 461.267 90.0447 461.088 89.4826 461.088C88.9204 461.088 88.4349 461.233 88.0261 461.522C87.6343 461.795 87.3617 462.289 87.2084 463.004L83.5288 462.135C83.7673 460.909 84.3976 459.929 85.4197 459.197C86.4418 458.464 87.8813 458.098 89.7381 458.098C90.9817 458.098 92.0378 458.286 92.9066 458.66C93.7925 459.018 94.4653 459.563 94.9253 460.296C95.4023 461.011 95.6408 461.897 95.6408 462.953V467.629C95.6408 468.294 95.9389 468.626 96.5351 468.626C96.8417 468.626 97.0887 468.592 97.2761 468.524L97.0206 471.002C96.5095 471.241 95.8878 471.36 95.1553 471.36C94.4909 471.36 93.9032 471.258 93.3921 471.053C92.8811 470.832 92.4808 470.508 92.1912 470.082C91.9016 469.639 91.7568 469.086 91.7568 468.421V468.268L92.2423 468.089C92.2423 468.822 92.0208 469.435 91.5779 469.929C91.152 470.423 90.5899 470.789 89.8914 471.028C89.21 471.266 88.4946 471.385 87.745 471.385C86.8762 471.385 86.1182 471.249 85.4708 470.977C84.8235 470.704 84.321 470.312 83.9632 469.801C83.6225 469.273 83.4522 468.626 83.4522 467.859C83.4522 466.939 83.7247 466.181 84.2699 465.585C84.832 464.972 85.7093 464.546 86.9018 464.307L91.7312 463.311L91.7057 465.611L89.2526 466.122C88.7416 466.224 88.3583 466.377 88.1027 466.582C87.8643 466.769 87.745 467.059 87.745 467.45C87.745 467.825 87.8813 468.106 88.1539 468.294C88.4264 468.481 88.7501 468.575 89.1248 468.575C89.4144 468.575 89.687 468.532 89.9425 468.447C90.2151 468.362 90.4536 468.234 90.658 468.064C90.8624 467.876 91.0243 467.646 91.1435 467.374C91.2627 467.101 91.3224 466.777 91.3224 466.403V463.03ZM98.4797 471.13V458.354H102.364L102.594 462.749L102.108 462.263C102.279 461.343 102.577 460.577 103.002 459.963C103.445 459.35 103.991 458.89 104.638 458.584C105.302 458.26 106.043 458.098 106.861 458.098C107.747 458.098 108.513 458.268 109.161 458.609C109.825 458.95 110.345 459.452 110.719 460.117C111.094 460.781 111.282 461.616 111.282 462.621V471.13H106.938V463.771C106.938 462.885 106.767 462.272 106.427 461.931C106.086 461.59 105.651 461.42 105.123 461.42C104.715 461.42 104.331 461.522 103.973 461.727C103.616 461.914 103.335 462.221 103.13 462.646C102.926 463.072 102.824 463.643 102.824 464.359V471.13H98.4797ZM118.516 471.385C117.46 471.385 116.531 471.13 115.731 470.619C114.947 470.091 114.334 469.333 113.891 468.345C113.465 467.357 113.252 466.173 113.252 464.793C113.252 463.362 113.474 462.152 113.916 461.164C114.376 460.176 115.007 459.418 115.807 458.89C116.625 458.362 117.562 458.098 118.618 458.098C119.777 458.098 120.705 458.456 121.403 459.171C122.119 459.87 122.579 460.764 122.783 461.854L122.374 462.391V452.937H126.718V471.13H122.834L122.553 466.786L123.064 467.169C122.962 468.021 122.698 468.762 122.272 469.392C121.863 470.023 121.335 470.517 120.688 470.874C120.058 471.215 119.334 471.385 118.516 471.385ZM120.024 468.191C120.518 468.191 120.935 468.064 121.276 467.808C121.633 467.536 121.906 467.135 122.093 466.607C122.281 466.079 122.374 465.432 122.374 464.665C122.374 463.95 122.281 463.345 122.093 462.851C121.923 462.34 121.659 461.957 121.301 461.701C120.96 461.428 120.543 461.292 120.049 461.292C119.3 461.292 118.703 461.573 118.26 462.135C117.835 462.681 117.622 463.549 117.622 464.742C117.622 465.934 117.835 466.812 118.26 467.374C118.686 467.919 119.274 468.191 120.024 468.191ZM141.49 471.385C140.212 471.385 139.02 471.181 137.913 470.772C136.822 470.346 135.919 469.742 135.204 468.958L137.248 466.556C137.674 467.101 138.236 467.561 138.935 467.936C139.65 468.294 140.442 468.472 141.311 468.472C141.839 468.472 142.274 468.396 142.614 468.243C142.955 468.089 143.125 467.851 143.125 467.527C143.125 467.289 143.04 467.101 142.87 466.965C142.699 466.812 142.359 466.684 141.848 466.582L140.059 466.224C138.458 465.9 137.316 465.423 136.635 464.793C135.971 464.146 135.638 463.302 135.638 462.263C135.638 461.565 135.851 460.9 136.277 460.27C136.703 459.623 137.359 459.103 138.245 458.711C139.131 458.303 140.263 458.098 141.643 458.098C142.938 458.098 144.079 458.286 145.067 458.66C146.055 459.035 146.839 459.58 147.418 460.296L145.348 462.646C144.939 462.135 144.411 461.735 143.764 461.446C143.117 461.156 142.469 461.011 141.822 461.011C141.413 461.011 141.064 461.054 140.774 461.139C140.502 461.207 140.297 461.309 140.161 461.446C140.025 461.582 139.957 461.752 139.957 461.957C139.957 462.178 140.059 462.374 140.263 462.544C140.485 462.698 140.885 462.834 141.464 462.953L143.79 463.413C145.101 463.652 146.047 464.086 146.626 464.716C147.205 465.347 147.495 466.105 147.495 466.99C147.495 467.825 147.273 468.575 146.83 469.239C146.387 469.903 145.723 470.432 144.837 470.823C143.951 471.198 142.836 471.385 141.49 471.385ZM153.556 471.385C152.687 471.385 151.921 471.241 151.256 470.951C150.609 470.644 150.098 470.159 149.723 469.495C149.348 468.83 149.161 467.961 149.161 466.888V458.354H153.505V465.866C153.505 466.684 153.667 467.254 153.99 467.578C154.314 467.902 154.774 468.064 155.37 468.064C155.677 468.064 155.966 468.013 156.239 467.91C156.511 467.791 156.75 467.621 156.954 467.399C157.159 467.161 157.312 466.863 157.414 466.505C157.534 466.13 157.593 465.696 157.593 465.202V458.354H161.937V471.13H158.053L157.925 468.728C157.517 469.631 156.946 470.304 156.213 470.747C155.481 471.173 154.595 471.385 153.556 471.385ZM164.547 476.496V458.354H168.457L168.687 462.979L168.176 462.442C168.295 461.59 168.559 460.841 168.968 460.193C169.377 459.546 169.905 459.035 170.552 458.66C171.199 458.286 171.94 458.098 172.775 458.098C173.831 458.098 174.751 458.362 175.535 458.89C176.318 459.401 176.923 460.151 177.349 461.139C177.792 462.11 178.013 463.294 178.013 464.691C178.013 466.088 177.792 467.289 177.349 468.294C176.906 469.299 176.284 470.065 175.484 470.593C174.7 471.121 173.78 471.385 172.724 471.385C171.566 471.385 170.629 471.045 169.913 470.363C169.198 469.665 168.721 468.788 168.482 467.731L168.891 467.118V476.496H164.547ZM171.242 468.191C171.991 468.191 172.579 467.919 173.005 467.374C173.431 466.812 173.644 465.934 173.644 464.742C173.644 463.549 173.431 462.681 173.005 462.135C172.596 461.573 172.017 461.292 171.267 461.292C170.79 461.292 170.373 461.428 170.015 461.701C169.658 461.957 169.377 462.34 169.172 462.851C168.985 463.362 168.891 463.992 168.891 464.742C168.891 465.457 168.976 466.079 169.147 466.607C169.334 467.118 169.607 467.51 169.964 467.783C170.322 468.055 170.748 468.191 171.242 468.191ZM180.056 476.496V458.354H183.966L184.196 462.979L183.685 462.442C183.804 461.59 184.068 460.841 184.477 460.193C184.886 459.546 185.414 459.035 186.061 458.66C186.709 458.286 187.45 458.098 188.284 458.098C189.34 458.098 190.26 458.362 191.044 458.89C191.828 459.401 192.432 460.151 192.858 461.139C193.301 462.11 193.523 463.294 193.523 464.691C193.523 466.088 193.301 467.289 192.858 468.294C192.415 469.299 191.793 470.065 190.993 470.593C190.209 471.121 189.289 471.385 188.233 471.385C187.075 471.385 186.138 471.045 185.422 470.363C184.707 469.665 184.23 468.788 183.991 467.731L184.4 467.118V476.496H180.056ZM186.751 468.191C187.501 468.191 188.088 467.919 188.514 467.374C188.94 466.812 189.153 465.934 189.153 464.742C189.153 463.549 188.94 462.681 188.514 462.135C188.105 461.573 187.526 461.292 186.777 461.292C186.3 461.292 185.882 461.428 185.525 461.701C185.167 461.957 184.886 462.34 184.681 462.851C184.494 463.362 184.4 463.992 184.4 464.742C184.4 465.457 184.485 466.079 184.656 466.607C184.843 467.118 185.116 467.51 185.473 467.783C185.831 468.055 186.257 468.191 186.751 468.191ZM201.647 458.098C202.993 458.098 204.168 458.362 205.173 458.89C206.195 459.401 206.988 460.159 207.55 461.164C208.129 462.152 208.419 463.345 208.419 464.742C208.419 466.139 208.129 467.34 207.55 468.345C206.988 469.333 206.195 470.091 205.173 470.619C204.168 471.13 202.993 471.385 201.647 471.385C200.335 471.385 199.168 471.13 198.146 470.619C197.124 470.091 196.324 469.333 195.744 468.345C195.182 467.34 194.901 466.139 194.901 464.742C194.901 463.345 195.182 462.152 195.744 461.164C196.324 460.159 197.124 459.401 198.146 458.89C199.168 458.362 200.335 458.098 201.647 458.098ZM201.647 461.19C201.153 461.19 200.727 461.309 200.369 461.548C200.012 461.786 199.739 462.17 199.552 462.698C199.364 463.226 199.271 463.907 199.271 464.742C199.271 465.577 199.364 466.258 199.552 466.786C199.739 467.297 200.012 467.68 200.369 467.936C200.727 468.174 201.153 468.294 201.647 468.294C202.158 468.294 202.593 468.174 202.95 467.936C203.308 467.68 203.581 467.297 203.768 466.786C203.955 466.258 204.049 465.577 204.049 464.742C204.049 463.907 203.955 463.226 203.768 462.698C203.581 462.17 203.308 461.786 202.95 461.548C202.593 461.309 202.158 461.19 201.647 461.19ZM210.351 471.13V458.354H214.184L214.363 461.113C214.687 460.159 215.164 459.418 215.794 458.89C216.441 458.362 217.259 458.098 218.247 458.098C218.571 458.098 218.843 458.124 219.065 458.175C219.303 458.226 219.49 458.294 219.627 458.379L219.192 461.957C219.022 461.888 218.801 461.837 218.528 461.803C218.272 461.752 217.957 461.727 217.583 461.727C217.071 461.727 216.594 461.837 216.152 462.059C215.709 462.28 215.351 462.612 215.078 463.055C214.823 463.481 214.695 464.026 214.695 464.691V471.13H210.351ZM225.836 454.291V466.582C225.836 467.195 225.981 467.638 226.27 467.91C226.577 468.166 226.994 468.294 227.522 468.294C227.931 468.294 228.28 468.251 228.57 468.166C228.877 468.064 229.149 467.919 229.388 467.731L229.848 470.414C229.422 470.721 228.885 470.96 228.238 471.13C227.59 471.3 226.926 471.385 226.245 471.385C225.274 471.385 224.43 471.249 223.715 470.977C223.016 470.704 222.471 470.27 222.08 469.673C221.705 469.077 221.509 468.285 221.492 467.297V455.492L225.836 454.291ZM229.643 458.354V461.446H219.294V458.354H229.643ZM233.435 466.735C234.235 466.735 234.857 466.939 235.3 467.348C235.76 467.757 235.99 468.328 235.99 469.06C235.99 469.776 235.76 470.338 235.3 470.747C234.857 471.155 234.235 471.36 233.435 471.36C232.651 471.36 232.029 471.155 231.569 470.747C231.109 470.338 230.879 469.776 230.879 469.06C230.879 468.328 231.109 467.757 231.569 467.348C232.029 466.939 232.651 466.735 233.435 466.735Z" fill="black"/>
<path d="M90.3454 501.129H85.1777V504.01H89.209V505.025H85.1777V509.042H84.0955V500.114H90.3454V501.129ZM92.4199 500.98C92.1764 500.98 91.978 500.908 91.8247 500.763C91.6804 500.61 91.6082 500.412 91.6082 500.168C91.6082 499.925 91.6804 499.731 91.8247 499.586C91.978 499.433 92.1764 499.356 92.4199 499.356C92.6634 499.356 92.8573 499.433 93.0016 499.586C93.1549 499.731 93.2315 499.925 93.2315 500.168C93.2315 500.412 93.1549 500.61 93.0016 500.763C92.8573 500.908 92.6634 500.98 92.4199 500.98ZM92.961 502.278V509.042H91.8788V502.278H92.961ZM95.2015 509.042V502.278H96.1485L96.2432 503.794L96.0673 503.645C96.2116 503.284 96.4055 502.995 96.649 502.779C96.8925 502.554 97.1721 502.391 97.4877 502.292C97.8124 502.193 98.1461 502.143 98.4888 502.143C98.9758 502.143 99.4177 502.238 99.8145 502.427C100.211 502.608 100.527 502.887 100.761 503.266C101.005 503.645 101.127 504.127 101.127 504.713V509.042H100.045V505.092C100.045 504.344 99.8822 503.825 99.5575 503.537C99.2419 503.239 98.8495 503.09 98.3806 503.09C98.0559 503.09 97.7312 503.167 97.4066 503.32C97.0819 503.473 96.8114 503.721 96.5949 504.064C96.3875 504.407 96.2838 504.867 96.2838 505.444V509.042H95.2015ZM107.257 504.673C107.257 504.168 107.121 503.78 106.851 503.509C106.58 503.23 106.197 503.09 105.701 503.09C105.232 503.09 104.835 503.194 104.511 503.401C104.186 503.6 103.947 503.924 103.794 504.375L102.914 503.834C103.095 503.329 103.428 502.923 103.915 502.617C104.402 502.301 105.007 502.143 105.728 502.143C106.215 502.143 106.657 502.229 107.054 502.4C107.451 502.563 107.762 502.815 107.987 503.158C108.222 503.491 108.339 503.924 108.339 504.456V507.73C108.339 508.055 108.51 508.217 108.853 508.217C109.024 508.217 109.191 508.195 109.354 508.15L109.299 509.002C109.119 509.092 108.885 509.137 108.596 509.137C108.334 509.137 108.1 509.087 107.893 508.988C107.685 508.889 107.523 508.74 107.406 508.542C107.288 508.334 107.23 508.077 107.23 507.771V507.635L107.5 507.676C107.392 508.028 107.207 508.316 106.946 508.542C106.684 508.758 106.391 508.921 106.066 509.029C105.742 509.128 105.421 509.178 105.106 509.178C104.709 509.178 104.339 509.11 103.997 508.975C103.654 508.839 103.379 508.637 103.171 508.366C102.973 508.086 102.874 507.744 102.874 507.338C102.874 506.833 103.041 506.418 103.374 506.093C103.717 505.76 104.19 505.534 104.795 505.417L107.473 504.889V505.782L105.295 506.229C104.853 506.319 104.524 506.445 104.308 506.607C104.091 506.77 103.983 506.995 103.983 507.284C103.983 507.563 104.091 507.793 104.308 507.974C104.533 508.145 104.849 508.231 105.255 508.231C105.516 508.231 105.764 508.199 105.999 508.136C106.242 508.064 106.459 507.96 106.648 507.825C106.837 507.681 106.986 507.505 107.094 507.297C107.203 507.081 107.257 506.828 107.257 506.54V504.673ZM110.698 509.042V502.278H111.645L111.74 503.794L111.564 503.645C111.708 503.284 111.902 502.995 112.146 502.779C112.389 502.554 112.669 502.391 112.985 502.292C113.309 502.193 113.643 502.143 113.986 502.143C114.473 502.143 114.914 502.238 115.311 502.427C115.708 502.608 116.024 502.887 116.258 503.266C116.502 503.645 116.624 504.127 116.624 504.713V509.042H115.541V505.092C115.541 504.344 115.379 503.825 115.054 503.537C114.739 503.239 114.346 503.09 113.877 503.09C113.553 503.09 113.228 503.167 112.903 503.32C112.579 503.473 112.308 503.721 112.092 504.064C111.884 504.407 111.781 504.867 111.781 505.444V509.042H110.698ZM121.604 502.143C122.073 502.143 122.483 502.215 122.835 502.36C123.195 502.504 123.507 502.711 123.768 502.982C124.03 503.252 124.242 503.573 124.404 503.942L123.376 504.429C123.232 503.996 123.011 503.667 122.713 503.442C122.424 503.207 122.046 503.09 121.577 503.09C121.126 503.09 120.738 503.194 120.413 503.401C120.089 503.6 119.841 503.893 119.669 504.281C119.498 504.659 119.412 505.119 119.412 505.66C119.412 506.192 119.498 506.652 119.669 507.04C119.841 507.428 120.089 507.726 120.413 507.933C120.738 508.131 121.126 508.231 121.577 508.231C121.928 508.231 122.23 508.177 122.483 508.068C122.745 507.96 122.956 507.802 123.119 507.595C123.29 507.387 123.407 507.135 123.47 506.837L124.472 507.189C124.318 507.604 124.106 507.96 123.836 508.258C123.574 508.555 123.254 508.785 122.875 508.948C122.506 509.101 122.082 509.178 121.604 509.178C120.972 509.178 120.409 509.038 119.913 508.758C119.417 508.479 119.029 508.077 118.749 507.554C118.47 507.022 118.33 506.391 118.33 505.66C118.33 504.93 118.47 504.303 118.749 503.78C119.029 503.248 119.417 502.842 119.913 502.563C120.409 502.283 120.972 502.143 121.604 502.143ZM126.644 500.98C126.4 500.98 126.202 500.908 126.049 500.763C125.904 500.61 125.832 500.412 125.832 500.168C125.832 499.925 125.904 499.731 126.049 499.586C126.202 499.433 126.4 499.356 126.644 499.356C126.887 499.356 127.081 499.433 127.225 499.586C127.379 499.731 127.455 499.925 127.455 500.168C127.455 500.412 127.379 500.61 127.225 500.763C127.081 500.908 126.887 500.98 126.644 500.98ZM127.185 502.278V509.042H126.103V502.278H127.185ZM133.376 504.673C133.376 504.168 133.24 503.78 132.97 503.509C132.699 503.23 132.316 503.09 131.82 503.09C131.351 503.09 130.954 503.194 130.629 503.401C130.305 503.6 130.066 503.924 129.912 504.375L129.033 503.834C129.213 503.329 129.547 502.923 130.034 502.617C130.521 502.301 131.125 502.143 131.847 502.143C132.334 502.143 132.776 502.229 133.173 502.4C133.569 502.563 133.881 502.815 134.106 503.158C134.341 503.491 134.458 503.924 134.458 504.456V507.73C134.458 508.055 134.629 508.217 134.972 508.217C135.143 508.217 135.31 508.195 135.472 508.15L135.418 509.002C135.238 509.092 135.003 509.137 134.715 509.137C134.453 509.137 134.219 509.087 134.011 508.988C133.804 508.889 133.642 508.74 133.524 508.542C133.407 508.334 133.348 508.077 133.348 507.771V507.635L133.619 507.676C133.511 508.028 133.326 508.316 133.064 508.542C132.803 508.758 132.51 508.921 132.185 509.029C131.86 509.128 131.54 509.178 131.225 509.178C130.828 509.178 130.458 509.11 130.115 508.975C129.773 508.839 129.498 508.637 129.29 508.366C129.092 508.086 128.992 507.744 128.992 507.338C128.992 506.833 129.159 506.418 129.493 506.093C129.836 505.76 130.309 505.534 130.913 505.417L133.592 504.889V505.782L131.414 506.229C130.972 506.319 130.643 506.445 130.426 506.607C130.21 506.77 130.102 506.995 130.102 507.284C130.102 507.563 130.21 507.793 130.426 507.974C130.652 508.145 130.968 508.231 131.373 508.231C131.635 508.231 131.883 508.199 132.117 508.136C132.361 508.064 132.577 507.96 132.767 507.825C132.956 507.681 133.105 507.505 133.213 507.297C133.321 507.081 133.376 506.828 133.376 506.54V504.673ZM137.845 499.167V507.324C137.845 507.667 137.908 507.906 138.035 508.041C138.161 508.168 138.364 508.231 138.643 508.231C138.824 508.231 138.973 508.217 139.09 508.19C139.207 508.163 139.365 508.113 139.563 508.041L139.387 508.988C139.243 509.051 139.085 509.096 138.914 509.124C138.743 509.16 138.567 509.178 138.386 509.178C137.836 509.178 137.426 509.029 137.155 508.731C136.894 508.434 136.763 507.978 136.763 507.365V499.167H137.845ZM144.546 509.042V502.278H145.425L145.574 503.388C145.763 502.973 146.038 502.662 146.399 502.454C146.769 502.247 147.215 502.143 147.738 502.143C147.856 502.143 147.982 502.152 148.117 502.17C148.262 502.188 148.383 502.224 148.483 502.278L148.293 503.266C148.194 503.23 148.086 503.203 147.968 503.185C147.851 503.167 147.684 503.158 147.468 503.158C147.188 503.158 146.904 503.239 146.616 503.401C146.336 503.564 146.102 503.812 145.912 504.145C145.723 504.47 145.628 504.885 145.628 505.39V509.042H144.546ZM152.413 509.178C151.773 509.178 151.2 509.038 150.695 508.758C150.199 508.479 149.812 508.077 149.532 507.554C149.252 507.022 149.113 506.391 149.113 505.66C149.113 504.93 149.252 504.303 149.532 503.78C149.812 503.248 150.195 502.842 150.682 502.563C151.169 502.283 151.723 502.143 152.346 502.143C152.977 502.143 153.514 502.278 153.956 502.549C154.407 502.82 154.749 503.189 154.984 503.658C155.218 504.118 155.335 504.637 155.335 505.214C155.335 505.367 155.331 505.507 155.322 505.633C155.313 505.76 155.299 505.872 155.281 505.972H149.816V505.011H154.808L154.253 505.119C154.253 504.47 154.073 503.969 153.712 503.618C153.36 503.266 152.896 503.09 152.319 503.09C151.877 503.09 151.494 503.194 151.169 503.401C150.853 503.6 150.605 503.893 150.425 504.281C150.253 504.659 150.168 505.119 150.168 505.66C150.168 506.192 150.258 506.652 150.438 507.04C150.619 507.428 150.871 507.726 151.196 507.933C151.53 508.131 151.926 508.231 152.386 508.231C152.882 508.231 153.284 508.136 153.59 507.947C153.906 507.757 154.159 507.5 154.348 507.176L155.2 507.676C155.029 507.983 154.808 508.249 154.537 508.474C154.276 508.7 153.965 508.876 153.604 509.002C153.252 509.119 152.855 509.178 152.413 509.178ZM159.558 509.178C158.9 509.178 158.291 509.038 157.732 508.758C157.182 508.479 156.758 508.082 156.46 507.568L157.38 506.905C157.579 507.32 157.867 507.644 158.246 507.879C158.634 508.113 159.098 508.231 159.639 508.231C160.117 508.231 160.492 508.141 160.762 507.96C161.033 507.771 161.168 507.527 161.168 507.23C161.168 507.04 161.105 506.869 160.979 506.716C160.861 506.553 160.631 506.436 160.289 506.364L158.665 506.026C158.007 505.89 157.533 505.665 157.245 505.349C156.965 505.034 156.826 504.641 156.826 504.172C156.826 503.803 156.929 503.464 157.137 503.158C157.353 502.851 157.655 502.608 158.043 502.427C158.44 502.238 158.904 502.143 159.436 502.143C160.104 502.143 160.667 502.274 161.127 502.535C161.587 502.797 161.93 503.167 162.155 503.645L161.249 504.24C161.096 503.843 160.848 503.555 160.505 503.374C160.162 503.185 159.806 503.09 159.436 503.09C159.112 503.09 158.832 503.135 158.598 503.225C158.372 503.316 158.196 503.442 158.07 503.604C157.953 503.757 157.894 503.933 157.894 504.132C157.894 504.33 157.962 504.515 158.097 504.686C158.232 504.849 158.485 504.966 158.855 505.038L160.546 505.39C161.177 505.516 161.619 505.724 161.871 506.012C162.124 506.301 162.25 506.652 162.25 507.067C162.25 507.491 162.137 507.865 161.912 508.19C161.687 508.506 161.371 508.749 160.965 508.921C160.559 509.092 160.09 509.178 159.558 509.178ZM166.787 502.143C167.427 502.143 167.991 502.283 168.478 502.563C168.974 502.842 169.361 503.248 169.641 503.78C169.921 504.303 170.06 504.93 170.06 505.66C170.06 506.391 169.921 507.022 169.641 507.554C169.361 508.077 168.974 508.479 168.478 508.758C167.991 509.038 167.427 509.178 166.787 509.178C166.155 509.178 165.592 509.038 165.096 508.758C164.6 508.479 164.212 508.077 163.932 507.554C163.653 507.022 163.513 506.391 163.513 505.66C163.513 504.93 163.653 504.303 163.932 503.78C164.212 503.248 164.6 502.842 165.096 502.563C165.592 502.283 166.155 502.143 166.787 502.143ZM166.787 503.077C166.327 503.077 165.934 503.18 165.61 503.388C165.285 503.595 165.033 503.893 164.852 504.281C164.681 504.659 164.595 505.119 164.595 505.66C164.595 506.192 164.681 506.652 164.852 507.04C165.033 507.428 165.285 507.726 165.61 507.933C165.934 508.141 166.327 508.244 166.787 508.244C167.247 508.244 167.639 508.141 167.964 507.933C168.288 507.726 168.536 507.428 168.708 507.04C168.888 506.652 168.978 506.192 168.978 505.66C168.978 505.119 168.888 504.659 168.708 504.281C168.536 503.893 168.288 503.595 167.964 503.388C167.639 503.18 167.247 503.077 166.787 503.077ZM174.276 509.178C173.843 509.178 173.433 509.096 173.045 508.934C172.666 508.772 172.355 508.51 172.111 508.15C171.877 507.78 171.76 507.302 171.76 506.716V502.278H172.842V506.431C172.842 507.117 172.991 507.59 173.288 507.852C173.586 508.104 174.005 508.231 174.546 508.231C174.799 508.231 175.047 508.19 175.29 508.109C175.534 508.019 175.75 507.883 175.94 507.703C176.138 507.514 176.291 507.275 176.4 506.986C176.517 506.698 176.576 506.355 176.576 505.958V502.278H177.658V509.042H176.711L176.643 508.014C176.409 508.42 176.089 508.718 175.683 508.907C175.286 509.087 174.817 509.178 174.276 509.178ZM179.906 509.042V502.278H180.785L180.934 503.388C181.123 502.973 181.398 502.662 181.759 502.454C182.129 502.247 182.575 502.143 183.098 502.143C183.216 502.143 183.342 502.152 183.477 502.17C183.622 502.188 183.743 502.224 183.843 502.278L183.653 503.266C183.554 503.23 183.446 503.203 183.328 503.185C183.211 503.167 183.044 503.158 182.828 503.158C182.548 503.158 182.264 503.239 181.976 503.401C181.696 503.564 181.462 503.812 181.272 504.145C181.083 504.47 180.988 504.885 180.988 505.39V509.042H179.906ZM187.746 502.143C188.215 502.143 188.626 502.215 188.977 502.36C189.338 502.504 189.649 502.711 189.911 502.982C190.172 503.252 190.384 503.573 190.547 503.942L189.518 504.429C189.374 503.996 189.153 503.667 188.856 503.442C188.567 503.207 188.188 503.09 187.719 503.09C187.268 503.09 186.881 503.194 186.556 503.401C186.231 503.6 185.983 503.893 185.812 504.281C185.641 504.659 185.555 505.119 185.555 505.66C185.555 506.192 185.641 506.652 185.812 507.04C185.983 507.428 186.231 507.726 186.556 507.933C186.881 508.131 187.268 508.231 187.719 508.231C188.071 508.231 188.373 508.177 188.626 508.068C188.887 507.96 189.099 507.802 189.261 507.595C189.433 507.387 189.55 507.135 189.613 506.837L190.614 507.189C190.461 507.604 190.249 507.96 189.978 508.258C189.717 508.555 189.397 508.785 189.018 508.948C188.648 509.101 188.224 509.178 187.746 509.178C187.115 509.178 186.551 509.038 186.055 508.758C185.559 508.479 185.172 508.077 184.892 507.554C184.612 507.022 184.473 506.391 184.473 505.66C184.473 504.93 184.612 504.303 184.892 503.78C185.172 503.248 185.559 502.842 186.055 502.563C186.551 502.283 187.115 502.143 187.746 502.143ZM195.073 509.178C194.432 509.178 193.86 509.038 193.355 508.758C192.859 508.479 192.471 508.077 192.191 507.554C191.912 507.022 191.772 506.391 191.772 505.66C191.772 504.93 191.912 504.303 192.191 503.78C192.471 503.248 192.854 502.842 193.341 502.563C193.828 502.283 194.383 502.143 195.005 502.143C195.636 502.143 196.173 502.278 196.615 502.549C197.066 502.82 197.408 503.189 197.643 503.658C197.877 504.118 197.995 504.637 197.995 505.214C197.995 505.367 197.99 505.507 197.981 505.633C197.972 505.76 197.959 505.872 197.941 505.972H192.475V505.011H197.467L196.912 505.119C196.912 504.47 196.732 503.969 196.371 503.618C196.02 503.266 195.555 503.09 194.978 503.09C194.536 503.09 194.153 503.194 193.828 503.401C193.512 503.6 193.264 503.893 193.084 504.281C192.913 504.659 192.827 505.119 192.827 505.66C192.827 506.192 192.917 506.652 193.098 507.04C193.278 507.428 193.53 507.726 193.855 507.933C194.189 508.131 194.586 508.231 195.046 508.231C195.542 508.231 195.943 508.136 196.25 507.947C196.565 507.757 196.818 507.5 197.007 507.176L197.859 507.676C197.688 507.983 197.467 508.249 197.196 508.474C196.935 508.7 196.624 508.876 196.263 509.002C195.911 509.119 195.515 509.178 195.073 509.178ZM202.217 509.178C201.559 509.178 200.95 509.038 200.391 508.758C199.841 508.479 199.417 508.082 199.119 507.568L200.039 506.905C200.238 507.32 200.526 507.644 200.905 507.879C201.293 508.113 201.757 508.231 202.298 508.231C202.776 508.231 203.151 508.141 203.421 507.96C203.692 507.771 203.827 507.527 203.827 507.23C203.827 507.04 203.764 506.869 203.638 506.716C203.521 506.553 203.291 506.436 202.948 506.364L201.324 506.026C200.666 505.89 200.193 505.665 199.904 505.349C199.624 505.034 199.485 504.641 199.485 504.172C199.485 503.803 199.588 503.464 199.796 503.158C200.012 502.851 200.314 502.608 200.702 502.427C201.099 502.238 201.563 502.143 202.096 502.143C202.763 502.143 203.327 502.274 203.787 502.535C204.247 502.797 204.589 503.167 204.815 503.645L203.908 504.24C203.755 503.843 203.507 503.555 203.164 503.374C202.822 503.185 202.465 503.09 202.096 503.09C201.771 503.09 201.491 503.135 201.257 503.225C201.031 503.316 200.856 503.442 200.729 503.604C200.612 503.757 200.553 503.933 200.553 504.132C200.553 504.33 200.621 504.515 200.756 504.686C200.892 504.849 201.144 504.966 201.514 505.038L203.205 505.39C203.836 505.516 204.278 505.724 204.531 506.012C204.783 506.301 204.909 506.652 204.909 507.067C204.909 507.491 204.797 507.865 204.571 508.19C204.346 508.506 204.03 508.749 203.624 508.921C203.218 509.092 202.749 509.178 202.217 509.178ZM207.187 507.419C207.403 507.419 207.584 507.478 207.728 507.595C207.881 507.703 207.998 507.856 208.08 508.055C208.161 508.244 208.201 508.47 208.201 508.731C208.201 509.029 208.147 509.322 208.039 509.611C207.94 509.899 207.782 510.165 207.565 510.409C207.349 510.652 207.069 510.855 206.727 511.017L206.159 510.49C206.402 510.409 206.614 510.296 206.794 510.152C206.984 510.007 207.137 509.845 207.254 509.665C207.372 509.484 207.448 509.299 207.484 509.11L207.43 509.083C207.394 509.11 207.349 509.133 207.295 509.151C207.241 509.169 207.16 509.178 207.051 509.178C206.943 509.178 206.83 509.146 206.713 509.083C206.605 509.02 206.51 508.93 206.429 508.812C206.348 508.686 206.307 508.524 206.307 508.325C206.307 508.163 206.348 508.014 206.429 507.879C206.51 507.735 206.614 507.622 206.74 507.541C206.876 507.46 207.024 507.419 207.187 507.419ZM216.743 509.178C216.085 509.178 215.476 509.038 214.917 508.758C214.367 508.479 213.943 508.082 213.646 507.568L214.565 506.905C214.764 507.32 215.052 507.644 215.431 507.879C215.819 508.113 216.283 508.231 216.825 508.231C217.303 508.231 217.677 508.141 217.947 507.96C218.218 507.771 218.353 507.527 218.353 507.23C218.353 507.04 218.29 506.869 218.164 506.716C218.047 506.553 217.817 506.436 217.474 506.364L215.851 506.026C215.192 505.89 214.719 505.665 214.43 505.349C214.151 505.034 214.011 504.641 214.011 504.172C214.011 503.803 214.114 503.464 214.322 503.158C214.538 502.851 214.84 502.608 215.228 502.427C215.625 502.238 216.09 502.143 216.622 502.143C217.289 502.143 217.853 502.274 218.313 502.535C218.773 502.797 219.115 503.167 219.341 503.645L218.434 504.24C218.281 503.843 218.033 503.555 217.69 503.374C217.348 503.185 216.991 503.09 216.622 503.09C216.297 503.09 216.017 503.135 215.783 503.225C215.557 503.316 215.382 503.442 215.255 503.604C215.138 503.757 215.079 503.933 215.079 504.132C215.079 504.33 215.147 504.515 215.282 504.686C215.418 504.849 215.67 504.966 216.04 505.038L217.731 505.39C218.362 505.516 218.804 505.724 219.057 506.012C219.309 506.301 219.435 506.652 219.435 507.067C219.435 507.491 219.323 507.865 219.097 508.19C218.872 508.506 218.556 508.749 218.15 508.921C217.744 509.092 217.275 509.178 216.743 509.178ZM223.62 509.178C223.187 509.178 222.777 509.096 222.389 508.934C222.01 508.772 221.699 508.51 221.456 508.15C221.221 507.78 221.104 507.302 221.104 506.716V502.278H222.186V506.431C222.186 507.117 222.335 507.59 222.633 507.852C222.93 508.104 223.35 508.231 223.891 508.231C224.143 508.231 224.391 508.19 224.635 508.109C224.878 508.019 225.095 507.883 225.284 507.703C225.483 507.514 225.636 507.275 225.744 506.986C225.861 506.698 225.92 506.355 225.92 505.958V502.278H227.002V509.042H226.055L225.988 508.014C225.753 508.42 225.433 508.718 225.027 508.907C224.63 509.087 224.161 509.178 223.62 509.178ZM232.051 502.143C232.52 502.143 232.93 502.215 233.282 502.36C233.642 502.504 233.953 502.711 234.215 502.982C234.477 503.252 234.688 503.573 234.851 503.942L233.823 504.429C233.678 503.996 233.457 503.667 233.16 503.442C232.871 503.207 232.492 503.09 232.023 503.09C231.573 503.09 231.185 503.194 230.86 503.401C230.535 503.6 230.287 503.893 230.116 504.281C229.945 504.659 229.859 505.119 229.859 505.66C229.859 506.192 229.945 506.652 230.116 507.04C230.287 507.428 230.535 507.726 230.86 507.933C231.185 508.131 231.573 508.231 232.023 508.231C232.375 508.231 232.677 508.177 232.93 508.068C233.191 507.96 233.403 507.802 233.566 507.595C233.737 507.387 233.854 507.135 233.917 506.837L234.918 507.189C234.765 507.604 234.553 507.96 234.283 508.258C234.021 508.555 233.701 508.785 233.322 508.948C232.952 509.101 232.529 509.178 232.051 509.178C231.419 509.178 230.856 509.038 230.36 508.758C229.864 508.479 229.476 508.077 229.196 507.554C228.917 507.022 228.777 506.391 228.777 505.66C228.777 504.93 228.917 504.303 229.196 503.78C229.476 503.248 229.864 502.842 230.36 502.563C230.856 502.283 231.419 502.143 232.051 502.143ZM236.55 509.042V499.167H237.632V503.293C237.866 502.887 238.177 502.594 238.565 502.414C238.953 502.233 239.377 502.143 239.837 502.143C240.324 502.143 240.766 502.238 241.162 502.427C241.559 502.608 241.875 502.887 242.109 503.266C242.353 503.645 242.475 504.127 242.475 504.713V509.042H241.392V505.092C241.392 504.344 241.23 503.825 240.905 503.537C240.59 503.239 240.198 503.09 239.729 503.09C239.404 503.09 239.079 503.167 238.755 503.32C238.43 503.473 238.159 503.726 237.943 504.078C237.735 504.42 237.632 504.88 237.632 505.457V509.042H236.55ZM252.945 504.673C252.945 504.168 252.809 503.78 252.539 503.509C252.268 503.23 251.885 503.09 251.389 503.09C250.92 503.09 250.523 503.194 250.199 503.401C249.874 503.6 249.635 503.924 249.482 504.375L248.602 503.834C248.783 503.329 249.116 502.923 249.603 502.617C250.09 502.301 250.695 502.143 251.416 502.143C251.903 502.143 252.345 502.229 252.742 502.4C253.139 502.563 253.45 502.815 253.675 503.158C253.91 503.491 254.027 503.924 254.027 504.456V507.73C254.027 508.055 254.198 508.217 254.541 508.217C254.712 508.217 254.879 508.195 255.042 508.15L254.987 509.002C254.807 509.092 254.573 509.137 254.284 509.137C254.022 509.137 253.788 509.087 253.581 508.988C253.373 508.889 253.211 508.74 253.094 508.542C252.976 508.334 252.918 508.077 252.918 507.771V507.635L253.188 507.676C253.08 508.028 252.895 508.316 252.634 508.542C252.372 508.758 252.079 508.921 251.754 509.029C251.43 509.128 251.109 509.178 250.794 509.178C250.397 509.178 250.027 509.11 249.685 508.975C249.342 508.839 249.067 508.637 248.859 508.366C248.661 508.086 248.562 507.744 248.562 507.338C248.562 506.833 248.729 506.418 249.062 506.093C249.405 505.76 249.878 505.534 250.483 505.417L253.161 504.889V505.782L250.983 506.229C250.541 506.319 250.212 506.445 249.996 506.607C249.779 506.77 249.671 506.995 249.671 507.284C249.671 507.563 249.779 507.793 249.996 507.974C250.221 508.145 250.537 508.231 250.943 508.231C251.204 508.231 251.452 508.199 251.687 508.136C251.93 508.064 252.147 507.96 252.336 507.825C252.525 507.681 252.674 507.505 252.782 507.297C252.891 507.081 252.945 506.828 252.945 506.54V504.673ZM258.821 509.178C258.163 509.178 257.554 509.038 256.995 508.758C256.445 508.479 256.021 508.082 255.723 507.568L256.643 506.905C256.842 507.32 257.13 507.644 257.509 507.879C257.897 508.113 258.361 508.231 258.902 508.231C259.38 508.231 259.755 508.141 260.025 507.96C260.296 507.771 260.431 507.527 260.431 507.23C260.431 507.04 260.368 506.869 260.242 506.716C260.124 506.553 259.895 506.436 259.552 506.364L257.928 506.026C257.27 505.89 256.797 505.665 256.508 505.349C256.228 505.034 256.089 504.641 256.089 504.172C256.089 503.803 256.192 503.464 256.4 503.158C256.616 502.851 256.918 502.608 257.306 502.427C257.703 502.238 258.167 502.143 258.7 502.143C259.367 502.143 259.931 502.274 260.391 502.535C260.85 502.797 261.193 503.167 261.419 503.645L260.512 504.24C260.359 503.843 260.111 503.555 259.768 503.374C259.426 503.185 259.069 503.09 258.7 503.09C258.375 503.09 258.095 503.135 257.861 503.225C257.635 503.316 257.46 503.442 257.333 503.604C257.216 503.757 257.157 503.933 257.157 504.132C257.157 504.33 257.225 504.515 257.36 504.686C257.496 504.849 257.748 504.966 258.118 505.038L259.809 505.39C260.44 505.516 260.882 505.724 261.135 506.012C261.387 506.301 261.513 506.652 261.513 507.067C261.513 507.491 261.401 507.865 261.175 508.19C260.95 508.506 260.634 508.749 260.228 508.921C259.822 509.092 259.353 509.178 258.821 509.178ZM86.3276 525.178C85.6692 525.178 85.0605 525.038 84.5013 524.758C83.9512 524.479 83.5273 524.082 83.2297 523.568L84.1496 522.905C84.348 523.32 84.6366 523.644 85.0154 523.879C85.4032 524.113 85.8676 524.231 86.4088 524.231C86.8867 524.231 87.261 524.141 87.5316 523.96C87.8021 523.771 87.9374 523.527 87.9374 523.23C87.9374 523.04 87.8743 522.869 87.748 522.716C87.6308 522.553 87.4008 522.436 87.0581 522.364L85.4348 522.026C84.7764 521.89 84.3029 521.665 84.0143 521.349C83.7348 521.034 83.595 520.641 83.595 520.172C83.595 519.803 83.6987 519.464 83.9061 519.158C84.1226 518.851 84.4247 518.608 84.8125 518.427C85.2093 518.238 85.6737 518.143 86.2058 518.143C86.8732 518.143 87.4369 518.274 87.8968 518.535C88.3568 518.797 88.6995 519.167 88.9249 519.645L88.0186 520.24C87.8653 519.843 87.6172 519.555 87.2745 519.374C86.9318 519.185 86.5756 519.09 86.2058 519.09C85.8812 519.09 85.6016 519.135 85.3671 519.225C85.1417 519.316 84.9658 519.442 84.8395 519.604C84.7223 519.757 84.6637 519.933 84.6637 520.132C84.6637 520.33 84.7313 520.515 84.8666 520.686C85.0019 520.849 85.2544 520.966 85.6241 521.038L87.3151 521.39C87.9464 521.516 88.3883 521.724 88.6409 522.012C88.8934 522.301 89.0196 522.652 89.0196 523.067C89.0196 523.491 88.9069 523.865 88.6814 524.19C88.456 524.506 88.1403 524.749 87.7345 524.921C87.3287 525.092 86.8597 525.178 86.3276 525.178ZM93.5561 518.143C94.0251 518.143 94.4354 518.215 94.7871 518.36C95.1479 518.504 95.459 518.711 95.7206 518.982C95.9821 519.252 96.194 519.573 96.3564 519.942L95.3283 520.429C95.184 519.996 94.963 519.667 94.6654 519.442C94.3768 519.207 93.998 519.09 93.5291 519.09C93.0781 519.09 92.6903 519.194 92.3657 519.401C92.041 519.6 91.793 519.893 91.6216 520.281C91.4503 520.659 91.3646 521.119 91.3646 521.66C91.3646 522.192 91.4503 522.652 91.6216 523.04C91.793 523.428 92.041 523.726 92.3657 523.933C92.6903 524.131 93.0781 524.231 93.5291 524.231C93.8808 524.231 94.1829 524.177 94.4354 524.068C94.697 523.96 94.9089 523.802 95.0712 523.595C95.2426 523.387 95.3598 523.135 95.423 522.837L96.424 523.189C96.2707 523.604 96.0588 523.96 95.7882 524.258C95.5267 524.555 95.2065 524.785 94.8277 524.948C94.458 525.101 94.0341 525.178 93.5561 525.178C92.9248 525.178 92.3611 525.038 91.8651 524.758C91.3691 524.479 90.9813 524.077 90.7017 523.554C90.4222 523.022 90.2824 522.391 90.2824 521.66C90.2824 520.93 90.4222 520.303 90.7017 519.78C90.9813 519.248 91.3691 518.842 91.8651 518.563C92.3611 518.283 92.9248 518.143 93.5561 518.143ZM98.0551 525.042V515.167H99.1373V519.293C99.3718 518.887 99.6829 518.594 100.071 518.414C100.459 518.233 100.882 518.143 101.342 518.143C101.829 518.143 102.271 518.238 102.668 518.427C103.065 518.608 103.381 518.887 103.615 519.266C103.859 519.645 103.98 520.127 103.98 520.713V525.042H102.898V521.092C102.898 520.344 102.736 519.825 102.411 519.537C102.095 519.239 101.703 519.09 101.234 519.09C100.909 519.09 100.585 519.167 100.26 519.32C99.9354 519.473 99.6649 519.726 99.4484 520.078C99.241 520.42 99.1373 520.88 99.1373 521.457V525.042H98.0551ZM108.96 518.143C109.601 518.143 110.164 518.283 110.651 518.563C111.147 518.842 111.535 519.248 111.815 519.78C112.094 520.303 112.234 520.93 112.234 521.66C112.234 522.391 112.094 523.022 111.815 523.554C111.535 524.077 111.147 524.479 110.651 524.758C110.164 525.038 109.601 525.178 108.96 525.178C108.329 525.178 107.765 525.038 107.269 524.758C106.773 524.479 106.386 524.077 106.106 523.554C105.826 523.022 105.687 522.391 105.687 521.66C105.687 520.93 105.826 520.303 106.106 519.78C106.386 519.248 106.773 518.842 107.269 518.563C107.765 518.283 108.329 518.143 108.96 518.143ZM108.96 519.077C108.5 519.077 108.108 519.18 107.783 519.388C107.459 519.595 107.206 519.893 107.026 520.281C106.855 520.659 106.769 521.119 106.769 521.66C106.769 522.192 106.855 522.652 107.026 523.04C107.206 523.428 107.459 523.726 107.783 523.933C108.108 524.141 108.5 524.244 108.96 524.244C109.42 524.244 109.813 524.141 110.137 523.933C110.462 523.726 110.71 523.428 110.881 523.04C111.062 522.652 111.152 522.192 111.152 521.66C111.152 521.119 111.062 520.659 110.881 520.281C110.71 519.893 110.462 519.595 110.137 519.388C109.813 519.18 109.42 519.077 108.96 519.077ZM115.029 515.167V523.324C115.029 523.667 115.092 523.906 115.219 524.041C115.345 524.168 115.548 524.231 115.827 524.231C116.008 524.231 116.156 524.217 116.274 524.19C116.391 524.163 116.549 524.113 116.747 524.041L116.571 524.988C116.427 525.051 116.269 525.096 116.098 525.124C115.926 525.16 115.751 525.178 115.57 525.178C115.02 525.178 114.61 525.029 114.339 524.731C114.078 524.434 113.947 523.978 113.947 523.365V515.167H115.029ZM121.816 520.673C121.816 520.168 121.68 519.78 121.41 519.509C121.139 519.23 120.756 519.09 120.26 519.09C119.791 519.09 119.394 519.194 119.069 519.401C118.745 519.6 118.506 519.924 118.352 520.375L117.473 519.834C117.653 519.329 117.987 518.923 118.474 518.617C118.961 518.301 119.565 518.143 120.287 518.143C120.774 518.143 121.216 518.229 121.613 518.4C122.009 518.563 122.321 518.815 122.546 519.158C122.781 519.491 122.898 519.924 122.898 520.456V523.73C122.898 524.055 123.069 524.217 123.412 524.217C123.583 524.217 123.75 524.195 123.912 524.15L123.858 525.002C123.678 525.092 123.443 525.137 123.155 525.137C122.893 525.137 122.659 525.087 122.451 524.988C122.244 524.889 122.082 524.74 121.964 524.542C121.847 524.334 121.789 524.077 121.789 523.771V523.635L122.059 523.676C121.951 524.028 121.766 524.316 121.504 524.542C121.243 524.758 120.95 524.921 120.625 525.029C120.3 525.128 119.98 525.178 119.665 525.178C119.268 525.178 118.898 525.11 118.555 524.975C118.213 524.839 117.938 524.637 117.73 524.366C117.532 524.086 117.433 523.744 117.433 523.338C117.433 522.833 117.599 522.418 117.933 522.093C118.276 521.76 118.749 521.534 119.353 521.417L122.032 520.889V521.782L119.854 522.229C119.412 522.319 119.083 522.445 118.866 522.607C118.65 522.77 118.542 522.995 118.542 523.284C118.542 523.563 118.65 523.793 118.866 523.974C119.092 524.145 119.408 524.231 119.813 524.231C120.075 524.231 120.323 524.199 120.557 524.136C120.801 524.064 121.017 523.96 121.207 523.825C121.396 523.681 121.545 523.505 121.653 523.297C121.761 523.081 121.816 522.828 121.816 522.54V520.673ZM125.257 525.042V518.278H126.136L126.285 519.388C126.475 518.973 126.75 518.662 127.11 518.454C127.48 518.247 127.927 518.143 128.45 518.143C128.567 518.143 128.693 518.152 128.828 518.17C128.973 518.188 129.095 518.224 129.194 518.278L129.004 519.266C128.905 519.23 128.797 519.203 128.68 519.185C128.562 519.167 128.396 519.158 128.179 519.158C127.9 519.158 127.615 519.239 127.327 519.401C127.047 519.564 126.813 519.812 126.623 520.145C126.434 520.47 126.339 520.885 126.339 521.39V525.042H125.257ZM132.653 525.178C131.995 525.178 131.386 525.038 130.827 524.758C130.277 524.479 129.853 524.082 129.555 523.568L130.475 522.905C130.673 523.32 130.962 523.644 131.341 523.879C131.729 524.113 132.193 524.231 132.734 524.231C133.212 524.231 133.586 524.141 133.857 523.96C134.128 523.771 134.263 523.527 134.263 523.23C134.263 523.04 134.2 522.869 134.073 522.716C133.956 522.553 133.726 522.436 133.384 522.364L131.76 522.026C131.102 521.89 130.628 521.665 130.34 521.349C130.06 521.034 129.92 520.641 129.92 520.172C129.92 519.803 130.024 519.464 130.232 519.158C130.448 518.851 130.75 518.608 131.138 518.427C131.535 518.238 131.999 518.143 132.531 518.143C133.199 518.143 133.762 518.274 134.222 518.535C134.682 518.797 135.025 519.167 135.25 519.645L134.344 520.24C134.191 519.843 133.943 519.555 133.6 519.374C133.257 519.185 132.901 519.09 132.531 519.09C132.207 519.09 131.927 519.135 131.693 519.225C131.467 519.316 131.291 519.442 131.165 519.604C131.048 519.757 130.989 519.933 130.989 520.132C130.989 520.33 131.057 520.515 131.192 520.686C131.327 520.849 131.58 520.966 131.95 521.038L133.641 521.39C134.272 521.516 134.714 521.724 134.966 522.012C135.219 522.301 135.345 522.652 135.345 523.067C135.345 523.491 135.232 523.865 135.007 524.19C134.781 524.506 134.466 524.749 134.06 524.921C133.654 525.092 133.185 525.178 132.653 525.178ZM137.081 525.042V515.167H138.164V519.293C138.398 518.887 138.709 518.594 139.097 518.414C139.485 518.233 139.909 518.143 140.369 518.143C140.856 518.143 141.297 518.238 141.694 518.427C142.091 518.608 142.407 518.887 142.641 519.266C142.885 519.645 143.006 520.127 143.006 520.713V525.042H141.924V521.092C141.924 520.344 141.762 519.825 141.437 519.537C141.122 519.239 140.729 519.09 140.26 519.09C139.936 519.09 139.611 519.167 139.286 519.32C138.962 519.473 138.691 519.726 138.475 520.078C138.267 520.42 138.164 520.88 138.164 521.457V525.042H137.081ZM145.727 516.98C145.484 516.98 145.286 516.908 145.132 516.763C144.988 516.61 144.916 516.412 144.916 516.168C144.916 515.925 144.988 515.731 145.132 515.586C145.286 515.433 145.484 515.356 145.727 515.356C145.971 515.356 146.165 515.433 146.309 515.586C146.463 515.731 146.539 515.925 146.539 516.168C146.539 516.412 146.463 516.61 146.309 516.763C146.165 516.908 145.971 516.98 145.727 516.98ZM146.269 518.278V525.042H145.186V518.278H146.269ZM148.509 527.883V518.278H149.456L149.551 519.929L149.402 519.739C149.519 519.424 149.695 519.149 149.93 518.914C150.164 518.671 150.448 518.481 150.782 518.346C151.116 518.211 151.476 518.143 151.864 518.143C152.414 518.143 152.919 518.283 153.379 518.563C153.848 518.842 154.222 519.243 154.502 519.767C154.782 520.29 154.921 520.921 154.921 521.66C154.921 522.391 154.777 523.022 154.488 523.554C154.209 524.077 153.835 524.479 153.366 524.758C152.897 525.038 152.383 525.178 151.823 525.178C151.264 525.178 150.773 525.042 150.349 524.772C149.934 524.492 149.636 524.141 149.456 523.717L149.591 523.514V527.883H148.509ZM151.715 524.231C152.383 524.231 152.901 523.996 153.271 523.527C153.65 523.058 153.839 522.436 153.839 521.66C153.839 520.885 153.654 520.263 153.284 519.794C152.924 519.325 152.414 519.09 151.756 519.09C151.323 519.09 150.944 519.198 150.62 519.415C150.295 519.622 150.042 519.92 149.862 520.308C149.682 520.686 149.591 521.137 149.591 521.66C149.591 522.174 149.677 522.625 149.848 523.013C150.029 523.401 150.277 523.703 150.592 523.92C150.917 524.127 151.291 524.231 151.715 524.231ZM159.155 525.178C158.497 525.178 157.888 525.038 157.329 524.758C156.779 524.479 156.355 524.082 156.057 523.568L156.977 522.905C157.175 523.32 157.464 523.644 157.843 523.879C158.231 524.113 158.695 524.231 159.236 524.231C159.714 524.231 160.088 524.141 160.359 523.96C160.629 523.771 160.765 523.527 160.765 523.23C160.765 523.04 160.702 522.869 160.575 522.716C160.458 522.553 160.228 522.436 159.885 522.364L158.262 522.026C157.604 521.89 157.13 521.665 156.842 521.349C156.562 521.034 156.422 520.641 156.422 520.172C156.422 519.803 156.526 519.464 156.733 519.158C156.95 518.851 157.252 518.608 157.64 518.427C158.037 518.238 158.501 518.143 159.033 518.143C159.701 518.143 160.264 518.274 160.724 518.535C161.184 518.797 161.527 519.167 161.752 519.645L160.846 520.24C160.693 519.843 160.445 519.555 160.102 519.374C159.759 519.185 159.403 519.09 159.033 519.09C158.709 519.09 158.429 519.135 158.194 519.225C157.969 519.316 157.793 519.442 157.667 519.604C157.55 519.757 157.491 519.933 157.491 520.132C157.491 520.33 157.559 520.515 157.694 520.686C157.829 520.849 158.082 520.966 158.451 521.038L160.142 521.39C160.774 521.516 161.216 521.724 161.468 522.012C161.721 522.301 161.847 522.652 161.847 523.067C161.847 523.491 161.734 523.865 161.509 524.19C161.283 524.506 160.968 524.749 160.562 524.921C160.156 525.092 159.687 525.178 159.155 525.178ZM171.873 520.673C171.873 520.168 171.738 519.78 171.467 519.509C171.197 519.23 170.814 519.09 170.318 519.09C169.849 519.09 169.452 519.194 169.127 519.401C168.803 519.6 168.564 519.924 168.41 520.375L167.531 519.834C167.711 519.329 168.045 518.923 168.532 518.617C169.019 518.301 169.623 518.143 170.345 518.143C170.832 518.143 171.274 518.229 171.67 518.4C172.067 518.563 172.378 518.815 172.604 519.158C172.838 519.491 172.956 519.924 172.956 520.456V523.73C172.956 524.055 173.127 524.217 173.47 524.217C173.641 524.217 173.808 524.195 173.97 524.15L173.916 525.002C173.736 525.092 173.501 525.137 173.213 525.137C172.951 525.137 172.717 525.087 172.509 524.988C172.302 524.889 172.139 524.74 172.022 524.542C171.905 524.334 171.846 524.077 171.846 523.771V523.635L172.117 523.676C172.009 524.028 171.824 524.316 171.562 524.542C171.301 524.758 171.008 524.921 170.683 525.029C170.358 525.128 170.038 525.178 169.722 525.178C169.326 525.178 168.956 525.11 168.613 524.975C168.27 524.839 167.995 524.637 167.788 524.366C167.59 524.086 167.49 523.744 167.49 523.338C167.49 522.833 167.657 522.418 167.991 522.093C168.334 521.76 168.807 521.534 169.411 521.417L172.09 520.889V521.782L169.912 522.229C169.47 522.319 169.141 522.445 168.924 522.607C168.708 522.77 168.6 522.995 168.6 523.284C168.6 523.563 168.708 523.793 168.924 523.974C169.15 524.145 169.465 524.231 169.871 524.231C170.133 524.231 170.381 524.199 170.615 524.136C170.859 524.064 171.075 523.96 171.265 523.825C171.454 523.681 171.603 523.505 171.711 523.297C171.819 523.081 171.873 522.828 171.873 522.54V520.673ZM175.315 525.042V518.278H176.262L176.357 519.794L176.181 519.645C176.325 519.284 176.519 518.995 176.762 518.779C177.006 518.554 177.285 518.391 177.601 518.292C177.926 518.193 178.259 518.143 178.602 518.143C179.089 518.143 179.531 518.238 179.928 518.427C180.325 518.608 180.64 518.887 180.875 519.266C181.118 519.645 181.24 520.127 181.24 520.713V525.042H180.158V521.092C180.158 520.344 179.996 519.825 179.671 519.537C179.355 519.239 178.963 519.09 178.494 519.09C178.169 519.09 177.845 519.167 177.52 519.32C177.195 519.473 176.925 519.721 176.708 520.064C176.501 520.407 176.397 520.867 176.397 521.444V525.042H175.315ZM186.058 525.178C185.499 525.178 184.985 525.038 184.516 524.758C184.047 524.479 183.672 524.077 183.393 523.554C183.113 523.022 182.974 522.391 182.974 521.66C182.974 520.912 183.122 520.276 183.42 519.753C183.718 519.23 184.11 518.833 184.597 518.563C185.084 518.283 185.607 518.143 186.166 518.143C186.725 518.143 187.208 518.287 187.614 518.576C188.028 518.865 188.304 519.248 188.439 519.726L188.304 519.821V515.167H189.386V525.042H188.439L188.344 523.405L188.493 523.324C188.43 523.721 188.276 524.059 188.033 524.339C187.798 524.609 187.505 524.817 187.154 524.961C186.811 525.105 186.446 525.178 186.058 525.178ZM186.166 524.231C186.599 524.231 186.973 524.122 187.289 523.906C187.614 523.69 187.862 523.383 188.033 522.986C188.213 522.58 188.304 522.107 188.304 521.566C188.304 521.052 188.213 520.61 188.033 520.24C187.862 519.87 187.618 519.586 187.302 519.388C186.996 519.189 186.635 519.09 186.22 519.09C185.535 519.09 185.003 519.325 184.624 519.794C184.245 520.263 184.056 520.885 184.056 521.66C184.056 522.436 184.241 523.058 184.61 523.527C184.98 523.996 185.499 524.231 186.166 524.231ZM199.285 525.178C198.906 525.178 198.555 525.11 198.23 524.975C197.905 524.839 197.626 524.65 197.391 524.407C197.157 524.163 196.981 523.888 196.864 523.581L197.012 523.392L196.918 525.042H195.971V515.167H197.053V519.807L196.918 519.604C197.098 519.18 197.4 518.833 197.824 518.563C198.257 518.283 198.748 518.143 199.299 518.143C199.858 518.143 200.372 518.283 200.841 518.563C201.31 518.842 201.684 519.243 201.964 519.767C202.243 520.29 202.383 520.921 202.383 521.66C202.383 522.391 202.239 523.022 201.95 523.554C201.67 524.077 201.296 524.479 200.827 524.758C200.358 525.038 199.844 525.178 199.285 525.178ZM199.177 524.231C199.844 524.231 200.363 523.996 200.733 523.527C201.111 523.058 201.301 522.436 201.301 521.66C201.301 520.885 201.116 520.263 200.746 519.794C200.376 519.325 199.858 519.09 199.19 519.09C198.766 519.09 198.392 519.198 198.068 519.415C197.752 519.631 197.504 519.933 197.324 520.321C197.143 520.709 197.053 521.164 197.053 521.687C197.053 522.202 197.139 522.652 197.31 523.04C197.49 523.419 197.738 523.712 198.054 523.92C198.379 524.127 198.753 524.231 199.177 524.231ZM206.63 525.178C206.197 525.178 205.787 525.096 205.399 524.934C205.02 524.772 204.709 524.51 204.466 524.15C204.231 523.78 204.114 523.302 204.114 522.716V518.278H205.196V522.431C205.196 523.117 205.345 523.59 205.643 523.852C205.94 524.104 206.359 524.231 206.901 524.231C207.153 524.231 207.401 524.19 207.645 524.109C207.888 524.019 208.105 523.883 208.294 523.703C208.492 523.514 208.646 523.275 208.754 522.986C208.871 522.698 208.93 522.355 208.93 521.958V518.278H210.012V525.042H209.065L208.997 524.014C208.763 524.42 208.443 524.718 208.037 524.907C207.64 525.087 207.171 525.178 206.63 525.178ZM214.898 525.178C214.339 525.178 213.825 525.038 213.356 524.758C212.887 524.479 212.513 524.077 212.233 523.554C211.954 523.022 211.814 522.391 211.814 521.66C211.814 520.912 211.963 520.276 212.26 519.753C212.558 519.23 212.95 518.833 213.437 518.563C213.924 518.283 214.447 518.143 215.006 518.143C215.565 518.143 216.048 518.287 216.454 518.576C216.869 518.865 217.144 519.248 217.279 519.726L217.144 519.821V515.167H218.226V525.042H217.279L217.184 523.405L217.333 523.324C217.27 523.721 217.117 524.059 216.873 524.339C216.639 524.609 216.346 524.817 215.994 524.961C215.651 525.105 215.286 525.178 214.898 525.178ZM215.006 524.231C215.439 524.231 215.813 524.122 216.129 523.906C216.454 523.69 216.702 523.383 216.873 522.986C217.054 522.58 217.144 522.107 217.144 521.566C217.144 521.052 217.054 520.61 216.873 520.24C216.702 519.87 216.458 519.586 216.143 519.388C215.836 519.189 215.475 519.09 215.06 519.09C214.375 519.09 213.843 519.325 213.464 519.794C213.085 520.263 212.896 520.885 212.896 521.66C212.896 522.436 213.081 523.058 213.451 523.527C213.82 523.996 214.339 524.231 215.006 524.231ZM226.166 517.034L226.41 517.994C226.401 517.994 226.387 517.994 226.369 517.994C226.351 517.994 226.333 517.994 226.315 517.994C225.873 517.994 225.53 518.085 225.287 518.265C225.052 518.436 224.935 518.716 224.935 519.104L224.272 518.765C224.272 518.414 224.353 518.107 224.516 517.846C224.678 517.584 224.899 517.386 225.179 517.25C225.458 517.106 225.765 517.034 226.099 517.034C226.108 517.034 226.117 517.034 226.126 517.034C226.144 517.034 226.157 517.034 226.166 517.034ZM224.11 524.177C224.75 524.177 225.251 524.325 225.612 524.623C225.972 524.912 226.153 525.299 226.153 525.786C226.153 526.228 226.004 526.612 225.706 526.936C225.418 527.261 225.025 527.509 224.529 527.68C224.042 527.861 223.492 527.951 222.879 527.951C221.815 527.951 221.017 527.77 220.484 527.41C219.961 527.049 219.7 526.616 219.7 526.111C219.7 525.75 219.817 525.426 220.052 525.137C220.295 524.857 220.701 524.7 221.269 524.664L221.174 524.866C220.868 524.785 220.606 524.65 220.39 524.461C220.182 524.262 220.079 523.978 220.079 523.608C220.079 523.239 220.214 522.923 220.484 522.661C220.764 522.391 221.174 522.224 221.715 522.161L222.432 522.526H222.297C221.855 522.571 221.54 522.684 221.35 522.864C221.17 523.036 221.08 523.225 221.08 523.433C221.08 523.685 221.17 523.874 221.35 524.001C221.54 524.118 221.801 524.177 222.135 524.177H224.11ZM222.865 527.044C223.388 527.044 223.817 526.99 224.151 526.882C224.493 526.774 224.746 526.634 224.908 526.463C225.07 526.291 225.152 526.107 225.152 525.908C225.152 525.665 225.052 525.471 224.854 525.326C224.665 525.182 224.317 525.11 223.812 525.11H221.729C221.44 525.11 221.197 525.182 220.999 525.326C220.8 525.48 220.701 525.687 220.701 525.949C220.701 526.282 220.89 526.548 221.269 526.747C221.657 526.945 222.189 527.044 222.865 527.044ZM222.771 518.143C223.312 518.143 223.79 518.242 224.205 518.441C224.628 518.63 224.958 518.896 225.192 519.239C225.427 519.582 225.544 519.978 225.544 520.429C225.544 520.871 225.427 521.268 225.192 521.62C224.958 521.963 224.628 522.233 224.205 522.431C223.79 522.621 223.312 522.716 222.771 522.716C221.878 522.716 221.192 522.504 220.714 522.08C220.236 521.647 219.997 521.097 219.997 520.429C219.997 519.978 220.115 519.582 220.349 519.239C220.593 518.896 220.922 518.63 221.337 518.441C221.752 518.242 222.23 518.143 222.771 518.143ZM222.771 519.022C222.302 519.022 221.909 519.153 221.594 519.415C221.278 519.667 221.12 520.005 221.12 520.429C221.12 520.844 221.278 521.182 221.594 521.444C221.909 521.705 222.302 521.836 222.771 521.836C223.24 521.836 223.632 521.705 223.948 521.444C224.263 521.182 224.421 520.844 224.421 520.429C224.421 520.005 224.263 519.667 223.948 519.415C223.632 519.153 223.24 519.022 222.771 519.022ZM230.228 525.178C229.587 525.178 229.015 525.038 228.51 524.758C228.014 524.479 227.626 524.077 227.346 523.554C227.067 523.022 226.927 522.391 226.927 521.66C226.927 520.93 227.067 520.303 227.346 519.78C227.626 519.248 228.009 518.842 228.496 518.563C228.983 518.283 229.538 518.143 230.16 518.143C230.791 518.143 231.328 518.278 231.77 518.549C232.221 518.82 232.563 519.189 232.798 519.658C233.032 520.118 233.15 520.637 233.15 521.214C233.15 521.367 233.145 521.507 233.136 521.633C233.127 521.76 233.114 521.872 233.095 521.972H227.63V521.011H232.622L232.067 521.119C232.067 520.47 231.887 519.969 231.526 519.618C231.175 519.266 230.71 519.09 230.133 519.09C229.691 519.09 229.308 519.194 228.983 519.401C228.667 519.6 228.419 519.893 228.239 520.281C228.068 520.659 227.982 521.119 227.982 521.66C227.982 522.192 228.072 522.652 228.253 523.04C228.433 523.428 228.685 523.726 229.01 523.933C229.344 524.131 229.741 524.231 230.201 524.231C230.697 524.231 231.098 524.136 231.404 523.947C231.72 523.757 231.973 523.5 232.162 523.176L233.014 523.676C232.843 523.983 232.622 524.249 232.351 524.474C232.09 524.7 231.779 524.876 231.418 525.002C231.066 525.119 230.669 525.178 230.228 525.178ZM236.335 516.357V523.176C236.335 523.509 236.43 523.757 236.619 523.92C236.809 524.082 237.052 524.163 237.35 524.163C237.612 524.163 237.837 524.118 238.026 524.028C238.216 523.938 238.387 523.816 238.54 523.663L238.919 524.569C238.712 524.758 238.464 524.907 238.175 525.015C237.896 525.124 237.571 525.178 237.201 525.178C236.858 525.178 236.538 525.119 236.241 525.002C235.943 524.876 235.704 524.682 235.524 524.42C235.352 524.15 235.262 523.798 235.253 523.365V516.655L236.335 516.357ZM238.797 518.278V519.212H233.9V518.278H238.797ZM240.677 516.98C240.434 516.98 240.235 516.908 240.082 516.763C239.938 516.61 239.865 516.412 239.865 516.168C239.865 515.925 239.938 515.731 240.082 515.586C240.235 515.433 240.434 515.356 240.677 515.356C240.921 515.356 241.114 515.433 241.259 515.586C241.412 515.731 241.489 515.925 241.489 516.168C241.489 516.412 241.412 516.61 241.259 516.763C241.114 516.908 240.921 516.98 240.677 516.98ZM241.218 518.278V525.042H240.136V518.278H241.218ZM243.459 525.042V518.278H244.406L244.5 519.794L244.325 519.645C244.469 519.284 244.663 518.995 244.906 518.779C245.15 518.554 245.429 518.391 245.745 518.292C246.07 518.193 246.403 518.143 246.746 518.143C247.233 518.143 247.675 518.238 248.072 518.427C248.469 518.608 248.784 518.887 249.019 519.266C249.262 519.645 249.384 520.127 249.384 520.713V525.042H248.302V521.092C248.302 520.344 248.139 519.825 247.815 519.537C247.499 519.239 247.107 519.09 246.638 519.09C246.313 519.09 245.988 519.167 245.664 519.32C245.339 519.473 245.069 519.721 244.852 520.064C244.645 520.407 244.541 520.867 244.541 521.444V525.042H243.459ZM257.259 517.034L257.503 517.994C257.494 517.994 257.48 517.994 257.462 517.994C257.444 517.994 257.426 517.994 257.408 517.994C256.966 517.994 256.623 518.085 256.38 518.265C256.145 518.436 256.028 518.716 256.028 519.104L255.365 518.765C255.365 518.414 255.446 518.107 255.609 517.846C255.771 517.584 255.992 517.386 256.272 517.25C256.551 517.106 256.858 517.034 257.191 517.034C257.2 517.034 257.209 517.034 257.218 517.034C257.237 517.034 257.25 517.034 257.259 517.034ZM255.203 524.177C255.843 524.177 256.344 524.325 256.704 524.623C257.065 524.912 257.246 525.299 257.246 525.786C257.246 526.228 257.097 526.612 256.799 526.936C256.511 527.261 256.118 527.509 255.622 527.68C255.135 527.861 254.585 527.951 253.972 527.951C252.908 527.951 252.109 527.77 251.577 527.41C251.054 527.049 250.793 526.616 250.793 526.111C250.793 525.75 250.91 525.426 251.144 525.137C251.388 524.857 251.794 524.7 252.362 524.664L252.267 524.866C251.961 524.785 251.699 524.65 251.483 524.461C251.275 524.262 251.172 523.978 251.172 523.608C251.172 523.239 251.307 522.923 251.577 522.661C251.857 522.391 252.267 522.224 252.808 522.161L253.525 522.526H253.39C252.948 522.571 252.633 522.684 252.443 522.864C252.263 523.036 252.173 523.225 252.173 523.433C252.173 523.685 252.263 523.874 252.443 524.001C252.633 524.118 252.894 524.177 253.228 524.177H255.203ZM253.958 527.044C254.481 527.044 254.91 526.99 255.243 526.882C255.586 526.774 255.839 526.634 256.001 526.463C256.163 526.291 256.244 526.107 256.244 525.908C256.244 525.665 256.145 525.471 255.947 525.326C255.757 525.182 255.41 525.11 254.905 525.11H252.822C252.533 525.11 252.29 525.182 252.091 525.326C251.893 525.48 251.794 525.687 251.794 525.949C251.794 526.282 251.983 526.548 252.362 526.747C252.75 526.945 253.282 527.044 253.958 527.044ZM253.864 518.143C254.405 518.143 254.883 518.242 255.298 518.441C255.721 518.63 256.051 518.896 256.285 519.239C256.52 519.582 256.637 519.978 256.637 520.429C256.637 520.871 256.52 521.268 256.285 521.62C256.051 521.963 255.721 522.233 255.298 522.431C254.883 522.621 254.405 522.716 253.864 522.716C252.971 522.716 252.285 522.504 251.807 522.08C251.329 521.647 251.09 521.097 251.09 520.429C251.09 519.978 251.208 519.582 251.442 519.239C251.686 518.896 252.015 518.63 252.43 518.441C252.844 518.242 253.322 518.143 253.864 518.143ZM253.864 519.022C253.395 519.022 253.002 519.153 252.687 519.415C252.371 519.667 252.213 520.005 252.213 520.429C252.213 520.844 252.371 521.182 252.687 521.444C253.002 521.705 253.395 521.836 253.864 521.836C254.333 521.836 254.725 521.705 255.04 521.444C255.356 521.182 255.514 520.844 255.514 520.429C255.514 520.005 255.356 519.667 255.04 519.415C254.725 519.153 254.333 519.022 253.864 519.022ZM264.165 516.357V523.176C264.165 523.509 264.26 523.757 264.449 523.92C264.639 524.082 264.882 524.163 265.18 524.163C265.441 524.163 265.667 524.118 265.856 524.028C266.046 523.938 266.217 523.816 266.37 523.663L266.749 524.569C266.542 524.758 266.294 524.907 266.005 525.015C265.725 525.124 265.401 525.178 265.031 525.178C264.688 525.178 264.368 525.119 264.071 525.002C263.773 524.876 263.534 524.682 263.354 524.42C263.182 524.15 263.092 523.798 263.083 523.365V516.655L264.165 516.357ZM266.627 518.278V519.212H261.73V518.278H266.627ZM268.507 516.98C268.263 516.98 268.065 516.908 267.912 516.763C267.767 516.61 267.695 516.412 267.695 516.168C267.695 515.925 267.767 515.731 267.912 515.586C268.065 515.433 268.263 515.356 268.507 515.356C268.75 515.356 268.944 515.433 269.089 515.586C269.242 515.731 269.319 515.925 269.319 516.168C269.319 516.412 269.242 516.61 269.089 516.763C268.944 516.908 268.75 516.98 268.507 516.98ZM269.048 518.278V525.042H267.966V518.278H269.048ZM271.289 527.883V518.278H272.236L272.33 519.929L272.181 519.739C272.299 519.424 272.475 519.149 272.709 518.914C272.943 518.671 273.228 518.481 273.561 518.346C273.895 518.211 274.256 518.143 274.643 518.143C275.194 518.143 275.699 518.283 276.159 518.563C276.628 518.842 277.002 519.243 277.281 519.767C277.561 520.29 277.701 520.921 277.701 521.66C277.701 522.391 277.556 523.022 277.268 523.554C276.988 524.077 276.614 524.479 276.145 524.758C275.676 525.038 275.162 525.178 274.603 525.178C274.044 525.178 273.552 525.042 273.128 524.772C272.714 524.492 272.416 524.141 272.236 523.717L272.371 523.514V527.883H271.289ZM274.495 524.231C275.162 524.231 275.681 523.996 276.05 523.527C276.429 523.058 276.619 522.436 276.619 521.66C276.619 520.885 276.434 520.263 276.064 519.794C275.703 519.325 275.194 519.09 274.535 519.09C274.102 519.09 273.724 519.198 273.399 519.415C273.074 519.622 272.822 519.92 272.641 520.308C272.461 520.686 272.371 521.137 272.371 521.66C272.371 522.174 272.456 522.625 272.628 523.013C272.808 523.401 273.056 523.703 273.372 523.92C273.697 524.127 274.071 524.231 274.495 524.231ZM281.934 525.178C281.276 525.178 280.667 525.038 280.108 524.758C279.558 524.479 279.134 524.082 278.836 523.568L279.756 522.905C279.955 523.32 280.243 523.644 280.622 523.879C281.01 524.113 281.474 524.231 282.016 524.231C282.494 524.231 282.868 524.141 283.138 523.96C283.409 523.771 283.544 523.527 283.544 523.23C283.544 523.04 283.481 522.869 283.355 522.716C283.238 522.553 283.008 522.436 282.665 522.364L281.042 522.026C280.383 521.89 279.91 521.665 279.621 521.349C279.342 521.034 279.202 520.641 279.202 520.172C279.202 519.803 279.305 519.464 279.513 519.158C279.729 518.851 280.031 518.608 280.419 518.427C280.816 518.238 281.281 518.143 281.813 518.143C282.48 518.143 283.044 518.274 283.504 518.535C283.964 518.797 284.306 519.167 284.532 519.645L283.625 520.24C283.472 519.843 283.224 519.555 282.881 519.374C282.539 519.185 282.182 519.09 281.813 519.09C281.488 519.09 281.208 519.135 280.974 519.225C280.748 519.316 280.573 519.442 280.446 519.604C280.329 519.757 280.27 519.933 280.27 520.132C280.27 520.33 280.338 520.515 280.473 520.686C280.609 520.849 280.861 520.966 281.231 521.038L282.922 521.39C283.553 521.516 283.995 521.724 284.248 522.012C284.5 522.301 284.626 522.652 284.626 523.067C284.626 523.491 284.514 523.865 284.288 524.19C284.063 524.506 283.747 524.749 283.341 524.921C282.935 525.092 282.466 525.178 281.934 525.178ZM287.512 516.114V519.983L287.35 522.229H286.538L286.376 519.983V516.114H287.512ZM286.944 523.419C287.206 523.419 287.418 523.5 287.58 523.663C287.742 523.825 287.824 524.037 287.824 524.298C287.824 524.56 287.742 524.772 287.58 524.934C287.418 525.096 287.206 525.178 286.944 525.178C286.683 525.178 286.471 525.096 286.309 524.934C286.146 524.772 286.065 524.56 286.065 524.298C286.065 524.037 286.146 523.825 286.309 523.663C286.471 523.5 286.683 523.419 286.944 523.419Z" fill="black"/>
<path fill-rule="evenodd" clip-rule="evenodd" d="M263.381 163.323C256.144 160.725 246.34 167.348 238.068 175.273C226.467 171.801 213.367 170.265 199.5 170.265C198.735 170.265 197.972 170.27 197.212 170.28C191.172 165.406 184.868 162.535 179.771 164.939C176.957 166.267 174.914 168.958 173.461 172.451C138.664 178.75 113.448 199.189 113.448 240.535C113.448 256.236 117.553 269.175 124.737 279.481C125.494 280.567 126.003 281.811 126.158 283.125L128.13 299.789C128.551 303.352 131.432 306.12 135.009 306.399L145.34 307.204C148.14 307.422 150.828 306.061 152.309 303.675L153.28 302.111C158.442 304.374 163.98 306.187 169.814 307.559L172.211 317.781C173.008 321.179 176.039 323.581 179.528 323.581H200.968C204.325 323.581 207.274 321.354 208.195 318.126L210.397 310.401C219.426 309.72 228.018 308.172 235.95 305.728L237.096 312.129C237.738 315.712 240.854 318.32 244.494 318.32H257.101C260.567 318.32 263.583 315.95 264.403 312.583L271.611 282.997C280.428 272.17 285.552 258.077 285.552 240.535C285.552 221.578 280.477 207.125 271.739 196.404C273.106 183.133 272.423 166.569 263.381 163.323Z" fill="white"/>
<path d="M238.068 175.273L237.906 175.813C238.101 175.871 238.311 175.82 238.458 175.68L238.068 175.273ZM263.381 163.323L263.191 163.854L263.191 163.854L263.381 163.323ZM197.212 170.28L196.858 170.719C196.96 170.801 197.088 170.845 197.219 170.844L197.212 170.28ZM179.771 164.939L180.011 165.449L180.011 165.449L179.771 164.939ZM173.461 172.451L173.562 173.006C173.75 172.972 173.908 172.844 173.982 172.667L173.461 172.451ZM124.737 279.481L124.275 279.803L124.275 279.803L124.737 279.481ZM126.158 283.125L125.599 283.191L125.599 283.191L126.158 283.125ZM128.13 299.789L127.57 299.855L128.13 299.789ZM135.009 306.399L135.053 305.837L135.053 305.837L135.009 306.399ZM145.34 307.204L145.384 306.642L145.384 306.642L145.34 307.204ZM152.309 303.675L151.83 303.377L151.83 303.377L152.309 303.675ZM153.28 302.111L153.506 301.594C153.249 301.482 152.949 301.575 152.801 301.813L153.28 302.111ZM169.814 307.559L170.363 307.43C170.314 307.222 170.151 307.059 169.943 307.01L169.814 307.559ZM172.211 317.781L171.663 317.91L171.663 317.91L172.211 317.781ZM208.195 318.126L207.653 317.971L207.653 317.971L208.195 318.126ZM210.397 310.401L210.355 309.839C210.12 309.857 209.92 310.02 209.855 310.247L210.397 310.401ZM235.95 305.728L236.505 305.629C236.476 305.47 236.381 305.331 236.243 305.247C236.106 305.163 235.938 305.142 235.784 305.189L235.95 305.728ZM237.096 312.129L237.651 312.03L237.651 312.03L237.096 312.129ZM264.403 312.583L264.951 312.717L264.951 312.717L264.403 312.583ZM271.611 282.997L271.174 282.641C271.121 282.706 271.083 282.782 271.063 282.864L271.611 282.997ZM271.739 196.404L271.178 196.346C271.163 196.495 271.208 196.644 271.302 196.76L271.739 196.404ZM238.458 175.68C242.576 171.735 247.052 168.137 251.376 165.85C255.716 163.555 259.796 162.635 263.191 163.854L263.572 162.793C259.73 161.413 255.289 162.506 250.849 164.854C246.394 167.21 241.832 170.886 237.678 174.866L238.458 175.68ZM199.5 170.829C213.328 170.829 226.371 172.36 237.906 175.813L238.23 174.733C226.563 171.241 213.406 169.701 199.5 169.701V170.829ZM197.219 170.844C197.977 170.834 198.737 170.829 199.5 170.829V169.701C198.732 169.701 197.967 169.706 197.204 169.716L197.219 170.844ZM197.566 169.841C194.519 167.383 191.375 165.404 188.322 164.348C185.263 163.29 182.252 163.146 179.53 164.43L180.011 165.449C182.386 164.329 185.076 164.418 187.953 165.413C190.836 166.41 193.864 168.303 196.858 170.719L197.566 169.841ZM179.53 164.43C176.54 165.84 174.421 168.675 172.941 172.235L173.982 172.667C175.406 169.242 177.374 166.693 180.011 165.449L179.53 164.43ZM114.012 240.535C114.012 219.985 120.274 204.686 130.812 193.741C141.359 182.787 156.24 176.141 173.562 173.006L173.361 171.896C155.886 175.06 140.76 181.784 130 192.96C119.23 204.146 112.884 219.739 112.884 240.535H114.012ZM125.2 279.158C118.089 268.957 114.012 256.134 114.012 240.535H112.884C112.884 256.339 117.018 269.392 124.275 279.803L125.2 279.158ZM126.718 283.059C126.551 281.643 126.004 280.312 125.2 279.158L124.275 279.803C124.985 280.821 125.455 281.978 125.599 283.191L126.718 283.059ZM128.689 299.723L126.718 283.059L125.599 283.191L127.57 299.855L128.689 299.723ZM135.053 305.837C131.744 305.579 129.079 303.018 128.689 299.723L127.57 299.855C128.023 303.685 131.12 306.661 134.965 306.961L135.053 305.837ZM145.384 306.642L135.053 305.837L134.965 306.961L145.296 307.766L145.384 306.642ZM151.83 303.377C150.46 305.585 147.974 306.844 145.384 306.642L145.296 307.766C148.306 308 151.196 306.537 152.788 303.972L151.83 303.377ZM152.801 301.813L151.83 303.377L152.788 303.972L153.759 302.408L152.801 301.813ZM169.943 307.01C164.139 305.645 158.635 303.843 153.506 301.594L153.054 302.627C158.25 304.905 163.821 306.728 169.685 308.108L169.943 307.01ZM172.76 317.653L170.363 307.43L169.265 307.688L171.663 317.91L172.76 317.653ZM179.528 323.017C176.301 323.017 173.497 320.795 172.76 317.653L171.663 317.91C172.519 321.562 175.777 324.144 179.528 324.144V323.017ZM200.968 323.017H179.528V324.144H200.968V323.017ZM207.653 317.971C206.801 320.958 204.073 323.017 200.968 323.017V324.144C204.576 324.144 207.748 321.751 208.737 318.28L207.653 317.971ZM209.855 310.247L207.653 317.971L208.737 318.28L210.939 310.556L209.855 310.247ZM235.784 305.189C227.897 307.619 219.347 309.161 210.355 309.839L210.44 310.963C219.505 310.279 228.139 308.724 236.116 306.267L235.784 305.189ZM237.651 312.03L236.505 305.629L235.395 305.827L236.541 312.228L237.651 312.03ZM244.494 317.756C241.127 317.756 238.244 315.344 237.651 312.03L236.541 312.228C237.231 316.08 240.581 318.883 244.494 318.883V317.756ZM257.101 317.756H244.494V318.883H257.101V317.756ZM263.856 312.45C263.097 315.564 260.307 317.756 257.101 317.756V318.883C260.827 318.883 264.069 316.336 264.951 312.717L263.856 312.45ZM271.063 282.864L263.856 312.45L264.951 312.717L272.158 283.131L271.063 282.864ZM284.988 240.535C284.988 257.961 279.9 271.925 271.174 282.641L272.048 283.353C280.955 272.416 286.116 258.193 286.116 240.535H284.988ZM271.302 196.76C279.944 207.363 284.988 221.682 284.988 240.535H286.116C286.116 221.473 281.011 206.887 272.176 196.048L271.302 196.76ZM263.191 163.854C267.406 165.367 269.785 170.034 270.909 176.205C272.025 182.336 271.86 189.734 271.178 196.346L272.3 196.462C272.986 189.803 273.162 182.284 272.018 176.003C270.882 169.763 268.398 164.525 263.572 162.793L263.191 163.854Z" fill="black"/>
<path d="M236.544 305.306C239.396 304.189 248.105 300.167 254.166 296.708C255.286 296.068 256.704 296.997 256.519 298.274L253.788 317.087C253.685 317.794 253.101 318.332 252.387 318.357C248.124 318.505 241.387 318.287 239.668 316.552C239.392 316.273 239.129 315.94 238.897 315.623C238.169 314.631 237.014 311.88 236.053 306.156C235.992 305.793 236.202 305.44 236.544 305.306Z" fill="black" stroke="black" stroke-width="0.751547" stroke-linecap="round"/>
<path d="M140.789 293.888C144.639 296.856 150.176 299.868 153.089 301.473C153.416 301.653 153.562 302.048 153.395 302.382C151.393 306.376 145.619 307.274 142.548 307.093C142.224 307.073 141.962 306.831 141.897 306.512L139.469 294.678C139.323 293.963 140.211 293.442 140.789 293.888Z" fill="#1B1B1B"/>
<path d="M170.19 203.333C170.19 190.181 168.505 170.254 179.771 164.939C191.037 159.625 200.969 174.402 208.143 185.296" stroke="black" stroke-width="1.12732" stroke-linejoin="round"/>
<ellipse cx="210.022" cy="210.849" rx="5.26083" ry="4.13351" transform="rotate(-104.328 210.022 210.849)" fill="black"/>
<ellipse cx="266.058" cy="207.199" rx="5.26083" ry="4.13351" transform="rotate(-104.328 266.058 207.199)" fill="black"/>
<g filter="url(#filter1_d_1781_6751)">
<rect x="216.41" y="223.568" width="55.6145" height="33.8196" rx="16.9098" transform="rotate(-6.9271 216.41 223.568)" fill="#FDFBF8"/>
<rect x="216.828" y="223.896" width="54.8629" height="33.0681" rx="16.534" transform="rotate(-6.9271 216.828 223.896)" stroke="black" stroke-width="0.751547"/>
</g>
<rect x="236.195" y="229.737" width="6.01237" height="15.8175" rx="3.00619" transform="rotate(-8.13517 236.195 229.737)" fill="#1B1B1B"/>
<rect x="249.478" y="227.482" width="6.01237" height="15.8175" rx="3.00619" transform="rotate(-8.13517 249.478 227.482)" fill="#1B1B1B"/>
<path d="M170.19 202.957C170.19 202.957 151.812 191.446 155.91 182.666C158.881 176.302 172.069 174.774 172.069 174.774C169.062 182.59 169.563 196.82 170.19 202.957Z" fill="#1B1B1B" stroke="black" stroke-width="0.751547"/>
</g>
<path d="M326 47.9397H74.1697C65.057 47.9397 57.6697 55.327 57.6697 64.4397V644.35C57.6697 653.462 65.057 660.85 74.1697 660.85H326C335.112 660.85 342.5 653.462 342.5 644.35V64.4397C342.5 55.327 335.112 47.9397 326 47.9397Z" stroke="black" stroke-width="3"/>
<rect x="137" y="62" width="126" height="19" rx="9.5" fill="black"/>
</g>
</g>
</g>
<defs>
<filter id="filter0_d_1781_6751" x="22.5" y="31.5" width="339" height="677" filterUnits="userSpaceOnUse" color-interpolation-filters="sRGB">
<feFlood flood-opacity="0" result="BackgroundImageFix"/>
<feColorMatrix in="SourceAlpha" type="matrix" values="0 0 0 0 0 0 0 0 0 0 0 0 0 0 0 0 0 0 127 0" result="hardAlpha"/>
<feOffset dx="-15" dy="20"/>
<feComposite in2="hardAlpha" operator="out"/>
<feColorMatrix type="matrix" values="0 0 0 0 0 0 0 0 0 0 0 0 0 0 0 0 0 0 1 0"/>
<feBlend mode="normal" in2="BackgroundImageFix" result="effect1_dropShadow_1781_6751"/>
<feBlend mode="normal" in="SourceGraphic" in2="effect1_dropShadow_1781_6751" result="shape"/>
</filter>
<filter id="filter1_d_1781_6751" x="215.318" y="218.775" width="58.465" height="39.4578" filterUnits="userSpaceOnUse" color-interpolation-filters="sRGB">
<feFlood flood-opacity="0" result="BackgroundImageFix"/>
<feColorMatrix in="SourceAlpha" type="matrix" values="0 0 0 0 0 0 0 0 0 0 0 0 0 0 0 0 0 0 127 0" result="hardAlpha"/>
<feOffset dx="-3.00619" dy="3.00619"/>
<feComposite in2="hardAlpha" operator="out"/>
<feColorMatrix type="matrix" values="0 0 0 0 0 0 0 0 0 0 0 0 0 0 0 0 0 0 1 0"/>
<feBlend mode="normal" in2="BackgroundImageFix" result="effect1_dropShadow_1781_6751"/>
<feBlend mode="normal" in="SourceGraphic" in2="effect1_dropShadow_1781_6751" result="shape"/>
</filter>
<clipPath id="clip0_1781_6751">
<rect width="382" height="521" fill="white"/>
</clipPath>
<clipPath id="clip1_1781_6751">
<rect x="58.585" y="48.8721" width="281.83" height="610.256" rx="10" fill="white"/>
</clipPath>
</defs>
</svg>
