<svg width="44" height="44" viewBox="0 0 44 44" fill="none" xmlns="http://www.w3.org/2000/svg">
<path d="M35.0124 13.2615L18.0022 17.0638C17.5645 17.1616 17.227 17.5103 17.1434 17.9509L15.6265 25.949C15.5149 26.5375 15.8846 27.1101 16.4668 27.2506L34.994 31.721C35.7009 31.8915 36.3811 31.3559 36.3811 30.6288V14.358C36.3811 13.6386 35.7145 13.1046 35.0124 13.2615Z" fill="#BFDCFF"/>
<path d="M17.9371 10.2591C14.28 13.4612 11.4066 15.0341 7.6189 15.0341C7.6189 26.7189 12.2254 30.1456 17.9371 33.741C23.4607 30.9321 28.5165 27.0559 28.5165 15.0341C24.9901 15.0341 21.5942 13.405 17.9371 10.2591Z" fill="#0081DE" stroke="#0081DE" stroke-width="2.24706" stroke-linejoin="round"/>
<mask id="mask0_938_14" style="mask-type:alpha" maskUnits="userSpaceOnUse" x="15" y="13" width="22" height="19">
<path d="M35.0124 13.2615L18.0022 17.0638C17.5645 17.1616 17.227 17.5103 17.1434 17.9509L15.6265 25.949C15.5149 26.5375 15.8846 27.1101 16.4668 27.2506L34.994 31.721C35.7009 31.8915 36.3811 31.3559 36.3811 30.6288V14.358C36.3811 13.6386 35.7145 13.1046 35.0124 13.2615Z" fill="#7AB7FF"/>
</mask>
<g mask="url(#mask0_938_14)">
<path d="M17.9369 10.2591C14.2798 13.4612 11.4064 15.0341 7.61865 15.0341C7.61865 26.7189 12.2251 30.1456 17.9369 33.741C23.4604 30.9321 28.5163 27.0559 28.5163 15.0341C24.9898 15.0341 21.594 13.405 17.9369 10.2591Z" fill="#76B5FF" stroke="#76B5FF" stroke-width="2.24706" stroke-linejoin="round"/>
</g>
<path fill-rule="evenodd" clip-rule="evenodd" d="M19.9051 22.4668C19.8865 22.3826 19.9182 22.2958 19.9832 22.2393C20.5993 21.7037 20.9888 20.9142 20.9888 20.0338C20.9888 18.4205 19.681 17.1126 18.0677 17.1126C16.4543 17.1126 15.1465 18.4205 15.1465 20.0338C15.1465 20.941 15.56 21.7515 16.2088 22.2873C16.2769 22.3436 16.3107 22.4325 16.2917 22.5188L15.3528 26.7715C15.3218 26.9117 15.4286 27.0446 15.5722 27.0446H20.636C20.7796 27.0446 20.8864 26.9117 20.8554 26.7715L19.9051 22.4668Z" fill="white"/>
</svg>
