<svg width="592" height="92" viewBox="0 0 592 92" fill="none" xmlns="http://www.w3.org/2000/svg">
<rect x="0.103516" y="0.767822" width="70" height="18" rx="9" fill="#D5DAEE"/>
<path d="M6.90252 13.7678V6.49509H9.56587C10.082 6.49509 10.5093 6.58032 10.8478 6.75078C11.1864 6.91886 11.4397 7.14732 11.6078 7.43615C11.7759 7.7226 11.8599 8.04576 11.8599 8.40561C11.8599 8.70864 11.8043 8.96432 11.693 9.17265C11.5817 9.37862 11.4326 9.54434 11.2456 9.66981C11.0609 9.79292 10.8573 9.88288 10.6348 9.9397V10.0107C10.8762 10.0226 11.1118 10.1007 11.3414 10.2451C11.5734 10.3871 11.7652 10.5896 11.9167 10.8523C12.0682 11.1151 12.144 11.4347 12.144 11.8111C12.144 12.1828 12.0564 12.5166 11.8812 12.8126C11.7084 13.1061 11.4409 13.3393 11.0787 13.5121C10.7164 13.6826 10.2536 13.7678 9.69016 13.7678H6.90252ZM7.99982 12.8268H9.58363C10.1092 12.8268 10.4856 12.725 10.7129 12.5214C10.9402 12.3178 11.0538 12.0633 11.0538 11.7579C11.0538 11.5282 10.9958 11.3175 10.8798 11.1258C10.7638 10.934 10.5981 10.7813 10.3826 10.6677C10.1696 10.554 9.91625 10.4972 9.62269 10.4972H7.99982V12.8268ZM7.99982 9.6414H9.46999C9.71621 9.6414 9.93756 9.59405 10.1341 9.49936C10.3329 9.40466 10.4904 9.27208 10.6064 9.10163C10.7247 8.92881 10.7839 8.72521 10.7839 8.49083C10.7839 8.19017 10.6786 7.93804 10.4679 7.73444C10.2572 7.53084 9.93401 7.42904 9.4984 7.42904H7.99982V9.6414ZM14.9476 13.8886C14.602 13.8886 14.2895 13.8246 14.0101 13.6968C13.7308 13.5666 13.5094 13.3784 13.3461 13.1322C13.1851 12.886 13.1046 12.5841 13.1046 12.2266C13.1046 11.9189 13.1638 11.6655 13.2821 11.4667C13.4005 11.2678 13.5603 11.1104 13.7615 10.9944C13.9628 10.8784 14.1877 10.7908 14.4363 10.7316C14.6848 10.6724 14.9382 10.6274 15.1962 10.5967C15.5229 10.5588 15.7881 10.528 15.9917 10.5043C16.1953 10.4783 16.3432 10.4369 16.4355 10.38C16.5279 10.3232 16.574 10.2309 16.574 10.103V10.0782C16.574 9.76806 16.4864 9.52777 16.3113 9.35731C16.1384 9.18686 15.8804 9.10163 15.5371 9.10163C15.1796 9.10163 14.8979 9.18094 14.6919 9.33956C14.4883 9.49581 14.3475 9.66981 14.2694 9.86157L13.2715 9.6343C13.3899 9.30286 13.5627 9.03534 13.79 8.83174C14.0196 8.62578 14.2836 8.47663 14.5819 8.3843C14.8801 8.2896 15.1938 8.24225 15.5229 8.24225C15.7407 8.24225 15.9715 8.2683 16.2154 8.32038C16.4616 8.37009 16.6912 8.46242 16.9043 8.59737C17.1197 8.73231 17.2961 8.92526 17.4334 9.1762C17.5707 9.42478 17.6394 9.74794 17.6394 10.1457V13.7678H16.6025V13.0221H16.5598C16.4912 13.1594 16.3882 13.2943 16.2509 13.4269C16.1136 13.5595 15.9372 13.6696 15.7218 13.7572C15.5063 13.8448 15.2483 13.8886 14.9476 13.8886ZM15.1784 13.0363C15.472 13.0363 15.723 12.9783 15.9313 12.8623C16.142 12.7463 16.3018 12.5948 16.4107 12.4077C16.522 12.2183 16.5776 12.0159 16.5776 11.8005V11.0974C16.5397 11.1352 16.4663 11.1708 16.3574 11.2039C16.2509 11.2347 16.129 11.2619 15.9917 11.2856C15.8543 11.3069 15.7206 11.327 15.5904 11.3459C15.4602 11.3625 15.3513 11.3767 15.2637 11.3886C15.0577 11.4146 14.8695 11.4584 14.699 11.52C14.531 11.5815 14.396 11.6703 14.2942 11.7863C14.1948 11.8999 14.1451 12.0514 14.1451 12.2408C14.1451 12.5036 14.2421 12.7025 14.4363 12.8374C14.6304 12.97 14.8778 13.0363 15.1784 13.0363ZM21.3512 13.8779C20.8233 13.8779 20.3687 13.7584 19.9876 13.5192C19.6088 13.2778 19.3176 12.9451 19.114 12.5214C18.9104 12.0976 18.8086 11.6123 18.8086 11.0654C18.8086 10.5114 18.9128 10.0226 19.1211 9.59879C19.3294 9.17265 19.623 8.84003 20.0018 8.60092C20.3806 8.36181 20.8268 8.24225 21.3406 8.24225C21.7549 8.24225 22.1242 8.3192 22.4485 8.47308C22.7728 8.62459 23.0344 8.83766 23.2333 9.11228C23.4345 9.3869 23.5541 9.70769 23.592 10.0746H22.5586C22.5018 9.81896 22.3716 9.59879 22.168 9.41413C21.9667 9.22947 21.6969 9.13714 21.3583 9.13714C21.0624 9.13714 20.8031 9.21527 20.5806 9.37152C20.3604 9.5254 20.1888 9.74557 20.0657 10.032C19.9426 10.3161 19.881 10.6523 19.881 11.0405C19.881 11.4383 19.9414 11.7816 20.0621 12.0704C20.1829 12.3592 20.3533 12.5829 20.5735 12.7415C20.796 12.9002 21.0576 12.9795 21.3583 12.9795C21.5595 12.9795 21.7418 12.9428 21.9052 12.8694C22.0709 12.7936 22.2094 12.6859 22.3207 12.5462C22.4343 12.4066 22.5136 12.2385 22.5586 12.042H23.592C23.5541 12.3947 23.4393 12.7096 23.2475 12.9866C23.0558 13.2636 22.7989 13.4814 22.4769 13.64C22.1573 13.7986 21.7821 13.8779 21.3512 13.8779ZM25.704 11.9177L25.6969 10.6215H25.8816L28.0549 8.31328H29.3262L26.8475 10.9411H26.6806L25.704 11.9177ZM24.7275 13.7678V6.49509H25.7892V13.7678H24.7275ZM28.1721 13.7678L26.2189 11.1755L26.9505 10.4333L29.4753 13.7678H28.1721ZM32.3562 15.9269C31.9229 15.9269 31.5501 15.8701 31.2376 15.7565C30.9274 15.6428 30.6741 15.4925 30.4776 15.3055C30.2811 15.1184 30.1344 14.9137 30.0373 14.6911L30.9499 14.3147C31.0138 14.4189 31.0991 14.5289 31.2056 14.645C31.3145 14.7633 31.4613 14.8639 31.646 14.9468C31.833 15.0297 32.0733 15.0711 32.3668 15.0711C32.7693 15.0711 33.1019 14.9728 33.3647 14.7763C33.6275 14.5822 33.7589 14.2721 33.7589 13.8459V12.7735H33.6914C33.6275 12.8895 33.5352 13.0185 33.4144 13.1606C33.296 13.3026 33.1327 13.4257 32.9244 13.5299C32.716 13.6341 32.445 13.6861 32.1112 13.6861C31.6803 13.6861 31.292 13.5855 30.9464 13.3843C30.6031 13.1807 30.3308 12.8812 30.1296 12.4859C29.9308 12.0881 29.8313 11.5993 29.8313 11.0192C29.8313 10.4392 29.9296 9.94206 30.1261 9.52777C30.3249 9.11347 30.5972 8.79623 30.9428 8.57606C31.2885 8.35352 31.6803 8.24225 32.1183 8.24225C32.4568 8.24225 32.7302 8.29907 32.9386 8.41271C33.1469 8.52398 33.3091 8.65419 33.4251 8.80333C33.5434 8.95248 33.6346 9.08387 33.6985 9.19751H33.7766V8.31328H34.8171V13.8886C34.8171 14.3573 34.7082 14.742 34.4904 15.0427C34.2726 15.3433 33.9779 15.5659 33.6062 15.7103C33.2369 15.8547 32.8202 15.9269 32.3562 15.9269ZM32.3455 12.8055C32.6509 12.8055 32.909 12.7344 33.1197 12.5924C33.3327 12.448 33.4937 12.242 33.6026 11.9745C33.7139 11.7046 33.7695 11.3815 33.7695 11.005C33.7695 10.6381 33.7151 10.3149 33.6062 10.0356C33.4973 9.75622 33.3375 9.53842 33.1268 9.38217C32.9161 9.22355 32.6557 9.14424 32.3455 9.14424C32.0259 9.14424 31.7596 9.2271 31.5465 9.39282C31.3335 9.55617 31.1725 9.77871 31.0636 10.0604C30.957 10.3422 30.9038 10.657 30.9038 11.005C30.9038 11.3625 30.9582 11.6762 31.0671 11.9461C31.176 12.216 31.337 12.4267 31.5501 12.5782C31.7655 12.7297 32.0307 12.8055 32.3455 12.8055ZM36.2411 13.7678V8.31328H37.2674V9.17975H37.3242C37.4237 8.88619 37.5988 8.65537 37.8498 8.48728C38.1031 8.31683 38.3896 8.2316 38.7092 8.2316C38.7754 8.2316 38.8536 8.23397 38.9435 8.2387C39.0359 8.24344 39.1081 8.24936 39.1602 8.25646V9.27208C39.1175 9.26025 39.0418 9.24723 38.9329 9.23302C38.824 9.21645 38.7151 9.20816 38.6062 9.20816C38.3552 9.20816 38.1315 9.26143 37.935 9.36796C37.7409 9.47213 37.587 9.61773 37.4734 9.80475C37.3597 9.98941 37.3029 10.2001 37.3029 10.4369V13.7678H36.2411ZM42.1813 13.8779C41.6699 13.8779 41.2237 13.7607 40.8425 13.5263C40.4614 13.292 40.1654 12.9641 39.9547 12.5427C39.744 12.1213 39.6387 11.6289 39.6387 11.0654C39.6387 10.4996 39.744 10.0048 39.9547 9.58103C40.1654 9.15726 40.4614 8.82819 40.8425 8.59382C41.2237 8.35944 41.6699 8.24225 42.1813 8.24225C42.6926 8.24225 43.1389 8.35944 43.5201 8.59382C43.9012 8.82819 44.1971 9.15726 44.4078 9.58103C44.6185 10.0048 44.7239 10.4996 44.7239 11.0654C44.7239 11.6289 44.6185 12.1213 44.4078 12.5427C44.1971 12.9641 43.9012 13.292 43.5201 13.5263C43.1389 13.7607 42.6926 13.8779 42.1813 13.8779ZM42.1848 12.9866C42.5163 12.9866 42.7909 12.899 43.0087 12.7238C43.2265 12.5486 43.3875 12.3154 43.4917 12.0242C43.5982 11.733 43.6515 11.4122 43.6515 11.0619C43.6515 10.7138 43.5982 10.3942 43.4917 10.103C43.3875 9.80949 43.2265 9.57393 43.0087 9.39637C42.7909 9.21882 42.5163 9.13004 42.1848 9.13004C41.851 9.13004 41.574 9.21882 41.3539 9.39637C41.1361 9.57393 40.9739 9.80949 40.8674 10.103C40.7632 10.3942 40.7111 10.7138 40.7111 11.0619C40.7111 11.4122 40.7632 11.733 40.8674 12.0242C40.9739 12.3154 41.1361 12.5486 41.3539 12.7238C41.574 12.899 41.851 12.9866 42.1848 12.9866ZM49.3643 11.5057V8.31328H50.4297V13.7678H49.3857V12.8232H49.3288C49.2034 13.1144 49.0021 13.3571 48.7251 13.5512C48.4505 13.743 48.1084 13.8388 47.6989 13.8388C47.3485 13.8388 47.0384 13.7619 46.7685 13.608C46.5009 13.4518 46.2902 13.2209 46.1364 12.9155C45.9848 12.6102 45.9091 12.2325 45.9091 11.7827V8.31328H46.9709V11.6549C46.9709 12.0266 47.0739 12.3225 47.2798 12.5427C47.4858 12.7629 47.7533 12.8729 48.0824 12.8729C48.2813 12.8729 48.4789 12.8232 48.6754 12.7238C48.8743 12.6244 49.0388 12.474 49.169 12.2728C49.3016 12.0716 49.3667 11.8159 49.3643 11.5057ZM52.9181 10.5292V13.7678H51.8564V8.31328H52.8755V9.20106H52.943C53.0685 8.91224 53.265 8.68023 53.5325 8.50504C53.8024 8.32985 54.1421 8.24225 54.5517 8.24225C54.9234 8.24225 55.2489 8.32038 55.5282 8.47663C55.8076 8.63051 56.0242 8.86015 56.1781 9.16555C56.332 9.47095 56.4089 9.84855 56.4089 10.2984V13.7678H55.3471V10.4262C55.3471 10.0308 55.2441 9.72189 55.0382 9.49936C54.8322 9.27445 54.5493 9.162 54.1895 9.162C53.9432 9.162 53.7243 9.21527 53.5325 9.3218C53.3431 9.42833 53.1928 9.58458 53.0815 9.79055C52.9726 9.99415 52.9181 10.2404 52.9181 10.5292ZM59.8748 13.8744C59.4345 13.8744 59.0415 13.7619 58.6958 13.537C58.3526 13.3097 58.0827 12.9866 57.8862 12.5675C57.6921 12.1461 57.595 11.6407 57.595 11.0512C57.595 10.4617 57.6932 9.95745 57.8897 9.53842C58.0886 9.11938 58.3609 8.7986 58.7065 8.57606C59.0521 8.35352 59.444 8.24225 59.8819 8.24225C60.2205 8.24225 60.4927 8.29907 60.6987 8.41271C60.907 8.52398 61.068 8.65419 61.1816 8.80333C61.2976 8.95248 61.3876 9.08387 61.4515 9.19751H61.5154V6.49509H62.5772V13.7678H61.5403V12.9191H61.4515C61.3876 13.0351 61.2953 13.1677 61.1745 13.3168C61.0562 13.466 60.8928 13.5962 60.6845 13.7075C60.4761 13.8187 60.2063 13.8744 59.8748 13.8744ZM60.1092 12.9688C60.4146 12.9688 60.6726 12.8883 60.8833 12.7273C61.0964 12.564 61.2574 12.3379 61.3663 12.0491C61.4776 11.7602 61.5332 11.4241 61.5332 11.0405C61.5332 10.6618 61.4788 10.3303 61.3699 10.0462C61.2609 9.76214 61.1011 9.54079 60.8904 9.38217C60.6797 9.22355 60.4193 9.14424 60.1092 9.14424C59.7896 9.14424 59.5233 9.2271 59.3102 9.39282C59.0971 9.55854 58.9361 9.78463 58.8272 10.0711C58.7207 10.3575 58.6674 10.6807 58.6674 11.0405C58.6674 11.4051 58.7219 11.733 58.8308 12.0242C58.9397 12.3154 59.1007 12.5462 59.3137 12.7167C59.5292 12.8848 59.7943 12.9688 60.1092 12.9688Z" fill="black" fill-opacity="0.25"/>
<rect x="0.603516" y="27.2678" width="63.9252" height="63.9252" rx="1.5" fill="#1B1B1B"/>
<path d="M16.037 54.5095V63.2368H14.9802V55.6175H14.9291L12.7984 57.0323V55.9584L14.9802 54.5095H16.037ZM18.7004 63.2368V54.5095H21.7515C22.3595 54.5095 22.8609 54.6147 23.2558 54.8249C23.6507 55.0323 23.9447 55.3121 24.1379 55.6644C24.3311 56.0138 24.4276 56.4016 24.4276 56.8277C24.4276 57.2027 24.3609 57.5124 24.2274 57.7567C24.0967 58.001 23.9234 58.1942 23.7075 58.3362C23.4944 58.4783 23.2629 58.5834 23.0129 58.6516V58.7368C23.2799 58.7539 23.5484 58.8476 23.8183 59.0181C24.0882 59.1885 24.314 59.4328 24.4958 59.751C24.6776 60.0692 24.7686 60.4584 24.7686 60.9186C24.7686 61.3561 24.6691 61.7496 24.4703 62.099C24.2714 62.4485 23.9575 62.7255 23.5285 62.93C23.0995 63.1345 22.5413 63.2368 21.8538 63.2368H18.7004ZM19.7572 62.2993H21.8538C22.5441 62.2993 23.0342 62.1658 23.324 61.8987C23.6166 61.6289 23.7629 61.3022 23.7629 60.9186C23.7629 60.6232 23.6876 60.3505 23.537 60.1005C23.3865 59.8476 23.172 59.6459 22.8936 59.4953C22.6151 59.3419 22.2856 59.2652 21.9049 59.2652H19.7572V62.2993ZM19.7572 58.3448H21.7174C22.0356 58.3448 22.3225 58.2823 22.5782 58.1573C22.8367 58.0323 23.0413 57.8561 23.1919 57.6289C23.3453 57.4016 23.422 57.1345 23.422 56.8277C23.422 56.4442 23.2884 56.1189 23.0214 55.8519C22.7544 55.582 22.3311 55.447 21.7515 55.447H19.7572V58.3448ZM29.4198 54.5095V63.2368H28.363V55.6175H28.3119L26.1812 57.0323V55.9584L28.363 54.5095H29.4198ZM32.0832 63.2368V54.5095H35.1343C35.7423 54.5095 36.2437 54.6147 36.6386 54.8249C37.0335 55.0323 37.3275 55.3121 37.5207 55.6644C37.7139 56.0138 37.8105 56.4016 37.8105 56.8277C37.8105 57.2027 37.7437 57.5124 37.6102 57.7567C37.4795 58.001 37.3062 58.1942 37.0903 58.3362C36.8772 58.4783 36.6457 58.5834 36.3957 58.6516V58.7368C36.6627 58.7539 36.9312 58.8476 37.2011 59.0181C37.471 59.1885 37.6968 59.4328 37.8786 59.751C38.0605 60.0692 38.1514 60.4584 38.1514 60.9186C38.1514 61.3561 38.0519 61.7496 37.8531 62.099C37.6542 62.4485 37.3403 62.7255 36.9113 62.93C36.4823 63.1345 35.9241 63.2368 35.2366 63.2368H32.0832ZM33.14 62.2993H35.2366C35.9269 62.2993 36.417 62.1658 36.7068 61.8987C36.9994 61.6289 37.1457 61.3022 37.1457 60.9186C37.1457 60.6232 37.0704 60.3505 36.9198 60.1005C36.7693 59.8476 36.5548 59.6459 36.2764 59.4953C35.998 59.3419 35.6684 59.2652 35.2877 59.2652H33.14V62.2993ZM33.14 58.3448H35.1002C35.4184 58.3448 35.7053 58.2823 35.961 58.1573C36.2195 58.0323 36.4241 57.8561 36.5747 57.6289C36.7281 57.4016 36.8048 57.1345 36.8048 56.8277C36.8048 56.4442 36.6713 56.1189 36.4042 55.8519C36.1372 55.582 35.7139 55.447 35.1343 55.447H33.14V58.3448ZM42.8026 54.5095V63.2368H41.7458V55.6175H41.6947L39.564 57.0323V55.9584L41.7458 54.5095H42.8026ZM45.466 63.2368V54.5095H48.5171C49.1251 54.5095 49.6265 54.6147 50.0214 54.8249C50.4163 55.0323 50.7103 55.3121 50.9035 55.6644C51.0967 56.0138 51.1933 56.4016 51.1933 56.8277C51.1933 57.2027 51.1265 57.5124 50.993 57.7567C50.8623 58.001 50.689 58.1942 50.4731 58.3362C50.26 58.4783 50.0285 58.5834 49.7785 58.6516V58.7368C50.0455 58.7539 50.314 58.8476 50.5839 59.0181C50.8538 59.1885 51.0796 59.4328 51.2615 59.751C51.4433 60.0692 51.5342 60.4584 51.5342 60.9186C51.5342 61.3561 51.4347 61.7496 51.2359 62.099C51.037 62.4485 50.7231 62.7255 50.2941 62.93C49.8651 63.1345 49.3069 63.2368 48.6194 63.2368H45.466ZM46.5228 62.2993H48.6194C49.3097 62.2993 49.7998 62.1658 50.0896 61.8987C50.3822 61.6289 50.5285 61.3022 50.5285 60.9186C50.5285 60.6232 50.4532 60.3505 50.3026 60.1005C50.1521 59.8476 49.9376 59.6459 49.6592 59.4953C49.3808 59.3419 49.0512 59.2652 48.6705 59.2652H46.5228V62.2993ZM46.5228 58.3448H48.483C48.8012 58.3448 49.0882 58.2823 49.3438 58.1573C49.6024 58.0323 49.8069 57.8561 49.9575 57.6289C50.1109 57.4016 50.1876 57.1345 50.1876 56.8277C50.1876 56.4442 50.0541 56.1189 49.787 55.8519C49.52 55.582 49.0967 55.447 48.5171 55.447H46.5228V58.3448Z" fill="white"/>
<rect x="0.603516" y="27.2678" width="63.9252" height="63.9252" rx="1.5" stroke="black"/>
<rect x="73.5283" y="27.2678" width="63.9252" height="63.9252" rx="1.5" fill="#282929"/>
<path d="M83.9317 63.2368V62.4698L86.8124 59.3164C87.1505 58.947 87.4289 58.626 87.6476 58.3533C87.8664 58.0777 88.0283 57.8192 88.1334 57.5777C88.2414 57.3334 88.2954 57.0777 88.2954 56.8107C88.2954 56.5039 88.2215 56.2382 88.0738 56.0138C87.9289 55.7894 87.73 55.6161 87.4772 55.4939C87.2243 55.3718 86.9403 55.3107 86.6249 55.3107C86.2897 55.3107 85.9971 55.3803 85.7471 55.5195C85.4999 55.6559 85.3081 55.8476 85.1718 56.0948C85.0383 56.3419 84.9715 56.6317 84.9715 56.9641H83.9658C83.9658 56.4527 84.0837 56.0039 84.3195 55.6175C84.5553 55.2311 84.8763 54.93 85.2826 54.7141C85.6917 54.4982 86.1505 54.3902 86.659 54.3902C87.1704 54.3902 87.6235 54.4982 88.0184 54.7141C88.4133 54.93 88.7229 55.2212 88.9474 55.5877C89.1718 55.9541 89.284 56.3618 89.284 56.8107C89.284 57.1317 89.2258 57.4456 89.1093 57.7524C88.9957 58.0564 88.7968 58.3959 88.5127 58.7709C88.2314 59.1431 87.8408 59.5976 87.3408 60.1345L85.3806 62.2311V62.2993H89.4374V63.2368H83.9317ZM93.9928 63.3561C93.4076 63.3561 92.8905 63.2524 92.4417 63.0451C91.9956 62.8348 91.6476 62.5465 91.3976 62.18C91.1476 61.8107 91.0241 61.3902 91.0269 60.9186C91.0241 60.5493 91.0965 60.2084 91.2442 59.8959C91.392 59.5806 91.5937 59.3178 91.8493 59.1076C92.1079 58.8945 92.3962 58.7595 92.7144 58.7027V58.6516C92.2968 58.5436 91.9644 58.3093 91.7172 57.9485C91.4701 57.5848 91.3479 57.1715 91.3508 56.7084C91.3479 56.2652 91.4601 55.8689 91.6874 55.5195C91.9147 55.1701 92.2272 54.8945 92.6249 54.6928C93.0255 54.4911 93.4814 54.3902 93.9928 54.3902C94.4985 54.3902 94.9502 54.4911 95.3479 54.6928C95.7456 54.8945 96.0581 55.1701 96.2854 55.5195C96.5155 55.8689 96.632 56.2652 96.6349 56.7084C96.632 57.1715 96.5056 57.5848 96.2556 57.9485C96.0084 58.3093 95.6803 58.5436 95.2712 58.6516V58.7027C95.5866 58.7595 95.8706 58.8945 96.1235 59.1076C96.3763 59.3178 96.578 59.5806 96.7286 59.8959C96.8792 60.2084 96.9559 60.5493 96.9587 60.9186C96.9559 61.3902 96.828 61.8107 96.5752 62.18C96.3252 62.5465 95.9772 62.8348 95.5312 63.0451C95.088 63.2524 94.5752 63.3561 93.9928 63.3561ZM93.9928 62.4186C94.3877 62.4186 94.7286 62.3547 95.0155 62.2269C95.3025 62.099 95.5241 61.9186 95.6803 61.6857C95.8366 61.4527 95.9161 61.18 95.9189 60.8675C95.9161 60.538 95.8309 60.2468 95.6633 59.9939C95.4957 59.7411 95.267 59.5422 94.9772 59.3973C94.6903 59.2524 94.3621 59.18 93.9928 59.18C93.6206 59.18 93.2883 59.2524 92.9956 59.3973C92.7059 59.5422 92.4772 59.7411 92.3096 59.9939C92.1448 60.2468 92.0638 60.538 92.0667 60.8675C92.0638 61.18 92.1391 61.4527 92.2925 61.6857C92.4488 61.9186 92.6718 62.099 92.9616 62.2269C93.2513 62.3547 93.5951 62.4186 93.9928 62.4186ZM93.9928 58.2766C94.3053 58.2766 94.5823 58.2141 94.8238 58.0891C95.0681 57.9641 95.2599 57.7894 95.3991 57.5649C95.5383 57.3405 95.6093 57.0777 95.6121 56.7766C95.6093 56.4811 95.5397 56.224 95.4033 56.0053C95.267 55.7837 95.078 55.6132 94.8366 55.4939C94.5951 55.3718 94.3138 55.3107 93.9928 55.3107C93.6661 55.3107 93.3806 55.3718 93.1363 55.4939C92.892 55.6132 92.703 55.7837 92.5695 56.0053C92.436 56.224 92.3706 56.4811 92.3735 56.7766C92.3706 57.0777 92.4374 57.3405 92.5738 57.5649C92.713 57.7894 92.9047 57.9641 93.1491 58.0891C93.3934 58.2141 93.6746 58.2766 93.9928 58.2766ZM98.5919 63.2368V62.4698L101.473 59.3164C101.811 58.947 102.089 58.626 102.308 58.3533C102.527 58.0777 102.688 57.8192 102.794 57.5777C102.902 57.3334 102.956 57.0777 102.956 56.8107C102.956 56.5039 102.882 56.2382 102.734 56.0138C102.589 55.7894 102.39 55.6161 102.137 55.4939C101.884 55.3718 101.6 55.3107 101.285 55.3107C100.95 55.3107 100.657 55.3803 100.407 55.5195C100.16 55.6559 99.9683 55.8476 99.8319 56.0948C99.6984 56.3419 99.6317 56.6317 99.6317 56.9641H98.626C98.626 56.4527 98.7439 56.0039 98.9797 55.6175C99.2155 55.2311 99.5365 54.93 99.9427 54.7141C100.352 54.4982 100.811 54.3902 101.319 54.3902C101.831 54.3902 102.284 54.4982 102.679 54.7141C103.073 54.93 103.383 55.2212 103.608 55.5877C103.832 55.9541 103.944 56.3618 103.944 56.8107C103.944 57.1317 103.886 57.4456 103.769 57.7524C103.656 58.0564 103.457 58.3959 103.173 58.7709C102.892 59.1431 102.501 59.5976 102.001 60.1345L100.041 62.2311V62.2993H104.098V63.2368H98.5919ZM108.636 54.3902C108.994 54.3931 109.352 54.4612 109.71 54.5948C110.068 54.7283 110.394 54.9499 110.69 55.2595C110.985 55.5664 111.223 55.9854 111.402 56.5166C111.581 57.0479 111.67 57.7141 111.67 58.5152C111.67 59.2908 111.596 59.9797 111.448 60.582C111.304 61.1814 111.093 61.6871 110.818 62.099C110.545 62.511 110.213 62.8235 109.821 63.0365C109.431 63.2496 108.991 63.3561 108.5 63.3561C108.011 63.3561 107.575 63.2595 107.191 63.0664C106.811 62.8703 106.498 62.599 106.254 62.2524C106.012 61.903 105.858 61.4982 105.789 61.038H106.829C106.923 61.4385 107.109 61.7695 107.387 62.0309C107.669 62.2894 108.039 62.4186 108.5 62.4186C109.173 62.4186 109.704 62.1246 110.093 61.5365C110.485 60.9485 110.681 60.1175 110.681 59.0436H110.613C110.454 59.2823 110.265 59.4882 110.046 59.6615C109.828 59.8348 109.585 59.9684 109.318 60.0621C109.051 60.1559 108.767 60.2027 108.465 60.2027C107.965 60.2027 107.507 60.0791 107.089 59.832C106.674 59.582 106.342 59.2397 106.092 58.805C105.845 58.3675 105.721 57.8675 105.721 57.305C105.721 56.7709 105.84 56.2823 106.079 55.8391C106.321 55.3931 106.659 55.038 107.093 54.7737C107.531 54.5095 108.045 54.3817 108.636 54.3902ZM108.636 55.3277C108.278 55.3277 107.956 55.4172 107.669 55.5962C107.384 55.7723 107.159 56.011 106.991 56.3121C106.826 56.6104 106.744 56.9414 106.744 57.305C106.744 57.6686 106.823 57.9996 106.983 58.2979C107.144 58.5934 107.365 58.8291 107.643 59.0053C107.924 59.1786 108.244 59.2652 108.602 59.2652C108.872 59.2652 109.123 59.2127 109.356 59.1076C109.589 58.9996 109.792 58.8533 109.965 58.6686C110.142 58.4811 110.279 58.2695 110.379 58.0337C110.478 57.7951 110.528 57.5465 110.528 57.288C110.528 56.947 110.446 56.6274 110.281 56.3291C110.119 56.0309 109.894 55.7894 109.608 55.6047C109.323 55.4201 109 55.3277 108.636 55.3277ZM113.346 63.2368V62.4698L116.226 59.3164C116.565 58.947 116.843 58.626 117.062 58.3533C117.28 58.0777 117.442 57.8192 117.547 57.5777C117.655 57.3334 117.709 57.0777 117.709 56.8107C117.709 56.5039 117.636 56.2382 117.488 56.0138C117.343 55.7894 117.144 55.6161 116.891 55.4939C116.638 55.3718 116.354 55.3107 116.039 55.3107C115.704 55.3107 115.411 55.3803 115.161 55.5195C114.914 55.6559 114.722 55.8476 114.586 56.0948C114.452 56.3419 114.386 56.6317 114.386 56.9641H113.38C113.38 56.4527 113.498 56.0039 113.734 55.6175C113.969 55.2311 114.29 54.93 114.697 54.7141C115.106 54.4982 115.565 54.3902 116.073 54.3902C116.584 54.3902 117.038 54.4982 117.432 54.7141C117.827 54.93 118.137 55.2212 118.361 55.5877C118.586 55.9541 118.698 56.3618 118.698 56.8107C118.698 57.1317 118.64 57.4456 118.523 57.7524C118.41 58.0564 118.211 58.3959 117.927 58.7709C117.646 59.1431 117.255 59.5976 116.755 60.1345L114.795 62.2311V62.2993H118.851V63.2368H113.346ZM123.39 54.3902C123.748 54.3931 124.106 54.4612 124.464 54.5948C124.822 54.7283 125.148 54.9499 125.444 55.2595C125.739 55.5664 125.976 55.9854 126.155 56.5166C126.334 57.0479 126.424 57.7141 126.424 58.5152C126.424 59.2908 126.35 59.9797 126.202 60.582C126.057 61.1814 125.847 61.6871 125.572 62.099C125.299 62.511 124.967 62.8235 124.574 63.0365C124.185 63.2496 123.745 63.3561 123.253 63.3561C122.765 63.3561 122.329 63.2595 121.945 63.0664C121.565 62.8703 121.252 62.599 121.008 62.2524C120.766 61.903 120.611 61.4982 120.543 61.038H121.583C121.677 61.4385 121.863 61.7695 122.141 62.0309C122.422 62.2894 122.793 62.4186 123.253 62.4186C123.927 62.4186 124.458 62.1246 124.847 61.5365C125.239 60.9485 125.435 60.1175 125.435 59.0436H125.367C125.208 59.2823 125.019 59.4882 124.8 59.6615C124.582 59.8348 124.339 59.9684 124.072 60.0621C123.805 60.1559 123.521 60.2027 123.219 60.2027C122.719 60.2027 122.261 60.0791 121.843 59.832C121.428 59.582 121.096 59.2397 120.846 58.805C120.599 58.3675 120.475 57.8675 120.475 57.305C120.475 56.7709 120.594 56.2823 120.833 55.8391C121.074 55.3931 121.413 55.038 121.847 54.7737C122.285 54.5095 122.799 54.3817 123.39 54.3902ZM123.39 55.3277C123.032 55.3277 122.709 55.4172 122.422 55.5962C122.138 55.7723 121.913 56.011 121.745 56.3121C121.58 56.6104 121.498 56.9414 121.498 57.305C121.498 57.6686 121.577 57.9996 121.736 58.2979C121.898 58.5934 122.119 58.8291 122.397 59.0053C122.678 59.1786 122.998 59.2652 123.356 59.2652C123.626 59.2652 123.877 59.2127 124.11 59.1076C124.343 58.9996 124.546 58.8533 124.719 58.6686C124.896 58.4811 125.033 58.2695 125.133 58.0337C125.232 57.7951 125.282 57.5465 125.282 57.288C125.282 56.947 125.199 56.6274 125.035 56.3291C124.873 56.0309 124.648 55.7894 124.361 55.6047C124.077 55.4201 123.753 55.3277 123.39 55.3277Z" fill="white"/>
<rect x="73.5283" y="27.2678" width="63.9252" height="63.9252" rx="1.5" stroke="black"/>
<rect x="146.454" y="27.2678" width="63.9252" height="63.9252" rx="1.5" fill="#2D2F30"/>
<path d="M155.71 63.2368V62.4698L158.591 59.3164C158.929 58.947 159.207 58.626 159.426 58.3533C159.645 58.0777 159.807 57.8192 159.912 57.5777C160.02 57.3334 160.074 57.0777 160.074 56.8107C160.074 56.5039 160 56.2382 159.852 56.0138C159.707 55.7894 159.508 55.6161 159.256 55.4939C159.003 55.3718 158.719 55.3107 158.403 55.3107C158.068 55.3107 157.775 55.3803 157.525 55.5195C157.278 55.6559 157.086 55.8476 156.95 56.0948C156.817 56.3419 156.75 56.6317 156.75 56.9641H155.744C155.744 56.4527 155.862 56.0039 156.098 55.6175C156.334 55.2311 156.655 54.93 157.061 54.7141C157.47 54.4982 157.929 54.3902 158.437 54.3902C158.949 54.3902 159.402 54.4982 159.797 54.7141C160.192 54.93 160.501 55.2212 160.726 55.5877C160.95 55.9541 161.062 56.3618 161.062 56.8107C161.062 57.1317 161.004 57.4456 160.888 57.7524C160.774 58.0564 160.575 58.3959 160.291 58.7709C160.01 59.1431 159.619 59.5976 159.119 60.1345L157.159 62.2311V62.2993H161.216V63.2368H155.71ZM165.822 63.2368H163.129V54.5095H165.942C166.788 54.5095 167.513 54.6843 168.115 55.0337C168.717 55.3803 169.179 55.8789 169.5 56.5294C169.821 57.1772 169.981 57.9527 169.981 58.8561C169.981 59.7652 169.819 60.5479 169.496 61.2041C169.172 61.8576 168.7 62.3604 168.081 62.7127C167.461 63.0621 166.709 63.2368 165.822 63.2368ZM164.186 62.2993H165.754C166.476 62.2993 167.074 62.1601 167.548 61.8817C168.023 61.6033 168.376 61.207 168.609 60.6928C168.842 60.1786 168.959 59.5664 168.959 58.8561C168.959 58.1516 168.844 57.5451 168.613 57.0365C168.383 56.5252 168.04 56.1331 167.582 55.8604C167.125 55.5848 166.555 55.447 165.873 55.447H164.186V62.2993ZM171.601 63.2368V62.4698L174.481 59.3164C174.819 58.947 175.098 58.626 175.317 58.3533C175.535 58.0777 175.697 57.8192 175.802 57.5777C175.91 57.3334 175.964 57.0777 175.964 56.8107C175.964 56.5039 175.89 56.2382 175.743 56.0138C175.598 55.7894 175.399 55.6161 175.146 55.4939C174.893 55.3718 174.609 55.3107 174.294 55.3107C173.959 55.3107 173.666 55.3803 173.416 55.5195C173.169 55.6559 172.977 55.8476 172.841 56.0948C172.707 56.3419 172.64 56.6317 172.64 56.9641H171.635C171.635 56.4527 171.753 56.0039 171.988 55.6175C172.224 55.2311 172.545 54.93 172.952 54.7141C173.361 54.4982 173.819 54.3902 174.328 54.3902C174.839 54.3902 175.292 54.4982 175.687 54.7141C176.082 54.93 176.392 55.2212 176.616 55.5877C176.841 55.9541 176.953 56.3618 176.953 56.8107C176.953 57.1317 176.895 57.4456 176.778 57.7524C176.665 58.0564 176.466 58.3959 176.182 58.7709C175.9 59.1431 175.51 59.5976 175.01 60.1345L173.05 62.2311V62.2993H177.106V63.2368H171.601ZM179.02 63.2368V54.5095H184.253V55.447H180.077V58.3959H183.861V59.3334H180.077V63.2368H179.02ZM188.858 63.3561C188.296 63.3561 187.794 63.2595 187.354 63.0664C186.916 62.8732 186.568 62.6047 186.31 62.261C186.054 61.9144 185.915 61.5124 185.892 61.055H186.966C186.989 61.3362 187.085 61.5791 187.256 61.7837C187.426 61.9854 187.649 62.1416 187.925 62.2524C188.2 62.3632 188.506 62.4186 188.841 62.4186C189.216 62.4186 189.548 62.3533 189.838 62.2226C190.128 62.0919 190.355 61.9101 190.52 61.6772C190.685 61.4442 190.767 61.1743 190.767 60.8675C190.767 60.5465 190.688 60.2638 190.529 60.0195C190.369 59.7723 190.137 59.5791 189.83 59.4399C189.523 59.3007 189.148 59.2311 188.705 59.2311H188.006V58.2936H188.705C189.051 58.2936 189.355 58.2311 189.617 58.1061C189.881 57.9811 190.087 57.805 190.235 57.5777C190.385 57.3505 190.46 57.0834 190.46 56.7766C190.46 56.4811 190.395 56.224 190.264 56.0053C190.134 55.7865 189.949 55.6161 189.71 55.4939C189.475 55.3718 189.196 55.3107 188.875 55.3107C188.574 55.3107 188.29 55.3661 188.023 55.4769C187.759 55.5848 187.543 55.7425 187.375 55.9499C187.208 56.1544 187.117 56.4016 187.102 56.6914H186.08C186.097 56.234 186.235 55.8334 186.493 55.4897C186.752 55.1431 187.09 54.8732 187.507 54.68C187.928 54.4868 188.389 54.3902 188.892 54.3902C189.432 54.3902 189.895 54.4996 190.281 54.7184C190.668 54.9343 190.965 55.2198 191.172 55.5749C191.379 55.93 191.483 56.3135 191.483 56.7255C191.483 57.2169 191.354 57.636 191.095 57.9826C190.84 58.3291 190.492 58.5692 190.051 58.7027V58.7709C190.602 58.8618 191.033 59.0962 191.343 59.474C191.652 59.849 191.807 60.3135 191.807 60.8675C191.807 61.3419 191.678 61.7681 191.419 62.1459C191.164 62.5209 190.814 62.8164 190.371 63.0323C189.928 63.2482 189.423 63.3561 188.858 63.3561ZM196.396 63.3561C195.754 63.3561 195.208 63.1814 194.756 62.832C194.304 62.4797 193.959 61.9698 193.72 61.3022C193.482 60.6317 193.362 59.822 193.362 58.8732C193.362 57.93 193.482 57.1246 193.72 56.457C193.962 55.7865 194.308 55.2752 194.76 54.9229C195.215 54.5678 195.76 54.3902 196.396 54.3902C197.033 54.3902 197.577 54.5678 198.029 54.9229C198.483 55.2752 198.83 55.7865 199.068 56.457C199.31 57.1246 199.431 57.93 199.431 58.8732C199.431 59.822 199.311 60.6317 199.073 61.3022C198.834 61.9698 198.489 62.4797 198.037 62.832C197.585 63.1814 197.039 63.3561 196.396 63.3561ZM196.396 62.4186C197.033 62.4186 197.527 62.1118 197.879 61.4982C198.232 60.8845 198.408 60.0095 198.408 58.8732C198.408 58.1175 198.327 57.474 198.165 56.9428C198.006 56.4115 197.776 56.0067 197.475 55.7283C197.176 55.4499 196.817 55.3107 196.396 55.3107C195.766 55.3107 195.273 55.6218 194.918 56.2439C194.563 56.8632 194.385 57.7397 194.385 58.8732C194.385 59.6289 194.465 60.2709 194.624 60.7993C194.783 61.3277 195.012 61.7297 195.31 62.0053C195.611 62.2809 195.973 62.4186 196.396 62.4186Z" fill="white"/>
<rect x="146.454" y="27.2678" width="63.9252" height="63.9252" rx="1.5" stroke="black"/>
<rect x="219.379" y="27.2678" width="63.9252" height="63.9252" rx="1.5" fill="#3C3D3D"/>
<path d="M231.583 63.3561C231.02 63.3561 230.519 63.2595 230.078 63.0664C229.641 62.8732 229.293 62.6047 229.034 62.261C228.779 61.9144 228.64 61.5124 228.617 61.055H229.691C229.713 61.3362 229.81 61.5791 229.98 61.7837C230.151 61.9854 230.374 62.1416 230.65 62.2524C230.925 62.3632 231.23 62.4186 231.566 62.4186C231.941 62.4186 232.273 62.3533 232.563 62.2226C232.853 62.0919 233.08 61.9101 233.245 61.6772C233.409 61.4442 233.492 61.1743 233.492 60.8675C233.492 60.5465 233.412 60.2638 233.253 60.0195C233.094 59.7723 232.861 59.5791 232.554 59.4399C232.248 59.3007 231.873 59.2311 231.429 59.2311H230.73V58.2936H231.429C231.776 58.2936 232.08 58.2311 232.341 58.1061C232.605 57.9811 232.811 57.805 232.959 57.5777C233.11 57.3505 233.185 57.0834 233.185 56.7766C233.185 56.4811 233.12 56.224 232.989 56.0053C232.858 55.7865 232.674 55.6161 232.435 55.4939C232.199 55.3718 231.921 55.3107 231.6 55.3107C231.299 55.3107 231.015 55.3661 230.748 55.4769C230.483 55.5848 230.267 55.7425 230.1 55.9499C229.932 56.1544 229.841 56.4016 229.827 56.6914H228.804C228.821 56.234 228.959 55.8334 229.218 55.4897C229.476 55.1431 229.814 54.8732 230.232 54.68C230.652 54.4868 231.114 54.3902 231.617 54.3902C232.157 54.3902 232.62 54.4996 233.006 54.7184C233.392 54.9343 233.689 55.2198 233.897 55.5749C234.104 55.93 234.208 56.3135 234.208 56.7255C234.208 57.2169 234.078 57.636 233.82 57.9826C233.564 58.3291 233.216 58.5692 232.776 58.7027V58.7709C233.327 58.8618 233.757 59.0962 234.067 59.474C234.377 59.849 234.532 60.3135 234.532 60.8675C234.532 61.3419 234.402 61.7681 234.144 62.1459C233.888 62.5209 233.539 62.8164 233.096 63.0323C232.652 63.2482 232.148 63.3561 231.583 63.3561ZM243.451 57.2368H242.394C242.331 56.9328 242.222 56.6658 242.066 56.4357C241.912 56.2056 241.725 56.0124 241.503 55.8561C241.284 55.697 241.042 55.5777 240.775 55.4982C240.507 55.4186 240.229 55.3789 239.939 55.3789C239.411 55.3789 238.932 55.5124 238.503 55.7794C238.077 56.0465 237.738 56.4399 237.485 56.9598C237.235 57.4797 237.11 58.1175 237.11 58.8732C237.11 59.6289 237.235 60.2666 237.485 60.7865C237.738 61.3064 238.077 61.6999 238.503 61.9669C238.932 62.234 239.411 62.3675 239.939 62.3675C240.229 62.3675 240.507 62.3277 240.775 62.2482C241.042 62.1686 241.284 62.0507 241.503 61.8945C241.725 61.7354 241.912 61.5408 242.066 61.3107C242.222 61.0777 242.331 60.8107 242.394 60.5095H243.451C243.371 60.9556 243.226 61.3547 243.016 61.707C242.806 62.0593 242.544 62.359 242.232 62.6061C241.919 62.8505 241.569 63.0365 241.179 63.1644C240.793 63.2922 240.38 63.3561 239.939 63.3561C239.195 63.3561 238.533 63.1743 237.953 62.8107C237.374 62.447 236.918 61.93 236.586 61.2595C236.253 60.5891 236.087 59.7936 236.087 58.8732C236.087 57.9527 236.253 57.1573 236.586 56.4868C236.918 55.8164 237.374 55.2993 237.953 54.9357C238.533 54.572 239.195 54.3902 239.939 54.3902C240.38 54.3902 240.793 54.4541 241.179 54.582C241.569 54.7098 241.919 54.8973 242.232 55.1445C242.544 55.3888 242.806 55.6871 243.016 56.0394C243.226 56.3888 243.371 56.788 243.451 57.2368ZM247.954 63.3561C247.391 63.3561 246.89 63.2595 246.45 63.0664C246.012 62.8732 245.664 62.6047 245.406 62.261C245.15 61.9144 245.011 61.5124 244.988 61.055H246.062C246.085 61.3362 246.181 61.5791 246.352 61.7837C246.522 61.9854 246.745 62.1416 247.021 62.2524C247.296 62.3632 247.602 62.4186 247.937 62.4186C248.312 62.4186 248.644 62.3533 248.934 62.2226C249.224 62.0919 249.451 61.9101 249.616 61.6772C249.781 61.4442 249.863 61.1743 249.863 60.8675C249.863 60.5465 249.783 60.2638 249.624 60.0195C249.465 59.7723 249.232 59.5791 248.925 59.4399C248.619 59.3007 248.244 59.2311 247.8 59.2311H247.102V58.2936H247.8C248.147 58.2936 248.451 58.2311 248.712 58.1061C248.977 57.9811 249.183 57.805 249.33 57.5777C249.481 57.3505 249.556 57.0834 249.556 56.7766C249.556 56.4811 249.491 56.224 249.36 56.0053C249.229 55.7865 249.045 55.6161 248.806 55.4939C248.57 55.3718 248.292 55.3107 247.971 55.3107C247.67 55.3107 247.386 55.3661 247.119 55.4769C246.854 55.5848 246.638 55.7425 246.471 55.9499C246.303 56.1544 246.212 56.4016 246.198 56.6914H245.175C245.192 56.234 245.33 55.8334 245.589 55.4897C245.847 55.1431 246.185 54.8732 246.603 54.68C247.023 54.4868 247.485 54.3902 247.988 54.3902C248.528 54.3902 248.991 54.4996 249.377 54.7184C249.763 54.9343 250.06 55.2198 250.268 55.5749C250.475 55.93 250.579 56.3135 250.579 56.7255C250.579 57.2169 250.45 57.636 250.191 57.9826C249.935 58.3291 249.587 58.5692 249.147 58.7027V58.7709C249.698 58.8618 250.129 59.0962 250.438 59.474C250.748 59.849 250.903 60.3135 250.903 60.8675C250.903 61.3419 250.773 61.7681 250.515 62.1459C250.259 62.5209 249.91 62.8164 249.467 63.0323C249.023 63.2482 248.519 63.3561 247.954 63.3561ZM255.492 63.2368H252.799V54.5095H255.612C256.458 54.5095 257.183 54.6843 257.785 55.0337C258.387 55.3803 258.849 55.8789 259.17 56.5294C259.491 57.1772 259.651 57.9527 259.651 58.8561C259.651 59.7652 259.489 60.5479 259.165 61.2041C258.842 61.8576 258.37 62.3604 257.751 62.7127C257.131 63.0621 256.379 63.2368 255.492 63.2368ZM253.856 62.2993H255.424C256.146 62.2993 256.744 62.1601 257.218 61.8817C257.692 61.6033 258.046 61.207 258.279 60.6928C258.512 60.1786 258.629 59.5664 258.629 58.8561C258.629 58.1516 258.513 57.5451 258.283 57.0365C258.053 56.5252 257.71 56.1331 257.252 55.8604C256.795 55.5848 256.225 55.447 255.543 55.447H253.856V62.2993ZM264.219 63.3561C263.657 63.3561 263.156 63.2595 262.715 63.0664C262.278 62.8732 261.93 62.6047 261.671 62.261C261.415 61.9144 261.276 61.5124 261.254 61.055H262.327C262.35 61.3362 262.447 61.5791 262.617 61.7837C262.788 61.9854 263.011 62.1416 263.286 62.2524C263.562 62.3632 263.867 62.4186 264.202 62.4186C264.577 62.4186 264.91 62.3533 265.2 62.2226C265.489 62.0919 265.717 61.9101 265.881 61.6772C266.046 61.4442 266.129 61.1743 266.129 60.8675C266.129 60.5465 266.049 60.2638 265.89 60.0195C265.731 59.7723 265.498 59.5791 265.191 59.4399C264.884 59.3007 264.509 59.2311 264.066 59.2311H263.367V58.2936H264.066C264.413 58.2936 264.717 58.2311 264.978 58.1061C265.242 57.9811 265.448 57.805 265.596 57.5777C265.746 57.3505 265.822 57.0834 265.822 56.7766C265.822 56.4811 265.756 56.224 265.626 56.0053C265.495 55.7865 265.31 55.6161 265.072 55.4939C264.836 55.3718 264.558 55.3107 264.237 55.3107C263.935 55.3107 263.651 55.3661 263.384 55.4769C263.12 55.5848 262.904 55.7425 262.737 55.9499C262.569 56.1544 262.478 56.4016 262.464 56.6914H261.441C261.458 56.234 261.596 55.8334 261.854 55.4897C262.113 55.1431 262.451 54.8732 262.869 54.68C263.289 54.4868 263.751 54.3902 264.254 54.3902C264.793 54.3902 265.256 54.4996 265.643 54.7184C266.029 54.9343 266.326 55.2198 266.533 55.5749C266.741 55.93 266.844 56.3135 266.844 56.7255C266.844 57.2169 266.715 57.636 266.457 57.9826C266.201 58.3291 265.853 58.5692 265.413 58.7027V58.7709C265.964 58.8618 266.394 59.0962 266.704 59.474C267.013 59.849 267.168 60.3135 267.168 60.8675C267.168 61.3419 267.039 61.7681 266.781 62.1459C266.525 62.5209 266.175 62.8164 265.732 63.0323C265.289 63.2482 264.785 63.3561 264.219 63.3561ZM271.758 63.2368H269.065V54.5095H271.877C272.724 54.5095 273.448 54.6843 274.05 55.0337C274.653 55.3803 275.114 55.8789 275.435 56.5294C275.756 57.1772 275.917 57.9527 275.917 58.8561C275.917 59.7652 275.755 60.5479 275.431 61.2041C275.107 61.8576 274.636 62.3604 274.016 62.7127C273.397 63.0621 272.644 63.2368 271.758 63.2368ZM270.121 62.2993H271.69C272.411 62.2993 273.009 62.1601 273.484 61.8817C273.958 61.6033 274.312 61.207 274.545 60.6928C274.778 60.1786 274.894 59.5664 274.894 58.8561C274.894 58.1516 274.779 57.5451 274.549 57.0365C274.319 56.5252 273.975 56.1331 273.518 55.8604C273.06 55.5848 272.491 55.447 271.809 55.447H270.121V62.2993Z" fill="white"/>
<rect x="219.379" y="27.2678" width="63.9252" height="63.9252" rx="1.5" stroke="black"/>
<rect x="299.805" y="0.767822" width="33" height="18" rx="9" fill="#D5DAEE"/>
<path d="M306.245 7.4397V6.49509H311.874V7.4397H309.604V13.7678H308.511V7.4397H306.245ZM314.592 13.8779C314.055 13.8779 313.592 13.7631 313.203 13.5334C312.818 13.3014 312.519 12.9759 312.309 12.5569C312.1 12.1355 311.996 11.6419 311.996 11.0761C311.996 10.5173 312.1 10.0249 312.309 9.59879C312.519 9.17265 312.813 8.84003 313.189 8.60092C313.568 8.36181 314.011 8.24225 314.517 8.24225C314.825 8.24225 315.123 8.29315 315.412 8.39495C315.701 8.49675 315.96 8.65655 316.19 8.87436C316.42 9.09216 316.601 9.37507 316.733 9.72308C316.866 10.0687 316.932 10.4889 316.932 10.9837V11.3602H312.596V10.5647H315.892C315.892 10.2853 315.835 10.0379 315.721 9.82251C315.608 9.60471 315.448 9.43307 315.242 9.30759C315.038 9.18212 314.799 9.11938 314.525 9.11938C314.226 9.11938 313.966 9.19277 313.743 9.33956C313.523 9.48397 313.353 9.67336 313.232 9.90774C313.114 10.1397 313.054 10.3919 313.054 10.6641V11.2856C313.054 11.6502 313.118 11.9603 313.246 12.216C313.376 12.4717 313.557 12.667 313.789 12.8019C314.021 12.9345 314.292 13.0008 314.603 13.0008C314.804 13.0008 314.987 12.9724 315.153 12.9155C315.319 12.8564 315.462 12.7688 315.583 12.6528C315.703 12.5368 315.796 12.3935 315.86 12.2231L316.865 12.4042C316.784 12.7001 316.64 12.9593 316.431 13.1819C316.225 13.4021 315.966 13.5737 315.654 13.6968C315.344 13.8175 314.99 13.8779 314.592 13.8779ZM318.821 8.31328L320.025 10.4369L321.24 8.31328H322.401L320.7 11.0405L322.415 13.7678H321.254L320.025 11.7295L318.8 13.7678H317.635L319.333 11.0405L317.657 8.31328H318.821ZM326.037 8.31328V9.16555H323.058V8.31328H326.037ZM323.857 7.00646H324.919V12.1663C324.919 12.3722 324.949 12.5273 325.011 12.6315C325.073 12.7333 325.152 12.8031 325.249 12.841C325.348 12.8765 325.456 12.8942 325.572 12.8942C325.657 12.8942 325.732 12.8883 325.796 12.8765C325.86 12.8646 325.909 12.8552 325.945 12.8481L326.137 13.7252C326.075 13.7489 325.988 13.7726 325.874 13.7962C325.76 13.8223 325.618 13.8365 325.448 13.8388C325.168 13.8436 324.908 13.7939 324.667 13.6897C324.425 13.5855 324.23 13.4245 324.081 13.2067C323.931 12.9889 323.857 12.7155 323.857 12.3864V7.00646Z" fill="black" fill-opacity="0.25"/>
<rect x="300.305" y="27.2678" width="63.9252" height="63.9252" rx="1.5" fill="#F4F4F4"/>
<path d="M311.788 63.2368V54.5095H317.021V55.447H312.845V58.3959H316.629V59.3334H312.845V63.2368H311.788ZM318.473 61.447V60.5777L322.309 54.5095H322.939V55.8561H322.513L319.615 60.4414V60.5095H324.78V61.447H318.473ZM322.581 63.2368V61.1828V60.778V54.5095H323.587V63.2368H322.581ZM326.53 63.2368V54.5095H331.763V55.447H327.587V58.3959H331.371V59.3334H327.587V63.2368H326.53ZM333.215 61.447V60.5777L337.051 54.5095H337.681V55.8561H337.255L334.358 60.4414V60.5095H339.522V61.447H333.215ZM337.323 63.2368V61.1828V60.778V54.5095H338.329V63.2368H337.323ZM341.273 63.2368V54.5095H346.506V55.447H342.329V58.3959H346.114V59.3334H342.329V63.2368H341.273ZM347.958 61.447V60.5777L351.793 54.5095H352.424V55.8561H351.997L349.1 60.4414V60.5095H354.264V61.447H347.958ZM352.066 63.2368V61.1828V60.778V54.5095H353.071V63.2368H352.066Z" fill="black"/>
<rect x="300.305" y="27.2678" width="63.9252" height="63.9252" rx="1.5" stroke="black"/>
<rect x="373.229" y="27.2678" width="63.9252" height="63.9252" rx="1.5" fill="#8E8E8E"/>
<path d="M386.891 63.3561C386.306 63.3561 385.789 63.2524 385.34 63.0451C384.894 62.8348 384.546 62.5465 384.296 62.18C384.046 61.8107 383.922 61.3902 383.925 60.9186C383.922 60.5493 383.995 60.2084 384.143 59.8959C384.29 59.5806 384.492 59.3178 384.748 59.1076C385.006 58.8945 385.295 58.7595 385.613 58.7027V58.6516C385.195 58.5436 384.863 58.3093 384.616 57.9485C384.369 57.5848 384.246 57.1715 384.249 56.7084C384.246 56.2652 384.359 55.8689 384.586 55.5195C384.813 55.1701 385.126 54.8945 385.523 54.6928C385.924 54.4911 386.38 54.3902 386.891 54.3902C387.397 54.3902 387.849 54.4911 388.246 54.6928C388.644 54.8945 388.957 55.1701 389.184 55.5195C389.414 55.8689 389.53 56.2652 389.533 56.7084C389.53 57.1715 389.404 57.5848 389.154 57.9485C388.907 58.3093 388.579 58.5436 388.17 58.6516V58.7027C388.485 58.7595 388.769 58.8945 389.022 59.1076C389.275 59.3178 389.476 59.5806 389.627 59.8959C389.778 60.2084 389.854 60.5493 389.857 60.9186C389.854 61.3902 389.726 61.8107 389.474 62.18C389.224 62.5465 388.876 62.8348 388.43 63.0451C387.986 63.2524 387.474 63.3561 386.891 63.3561ZM386.891 62.4186C387.286 62.4186 387.627 62.3547 387.914 62.2269C388.201 62.099 388.422 61.9186 388.579 61.6857C388.735 61.4527 388.815 61.18 388.817 60.8675C388.815 60.538 388.729 60.2468 388.562 59.9939C388.394 59.7411 388.165 59.5422 387.876 59.3973C387.589 59.2524 387.261 59.18 386.891 59.18C386.519 59.18 386.187 59.2524 385.894 59.3973C385.604 59.5422 385.376 59.7411 385.208 59.9939C385.043 60.2468 384.962 60.538 384.965 60.8675C384.962 61.18 385.038 61.4527 385.191 61.6857C385.347 61.9186 385.57 62.099 385.86 62.2269C386.15 62.3547 386.494 62.4186 386.891 62.4186ZM386.891 58.2766C387.204 58.2766 387.481 58.2141 387.722 58.0891C387.967 57.9641 388.158 57.7894 388.297 57.5649C388.437 57.3405 388.508 57.0777 388.511 56.7766C388.508 56.4811 388.438 56.224 388.302 56.0053C388.165 55.7837 387.976 55.6132 387.735 55.4939C387.494 55.3718 387.212 55.3107 386.891 55.3107C386.565 55.3107 386.279 55.3718 386.035 55.4939C385.79 55.6132 385.601 55.7837 385.468 56.0053C385.334 56.224 385.269 56.4811 385.272 56.7766C385.269 57.0777 385.336 57.3405 385.472 57.5649C385.611 57.7894 385.803 57.9641 386.047 58.0891C386.292 58.2141 386.573 58.2766 386.891 58.2766ZM391.644 63.2368V54.5095H396.911V55.447H392.701V58.3959H396.638V59.3334H392.701V62.2993H396.979V63.2368H391.644ZM401.458 63.3561C400.872 63.3561 400.355 63.2524 399.907 63.0451C399.46 62.8348 399.112 62.5465 398.862 62.18C398.612 61.8107 398.489 61.3902 398.492 60.9186C398.489 60.5493 398.561 60.2084 398.709 59.8959C398.857 59.5806 399.059 59.3178 399.314 59.1076C399.573 58.8945 399.861 58.7595 400.179 58.7027V58.6516C399.762 58.5436 399.429 58.3093 399.182 57.9485C398.935 57.5848 398.813 57.1715 398.816 56.7084C398.813 56.2652 398.925 55.8689 399.152 55.5195C399.38 55.1701 399.692 54.8945 400.09 54.6928C400.49 54.4911 400.946 54.3902 401.458 54.3902C401.963 54.3902 402.415 54.4911 402.813 54.6928C403.21 54.8945 403.523 55.1701 403.75 55.5195C403.98 55.8689 404.097 56.2652 404.1 56.7084C404.097 57.1715 403.97 57.5848 403.72 57.9485C403.473 58.3093 403.145 58.5436 402.736 58.6516V58.7027C403.051 58.7595 403.335 58.8945 403.588 59.1076C403.841 59.3178 404.043 59.5806 404.193 59.8959C404.344 60.2084 404.421 60.5493 404.424 60.9186C404.421 61.3902 404.293 61.8107 404.04 62.18C403.79 62.5465 403.442 62.8348 402.996 63.0451C402.553 63.2524 402.04 63.3561 401.458 63.3561ZM401.458 62.4186C401.853 62.4186 402.193 62.3547 402.48 62.2269C402.767 62.099 402.989 61.9186 403.145 61.6857C403.301 61.4527 403.381 61.18 403.384 60.8675C403.381 60.538 403.296 60.2468 403.128 59.9939C402.96 59.7411 402.732 59.5422 402.442 59.3973C402.155 59.2524 401.827 59.18 401.458 59.18C401.085 59.18 400.753 59.2524 400.46 59.3973C400.171 59.5422 399.942 59.7411 399.774 59.9939C399.61 60.2468 399.529 60.538 399.532 60.8675C399.529 61.18 399.604 61.4527 399.757 61.6857C399.914 61.9186 400.137 62.099 400.426 62.2269C400.716 62.3547 401.06 62.4186 401.458 62.4186ZM401.458 58.2766C401.77 58.2766 402.047 58.2141 402.289 58.0891C402.533 57.9641 402.725 57.7894 402.864 57.5649C403.003 57.3405 403.074 57.0777 403.077 56.7766C403.074 56.4811 403.005 56.224 402.868 56.0053C402.732 55.7837 402.543 55.6132 402.301 55.4939C402.06 55.3718 401.779 55.3107 401.458 55.3107C401.131 55.3107 400.845 55.3718 400.601 55.4939C400.357 55.6132 400.168 55.7837 400.034 56.0053C399.901 56.224 399.835 56.4811 399.838 56.7766C399.835 57.0777 399.902 57.3405 400.039 57.5649C400.178 57.7894 400.37 57.9641 400.614 58.0891C400.858 58.2141 401.139 58.2766 401.458 58.2766ZM406.21 63.2368V54.5095H411.477V55.447H407.267V58.3959H411.204V59.3334H407.267V62.2993H411.545V63.2368H406.21ZM416.024 63.3561C415.439 63.3561 414.922 63.2524 414.473 63.0451C414.027 62.8348 413.679 62.5465 413.429 62.18C413.179 61.8107 413.055 61.3902 413.058 60.9186C413.055 60.5493 413.128 60.2084 413.275 59.8959C413.423 59.5806 413.625 59.3178 413.881 59.1076C414.139 58.8945 414.427 58.7595 414.746 58.7027V58.6516C414.328 58.5436 413.996 58.3093 413.748 57.9485C413.501 57.5848 413.379 57.1715 413.382 56.7084C413.379 56.2652 413.491 55.8689 413.719 55.5195C413.946 55.1701 414.258 54.8945 414.656 54.6928C415.057 54.4911 415.513 54.3902 416.024 54.3902C416.53 54.3902 416.981 54.4911 417.379 54.6928C417.777 54.8945 418.089 55.1701 418.317 55.5195C418.547 55.8689 418.663 56.2652 418.666 56.7084C418.663 57.1715 418.537 57.5848 418.287 57.9485C418.04 58.3093 417.712 58.5436 417.302 58.6516V58.7027C417.618 58.7595 417.902 58.8945 418.155 59.1076C418.408 59.3178 418.609 59.5806 418.76 59.8959C418.91 60.2084 418.987 60.5493 418.99 60.9186C418.987 61.3902 418.859 61.8107 418.606 62.18C418.356 62.5465 418.008 62.8348 417.562 63.0451C417.119 63.2524 416.606 63.3561 416.024 63.3561ZM416.024 62.4186C416.419 62.4186 416.76 62.3547 417.047 62.2269C417.334 62.099 417.555 61.9186 417.712 61.6857C417.868 61.4527 417.947 61.18 417.95 60.8675C417.947 60.538 417.862 60.2468 417.695 59.9939C417.527 59.7411 417.298 59.5422 417.008 59.3973C416.722 59.2524 416.393 59.18 416.024 59.18C415.652 59.18 415.32 59.2524 415.027 59.3973C414.737 59.5422 414.508 59.7411 414.341 59.9939C414.176 60.2468 414.095 60.538 414.098 60.8675C414.095 61.18 414.17 61.4527 414.324 61.6857C414.48 61.9186 414.703 62.099 414.993 62.2269C415.283 62.3547 415.626 62.4186 416.024 62.4186ZM416.024 58.2766C416.337 58.2766 416.614 58.2141 416.855 58.0891C417.099 57.9641 417.291 57.7894 417.43 57.5649C417.57 57.3405 417.641 57.0777 417.643 56.7766C417.641 56.4811 417.571 56.224 417.435 56.0053C417.298 55.7837 417.109 55.6132 416.868 55.4939C416.626 55.3718 416.345 55.3107 416.024 55.3107C415.697 55.3107 415.412 55.3718 415.168 55.4939C414.923 55.6132 414.734 55.7837 414.601 56.0053C414.467 56.224 414.402 56.4811 414.405 56.7766C414.402 57.0777 414.469 57.3405 414.605 57.5649C414.744 57.7894 414.936 57.9641 415.18 58.0891C415.425 58.2141 415.706 58.2766 416.024 58.2766ZM420.777 63.2368V54.5095H426.044V55.447H421.833V58.3959H425.771V59.3334H421.833V62.2993H426.112V63.2368H420.777Z" fill="black"/>
<rect x="373.229" y="27.2678" width="63.9252" height="63.9252" rx="1.5" stroke="black"/>
<rect x="453.654" y="0.767822" width="89" height="18" rx="9" fill="#D5DAEE"/>
<path d="M460.453 13.7678V6.49509H463.046C463.611 6.49509 464.08 6.59808 464.452 6.80404C464.824 7.01001 465.102 7.29173 465.286 7.64921C465.471 8.00433 465.563 8.40442 465.563 8.8495C465.563 9.29694 465.47 9.6994 465.283 10.0569C465.098 10.412 464.819 10.6937 464.445 10.9021C464.073 11.108 463.606 11.211 463.042 11.211H461.259V10.2806H462.943C463.3 10.2806 463.59 10.2191 463.813 10.0959C464.035 9.97047 464.199 9.80002 464.303 9.58458C464.407 9.36915 464.459 9.12412 464.459 8.8495C464.459 8.57488 464.407 8.33103 464.303 8.11796C464.199 7.9049 464.034 7.73799 463.809 7.61725C463.587 7.49652 463.293 7.43615 462.928 7.43615H461.551V13.7678H460.453ZM466.765 13.7678V8.31328H467.791V9.17975H467.848C467.947 8.88619 468.122 8.65537 468.373 8.48728C468.627 8.31683 468.913 8.2316 469.233 8.2316C469.299 8.2316 469.377 8.23397 469.467 8.2387C469.559 8.24344 469.632 8.24936 469.684 8.25646V9.27208C469.641 9.26025 469.565 9.24723 469.456 9.23302C469.347 9.21645 469.239 9.20816 469.13 9.20816C468.879 9.20816 468.655 9.26143 468.458 9.36796C468.264 9.47213 468.11 9.61773 467.997 9.80475C467.883 9.98941 467.826 10.2001 467.826 10.4369V13.7678H466.765ZM470.602 13.7678V8.31328H471.664V13.7678H470.602ZM471.139 7.47166C470.954 7.47166 470.795 7.4101 470.663 7.287C470.533 7.16152 470.468 7.01238 470.468 6.83955C470.468 6.66437 470.533 6.51522 470.663 6.39211C470.795 6.26664 470.954 6.2039 471.139 6.2039C471.323 6.2039 471.481 6.26664 471.611 6.39211C471.744 6.51522 471.81 6.66437 471.81 6.83955C471.81 7.01238 471.744 7.16152 471.611 7.287C471.481 7.4101 471.323 7.47166 471.139 7.47166ZM473.093 13.7678V8.31328H474.112V9.20106H474.179C474.293 8.9004 474.479 8.66602 474.737 8.49794C474.995 8.32748 475.304 8.24225 475.664 8.24225C476.028 8.24225 476.334 8.32748 476.58 8.49794C476.828 8.66839 477.012 8.90277 477.13 9.20106H477.187C477.317 8.90987 477.525 8.67786 477.809 8.50504C478.093 8.32985 478.431 8.24225 478.824 8.24225C479.319 8.24225 479.723 8.39732 480.035 8.70745C480.35 9.01759 480.507 9.48515 480.507 10.1102V13.7678H479.446V10.2096C479.446 9.84027 479.345 9.57275 479.144 9.40703C478.943 9.24131 478.702 9.15845 478.423 9.15845C478.077 9.15845 477.809 9.26498 477.617 9.47805C477.425 9.68875 477.329 9.95982 477.329 10.2913V13.7678H476.271V10.1421C476.271 9.84618 476.179 9.60826 475.994 9.42833C475.809 9.24841 475.569 9.15845 475.273 9.15845C475.072 9.15845 474.886 9.21171 474.716 9.31825C474.547 9.42241 474.411 9.56801 474.307 9.75504C474.205 9.94206 474.154 10.1587 474.154 10.4049V13.7678H473.093ZM483.518 13.8886C483.172 13.8886 482.86 13.8246 482.58 13.6968C482.301 13.5666 482.08 13.3784 481.916 13.1322C481.755 12.886 481.675 12.5841 481.675 12.2266C481.675 11.9189 481.734 11.6655 481.852 11.4667C481.971 11.2678 482.131 11.1104 482.332 10.9944C482.533 10.8784 482.758 10.7908 483.007 10.7316C483.255 10.6724 483.508 10.6274 483.767 10.5967C484.093 10.5588 484.358 10.528 484.562 10.5043C484.766 10.4783 484.914 10.4369 485.006 10.38C485.098 10.3232 485.144 10.2309 485.144 10.103V10.0782C485.144 9.76806 485.057 9.52777 484.882 9.35731C484.709 9.18686 484.451 9.10163 484.107 9.10163C483.75 9.10163 483.468 9.18094 483.262 9.33956C483.059 9.49581 482.918 9.66981 482.84 9.86157L481.842 9.6343C481.96 9.30286 482.133 9.03534 482.36 8.83174C482.59 8.62578 482.854 8.47663 483.152 8.3843C483.45 8.2896 483.764 8.24225 484.093 8.24225C484.311 8.24225 484.542 8.2683 484.786 8.32038C485.032 8.37009 485.262 8.46242 485.475 8.59737C485.69 8.73231 485.866 8.92526 486.004 9.1762C486.141 9.42478 486.21 9.74794 486.21 10.1457V13.7678H485.173V13.0221H485.13C485.061 13.1594 484.959 13.2943 484.821 13.4269C484.684 13.5595 484.508 13.6696 484.292 13.7572C484.077 13.8448 483.819 13.8886 483.518 13.8886ZM483.749 13.0363C484.042 13.0363 484.293 12.9783 484.502 12.8623C484.712 12.7463 484.872 12.5948 484.981 12.4077C485.092 12.2183 485.148 12.0159 485.148 11.8005V11.0974C485.11 11.1352 485.037 11.1708 484.928 11.2039C484.821 11.2347 484.699 11.2619 484.562 11.2856C484.425 11.3069 484.291 11.327 484.161 11.3459C484.03 11.3625 483.922 11.3767 483.834 11.3886C483.628 11.4146 483.44 11.4584 483.269 11.52C483.101 11.5815 482.966 11.6703 482.865 11.7863C482.765 11.8999 482.715 12.0514 482.715 12.2408C482.715 12.5036 482.812 12.7025 483.007 12.8374C483.201 12.97 483.448 13.0363 483.749 13.0363ZM487.624 13.7678V8.31328H488.65V9.17975H488.707C488.806 8.88619 488.982 8.65537 489.233 8.48728C489.486 8.31683 489.772 8.2316 490.092 8.2316C490.158 8.2316 490.236 8.23397 490.326 8.2387C490.419 8.24344 490.491 8.24936 490.543 8.25646V9.27208C490.5 9.26025 490.425 9.24723 490.316 9.23302C490.207 9.21645 490.098 9.20816 489.989 9.20816C489.738 9.20816 489.514 9.26143 489.318 9.36796C489.124 9.47213 488.97 9.61773 488.856 9.80475C488.743 9.98941 488.686 10.2001 488.686 10.4369V13.7678H487.624ZM492.299 15.8133C492.14 15.8133 491.996 15.8003 491.866 15.7742C491.736 15.7505 491.638 15.7245 491.575 15.6961L491.83 14.8261C492.024 14.8781 492.197 14.9006 492.349 14.8935C492.5 14.8864 492.634 14.8296 492.75 14.7231C492.868 14.6165 492.973 14.4425 493.062 14.2011L493.194 13.8388L491.198 8.31328H492.335L493.716 12.5462H493.773L495.154 8.31328H496.294L494.046 14.4958C493.942 14.7799 493.809 15.0202 493.648 15.2167C493.487 15.4155 493.296 15.5647 493.073 15.6641C492.851 15.7636 492.593 15.8133 492.299 15.8133ZM506.064 8.86015H504.956C504.914 8.62341 504.834 8.41508 504.718 8.23515C504.602 8.05523 504.46 7.90253 504.292 7.77705C504.124 7.65158 503.936 7.55688 503.727 7.49296C503.521 7.42904 503.302 7.39708 503.07 7.39708C502.651 7.39708 502.276 7.50243 501.945 7.71313C501.616 7.92384 501.355 8.23278 501.164 8.63998C500.974 9.04718 500.879 9.54434 500.879 10.1315C500.879 10.7233 500.974 11.2228 501.164 11.63C501.355 12.0372 501.617 12.345 501.948 12.5533C502.28 12.7617 502.653 12.8658 503.067 12.8658C503.297 12.8658 503.514 12.8351 503.72 12.7735C503.929 12.7096 504.117 12.6161 504.285 12.493C504.453 12.3699 504.595 12.2195 504.711 12.042C504.829 11.862 504.911 11.6561 504.956 11.4241L506.064 11.4276C506.005 11.7851 505.89 12.1142 505.72 12.4148C505.552 12.7131 505.335 12.9712 505.07 13.189C504.807 13.4044 504.506 13.5713 504.168 13.6897C503.829 13.8081 503.46 13.8673 503.06 13.8673C502.43 13.8673 501.869 13.7181 501.377 13.4198C500.884 13.1191 500.496 12.6895 500.212 12.1307C499.93 11.572 499.789 10.9056 499.789 10.1315C499.789 9.35494 499.931 8.68851 500.215 8.13217C500.499 7.57346 500.888 7.14495 501.38 6.84666C501.873 6.54599 502.432 6.39566 503.06 6.39566C503.446 6.39566 503.806 6.4513 504.139 6.56257C504.476 6.67147 504.777 6.83245 505.045 7.04552C505.312 7.25622 505.534 7.51427 505.709 7.81967C505.884 8.1227 506.003 8.46953 506.064 8.86015ZM509.589 13.8779C509.078 13.8779 508.632 13.7607 508.251 13.5263C507.87 13.292 507.574 12.9641 507.363 12.5427C507.152 12.1213 507.047 11.6289 507.047 11.0654C507.047 10.4996 507.152 10.0048 507.363 9.58103C507.574 9.15726 507.87 8.82819 508.251 8.59382C508.632 8.35944 509.078 8.24225 509.589 8.24225C510.101 8.24225 510.547 8.35944 510.928 8.59382C511.309 8.82819 511.605 9.15726 511.816 9.58103C512.027 10.0048 512.132 10.4996 512.132 11.0654C512.132 11.6289 512.027 12.1213 511.816 12.5427C511.605 12.9641 511.309 13.292 510.928 13.5263C510.547 13.7607 510.101 13.8779 509.589 13.8779ZM509.593 12.9866C509.924 12.9866 510.199 12.899 510.417 12.7238C510.635 12.5486 510.796 12.3154 510.9 12.0242C511.006 11.733 511.06 11.4122 511.06 11.0619C511.06 10.7138 511.006 10.3942 510.9 10.103C510.796 9.80949 510.635 9.57393 510.417 9.39637C510.199 9.21882 509.924 9.13004 509.593 9.13004C509.259 9.13004 508.982 9.21882 508.762 9.39637C508.544 9.57393 508.382 9.80949 508.276 10.103C508.171 10.3942 508.119 10.7138 508.119 11.0619C508.119 11.4122 508.171 11.733 508.276 12.0242C508.382 12.3154 508.544 12.5486 508.762 12.7238C508.982 12.899 509.259 12.9866 509.593 12.9866ZM514.379 6.49509V13.7678H513.317V6.49509H514.379ZM518.105 13.8779C517.594 13.8779 517.147 13.7607 516.766 13.5263C516.385 13.292 516.089 12.9641 515.879 12.5427C515.668 12.1213 515.562 11.6289 515.562 11.0654C515.562 10.4996 515.668 10.0048 515.879 9.58103C516.089 9.15726 516.385 8.82819 516.766 8.59382C517.147 8.35944 517.594 8.24225 518.105 8.24225C518.616 8.24225 519.063 8.35944 519.444 8.59382C519.825 8.82819 520.121 9.15726 520.332 9.58103C520.542 10.0048 520.648 10.4996 520.648 11.0654C520.648 11.6289 520.542 12.1213 520.332 12.5427C520.121 12.9641 519.825 13.292 519.444 13.5263C519.063 13.7607 518.616 13.8779 518.105 13.8779ZM518.109 12.9866C518.44 12.9866 518.715 12.899 518.933 12.7238C519.15 12.5486 519.311 12.3154 519.415 12.0242C519.522 11.733 519.575 11.4122 519.575 11.0619C519.575 10.7138 519.522 10.3942 519.415 10.103C519.311 9.80949 519.15 9.57393 518.933 9.39637C518.715 9.21882 518.44 9.13004 518.109 9.13004C517.775 9.13004 517.498 9.21882 517.278 9.39637C517.06 9.57393 516.898 9.80949 516.791 10.103C516.687 10.3942 516.635 10.7138 516.635 11.0619C516.635 11.4122 516.687 11.733 516.791 12.0242C516.898 12.3154 517.06 12.5486 517.278 12.7238C517.498 12.899 517.775 12.9866 518.109 12.9866ZM525.288 11.5057V8.31328H526.354V13.7678H525.309V12.8232H525.253C525.127 13.1144 524.926 13.3571 524.649 13.5512C524.374 13.743 524.032 13.8388 523.623 13.8388C523.272 13.8388 522.962 13.7619 522.692 13.608C522.425 13.4518 522.214 13.2209 522.06 12.9155C521.909 12.6102 521.833 12.2325 521.833 11.7827V8.31328H522.895V11.6549C522.895 12.0266 522.998 12.3225 523.204 12.5427C523.41 12.7629 523.677 12.8729 524.006 12.8729C524.205 12.8729 524.403 12.8232 524.599 12.7238C524.798 12.6244 524.963 12.474 525.093 12.2728C525.225 12.0716 525.291 11.8159 525.288 11.5057ZM527.78 13.7678V8.31328H528.806V9.17975H528.863C528.963 8.88619 529.138 8.65537 529.389 8.48728C529.642 8.31683 529.929 8.2316 530.248 8.2316C530.315 8.2316 530.393 8.23397 530.483 8.2387C530.575 8.24344 530.647 8.24936 530.699 8.25646V9.27208C530.657 9.26025 530.581 9.24723 530.472 9.23302C530.363 9.21645 530.254 9.20816 530.145 9.20816C529.894 9.20816 529.671 9.26143 529.474 9.36796C529.28 9.47213 529.126 9.61773 529.012 9.80475C528.899 9.98941 528.842 10.2001 528.842 10.4369V13.7678H527.78ZM535.705 9.64495L534.743 9.81541C534.703 9.6923 534.639 9.57511 534.551 9.46384C534.466 9.35258 534.35 9.26143 534.203 9.19041C534.057 9.11938 533.873 9.08387 533.653 9.08387C533.352 9.08387 533.101 9.15134 532.9 9.28629C532.699 9.41886 532.598 9.5905 532.598 9.8012C532.598 9.98349 532.666 10.1303 532.801 10.2415C532.936 10.3528 533.153 10.444 533.454 10.515L534.32 10.7138C534.822 10.8298 535.196 11.0086 535.443 11.2501C535.689 11.4915 535.812 11.8052 535.812 12.1911C535.812 12.5178 535.717 12.809 535.528 13.0647C535.341 13.318 535.079 13.5169 534.743 13.6613C534.409 13.8057 534.022 13.8779 533.582 13.8779C532.971 13.8779 532.473 13.7477 532.087 13.4873C531.701 13.2245 531.464 12.8516 531.377 12.3687L532.403 12.2124C532.467 12.4799 532.598 12.6824 532.797 12.8197C532.996 12.9546 533.255 13.0221 533.575 13.0221C533.923 13.0221 534.201 12.9499 534.409 12.8055C534.618 12.6587 534.722 12.4799 534.722 12.2692C534.722 12.0988 534.658 11.9556 534.53 11.8396C534.405 11.7236 534.212 11.636 533.951 11.5768L533.028 11.3744C532.519 11.2584 532.142 11.0737 531.899 10.8204C531.657 10.5671 531.536 10.2463 531.536 9.85802C531.536 9.53605 531.626 9.25433 531.806 9.01285C531.986 8.77137 532.235 8.58316 532.552 8.44822C532.869 8.31091 533.233 8.24225 533.642 8.24225C534.232 8.24225 534.696 8.37009 535.034 8.62578C535.373 8.87909 535.597 9.21882 535.705 9.64495Z" fill="black" fill-opacity="0.25"/>
<rect x="454.154" y="27.2678" width="63.9252" height="63.9252" rx="1.5" fill="#0081DE"/>
<path d="M466.404 63.4308C465.762 63.4308 465.215 63.2561 464.764 62.9067C464.312 62.5544 463.967 62.0445 463.728 61.3769C463.49 60.7064 463.37 59.8968 463.37 58.9479C463.37 58.0047 463.49 57.1993 463.728 56.5317C463.97 55.8612 464.316 55.3499 464.768 54.9976C465.222 54.6425 465.768 54.4649 466.404 54.4649C467.041 54.4649 467.585 54.6425 468.036 54.9976C468.491 55.3499 468.838 55.8612 469.076 56.5317C469.318 57.1993 469.438 58.0047 469.438 58.9479C469.438 59.8968 469.319 60.7064 469.08 61.3769C468.842 62.0445 468.497 62.5544 468.045 62.9067C467.593 63.2561 467.046 63.4308 466.404 63.4308ZM466.404 62.4933C467.041 62.4933 467.535 62.1865 467.887 61.5729C468.24 60.9593 468.416 60.0843 468.416 58.9479C468.416 58.1922 468.335 57.5487 468.173 57.0175C468.014 56.4862 467.784 56.0814 467.482 55.803C467.184 55.5246 466.825 55.3854 466.404 55.3854C465.774 55.3854 465.281 55.6965 464.926 56.3186C464.57 56.9379 464.393 57.8144 464.393 58.9479C464.393 59.7036 464.472 60.3456 464.632 60.874C464.791 61.4024 465.019 61.8044 465.318 62.08C465.619 62.3556 465.981 62.4933 466.404 62.4933ZM473.904 63.4308C473.262 63.4308 472.715 63.2561 472.264 62.9067C471.812 62.5544 471.467 62.0445 471.228 61.3769C470.99 60.7064 470.87 59.8968 470.87 58.9479C470.87 58.0047 470.99 57.1993 471.228 56.5317C471.47 55.8612 471.816 55.3499 472.268 54.9976C472.722 54.6425 473.268 54.4649 473.904 54.4649C474.541 54.4649 475.085 54.6425 475.536 54.9976C475.991 55.3499 476.338 55.8612 476.576 56.5317C476.818 57.1993 476.938 58.0047 476.938 58.9479C476.938 59.8968 476.819 60.7064 476.58 61.3769C476.342 62.0445 475.997 62.5544 475.545 62.9067C475.093 63.2561 474.546 63.4308 473.904 63.4308ZM473.904 62.4933C474.541 62.4933 475.035 62.1865 475.387 61.5729C475.74 60.9593 475.916 60.0843 475.916 58.9479C475.916 58.1922 475.835 57.5487 475.673 57.0175C475.514 56.4862 475.284 56.0814 474.982 55.803C474.684 55.5246 474.325 55.3854 473.904 55.3854C473.274 55.3854 472.781 55.6965 472.426 56.3186C472.07 56.9379 471.893 57.8144 471.893 58.9479C471.893 59.7036 471.972 60.3456 472.132 60.874C472.291 61.4024 472.519 61.8044 472.818 62.08C473.119 62.3556 473.481 62.4933 473.904 62.4933ZM481.353 63.4308C480.768 63.4308 480.251 63.3271 479.802 63.1198C479.356 62.9095 479.008 62.6212 478.758 62.2547C478.508 61.8854 478.384 61.4649 478.387 60.9933C478.384 60.624 478.457 60.2831 478.605 59.9706C478.752 59.6553 478.954 59.3925 479.21 59.1823C479.468 58.9692 479.757 58.8343 480.075 58.7774V58.7263C479.657 58.6183 479.325 58.384 479.078 58.0232C478.83 57.6595 478.708 57.2462 478.711 56.7831C478.708 56.3399 478.82 55.9436 479.048 55.5942C479.275 55.2448 479.588 54.9692 479.985 54.7675C480.386 54.5658 480.842 54.4649 481.353 54.4649C481.859 54.4649 482.311 54.5658 482.708 54.7675C483.106 54.9692 483.419 55.2448 483.646 55.5942C483.876 55.9436 483.992 56.3399 483.995 56.7831C483.992 57.2462 483.866 57.6595 483.616 58.0232C483.369 58.384 483.041 58.6183 482.632 58.7263V58.7774C482.947 58.8343 483.231 58.9692 483.484 59.1823C483.737 59.3925 483.938 59.6553 484.089 59.9706C484.24 60.2831 484.316 60.624 484.319 60.9933C484.316 61.4649 484.188 61.8854 483.936 62.2547C483.686 62.6212 483.338 62.9095 482.892 63.1198C482.448 63.3271 481.936 63.4308 481.353 63.4308ZM481.353 62.4933C481.748 62.4933 482.089 62.4294 482.376 62.3016C482.663 62.1737 482.884 61.9933 483.041 61.7604C483.197 61.5274 483.276 61.2547 483.279 60.9422C483.276 60.6127 483.191 60.3215 483.024 60.0686C482.856 59.8158 482.627 59.6169 482.338 59.472C482.051 59.3271 481.722 59.2547 481.353 59.2547C480.981 59.2547 480.649 59.3271 480.356 59.472C480.066 59.6169 479.838 59.8158 479.67 60.0686C479.505 60.3215 479.424 60.6127 479.427 60.9422C479.424 61.2547 479.499 61.5274 479.653 61.7604C479.809 61.9933 480.032 62.1737 480.322 62.3016C480.612 62.4294 480.955 62.4933 481.353 62.4933ZM481.353 58.3513C481.666 58.3513 481.943 58.2888 482.184 58.1638C482.428 58.0388 482.62 57.8641 482.759 57.6396C482.899 57.4152 482.97 57.1524 482.972 56.8513C482.97 56.5558 482.9 56.2987 482.764 56.08C482.627 55.8584 482.438 55.6879 482.197 55.5686C481.955 55.4465 481.674 55.3854 481.353 55.3854C481.026 55.3854 480.741 55.4465 480.497 55.5686C480.252 55.6879 480.063 55.8584 479.93 56.08C479.796 56.2987 479.731 56.5558 479.734 56.8513C479.731 57.1524 479.798 57.4152 479.934 57.6396C480.073 57.8641 480.265 58.0388 480.509 58.1638C480.754 58.2888 481.035 58.3513 481.353 58.3513ZM489.02 54.5843V63.3115H487.964V55.6922H487.912L485.782 57.107V56.0331L487.964 54.5843H489.02ZM494.377 63.3115H491.684V54.5843H494.496C495.343 54.5843 496.067 54.759 496.67 55.1084C497.272 55.455 497.733 55.9536 498.055 56.6041C498.376 57.2519 498.536 58.0274 498.536 58.9308C498.536 59.8399 498.374 60.6226 498.05 61.2789C497.726 61.9323 497.255 62.4351 496.635 62.7874C496.016 63.1368 495.263 63.3115 494.377 63.3115ZM492.741 62.374H494.309C495.03 62.374 495.628 62.2348 496.103 61.9564C496.577 61.678 496.931 61.2817 497.164 60.7675C497.397 60.2533 497.513 59.6411 497.513 58.9308C497.513 58.2263 497.398 57.6198 497.168 57.1112C496.938 56.5999 496.594 56.2078 496.137 55.9351C495.68 55.6595 495.11 55.5218 494.428 55.5218H492.741V62.374ZM500.309 63.3115V54.5843H505.576V55.5218H501.366V58.4706H505.303V59.4081H501.366V62.374H505.644V63.3115H500.309Z" fill="white"/>
<rect x="454.154" y="27.2678" width="63.9252" height="63.9252" rx="1.5" stroke="black"/>
<rect x="527.079" y="27.2678" width="63.9252" height="63.9252" rx="1.5" fill="#3D9EE3"/>
<path d="M540.284 63.4308C539.721 63.4308 539.22 63.3343 538.78 63.1411C538.342 62.9479 537.994 62.6794 537.736 62.3357C537.48 61.9891 537.341 61.5871 537.318 61.1297H538.392C538.415 61.411 538.511 61.6539 538.682 61.8584C538.852 62.0601 539.075 62.2164 539.351 62.3271C539.626 62.4379 539.932 62.4933 540.267 62.4933C540.642 62.4933 540.974 62.428 541.264 62.2973C541.554 62.1666 541.781 61.9848 541.946 61.7519C542.111 61.5189 542.193 61.249 542.193 60.9422C542.193 60.6212 542.113 60.3385 541.954 60.0942C541.795 59.847 541.562 59.6539 541.256 59.5146C540.949 59.3754 540.574 59.3058 540.131 59.3058H539.432V58.3683H540.131C540.477 58.3683 540.781 58.3058 541.042 58.1808C541.307 58.0558 541.513 57.8797 541.66 57.6524C541.811 57.4252 541.886 57.1581 541.886 56.8513C541.886 56.5558 541.821 56.2987 541.69 56.08C541.559 55.8612 541.375 55.6908 541.136 55.5686C540.9 55.4465 540.622 55.3854 540.301 55.3854C540 55.3854 539.716 55.4408 539.449 55.5516C539.184 55.6595 538.969 55.8172 538.801 56.0246C538.633 56.2291 538.542 56.4763 538.528 56.7661H537.506C537.523 56.3087 537.66 55.9081 537.919 55.5644C538.177 55.2178 538.515 54.9479 538.933 54.7547C539.354 54.5615 539.815 54.4649 540.318 54.4649C540.858 54.4649 541.321 54.5743 541.707 54.7931C542.094 55.009 542.39 55.2945 542.598 55.6496C542.805 56.0047 542.909 56.3882 542.909 56.8002C542.909 57.2916 542.78 57.7107 542.521 58.0573C542.265 58.4039 541.917 58.6439 541.477 58.7774V58.8456C542.028 58.9365 542.459 59.1709 542.768 59.5487C543.078 59.9237 543.233 60.3882 543.233 60.9422C543.233 61.4166 543.104 61.8428 542.845 62.2206C542.589 62.5956 542.24 62.8911 541.797 63.107C541.354 63.3229 540.849 63.4308 540.284 63.4308ZM547.822 63.3115H545.129V54.5843H547.942C548.788 54.5843 549.513 54.759 550.115 55.1084C550.717 55.455 551.179 55.9536 551.5 56.6041C551.821 57.2519 551.981 58.0274 551.981 58.9308C551.981 59.8399 551.819 60.6226 551.496 61.2789C551.172 61.9323 550.7 62.4351 550.081 62.7874C549.461 63.1368 548.709 63.3115 547.822 63.3115ZM546.186 62.374H547.754C548.476 62.374 549.074 62.2348 549.548 61.9564C550.023 61.678 550.376 61.2817 550.609 60.7675C550.842 60.2533 550.959 59.6411 550.959 58.9308C550.959 58.2263 550.844 57.6198 550.613 57.1112C550.383 56.5999 550.04 56.2078 549.582 55.9351C549.125 55.6595 548.555 55.5218 547.873 55.5218H546.186V62.374ZM556.379 54.4649C556.737 54.4678 557.095 54.536 557.453 54.6695C557.811 54.803 558.138 55.0246 558.433 55.3343C558.729 55.6411 558.966 56.0601 559.145 56.5914C559.324 57.1226 559.413 57.7888 559.413 58.5899C559.413 59.3655 559.339 60.0544 559.192 60.6567C559.047 61.2561 558.836 61.7618 558.561 62.1737C558.288 62.5857 557.956 62.8982 557.564 63.1112C557.175 63.3243 556.734 63.4308 556.243 63.4308C555.754 63.4308 555.318 63.3343 554.934 63.1411C554.554 62.945 554.241 62.6737 553.997 62.3271C553.756 61.9777 553.601 61.5729 553.532 61.1127H554.572C554.666 61.5132 554.852 61.8442 555.131 62.1056C555.412 62.3641 555.782 62.4933 556.243 62.4933C556.916 62.4933 557.447 62.1993 557.836 61.6112C558.229 61.0232 558.425 60.1922 558.425 59.1183H558.356C558.197 59.357 558.008 59.5629 557.79 59.7362C557.571 59.9095 557.328 60.0431 557.061 60.1368C556.794 60.2306 556.51 60.2774 556.209 60.2774C555.709 60.2774 555.25 60.1539 554.832 59.9067C554.417 59.6567 554.085 59.3144 553.835 58.8797C553.588 58.4422 553.464 57.9422 553.464 57.3797C553.464 56.8456 553.584 56.357 553.822 55.9138C554.064 55.4678 554.402 55.1127 554.836 54.8485C555.274 54.5843 555.788 54.4564 556.379 54.4649ZM556.379 55.4024C556.021 55.4024 555.699 55.4919 555.412 55.6709C555.128 55.847 554.902 56.0857 554.734 56.3868C554.569 56.6851 554.487 57.0161 554.487 57.3797C554.487 57.7433 554.567 58.0743 554.726 58.3726C554.888 58.6681 555.108 58.9039 555.386 59.08C555.667 59.2533 555.987 59.3399 556.345 59.3399C556.615 59.3399 556.866 59.2874 557.099 59.1823C557.332 59.0743 557.535 58.928 557.709 58.7433C557.885 58.5558 558.023 58.3442 558.122 58.1084C558.221 57.8698 558.271 57.6212 558.271 57.3627C558.271 57.0218 558.189 56.7021 558.024 56.4039C557.862 56.1056 557.638 55.8641 557.351 55.6794C557.067 55.4948 556.743 55.4024 556.379 55.4024ZM561.242 63.3115V54.5843H566.509V55.5218H562.299V58.4706H566.237V59.4081H562.299V62.374H566.578V63.3115H561.242ZM568.414 63.3115V54.5843H573.681V55.5218H569.471V58.4706H573.409V59.4081H569.471V62.374H573.749V63.3115H568.414ZM578.382 63.4308C577.819 63.4308 577.318 63.3343 576.877 63.1411C576.44 62.9479 576.092 62.6794 575.833 62.3357C575.578 61.9891 575.438 61.5871 575.416 61.1297H576.49C576.512 61.411 576.609 61.6539 576.779 61.8584C576.95 62.0601 577.173 62.2164 577.448 62.3271C577.724 62.4379 578.029 62.4933 578.365 62.4933C578.74 62.4933 579.072 62.428 579.362 62.2973C579.651 62.1666 579.879 61.9848 580.044 61.7519C580.208 61.5189 580.291 61.249 580.291 60.9422C580.291 60.6212 580.211 60.3385 580.052 60.0942C579.893 59.847 579.66 59.6539 579.353 59.5146C579.046 59.3754 578.671 59.3058 578.228 59.3058H577.529V58.3683H578.228C578.575 58.3683 578.879 58.3058 579.14 58.1808C579.404 58.0558 579.61 57.8797 579.758 57.6524C579.909 57.4252 579.984 57.1581 579.984 56.8513C579.984 56.5558 579.919 56.2987 579.788 56.08C579.657 55.8612 579.472 55.6908 579.234 55.5686C578.998 55.4465 578.72 55.3854 578.399 55.3854C578.097 55.3854 577.813 55.4408 577.546 55.5516C577.282 55.6595 577.066 55.8172 576.899 56.0246C576.731 56.2291 576.64 56.4763 576.626 56.7661H575.603C575.62 56.3087 575.758 55.9081 576.017 55.5644C576.275 55.2178 576.613 54.9479 577.031 54.7547C577.451 54.5615 577.913 54.4649 578.416 54.4649C578.955 54.4649 579.419 54.5743 579.805 54.7931C580.191 55.009 580.488 55.2945 580.695 55.6496C580.903 56.0047 581.007 56.3882 581.007 56.8002C581.007 57.2916 580.877 57.7107 580.619 58.0573C580.363 58.4039 580.015 58.6439 579.575 58.7774V58.8456C580.126 58.9365 580.556 59.1709 580.866 59.5487C581.176 59.9237 581.33 60.3882 581.33 60.9422C581.33 61.4166 581.201 61.8428 580.943 62.2206C580.687 62.5956 580.338 62.8911 579.894 63.107C579.451 63.3229 578.947 63.4308 578.382 63.4308Z" fill="black"/>
<rect x="527.079" y="27.2678" width="63.9252" height="63.9252" rx="1.5" stroke="black"/>
</svg>
