<svg width="586" height="91" viewBox="0 0 586 91" fill="none" xmlns="http://www.w3.org/2000/svg">
<rect width="33" height="18" rx="9" fill="#D5DAEE"/>
<path d="M6.44034 6.67188V5.72727H12.0689V6.67188H9.79972V13H8.70597V6.67188H6.44034ZM14.7873 13.1101C14.2499 13.1101 13.7871 12.9953 13.3988 12.7656C13.0129 12.5336 12.7146 12.2081 12.5039 11.7891C12.2956 11.3677 12.1914 10.8741 12.1914 10.3082C12.1914 9.74953 12.2956 9.2571 12.5039 8.83097C12.7146 8.40483 13.0082 8.07221 13.3846 7.8331C13.7634 7.59399 14.2061 7.47443 14.7127 7.47443C15.0205 7.47443 15.3188 7.52533 15.6076 7.62713C15.8964 7.72893 16.1557 7.88873 16.3853 8.10653C16.6149 8.32434 16.796 8.60724 16.9286 8.95526C17.0612 9.3009 17.1275 9.72112 17.1275 10.2159V10.5923H12.7915V9.79688H16.087C16.087 9.51752 16.0302 9.27012 15.9165 9.05469C15.8029 8.83688 15.6431 8.66525 15.4371 8.53977C15.2335 8.4143 14.9944 8.35156 14.7198 8.35156C14.4215 8.35156 14.1611 8.42495 13.9386 8.57173C13.7184 8.71615 13.5479 8.90554 13.4272 9.13991C13.3088 9.37192 13.2496 9.62405 13.2496 9.89631V10.5178C13.2496 10.8823 13.3136 11.1925 13.4414 11.4482C13.5716 11.7038 13.7527 11.8991 13.9847 12.0341C14.2167 12.1667 14.4878 12.233 14.7979 12.233C14.9992 12.233 15.1826 12.2045 15.3484 12.1477C15.5141 12.0885 15.6573 12.0009 15.7781 11.8849C15.8988 11.7689 15.9911 11.6257 16.055 11.4553L17.06 11.6364C16.9795 11.9323 16.8351 12.1915 16.6268 12.4141C16.4208 12.6342 16.1616 12.8059 15.8491 12.929C15.5389 13.0497 15.185 13.1101 14.7873 13.1101ZM19.0167 7.54545L20.2205 9.66903L21.435 7.54545H22.5962L20.8952 10.2727L22.6104 13H21.4492L20.2205 10.9616L18.9954 13H17.8306L19.5281 10.2727L17.8519 7.54545H19.0167ZM26.2326 7.54545V8.39773H23.2532V7.54545H26.2326ZM24.0522 6.23864H25.114V11.3984C25.114 11.6044 25.1448 11.7595 25.2063 11.8636C25.2679 11.9654 25.3472 12.0353 25.4442 12.0732C25.5437 12.1087 25.6514 12.1264 25.7674 12.1264C25.8526 12.1264 25.9272 12.1205 25.9911 12.1087C26.055 12.0968 26.1048 12.0874 26.1403 12.0803L26.332 12.9574C26.2705 12.9811 26.1829 13.0047 26.0692 13.0284C25.9556 13.0545 25.8136 13.0687 25.6431 13.071C25.3638 13.0758 25.1033 13.026 24.8619 12.9219C24.6204 12.8177 24.4251 12.6567 24.2759 12.4389C24.1268 12.2211 24.0522 11.9477 24.0522 11.6186V6.23864Z" fill="black" fill-opacity="0.25"/>
<rect x="0.5" y="26.5" width="63.9252" height="63.9252" rx="1.5" fill="#2A2B2E"/>
<path d="M9.75546 62.4689V61.7019L12.6361 58.5484C12.9742 58.1791 13.2526 57.8581 13.4714 57.5854C13.6901 57.3098 13.8521 57.0513 13.9572 56.8098C14.0651 56.5655 14.1191 56.3098 14.1191 56.0428C14.1191 55.7359 14.0452 55.4703 13.8975 55.2459C13.7526 55.0215 13.5538 54.8482 13.3009 54.726C13.0481 54.6038 12.764 54.5428 12.4486 54.5428C12.1134 54.5428 11.8208 54.6124 11.5708 54.7516C11.3236 54.8879 11.1319 55.0797 10.9955 55.3269C10.862 55.574 10.7952 55.8638 10.7952 56.1962H9.78955C9.78955 55.6848 9.90745 55.2359 10.1432 54.8496C10.379 54.4632 10.7001 54.1621 11.1063 53.9462C11.5154 53.7303 11.9742 53.6223 12.4827 53.6223C12.9941 53.6223 13.4472 53.7303 13.8421 53.9462C14.237 54.1621 14.5467 54.4533 14.7711 54.8198C14.9955 55.1862 15.1077 55.5939 15.1077 56.0428C15.1077 56.3638 15.0495 56.6777 14.933 56.9845C14.8194 57.2885 14.6205 57.628 14.3364 58.003C14.0552 58.3752 13.6646 58.8297 13.1646 59.3666L11.2043 61.4632V61.5314H15.2611V62.4689H9.75546ZM17.5324 62.4689H16.4245L19.629 53.7416H20.7199L23.9245 62.4689H22.8165L20.2086 55.1223H20.1404L17.5324 62.4689ZM17.9415 59.0598H22.4074V59.9973H17.9415V59.0598ZM25.1305 62.4689V61.7019L28.0111 58.5484C28.3492 58.1791 28.6276 57.8581 28.8464 57.5854C29.0651 57.3098 29.2271 57.0513 29.3322 56.8098C29.4401 56.5655 29.4941 56.3098 29.4941 56.0428C29.4941 55.7359 29.4202 55.4703 29.2725 55.2459C29.1276 55.0215 28.9288 54.8482 28.6759 54.726C28.4231 54.6038 28.139 54.5428 27.8236 54.5428C27.4884 54.5428 27.1958 54.6124 26.9458 54.7516C26.6986 54.8879 26.5069 55.0797 26.3705 55.3269C26.237 55.574 26.1702 55.8638 26.1702 56.1962H25.1646C25.1646 55.6848 25.2824 55.2359 25.5182 54.8496C25.754 54.4632 26.0751 54.1621 26.4813 53.9462C26.8904 53.7303 27.3492 53.6223 27.8577 53.6223C28.3691 53.6223 28.8222 53.7303 29.2171 53.9462C29.612 54.1621 29.9217 54.4533 30.1461 54.8198C30.3705 55.1862 30.4827 55.5939 30.4827 56.0428C30.4827 56.3638 30.4245 56.6777 30.308 56.9845C30.1944 57.2885 29.9955 57.628 29.7114 58.003C29.4302 58.3752 29.0396 58.8297 28.5396 59.3666L26.5793 61.4632V61.5314H30.6361V62.4689H25.1305ZM32.5495 62.4689V53.7416H35.6006C36.2086 53.7416 36.71 53.8467 37.1049 54.057C37.4998 54.2644 37.7938 54.5442 37.987 54.8965C38.1802 55.2459 38.2768 55.6337 38.2768 56.0598C38.2768 56.4348 38.21 56.7445 38.0765 56.9888C37.9458 57.2331 37.7725 57.4263 37.5566 57.5683C37.3435 57.7104 37.112 57.8155 36.862 57.8837V57.9689C37.129 57.9859 37.3975 58.0797 37.6674 58.2502C37.9373 58.4206 38.1631 58.6649 38.3449 58.9831C38.5268 59.3013 38.6177 59.6905 38.6177 60.1507C38.6177 60.5882 38.5182 60.9817 38.3194 61.3311C38.1205 61.6806 37.8066 61.9575 37.3776 62.1621C36.9486 62.3666 36.3904 62.4689 35.7029 62.4689H32.5495ZM33.6063 61.5314H35.7029C36.3932 61.5314 36.8833 61.3979 37.1731 61.1308C37.4657 60.8609 37.612 60.5342 37.612 60.1507C37.612 59.8553 37.5367 59.5825 37.3861 59.3325C37.2356 59.0797 37.0211 58.878 36.7427 58.7274C36.4643 58.574 36.1347 58.4973 35.754 58.4973H33.6063V61.5314ZM33.6063 57.5769H35.5665C35.8847 57.5769 36.1717 57.5144 36.4273 57.3894C36.6859 57.2644 36.8904 57.0882 37.041 56.8609C37.1944 56.6337 37.2711 56.3666 37.2711 56.0598C37.2711 55.6763 37.1376 55.351 36.8705 55.084C36.6035 54.8141 36.1802 54.6791 35.6006 54.6791H33.6063V57.5769ZM40.2008 62.4689V61.7019L43.0815 58.5484C43.4195 58.1791 43.6979 57.8581 43.9167 57.5854C44.1354 57.3098 44.2974 57.0513 44.4025 56.8098C44.5104 56.5655 44.5644 56.3098 44.5644 56.0428C44.5644 55.7359 44.4905 55.4703 44.3428 55.2459C44.1979 55.0215 43.9991 54.8482 43.7462 54.726C43.4934 54.6038 43.2093 54.5428 42.894 54.5428C42.5587 54.5428 42.2661 54.6124 42.0161 54.7516C41.769 54.8879 41.5772 55.0797 41.4408 55.3269C41.3073 55.574 41.2405 55.8638 41.2405 56.1962H40.2349C40.2349 55.6848 40.3528 55.2359 40.5886 54.8496C40.8244 54.4632 41.1454 54.1621 41.5516 53.9462C41.9607 53.7303 42.4195 53.6223 42.928 53.6223C43.4394 53.6223 43.8925 53.7303 44.2874 53.9462C44.6823 54.1621 44.992 54.4533 45.2164 54.8198C45.4408 55.1862 45.553 55.5939 45.553 56.0428C45.553 56.3638 45.4948 56.6777 45.3783 56.9845C45.2647 57.2885 45.0658 57.628 44.7817 58.003C44.5005 58.3752 44.1099 58.8297 43.6099 59.3666L41.6496 61.4632V61.5314H45.7065V62.4689H40.2008ZM47.6198 62.4689V53.7416H52.8869V54.6791H48.6766V57.628H52.6141V58.5655H48.6766V61.5314H52.955V62.4689H47.6198Z" fill="white"/>
<rect x="0.5" y="26.5" width="63.9252" height="63.9252" rx="1.5" stroke="black"/>
<rect x="73.4253" y="26.5" width="63.9252" height="63.9252" rx="1.5" fill="#2C381A"/>
<path d="M83.8287 62.4689V61.7019L86.7094 58.5484C87.0475 58.1791 87.3259 57.8581 87.5446 57.5854C87.7634 57.3098 87.9253 57.0513 88.0304 56.8098C88.1384 56.5655 88.1923 56.3098 88.1923 56.0428C88.1923 55.7359 88.1185 55.4703 87.9707 55.2459C87.8259 55.0215 87.627 54.8482 87.3742 54.726C87.1213 54.6038 86.8372 54.5428 86.5219 54.5428C86.1867 54.5428 85.894 54.6124 85.644 54.7516C85.3969 54.8879 85.2051 55.0797 85.0688 55.3269C84.9352 55.574 84.8685 55.8638 84.8685 56.1962H83.8628C83.8628 55.6848 83.9807 55.2359 84.2165 54.8496C84.4523 54.4632 84.7733 54.1621 85.1796 53.9462C85.5886 53.7303 86.0475 53.6223 86.556 53.6223C87.0673 53.6223 87.5205 53.7303 87.9154 53.9462C88.3102 54.1621 88.6199 54.4533 88.8443 54.8198C89.0688 55.1862 89.181 55.5939 89.181 56.0428C89.181 56.3638 89.1227 56.6777 89.0063 56.9845C88.8926 57.2885 88.6938 57.628 88.4097 58.003C88.1284 58.3752 87.7378 58.8297 87.2378 59.3666L85.2776 61.4632V61.5314H89.3344V62.4689H83.8287ZM98.2705 56.4689H97.2136C97.1511 56.1649 97.0418 55.8979 96.8855 55.6678C96.7321 55.4377 96.5446 55.2445 96.323 55.0882C96.1043 54.9291 95.8614 54.8098 95.5943 54.7303C95.3273 54.6507 95.0489 54.6109 94.7591 54.6109C94.2307 54.6109 93.752 54.7445 93.323 55.0115C92.8969 55.2786 92.5574 55.672 92.3046 56.1919C92.0546 56.7118 91.9296 57.3496 91.9296 58.1053C91.9296 58.8609 92.0546 59.4987 92.3046 60.0186C92.5574 60.5385 92.8969 60.932 93.323 61.199C93.752 61.4661 94.2307 61.5996 94.7591 61.5996C95.0489 61.5996 95.3273 61.5598 95.5943 61.4803C95.8614 61.4007 96.1043 61.2828 96.323 61.1266C96.5446 60.9675 96.7321 60.7729 96.8855 60.5428C97.0418 60.3098 97.1511 60.0428 97.2136 59.7416H98.2705C98.1909 60.1877 98.046 60.5868 97.8358 60.9391C97.6256 61.2913 97.3642 61.5911 97.0517 61.8382C96.7392 62.0825 96.3884 62.2686 95.9992 62.3965C95.6128 62.5243 95.1994 62.5882 94.7591 62.5882C94.0148 62.5882 93.3528 62.4064 92.7733 62.0428C92.1938 61.6791 91.7378 61.1621 91.4054 60.4916C91.073 59.8212 90.9068 59.0257 90.9068 58.1053C90.9068 57.1848 91.073 56.3894 91.4054 55.7189C91.7378 55.0484 92.1938 54.5314 92.7733 54.1678C93.3528 53.8041 94.0148 53.6223 94.7591 53.6223C95.1994 53.6223 95.6128 53.6862 95.9992 53.8141C96.3884 53.9419 96.7392 54.1294 97.0517 54.3766C97.3642 54.6209 97.6256 54.9192 97.8358 55.2715C98.046 55.6209 98.1909 56.02 98.2705 56.4689ZM102.774 62.5882C102.211 62.5882 101.71 62.4916 101.269 62.2984C100.832 62.1053 100.484 61.8368 100.225 61.4931C99.9697 61.1465 99.8305 60.7445 99.8078 60.2871H100.882C100.904 60.5683 101.001 60.8112 101.171 61.0158C101.342 61.2175 101.565 61.3737 101.84 61.4845C102.116 61.5953 102.421 61.6507 102.757 61.6507C103.132 61.6507 103.464 61.5854 103.754 61.4547C104.044 61.324 104.271 61.1422 104.436 60.9092C104.6 60.6763 104.683 60.4064 104.683 60.0996C104.683 59.7786 104.603 59.4959 104.444 59.2516C104.285 59.0044 104.052 58.8112 103.745 58.672C103.438 58.5328 103.063 58.4632 102.62 58.4632H101.921V57.5257H102.62C102.967 57.5257 103.271 57.4632 103.532 57.3382C103.796 57.2132 104.002 57.0371 104.15 56.8098C104.301 56.5825 104.376 56.3155 104.376 56.0087C104.376 55.7132 104.311 55.4561 104.18 55.2374C104.049 55.0186 103.865 54.8482 103.626 54.726C103.39 54.6038 103.112 54.5428 102.791 54.5428C102.49 54.5428 102.205 54.5982 101.938 54.709C101.674 54.8169 101.458 54.9746 101.291 55.182C101.123 55.3865 101.032 55.6337 101.018 55.9234H99.9953C100.012 55.4661 100.15 55.0655 100.409 54.7217C100.667 54.3752 101.005 54.1053 101.423 53.9121C101.843 53.7189 102.305 53.6223 102.808 53.6223C103.348 53.6223 103.811 53.7317 104.197 53.9504C104.583 54.1663 104.88 54.4519 105.088 54.807C105.295 55.1621 105.399 55.5456 105.399 55.9575C105.399 56.449 105.269 56.8681 105.011 57.2146C104.755 57.5612 104.407 57.8013 103.967 57.9348V58.003C104.518 58.0939 104.948 58.3283 105.258 58.7061C105.568 59.0811 105.723 59.5456 105.723 60.0996C105.723 60.574 105.593 61.0002 105.335 61.378C105.079 61.753 104.73 62.0484 104.286 62.2644C103.843 62.4803 103.339 62.5882 102.774 62.5882ZM110.261 62.5882C109.676 62.5882 109.159 62.4845 108.71 62.2771C108.264 62.0669 107.916 61.7786 107.666 61.4121C107.416 61.0428 107.292 60.6223 107.295 60.1507C107.292 59.7814 107.365 59.4405 107.512 59.128C107.66 58.8127 107.862 58.5499 108.117 58.3396C108.376 58.1266 108.664 57.9916 108.982 57.9348V57.8837C108.565 57.7757 108.232 57.5413 107.985 57.1806C107.738 56.8169 107.616 56.4036 107.619 55.9405C107.616 55.4973 107.728 55.101 107.955 54.7516C108.183 54.4021 108.495 54.1266 108.893 53.9249C109.294 53.7232 109.75 53.6223 110.261 53.6223C110.767 53.6223 111.218 53.7232 111.616 53.9249C112.014 54.1266 112.326 54.4021 112.553 54.7516C112.784 55.101 112.9 55.4973 112.903 55.9405C112.9 56.4036 112.774 56.8169 112.524 57.1806C112.277 57.5413 111.948 57.7757 111.539 57.8837V57.9348C111.855 57.9916 112.139 58.1266 112.392 58.3396C112.644 58.5499 112.846 58.8127 112.997 59.128C113.147 59.4405 113.224 59.7814 113.227 60.1507C113.224 60.6223 113.096 61.0428 112.843 61.4121C112.593 61.7786 112.245 62.0669 111.799 62.2771C111.356 62.4845 110.843 62.5882 110.261 62.5882ZM110.261 61.6507C110.656 61.6507 110.997 61.5868 111.284 61.459C111.571 61.3311 111.792 61.1507 111.948 60.9178C112.105 60.6848 112.184 60.4121 112.187 60.0996C112.184 59.77 112.099 59.4788 111.931 59.226C111.764 58.9732 111.535 58.7743 111.245 58.6294C110.958 58.4845 110.63 58.4121 110.261 58.4121C109.889 58.4121 109.556 58.4845 109.264 58.6294C108.974 58.7743 108.745 58.9732 108.578 59.226C108.413 59.4788 108.332 59.77 108.335 60.0996C108.332 60.4121 108.407 60.6848 108.561 60.9178C108.717 61.1507 108.94 61.3311 109.23 61.459C109.519 61.5868 109.863 61.6507 110.261 61.6507ZM110.261 57.5087C110.573 57.5087 110.85 57.4462 111.092 57.3212C111.336 57.1962 111.528 57.0215 111.667 56.797C111.806 56.5726 111.877 56.3098 111.88 56.0087C111.877 55.7132 111.808 55.4561 111.671 55.2374C111.535 55.0158 111.346 54.8453 111.105 54.726C110.863 54.6038 110.582 54.5428 110.261 54.5428C109.934 54.5428 109.649 54.6038 109.404 54.726C109.16 54.8453 108.971 55.0158 108.838 55.2374C108.704 55.4561 108.639 55.7132 108.642 56.0087C108.639 56.3098 108.705 56.5726 108.842 56.797C108.981 57.0215 109.173 57.1962 109.417 57.3212C109.661 57.4462 109.943 57.5087 110.261 57.5087ZM117.928 53.7416V62.4689H116.871V54.8496H116.82L114.689 56.2644V55.1905L116.871 53.7416H117.928ZM120.949 62.4689H119.841L123.046 53.7416H124.137L127.341 62.4689H126.234L123.626 55.1223H123.557L120.949 62.4689ZM121.359 59.0598H125.824V59.9973H121.359V59.0598Z" fill="white"/>
<rect x="73.4253" y="26.5" width="63.9252" height="63.9252" rx="1.5" stroke="black"/>
<rect x="146.35" y="26.5" width="63.9252" height="63.9252" rx="1.5" fill="#F4F4F4"/>
<path d="M157.834 62.4689V53.7416H163.067V54.6791H158.891V57.628H162.675V58.5655H158.891V62.4689H157.834ZM164.519 60.6791V59.8098L168.354 53.7416H168.985V55.0882H168.559L165.661 59.6734V59.7416H170.826V60.6791H164.519ZM168.627 62.4689V60.4149V60.0101V53.7416H169.633V62.4689H168.627ZM172.576 62.4689V53.7416H177.809V54.6791H173.633V57.628H177.417V58.5655H173.633V62.4689H172.576ZM179.261 60.6791V59.8098L183.096 53.7416H183.727V55.0882H183.301L180.403 59.6734V59.7416H185.568V60.6791H179.261ZM183.369 62.4689V60.4149V60.0101V53.7416H184.375V62.4689H183.369ZM187.318 62.4689V53.7416H192.551V54.6791H188.375V57.628H192.159V58.5655H188.375V62.4689H187.318ZM194.003 60.6791V59.8098L197.839 53.7416H198.469V55.0882H198.043L195.145 59.6734V59.7416H200.31V60.6791H194.003ZM198.111 62.4689V60.4149V60.0101V53.7416H199.117V62.4689H198.111Z" fill="black"/>
<rect x="146.35" y="26.5" width="63.9252" height="63.9252" rx="1.5" stroke="black"/>
<rect x="226.776" width="89" height="18" rx="9" fill="#D5DAEE"/>
<path d="M233.575 13V5.72727H236.167C236.733 5.72727 237.202 5.83026 237.573 6.03622C237.945 6.24219 238.223 6.52391 238.408 6.88139C238.592 7.23651 238.685 7.6366 238.685 8.08168C238.685 8.52912 238.591 8.93158 238.404 9.28906C238.22 9.64418 237.94 9.9259 237.566 10.1342C237.194 10.3402 236.727 10.4432 236.163 10.4432H234.381V9.51278H236.064C236.421 9.51278 236.711 9.45123 236.934 9.32812C237.157 9.20265 237.32 9.0322 237.424 8.81676C237.528 8.60133 237.58 8.3563 237.58 8.08168C237.58 7.80705 237.528 7.56321 237.424 7.35014C237.32 7.13707 237.155 6.97017 236.93 6.84943C236.708 6.72869 236.414 6.66832 236.05 6.66832H234.672V13H233.575ZM239.886 13V7.54545H240.912V8.41193H240.969C241.068 8.11837 241.244 7.88755 241.495 7.71946C241.748 7.54901 242.034 7.46378 242.354 7.46378C242.42 7.46378 242.498 7.46615 242.588 7.47088C242.681 7.47562 242.753 7.48153 242.805 7.48864V8.50426C242.762 8.49242 242.687 8.4794 242.578 8.4652C242.469 8.44863 242.36 8.44034 242.251 8.44034C242 8.44034 241.776 8.49361 241.58 8.60014C241.386 8.70431 241.232 8.84991 241.118 9.03693C241.005 9.22159 240.948 9.43229 240.948 9.66903V13H239.886ZM243.724 13V7.54545H244.786V13H243.724ZM244.26 6.70384C244.075 6.70384 243.917 6.64228 243.784 6.51918C243.654 6.3937 243.589 6.24455 243.589 6.07173C243.589 5.89654 243.654 5.7474 243.784 5.62429C243.917 5.49882 244.075 5.43608 244.26 5.43608C244.445 5.43608 244.602 5.49882 244.732 5.62429C244.865 5.7474 244.931 5.89654 244.931 6.07173C244.931 6.24455 244.865 6.3937 244.732 6.51918C244.602 6.64228 244.445 6.70384 244.26 6.70384ZM246.214 13V7.54545H247.233V8.43324H247.301C247.414 8.13258 247.6 7.8982 247.858 7.73011C248.116 7.55966 248.425 7.47443 248.785 7.47443C249.15 7.47443 249.455 7.55966 249.701 7.73011C249.95 7.90057 250.133 8.13494 250.252 8.43324H250.308C250.439 8.14205 250.646 7.91004 250.93 7.73722C251.214 7.56203 251.553 7.47443 251.946 7.47443C252.44 7.47443 252.844 7.6295 253.156 7.93963C253.471 8.24976 253.629 8.71733 253.629 9.34233V13H252.567V9.44176C252.567 9.07244 252.466 8.80492 252.265 8.6392C252.064 8.47348 251.824 8.39062 251.544 8.39062C251.199 8.39062 250.93 8.49716 250.738 8.71023C250.546 8.92093 250.451 9.192 250.451 9.52344V13H249.392V9.37429C249.392 9.07836 249.3 8.84044 249.115 8.66051C248.931 8.48059 248.69 8.39062 248.394 8.39062C248.193 8.39062 248.007 8.44389 247.837 8.55043C247.669 8.65459 247.533 8.80019 247.429 8.98722C247.327 9.17424 247.276 9.39086 247.276 9.63707V13H246.214ZM256.639 13.1207C256.294 13.1207 255.981 13.0568 255.702 12.929C255.422 12.7988 255.201 12.6106 255.038 12.3643C254.877 12.1181 254.796 11.8163 254.796 11.4588C254.796 11.151 254.855 10.8977 254.974 10.6989C255.092 10.5 255.252 10.3426 255.453 10.2266C255.654 10.1106 255.879 10.023 256.128 9.96378C256.376 9.90459 256.63 9.85961 256.888 9.82884C257.215 9.79096 257.48 9.76018 257.683 9.73651C257.887 9.71046 258.035 9.66903 258.127 9.61222C258.22 9.5554 258.266 9.46307 258.266 9.33523V9.31037C258.266 9.00024 258.178 8.75994 258.003 8.58949C257.83 8.41903 257.572 8.33381 257.229 8.33381C256.871 8.33381 256.59 8.41312 256.384 8.57173C256.18 8.72798 256.039 8.90199 255.961 9.09375L254.963 8.86648C255.082 8.53504 255.254 8.26752 255.482 8.06392C255.711 7.85795 255.975 7.70881 256.274 7.61648C256.572 7.52178 256.885 7.47443 257.215 7.47443C257.432 7.47443 257.663 7.50047 257.907 7.55256C258.153 7.60227 258.383 7.6946 258.596 7.82955C258.811 7.96449 258.988 8.15743 259.125 8.40838C259.262 8.65696 259.331 8.98011 259.331 9.37784V13H258.294V12.2543H258.251C258.183 12.3916 258.08 12.5265 257.943 12.6591C257.805 12.7917 257.629 12.9018 257.413 12.9893C257.198 13.0769 256.94 13.1207 256.639 13.1207ZM256.87 12.2685C257.164 12.2685 257.415 12.2105 257.623 12.0945C257.834 11.9785 257.993 11.8269 258.102 11.6399C258.214 11.4505 258.269 11.2481 258.269 11.0327V10.3295C258.231 10.3674 258.158 10.4029 258.049 10.4361C257.943 10.4669 257.821 10.4941 257.683 10.5178C257.546 10.5391 257.412 10.5592 257.282 10.5781C257.152 10.5947 257.043 10.6089 256.955 10.6207C256.749 10.6468 256.561 10.6906 256.391 10.7521C256.223 10.8137 256.088 10.9025 255.986 11.0185C255.886 11.1321 255.837 11.2836 255.837 11.473C255.837 11.7358 255.934 11.9347 256.128 12.0696C256.322 12.2022 256.569 12.2685 256.87 12.2685ZM260.745 13V7.54545H261.772V8.41193H261.828C261.928 8.11837 262.103 7.88755 262.354 7.71946C262.607 7.54901 262.894 7.46378 263.213 7.46378C263.28 7.46378 263.358 7.46615 263.448 7.47088C263.54 7.47562 263.612 7.48153 263.664 7.48864V8.50426C263.622 8.49242 263.546 8.4794 263.437 8.4652C263.328 8.44863 263.219 8.44034 263.11 8.44034C262.859 8.44034 262.636 8.49361 262.439 8.60014C262.245 8.70431 262.091 8.84991 261.978 9.03693C261.864 9.22159 261.807 9.43229 261.807 9.66903V13H260.745ZM265.42 15.0455C265.262 15.0455 265.117 15.0324 264.987 15.0064C264.857 14.9827 264.76 14.9567 264.696 14.9283L264.952 14.0582C265.146 14.1103 265.319 14.1328 265.47 14.1257C265.622 14.1186 265.755 14.0618 265.871 13.9553C265.99 13.8487 266.094 13.6747 266.184 13.4332L266.315 13.071L264.319 7.54545H265.456L266.837 11.7784H266.894L268.275 7.54545H269.415L267.168 13.728C267.063 14.0121 266.931 14.2524 266.77 14.4489C266.609 14.6477 266.417 14.7969 266.194 14.8963C265.972 14.9957 265.714 15.0455 265.42 15.0455ZM279.185 8.09233H278.077C278.035 7.85559 277.956 7.64725 277.84 7.46733C277.724 7.28741 277.582 7.13471 277.413 7.00923C277.245 6.88376 277.057 6.78906 276.849 6.72514C276.643 6.66122 276.424 6.62926 276.192 6.62926C275.773 6.62926 275.398 6.73461 275.066 6.94531C274.737 7.15601 274.477 7.46496 274.285 7.87216C274.095 8.27936 274.001 8.77652 274.001 9.36364C274.001 9.95549 274.095 10.455 274.285 10.8622C274.477 11.2694 274.738 11.5772 275.07 11.7855C275.401 11.9938 275.774 12.098 276.188 12.098C276.418 12.098 276.636 12.0672 276.842 12.0057C277.05 11.9418 277.238 11.8482 277.406 11.7251C277.574 11.602 277.716 11.4517 277.832 11.2741C277.951 11.0942 278.033 10.8883 278.077 10.6562L279.185 10.6598C279.126 11.0173 279.011 11.3464 278.841 11.647C278.673 11.9453 278.456 12.2034 278.191 12.4212C277.928 12.6366 277.628 12.8035 277.289 12.9219C276.951 13.0402 276.581 13.0994 276.181 13.0994C275.551 13.0994 274.99 12.9503 274.498 12.652C274.006 12.3513 273.617 11.9216 273.333 11.3629C273.051 10.8042 272.911 10.1378 272.911 9.36364C272.911 8.58712 273.053 7.92069 273.337 7.36435C273.621 6.80563 274.009 6.37713 274.501 6.07884C274.994 5.77817 275.554 5.62784 276.181 5.62784C276.567 5.62784 276.927 5.68348 277.261 5.79474C277.597 5.90365 277.899 6.06463 278.166 6.2777C278.434 6.4884 278.655 6.74645 278.83 7.05185C279.006 7.35488 279.124 7.7017 279.185 8.09233ZM282.711 13.1101C282.199 13.1101 281.753 12.9929 281.372 12.7585C280.991 12.5241 280.695 12.1963 280.484 11.7749C280.274 11.3535 280.168 10.861 280.168 10.2976C280.168 9.73177 280.274 9.23698 280.484 8.81321C280.695 8.38944 280.991 8.06037 281.372 7.82599C281.753 7.59162 282.199 7.47443 282.711 7.47443C283.222 7.47443 283.668 7.59162 284.05 7.82599C284.431 8.06037 284.727 8.38944 284.937 8.81321C285.148 9.23698 285.253 9.73177 285.253 10.2976C285.253 10.861 285.148 11.3535 284.937 11.7749C284.727 12.1963 284.431 12.5241 284.05 12.7585C283.668 12.9929 283.222 13.1101 282.711 13.1101ZM282.714 12.2188C283.046 12.2188 283.32 12.1312 283.538 11.956C283.756 11.7808 283.917 11.5476 284.021 11.2564C284.128 10.9652 284.181 10.6444 284.181 10.294C284.181 9.94602 284.128 9.62642 284.021 9.33523C283.917 9.04167 283.756 8.80611 283.538 8.62855C283.32 8.45099 283.046 8.36222 282.714 8.36222C282.381 8.36222 282.104 8.45099 281.883 8.62855C281.666 8.80611 281.503 9.04167 281.397 9.33523C281.293 9.62642 281.241 9.94602 281.241 10.294C281.241 10.6444 281.293 10.9652 281.397 11.2564C281.503 11.5476 281.666 11.7808 281.883 11.956C282.104 12.1312 282.381 12.2188 282.714 12.2188ZM287.5 5.72727V13H286.439V5.72727H287.5ZM291.226 13.1101C290.715 13.1101 290.269 12.9929 289.888 12.7585C289.507 12.5241 289.211 12.1963 289 11.7749C288.789 11.3535 288.684 10.861 288.684 10.2976C288.684 9.73177 288.789 9.23698 289 8.81321C289.211 8.38944 289.507 8.06037 289.888 7.82599C290.269 7.59162 290.715 7.47443 291.226 7.47443C291.738 7.47443 292.184 7.59162 292.565 7.82599C292.946 8.06037 293.242 8.38944 293.453 8.81321C293.664 9.23698 293.769 9.73177 293.769 10.2976C293.769 10.861 293.664 11.3535 293.453 11.7749C293.242 12.1963 292.946 12.5241 292.565 12.7585C292.184 12.9929 291.738 13.1101 291.226 13.1101ZM291.23 12.2188C291.561 12.2188 291.836 12.1312 292.054 11.956C292.272 11.7808 292.433 11.5476 292.537 11.2564C292.643 10.9652 292.697 10.6444 292.697 10.294C292.697 9.94602 292.643 9.62642 292.537 9.33523C292.433 9.04167 292.272 8.80611 292.054 8.62855C291.836 8.45099 291.561 8.36222 291.23 8.36222C290.896 8.36222 290.619 8.45099 290.399 8.62855C290.181 8.80611 290.019 9.04167 289.913 9.33523C289.808 9.62642 289.756 9.94602 289.756 10.294C289.756 10.6444 289.808 10.9652 289.913 11.2564C290.019 11.5476 290.181 11.7808 290.399 11.956C290.619 12.1312 290.896 12.2188 291.23 12.2188ZM298.41 10.7379V7.54545H299.475V13H298.431V12.0554H298.374C298.249 12.3466 298.047 12.5893 297.77 12.7834C297.496 12.9751 297.154 13.071 296.744 13.071C296.394 13.071 296.084 12.9941 295.814 12.8402C295.546 12.6839 295.335 12.4531 295.182 12.1477C295.03 11.8423 294.954 11.4647 294.954 11.0149V7.54545H296.016V10.8871C296.016 11.2588 296.119 11.5547 296.325 11.7749C296.531 11.995 296.798 12.1051 297.128 12.1051C297.326 12.1051 297.524 12.0554 297.721 11.956C297.919 11.8565 298.084 11.7062 298.214 11.505C298.347 11.3037 298.412 11.0481 298.41 10.7379ZM300.902 13V7.54545H301.928V8.41193H301.985C302.084 8.11837 302.259 7.88755 302.51 7.71946C302.764 7.54901 303.05 7.46378 303.37 7.46378C303.436 7.46378 303.514 7.46615 303.604 7.47088C303.696 7.47562 303.768 7.48153 303.821 7.48864V8.50426C303.778 8.49242 303.702 8.4794 303.593 8.4652C303.484 8.44863 303.375 8.44034 303.267 8.44034C303.016 8.44034 302.792 8.49361 302.595 8.60014C302.401 8.70431 302.247 8.84991 302.134 9.03693C302.02 9.22159 301.963 9.43229 301.963 9.66903V13H300.902ZM308.827 8.87713L307.864 9.04759C307.824 8.92448 307.76 8.80729 307.673 8.69602C307.587 8.58475 307.471 8.49361 307.325 8.42259C307.178 8.35156 306.994 8.31605 306.774 8.31605C306.474 8.31605 306.223 8.38352 306.021 8.51847C305.82 8.65104 305.72 8.82268 305.72 9.03338C305.72 9.21567 305.787 9.36245 305.922 9.47372C306.057 9.58499 306.275 9.67614 306.575 9.74716L307.442 9.94602C307.944 10.062 308.318 10.2408 308.564 10.4822C308.81 10.7237 308.933 11.0374 308.933 11.4233C308.933 11.75 308.839 12.0412 308.649 12.2969C308.462 12.5502 308.201 12.7491 307.864 12.8935C307.531 13.0379 307.144 13.1101 306.703 13.1101C306.092 13.1101 305.594 12.9799 305.208 12.7195C304.822 12.4567 304.586 12.0838 304.498 11.6009L305.524 11.4446C305.588 11.7121 305.72 11.9145 305.918 12.0518C306.117 12.1868 306.376 12.2543 306.696 12.2543C307.044 12.2543 307.322 12.1821 307.531 12.0376C307.739 11.8909 307.843 11.7121 307.843 11.5014C307.843 11.331 307.779 11.1877 307.651 11.0717C307.526 10.9557 307.333 10.8681 307.073 10.8089L306.149 10.6065C305.64 10.4905 305.264 10.3059 305.02 10.0526C304.778 9.79924 304.658 9.47846 304.658 9.0902C304.658 8.76823 304.748 8.48651 304.928 8.24503C305.108 8.00355 305.356 7.81534 305.673 7.6804C305.991 7.54309 306.354 7.47443 306.764 7.47443C307.353 7.47443 307.817 7.60227 308.156 7.85795C308.494 8.11127 308.718 8.45099 308.827 8.87713Z" fill="black" fill-opacity="0.25"/>
<rect x="227.276" y="26.5" width="63.9252" height="63.9252" rx="1.5" fill="#9EBD6E"/>
<path d="M240.459 53.6223C240.817 53.6252 241.175 53.6933 241.533 53.8269C241.891 53.9604 242.218 54.182 242.513 54.4916C242.809 54.7984 243.046 55.2175 243.225 55.7487C243.404 56.28 243.493 56.9462 243.493 57.7473C243.493 58.5229 243.42 59.2118 243.272 59.8141C243.127 60.4135 242.917 60.9192 242.641 61.3311C242.368 61.7431 242.036 62.0556 241.644 62.2686C241.255 62.4817 240.815 62.5882 240.323 62.5882C239.834 62.5882 239.398 62.4916 239.015 62.2984C238.634 62.1024 238.322 61.8311 238.077 61.4845C237.836 61.1351 237.681 60.7303 237.613 60.27H238.653C238.746 60.6706 238.932 61.0016 239.211 61.2629C239.492 61.5215 239.863 61.6507 240.323 61.6507C240.996 61.6507 241.528 61.3567 241.917 60.7686C242.309 60.1806 242.505 59.3496 242.505 58.2757H242.437C242.278 58.5144 242.089 58.7203 241.87 58.8936C241.651 59.0669 241.408 59.2004 241.141 59.2942C240.874 59.3879 240.59 59.4348 240.289 59.4348C239.789 59.4348 239.33 59.3112 238.913 59.0641C238.498 58.8141 238.165 58.4717 237.915 58.0371C237.668 57.5996 237.545 57.0996 237.545 56.5371C237.545 56.003 237.664 55.5144 237.903 55.0712C238.144 54.6252 238.482 54.27 238.917 54.0058C239.354 53.7416 239.868 53.6138 240.459 53.6223ZM240.459 54.5598C240.101 54.5598 239.779 54.6493 239.492 54.8283C239.208 55.0044 238.982 55.243 238.815 55.5442C238.65 55.8425 238.567 56.1734 238.567 56.5371C238.567 56.9007 238.647 57.2317 238.806 57.53C238.968 57.8254 239.188 58.0612 239.467 58.2374C239.748 58.4107 240.067 58.4973 240.425 58.4973C240.695 58.4973 240.947 58.4448 241.18 58.3396C241.413 58.2317 241.616 58.0854 241.789 57.9007C241.965 57.7132 242.103 57.5016 242.202 57.2658C242.302 57.0271 242.351 56.7786 242.351 56.52C242.351 56.1791 242.269 55.8595 242.104 55.5612C241.942 55.2629 241.718 55.0215 241.431 54.8368C241.147 54.6521 240.823 54.5598 240.459 54.5598ZM245.323 62.4689V53.7416H250.59V54.6791H246.38V57.628H250.317V58.5655H246.38V61.5314H250.658V62.4689H245.323ZM252.495 62.4689V53.7416H255.546C256.154 53.7416 256.655 53.8467 257.05 54.057C257.445 54.2644 257.739 54.5442 257.932 54.8965C258.125 55.2459 258.222 55.6337 258.222 56.0598C258.222 56.4348 258.155 56.7445 258.022 56.9888C257.891 57.2331 257.718 57.4263 257.502 57.5683C257.289 57.7104 257.057 57.8155 256.807 57.8837V57.9689C257.074 57.9859 257.343 58.0797 257.612 58.2502C257.882 58.4206 258.108 58.6649 258.29 58.9831C258.472 59.3013 258.563 59.6905 258.563 60.1507C258.563 60.5882 258.463 60.9817 258.264 61.3311C258.066 61.6806 257.752 61.9575 257.323 62.1621C256.894 62.3666 256.335 62.4689 255.648 62.4689H252.495ZM253.551 61.5314H255.648C256.338 61.5314 256.828 61.3979 257.118 61.1308C257.411 60.8609 257.557 60.5342 257.557 60.1507C257.557 59.8553 257.482 59.5825 257.331 59.3325C257.181 59.0797 256.966 58.878 256.688 58.7274C256.409 58.574 256.08 58.4973 255.699 58.4973H253.551V61.5314ZM253.551 57.5769H255.512C255.83 57.5769 256.117 57.5144 256.372 57.3894C256.631 57.2644 256.835 57.0882 256.986 56.8609C257.139 56.6337 257.216 56.3666 257.216 56.0598C257.216 55.6763 257.083 55.351 256.816 55.084C256.549 54.8141 256.125 54.6791 255.546 54.6791H253.551V57.5769ZM262.992 62.4689H260.299V53.7416H263.112C263.958 53.7416 264.683 53.9163 265.285 54.2658C265.887 54.6124 266.349 55.1109 266.67 55.7615C266.991 56.4092 267.152 57.1848 267.152 58.0882C267.152 58.9973 266.99 59.78 266.666 60.4362C266.342 61.0896 265.87 61.5925 265.251 61.9448C264.632 62.2942 263.879 62.4689 262.992 62.4689ZM261.356 61.5314H262.924C263.646 61.5314 264.244 61.3922 264.718 61.1138C265.193 60.8354 265.546 60.4391 265.779 59.9249C266.012 59.4107 266.129 58.7984 266.129 58.0882C266.129 57.3837 266.014 56.7771 265.784 56.2686C265.554 55.7573 265.21 55.3652 264.752 55.0925C264.295 54.8169 263.725 54.6791 263.044 54.6791H261.356V61.5314ZM271.669 62.5882C271.311 62.5825 270.953 62.5144 270.595 62.3837C270.237 62.253 269.91 62.0328 269.615 61.7232C269.319 61.4107 269.082 60.9888 268.903 60.4575C268.724 59.9234 268.634 59.253 268.634 58.4462C268.634 57.6734 268.707 56.9888 268.852 56.3922C268.997 55.7928 269.207 55.2885 269.482 54.8794C269.758 54.4675 270.09 54.155 270.48 53.9419C270.872 53.7288 271.313 53.6223 271.805 53.6223C272.294 53.6223 272.728 53.7203 273.109 53.9163C273.492 54.1095 273.805 54.3794 274.046 54.726C274.288 55.0726 274.444 55.4717 274.515 55.9234H273.475C273.379 55.5314 273.191 55.2061 272.913 54.9476C272.634 54.6891 272.265 54.5598 271.805 54.5598C271.129 54.5598 270.596 54.8538 270.207 55.4419C269.821 56.03 269.626 56.8553 269.623 57.9178H269.691C269.85 57.6763 270.039 57.4703 270.258 57.2999C270.48 57.1266 270.724 56.9931 270.991 56.8993C271.258 56.8056 271.541 56.7587 271.839 56.7587C272.339 56.7587 272.796 56.8837 273.211 57.1337C273.626 57.3808 273.958 57.7232 274.208 58.1607C274.458 58.5953 274.583 59.0939 274.583 59.6564C274.583 60.1962 274.463 60.6905 274.221 61.1394C273.98 61.5854 273.64 61.9405 273.203 62.2047C272.768 62.4661 272.257 62.5939 271.669 62.5882ZM271.669 61.6507C272.027 61.6507 272.348 61.5612 272.632 61.3823C272.919 61.2033 273.144 60.9632 273.309 60.6621C273.477 60.3609 273.561 60.0257 273.561 59.6564C273.561 59.2956 273.48 58.9675 273.318 58.672C273.159 58.3737 272.938 58.1365 272.657 57.9604C272.379 57.7842 272.061 57.6962 271.703 57.6962C271.433 57.6962 271.181 57.7502 270.948 57.8581C270.715 57.9632 270.511 58.1081 270.335 58.2928C270.161 58.4774 270.025 58.6891 269.926 58.9277C269.826 59.1635 269.777 59.4121 269.777 59.6734C269.777 60.02 269.857 60.3439 270.019 60.645C270.184 60.9462 270.409 61.1891 270.693 61.3737C270.98 61.5584 271.305 61.6507 271.669 61.6507ZM276.413 62.4689V53.7416H281.68V54.6791H277.469V57.628H281.407V58.5655H277.469V61.5314H281.748V62.4689H276.413Z" fill="black"/>
<rect x="227.276" y="26.5" width="63.9252" height="63.9252" rx="1.5" stroke="black"/>
<rect x="300.201" y="26.5" width="63.9252" height="63.9252" rx="1.5" fill="#83A84D"/>
<path d="M312.4 62.663C311.815 62.663 311.298 62.5594 310.849 62.352C310.403 62.1417 310.055 61.8534 309.805 61.4869C309.555 61.1176 309.431 60.6971 309.434 60.2255C309.431 59.8562 309.503 59.5153 309.651 59.2028C309.799 58.8875 310.001 58.6247 310.256 58.4145C310.515 58.2014 310.803 58.0665 311.121 58.0096V57.9585C310.704 57.8505 310.371 57.6162 310.124 57.2554C309.877 56.8917 309.755 56.4784 309.758 56.0153C309.755 55.5721 309.867 55.1758 310.094 54.8264C310.322 54.477 310.634 54.2014 311.032 53.9997C311.432 53.798 311.888 53.6971 312.4 53.6971C312.905 53.6971 313.357 53.798 313.755 53.9997C314.153 54.2014 314.465 54.477 314.692 54.8264C314.923 55.1758 315.039 55.5721 315.042 56.0153C315.039 56.4784 314.913 56.8917 314.663 57.2554C314.415 57.6162 314.087 57.8505 313.678 57.9585V58.0096C313.994 58.0665 314.278 58.2014 314.53 58.4145C314.783 58.6247 314.985 58.8875 315.136 59.2028C315.286 59.5153 315.363 59.8562 315.366 60.2255C315.363 60.6971 315.235 61.1176 314.982 61.4869C314.732 61.8534 314.384 62.1417 313.938 62.352C313.495 62.5594 312.982 62.663 312.4 62.663ZM312.4 61.7255C312.795 61.7255 313.136 61.6616 313.423 61.5338C313.709 61.4059 313.931 61.2255 314.087 60.9926C314.244 60.7596 314.323 60.4869 314.326 60.1744C314.323 59.8449 314.238 59.5537 314.07 59.3008C313.903 59.048 313.674 58.8491 313.384 58.7042C313.097 58.5594 312.769 58.4869 312.4 58.4869C312.028 58.4869 311.695 58.5594 311.403 58.7042C311.113 58.8491 310.884 59.048 310.717 59.3008C310.552 59.5537 310.471 59.8449 310.474 60.1744C310.471 60.4869 310.546 60.7596 310.7 60.9926C310.856 61.2255 311.079 61.4059 311.369 61.5338C311.658 61.6616 312.002 61.7255 312.4 61.7255ZM312.4 57.5835C312.712 57.5835 312.989 57.521 313.231 57.396C313.475 57.271 313.667 57.0963 313.806 56.8719C313.945 56.6474 314.016 56.3846 314.019 56.0835C314.016 55.788 313.947 55.5309 313.81 55.3122C313.674 55.0906 313.485 54.9202 313.244 54.8008C313.002 54.6787 312.721 54.6176 312.4 54.6176C312.073 54.6176 311.788 54.6787 311.543 54.8008C311.299 54.9202 311.11 55.0906 310.976 55.3122C310.843 55.5309 310.778 55.788 310.78 56.0835C310.778 56.3846 310.844 56.6474 310.981 56.8719C311.12 57.0963 311.312 57.271 311.556 57.396C311.8 57.521 312.082 57.5835 312.4 57.5835ZM319.948 62.663C319.385 62.663 318.884 62.5665 318.443 62.3733C318.006 62.1801 317.658 61.9116 317.399 61.5679C317.144 61.2213 317.005 60.8193 316.982 60.3619H318.056C318.078 60.6432 318.175 60.8861 318.345 61.0906C318.516 61.2923 318.739 61.4486 319.014 61.5594C319.29 61.6702 319.595 61.7255 319.931 61.7255C320.306 61.7255 320.638 61.6602 320.928 61.5295C321.218 61.3988 321.445 61.217 321.61 60.9841C321.774 60.7511 321.857 60.4812 321.857 60.1744C321.857 59.8534 321.777 59.5707 321.618 59.3264C321.459 59.0792 321.226 58.8861 320.919 58.7469C320.613 58.6077 320.238 58.538 319.794 58.538H319.095V57.6005H319.794C320.141 57.6005 320.445 57.538 320.706 57.413C320.97 57.288 321.176 57.1119 321.324 56.8846C321.475 56.6574 321.55 56.3903 321.55 56.0835C321.55 55.788 321.485 55.5309 321.354 55.3122C321.223 55.0934 321.039 54.923 320.8 54.8008C320.564 54.6787 320.286 54.6176 319.965 54.6176C319.664 54.6176 319.38 54.673 319.113 54.7838C318.848 54.8917 318.632 55.0494 318.465 55.2568C318.297 55.4613 318.206 55.7085 318.192 55.9983H317.169C317.186 55.5409 317.324 55.1403 317.583 54.7966C317.841 54.45 318.179 54.1801 318.597 53.9869C319.017 53.7937 319.479 53.6971 319.982 53.6971C320.522 53.6971 320.985 53.8065 321.371 54.0253C321.757 54.2412 322.054 54.5267 322.262 54.8818C322.469 55.2369 322.573 55.6204 322.573 56.0324C322.573 56.5238 322.443 56.9429 322.185 57.2895C321.929 57.6361 321.581 57.8761 321.141 58.0096V58.0778C321.692 58.1687 322.122 58.4031 322.432 58.7809C322.742 59.1559 322.897 59.6204 322.897 60.1744C322.897 60.6488 322.767 61.075 322.509 61.4528C322.253 61.8278 321.904 62.1233 321.461 62.3392C321.017 62.5551 320.513 62.663 319.948 62.663ZM325.151 62.5437H324.043L327.247 53.8165H328.338L331.543 62.5437H330.435L327.827 55.1971H327.759L325.151 62.5437ZM325.56 59.1346H330.026V60.0721H325.56V59.1346ZM335.544 62.663C334.959 62.663 334.442 62.5594 333.993 62.352C333.547 62.1417 333.199 61.8534 332.949 61.4869C332.699 61.1176 332.576 60.6971 332.578 60.2255C332.576 59.8562 332.648 59.5153 332.796 59.2028C332.943 58.8875 333.145 58.6247 333.401 58.4145C333.659 58.2014 333.948 58.0665 334.266 58.0096V57.9585C333.848 57.8505 333.516 57.6162 333.269 57.2554C333.022 56.8917 332.899 56.4784 332.902 56.0153C332.899 55.5721 333.012 55.1758 333.239 54.8264C333.466 54.477 333.779 54.2014 334.176 53.9997C334.577 53.798 335.033 53.6971 335.544 53.6971C336.05 53.6971 336.502 53.798 336.899 53.9997C337.297 54.2014 337.61 54.477 337.837 54.8264C338.067 55.1758 338.184 55.5721 338.186 56.0153C338.184 56.4784 338.057 56.8917 337.807 57.2554C337.56 57.6162 337.232 57.8505 336.823 57.9585V58.0096C337.138 58.0665 337.422 58.2014 337.675 58.4145C337.928 58.6247 338.13 58.8875 338.28 59.2028C338.431 59.5153 338.507 59.8562 338.51 60.2255C338.507 60.6971 338.38 61.1176 338.127 61.4869C337.877 61.8534 337.529 62.1417 337.083 62.352C336.639 62.5594 336.127 62.663 335.544 62.663ZM335.544 61.7255C335.939 61.7255 336.28 61.6616 336.567 61.5338C336.854 61.4059 337.076 61.2255 337.232 60.9926C337.388 60.7596 337.468 60.4869 337.47 60.1744C337.468 59.8449 337.382 59.5537 337.215 59.3008C337.047 59.048 336.818 58.8491 336.529 58.7042C336.242 58.5594 335.914 58.4869 335.544 58.4869C335.172 58.4869 334.84 58.5594 334.547 58.7042C334.257 58.8491 334.029 59.048 333.861 59.3008C333.696 59.5537 333.615 59.8449 333.618 60.1744C333.615 60.4869 333.691 60.7596 333.844 60.9926C334 61.2255 334.223 61.4059 334.513 61.5338C334.803 61.6616 335.147 61.7255 335.544 61.7255ZM335.544 57.5835C335.857 57.5835 336.134 57.521 336.375 57.396C336.62 57.271 336.811 57.0963 336.951 56.8719C337.09 56.6474 337.161 56.3846 337.164 56.0835C337.161 55.788 337.091 55.5309 336.955 55.3122C336.818 55.0906 336.63 54.9202 336.388 54.8008C336.147 54.6787 335.865 54.6176 335.544 54.6176C335.218 54.6176 334.932 54.6787 334.688 54.8008C334.443 54.9202 334.255 55.0906 334.121 55.3122C333.988 55.5309 333.922 55.788 333.925 56.0835C333.922 56.3846 333.989 56.6474 334.125 56.8719C334.264 57.0963 334.456 57.271 334.701 57.396C334.945 57.521 335.226 57.5835 335.544 57.5835ZM339.939 60.754V59.8846L343.774 53.8165H344.405V55.163H343.979L341.081 59.7483V59.8165H346.246V60.754H339.939ZM344.047 62.5437V60.4898V60.0849V53.8165H345.052V62.5437H344.047ZM350.689 62.5437H347.996V53.8165H350.809C351.655 53.8165 352.38 53.9912 352.982 54.3406C353.584 54.6872 354.046 55.1858 354.367 55.8363C354.688 56.4841 354.848 57.2596 354.848 58.163C354.848 59.0721 354.686 59.8548 354.363 60.5111C354.039 61.1645 353.567 61.6673 352.948 62.0196C352.328 62.369 351.576 62.5437 350.689 62.5437ZM349.053 61.6062H350.621C351.343 61.6062 351.941 61.467 352.415 61.1886C352.889 60.9102 353.243 60.5139 353.476 59.9997C353.709 59.4855 353.826 58.8733 353.826 58.163C353.826 57.4585 353.711 56.852 353.48 56.3434C353.25 55.8321 352.907 55.44 352.449 55.1673C351.992 54.8917 351.422 54.754 350.74 54.754H349.053V61.6062Z" fill="white"/>
<rect x="300.201" y="26.5" width="63.9252" height="63.9252" rx="1.5" stroke="black"/>
<rect x="373.126" y="26.5" width="63.9252" height="63.9252" rx="1.5" fill="#435426"/>
<path d="M383.177 60.754V59.8846L387.012 53.8165H387.643V55.163H387.217L384.319 59.7483V59.8165H389.484V60.754H383.177ZM387.285 62.5437V60.4898V60.0849V53.8165H388.291V62.5437H387.285ZM394.03 62.663C393.467 62.663 392.966 62.5665 392.525 62.3733C392.088 62.1801 391.74 61.9116 391.481 61.5679C391.226 61.2213 391.086 60.8193 391.064 60.3619H392.137C392.16 60.6432 392.257 60.8861 392.427 61.0906C392.598 61.2923 392.821 61.4486 393.096 61.5594C393.372 61.6702 393.677 61.7255 394.012 61.7255C394.387 61.7255 394.72 61.6602 395.01 61.5295C395.299 61.3988 395.527 61.217 395.691 60.9841C395.856 60.7511 395.939 60.4812 395.939 60.1744C395.939 59.8534 395.859 59.5707 395.7 59.3264C395.541 59.0792 395.308 58.8861 395.001 58.7469C394.694 58.6077 394.319 58.538 393.876 58.538H393.177V57.6005H393.876C394.223 57.6005 394.527 57.538 394.788 57.413C395.052 57.288 395.258 57.1119 395.406 56.8846C395.557 56.6574 395.632 56.3903 395.632 56.0835C395.632 55.788 395.566 55.5309 395.436 55.3122C395.305 55.0934 395.12 54.923 394.882 54.8008C394.646 54.6787 394.368 54.6176 394.047 54.6176C393.745 54.6176 393.461 54.673 393.194 54.7838C392.93 54.8917 392.714 55.0494 392.547 55.2568C392.379 55.4613 392.288 55.7085 392.274 55.9983H391.251C391.268 55.5409 391.406 55.1403 391.664 54.7966C391.923 54.45 392.261 54.1801 392.679 53.9869C393.099 53.7937 393.561 53.6971 394.064 53.6971C394.603 53.6971 395.066 53.8065 395.453 54.0253C395.839 54.2412 396.136 54.5267 396.343 54.8818C396.551 55.2369 396.655 55.6204 396.655 56.0324C396.655 56.5238 396.525 56.9429 396.267 57.2895C396.011 57.6361 395.663 57.8761 395.223 58.0096V58.0778C395.774 58.1687 396.204 58.4031 396.514 58.7809C396.824 59.1559 396.978 59.6204 396.978 60.1744C396.978 60.6488 396.849 61.075 396.591 61.4528C396.335 61.8278 395.985 62.1233 395.542 62.3392C395.099 62.5551 394.595 62.663 394.03 62.663ZM401.449 62.663C400.949 62.663 400.498 62.5636 400.098 62.3648C399.697 62.1659 399.376 61.8932 399.135 61.5466C398.893 61.2 398.761 60.8051 398.738 60.3619H399.761C399.801 60.7568 399.98 61.0835 400.298 61.342C400.619 61.5977 401.003 61.7255 401.449 61.7255C401.807 61.7255 402.125 61.6417 402.403 61.4741C402.684 61.3065 402.905 61.0764 403.064 60.7838C403.226 60.4883 403.307 60.1545 403.307 59.7824C403.307 59.4017 403.223 59.0622 403.055 58.7639C402.89 58.4628 402.663 58.2255 402.373 58.0523C402.083 57.879 401.753 57.7909 401.38 57.788C401.113 57.7852 400.839 57.8264 400.558 57.9116C400.277 57.994 400.045 58.1005 399.863 58.2312L398.875 58.1119L399.403 53.8165H403.937V54.754H400.289L399.983 57.3278H400.034C400.213 57.1858 400.437 57.0679 400.707 56.9741C400.977 56.8804 401.258 56.8335 401.551 56.8335C402.085 56.8335 402.561 56.9613 402.978 57.217C403.399 57.4699 403.728 57.8165 403.967 58.2568C404.208 58.6971 404.329 59.2 404.329 59.7653C404.329 60.3221 404.204 60.8193 403.954 61.2568C403.707 61.6915 403.366 62.0352 402.932 62.288C402.497 62.538 402.003 62.663 401.449 62.663ZM405.818 60.754V59.8846L409.653 53.8165H410.283V55.163H409.857L406.96 59.7483V59.8165H412.124V60.754H405.818ZM409.925 62.5437V60.4898V60.0849V53.8165H410.931V62.5437H409.925ZM413.721 62.5437V61.7767L416.602 58.6233C416.94 58.254 417.218 57.9329 417.437 57.6602C417.656 57.3846 417.818 57.1261 417.923 56.8846C418.031 56.6403 418.085 56.3846 418.085 56.1176C418.085 55.8108 418.011 55.5452 417.863 55.3207C417.718 55.0963 417.52 54.923 417.267 54.8008C417.014 54.6787 416.73 54.6176 416.414 54.6176C416.079 54.6176 415.787 54.6872 415.537 54.8264C415.289 54.9628 415.098 55.1545 414.961 55.4017C414.828 55.6488 414.761 55.9386 414.761 56.271H413.755C413.755 55.7596 413.873 55.3108 414.109 54.9244C414.345 54.538 414.666 54.2369 415.072 54.021C415.481 53.8051 415.94 53.6971 416.449 53.6971C416.96 53.6971 417.413 53.8051 417.808 54.021C418.203 54.2369 418.512 54.5281 418.737 54.8946C418.961 55.2611 419.074 55.6687 419.074 56.1176C419.074 56.4386 419.015 56.7525 418.899 57.0594C418.785 57.3633 418.586 57.7028 418.302 58.0778C418.021 58.45 417.63 58.9045 417.13 59.4415L415.17 61.538V61.6062H419.227V62.5437H413.721ZM423.885 62.663C423.527 62.6574 423.169 62.5892 422.811 62.4585C422.453 62.3278 422.126 62.1077 421.831 61.798C421.535 61.4855 421.298 61.0636 421.119 60.5324C420.94 59.9983 420.851 59.3278 420.851 58.521C420.851 57.7483 420.923 57.0636 421.068 56.467C421.213 55.8676 421.423 55.3633 421.699 54.9542C421.974 54.5423 422.307 54.2298 422.696 54.0167C423.088 53.8037 423.53 53.6971 424.021 53.6971C424.51 53.6971 424.944 53.7952 425.325 53.9912C425.708 54.1844 426.021 54.4542 426.262 54.8008C426.504 55.1474 426.66 55.5466 426.731 55.9983H425.691C425.595 55.6062 425.407 55.2809 425.129 55.0224C424.851 54.7639 424.481 54.6346 424.021 54.6346C423.345 54.6346 422.812 54.9287 422.423 55.5167C422.037 56.1048 421.842 56.9301 421.839 57.9926H421.907C422.066 57.7511 422.255 57.5452 422.474 57.3747C422.696 57.2014 422.94 57.0679 423.207 56.9741C423.474 56.8804 423.757 56.8335 424.055 56.8335C424.555 56.8335 425.012 56.9585 425.427 57.2085C425.842 57.4557 426.174 57.798 426.424 58.2355C426.674 58.6702 426.799 59.1687 426.799 59.7312C426.799 60.271 426.679 60.7653 426.437 61.2142C426.196 61.6602 425.856 62.0153 425.419 62.2795C424.984 62.5409 424.473 62.6687 423.885 62.663ZM423.885 61.7255C424.243 61.7255 424.564 61.6361 424.848 61.4571C425.135 61.2781 425.36 61.038 425.525 60.7369C425.693 60.4358 425.777 60.1005 425.777 59.7312C425.777 59.3704 425.696 59.0423 425.534 58.7469C425.375 58.4486 425.155 58.2113 424.873 58.0352C424.595 57.8591 424.277 57.771 423.919 57.771C423.649 57.771 423.397 57.825 423.164 57.9329C422.932 58.038 422.727 58.1829 422.551 58.3676C422.378 58.5523 422.241 58.7639 422.142 59.0025C422.042 59.2383 421.993 59.4869 421.993 59.7483C421.993 60.0949 422.074 60.4187 422.235 60.7199C422.4 61.021 422.625 61.2639 422.909 61.4486C423.196 61.6332 423.521 61.7255 423.885 61.7255Z" fill="white"/>
<rect x="373.126" y="26.5" width="63.9252" height="63.9252" rx="1.5" stroke="black"/>
<rect x="446.051" y="26.5" width="63.9252" height="63.9252" rx="1.5" stroke="black" stroke-opacity="0.25" stroke-dasharray="2 2"/>
<rect x="520.977" y="26.5" width="63.9252" height="63.9252" rx="1.5" stroke="black" stroke-opacity="0.25" stroke-dasharray="2 2"/>
</svg>
