<svg width="79" height="79" viewBox="0 0 79 79" fill="none" xmlns="http://www.w3.org/2000/svg">
<path d="M35.5005 0.5L33.0005 9.69412L26.2933 2.5V12L19 7L20.5 15.6399L12.0004 12L15.64 20.5L6.5 19L12.0004 26.2928L2.79688 26.5L9.69457 33L1 35.5L9.00045 39.5L0.5 44.5L9.64456 45.7651L2.79688 52.7072H12.0004L6.50045 60L15.7981 58.6966L12.0004 67L20.5005 63.3604L19.0005 73L26.0005 66.8572V77L33.0005 69.3059L35.5005 78.5L39.5005 70L44.0005 78L46.2663 69.2469L53.0005 77L52.2806 67.2014L60.0005 73L58.5005 63.3604L66.8576 67L63.3609 58.5L72.5005 61L66.8576 53H76.5005L69.3063 46L79.0005 44L70.0005 39.5L78.5005 35.5L69.3063 33L76.5005 26.2928H67.0005L72.5005 19L63.5005 20.6763L67.0005 12L58.6588 15.7667L60.0005 6.5L53.0005 12.1428V2.5L46.0005 9.69412L44.0005 0L39.5005 9L35.5005 0.5Z" fill="#85A853"/>
</svg>
