<svg width="1857" height="2864" viewBox="0 0 1857 2864" fill="none" xmlns="http://www.w3.org/2000/svg">
<g clip-path="url(#clip0_2752_9093)">
<rect x="0.853516" y="0.989746" width="1856" height="1016" rx="10" fill="#1B1B1B"/>
<path d="M0.853516 0.989746H1869.85V1016.99H0.853516V0.989746Z" fill="#E4E4D0"/>
<path d="M843.372 395.49L840.938 397.406L712.423 932.406L714.854 935.49H839.813L842.244 933.573L891.333 728.986H1030.64L1125.56 934.04L1127.83 935.49H1260.41L1262.91 932.99V927.846L1262.64 926.715L1152.14 708.683C1177.35 700.919 1200.44 691.801 1221.39 681.324C1249.41 667.484 1272.04 650.51 1289.23 630.368C1306.85 609.871 1317.19 585.14 1320.29 556.272C1324.42 520.445 1316.52 490.57 1296.35 466.926C1276.68 443.46 1248.64 425.97 1212.41 414.35C1176.58 402.747 1136.03 396.596 1090.79 395.858L1090.75 395.857L843.372 395.49ZM1031.82 651.231L910.055 650.96L952.519 473.984L1087.14 474.346C1087.15 474.346 1087.16 474.346 1087.16 474.346C1112.01 474.834 1132.66 478.598 1149.21 485.542L1149.24 485.554C1165.77 492.251 1177.47 501.846 1184.59 514.244C1191.67 526.591 1193.7 541.758 1190.39 559.951C1186.76 579.492 1177.56 596.028 1162.72 609.626C1147.79 623.062 1128.99 633.432 1106.25 640.69C1083.5 647.71 1058.69 651.231 1031.82 651.231Z" fill="#09702C" stroke="#09702C" stroke-width="5" stroke-linejoin="bevel"/>
<path d="M1818.28 1026.93L1815.85 1023.84H1446.83L1572.83 498.573L1570.4 495.49H1427.66L1425.23 497.407L1278.42 1109.41L1280.85 1112.49H1382.98H1423.6H1795.54L1797.97 1110.58L1818.28 1026.93Z" fill="#09702C" stroke="#09702C" stroke-width="5" stroke-linejoin="bevel"/>
<path d="M1361.99 248.119L1364.49 250.619H1373.11L1375.61 248.119V211.676H1426.96L1429.46 209.176V202.777L1426.96 200.277H1375.61V163.99L1373.11 161.49H1364.49L1361.99 163.99V200.277H1310.85L1308.35 202.777V209.176L1310.85 211.676H1361.99V248.119Z" fill="#09702C" stroke="#09702C" stroke-width="5" stroke-linejoin="bevel"/>
<path d="M1449.78 21.6396L1447.8 24.0854V37.5602L1450.56 40.047C1457.17 39.3628 1463.13 39.0237 1468.43 39.0237C1482.26 39.0237 1493.24 42.7903 1501.6 50.1276C1512.4 60.1389 1519.42 76.8114 1522.26 100.667L1530.36 232.235L1530.37 232.258C1532.91 268.171 1534.18 295.973 1534.18 315.694C1534.18 330.16 1533.25 351.487 1531.39 379.708C1514.67 392.647 1501.85 400.747 1492.83 404.23L1492.74 404.264C1486.04 407.131 1479.22 408.554 1472.25 408.554C1469.33 408.554 1465.78 407.512 1461.53 405.155C1457.31 402.805 1452.54 399.226 1447.21 394.353L1447.21 394.347C1430.58 379.245 1412.19 371.585 1392.08 371.585C1375.99 371.585 1361.93 376.11 1350.01 385.217C1337.72 394.355 1331.35 405.759 1331.35 419.346C1331.35 433.034 1338.46 444.659 1351.97 454.203C1365.18 463.766 1381.14 468.49 1399.71 468.49C1413.35 468.49 1427.13 466.256 1441.04 461.806L1441.06 461.798C1464.16 454.135 1486.44 443.688 1507.91 430.463C1529.4 417.46 1557.52 396.168 1592.22 366.661L1592.23 366.655C1646.42 320.271 1701.7 265.368 1758.07 201.955L1758.07 201.953C1801.95 152.46 1829.96 117.389 1841.88 96.8693C1854.08 76.1783 1860.35 57.7635 1860.35 41.7063C1860.35 27.6015 1853.29 15.5216 1839.79 5.50223C1826.59 -4.5286 1810.93 -9.51025 1792.95 -9.51025C1775.96 -9.51025 1761.27 -5.12444 1749.01 3.74853L1748.98 3.76786C1737.07 12.6362 1730.8 23.336 1730.8 35.8327C1730.8 43.4382 1732.84 49.9107 1737.1 55.0488L1737.14 55.097C1739.28 57.5545 1742.86 60.3557 1747.68 63.4949C1752.54 66.6616 1758.82 70.2714 1766.49 74.3219L1766.51 74.3316C1774.16 78.2902 1779.73 82.275 1783.35 86.2365C1786.95 90.1729 1788.54 93.974 1788.54 97.6786C1788.54 111.159 1782.23 125.812 1769.07 141.69L1769.07 141.699C1726.91 193.007 1689.34 234.603 1656.35 266.51C1653.76 204.255 1649.22 145.576 1642.72 90.4756L1642.72 90.4668C1639.2 61.5355 1633.11 38.6332 1624.32 21.904C1619.36 12.088 1610.85 1.83492 1598.96 -8.86841L1596.77 -9.45612L1449.78 21.6396Z" fill="#09702C" stroke="#09702C" stroke-width="5" stroke-linejoin="bevel"/>
<mask id="path-7-outside-1_2752_9093" maskUnits="userSpaceOnUse" x="-29.1465" y="28.9897" width="530" height="485" fill="black">
<rect fill="white" x="-29.1465" y="28.9897" width="530" height="485"/>
<path d="M346.844 352.418L452.027 351.465C445.015 384.478 428.799 412.94 403.38 436.853C378.253 460.554 346.698 478.754 308.715 491.451C270.732 503.936 228.951 509.756 183.371 508.909C141.59 508.274 106.529 501.608 78.1881 488.911C49.8471 476.214 27.6417 459.496 11.572 438.758C-4.49766 417.808 -15.1621 394.53 -20.4212 368.924C-25.3882 343.318 -25.3882 317.289 -20.4212 290.837L-12.9708 252.428C-7.12724 224.071 3.53718 196.667 19.0225 170.214C34.5078 143.762 54.668 120.167 79.5029 99.4281C104.63 78.6896 134.432 62.5008 168.909 50.8618C203.385 39.0112 242.391 33.4033 285.925 34.0382C330.628 34.673 368.173 41.7622 398.559 55.3058C429.237 68.6377 452.758 87.1543 469.119 110.856C485.481 134.557 494.393 162.067 495.854 193.387L389.355 193.069C389.355 174.87 385.849 158.681 378.837 144.503C372.117 130.324 360.868 119.109 345.091 110.856C329.313 102.602 307.692 98.1584 280.228 97.5236C250.426 96.8887 224.714 101.015 203.093 109.903C181.472 118.791 163.211 130.853 148.31 146.09C133.702 161.326 122.161 178.256 113.687 196.878C105.214 215.289 99.0787 233.594 95.2804 251.793L87.3917 291.154C84.4699 306.391 83.009 322.791 83.009 340.355C83.009 357.92 85.9308 374.532 91.7743 390.191C97.91 405.851 108.574 418.866 123.768 429.235C139.253 439.393 161.02 444.789 189.069 445.424C218.286 446.27 243.267 442.99 264.012 435.583C285.049 428.177 302.287 417.384 315.727 403.206C329.459 389.027 339.832 372.098 346.844 352.418Z"/>
</mask>
<path d="M346.844 352.418L452.027 351.465C445.015 384.478 428.799 412.94 403.38 436.853C378.253 460.554 346.698 478.754 308.715 491.451C270.732 503.936 228.951 509.756 183.371 508.909C141.59 508.274 106.529 501.608 78.1881 488.911C49.8471 476.214 27.6417 459.496 11.572 438.758C-4.49766 417.808 -15.1621 394.53 -20.4212 368.924C-25.3882 343.318 -25.3882 317.289 -20.4212 290.837L-12.9708 252.428C-7.12724 224.071 3.53718 196.667 19.0225 170.214C34.5078 143.762 54.668 120.167 79.5029 99.4281C104.63 78.6896 134.432 62.5008 168.909 50.8618C203.385 39.0112 242.391 33.4033 285.925 34.0382C330.628 34.673 368.173 41.7622 398.559 55.3058C429.237 68.6377 452.758 87.1543 469.119 110.856C485.481 134.557 494.393 162.067 495.854 193.387L389.355 193.069C389.355 174.87 385.849 158.681 378.837 144.503C372.117 130.324 360.868 119.109 345.091 110.856C329.313 102.602 307.692 98.1584 280.228 97.5236C250.426 96.8887 224.714 101.015 203.093 109.903C181.472 118.791 163.211 130.853 148.31 146.09C133.702 161.326 122.161 178.256 113.687 196.878C105.214 215.289 99.0787 233.594 95.2804 251.793L87.3917 291.154C84.4699 306.391 83.009 322.791 83.009 340.355C83.009 357.92 85.9308 374.532 91.7743 390.191C97.91 405.851 108.574 418.866 123.768 429.235C139.253 439.393 161.02 444.789 189.069 445.424C218.286 446.27 243.267 442.99 264.012 435.583C285.049 428.177 302.287 417.384 315.727 403.206C329.459 389.027 339.832 372.098 346.844 352.418Z" fill="#09702C"/>
<path d="M346.844 352.418L346.799 347.418L342.134 350.739L346.844 352.418ZM452.027 351.465L456.918 352.504L451.982 346.465L452.027 351.465ZM403.38 436.853L399.954 433.211L399.949 433.216L403.38 436.853ZM308.715 491.451L310.276 496.201L310.3 496.193L308.715 491.451ZM183.371 508.909L183.464 503.91L183.447 503.91L183.371 508.909ZM11.572 438.758L7.6047 441.801L7.61969 441.82L11.572 438.758ZM-20.4212 368.924L-25.3297 369.876L-25.319 369.93L-20.4212 368.924ZM-20.4212 290.837L-25.3297 289.885L-25.3354 289.914L-20.4212 290.837ZM-12.9708 252.428L-17.8679 251.419L-17.8793 251.476L-12.9708 252.428ZM79.5029 99.4281L76.3202 95.5719L76.2981 95.5903L79.5029 99.4281ZM168.909 50.8618L170.508 55.5991L170.534 55.5903L168.909 50.8618ZM285.925 34.0382L285.852 39.0376L285.854 39.0377L285.925 34.0382ZM398.559 55.3058L396.523 59.8727L396.566 59.8915L398.559 55.3058ZM495.854 193.387L495.839 198.387L500.848 193.154L495.854 193.387ZM389.355 193.069H384.355L389.341 198.069L389.355 193.069ZM378.837 144.503L374.319 146.644L374.355 146.719L378.837 144.503ZM280.228 97.5236L280.343 92.5249L280.334 92.5247L280.228 97.5236ZM148.31 146.09L144.736 142.594L144.701 142.63L148.31 146.09ZM113.687 196.878L118.23 198.969L118.239 198.949L113.687 196.878ZM95.2804 251.793L90.3859 250.772L90.3779 250.811L95.2804 251.793ZM87.3917 291.154L82.4892 290.172L82.4811 290.212L87.3917 291.154ZM91.7743 390.191L87.0898 391.939L87.1189 392.015L91.7743 390.191ZM123.768 429.235L120.949 433.365L121.025 433.416L123.768 429.235ZM189.069 445.424L189.214 440.426L189.182 440.425L189.069 445.424ZM264.012 435.583L262.351 430.867L262.331 430.875L264.012 435.583ZM315.727 403.206L312.136 399.727L312.098 399.766L315.727 403.206ZM346.889 357.417L452.072 356.465L451.982 346.465L346.799 347.418L346.889 357.417ZM447.136 350.426C440.343 382.407 424.658 409.971 399.954 433.211L406.806 440.495C432.94 415.909 449.687 386.549 456.918 352.504L447.136 350.426ZM399.949 433.216C375.427 456.346 344.534 474.205 307.13 486.709L310.3 496.193C348.862 483.302 381.078 464.763 406.811 440.49L399.949 433.216ZM307.154 486.701C269.773 498.988 228.56 504.747 183.464 503.91L183.279 513.908C229.342 514.764 271.691 508.884 310.276 496.201L307.154 486.701ZM183.447 503.91C142.124 503.282 107.779 496.69 80.2324 484.348L76.1438 493.474C105.279 506.527 141.057 513.267 183.295 513.909L183.447 503.91ZM80.2324 484.348C52.5034 471.925 31.006 455.675 15.5243 435.695L7.61969 441.82C24.2773 463.318 47.1907 480.503 76.1438 493.474L80.2324 484.348ZM15.5393 435.715C-0.0749545 415.358 -10.418 392.775 -15.5235 367.918L-25.319 369.93C-19.9061 396.284 -8.92036 420.257 7.6047 441.801L15.5393 435.715ZM-15.5127 367.972C-20.3558 343.005 -20.3615 317.612 -15.5071 291.759L-25.3354 289.914C-30.4149 316.966 -30.4207 343.631 -25.3297 369.876L-15.5127 367.972ZM-15.5127 291.789L-8.06225 253.38L-17.8793 251.476L-25.3297 289.885L-15.5127 291.789ZM-8.07365 253.437C-2.34648 225.645 8.11137 198.75 23.3375 172.74L14.7075 167.688C-1.03701 194.583 -11.908 222.497 -17.8679 251.419L-8.07365 253.437ZM23.3375 172.74C38.5153 146.813 58.2909 123.655 82.7077 103.266L76.2981 95.5903C51.045 116.678 30.5003 140.711 14.7075 167.688L23.3375 172.74ZM82.6856 103.284C107.291 82.9762 136.541 67.066 170.508 55.5991L167.309 46.1245C132.323 57.9356 101.969 74.403 76.3202 95.5719L82.6856 103.284ZM170.534 55.5903C204.37 43.9599 242.786 38.4096 285.852 39.0376L285.998 29.0387C241.996 28.397 202.401 34.0625 167.283 46.1333L170.534 55.5903ZM285.854 39.0377C330.1 39.666 366.929 46.6822 396.523 59.8727L400.594 50.7389C369.416 36.8422 331.157 29.68 285.996 29.0387L285.854 39.0377ZM396.566 59.8915C426.529 72.9124 449.254 90.8805 465.005 113.696L473.234 108.015C456.261 83.4281 431.946 64.363 400.552 50.7201L396.566 59.8915ZM465.005 113.696C480.788 136.56 489.438 163.148 490.859 193.62L500.848 193.154C499.348 160.986 490.174 132.554 473.234 108.015L465.005 113.696ZM495.868 188.387L389.37 188.069L389.341 198.069L495.839 198.387L495.868 188.387ZM394.355 193.069C394.355 174.217 390.72 157.251 383.319 142.286L374.355 146.719C380.979 160.112 384.355 175.523 384.355 193.069H394.355ZM383.355 142.361C376.108 127.071 364.013 115.111 347.408 106.425L342.773 115.286C357.724 123.107 368.126 133.578 374.319 146.644L383.355 142.361ZM347.408 106.425C330.68 97.6748 308.199 93.1688 280.343 92.5249L280.112 102.522C307.186 103.148 327.946 107.53 342.773 115.286L347.408 106.425ZM280.334 92.5247C250.027 91.8791 223.599 96.0679 201.192 105.279L204.994 114.528C225.83 105.963 250.825 101.898 280.121 102.522L280.334 92.5247ZM201.192 105.279C179.004 114.4 160.156 126.826 144.736 142.594L151.885 149.586C166.266 134.881 183.941 123.182 204.994 114.528L201.192 105.279ZM144.701 142.63C129.715 158.26 117.85 175.656 109.136 194.808L118.239 198.949C126.471 180.856 137.688 164.393 151.919 149.55L144.701 142.63ZM109.145 194.788C100.529 213.51 94.2676 232.173 90.3859 250.772L100.175 252.815C103.89 235.015 109.9 217.068 118.23 198.969L109.145 194.788ZM90.3779 250.811L82.4892 290.172L92.2942 292.137L100.183 252.776L90.3779 250.811ZM82.4811 290.212C79.4927 305.797 78.009 322.516 78.009 340.355H88.009C88.009 323.066 89.4471 306.984 92.3022 292.096L82.4811 290.212ZM78.009 340.355C78.009 358.486 81.0272 375.692 87.0898 391.939L96.4588 388.443C90.8344 373.371 88.009 357.353 88.009 340.355H78.009ZM87.1189 392.015C93.6556 408.699 105.007 422.484 120.949 433.365L126.586 425.105C112.142 415.247 102.164 403.004 96.4297 388.367L87.1189 392.015ZM121.025 433.416C137.598 444.287 160.419 449.777 188.956 450.422L189.182 440.425C161.621 439.801 140.908 434.499 126.51 425.054L121.025 433.416ZM188.924 450.422C218.571 451.281 244.206 447.964 265.693 440.292L262.331 430.875C242.329 438.016 218.002 441.26 189.214 440.426L188.924 450.422ZM265.672 440.3C287.351 432.667 305.297 421.476 319.356 406.646L312.098 399.766C299.277 413.292 282.747 423.686 262.351 430.867L265.672 440.3ZM319.319 406.684C333.577 391.963 344.316 374.409 351.554 354.096L342.134 350.739C335.347 369.787 325.342 386.092 312.136 399.727L319.319 406.684Z" fill="#09702C" mask="url(#path-7-outside-1_2752_9093)"/>
<path d="M414.854 299.935H616.537L515.493 720.406L517.923 723.49H631.72L634.151 721.572L735.076 299.935H939.53L941.96 298.023L958.283 230.578L955.854 227.49H749.247H635.917H431.177L428.747 229.402L412.424 296.847L414.854 299.935Z" fill="#09702C" stroke="#09702C" stroke-width="5" stroke-linejoin="bevel"/>
<path d="M1139.77 508.806C1149.53 509.825 1175.81 505.197 1202.89 478.533C1236.75 445.203 1372.63 318.868 1464.32 251.108C1537.67 196.9 1536.25 187.674 1545.7 179.026C1578.76 178.822 1597.56 187.288 1592.97 226.482C1567.8 249.877 1513.47 296.735 1506.1 306.447C1496.89 318.588 1336.43 474.626 1248.4 537.131C1230.32 549.971 1214.2 578.164 1216.35 599.389C1216.49 600.203 1216.58 600.873 1216.61 601.392C1216.5 600.732 1216.42 600.064 1216.35 599.389C1215.12 592.373 1209.51 574.678 1193.22 551.339C1175.05 525.292 1150.01 512.131 1139.77 508.806Z" fill="#FF8832"/>
<path d="M1199.51 488.49C1203.85 486.657 1215.71 485.89 1228.51 497.49M1213.51 476.99C1217.35 475.824 1226.61 474.99 1233.01 480.99M1228.51 462.99C1230.68 462.49 1235.81 462.19 1239.01 464.99" stroke="#1B1B1B" stroke-width="2" stroke-linecap="round"/>
<path d="M1181.9 534.418C1141.78 491.59 1093.41 496.833 1073.95 506.187C1073.95 506.187 1058.78 512.033 1054.29 519.526C1051.02 524.994 1051.72 533.547 1051.72 533.547C1072.37 514.213 1118.97 501.896 1168.86 551.398C1220.91 603.052 1205.24 659.046 1191.24 674.245C1206.7 663.144 1216.53 648.561 1219.51 642.656C1223.69 624.422 1222.03 577.247 1181.9 534.418Z" fill="#FF8832"/>
<path d="M1167.68 551.542C1219.22 602.979 1206.21 648.19 1195.86 665.918C1200.36 662.675 1205.03 656.788 1206.54 653.179C1215.18 632.557 1224.11 596.582 1171.74 544.757C1119.37 492.931 1070.24 510.611 1055.63 524.448L1055.03 530.502C1075.22 513.118 1118.29 502.248 1167.68 551.542Z" fill="#1B1B1B" stroke="#1B1B1B" stroke-width="2" stroke-linecap="round" stroke-linejoin="round"/>
<path d="M1588.84 224.752C1590.41 194.18 1570.36 185.564 1560.13 185.077C1589.22 206.387 1544.99 260.922 1519.24 285.525L1588.84 224.752Z" fill="#1B1B1B"/>
<path d="M1511.22 293.076L1490.04 313.533M1560.13 185.077C1570.36 185.564 1590.41 194.18 1588.84 224.752L1519.24 285.525C1544.99 260.922 1589.22 206.387 1560.13 185.077Z" stroke="#1B1B1B" stroke-width="2" stroke-linecap="round" stroke-linejoin="round"/>
<path d="M1174.73 522.007C1175.4 522.363 1176.17 522.841 1177.04 523.445C1208.25 541.865 1247.02 526.338 1270.12 511.407C1273.63 508.786 1277.33 506.106 1281.22 503.37C1278.16 505.881 1274.41 508.633 1270.12 511.407C1230.4 541.026 1214.22 562.964 1211.05 570.695C1198.8 543.148 1184.5 528.628 1177.04 523.445C1176.26 522.987 1175.49 522.508 1174.73 522.007Z" fill="#1B1B1B"/>
<path d="M1288.44 498.879L1318.34 473.831M1174.73 522.007C1181.14 525.421 1197.37 539.938 1211.05 570.695C1214.5 562.28 1233.36 537.034 1281.22 503.37C1261.27 519.736 1212.03 546.376 1174.73 522.007Z" stroke="#1B1B1B" stroke-width="2" stroke-linecap="round" stroke-linejoin="round"/>
<path d="M1057.43 641.588C999.105 590.561 968.052 611.31 959.816 628.062C959.203 618.883 988.803 591.884 1003.68 579.532C1018.78 565.494 1043.82 541.471 1053.75 533.593C1080.15 512.649 1118.81 502.447 1165.58 550.179C1207.32 592.765 1208.47 632.593 1197.76 656.772C1191.91 669.978 1182.24 675.018 1174.35 681.386C1152 699.416 1146.61 701.279 1119.11 724.663C1097.1 743.371 1081.34 754.413 1076.21 757.595C1094.25 740.187 1115.76 692.615 1057.43 641.588Z" fill="#807970" stroke="#1B1B1B" stroke-width="2" stroke-linecap="round" stroke-linejoin="round"/>
<path d="M1187.45 659.966L1100.25 727.426C1109.16 710.795 1125.99 685.117 1141.55 678.064C1161.01 669.248 1182.78 590.122 1192.86 613.502C1200.93 632.206 1192.61 652.271 1187.45 659.966Z" fill="#1B1B1B" stroke="#1B1B1B" stroke-width="5" stroke-linecap="round"/>
<path d="M1119.52 520.683L1011.83 611.56C1023.67 616.282 1044.59 629.417 1054.14 637.298L1159.83 546.554C1145.41 528.676 1126.8 522.201 1119.52 520.683Z" fill="#B0A289"/>
<path d="M821.987 644.88C841.836 635.938 920.806 659.231 958.852 628.628C971.245 611.598 1008.96 591.006 1060.66 644.88C1112.37 698.755 1092.5 741.474 1076.11 756.098C1060.66 772.699 1022.89 797.991 934.889 827.132C882.879 844.356 943.171 816.186 914.336 827.132C885.501 838.078 896.707 810.77 882.805 820.218C868.904 829.665 879.046 808.943 860.288 813.202C841.53 817.462 851.207 804.789 836.773 806.254C822.338 807.719 831.782 791.554 817.314 792.52C802.847 793.486 823.333 777.586 798.953 772.699C774.573 767.813 808.398 764.051 788.774 755.339C769.149 746.627 800.546 744.029 781.221 732.291C761.896 720.552 795.387 711.801 779.355 704.353C763.323 696.905 783.379 697.069 777.889 682.402C773.498 670.669 798.608 659.972 811.711 656.09C806.867 656.079 802.139 653.823 821.987 644.88Z" fill="#D4BEA4"/>
<path d="M1038.51 636.991C1007.71 618.991 1012.85 641.491 947.354 641.491C973.854 632.991 971.514 621.491 984.514 615.491C998.434 609.066 1031.68 631.824 1038.51 636.991Z" fill="#1B1B1B" stroke="#1B1B1B" stroke-width="2" stroke-linecap="round"/>
<path d="M1080.55 665.1C1074.5 656.986 1069.82 651.953 1065.88 648.04L1171.11 557.828C1176.22 562.298 1182.9 571.907 1185.44 577.416L1080.55 665.1Z" fill="#B0A289"/>
<path d="M994.071 608.236C1006.51 609.41 1038.18 618.92 1065.35 647.574C1092.52 676.227 1097.05 704.588 1095.92 715.187" stroke="white" stroke-width="5" stroke-linecap="round"/>
<path d="M811.711 656.09C806.866 656.079 802.139 653.823 821.987 644.88C820.109 639.954 822.554 631.579 847.354 637.491C872.154 643.402 900.687 647.344 908.854 644.88C939.854 642.491 923.061 655.005 979.354 672.491C1114.85 714.579 1039.35 775.991 1039.35 775.991C1026.85 792.52 964.711 818.085 934.889 827.132C882.878 844.356 943.17 816.186 914.336 827.132C885.501 838.078 896.706 810.77 882.805 820.218C868.903 829.665 879.045 808.943 860.287 813.202C841.53 817.462 851.207 804.789 836.772 806.254C822.338 807.719 831.782 791.554 817.314 792.52C802.846 793.486 823.332 777.586 798.952 772.699C774.573 767.813 808.397 764.051 788.773 755.339C769.149 746.627 800.546 744.029 781.221 732.291C761.895 720.552 795.387 711.801 779.355 704.353C763.323 696.905 783.378 697.069 777.889 682.402C773.497 670.669 798.607 659.972 811.711 656.09Z" fill="#1B1B1B"/>
<path d="M518.492 905.489C405.692 885.489 976.492 867.989 1034.99 778.989L919.242 768.489L803.492 757.989C15.4916 806.489 176.492 895.489 300.492 927.489C399.692 953.089 57.825 1022.82 -125.508 1054.49C-292.508 1078.16 -625.008 1136.49 -619.008 1180.49C-611.508 1235.49 -733.508 1454.49 -55.5084 1454.49C-493.508 1404.49 69.6582 1166.99 405.992 1054.49C510.492 1019.54 631.292 925.489 518.492 905.489Z" fill="#1B1B1B"/>
<path d="M834.389 653.914C837.959 657.35 850.115 662.785 870.176 657.036C895.253 649.849 876.429 660.627 891.863 666.612C907.296 672.597 906.763 664.615 930.978 689.557C955.194 714.499 921.504 735.29 941.793 738.946C962.082 742.602 928.591 751.353 945.72 760.232C962.85 769.11 949.714 782.515 960.324 783.811C970.934 785.107 935.581 803.503 948.619 803.635C961.656 803.767 947.256 813.247 939.041 810.288C932.468 807.921 925.149 812.385 922.312 814.913" stroke="#E4E4D0" stroke-width="2" stroke-linecap="round"/>
</g>
<g clip-path="url(#clip1_2752_9093)">
<rect width="539" height="768" transform="translate(20.8535 1136.99)" fill="#09702C"/>
<path d="M520.854 1504.9C520.854 1525.39 515.981 1542.57 506.237 1556.42C496.641 1570.28 483.354 1580.67 466.375 1587.6C449.544 1594.53 430.352 1597.99 408.796 1597.99C387.389 1597.99 368.122 1594.53 350.996 1587.6C334.018 1580.67 320.583 1570.28 310.691 1556.42C300.799 1542.57 295.854 1525.39 295.854 1504.9C295.854 1490.9 298.659 1478.37 304.269 1467.31C310.027 1456.11 317.999 1446.6 328.186 1438.79C338.373 1430.98 350.258 1425.01 363.841 1420.88C377.571 1416.75 392.409 1414.69 408.354 1414.69C429.909 1414.69 449.175 1418.38 466.154 1425.75C483.132 1432.97 496.493 1443.29 506.237 1456.7C515.981 1470.12 520.854 1486.18 520.854 1504.9ZM445.78 1498.93C445.78 1490.09 444.23 1482.64 441.129 1476.6C438.029 1470.41 433.673 1465.69 428.063 1462.45C422.453 1459.21 415.883 1457.59 408.354 1457.59C400.972 1457.59 394.402 1459.21 388.644 1462.45C383.034 1465.69 378.605 1470.41 375.356 1476.6C372.256 1482.64 370.706 1490.09 370.706 1498.93C370.706 1507.48 372.33 1514.93 375.578 1521.26C378.826 1527.46 383.255 1532.25 388.865 1535.64C394.623 1538.88 401.267 1540.5 408.796 1540.5C416.326 1540.5 422.822 1538.88 428.285 1535.64C433.895 1532.25 438.176 1527.46 441.129 1521.26C444.23 1514.93 445.78 1507.48 445.78 1498.93ZM514.21 1357.64C514.21 1374.45 509.707 1389.19 500.701 1401.87C491.843 1414.4 479.441 1424.2 463.496 1431.27C447.699 1438.2 429.466 1441.67 408.796 1441.67C388.275 1441.67 369.968 1438.2 353.875 1431.27C337.93 1424.2 325.381 1414.4 316.228 1401.87C307.222 1389.19 302.719 1374.45 302.719 1357.64C302.719 1337.89 307.222 1321.31 316.228 1307.89C325.381 1294.48 337.93 1284.31 353.875 1277.38C369.82 1270.45 387.98 1266.99 408.354 1266.99C429.023 1266.99 447.33 1270.45 463.275 1277.38C479.22 1284.31 491.695 1294.48 500.701 1307.89C509.707 1321.31 514.21 1337.89 514.21 1357.64ZM439.579 1361.62C439.579 1353.96 438.398 1347.4 436.036 1341.95C433.673 1336.34 430.204 1332.07 425.627 1329.12C421.05 1326.03 415.292 1324.48 408.354 1324.48C401.71 1324.48 396.1 1325.95 391.523 1328.9C386.946 1331.85 383.477 1336.12 381.114 1341.72C378.752 1347.18 377.571 1353.81 377.571 1361.62C377.571 1369.29 378.752 1376 381.114 1381.75C383.477 1387.49 386.946 1391.99 391.523 1395.23C396.247 1398.48 402.005 1400.1 408.796 1400.1C415.735 1400.1 421.419 1398.48 425.849 1395.23C430.425 1391.99 433.821 1387.49 436.036 1381.75C438.398 1376 439.579 1369.29 439.579 1361.62Z" fill="#408D55"/>
<path d="M328.953 1633.41C331.621 1632.69 334.362 1634.27 335.077 1636.94L346.4 1679.2C347.115 1681.87 345.532 1684.61 342.865 1685.32L142.605 1738.98C140.119 1739.65 137.533 1738.32 136.629 1735.91L123.797 1701.68C123.412 1700.65 123.376 1699.52 123.695 1698.47L188.975 1483.52C189.477 1481.86 190.797 1480.59 192.465 1480.14L234.335 1468.92C238.107 1467.91 241.53 1471.42 240.424 1475.17L210.493 1576.54L186.939 1663.68C185.934 1667.4 189.338 1670.82 193.06 1669.82L328.953 1633.41ZM252.111 1464.16C254.779 1463.44 257.52 1465.03 258.235 1467.69L333.552 1748.78C334.266 1751.44 332.683 1754.19 330.016 1754.9L272.316 1770.36C269.649 1771.08 266.907 1769.49 266.193 1766.83L190.876 1485.74C190.162 1483.07 191.745 1480.33 194.412 1479.62L252.111 1464.16Z" fill="#408D55"/>
<path d="M386.16 1572.67C386.4 1571.76 387.343 1571.19 388.251 1571.43L601.532 1628.58C602.441 1628.82 602.973 1629.79 602.723 1630.7C576.785 1725.41 518.797 1762.61 476.742 1773.49C472.587 1774.57 471.1 1780.12 474.161 1783.12C505.141 1813.57 536.759 1874.79 511.867 1969.78C511.627 1970.69 510.685 1971.26 509.776 1971.02L296.495 1913.87C295.586 1913.63 295.054 1912.66 295.304 1911.75C321.242 1817.04 379.23 1779.84 421.286 1768.96C425.44 1767.88 426.927 1762.33 423.866 1759.32C392.886 1728.87 361.268 1667.66 386.16 1572.67Z" fill="#E4E4D0" stroke="#09702C" stroke-width="5" stroke-linecap="round" stroke-linejoin="round"/>
<path d="M422.353 1783.99C438.759 1776.12 450.903 1781.38 457.13 1786.93C458.641 1788.28 457.519 1790.51 455.5 1790.66C425.157 1793 452.74 1818.36 429.853 1825.99C405.853 1833.99 397.353 1795.99 422.353 1783.99Z" fill="#FF8832" stroke="#FF8832" stroke-linecap="round" stroke-linejoin="round"/>
<path d="M449.354 1757.99C425.85 1751.13 402.986 1704.96 398.137 1686.15C397.946 1685.4 398.118 1684.64 398.648 1684.09C404.996 1677.47 424.916 1668.76 460.854 1680.99C507.854 1696.99 482.354 1659.49 515.854 1663.99C542.087 1667.51 550.658 1691.13 551.79 1703.22C551.838 1703.73 551.735 1704.2 551.465 1704.63C540.153 1722.59 483.444 1767.93 449.354 1757.99Z" fill="#FF8832" stroke="#FF8832" stroke-linecap="round" stroke-linejoin="round"/>
<rect x="505.246" y="1711.99" width="8.69626" height="8.93764" transform="rotate(60 505.246 1711.99)" fill="#E4E4D0"/>
<rect x="499.594" y="1727.99" width="5.19206" height="5.33617" transform="rotate(60 499.594 1727.99)" fill="#E4E4D0"/>
<path d="M-89.3835 1612.35L-46.3116 1527.62C-45.9713 1526.95 -45.3481 1526.47 -44.6144 1526.31L117.16 1491.12C119.941 1490.52 121.41 1494.29 118.955 1495.72L-85.892 1615.64C-88.0458 1616.9 -90.5145 1614.57 -89.3835 1612.35Z" fill="#B0A289"/>
<path d="M-113.368 1334.17L-91.6666 1613.33C-91.4709 1615.85 -88.0902 1616.52 -86.9456 1614.27L-44.5347 1530.85C-43.9515 1529.7 -42.593 1529.18 -41.3948 1529.65L33.1475 1558.83C35.4121 1559.72 37.4809 1557.18 36.1537 1555.14L-108.78 1332.61C-110.194 1330.44 -113.568 1331.59 -113.368 1334.17Z" fill="#1B1B1B"/>
<path d="M39.1702 1559.77L-112.542 1326.83C-113.376 1325.55 -112.875 1323.83 -111.484 1323.2L183.689 1188.64C184.779 1188.14 186.068 1188.48 186.762 1189.46L338.632 1402.62C339.512 1403.85 339.098 1405.58 337.753 1406.29L42.423 1560.62C41.2813 1561.22 39.8732 1560.85 39.1702 1559.77Z" fill="#E1E1CE" stroke="#09702C" stroke-width="5" stroke-linecap="round" stroke-linejoin="round"/>
<path d="M65.8535 1546.49L-89.7415 1317.76C-90.5742 1316.51 -90.0743 1314.84 -88.6859 1314.22L-59.0315 1301.06M157.354 1202.99L314.354 1418.49M-59.0315 1301.06L-24.9884 1285.96C-23.8958 1285.47 -22.6128 1285.83 -21.9269 1286.81L134.87 1510.57M-59.0315 1301.06L99.9443 1528.34M9.93304 1270.46L166.304 1494.58M40.5786 1256.86L196.739 1479.09M74.186 1241.94L229.17 1462.59M105.12 1228.21L258.608 1447.62M132.562 1216.03L289.023 1432.14" stroke="#09702C" stroke-opacity="0.25" stroke-width="3" stroke-linecap="round" stroke-linejoin="round"/>
<path d="M39.1702 1559.77L-112.542 1326.83C-113.376 1325.55 -112.875 1323.83 -111.484 1323.2L183.689 1188.64C184.779 1188.14 186.068 1188.48 186.762 1189.46L338.632 1402.62C339.512 1403.85 339.098 1405.58 337.753 1406.29L42.423 1560.62C41.2813 1561.22 39.8732 1560.85 39.1702 1559.77Z" stroke="#09702C" stroke-width="5" stroke-linecap="round" stroke-linejoin="round"/>
<circle cx="166.946" cy="1220.81" r="8" transform="rotate(6.26306 166.946 1220.81)" fill="#09702C"/>
<path d="M139.67 1209.37L141.314 1208.67L140.342 1207.17C138.048 1203.64 137.627 1200.63 138.149 1195.88C139.324 1185.17 149.056 1177.42 159.912 1178.61C170.769 1179.8 178.589 1189.48 177.413 1200.19C176.615 1207.46 171.872 1213.37 165.486 1216.04L165.471 1216.05L165.456 1216.06L166.065 1217.43C165.456 1216.06 165.455 1216.06 165.454 1216.06L165.451 1216.06L165.446 1216.06L165.435 1216.07L165.41 1216.08C165.393 1216.09 165.374 1216.1 165.354 1216.11C165.313 1216.13 165.265 1216.16 165.212 1216.19C165.107 1216.25 164.979 1216.34 164.842 1216.46C164.566 1216.7 164.258 1217.06 164.029 1217.57C163.559 1218.62 163.54 1220.03 164.239 1221.84C164.891 1223.54 165.962 1224.42 167.135 1224.67C167.667 1224.78 168.135 1224.75 168.466 1224.69C168.634 1224.66 168.774 1224.62 168.88 1224.59C168.933 1224.57 168.979 1224.56 169.016 1224.54C169.034 1224.53 169.051 1224.53 169.065 1224.52L169.085 1224.51L169.085 1224.51C169.086 1224.51 169.086 1224.51 169.086 1224.51C178.426 1220.61 185.43 1211.93 186.608 1201.2C188.34 1185.41 176.821 1171.23 160.915 1169.48C145.008 1167.74 130.686 1179.09 128.954 1194.87C128.597 1198.13 128.475 1200.88 128.905 1203.49C129.34 1206.15 130.324 1208.58 132.059 1211.26L132.745 1212.31L133.904 1211.82L139.67 1209.37Z" fill="#B0A289" stroke="#09702C" stroke-width="3"/>
<circle cx="122.469" cy="1240.81" r="8" transform="rotate(6.26306 122.469 1240.81)" fill="#09702C"/>
<path d="M95.3218 1229.87L96.9658 1229.17L95.9937 1227.67C93.6895 1224.12 93.1534 1220.88 93.6724 1216.15C94.8479 1205.44 104.579 1197.69 115.436 1198.88C126.293 1200.07 134.112 1209.74 132.937 1220.46C132.138 1227.73 127.395 1233.64 121.01 1236.31L120.995 1236.32L120.98 1236.33L121.588 1237.7C120.98 1236.33 120.979 1236.33 120.977 1236.33L120.975 1236.33L120.969 1236.33L120.958 1236.34L120.934 1236.35C120.917 1236.36 120.898 1236.37 120.877 1236.38C120.836 1236.4 120.789 1236.42 120.736 1236.46C120.63 1236.52 120.502 1236.61 120.366 1236.73C120.089 1236.97 119.781 1237.33 119.552 1237.84C119.082 1238.89 119.064 1240.29 119.763 1242.11C120.414 1243.81 121.486 1244.68 122.658 1244.94C123.19 1245.05 123.658 1245.02 123.99 1244.96C124.157 1244.93 124.297 1244.89 124.403 1244.86C124.457 1244.84 124.502 1244.82 124.539 1244.81C124.558 1244.8 124.574 1244.8 124.588 1244.79L124.608 1244.78L124.609 1244.78C124.609 1244.78 124.609 1244.78 124.609 1244.78C133.95 1240.88 140.954 1232.2 142.131 1221.46C143.864 1205.68 132.344 1191.5 116.438 1189.75C100.532 1188 86.2097 1199.35 84.4776 1215.14C84.1183 1218.41 84.0316 1221.22 84.4948 1223.89C84.9622 1226.59 85.9754 1229.08 87.711 1231.76L88.3965 1232.81L89.5559 1232.32L95.3218 1229.87Z" fill="#B0A289" stroke="#09702C" stroke-width="3"/>
<g clip-path="url(#clip2_2752_9093)">
<path d="M337.562 1230.66C498.403 1241.4 545.983 1121.01 567.785 1031.38L137.125 1002.62C153.364 1075.26 176.721 1219.92 337.562 1230.66Z" fill="#E4E4D0" stroke="#09702C" stroke-width="6.60883"/>
<ellipse cx="388.706" cy="1179.59" rx="20.8453" ry="14.3056" transform="rotate(-176.179 388.706 1179.59)" fill="#FF8832" fill-opacity="0.5"/>
<ellipse cx="320.628" cy="1168.49" rx="20.8453" ry="14.3056" transform="rotate(-176.179 320.628 1168.49)" fill="#FF8832" fill-opacity="0.5"/>
<path d="M364.743 1208.71L367.004 1191.72M330.598 1204.17L332.859 1187.18" stroke="#09702C" stroke-width="4.90477" stroke-linecap="round"/>
<path d="M335.461 1173.34L370.979 1181.27L358.367 1154.22L335.461 1173.34Z" stroke="#09702C" stroke-width="4.90477" stroke-linecap="round" stroke-linejoin="round"/>
</g>
</g>
<rect x="1.60352" y="1117.74" width="577.5" height="806.5" rx="1.75" stroke="#09702C" stroke-width="1.5" stroke-linejoin="round"/>
<g clip-path="url(#clip3_2752_9093)">
<rect width="539" height="768" transform="translate(659.354 1136.99)" fill="#09702C"/>
<path d="M707.354 1232.99L1105.85 1376.99M800.354 1519.49L995.354 1074.99" stroke="#408D55" stroke-width="50" stroke-linecap="round"/>
<path d="M1001.48 1538.61L1120.98 1848.11M914.737 1734.12L1193.95 1625.84" stroke="#408D55" stroke-width="50" stroke-linecap="round"/>
<path d="M880.597 1808.55L899.697 1767.55C900.469 1765.89 899.259 1763.99 897.431 1763.99H696.515H649.854C648.473 1763.99 647.354 1765.11 647.354 1766.49V1807.49C647.354 1808.87 648.473 1809.99 649.854 1809.99H878.331C879.303 1809.99 880.187 1809.43 880.597 1808.55Z" fill="#09702C" stroke="#E4E4D0" stroke-width="10" stroke-linecap="round" stroke-linejoin="round"/>
<path d="M685.7 1760.63L758.59 1552.38C759.357 1550.19 762.437 1550.13 763.279 1552.3L787.415 1614.36C787.632 1614.92 787.641 1615.54 787.441 1616.1L766.596 1674.85L735.136 1762.31C734.779 1763.3 733.838 1763.96 732.784 1763.96H688.06C686.338 1763.96 685.131 1762.26 685.7 1760.63Z" fill="#1B1B1B"/>
<path d="M684.536 1763.96H642.591C640.869 1763.96 639.663 1762.26 640.231 1760.63L714.267 1548.95C714.618 1547.94 715.565 1547.27 716.627 1547.27H757.429C759.154 1547.27 760.361 1548.98 759.787 1550.6L698.089 1725.49H887.427C888.411 1725.49 889.303 1726.07 889.707 1726.97L904.767 1760.43C905.511 1762.09 904.301 1763.96 902.487 1763.96H684.536Z" fill="#E4E4D0"/>
<path d="M953.824 1055.98L923.47 1089.91C922.247 1091.28 922.865 1093.46 924.625 1093.98L1121.13 1152.1L1171.76 1167.4C1173.47 1167.92 1175.15 1166.53 1174.97 1164.76L1170.52 1121.15C1170.42 1120.15 1169.72 1119.3 1168.75 1119.01L956.406 1055.25C955.477 1054.97 954.471 1055.26 953.824 1055.98Z" fill="#1B1B1B"/>
<path d="M1123.86 1169.03L1005.87 1332.99C1004.52 1334.88 1001.54 1334.05 1001.35 1331.74L995.812 1265.39C995.762 1264.79 995.929 1264.19 996.282 1263.71L1029.58 1217.95L1076.93 1153.41C1077.55 1152.56 1078.64 1152.19 1079.65 1152.49L1122.54 1165.17C1124.19 1165.66 1124.86 1167.64 1123.86 1169.03Z" fill="#09702C" stroke="#E4E4D0" stroke-width="10" stroke-linecap="round" stroke-linejoin="round"/>
<path d="M1133.54 1155.78L1173.72 1167.66C1175.39 1168.15 1176.06 1170.15 1175.03 1171.54L1044.05 1349.08C1043.42 1349.93 1042.34 1350.29 1041.33 1349.99L1002.23 1338.43C1000.56 1337.93 999.896 1335.93 1000.94 1334.54L1109.64 1188.82L928.075 1135.11C927.131 1134.83 926.439 1134.03 926.307 1133.05L921.359 1096.69C921.114 1094.89 922.805 1093.44 924.545 1093.95L1133.54 1155.78Z" fill="#E4E4D0"/>
<path d="M1013.72 1587.49L994.341 1624.49H942.359L791.179 1338.98L810.365 1302.35L960.081 1585.1C960.861 1586.57 962.391 1587.49 964.058 1587.49H1013.72ZM1014.11 1586.76L1014.1 1586.76C1014.1 1586.76 1014.1 1586.76 1014.11 1586.76Z" fill="#E4E4D0" stroke="#E4E4D0" stroke-width="5"/>
<path d="M811.908 1299.93C811.203 1298.59 812.168 1296.99 813.676 1296.99H864.149C864.89 1296.99 865.57 1297.4 865.917 1298.05L1016.3 1582.05C1017 1583.39 1016.04 1584.99 1014.53 1584.99H964.058C963.317 1584.99 962.637 1584.58 962.29 1583.93L811.908 1299.93Z" fill="#1B1B1B"/>
</g>
<rect x="640.104" y="1117.74" width="577.5" height="806.5" rx="1.75" stroke="#09702C" stroke-width="1.5" stroke-linejoin="round"/>
<g clip-path="url(#clip4_2752_9093)">
<rect width="539" height="768" transform="translate(1297.85 1136.99)" fill="#09702C"/>
<path d="M1567.85 1408.99C1593.93 1408.99 1616.85 1391.52 1616.85 1367.99C1616.85 1344.45 1593.93 1326.99 1567.85 1326.99C1541.78 1326.99 1518.85 1344.45 1518.85 1367.99C1518.85 1391.52 1541.78 1408.99 1567.85 1408.99Z" fill="#E4E4D0" stroke="#E4E4D0" stroke-width="10"/>
<path d="M1567.85 1325.49C1567.69 1310.32 1567.85 1291.99 1484.85 1291.99C1336.35 1291.99 1340.2 1137.75 1478.85 1165.99C1616.35 1193.99 1655.69 1144.49 1655.35 1120.99" stroke="#E4E4D0" stroke-opacity="0.5" stroke-width="10"/>
<path d="M1552.35 1694.99H1459.92C1458.31 1694.99 1456.8 1695.77 1455.86 1697.07L1385.53 1795.07C1383.16 1798.38 1385.52 1802.99 1389.6 1802.99H1552.35H1582.35H1745.11C1749.18 1802.99 1751.55 1798.38 1749.17 1795.07L1678.85 1697.07C1677.91 1695.77 1676.4 1694.99 1674.79 1694.99H1582.35H1552.35Z" fill="#E4E4D0"/>
<path d="M1678.85 1741.49C1678.85 1761.1 1629.16 1776.99 1567.85 1776.99C1506.55 1776.99 1456.85 1761.1 1456.85 1741.49C1456.85 1721.88 1506.55 1705.99 1567.85 1705.99C1629.16 1705.99 1678.85 1721.88 1678.85 1741.49Z" fill="#FF8832"/>
<path d="M1678.85 1741.49C1678.85 1761.1 1629.16 1776.99 1567.85 1776.99C1506.55 1776.99 1456.85 1761.1 1456.85 1741.49C1456.85 1721.88 1506.55 1705.99 1567.85 1705.99C1629.16 1705.99 1678.85 1721.88 1678.85 1741.49Z" fill="#FF8832"/>
<path d="M1457.35 1741.49C1457.35 1736.82 1460.32 1732.28 1465.88 1728.07C1471.43 1723.87 1479.5 1720.07 1489.52 1716.86C1509.54 1710.46 1537.24 1706.49 1567.85 1706.49C1598.47 1706.49 1626.16 1710.46 1646.19 1716.86C1656.21 1720.07 1664.27 1723.87 1669.83 1728.07C1675.39 1732.28 1678.35 1736.82 1678.35 1741.49C1678.35 1744.75 1676.92 1747.94 1674.16 1751C1671.8 1753.62 1668.49 1756.12 1664.35 1758.48C1666.19 1755.83 1667.28 1752.61 1666.94 1749.16C1666.51 1744.77 1663.77 1740.11 1657.55 1735.88C1645.13 1727.42 1618.66 1720.49 1567.85 1720.49C1520.58 1720.49 1494.13 1727.43 1480.84 1735.87C1474.18 1740.09 1470.78 1744.72 1469.77 1749.1C1468.97 1752.58 1469.7 1755.85 1471.45 1758.53C1467.26 1756.16 1463.92 1753.64 1461.55 1751C1458.79 1747.94 1457.35 1744.75 1457.35 1741.49Z" fill="#1B1B1B" stroke="black"/>
<path d="M1532.26 1729.88C1532.63 1729.32 1533.26 1728.99 1533.92 1728.99H1549.04C1550.41 1728.99 1551.38 1730.35 1550.92 1731.65L1541.32 1759.15C1541.04 1759.95 1540.28 1760.49 1539.43 1760.49H1515.59C1513.99 1760.49 1513.04 1758.71 1513.93 1757.38L1532.26 1729.88Z" fill="#1B1B1B"/>
<path d="M1603.45 1729.88C1603.08 1729.32 1602.45 1728.99 1601.78 1728.99H1586.67C1585.29 1728.99 1584.33 1730.35 1584.78 1731.65L1594.39 1759.15C1594.67 1759.95 1595.42 1760.49 1596.27 1760.49H1620.12C1621.71 1760.49 1622.67 1758.71 1621.78 1757.38L1603.45 1729.88Z" fill="#1B1B1B"/>
<path d="M1717.19 1412.26L1681.7 1623.03C1681.33 1625.23 1684.29 1626.29 1685.4 1624.36L1739.15 1531.12C1739.82 1529.94 1741.44 1529.77 1742.35 1530.76L1792.95 1586.07C1793.98 1587.18 1795.82 1586.8 1796.32 1585.37L1876.5 1353.57C1877.25 1351.4 1874.35 1349.88 1873 1351.74L1780.08 1478.84C1779.31 1479.89 1777.76 1479.94 1776.93 1478.94L1720.7 1411.31C1719.61 1410 1717.47 1410.57 1717.19 1412.26Z" fill="#E4E4D0" fill-opacity="0.25"/>
<path d="M1359.77 1506.99L1449.31 1639.32C1450.56 1641.16 1448.31 1643.36 1446.49 1642.07L1381.99 1596.17C1380.89 1595.39 1379.35 1595.9 1378.93 1597.18L1361.49 1650.42C1361.02 1651.86 1359.18 1652.28 1358.14 1651.18L1231.36 1518.29C1229.77 1516.63 1231.78 1514.05 1233.78 1515.17L1335.79 1572.2C1336.93 1572.83 1338.35 1572.24 1338.7 1570.99L1356.19 1507.58C1356.64 1505.94 1358.82 1505.58 1359.77 1506.99Z" fill="#E4E4D0" fill-opacity="0.25"/>
<path d="M1461.85 1383.99C1461.85 1367.42 1475.28 1353.99 1491.85 1353.99H1642.85C1659.42 1353.99 1672.85 1367.42 1672.85 1383.99V1512.99C1672.85 1515.75 1670.61 1517.99 1667.85 1517.99H1466.85C1464.09 1517.99 1461.85 1515.75 1461.85 1512.99V1383.99Z" fill="#E4E4D0"/>
<path d="M1669.17 1517.99H1465.84C1463.84 1517.99 1462.45 1516.08 1463.43 1514.34C1470.64 1501.54 1498.78 1481.49 1568.85 1481.49C1639.27 1481.49 1665.67 1501.73 1671.67 1514.52C1672.47 1516.24 1671.07 1517.99 1669.17 1517.99Z" fill="#1B1B1B"/>
<path d="M1511.85 1517.99H1538.85V1582.99C1538.85 1588.51 1534.38 1592.99 1528.85 1592.99H1521.85C1516.33 1592.99 1511.85 1588.51 1511.85 1582.99V1517.99Z" fill="#1B1B1B"/>
<path d="M1596.85 1517.99H1623.85V1582.99C1623.85 1588.51 1619.38 1592.99 1613.85 1592.99H1606.85C1601.33 1592.99 1596.85 1588.51 1596.85 1582.99V1517.99Z" fill="#1B1B1B"/>
</g>
<rect x="1278.6" y="1117.74" width="577.5" height="806.5" rx="1.75" stroke="#09702C" stroke-width="1.5" stroke-linejoin="round"/>
<path fill-rule="evenodd" clip-rule="evenodd" d="M796.544 2198.47C796.849 2200.61 795.356 2202.6 793.209 2202.91C785.682 2203.97 774.329 2207.34 764.971 2213.85C755.698 2220.3 748.699 2229.56 748.699 2242.62C748.699 2255.67 755.685 2264.78 764.932 2271.04C774.275 2277.37 785.616 2280.54 793.142 2281.47C795.293 2281.74 796.82 2283.7 796.553 2285.85C796.286 2288 794.326 2289.53 792.174 2289.26C783.739 2288.22 771.137 2284.73 760.529 2277.54C749.824 2270.29 740.849 2259.01 740.849 2242.62C740.849 2226.24 749.81 2214.83 760.49 2207.41C771.083 2200.04 783.673 2196.33 792.107 2195.13C794.253 2194.83 796.24 2196.32 796.544 2198.47Z" fill="#09702C" stroke="#1B1B1B" stroke-width="1.56998" stroke-linecap="round"/>
<path d="M796.544 2198.47C796.848 2200.61 795.355 2202.6 793.209 2202.91C785.681 2203.97 774.329 2207.34 764.971 2213.85C766.155 2208.44 762.476 2207.3 760.489 2207.4C771.083 2200.04 783.673 2196.33 792.106 2195.13C794.252 2194.83 796.239 2196.32 796.544 2198.47Z" fill="#1B1B1B" stroke="#1B1B1B" stroke-width="1.56998" stroke-linecap="round"/>
<path d="M792.658 2270.45C776.696 2267.09 744.773 2247.83 744.773 2197.78C744.773 2147.73 776.696 2127.51 792.658 2123.66" stroke="#1B1B1B" stroke-width="7.84992" stroke-linecap="round"/>
<rect x="741.633" y="2172.2" width="3.92496" height="10.9899" rx="0.784992" transform="rotate(-75 741.633 2172.2)" fill="#FF8832"/>
<rect x="740.849" y="2179.34" width="3.92496" height="10.9899" rx="0.784992" transform="rotate(-79.991 740.849 2179.34)" fill="#FF8832"/>
<rect x="740.849" y="2179.34" width="3.92496" height="10.9899" rx="0.784992" transform="rotate(-79.991 740.849 2179.34)" fill="#FF8832"/>
<rect x="739.364" y="2186.82" width="3.92496" height="10.9899" rx="0.784992" transform="rotate(-84.152 739.364 2186.82)" fill="#FF8832"/>
<rect x="739.278" y="2195.09" width="3.92496" height="10.9899" rx="0.784992" transform="rotate(-88.6937 739.278 2195.09)" fill="#FF8832"/>
<rect x="739.278" y="2202.16" width="3.92496" height="10.9899" rx="0.784992" transform="rotate(-88.6937 739.278 2202.16)" fill="#FF8832"/>
<rect x="739.54" y="2210.66" width="3.92496" height="10.9899" rx="0.784992" transform="rotate(-95.6315 739.54 2210.66)" fill="#FF8832"/>
<rect x="740.448" y="2217.35" width="3.92496" height="10.9899" rx="0.784992" transform="rotate(-95.6315 740.448 2217.35)" fill="#FF8832"/>
<rect x="742.566" y="2225.07" width="3.92496" height="10.9899" rx="0.784992" transform="rotate(-103.744 742.566 2225.07)" fill="#FF8832"/>
<rect x="744.921" y="2232.92" width="3.92496" height="10.9899" rx="0.784992" transform="rotate(-103.744 744.921 2232.92)" fill="#FF8832"/>
<rect width="3.92496" height="10.9899" rx="0.784992" transform="matrix(-0.383121 -0.923698 0.923698 -0.383122 748.608 2241.47)" fill="#FF8832"/>
<rect width="3.92496" height="10.9899" rx="0.784992" transform="matrix(-0.383121 -0.923698 0.923698 -0.383122 752.557 2247.68)" fill="#FF8832"/>
<rect width="3.92496" height="10.9899" rx="0.784992" transform="matrix(-0.504811 -0.86323 0.863229 -0.504813 757.744 2254.27)" fill="#FF8832"/>
<rect width="3.92496" height="10.9899" rx="0.784992" transform="matrix(-0.697453 -0.71663 0.716629 -0.697454 763.638 2260.54)" fill="#FF8832"/>
<rect width="3.92496" height="10.9899" rx="0.784992" transform="matrix(-0.818776 -0.574113 0.574112 -0.818777 770.512 2266.4)" fill="#FF8832"/>
<rect width="3.92496" height="10.9899" rx="0.784992" transform="matrix(-0.818776 -0.574113 0.574112 -0.818777 777.031 2270.72)" fill="#FF8832"/>
<rect x="743.988" y="2165.06" width="3.92496" height="10.9899" rx="0.784992" transform="rotate(-71.1891 743.988 2165.06)" fill="#FF8832"/>
<rect width="3.92496" height="10.9899" rx="0.784992" transform="matrix(0.418249 -0.908333 0.908332 0.41825 747.128 2157.84)" fill="#FF8832"/>
<rect width="3.92496" height="10.9899" rx="0.784992" transform="matrix(0.504262 -0.863551 0.86355 0.504263 750.346 2151)" fill="#FF8832"/>
<rect width="3.92496" height="10.9899" rx="0.784992" transform="matrix(0.570363 -0.821393 0.821392 0.570364 754.295 2144.66)" fill="#FF8832"/>
<rect width="3.92496" height="10.9899" rx="0.784992" transform="matrix(0.678213 -0.734865 0.734864 0.678214 759.688 2138.32)" fill="#FF8832"/>
<rect width="3.92496" height="10.9899" rx="0.784992" transform="matrix(0.780296 -0.62541 0.625409 0.780297 765.584 2132.05)" fill="#FF8832"/>
<rect width="3.92496" height="10.9899" rx="0.784992" transform="matrix(0.896168 -0.443714 0.443713 0.896169 773.032 2126.19)" fill="#FF8832"/>
<rect x="779.987" y="2122.45" width="3.92496" height="10.9899" rx="0.784992" transform="rotate(-17.4767 779.987 2122.45)" fill="#FF8832"/>
<path d="M789.752 2304.34V2299.39L785.844 2294.7L785.062 2243.89L809.553 2240.77L1062.28 2252.49L1114.38 2263.7L1108.91 2274.38V2337.89L877.554 2351.76L789.752 2304.34Z" fill="#1B1B1B"/>
<rect x="888.236" y="2040.41" width="216.248" height="203.221" fill="#09702C"/>
<path d="M1013.09 2123.89V2135.52M985.966 2123.89V2135.52" stroke="#F4F4F4" stroke-width="5.81237" stroke-linecap="round"/>
<path d="M1032.47 2135.52C1032.47 2155.99 1015.8 2184.64 949.155 2135.52" stroke="#F4F4F4" stroke-width="5.81237" stroke-linecap="round"/>
<path d="M1052.9 2072.2H1071.14V2097.99V2213.93L1048.73 2214.54M1052.9 2072.2H917.156V2219.14L1048.73 2214.54M1052.9 2072.2C1059.41 2072.2 1063.06 2076.37 1063.06 2090.18V2205.07C1063.67 2208.43 1061.65 2215.03 1048.73 2214.54" stroke="#1B1B1B" stroke-width="2.6054"/>
<path d="M1052.9 2072.2H1071.13V2097.99V2213.93L1052.94 2214.43C1051.68 2214.56 1050.28 2214.6 1048.73 2214.54L1052.94 2214.43C1062.1 2213.49 1063.59 2208.03 1063.06 2205.07V2090.18C1063.06 2076.37 1059.41 2072.2 1052.9 2072.2Z" fill="#1B1B1B"/>
<path d="M1071.13 2213.93L1048.73 2214.54C1061.65 2215.03 1063.67 2208.43 1063.06 2205.07V2090.18C1063.06 2076.37 1059.41 2072.2 1052.9 2072.2H1071.13V2097.99V2213.93Z" stroke="#1B1B1B" stroke-width="2.6054"/>
<path d="M1096.93 2077.67C1099.64 2056.41 1082.59 2055.75 1072.86 2058.36C1082.05 2059.33 1082.15 2071.07 1071.13 2072.04V2080.01V2097.99V2213.15L1088.59 2226.7C1094.43 2226.07 1096.58 2218.97 1096.93 2215.5V2077.67Z" fill="#1B1B1B"/>
<path d="M917.155 2073.51L900.48 2061V2170.68V2235.52L917.155 2218.64V2073.51Z" fill="#1B1B1B"/>
<path d="M1096.93 2077.67C1099.64 2056.41 1082.59 2055.75 1072.86 2058.36C1082.05 2059.33 1082.15 2071.07 1071.13 2072.04V2080.01V2097.99V2213.15L1088.59 2226.7C1094.43 2226.07 1096.58 2218.97 1096.93 2215.5V2077.67Z" stroke="#1B1B1B" stroke-width="2.6054"/>
<path d="M917.155 2073.51L900.48 2061V2170.68V2235.52L917.155 2218.64V2073.51Z" stroke="#1B1B1B" stroke-width="2.6054"/>
<path fill-rule="evenodd" clip-rule="evenodd" d="M883.267 2027.89C877.418 2027.76 872.603 2032.46 872.603 2038.31V2261.71C872.603 2267.82 877.811 2272.62 883.9 2272.11C944.724 2266.93 1055.5 2258.24 1108.26 2256.63C1113.97 2256.46 1118.55 2251.81 1118.55 2246.11V2043.56C1118.55 2037.9 1114.03 2033.27 1108.37 2033.14L883.267 2027.89ZM910.487 2055.49C904.646 2055.36 899.845 2060.06 899.845 2065.91V2223.89C899.845 2229.82 904.793 2234.56 910.721 2234.3L1086.59 2226.61C1092.16 2226.37 1096.55 2221.78 1096.55 2216.2V2069.63C1096.55 2063.96 1092.02 2059.33 1086.35 2059.21L910.487 2055.49Z" fill="#E4E4D0"/>
<path d="M1086.35 2059.21L1086.32 2060.71L1086.32 2060.71L1086.35 2059.21ZM1086.59 2226.61L1086.65 2228.11L1086.59 2226.61ZM910.721 2234.3L910.787 2235.8L910.721 2234.3ZM1108.26 2256.63L1108.22 2255.13L1108.26 2256.63ZM874.103 2261.71V2038.31H871.103V2261.71H874.103ZM1108.22 2255.13C1055.4 2256.74 944.587 2265.44 883.773 2270.61L884.027 2273.6C944.86 2268.43 1055.59 2259.74 1108.31 2258.13L1108.22 2255.13ZM1117.05 2043.56V2246.11H1120.05V2043.56H1117.05ZM883.232 2029.39L1108.34 2034.64L1108.41 2031.64L883.302 2026.39L883.232 2029.39ZM901.345 2223.89V2065.91H898.345V2223.89H901.345ZM1086.52 2225.11L910.656 2232.8L910.787 2235.8L1086.65 2228.11L1086.52 2225.11ZM1095.05 2069.63V2216.2H1098.05V2069.63H1095.05ZM910.455 2056.99L1086.32 2060.71L1086.38 2057.71L910.519 2053.99L910.455 2056.99ZM1098.05 2069.63C1098.05 2063.15 1092.87 2057.85 1086.38 2057.71L1086.32 2060.71C1091.17 2060.82 1095.05 2064.78 1095.05 2069.63H1098.05ZM1086.65 2228.11C1093.03 2227.83 1098.05 2222.58 1098.05 2216.2H1095.05C1095.05 2220.98 1091.29 2224.9 1086.52 2225.11L1086.65 2228.11ZM901.345 2065.91C901.345 2060.91 905.455 2056.88 910.455 2056.99L910.519 2053.99C903.837 2053.85 898.345 2059.22 898.345 2065.91H901.345ZM898.345 2223.89C898.345 2230.68 904.005 2236.09 910.787 2235.8L910.656 2232.8C905.58 2233.02 901.345 2228.97 901.345 2223.89H898.345ZM1120.05 2043.56C1120.05 2037.08 1114.88 2031.79 1108.41 2031.64L1108.34 2034.64C1113.18 2034.75 1117.05 2038.71 1117.05 2043.56H1120.05ZM1108.31 2258.13C1114.81 2257.93 1120.05 2252.64 1120.05 2246.11H1117.05C1117.05 2250.99 1113.13 2254.98 1108.22 2255.13L1108.31 2258.13ZM874.103 2038.31C874.103 2033.3 878.225 2029.28 883.232 2029.39L883.302 2026.39C876.611 2026.24 871.103 2031.62 871.103 2038.31H874.103ZM871.103 2261.71C871.103 2268.7 877.06 2274.19 884.027 2273.6L883.773 2270.61C878.563 2271.05 874.103 2266.95 874.103 2261.71H871.103Z" fill="#1B1B1B"/>
<path d="M1113.86 2274.9L877.814 2289.23C879.899 2281.93 888.236 2279.76 892.144 2279.59L1113.86 2264.74V2274.9Z" fill="#E4E4D0"/>
<path d="M1113.86 2328.57L877.814 2346.21V2328.57C877.814 2307.1 901.089 2300 912.727 2299.13L1113.86 2286.1V2328.57Z" fill="#E4E4D0"/>
<path d="M1113.86 2274.9L877.814 2289.23C879.899 2281.93 888.236 2279.76 892.144 2279.59L1113.86 2264.74V2274.9Z" stroke="#1B1B1B" stroke-width="2.08432"/>
<path d="M1113.86 2328.57L877.814 2346.21V2328.57C877.814 2307.1 901.089 2300 912.727 2299.13L1113.86 2286.1V2328.57Z" stroke="#1B1B1B" stroke-width="2.08432"/>
<path d="M834.565 2039.11L877.814 2029.21V2270.02L783.238 2230.81V2056.31L828.572 2047.19L834.565 2039.11Z" fill="#93937B"/>
<path d="M786.518 2223.35L833.032 2242.55M786.816 2208.77L814.643 2220.8M787.114 2194.18L811.437 2203.8" stroke="#1B1B1B" stroke-width="2.6054"/>
<path d="M877.814 2029.21V2270.45" stroke="#F4EDED" stroke-width="2.60617" stroke-linecap="round"/>
<path d="M786.104 2297.31V2246.24C806.166 2255.01 848.582 2273.08 857.753 2275.16C866.924 2277.24 870.606 2286.45 871.301 2290.79L877.554 2293.4V2347.59L786.104 2297.31Z" fill="#93937B" stroke="#1B1B1B" stroke-width="2.6054"/>
<path d="M786.625 2286.6L877.814 2331.7M786.625 2270.96L877.814 2312.94M877.814 2293.14L786.625 2256.4" stroke="#1B1B1B" stroke-opacity="0.25" stroke-width="2.6054"/>
<path d="M786.625 2245.98V2298.09L827.79 2322.32C796.942 2284.8 814.937 2268.3 827.79 2264.74L786.625 2245.98Z" fill="#1B1B1B" stroke="#1B1B1B" stroke-width="2.6054"/>
<path d="M838.473 2044.84L870.945 2035.72L870.945 2076.63C870.244 2051.2 848.223 2046.4 838.473 2044.84Z" fill="#1B1B1B"/>
<path d="M870.945 2127.43L870.945 2114.41M870.945 2103.98L870.945 2076.63M870.945 2076.63L870.945 2035.72L838.473 2044.84C848.223 2046.4 870.244 2051.2 870.945 2076.63Z" stroke="#1B1B1B" stroke-width="2.08432"/>
<path d="M840.936 2249.26L871.206 2262.47L871.206 2221.57C870.505 2246.99 850.686 2247.7 840.936 2249.26Z" fill="#1B1B1B"/>
<path d="M871.206 2170.76L871.206 2183.79M871.206 2194.21L871.206 2221.57M871.206 2221.57L871.206 2262.47L840.936 2249.26C850.686 2247.7 870.505 2246.99 871.206 2221.57Z" stroke="#1B1B1B" stroke-width="2.08432"/>
<path d="M943.567 2247.12L944.371 2242.07L947.503 2241.87L945.22 2256.15L942.218 2256.35L942.452 2254.88C941.908 2255.54 941.329 2256.03 940.715 2256.35C940.109 2256.67 939.386 2256.86 938.548 2256.91C937.169 2257 936.086 2256.58 935.302 2255.64C934.524 2254.7 934.259 2253.45 934.507 2251.88C934.802 2250.07 935.495 2248.62 936.585 2247.53C937.683 2246.43 939.009 2245.84 940.562 2245.73C941.278 2245.69 941.888 2245.79 942.394 2246.04C942.907 2246.28 943.298 2246.64 943.567 2247.12ZM942.994 2251.22C943.198 2249.92 942.982 2249.02 942.347 2248.51C941.953 2248.2 941.46 2248.07 940.867 2248.11C939.964 2248.17 939.251 2248.52 938.727 2249.16C938.211 2249.79 937.879 2250.56 937.732 2251.47C937.576 2252.45 937.665 2253.22 937.999 2253.78C938.333 2254.33 938.936 2254.58 939.811 2254.53C940.685 2254.47 941.396 2254.13 941.943 2253.52C942.498 2252.91 942.848 2252.14 942.994 2251.22Z" fill="#93937B"/>
<path d="M951.31 2249.48L956.111 2249.17C956.177 2248.44 956.015 2247.9 955.625 2247.56C955.242 2247.2 954.722 2247.05 954.064 2247.09C953.349 2247.14 952.761 2247.37 952.301 2247.8C951.848 2248.23 951.517 2248.79 951.31 2249.48ZM958.707 2246.57C959.073 2247.17 959.255 2247.88 959.254 2248.7C959.262 2249.18 959.186 2249.87 959.025 2250.79L950.941 2251.31C950.813 2252.37 951.065 2253.09 951.698 2253.47C952.079 2253.71 952.57 2253.81 953.169 2253.77C953.805 2253.73 954.349 2253.53 954.801 2253.18C955.04 2252.99 955.271 2252.74 955.493 2252.42L958.646 2252.21C958.463 2252.85 957.996 2253.51 957.243 2254.2C956.065 2255.29 954.566 2255.9 952.746 2256.01C951.243 2256.11 949.985 2255.76 948.972 2254.97C947.966 2254.18 947.62 2252.8 947.932 2250.85C948.225 2249.02 948.966 2247.58 950.155 2246.54C951.351 2245.49 952.776 2244.92 954.431 2244.81C955.413 2244.75 956.271 2244.85 957.005 2245.13C957.745 2245.41 958.313 2245.89 958.707 2246.57Z" fill="#93937B"/>
<path d="M963.328 2251.64C963.316 2252.13 963.404 2252.47 963.593 2252.66C963.91 2253.01 964.586 2253.14 965.619 2253.08C966.226 2253.04 966.721 2252.93 967.106 2252.74C967.491 2252.56 967.711 2252.3 967.766 2251.98C967.814 2251.67 967.706 2251.44 967.44 2251.3C967.175 2251.16 966.146 2250.95 964.353 2250.67C963.066 2250.46 962.185 2250.15 961.71 2249.74C961.228 2249.33 961.056 2248.72 961.195 2247.89C961.351 2246.91 961.912 2246.05 962.876 2245.29C963.848 2244.53 965.111 2244.1 966.664 2244C968.138 2243.9 969.296 2244.09 970.138 2244.56C970.981 2245.03 971.368 2245.9 971.302 2247.19L968.213 2247.39C968.222 2247.03 968.153 2246.76 968.007 2246.56C967.726 2246.21 967.177 2246.06 966.36 2246.11C965.689 2246.16 965.194 2246.28 964.876 2246.49C964.565 2246.69 964.391 2246.92 964.352 2247.18C964.297 2247.49 964.412 2247.71 964.698 2247.83C964.976 2247.96 966.007 2248.15 967.791 2248.39C968.974 2248.57 969.831 2248.91 970.363 2249.39C970.887 2249.88 971.087 2250.52 970.96 2251.32C970.788 2252.37 970.214 2253.26 969.239 2253.98C968.264 2254.69 966.866 2255.11 965.046 2255.23C963.189 2255.35 961.873 2255.09 961.097 2254.45C960.327 2253.8 960.027 2252.93 960.197 2251.84L963.328 2251.64Z" fill="#93937B"/>
<path d="M977.817 2242.33L974.685 2242.53L975.096 2239.98L978.227 2239.77L977.817 2242.33ZM974.478 2243.79L977.61 2243.59L975.92 2254.17L972.788 2254.37L974.478 2243.79Z" fill="#93937B"/>
<path d="M987.419 2248.14C987.58 2247.14 987.467 2246.39 987.08 2245.9C986.693 2245.4 986.103 2245.18 985.308 2245.23C984.224 2245.3 983.403 2245.81 982.845 2246.75C982.55 2247.25 982.343 2247.85 982.224 2248.57C982.127 2249.18 982.158 2249.72 982.318 2250.18C982.589 2251.05 983.266 2251.45 984.35 2251.38C985.072 2251.33 985.722 2251.05 986.298 2250.53C986.875 2250.01 987.248 2249.21 987.419 2248.14ZM986.463 2243.01C987.171 2243.24 987.697 2243.71 988.044 2244.42L988.284 2242.9L991.286 2242.71L989.673 2252.74C989.46 2254.11 989.041 2255.15 988.415 2255.88C987.343 2257.13 985.557 2257.83 983.058 2257.99C981.548 2258.09 980.357 2257.91 979.486 2257.44C978.621 2256.97 978.221 2256.21 978.284 2255.16L981.644 2254.94C981.683 2255.26 981.787 2255.48 981.957 2255.61C982.251 2255.85 982.792 2255.94 983.579 2255.88C984.692 2255.81 985.49 2255.43 985.973 2254.74C986.287 2254.3 986.525 2253.57 986.686 2252.56L986.796 2251.88C986.426 2252.35 986.051 2252.71 985.671 2252.96C984.988 2253.42 984.156 2253.69 983.173 2253.75C981.656 2253.85 980.521 2253.45 979.769 2252.56C979.017 2251.66 978.773 2250.39 979.037 2248.76C979.285 2247.19 979.931 2245.84 980.976 2244.72C982.028 2243.59 983.356 2242.97 984.96 2242.86C985.552 2242.83 986.053 2242.87 986.463 2243.01Z" fill="#93937B"/>
<path d="M1004.34 2245.28L1003.2 2252.41L1000.03 2252.61L1001.05 2246.18C1001.15 2245.62 1001.13 2245.2 1001.01 2244.91C1000.79 2244.39 1000.26 2244.15 999.408 2244.21C998.36 2244.28 997.578 2244.72 997.062 2245.54C996.79 2245.97 996.604 2246.52 996.503 2247.17L995.588 2252.9L992.511 2253.1L994.202 2242.54L997.182 2242.34L996.933 2243.89C997.418 2243.32 997.858 2242.9 998.251 2242.64C998.955 2242.17 999.795 2241.91 1000.77 2241.84C1001.99 2241.76 1002.94 2241.99 1003.62 2242.51C1004.31 2243.03 1004.55 2243.96 1004.34 2245.28Z" fill="#93937B"/>
<path d="M1013.39 2246.66C1013.18 2246.78 1012.97 2246.88 1012.76 2246.97C1012.55 2247.04 1012.26 2247.12 1011.91 2247.2L1011.2 2247.36C1010.53 2247.51 1010.04 2247.67 1009.73 2247.83C1009.22 2248.12 1008.92 2248.52 1008.84 2249.05C1008.76 2249.53 1008.85 2249.86 1009.1 2250.06C1009.36 2250.24 1009.7 2250.32 1010.12 2250.3C1010.79 2250.25 1011.43 2250.04 1012.04 2249.65C1012.66 2249.27 1013.05 2248.61 1013.23 2247.69L1013.39 2246.66ZM1011.72 2245.49C1012.3 2245.38 1012.73 2245.28 1012.99 2245.16C1013.45 2244.97 1013.71 2244.69 1013.77 2244.34C1013.84 2243.9 1013.72 2243.62 1013.41 2243.48C1013.1 2243.33 1012.62 2243.28 1011.97 2243.32C1011.24 2243.37 1010.7 2243.56 1010.34 2243.9C1010.09 2244.16 1009.9 2244.49 1009.75 2244.9L1006.77 2245.1C1006.99 2244.17 1007.4 2243.39 1008.01 2242.76C1008.98 2241.77 1010.45 2241.22 1012.44 2241.09C1013.73 2241 1014.85 2241.16 1015.78 2241.55C1016.71 2241.95 1017.07 2242.78 1016.87 2244.06L1016.08 2248.91C1016.03 2249.25 1015.97 2249.66 1015.91 2250.13C1015.88 2250.5 1015.89 2250.74 1015.97 2250.86C1016.05 2250.98 1016.19 2251.08 1016.37 2251.15L1016.32 2251.56L1012.96 2251.78C1012.9 2251.57 1012.87 2251.37 1012.86 2251.19C1012.85 2251 1012.86 2250.79 1012.87 2250.55C1012.38 2250.99 1011.83 2251.38 1011.23 2251.71C1010.51 2252.09 1009.73 2252.31 1008.89 2252.37C1007.82 2252.43 1006.98 2252.22 1006.37 2251.72C1005.76 2251.22 1005.54 2250.46 1005.7 2249.46C1005.91 2248.16 1006.62 2247.18 1007.83 2246.53C1008.5 2246.17 1009.44 2245.88 1010.65 2245.67L1011.72 2245.49Z" fill="#93937B"/>
<path d="M1018.56 2242.99L1018.87 2241.02L1020.52 2240.91L1021 2237.96L1024.05 2237.76L1023.58 2240.71L1025.49 2240.59L1025.18 2242.56L1023.26 2242.68L1022.36 2248.28C1022.29 2248.71 1022.31 2248.98 1022.41 2249.08C1022.52 2249.18 1022.89 2249.2 1023.52 2249.16C1023.61 2249.16 1023.71 2249.15 1023.81 2249.14C1023.92 2249.13 1024.02 2249.12 1024.13 2249.1L1023.79 2251.17L1022.32 2251.31C1020.86 2251.45 1019.9 2251.29 1019.44 2250.83C1019.15 2250.53 1019.05 2250.06 1019.16 2249.4L1020.2 2242.88L1018.56 2242.99Z" fill="#93937B"/>
<path d="M1037.29 2240.83C1037.55 2241.2 1037.68 2241.6 1037.68 2242.01C1037.69 2242.42 1037.62 2243.1 1037.47 2244.04L1036.47 2250.26L1033.32 2250.46L1034.34 2244.02C1034.44 2243.45 1034.41 2243 1034.25 2242.67C1034.04 2242.19 1033.55 2241.98 1032.76 2242.03C1031.94 2242.09 1031.28 2242.37 1030.78 2242.89C1030.28 2243.4 1029.96 2244.11 1029.81 2245.02L1028.9 2250.75L1025.82 2250.94L1028.11 2236.68L1031.18 2236.49L1030.37 2241.54C1030.92 2240.9 1031.5 2240.44 1032.13 2240.16C1032.76 2239.88 1033.4 2239.71 1034.05 2239.67C1034.78 2239.63 1035.42 2239.7 1035.98 2239.88C1036.54 2240.07 1036.97 2240.39 1037.29 2240.83Z" fill="#93937B"/>
<path d="M1048.31 2244.27C1048.49 2243.21 1048.37 2242.41 1047.97 2241.88C1047.58 2241.33 1046.94 2241.09 1046.03 2241.15C1045.13 2241.2 1044.39 2241.54 1043.81 2242.14C1043.24 2242.75 1042.86 2243.58 1042.69 2244.64C1042.52 2245.7 1042.63 2246.5 1043.02 2247.05C1043.42 2247.59 1044.07 2247.83 1044.97 2247.78C1045.87 2247.72 1046.62 2247.38 1047.19 2246.78C1047.77 2246.17 1048.14 2245.34 1048.31 2244.27ZM1044.61 2250.1C1042.58 2250.23 1041.15 2249.77 1040.33 2248.74C1039.52 2247.7 1039.23 2246.4 1039.48 2244.84C1039.73 2243.32 1040.44 2241.96 1041.62 2240.78C1042.79 2239.59 1044.4 2238.94 1046.43 2238.8C1048.46 2238.67 1049.88 2239.14 1050.7 2240.19C1051.51 2241.25 1051.8 2242.54 1051.55 2244.06C1051.31 2245.62 1050.59 2246.98 1049.41 2248.15C1048.24 2249.32 1046.64 2249.96 1044.61 2250.1Z" fill="#93937B"/>
<path d="M1064.78 2241.37L1063.64 2248.5L1060.48 2248.7L1061.5 2242.27C1061.59 2241.71 1061.58 2241.29 1061.46 2241C1061.24 2240.48 1060.71 2240.25 1059.85 2240.3C1058.81 2240.37 1058.02 2240.81 1057.51 2241.63C1057.24 2242.07 1057.05 2242.61 1056.95 2243.26L1056.03 2248.99L1052.96 2249.19L1054.65 2238.63L1057.63 2238.44L1057.38 2239.98C1057.86 2239.41 1058.3 2238.99 1058.7 2238.73C1059.4 2238.26 1060.24 2238 1061.22 2237.94C1062.44 2237.86 1063.39 2238.08 1064.07 2238.61C1064.75 2239.13 1064.99 2240.05 1064.78 2241.37Z" fill="#93937B"/>
<path d="M797.78 2126.68L794.23 2102.42C793.993 2100.8 794.79 2099.2 796.23 2098.41L813.703 2088.85C814.315 2088.51 814.826 2088.02 815.185 2087.42L817.55 2083.48C817.954 2082.81 818.55 2082.27 819.263 2081.94L846.48 2069.3C848.827 2068.22 851.568 2069.65 852.002 2072.21L856.504 2098.61C856.81 2100.41 855.839 2102.18 854.16 2102.89L826.137 2114.71C825.068 2115.16 824.252 2116.06 823.911 2117.17L823.391 2118.86C823.066 2119.92 822.307 2120.79 821.303 2121.26L803.327 2129.67C800.944 2130.78 798.161 2129.28 797.78 2126.68Z" fill="#A68A26" stroke="#1B1B1B" stroke-width="1.56998" stroke-linecap="round"/>
<path d="M814.638 2088.34L818.17 2082.45L824.45 2115.42L822.88 2120.52L814.638 2088.34Z" fill="#1B1B1B"/>
<path d="M783.155 2060.89L783.155 2229.66" stroke="#F4EDED" stroke-width="2.35498" stroke-linecap="round"/>
<path d="M1108.91 2328.82V2336.89L1056.8 2340.87C1061.23 2339.28 1061.13 2334.43 1056.8 2332.47L1108.91 2328.82Z" fill="#09702C"/>
<path d="M876.771 2350.96L790.272 2304.85V2300.16L784.293 2297.14L784.293 2244.93L800.694 2252.74M807.207 2255.6L827.269 2265.24M1108.91 2328.82V2336.89L1056.8 2340.87M1108.91 2328.82L1114.12 2328.56V2302.24V2286.15L1108.62 2286.55L1108.91 2275.16L1114.12 2274.77V2264.57L1088.07 2257.95M1108.91 2328.82L1056.8 2332.47C1061.13 2334.43 1061.23 2339.28 1056.8 2340.87M883.546 2354.09L1056.8 2340.87" stroke="#1B1B1B" stroke-width="2.35498" stroke-linecap="round" stroke-linejoin="round"/>
<path d="M100.936 2735.61C117.811 2731.11 116.775 2729.18 121.186 2713.11C127.996 2730.97 132.436 2732.8 144.248 2732.8C127.4 2741.73 124.561 2747.42 124.561 2767.11C121.186 2748.55 111.623 2737.86 100.936 2735.61Z" fill="#92B993" stroke="#92B993" stroke-width="3.30889" stroke-linejoin="round"/>
<path d="M173.708 2462.23C173.708 2461.69 173.307 2461.22 172.765 2461.14C172.224 2461.06 171.706 2461.39 171.549 2461.92C170.753 2464.57 168.991 2468.57 166.327 2471.88C163.657 2475.2 160.218 2477.68 156.061 2477.68C155.5 2477.68 155.029 2478.1 154.965 2478.65C154.901 2479.21 155.264 2479.73 155.81 2479.85C158.406 2480.46 162.301 2481.93 165.566 2484.37C168.823 2486.8 171.323 2490.08 171.493 2494.31C171.494 2494.48 171.497 2494.65 171.503 2494.81C171.523 2495.41 172.022 2495.89 172.624 2495.87C173.226 2495.86 173.708 2495.37 173.708 2494.77C173.708 2494.6 173.705 2494.43 173.698 2494.26C173.69 2491.66 174.302 2488.02 176.133 2485.06C177.93 2482.16 180.91 2479.88 185.841 2479.88C186.45 2479.88 186.944 2479.39 186.944 2478.78C186.944 2478.17 186.45 2477.68 185.841 2477.68C183.869 2477.68 180.835 2476.93 178.306 2474.65C175.813 2472.41 173.708 2468.59 173.708 2462.23Z" fill="#09702C" stroke="#09702C" stroke-width="2.20593" stroke-linecap="round" stroke-linejoin="round"/>
<path d="M184.186 2503.04C189.921 2503.04 193.928 2495.69 195.215 2492.01C195.215 2500.99 202.025 2503.27 207.336 2503.31C208.367 2503.14 209.473 2503.04 210.657 2503.04C209.696 2503.22 208.556 2503.32 207.336 2503.31C199.535 2504.63 196.027 2510.44 195.215 2513.52C195.215 2506.02 187.862 2503.41 184.186 2503.04Z" fill="#C4D5B9"/>
<path d="M195.215 2492.01C193.928 2495.69 189.921 2503.04 184.186 2503.04C187.862 2503.41 195.215 2506.02 195.215 2513.52C196.134 2510.03 200.509 2503.04 210.657 2503.04C205.51 2503.96 195.215 2503.04 195.215 2492.01Z" stroke="#C4D5B9" stroke-width="3.30889" stroke-linecap="round" stroke-linejoin="round"/>
<path d="M569.574 2588.33C560.196 2533.83 519.033 2504.09 471.815 2499.21C445.556 2496.49 422.976 2500.52 402.892 2512.38C382.935 2524.15 365.838 2543.42 350.028 2570.5C343.981 2578.84 338.944 2582.37 334.995 2583.82C331.071 2585.26 327.635 2584.89 324.128 2584.2C323.706 2584.11 323.25 2584.02 322.775 2583.92C321.436 2583.64 319.944 2583.32 318.626 2583.17C316.734 2582.94 314.422 2582.9 312.127 2583.88C307.334 2585.92 305.057 2591.22 303.635 2598.61C299.354 2620.85 304.36 2639.89 308.473 2649.04C292.947 2668.55 276.391 2673.93 259.329 2675.49C252.518 2676.11 245.732 2676.12 238.751 2676.12C236.435 2676.13 234.098 2676.13 231.731 2676.15C222.381 2676.25 212.76 2676.71 203.285 2679.14C193.512 2681.65 187.67 2687.31 185.415 2694.93C183.278 2702.15 184.579 2710.42 187.239 2718.11C189.933 2725.9 194.217 2733.67 198.784 2740.21C203.317 2746.69 208.341 2752.27 212.675 2755.49C216.149 2758.07 221.144 2762.52 227.317 2768.03L228.073 2768.7C234.506 2774.44 242.007 2781.1 249.87 2787.42C257.72 2793.73 266.044 2799.79 274.153 2804.29C282.173 2808.73 290.446 2811.92 298.087 2811.92C306.771 2811.92 314.592 2810.33 321.454 2808.8C322.12 2808.66 322.773 2808.51 323.415 2808.37C329.574 2806.99 334.684 2805.85 339.415 2805.79C344.356 2805.73 348.618 2806.88 352.732 2810.42C357.022 2814.1 361.465 2820.64 365.981 2832.06C371.454 2845.91 385.924 2853.11 402.544 2856.14C419.361 2859.21 439.67 2858.3 459.068 2854.76C478.473 2851.23 497.351 2845 511.298 2837.16C518.262 2833.25 524.204 2828.82 528.343 2823.93C532.493 2819.04 535.085 2813.37 534.541 2807.2C532.276 2781.53 535.833 2768.7 547.308 2727.31C550.054 2717.4 553.254 2705.86 556.937 2692.11C559.248 2683.67 563.879 2674.33 569.562 2664.58C573.709 2657.47 578.297 2650.34 582.82 2643.31C584.498 2640.7 586.167 2638.11 587.801 2635.54C593.757 2626.16 599.275 2617 602.586 2608.94C605.779 2601.17 607.567 2592.89 603.707 2586.33C600.96 2581.66 597.173 2579.15 592.667 2578.81C588.586 2578.5 584.598 2580.05 581.315 2581.69C579.124 2582.79 576.782 2584.19 574.687 2585.44C573.687 2586.03 572.744 2586.6 571.9 2587.08C571.036 2587.57 570.264 2587.98 569.574 2588.33Z" fill="#E4E4D0" stroke="#ADC7A7" stroke-width="8.6775"/>
<path d="M201.094 2693.09C206.282 2683.28 236.45 2680.01 315.613 2745.43C319.363 2748.53 323.132 2751.43 326.914 2754.15C334.265 2759.21 351.859 2770.48 363.422 2775.07C447.374 2812.15 525.975 2778.6 521.302 2809.76" stroke="#ADC7A7" stroke-width="8.6775" stroke-linecap="round"/>
<path d="M422.261 2562.03V2575.11M452.776 2562.03V2575.11" stroke="#09702C" stroke-width="8.6775" stroke-linecap="round"/>
<path d="M400.465 2575.11C400.465 2598.14 419.21 2630.38 494.189 2575.11" stroke="#09702C" stroke-width="8.6775" stroke-linecap="round"/>
<path d="M314.435 2652.83C319.884 2645.56 331.654 2628.85 335.141 2620.13" stroke="#ADC7A7" stroke-width="8.6775" stroke-linecap="round"/>
<path d="M341.449 2605.63L344.719 2595.82" stroke="#ADC7A7" stroke-width="8.6775" stroke-linecap="round"/>
<path d="M613.613 2545.91C609.967 2549.87 601.452 2549.48 597.65 2548.78C596.245 2577.34 595.971 2626.76 613.554 2625.47C637.716 2623.69 620.3 2569.43 613.613 2545.91Z" fill="#09702C" stroke="#09702C" stroke-width="2.20593" stroke-linejoin="round"/>
<path d="M596.35 2508.55C580.251 2529.1 590.825 2544.35 598.124 2549.4C604.946 2551.65 611.244 2548.38 613.541 2546.46C616.045 2538.82 619.13 2522.95 611.434 2520.58C603.738 2518.22 598.171 2511.58 596.35 2508.55Z" fill="#FBF9F1"/>
<path d="M612.87 2547.04L615.293 2544.56C615.252 2542.93 615.171 2540.61 615.05 2538.33C615.526 2540.34 613.795 2544.97 612.87 2547.04Z" stroke="#09702C" stroke-width="3.53798" stroke-linecap="round" stroke-linejoin="round"/>
<path d="M595.916 2504.49C589.525 2510.03 587.481 2521.14 587.245 2526.52C587.237 2526.71 587.278 2526.9 587.365 2527.07C588.16 2528.66 588.689 2529.26 590.695 2530.05C592.809 2530.89 597.144 2535.92 601.116 2535.34C605.089 2534.76 600.572 2526.92 602.65 2523.86C604.728 2520.8 614.308 2536.54 616.424 2529.04C618.117 2523.03 613.9 2520.17 611.58 2519.49C605.424 2517.05 600.091 2509.37 597.645 2504.86C597.297 2504.22 596.466 2504.01 595.916 2504.49Z" fill="#09702C" stroke="#09702C" stroke-width="1.10296"/>
<path d="M588.182 2528.05C588.035 2532.48 589.431 2536.74 590.147 2538.32C588.486 2534.1 590.404 2532.24 591.57 2531.84C589.063 2530.61 588.267 2528.8 588.182 2528.05Z" fill="#09702C" stroke="#09702C" stroke-width="3.30889" stroke-linejoin="round"/>
<path d="M913.524 2545.78C873.763 2546.86 859.345 2562.35 857.106 2569.96C853.972 2586.98 863.554 2620.74 926.957 2619.67C990.36 2618.59 987.405 2586.08 978.002 2569.96C973.076 2561.46 953.285 2544.71 913.524 2545.78Z" fill="#09702C" fill-opacity="0.25"/>
<path d="M914.386 2619.67C914.386 2646.37 892.542 2668.02 865.597 2668.02C855.708 2668.02 846.506 2665.11 838.82 2660.1C831.836 2655.54 826.103 2649.26 822.24 2641.86C818.768 2635.22 816.808 2627.67 816.808 2619.67C816.808 2592.96 838.651 2571.31 865.597 2571.31C873.67 2571.31 881.285 2573.25 887.992 2576.69C903.67 2584.73 914.386 2600.96 914.386 2619.67Z" fill="#E4E4D0"/>
<path d="M1026.36 2619.67C1026.36 2646.37 1004.52 2668.02 977.571 2668.02C967.683 2668.02 958.481 2665.11 950.794 2660.1C943.811 2655.54 938.077 2649.26 934.214 2641.86C930.743 2635.22 928.782 2627.67 928.782 2619.67C928.782 2592.96 950.626 2571.31 977.571 2571.31C985.644 2571.31 993.259 2573.25 999.966 2576.69C1015.64 2584.73 1026.36 2600.96 1026.36 2619.67Z" fill="#E4E4D0"/>
<path d="M914.386 2619.67C914.386 2646.37 892.542 2668.02 865.597 2668.02C855.708 2668.02 846.506 2665.11 838.82 2660.1C831.836 2655.54 826.103 2649.26 822.24 2641.86C818.768 2635.22 816.808 2627.67 816.808 2619.67C816.808 2592.96 838.651 2571.31 865.597 2571.31C873.67 2571.31 881.285 2573.25 887.992 2576.69C903.67 2584.73 914.386 2600.96 914.386 2619.67ZM914.386 2619.67H928.782M928.782 2619.67C928.782 2592.96 950.626 2571.31 977.571 2571.31C985.644 2571.31 993.259 2573.25 999.966 2576.69C1015.64 2584.73 1026.36 2600.96 1026.36 2619.67C1026.36 2646.37 1004.52 2668.02 977.571 2668.02C967.683 2668.02 958.481 2665.11 950.794 2660.1C943.811 2655.54 938.077 2649.26 934.214 2641.86C930.743 2635.22 928.782 2627.67 928.782 2619.67Z" stroke="#09702C" stroke-width="8.67763"/>
<path d="M1096.21 2779.52C1096.21 2681.73 1076.06 2594.92 1029.05 2557.87C1014.27 2546.23 971.555 2522.95 918.898 2522.95C866.242 2522.95 828.003 2546.23 815.465 2557.87C763.077 2606.52 755.018 2672.05 755.018 2779.52" stroke="#09702C" stroke-opacity="0.25" stroke-width="8.67763" stroke-linecap="round"/>
<path d="M764.706 2514.89C764.706 2514.89 767.784 2528.85 773.514 2534.58C779.243 2540.31 793.201 2543.38 793.201 2543.38C793.201 2543.38 779.243 2546.46 773.514 2552.19C767.784 2557.92 764.706 2571.88 764.706 2571.88C764.706 2571.88 761.628 2557.92 755.898 2552.19C750.169 2546.46 736.211 2543.38 736.211 2543.38C736.211 2543.38 750.169 2540.31 755.898 2534.58C761.628 2528.85 764.706 2514.89 764.706 2514.89Z" fill="#09702C" stroke="#09702C" stroke-width="2.8125" stroke-linejoin="round"/>
<path d="M780.54 2684.14C789.943 2673.84 814.122 2654.86 835.615 2661.31C862.48 2669.37 830.242 2733.84 835.615 2748.62M840.988 2762.05L845.018 2772.8" stroke="#09702C" stroke-width="8.67763" stroke-linecap="round"/>
<path d="M905.465 2720.41L920.241 2705.64L935.017 2720.41L926.958 2733.84L945.764 2775.49L920.241 2801.01L897.405 2775.49L914.868 2733.84L905.465 2720.41Z" fill="#09702C"/>
<path d="M914.868 2733.84L905.465 2720.41L920.241 2705.64L935.017 2720.41L926.958 2733.84M914.868 2733.84H926.958M914.868 2733.84L897.405 2775.49L920.241 2801.01L945.764 2775.49L926.958 2733.84" stroke="#09702C" stroke-width="2.8125" stroke-linecap="round" stroke-linejoin="round"/>
<path d="M816.808 2611.61C812.331 2604.44 802.57 2592.26 799.346 2600.86" stroke="#09702C" stroke-width="8.67763" stroke-linecap="round" stroke-linejoin="round"/>
<path d="M1026.36 2611.61C1030.84 2604.44 1040.6 2592.26 1043.82 2600.86" stroke="#09702C" stroke-width="8.67763" stroke-linecap="round" stroke-linejoin="round"/>
<path d="M1339.78 2671.04C1339.78 2762.66 1371.28 2793.21 1390.4 2814.25C1414.19 2840.43 1457.74 2858.91 1500.94 2858.91C1554.94 2858.91 1545.65 2835.81 1580.25 2835.81C1614.84 2835.81 1539.75 2865.07 1684.03 2827.34C1799.45 2797.16 1756.97 2751.11 1736.34 2754.19C1662.09 2765.28 1636.22 2703.38 1632.56 2671.04C1631.72 2617.4 1604.21 2510.12 1500.94 2510.12C1417.89 2510.12 1375 2543.47 1354.97 2588.65C1338.37 2582.75 1307.21 2575.1 1315.31 2591.73C1323.41 2608.36 1335.82 2634.08 1341.01 2644.86C1340.16 2653.52 1339.78 2662.28 1339.78 2671.04Z" fill="#E4E4D0" stroke="#ADC7A7" stroke-width="8.6775" stroke-linecap="round"/>
<path d="M1495.87 2591.73C1478.72 2585.06 1445.25 2575.1 1448.62 2588.65C1452.84 2605.59 1490.81 2626.38 1495.87 2644.86" stroke="#09702C" stroke-width="8.6775" stroke-linecap="round"/>
<path d="M1454.02 2554.48V2569.58M1414.96 2554.48V2569.58" stroke="#09702C" stroke-width="8.6775" stroke-linecap="round"/>
<path d="M1459.59 2838.89C1447.22 2828.88 1460.1 2816.1 1563.37 2814.25C1666.65 2812.4 1694.72 2802.7 1695.84 2798.08M1706.81 2793.46L1716.94 2785.76M1722.84 2778.83C1727.62 2771.13 1739.38 2758.04 1748.15 2767.28" stroke="#ADC7A7" stroke-width="8.6775" stroke-linecap="round"/>
<path d="M1280.12 2469.77C1311.89 2486.74 1328.86 2514.18 1318.03 2531.06C1307.2 2547.95 1272.67 2547.87 1240.9 2530.9C1209.13 2513.93 1192.15 2486.48 1202.98 2469.6C1213.81 2452.72 1248.35 2452.8 1280.12 2469.77Z" fill="#E4E4D0"/>
<path d="M1232.66 2473.38L1257.98 2499.56L1262.2 2480.31M1280.12 2469.77C1311.89 2486.74 1328.86 2514.18 1318.03 2531.06C1307.2 2547.95 1272.67 2547.87 1240.9 2530.9C1209.13 2513.93 1192.15 2486.48 1202.98 2469.6C1213.81 2452.72 1248.35 2452.8 1280.12 2469.77Z" stroke="#09702C" stroke-width="8.6775" stroke-linecap="round" stroke-linejoin="round"/>
<path d="M1232.88 2539.7C1184.26 2510.44 1192.76 2485.8 1200.6 2475.17C1197.35 2499.14 1224.3 2521.06 1238.19 2529.02C1286.19 2555.81 1311.58 2542.74 1318.27 2532.86C1305.38 2565.26 1251.2 2550.73 1232.88 2539.7Z" fill="#09702C" stroke="#09702C" stroke-width="1.6875"/>
<path d="M1406 2543.08C1415.93 2546.3 1436.56 2549.75 1439.64 2537.82C1443.48 2522.91 1425.22 2522.03 1425.22 2531.68C1425.22 2541.33 1442.52 2551.85 1468.47 2543.08" stroke="#09702C" stroke-width="8.6775" stroke-linecap="round" stroke-linejoin="round"/>
<path d="M1587.84 2557.85H1624.12M1594.59 2570.94H1614M1648.59 2729.56H1693.31M1641 2717.24H1671.37" stroke="#09702C" stroke-width="8.6775" stroke-linecap="round" stroke-linejoin="round"/>
<path d="M1298.86 2496.06H1335.14M1305.61 2509.15H1325.01" stroke="#09702C" stroke-width="8.6775" stroke-linecap="round" stroke-linejoin="round"/>
<path d="M1500.09 2655.64L1503.47 2664.11" stroke="#09702C" stroke-width="8.6775" stroke-linecap="round" stroke-linejoin="round"/>
<path d="M1341.47 2644.86C1341.75 2641.52 1342.82 2633.62 1344.84 2628.69M1350 2615.09L1353.38 2606.62" stroke="#ADC7A7" stroke-width="8.6775" stroke-linecap="round" stroke-linejoin="round"/>
<defs>
<clipPath id="clip0_2752_9093">
<rect x="0.853516" y="0.989746" width="1856" height="1016" rx="10" fill="white"/>
</clipPath>
<clipPath id="clip1_2752_9093">
<rect width="539" height="768" fill="white" transform="translate(20.8535 1136.99)"/>
</clipPath>
<clipPath id="clip2_2752_9093">
<rect width="444.931" height="126.089" fill="white" transform="translate(567.785 1245.08) rotate(180)"/>
</clipPath>
<clipPath id="clip3_2752_9093">
<rect width="539" height="768" fill="white" transform="translate(659.354 1136.99)"/>
</clipPath>
<clipPath id="clip4_2752_9093">
<rect width="539" height="768" fill="white" transform="translate(1297.85 1136.99)"/>
</clipPath>
</defs>
</svg>
