<svg width="1080" height="1080" viewBox="0 0 1080 1080" fill="none" xmlns="http://www.w3.org/2000/svg">
<g clip-path="url(#clip0_455_97)">
<rect width="1080" height="1080" fill="url(#paint0_linear_455_97)"/>
<path d="M-0.267822 -137L34.3305 -62.8663L108.464 -28.2679L34.3305 6.33038L-0.267822 80.4641L-34.8661 6.33038L-109 -28.2679L-34.8662 -62.8663L-0.267822 -137Z" fill="#0081DE"/>
<path d="M1101.54 282L1120.8 323.273L1162.07 342.536L1120.8 361.798L1101.54 403.072L1082.27 361.798L1041 342.536L1082.27 323.273L1101.54 282Z" fill="#0081DE"/>
<path d="M-259.158 437.99C218.209 245.39 323.556 367.89 323.556 606.8C323.556 857.89 843.902 897.422 994.708 1040.39C1183.22 1219.1 759.759 981.443 463.996 1133.78C168.234 1286.13 -661.028 600.13 -259.158 437.99Z" fill="#2F9DED" fill-opacity="0.4"/>
<path d="M-327.367 538.1C150 345.5 255.347 468 255.347 706.91C255.347 958 775.693 997.532 926.5 1140.5C1115.01 1319.21 691.55 1081.55 395.788 1233.9C100.026 1386.24 -729.236 700.24 -327.367 538.1Z" fill="#2F9DED" fill-opacity="0.6"/>
<path d="M-392.158 634.99C85.2088 442.39 190.556 564.89 190.556 803.8C190.556 1054.89 710.902 1094.42 861.708 1237.39C1050.22 1416.1 626.759 1178.44 330.996 1330.78C35.2344 1483.13 -794.028 797.13 -392.158 634.99Z" fill="#2F9DED"/>
<path d="M617.232 70L624.943 86.5215L641.464 94.2321L624.943 101.943L617.232 118.464L609.521 101.943L593 94.2321L609.521 86.5215L617.232 70Z" fill="#0081DE"/>
<g filter="url(#filter0_d_455_97)">
<path d="M181.693 815.149C167.791 815.149 156.297 811.92 147.211 805.462C138.235 798.894 133.364 789.316 132.598 776.727H171.348C171.895 783.405 174.851 786.743 180.215 786.743C182.185 786.743 183.827 786.305 185.141 785.43C186.564 784.444 187.275 782.967 187.275 780.996C187.275 778.26 185.798 776.07 182.842 774.428C179.886 772.677 175.289 770.707 169.049 768.517C161.606 765.89 155.421 763.318 150.495 760.8C145.679 758.282 141.519 754.615 138.016 749.799C134.513 744.982 132.816 738.798 132.926 731.244C132.926 723.691 134.842 717.288 138.673 712.033C142.614 706.67 147.923 702.619 154.6 699.883C161.387 697.146 168.995 695.778 177.423 695.778C191.654 695.778 202.929 699.062 211.248 705.63C219.677 712.197 224.11 721.447 224.548 733.379H185.305C185.195 730.095 184.375 727.742 182.842 726.318C181.309 724.895 179.449 724.184 177.259 724.184C175.727 724.184 174.468 724.731 173.483 725.826C172.498 726.811 172.005 728.234 172.005 730.095C172.005 732.722 173.428 734.911 176.274 736.663C179.23 738.305 183.882 740.33 190.231 742.738C197.565 745.475 203.586 748.102 208.293 750.62C213.109 753.137 217.269 756.64 220.772 761.128C224.275 765.616 226.026 771.254 226.026 778.041C226.026 785.156 224.275 791.56 220.772 797.252C217.269 802.835 212.179 807.213 205.501 810.388C198.824 813.562 190.888 815.149 181.693 815.149ZM295.482 815.149C284.535 815.149 274.464 812.577 265.269 807.432C256.184 802.287 248.959 795.172 243.595 786.086C238.231 777.001 235.549 766.766 235.549 755.381C235.549 743.997 238.231 733.762 243.595 724.677C248.959 715.591 256.184 708.53 265.269 703.495C274.464 698.35 284.535 695.778 295.482 695.778C306.428 695.778 316.444 698.35 325.53 703.495C334.615 708.53 341.785 715.591 347.04 724.677C352.403 733.762 355.085 743.997 355.085 755.381C355.085 766.766 352.403 777.001 347.04 786.086C341.785 795.172 334.561 802.287 325.366 807.432C316.28 812.577 306.319 815.149 295.482 815.149ZM295.482 781.16C302.706 781.16 308.289 778.862 312.23 774.264C316.17 769.557 318.141 763.263 318.141 755.381C318.141 747.391 316.17 741.096 312.23 736.499C308.289 731.792 302.706 729.438 295.482 729.438C288.147 729.438 282.51 731.792 278.569 736.499C274.628 741.096 272.658 747.391 272.658 755.381C272.658 763.263 274.628 769.557 278.569 774.264C282.51 778.862 288.147 781.16 295.482 781.16Z" fill="white"/>
</g>
<g filter="url(#filter1_d_455_97)">
<path d="M421.662 726.811V741.096H457.785V768.517H421.662V784.937H462.711V814H385.21V697.748H462.711V726.811H421.662ZM550.994 796.431H512.244L506.497 814H468.239L510.766 697.748H552.8L595.163 814H556.741L550.994 796.431ZM542.128 769.01L531.619 736.663L521.11 769.01H542.128ZM648.928 815.149C635.026 815.149 623.532 811.92 614.446 805.462C605.47 798.894 600.599 789.316 599.833 776.727H638.583C639.131 783.405 642.086 786.743 647.45 786.743C649.42 786.743 651.062 786.305 652.376 785.43C653.799 784.444 654.511 782.967 654.511 780.996C654.511 778.26 653.033 776.07 650.077 774.428C647.122 772.677 642.524 770.707 636.285 768.517C628.841 765.89 622.656 763.318 617.73 760.8C612.914 758.282 608.754 754.615 605.251 749.799C601.748 744.982 600.052 738.798 600.161 731.244C600.161 723.691 602.077 717.288 605.908 712.033C609.849 706.67 615.158 702.619 621.835 699.883C628.622 697.146 636.23 695.778 644.659 695.778C658.889 695.778 670.164 699.062 678.483 705.63C686.912 712.197 691.346 721.447 691.783 733.379H652.54C652.431 730.095 651.61 727.742 650.077 726.318C648.545 724.895 646.684 724.184 644.495 724.184C642.962 724.184 641.703 724.731 640.718 725.826C639.733 726.811 639.24 728.234 639.24 730.095C639.24 732.722 640.663 734.911 643.509 736.663C646.465 738.305 651.117 740.33 657.466 742.738C664.8 745.475 670.821 748.102 675.528 750.62C680.344 753.137 684.504 756.64 688.007 761.128C691.51 765.616 693.261 771.254 693.261 778.041C693.261 785.156 691.51 791.56 688.007 797.252C684.504 802.835 679.414 807.213 672.737 810.388C666.059 813.562 658.123 815.149 648.928 815.149ZM817.723 697.748L776.017 778.698V814H739.565V778.698L697.859 697.748H739.565L758.119 738.962L776.674 697.748H817.723Z" fill="black"/>
</g>
<g opacity="0.8">
<path d="M135.769 866.803V883.017C135.769 884.793 136.232 886.157 137.158 887.108C138.083 888.033 139.384 888.496 141.061 888.496C142.762 888.496 144.076 888.033 145.001 887.108C145.927 886.157 146.39 884.793 146.39 883.017V866.803H151.682V882.979C151.682 885.206 151.194 887.095 150.218 888.646C149.267 890.173 147.979 891.324 146.353 892.099C144.751 892.875 142.962 893.263 140.986 893.263C139.034 893.263 137.258 892.875 135.656 892.099C134.08 891.324 132.829 890.173 131.903 888.646C130.977 887.095 130.515 885.206 130.515 882.979V866.803H135.769ZM162.013 875.21C162.688 874.26 163.614 873.471 164.79 872.846C165.991 872.195 167.355 871.87 168.881 871.87C170.658 871.87 172.259 872.308 173.685 873.184C175.136 874.059 176.275 875.31 177.1 876.937C177.951 878.538 178.376 880.402 178.376 882.529C178.376 884.656 177.951 886.545 177.1 888.196C176.275 889.822 175.136 891.086 173.685 891.987C172.259 892.887 170.658 893.338 168.881 893.338C167.355 893.338 166.004 893.025 164.828 892.4C163.677 891.774 162.739 890.986 162.013 890.035V902.908H156.759V872.208H162.013V875.21ZM173.009 882.529C173.009 881.278 172.747 880.202 172.221 879.301C171.721 878.375 171.045 877.675 170.195 877.199C169.369 876.724 168.468 876.486 167.492 876.486C166.542 876.486 165.641 876.737 164.79 877.237C163.965 877.712 163.289 878.413 162.764 879.339C162.263 880.265 162.013 881.353 162.013 882.604C162.013 883.855 162.263 884.943 162.764 885.869C163.289 886.795 163.965 887.508 164.79 888.008C165.641 888.484 166.542 888.721 167.492 888.721C168.468 888.721 169.369 888.471 170.195 887.971C171.045 887.47 171.721 886.757 172.221 885.832C172.747 884.906 173.009 883.805 173.009 882.529ZM190.339 871.87C191.89 871.87 193.254 872.183 194.43 872.808C195.606 873.409 196.531 874.197 197.207 875.173V872.208H202.499V893.15C202.499 895.077 202.111 896.791 201.335 898.292C200.56 899.818 199.396 901.019 197.845 901.895C196.294 902.796 194.417 903.246 192.215 903.246C189.263 903.246 186.836 902.558 184.934 901.182C183.058 899.806 181.994 897.929 181.744 895.552H186.961C187.236 896.503 187.824 897.253 188.725 897.804C189.651 898.379 190.764 898.667 192.065 898.667C193.591 898.667 194.83 898.204 195.781 897.279C196.732 896.378 197.207 895.002 197.207 893.15V889.922C196.531 890.898 195.593 891.711 194.392 892.362C193.216 893.013 191.865 893.338 190.339 893.338C188.587 893.338 186.986 892.887 185.535 891.987C184.084 891.086 182.933 889.822 182.082 888.196C181.256 886.545 180.843 884.656 180.843 882.529C180.843 880.427 181.256 878.563 182.082 876.937C182.933 875.31 184.071 874.059 185.497 873.184C186.948 872.308 188.562 871.87 190.339 871.87ZM197.207 882.604C197.207 881.328 196.957 880.24 196.456 879.339C195.956 878.413 195.28 877.712 194.43 877.237C193.579 876.737 192.666 876.486 191.69 876.486C190.714 876.486 189.813 876.724 188.988 877.199C188.162 877.675 187.486 878.375 186.961 879.301C186.461 880.202 186.21 881.278 186.21 882.529C186.21 883.78 186.461 884.881 186.961 885.832C187.486 886.757 188.162 887.47 188.988 887.971C189.838 888.471 190.739 888.721 191.69 888.721C192.666 888.721 193.579 888.484 194.43 888.008C195.28 887.508 195.956 886.807 196.456 885.907C196.957 884.981 197.207 883.88 197.207 882.604ZM212.885 875.436C213.56 874.335 214.436 873.471 215.512 872.846C216.613 872.22 217.864 871.908 219.265 871.908V877.425H217.876C216.225 877.425 214.974 877.813 214.123 878.588C213.298 879.364 212.885 880.715 212.885 882.641V893H207.631V872.208H212.885V875.436ZM221.453 882.529C221.453 880.427 221.866 878.563 222.692 876.937C223.542 875.31 224.681 874.059 226.107 873.184C227.558 872.308 229.172 871.87 230.948 871.87C232.5 871.87 233.851 872.183 235.002 872.808C236.178 873.434 237.116 874.222 237.817 875.173V872.208H243.108V893H237.817V889.96C237.141 890.936 236.203 891.749 235.002 892.4C233.826 893.025 232.462 893.338 230.911 893.338C229.159 893.338 227.558 892.887 226.107 891.987C224.681 891.086 223.542 889.822 222.692 888.196C221.866 886.545 221.453 884.656 221.453 882.529ZM237.817 882.604C237.817 881.328 237.566 880.24 237.066 879.339C236.565 878.413 235.89 877.712 235.039 877.237C234.189 876.737 233.275 876.486 232.299 876.486C231.324 876.486 230.423 876.724 229.597 877.199C228.772 877.675 228.096 878.375 227.571 879.301C227.07 880.202 226.82 881.278 226.82 882.529C226.82 883.78 227.07 884.881 227.571 885.832C228.096 886.757 228.772 887.47 229.597 887.971C230.448 888.471 231.349 888.721 232.299 888.721C233.275 888.721 234.189 888.484 235.039 888.008C235.89 887.508 236.565 886.807 237.066 885.907C237.566 884.981 237.817 883.88 237.817 882.604ZM246.889 882.529C246.889 880.427 247.302 878.563 248.128 876.937C248.978 875.31 250.129 874.059 251.58 873.184C253.032 872.308 254.645 871.87 256.422 871.87C257.773 871.87 259.062 872.17 260.288 872.771C261.514 873.346 262.489 874.122 263.215 875.098V865.227H268.544V893H263.215V889.922C262.564 890.948 261.651 891.774 260.475 892.4C259.299 893.025 257.936 893.338 256.384 893.338C254.633 893.338 253.032 892.887 251.58 891.987C250.129 891.086 248.978 889.822 248.128 888.196C247.302 886.545 246.889 884.656 246.889 882.529ZM263.252 882.604C263.252 881.328 263.002 880.24 262.502 879.339C262.001 878.413 261.326 877.712 260.475 877.237C259.624 876.737 258.711 876.486 257.735 876.486C256.76 876.486 255.859 876.724 255.033 877.199C254.208 877.675 253.532 878.375 253.007 879.301C252.506 880.202 252.256 881.278 252.256 882.529C252.256 883.78 252.506 884.881 253.007 885.832C253.532 886.757 254.208 887.47 255.033 887.971C255.884 888.471 256.785 888.721 257.735 888.721C258.711 888.721 259.624 888.484 260.475 888.008C261.326 887.508 262.001 886.807 262.502 885.907C263.002 884.981 263.252 883.88 263.252 882.604ZM293.004 882.154C293.004 882.904 292.954 883.58 292.854 884.18H277.654C277.779 885.681 278.305 886.857 279.231 887.708C280.156 888.559 281.295 888.984 282.646 888.984C284.598 888.984 285.986 888.146 286.812 886.47H292.479C291.879 888.471 290.728 890.123 289.026 891.424C287.325 892.7 285.236 893.338 282.759 893.338C280.757 893.338 278.955 892.9 277.354 892.024C275.778 891.123 274.539 889.86 273.639 888.234C272.763 886.607 272.325 884.731 272.325 882.604C272.325 880.452 272.763 878.563 273.639 876.937C274.514 875.31 275.74 874.059 277.317 873.184C278.893 872.308 280.707 871.87 282.759 871.87C284.735 871.87 286.499 872.295 288.05 873.146C289.627 873.997 290.84 875.21 291.691 876.787C292.567 878.338 293.004 880.127 293.004 882.154ZM287.563 880.652C287.537 879.301 287.05 878.225 286.099 877.425C285.148 876.599 283.985 876.186 282.608 876.186C281.307 876.186 280.206 876.586 279.306 877.387C278.43 878.163 277.892 879.251 277.692 880.652H287.563Z" fill="black"/>
<path d="M325.674 872.208L312.801 902.833H307.209L311.712 892.475L303.381 872.208H309.273L314.64 886.732L320.082 872.208H325.674ZM337.739 893.338C335.737 893.338 333.936 892.9 332.335 892.024C330.733 891.123 329.47 889.86 328.544 888.234C327.643 886.607 327.193 884.731 327.193 882.604C327.193 880.477 327.656 878.601 328.581 876.974C329.532 875.348 330.821 874.097 332.447 873.221C334.073 872.32 335.887 871.87 337.889 871.87C339.891 871.87 341.705 872.32 343.331 873.221C344.957 874.097 346.233 875.348 347.159 876.974C348.11 878.601 348.585 880.477 348.585 882.604C348.585 884.731 348.097 886.607 347.122 888.234C346.171 889.86 344.87 891.123 343.218 892.024C341.592 892.9 339.766 893.338 337.739 893.338ZM337.739 888.759C338.69 888.759 339.578 888.534 340.404 888.083C341.254 887.608 341.93 886.907 342.43 885.982C342.931 885.056 343.181 883.93 343.181 882.604C343.181 880.627 342.656 879.114 341.605 878.063C340.579 876.987 339.315 876.449 337.814 876.449C336.313 876.449 335.049 876.987 334.023 878.063C333.023 879.114 332.522 880.627 332.522 882.604C332.522 884.581 333.01 886.107 333.986 887.183C334.987 888.234 336.238 888.759 337.739 888.759ZM372.068 872.208V893H366.776V890.373C366.101 891.274 365.213 891.987 364.112 892.512C363.036 893.013 361.86 893.263 360.584 893.263C358.957 893.263 357.519 892.925 356.268 892.249C355.017 891.549 354.028 890.535 353.303 889.209C352.602 887.858 352.252 886.257 352.252 884.405V872.208H357.506V883.655C357.506 885.306 357.919 886.582 358.745 887.483C359.57 888.359 360.696 888.797 362.123 888.797C363.574 888.797 364.712 888.359 365.538 887.483C366.364 886.582 366.776 885.306 366.776 883.655V872.208H372.068ZM382.507 875.436C383.182 874.335 384.058 873.471 385.134 872.846C386.235 872.22 387.486 871.908 388.887 871.908V877.425H387.498C385.847 877.425 384.596 877.813 383.745 878.588C382.92 879.364 382.507 880.715 382.507 882.641V893H377.253V872.208H382.507V875.436ZM409.326 893.338C407.624 893.338 406.098 893.038 404.747 892.437C403.396 891.812 402.32 890.973 401.519 889.922C400.744 888.872 400.318 887.708 400.243 886.432H405.535C405.635 887.233 406.023 887.896 406.698 888.421C407.399 888.947 408.262 889.209 409.288 889.209C410.289 889.209 411.065 889.009 411.615 888.609C412.19 888.209 412.478 887.696 412.478 887.07C412.478 886.395 412.128 885.894 411.427 885.569C410.752 885.219 409.663 884.843 408.162 884.443C406.611 884.068 405.335 883.68 404.334 883.28C403.358 882.879 402.507 882.266 401.782 881.44C401.081 880.615 400.731 879.501 400.731 878.1C400.731 876.949 401.056 875.898 401.707 874.948C402.382 873.997 403.333 873.246 404.559 872.696C405.81 872.145 407.274 871.87 408.95 871.87C411.427 871.87 413.404 872.496 414.88 873.747C416.356 874.973 417.17 876.637 417.32 878.738H412.291C412.215 877.913 411.865 877.262 411.24 876.787C410.639 876.286 409.826 876.036 408.8 876.036C407.849 876.036 407.111 876.211 406.586 876.561C406.085 876.912 405.835 877.4 405.835 878.025C405.835 878.726 406.186 879.264 406.886 879.639C407.587 879.989 408.675 880.352 410.151 880.727C411.653 881.103 412.891 881.491 413.867 881.891C414.843 882.291 415.681 882.917 416.381 883.767C417.107 884.593 417.482 885.694 417.507 887.07C417.507 888.271 417.17 889.347 416.494 890.298C415.843 891.249 414.893 891.999 413.642 892.55C412.416 893.075 410.977 893.338 409.326 893.338ZM427.938 876.524V886.582C427.938 887.283 428.101 887.796 428.426 888.121C428.776 888.421 429.352 888.571 430.152 888.571H432.592V893H429.289C424.86 893 422.646 890.848 422.646 886.545V876.524H420.169V872.208H422.646V867.066H427.938V872.208H432.592V876.524H427.938ZM441.625 875.436C442.301 874.335 443.177 873.471 444.252 872.846C445.353 872.22 446.604 871.908 448.006 871.908V877.425H446.617C444.966 877.425 443.715 877.813 442.864 878.588C442.038 879.364 441.625 880.715 441.625 882.641V893H436.371V872.208H441.625V875.436ZM470.873 882.154C470.873 882.904 470.823 883.58 470.723 884.18H455.523C455.648 885.681 456.173 886.857 457.099 887.708C458.025 888.559 459.163 888.984 460.514 888.984C462.466 888.984 463.855 888.146 464.68 886.47H470.348C469.747 888.471 468.596 890.123 466.895 891.424C465.193 892.7 463.104 893.338 460.627 893.338C458.625 893.338 456.824 892.9 455.223 892.024C453.646 891.123 452.408 889.86 451.507 888.234C450.631 886.607 450.193 884.731 450.193 882.604C450.193 880.452 450.631 878.563 451.507 876.937C452.383 875.31 453.609 874.059 455.185 873.184C456.761 872.308 458.575 871.87 460.627 871.87C462.604 871.87 464.368 872.295 465.919 873.146C467.495 873.997 468.709 875.21 469.559 876.787C470.435 878.338 470.873 880.127 470.873 882.154ZM465.431 880.652C465.406 879.301 464.918 878.225 463.967 877.425C463.017 876.599 461.853 876.186 460.477 876.186C459.176 876.186 458.075 876.586 457.174 877.387C456.298 878.163 455.761 879.251 455.56 880.652H465.431ZM473.357 882.529C473.357 880.427 473.77 878.563 474.596 876.937C475.446 875.31 476.585 874.059 478.011 873.184C479.462 872.308 481.076 871.87 482.852 871.87C484.404 871.87 485.755 872.183 486.906 872.808C488.082 873.434 489.02 874.222 489.721 875.173V872.208H495.012V893H489.721V889.96C489.045 890.936 488.107 891.749 486.906 892.4C485.73 893.025 484.366 893.338 482.815 893.338C481.063 893.338 479.462 892.887 478.011 891.987C476.585 891.086 475.446 889.822 474.596 888.196C473.77 886.545 473.357 884.656 473.357 882.529ZM489.721 882.604C489.721 881.328 489.47 880.24 488.97 879.339C488.47 878.413 487.794 877.712 486.943 877.237C486.093 876.737 485.179 876.486 484.204 876.486C483.228 876.486 482.327 876.724 481.501 877.199C480.676 877.675 480 878.375 479.475 879.301C478.974 880.202 478.724 881.278 478.724 882.529C478.724 883.78 478.974 884.881 479.475 885.832C480 886.757 480.676 887.47 481.501 887.971C482.352 888.471 483.253 888.721 484.204 888.721C485.179 888.721 486.093 888.484 486.943 888.008C487.794 887.508 488.47 886.807 488.97 885.907C489.47 884.981 489.721 883.88 489.721 882.604ZM525.965 871.908C528.517 871.908 530.569 872.696 532.12 874.272C533.697 875.823 534.485 878 534.485 880.802V893H529.231V881.516C529.231 879.889 528.818 878.651 527.992 877.8C527.166 876.924 526.04 876.486 524.614 876.486C523.188 876.486 522.05 876.924 521.199 877.8C520.373 878.651 519.96 879.889 519.96 881.516V893H514.706V881.516C514.706 879.889 514.293 878.651 513.468 877.8C512.642 876.924 511.516 876.486 510.09 876.486C508.639 876.486 507.488 876.924 506.637 877.8C505.811 878.651 505.398 879.889 505.398 881.516V893H500.144V872.208H505.398V874.722C506.074 873.847 506.937 873.159 507.988 872.658C509.064 872.158 510.24 871.908 511.516 871.908C513.142 871.908 514.594 872.258 515.87 872.959C517.146 873.634 518.134 874.61 518.835 875.886C519.51 874.685 520.486 873.722 521.762 872.996C523.063 872.27 524.464 871.908 525.965 871.908ZM542.136 869.731C541.21 869.731 540.434 869.443 539.809 868.868C539.208 868.267 538.908 867.529 538.908 866.653C538.908 865.778 539.208 865.052 539.809 864.477C540.434 863.876 541.21 863.576 542.136 863.576C543.061 863.576 543.824 863.876 544.425 864.477C545.051 865.052 545.363 865.778 545.363 866.653C545.363 867.529 545.051 868.267 544.425 868.868C543.824 869.443 543.061 869.731 542.136 869.731ZM544.725 872.208V893H539.471V872.208H544.725ZM561.439 871.908C563.916 871.908 565.917 872.696 567.443 874.272C568.97 875.823 569.733 878 569.733 880.802V893H564.479V881.516C564.479 879.864 564.066 878.601 563.24 877.725C562.414 876.824 561.288 876.374 559.862 876.374C558.411 876.374 557.26 876.824 556.409 877.725C555.584 878.601 555.171 879.864 555.171 881.516V893H549.917V872.208H555.171V874.798C555.871 873.897 556.76 873.196 557.836 872.696C558.936 872.17 560.137 871.908 561.439 871.908ZM582.874 871.87C584.425 871.87 585.789 872.183 586.964 872.808C588.14 873.409 589.066 874.197 589.742 875.173V872.208H595.034V893.15C595.034 895.077 594.646 896.791 593.87 898.292C593.095 899.818 591.931 901.019 590.38 901.895C588.829 902.796 586.952 903.246 584.75 903.246C581.798 903.246 579.371 902.558 577.469 901.182C575.593 899.806 574.529 897.929 574.279 895.552H579.496C579.771 896.503 580.359 897.253 581.26 897.804C582.186 898.379 583.299 898.667 584.6 898.667C586.126 898.667 587.365 898.204 588.316 897.279C589.266 896.378 589.742 895.002 589.742 893.15V889.922C589.066 890.898 588.128 891.711 586.927 892.362C585.751 893.013 584.4 893.338 582.874 893.338C581.122 893.338 579.521 892.887 578.07 891.987C576.618 891.086 575.468 889.822 574.617 888.196C573.791 886.545 573.378 884.656 573.378 882.529C573.378 880.427 573.791 878.563 574.617 876.937C575.468 875.31 576.606 874.059 578.032 873.184C579.483 872.308 581.097 871.87 582.874 871.87ZM589.742 882.604C589.742 881.328 589.492 880.24 588.991 879.339C588.491 878.413 587.815 877.712 586.964 877.237C586.114 876.737 585.201 876.486 584.225 876.486C583.249 876.486 582.348 876.724 581.523 877.199C580.697 877.675 580.021 878.375 579.496 879.301C578.995 880.202 578.745 881.278 578.745 882.529C578.745 883.78 578.995 884.881 579.496 885.832C580.021 886.757 580.697 887.47 581.523 887.971C582.373 888.471 583.274 888.721 584.225 888.721C585.201 888.721 586.114 888.484 586.964 888.008C587.815 887.508 588.491 886.807 588.991 885.907C589.492 884.981 589.742 883.88 589.742 882.604ZM628.437 882.154C628.437 882.904 628.387 883.58 628.287 884.18H613.087C613.212 885.681 613.737 886.857 614.663 887.708C615.589 888.559 616.727 888.984 618.078 888.984C620.03 888.984 621.418 888.146 622.244 886.47H627.911C627.311 888.471 626.16 890.123 624.458 891.424C622.757 892.7 620.668 893.338 618.191 893.338C616.189 893.338 614.388 892.9 612.786 892.024C611.21 891.123 609.972 889.86 609.071 888.234C608.195 886.607 607.757 884.731 607.757 882.604C607.757 880.452 608.195 878.563 609.071 876.937C609.946 875.31 611.173 874.059 612.749 873.184C614.325 872.308 616.139 871.87 618.191 871.87C620.167 871.87 621.931 872.295 623.483 873.146C625.059 873.997 626.272 875.21 627.123 876.787C627.999 878.338 628.437 880.127 628.437 882.154ZM622.995 880.652C622.97 879.301 622.482 878.225 621.531 877.425C620.58 876.599 619.417 876.186 618.041 876.186C616.74 876.186 615.639 876.586 614.738 877.387C613.862 878.163 613.324 879.251 613.124 880.652H622.995ZM643.756 893L639.478 886.545L635.687 893H630.058L636.851 882.566L629.982 872.208H635.912L640.153 878.626L643.982 872.208H649.611L642.781 882.566L649.686 893H643.756ZM657.794 875.21C658.47 874.26 659.396 873.471 660.572 872.846C661.773 872.195 663.136 871.87 664.662 871.87C666.439 871.87 668.04 872.308 669.466 873.184C670.918 874.059 672.056 875.31 672.882 876.937C673.732 878.538 674.158 880.402 674.158 882.529C674.158 884.656 673.732 886.545 672.882 888.196C672.056 889.822 670.918 891.086 669.466 891.987C668.04 892.887 666.439 893.338 664.662 893.338C663.136 893.338 661.785 893.025 660.609 892.4C659.458 891.774 658.52 890.986 657.794 890.035V902.908H652.54V872.208H657.794V875.21ZM668.791 882.529C668.791 881.278 668.528 880.202 668.003 879.301C667.502 878.375 666.827 877.675 665.976 877.199C665.15 876.724 664.25 876.486 663.274 876.486C662.323 876.486 661.422 876.737 660.572 877.237C659.746 877.712 659.07 878.413 658.545 879.339C658.045 880.265 657.794 881.353 657.794 882.604C657.794 883.855 658.045 884.943 658.545 885.869C659.07 886.795 659.746 887.508 660.572 888.008C661.422 888.484 662.323 888.721 663.274 888.721C664.25 888.721 665.15 888.471 665.976 887.971C666.827 887.47 667.502 886.757 668.003 885.832C668.528 884.906 668.791 883.805 668.791 882.529ZM697.304 882.154C697.304 882.904 697.254 883.58 697.154 884.18H681.954C682.079 885.681 682.605 886.857 683.531 887.708C684.456 888.559 685.595 888.984 686.946 888.984C688.897 888.984 690.286 888.146 691.112 886.47H696.779C696.178 888.471 695.028 890.123 693.326 891.424C691.625 892.7 689.535 893.338 687.058 893.338C685.057 893.338 683.255 892.9 681.654 892.024C680.078 891.123 678.839 889.86 677.938 888.234C677.063 886.607 676.625 884.731 676.625 882.604C676.625 880.452 677.063 878.563 677.938 876.937C678.814 875.31 680.04 874.059 681.616 873.184C683.193 872.308 685.007 871.87 687.058 871.87C689.035 871.87 690.799 872.295 692.35 873.146C693.927 873.997 695.14 875.21 695.991 876.787C696.867 878.338 697.304 880.127 697.304 882.154ZM691.862 880.652C691.837 879.301 691.349 878.225 690.399 877.425C689.448 876.599 688.284 876.186 686.908 876.186C685.607 876.186 684.506 876.586 683.606 877.387C682.73 878.163 682.192 879.251 681.992 880.652H691.862ZM706.394 875.436C707.069 874.335 707.945 873.471 709.021 872.846C710.122 872.22 711.373 871.908 712.774 871.908V877.425H711.385C709.734 877.425 708.483 877.813 707.632 878.588C706.807 879.364 706.394 880.715 706.394 882.641V893H701.14V872.208H706.394V875.436ZM718.978 869.731C718.052 869.731 717.276 869.443 716.651 868.868C716.05 868.267 715.75 867.529 715.75 866.653C715.75 865.778 716.05 865.052 716.651 864.477C717.276 863.876 718.052 863.576 718.978 863.576C719.904 863.576 720.667 863.876 721.267 864.477C721.893 865.052 722.206 865.778 722.206 866.653C722.206 867.529 721.893 868.267 721.267 868.868C720.667 869.443 719.904 869.731 718.978 869.731ZM721.568 872.208V893H716.313V872.208H721.568ZM746.087 882.154C746.087 882.904 746.037 883.58 745.937 884.18H730.737C730.862 885.681 731.388 886.857 732.313 887.708C733.239 888.559 734.378 888.984 735.729 888.984C737.68 888.984 739.069 888.146 739.895 886.47H745.562C744.961 888.471 743.81 890.123 742.109 891.424C740.408 892.7 738.318 893.338 735.841 893.338C733.84 893.338 732.038 892.9 730.437 892.024C728.861 891.123 727.622 889.86 726.721 888.234C725.846 886.607 725.408 884.731 725.408 882.604C725.408 880.452 725.846 878.563 726.721 876.937C727.597 875.31 728.823 874.059 730.399 873.184C731.976 872.308 733.79 871.87 735.841 871.87C737.818 871.87 739.582 872.295 741.133 873.146C742.709 873.997 743.923 875.21 744.774 876.787C745.649 878.338 746.087 880.127 746.087 882.154ZM740.645 880.652C740.62 879.301 740.132 878.225 739.182 877.425C738.231 876.599 737.067 876.186 735.691 876.186C734.39 876.186 733.289 876.586 732.388 877.387C731.513 878.163 730.975 879.251 730.775 880.652H740.645ZM761.444 871.908C763.921 871.908 765.923 872.696 767.449 874.272C768.976 875.823 769.739 878 769.739 880.802V893H764.484V881.516C764.484 879.864 764.072 878.601 763.246 877.725C762.42 876.824 761.294 876.374 759.868 876.374C758.417 876.374 757.266 876.824 756.415 877.725C755.59 878.601 755.177 879.864 755.177 881.516V893H749.922V872.208H755.177V874.798C755.877 873.897 756.766 873.196 757.841 872.696C758.942 872.17 760.143 871.908 761.444 871.908ZM773.384 882.604C773.384 880.452 773.822 878.576 774.698 876.974C775.573 875.348 776.787 874.097 778.338 873.221C779.89 872.32 781.666 871.87 783.668 871.87C786.245 871.87 788.371 872.521 790.048 873.822C791.749 875.098 792.888 876.899 793.463 879.226H787.796C787.496 878.325 786.983 877.625 786.257 877.124C785.557 876.599 784.681 876.336 783.63 876.336C782.129 876.336 780.94 876.887 780.065 877.988C779.189 879.064 778.751 880.602 778.751 882.604C778.751 884.581 779.189 886.119 780.065 887.22C780.94 888.296 782.129 888.834 783.63 888.834C785.757 888.834 787.145 887.883 787.796 885.982H793.463C792.888 888.234 791.749 890.023 790.048 891.349C788.346 892.675 786.22 893.338 783.668 893.338C781.666 893.338 779.89 892.9 778.338 892.024C776.787 891.123 775.573 889.872 774.698 888.271C773.822 886.645 773.384 884.756 773.384 882.604ZM816.641 882.154C816.641 882.904 816.591 883.58 816.491 884.18H801.291C801.416 885.681 801.941 886.857 802.867 887.708C803.793 888.559 804.931 888.984 806.282 888.984C808.234 888.984 809.623 888.146 810.448 886.47H816.115C815.515 888.471 814.364 890.123 812.663 891.424C810.961 892.7 808.872 893.338 806.395 893.338C804.393 893.338 802.592 892.9 800.99 892.024C799.414 891.123 798.176 889.86 797.275 888.234C796.399 886.607 795.961 884.731 795.961 882.604C795.961 880.452 796.399 878.563 797.275 876.937C798.151 875.31 799.377 874.059 800.953 873.184C802.529 872.308 804.343 871.87 806.395 871.87C808.372 871.87 810.136 872.295 811.687 873.146C813.263 873.997 814.477 875.21 815.327 876.787C816.203 878.338 816.641 880.127 816.641 882.154ZM811.199 880.652C811.174 879.301 810.686 878.225 809.735 877.425C808.784 876.599 807.621 876.186 806.245 876.186C804.944 876.186 803.843 876.586 802.942 877.387C802.066 878.163 801.528 879.251 801.328 880.652H811.199ZM159.413 914.208L153.333 935H147.666L143.876 920.476L140.085 935H134.38L128.263 914.208H133.592L137.27 930.046L141.248 914.208H146.803L150.706 930.008L154.384 914.208H159.413ZM164.921 911.731C163.995 911.731 163.22 911.443 162.594 910.868C161.994 910.267 161.693 909.529 161.693 908.653C161.693 907.778 161.994 907.052 162.594 906.477C163.22 905.876 163.995 905.576 164.921 905.576C165.847 905.576 166.61 905.876 167.21 906.477C167.836 907.052 168.149 907.778 168.149 908.653C168.149 909.529 167.836 910.267 167.21 910.868C166.61 911.443 165.847 911.731 164.921 911.731ZM167.511 914.208V935H162.256V914.208H167.511ZM178.819 918.524V928.582C178.819 929.283 178.982 929.796 179.307 930.121C179.658 930.421 180.233 930.571 181.034 930.571H183.473V935H180.171C175.742 935 173.528 932.848 173.528 928.545V918.524H171.051V914.208H173.528V909.066H178.819V914.208H183.473V918.524H178.819ZM198.962 913.908C200.538 913.908 201.94 914.258 203.166 914.959C204.392 915.634 205.342 916.647 206.018 917.999C206.718 919.325 207.069 920.926 207.069 922.802V935H201.814V923.516C201.814 921.864 201.402 920.601 200.576 919.725C199.75 918.824 198.624 918.374 197.198 918.374C195.747 918.374 194.596 918.824 193.745 919.725C192.92 920.601 192.507 921.864 192.507 923.516V935H187.252V907.227H192.507V916.798C193.182 915.897 194.083 915.196 195.209 914.696C196.335 914.17 197.586 913.908 198.962 913.908ZM240.637 914.208V935H235.345V932.373C234.669 933.274 233.781 933.987 232.68 934.512C231.604 935.013 230.429 935.263 229.152 935.263C227.526 935.263 226.087 934.925 224.836 934.249C223.585 933.549 222.597 932.535 221.871 931.209C221.171 929.858 220.821 928.257 220.821 926.405V914.208H226.075V925.655C226.075 927.306 226.488 928.582 227.313 929.483C228.139 930.359 229.265 930.797 230.691 930.797C232.142 930.797 233.281 930.359 234.107 929.483C234.932 928.582 235.345 927.306 235.345 925.655V914.208H240.637ZM253.778 935.338C252.076 935.338 250.55 935.038 249.199 934.437C247.848 933.812 246.772 932.973 245.971 931.922C245.196 930.872 244.77 929.708 244.695 928.432H249.987C250.087 929.233 250.475 929.896 251.151 930.421C251.851 930.947 252.714 931.209 253.74 931.209C254.741 931.209 255.517 931.009 256.067 930.609C256.643 930.209 256.93 929.696 256.93 929.07C256.93 928.395 256.58 927.894 255.879 927.569C255.204 927.219 254.115 926.843 252.614 926.443C251.063 926.068 249.787 925.68 248.786 925.28C247.81 924.879 246.96 924.266 246.234 923.44C245.533 922.615 245.183 921.501 245.183 920.1C245.183 918.949 245.508 917.898 246.159 916.948C246.834 915.997 247.785 915.246 249.011 914.696C250.262 914.145 251.726 913.87 253.402 913.87C255.879 913.87 257.856 914.496 259.332 915.747C260.808 916.973 261.622 918.637 261.772 920.738H256.743C256.668 919.913 256.317 919.262 255.692 918.787C255.091 918.286 254.278 918.036 253.252 918.036C252.301 918.036 251.563 918.211 251.038 918.561C250.538 918.912 250.287 919.4 250.287 920.025C250.287 920.726 250.638 921.264 251.338 921.639C252.039 921.989 253.127 922.352 254.603 922.727C256.105 923.103 257.343 923.491 258.319 923.891C259.295 924.291 260.133 924.917 260.834 925.767C261.559 926.593 261.934 927.694 261.959 929.07C261.959 930.271 261.622 931.347 260.946 932.298C260.296 933.249 259.345 933.999 258.094 934.55C256.868 935.075 255.429 935.338 253.778 935.338ZM285.601 924.154C285.601 924.904 285.551 925.58 285.451 926.18H270.251C270.376 927.681 270.901 928.857 271.827 929.708C272.753 930.559 273.891 930.984 275.242 930.984C277.194 930.984 278.583 930.146 279.408 928.47H285.076C284.475 930.471 283.324 932.123 281.623 933.424C279.921 934.7 277.832 935.338 275.355 935.338C273.353 935.338 271.552 934.9 269.951 934.024C268.374 933.123 267.136 931.86 266.235 930.234C265.359 928.607 264.921 926.731 264.921 924.604C264.921 922.452 265.359 920.563 266.235 918.937C267.111 917.31 268.337 916.059 269.913 915.184C271.489 914.308 273.303 913.87 275.355 913.87C277.332 913.87 279.096 914.295 280.647 915.146C282.223 915.997 283.437 917.21 284.287 918.787C285.163 920.338 285.601 922.127 285.601 924.154ZM280.159 922.652C280.134 921.301 279.646 920.225 278.695 919.425C277.744 918.599 276.581 918.186 275.205 918.186C273.904 918.186 272.803 918.586 271.902 919.387C271.026 920.163 270.489 921.251 270.288 922.652H280.159ZM294.69 917.436C295.366 916.335 296.242 915.471 297.318 914.846C298.419 914.22 299.67 913.908 301.071 913.908V919.425H299.682C298.031 919.425 296.78 919.813 295.929 920.588C295.103 921.364 294.69 922.715 294.69 924.641V935H289.436V914.208H294.69V917.436ZM320.598 919.387V923.816H304.685V919.387H320.598ZM336.023 918.524H332.383V935H327.054V918.524H324.689V914.208H327.054V913.157C327.054 910.605 327.779 908.728 329.23 907.527C330.681 906.326 332.871 905.763 335.798 905.839V910.267C334.522 910.242 333.634 910.455 333.134 910.905C332.633 911.356 332.383 912.169 332.383 913.345V914.208H336.023V918.524ZM344.683 917.436C345.358 916.335 346.234 915.471 347.31 914.846C348.411 914.22 349.662 913.908 351.063 913.908V919.425H349.674C348.023 919.425 346.772 919.813 345.921 920.588C345.096 921.364 344.683 922.715 344.683 924.641V935H339.428V914.208H344.683V917.436ZM357.267 911.731C356.341 911.731 355.565 911.443 354.94 910.868C354.339 910.267 354.039 909.529 354.039 908.653C354.039 907.778 354.339 907.052 354.94 906.477C355.565 905.876 356.341 905.576 357.267 905.576C358.193 905.576 358.956 905.876 359.556 906.477C360.182 907.052 360.494 907.778 360.494 908.653C360.494 909.529 360.182 910.267 359.556 910.868C358.956 911.443 358.193 911.731 357.267 911.731ZM359.856 914.208V935H354.602V914.208H359.856ZM384.376 924.154C384.376 924.904 384.326 925.58 384.226 926.18H369.026C369.151 927.681 369.676 928.857 370.602 929.708C371.528 930.559 372.666 930.984 374.018 930.984C375.969 930.984 377.358 930.146 378.183 928.47H383.851C383.25 930.471 382.099 932.123 380.398 933.424C378.696 934.7 376.607 935.338 374.13 935.338C372.128 935.338 370.327 934.9 368.726 934.024C367.149 933.123 365.911 931.86 365.01 930.234C364.134 928.607 363.697 926.731 363.697 924.604C363.697 922.452 364.134 920.563 365.01 918.937C365.886 917.31 367.112 916.059 368.688 915.184C370.264 914.308 372.078 913.87 374.13 913.87C376.107 913.87 377.871 914.295 379.422 915.146C380.998 915.997 382.212 917.21 383.062 918.787C383.938 920.338 384.376 922.127 384.376 924.154ZM378.934 922.652C378.909 921.301 378.421 920.225 377.47 919.425C376.52 918.599 375.356 918.186 373.98 918.186C372.679 918.186 371.578 918.586 370.677 919.387C369.802 920.163 369.264 921.251 369.063 922.652H378.934ZM399.733 913.908C402.21 913.908 404.212 914.696 405.738 916.272C407.264 917.823 408.028 920 408.028 922.802V935H402.773V923.516C402.773 921.864 402.36 920.601 401.535 919.725C400.709 918.824 399.583 918.374 398.157 918.374C396.706 918.374 395.555 918.824 394.704 919.725C393.878 920.601 393.466 921.864 393.466 923.516V935H388.211V914.208H393.466V916.798C394.166 915.897 395.054 915.196 396.13 914.696C397.231 914.17 398.432 913.908 399.733 913.908ZM411.673 924.529C411.673 922.427 412.086 920.563 412.912 918.937C413.762 917.31 414.913 916.059 416.364 915.184C417.816 914.308 419.429 913.87 421.206 913.87C422.557 913.87 423.846 914.17 425.072 914.771C426.298 915.346 427.273 916.122 427.999 917.098V907.227H433.328V935H427.999V931.922C427.348 932.948 426.435 933.774 425.259 934.4C424.083 935.025 422.72 935.338 421.168 935.338C419.417 935.338 417.816 934.887 416.364 933.987C414.913 933.086 413.762 931.822 412.912 930.196C412.086 928.545 411.673 926.656 411.673 924.529ZM428.036 924.604C428.036 923.328 427.786 922.24 427.286 921.339C426.785 920.413 426.11 919.712 425.259 919.237C424.409 918.737 423.495 918.486 422.519 918.486C421.544 918.486 420.643 918.724 419.817 919.199C418.992 919.675 418.316 920.375 417.791 921.301C417.29 922.202 417.04 923.278 417.04 924.529C417.04 925.78 417.29 926.881 417.791 927.832C418.316 928.757 418.992 929.47 419.817 929.971C420.668 930.471 421.569 930.721 422.519 930.721C423.495 930.721 424.409 930.484 425.259 930.008C426.11 929.508 426.785 928.807 427.286 927.907C427.786 926.981 428.036 925.88 428.036 924.604ZM443.714 907.227V935H438.46V907.227H443.714ZM468.797 914.208L455.924 944.833H450.332L454.836 934.475L446.504 914.208H452.396L457.763 928.732L463.205 914.208H468.797ZM489.805 935.338C487.803 935.338 486.002 934.9 484.401 934.024C482.799 933.123 481.536 931.86 480.61 930.234C479.709 928.607 479.259 926.731 479.259 924.604C479.259 922.477 479.722 920.601 480.647 918.974C481.598 917.348 482.887 916.097 484.513 915.221C486.139 914.32 487.953 913.87 489.955 913.87C491.957 913.87 493.771 914.32 495.397 915.221C497.023 916.097 498.299 917.348 499.225 918.974C500.176 920.601 500.651 922.477 500.651 924.604C500.651 926.731 500.164 928.607 499.188 930.234C498.237 931.86 496.936 933.123 495.284 934.024C493.658 934.9 491.832 935.338 489.805 935.338ZM489.805 930.759C490.756 930.759 491.644 930.534 492.47 930.083C493.32 929.608 493.996 928.907 494.496 927.982C494.997 927.056 495.247 925.93 495.247 924.604C495.247 922.627 494.722 921.114 493.671 920.063C492.645 918.987 491.381 918.449 489.88 918.449C488.379 918.449 487.115 918.987 486.089 920.063C485.089 921.114 484.588 922.627 484.588 924.604C484.588 926.581 485.076 928.107 486.052 929.183C487.053 930.234 488.304 930.759 489.805 930.759ZM509.76 917.21C510.436 916.26 511.361 915.471 512.537 914.846C513.738 914.195 515.102 913.87 516.628 913.87C518.405 913.87 520.006 914.308 521.432 915.184C522.883 916.059 524.022 917.31 524.847 918.937C525.698 920.538 526.123 922.402 526.123 924.529C526.123 926.656 525.698 928.545 524.847 930.196C524.022 931.822 522.883 933.086 521.432 933.987C520.006 934.887 518.405 935.338 516.628 935.338C515.102 935.338 513.751 935.025 512.575 934.4C511.424 933.774 510.486 932.986 509.76 932.035V944.908H504.506V914.208H509.76V917.21ZM520.757 924.529C520.757 923.278 520.494 922.202 519.968 921.301C519.468 920.375 518.792 919.675 517.942 919.199C517.116 918.724 516.215 918.486 515.239 918.486C514.289 918.486 513.388 918.737 512.537 919.237C511.712 919.712 511.036 920.413 510.511 921.339C510.01 922.265 509.76 923.353 509.76 924.604C509.76 925.855 510.01 926.943 510.511 927.869C511.036 928.795 511.712 929.508 512.537 930.008C513.388 930.484 514.289 930.721 515.239 930.721C516.215 930.721 517.116 930.471 517.942 929.971C518.792 929.47 519.468 928.757 519.968 927.832C520.494 926.906 520.757 925.805 520.757 924.529ZM536.059 918.524V928.582C536.059 929.283 536.222 929.796 536.547 930.121C536.897 930.421 537.473 930.571 538.273 930.571H540.713V935H537.41C532.982 935 530.767 932.848 530.767 928.545V918.524H528.29V914.208H530.767V909.066H536.059V914.208H540.713V918.524H536.059ZM547.157 911.731C546.231 911.731 545.455 911.443 544.83 910.868C544.229 910.267 543.929 909.529 543.929 908.653C543.929 907.778 544.229 907.052 544.83 906.477C545.455 905.876 546.231 905.576 547.157 905.576C548.083 905.576 548.846 905.876 549.446 906.477C550.072 907.052 550.385 907.778 550.385 908.653C550.385 909.529 550.072 910.267 549.446 910.868C548.846 911.443 548.083 911.731 547.157 911.731ZM549.746 914.208V935H544.492V914.208H549.746ZM564.17 935.338C562.169 935.338 560.367 934.9 558.766 934.024C557.165 933.123 555.901 931.86 554.975 930.234C554.075 928.607 553.624 926.731 553.624 924.604C553.624 922.477 554.087 920.601 555.013 918.974C555.964 917.348 557.252 916.097 558.878 915.221C560.505 914.32 562.319 913.87 564.32 913.87C566.322 913.87 568.136 914.32 569.762 915.221C571.389 916.097 572.665 917.348 573.591 918.974C574.541 920.601 575.017 922.477 575.017 924.604C575.017 926.731 574.529 928.607 573.553 930.234C572.602 931.86 571.301 933.123 569.65 934.024C568.024 934.9 566.197 935.338 564.17 935.338ZM564.17 930.759C565.121 930.759 566.009 930.534 566.835 930.083C567.686 929.608 568.361 928.907 568.862 927.982C569.362 927.056 569.612 925.93 569.612 924.604C569.612 922.627 569.087 921.114 568.036 920.063C567.01 918.987 565.747 918.449 564.245 918.449C562.744 918.449 561.481 918.987 560.455 920.063C559.454 921.114 558.954 922.627 558.954 924.604C558.954 926.581 559.441 928.107 560.417 929.183C561.418 930.234 562.669 930.759 564.17 930.759ZM590.393 913.908C592.87 913.908 594.872 914.696 596.398 916.272C597.924 917.823 598.687 920 598.687 922.802V935H593.433V923.516C593.433 921.864 593.02 920.601 592.194 919.725C591.369 918.824 590.243 918.374 588.817 918.374C587.366 918.374 586.215 918.824 585.364 919.725C584.538 920.601 584.125 921.864 584.125 923.516V935H578.871V914.208H584.125V916.798C584.826 915.897 585.714 915.196 586.79 914.696C587.891 914.17 589.092 913.908 590.393 913.908ZM611.64 935.338C609.939 935.338 608.413 935.038 607.062 934.437C605.711 933.812 604.635 932.973 603.834 931.922C603.058 930.872 602.633 929.708 602.558 928.432H607.85C607.95 929.233 608.338 929.896 609.013 930.421C609.714 930.947 610.577 931.209 611.603 931.209C612.604 931.209 613.379 931.009 613.93 930.609C614.505 930.209 614.793 929.696 614.793 929.07C614.793 928.395 614.443 927.894 613.742 927.569C613.067 927.219 611.978 926.843 610.477 926.443C608.926 926.068 607.65 925.68 606.649 925.28C605.673 924.879 604.822 924.266 604.097 923.44C603.396 922.615 603.046 921.501 603.046 920.1C603.046 918.949 603.371 917.898 604.022 916.948C604.697 915.997 605.648 915.246 606.874 914.696C608.125 914.145 609.589 913.87 611.265 913.87C613.742 913.87 615.719 914.496 617.195 915.747C618.671 916.973 619.484 918.637 619.635 920.738H614.605C614.53 919.913 614.18 919.262 613.555 918.787C612.954 918.286 612.141 918.036 611.115 918.036C610.164 918.036 609.426 918.211 608.901 918.561C608.4 918.912 608.15 919.4 608.15 920.025C608.15 920.726 608.5 921.264 609.201 921.639C609.902 921.989 610.99 922.352 612.466 922.727C613.967 923.103 615.206 923.491 616.182 923.891C617.158 924.291 617.996 924.917 618.696 925.767C619.422 926.593 619.797 927.694 619.822 929.07C619.822 930.271 619.484 931.347 618.809 932.298C618.158 933.249 617.208 933.999 615.957 934.55C614.731 935.075 613.292 935.338 611.64 935.338ZM639.196 918.524V928.582C639.196 929.283 639.358 929.796 639.684 930.121C640.034 930.421 640.609 930.571 641.41 930.571H643.85V935H640.547C636.118 935 633.904 932.848 633.904 928.545V918.524H631.427V914.208H633.904V909.066H639.196V914.208H643.85V918.524H639.196ZM656.861 935.338C654.86 935.338 653.058 934.9 651.457 934.024C649.856 933.123 648.592 931.86 647.666 930.234C646.766 928.607 646.315 926.731 646.315 924.604C646.315 922.477 646.778 920.601 647.704 918.974C648.655 917.348 649.943 916.097 651.569 915.221C653.196 914.32 655.01 913.87 657.011 913.87C659.013 913.87 660.827 914.32 662.453 915.221C664.08 916.097 665.356 917.348 666.282 918.974C667.232 920.601 667.708 922.477 667.708 924.604C667.708 926.731 667.22 928.607 666.244 930.234C665.293 931.86 663.992 933.123 662.341 934.024C660.715 934.9 658.888 935.338 656.861 935.338ZM656.861 930.759C657.812 930.759 658.7 930.534 659.526 930.083C660.377 929.608 661.052 928.907 661.553 927.982C662.053 927.056 662.303 925.93 662.303 924.604C662.303 922.627 661.778 921.114 660.727 920.063C659.701 918.987 658.438 918.449 656.936 918.449C655.435 918.449 654.172 918.987 653.146 920.063C652.145 921.114 651.645 922.627 651.645 924.604C651.645 926.581 652.132 928.107 653.108 929.183C654.109 930.234 655.36 930.759 656.861 930.759ZM129.239 966.529C129.239 964.427 129.651 962.563 130.477 960.937C131.328 959.31 132.466 958.059 133.892 957.184C135.344 956.308 136.957 955.87 138.734 955.87C140.285 955.87 141.636 956.183 142.787 956.808C143.963 957.434 144.901 958.222 145.602 959.173V956.208H150.894V977H145.602V973.96C144.926 974.936 143.988 975.749 142.787 976.4C141.611 977.025 140.248 977.338 138.696 977.338C136.945 977.338 135.344 976.887 133.892 975.987C132.466 975.086 131.328 973.822 130.477 972.196C129.651 970.545 129.239 968.656 129.239 966.529ZM145.602 966.604C145.602 965.328 145.352 964.24 144.851 963.339C144.351 962.413 143.675 961.712 142.825 961.237C141.974 960.737 141.061 960.486 140.085 960.486C139.109 960.486 138.208 960.724 137.383 961.199C136.557 961.675 135.881 962.375 135.356 963.301C134.856 964.202 134.605 965.278 134.605 966.529C134.605 967.78 134.856 968.881 135.356 969.832C135.881 970.757 136.557 971.47 137.383 971.971C138.233 972.471 139.134 972.721 140.085 972.721C141.061 972.721 141.974 972.484 142.825 972.008C143.675 971.508 144.351 970.807 144.851 969.907C145.352 968.981 145.602 967.88 145.602 966.604ZM175.654 956.208V977H170.362V974.373C169.687 975.274 168.799 975.987 167.698 976.512C166.622 977.013 165.446 977.263 164.17 977.263C162.543 977.263 161.105 976.925 159.854 976.249C158.603 975.549 157.614 974.535 156.889 973.209C156.188 971.858 155.838 970.257 155.838 968.405V956.208H161.092V967.655C161.092 969.306 161.505 970.582 162.331 971.483C163.156 972.359 164.282 972.797 165.709 972.797C167.16 972.797 168.298 972.359 169.124 971.483C169.95 970.582 170.362 969.306 170.362 967.655V956.208H175.654ZM186.956 960.524V970.582C186.956 971.283 187.119 971.796 187.444 972.121C187.794 972.421 188.37 972.571 189.17 972.571H191.61V977H188.307C183.878 977 181.664 974.848 181.664 970.545V960.524H179.187V956.208H181.664V951.066H186.956V956.208H191.61V960.524H186.956ZM204.622 977.338C202.62 977.338 200.818 976.9 199.217 976.024C197.616 975.123 196.352 973.86 195.427 972.234C194.526 970.607 194.075 968.731 194.075 966.604C194.075 964.477 194.538 962.601 195.464 960.974C196.415 959.348 197.703 958.097 199.33 957.221C200.956 956.32 202.77 955.87 204.772 955.87C206.773 955.87 208.587 956.32 210.214 957.221C211.84 958.097 213.116 959.348 214.042 960.974C214.993 962.601 215.468 964.477 215.468 966.604C215.468 968.731 214.98 970.607 214.004 972.234C213.054 973.86 211.752 975.123 210.101 976.024C208.475 976.9 206.648 977.338 204.622 977.338ZM204.622 972.759C205.572 972.759 206.461 972.534 207.286 972.083C208.137 971.608 208.813 970.907 209.313 969.982C209.813 969.056 210.064 967.93 210.064 966.604C210.064 964.627 209.538 963.114 208.487 962.063C207.461 960.987 206.198 960.449 204.697 960.449C203.195 960.449 201.932 960.987 200.906 962.063C199.905 963.114 199.405 964.627 199.405 966.604C199.405 968.581 199.893 970.107 200.869 971.183C201.869 972.234 203.12 972.759 204.622 972.759ZM245.144 955.908C247.696 955.908 249.747 956.696 251.299 958.272C252.875 959.823 253.663 962 253.663 964.802V977H248.409V965.516C248.409 963.889 247.996 962.651 247.17 961.8C246.345 960.924 245.219 960.486 243.792 960.486C242.366 960.486 241.228 960.924 240.377 961.8C239.551 962.651 239.139 963.889 239.139 965.516V977H233.884V965.516C233.884 963.889 233.471 962.651 232.646 961.8C231.82 960.924 230.694 960.486 229.268 960.486C227.817 960.486 226.666 960.924 225.815 961.8C224.989 962.651 224.577 963.889 224.577 965.516V977H219.322V956.208H224.577V958.722C225.252 957.847 226.115 957.159 227.166 956.658C228.242 956.158 229.418 955.908 230.694 955.908C232.32 955.908 233.772 956.258 235.048 956.959C236.324 957.634 237.312 958.61 238.013 959.886C238.688 958.685 239.664 957.722 240.94 956.996C242.241 956.27 243.642 955.908 245.144 955.908ZM257.298 966.529C257.298 964.427 257.711 962.563 258.536 960.937C259.387 959.31 260.526 958.059 261.952 957.184C263.403 956.308 265.017 955.87 266.793 955.87C268.345 955.87 269.696 956.183 270.847 956.808C272.023 957.434 272.961 958.222 273.661 959.173V956.208H278.953V977H273.661V973.96C272.986 974.936 272.048 975.749 270.847 976.4C269.671 977.025 268.307 977.338 266.756 977.338C265.004 977.338 263.403 976.887 261.952 975.987C260.526 975.086 259.387 973.822 258.536 972.196C257.711 970.545 257.298 968.656 257.298 966.529ZM273.661 966.604C273.661 965.328 273.411 964.24 272.911 963.339C272.41 962.413 271.735 961.712 270.884 961.237C270.033 960.737 269.12 960.486 268.144 960.486C267.169 960.486 266.268 960.724 265.442 961.199C264.616 961.675 263.941 962.375 263.416 963.301C262.915 964.202 262.665 965.278 262.665 966.529C262.665 967.78 262.915 968.881 263.416 969.832C263.941 970.757 264.616 971.47 265.442 971.971C266.293 972.471 267.194 972.721 268.144 972.721C269.12 972.721 270.033 972.484 270.884 972.008C271.735 971.508 272.41 970.807 272.911 969.907C273.411 968.981 273.661 967.88 273.661 966.604ZM290.203 960.524V970.582C290.203 971.283 290.365 971.796 290.69 972.121C291.041 972.421 291.616 972.571 292.417 972.571H294.856V977H291.554C287.125 977 284.911 974.848 284.911 970.545V960.524H282.434V956.208H284.911V951.066H290.203V956.208H294.856V960.524H290.203ZM317.964 966.154C317.964 966.904 317.914 967.58 317.814 968.18H302.614C302.739 969.681 303.264 970.857 304.19 971.708C305.116 972.559 306.254 972.984 307.605 972.984C309.557 972.984 310.946 972.146 311.771 970.47H317.439C316.838 972.471 315.687 974.123 313.986 975.424C312.284 976.7 310.195 977.338 307.718 977.338C305.716 977.338 303.915 976.9 302.314 976.024C300.737 975.123 299.499 973.86 298.598 972.234C297.722 970.607 297.284 968.731 297.284 966.604C297.284 964.452 297.722 962.563 298.598 960.937C299.474 959.31 300.7 958.059 302.276 957.184C303.852 956.308 305.666 955.87 307.718 955.87C309.695 955.87 311.459 956.295 313.01 957.146C314.586 957.997 315.8 959.21 316.65 960.787C317.526 962.338 317.964 964.127 317.964 966.154ZM312.522 964.652C312.497 963.301 312.009 962.225 311.058 961.425C310.108 960.599 308.944 960.186 307.568 960.186C306.267 960.186 305.166 960.586 304.265 961.387C303.39 962.163 302.852 963.251 302.651 964.652H312.522ZM338.699 977.338C336.997 977.338 335.471 977.038 334.12 976.437C332.769 975.812 331.693 974.973 330.892 973.922C330.117 972.872 329.691 971.708 329.616 970.432H334.908C335.008 971.233 335.396 971.896 336.071 972.421C336.772 972.947 337.635 973.209 338.661 973.209C339.662 973.209 340.438 973.009 340.988 972.609C341.563 972.209 341.851 971.696 341.851 971.07C341.851 970.395 341.501 969.894 340.8 969.569C340.125 969.219 339.036 968.843 337.535 968.443C335.984 968.068 334.708 967.68 333.707 967.28C332.731 966.879 331.881 966.266 331.155 965.44C330.454 964.615 330.104 963.501 330.104 962.1C330.104 960.949 330.429 959.898 331.08 958.948C331.755 957.997 332.706 957.246 333.932 956.696C335.183 956.145 336.647 955.87 338.323 955.87C340.8 955.87 342.777 956.496 344.253 957.747C345.729 958.973 346.543 960.637 346.693 962.738H341.664C341.589 961.913 341.238 961.262 340.613 960.787C340.012 960.286 339.199 960.036 338.173 960.036C337.222 960.036 336.484 960.211 335.959 960.561C335.458 960.912 335.208 961.4 335.208 962.025C335.208 962.726 335.559 963.264 336.259 963.639C336.96 963.989 338.048 964.352 339.524 964.727C341.026 965.103 342.264 965.491 343.24 965.891C344.216 966.291 345.054 966.917 345.754 967.767C346.48 968.593 346.855 969.694 346.88 971.07C346.88 972.271 346.543 973.347 345.867 974.298C345.216 975.249 344.266 975.999 343.015 976.55C341.789 977.075 340.35 977.338 338.699 977.338ZM357.311 960.524V970.582C357.311 971.283 357.474 971.796 357.799 972.121C358.149 972.421 358.725 972.571 359.525 972.571H361.965V977H358.662C354.233 977 352.019 974.848 352.019 970.545V960.524H349.542V956.208H352.019V951.066H357.311V956.208H361.965V960.524H357.311ZM370.998 959.436C371.674 958.335 372.55 957.471 373.626 956.846C374.726 956.22 375.977 955.908 377.379 955.908V961.425H375.99C374.339 961.425 373.088 961.813 372.237 962.588C371.411 963.364 370.998 964.715 370.998 966.641V977H365.744V956.208H370.998V959.436ZM400.246 966.154C400.246 966.904 400.196 967.58 400.096 968.18H384.896C385.021 969.681 385.546 970.857 386.472 971.708C387.398 972.559 388.536 972.984 389.888 972.984C391.839 972.984 393.228 972.146 394.053 970.47H399.721C399.12 972.471 397.969 974.123 396.268 975.424C394.566 976.7 392.477 977.338 390 977.338C387.998 977.338 386.197 976.9 384.596 976.024C383.019 975.123 381.781 973.86 380.88 972.234C380.004 970.607 379.567 968.731 379.567 966.604C379.567 964.452 380.004 962.563 380.88 960.937C381.756 959.31 382.982 958.059 384.558 957.184C386.134 956.308 387.948 955.87 390 955.87C391.977 955.87 393.741 956.295 395.292 957.146C396.868 957.997 398.082 959.21 398.932 960.787C399.808 962.338 400.246 964.127 400.246 966.154ZM394.804 964.652C394.779 963.301 394.291 962.225 393.34 961.425C392.39 960.599 391.226 960.186 389.85 960.186C388.549 960.186 387.448 960.586 386.547 961.387C385.672 962.163 385.134 963.251 384.933 964.652H394.804ZM402.73 966.529C402.73 964.427 403.143 962.563 403.969 960.937C404.819 959.31 405.958 958.059 407.384 957.184C408.835 956.308 410.449 955.87 412.225 955.87C413.777 955.87 415.128 956.183 416.279 956.808C417.455 957.434 418.393 958.222 419.094 959.173V956.208H424.385V977H419.094V973.96C418.418 974.936 417.48 975.749 416.279 976.4C415.103 977.025 413.739 977.338 412.188 977.338C410.436 977.338 408.835 976.887 407.384 975.987C405.958 975.086 404.819 973.822 403.969 972.196C403.143 970.545 402.73 968.656 402.73 966.529ZM419.094 966.604C419.094 965.328 418.843 964.24 418.343 963.339C417.843 962.413 417.167 961.712 416.316 961.237C415.466 960.737 414.552 960.486 413.577 960.486C412.601 960.486 411.7 960.724 410.874 961.199C410.049 961.675 409.373 962.375 408.848 963.301C408.347 964.202 408.097 965.278 408.097 966.529C408.097 967.78 408.347 968.881 408.848 969.832C409.373 970.757 410.049 971.47 410.874 971.971C411.725 972.471 412.626 972.721 413.577 972.721C414.552 972.721 415.466 972.484 416.316 972.008C417.167 971.508 417.843 970.807 418.343 969.907C418.843 968.981 419.094 967.88 419.094 966.604ZM455.338 955.908C457.891 955.908 459.942 956.696 461.493 958.272C463.07 959.823 463.858 962 463.858 964.802V977H458.604V965.516C458.604 963.889 458.191 962.651 457.365 961.8C456.539 960.924 455.413 960.486 453.987 960.486C452.561 960.486 451.423 960.924 450.572 961.8C449.746 962.651 449.333 963.889 449.333 965.516V977H444.079V965.516C444.079 963.889 443.666 962.651 442.841 961.8C442.015 960.924 440.889 960.486 439.463 960.486C438.012 960.486 436.861 960.924 436.01 961.8C435.184 962.651 434.772 963.889 434.772 965.516V977H429.517V956.208H434.772V958.722C435.447 957.847 436.31 957.159 437.361 956.658C438.437 956.158 439.613 955.908 440.889 955.908C442.515 955.908 443.967 956.258 445.243 956.959C446.519 957.634 447.507 958.61 448.208 959.886C448.883 958.685 449.859 957.722 451.135 956.996C452.436 956.27 453.837 955.908 455.338 955.908ZM476.801 977.338C475.099 977.338 473.573 977.038 472.222 976.437C470.871 975.812 469.795 974.973 468.994 973.922C468.218 972.872 467.793 971.708 467.718 970.432H473.01C473.11 971.233 473.498 971.896 474.173 972.421C474.874 972.947 475.737 973.209 476.763 973.209C477.764 973.209 478.539 973.009 479.09 972.609C479.665 972.209 479.953 971.696 479.953 971.07C479.953 970.395 479.603 969.894 478.902 969.569C478.227 969.219 477.138 968.843 475.637 968.443C474.086 968.068 472.81 967.68 471.809 967.28C470.833 966.879 469.982 966.266 469.257 965.44C468.556 964.615 468.206 963.501 468.206 962.1C468.206 960.949 468.531 959.898 469.182 958.948C469.857 957.997 470.808 957.246 472.034 956.696C473.285 956.145 474.749 955.87 476.425 955.87C478.902 955.87 480.879 956.496 482.355 957.747C483.831 958.973 484.644 960.637 484.795 962.738H479.765C479.69 961.913 479.34 961.262 478.715 960.787C478.114 960.286 477.301 960.036 476.275 960.036C475.324 960.036 474.586 960.211 474.061 960.561C473.56 960.912 473.31 961.4 473.31 962.025C473.31 962.726 473.66 963.264 474.361 963.639C475.062 963.989 476.15 964.352 477.626 964.727C479.127 965.103 480.366 965.491 481.342 965.891C482.318 966.291 483.156 966.917 483.856 967.767C484.582 968.593 484.957 969.694 484.982 971.07C484.982 972.271 484.644 973.347 483.969 974.298C483.318 975.249 482.368 975.999 481.117 976.55C479.891 977.075 478.452 977.338 476.801 977.338ZM496.088 950.353L495.488 968.48H491.059L490.421 950.353H496.088ZM493.386 977.263C492.435 977.263 491.647 976.975 491.022 976.4C490.421 975.799 490.121 975.061 490.121 974.185C490.121 973.309 490.421 972.584 491.022 972.008C491.647 971.408 492.435 971.108 493.386 971.108C494.312 971.108 495.075 971.408 495.676 972.008C496.276 972.584 496.576 973.309 496.576 974.185C496.576 975.061 496.276 975.799 495.676 976.4C495.075 976.975 494.312 977.263 493.386 977.263Z" fill="white"/>
</g>
<path d="M359.422 571.664L122.326 268.908C118.539 264.073 121.984 257 128.125 257H674.019C676.284 257 678.423 258.042 679.819 259.825L916.916 562.58C920.702 567.415 917.257 574.488 911.116 574.488H365.222C362.957 574.488 360.819 573.447 359.422 571.664Z" fill="#2F9DED"/>
<path d="M380.217 503.957L137.697 194.277C133.824 189.331 137.348 182.097 143.629 182.097H702.009C704.326 182.097 706.513 183.162 707.941 184.986L950.461 494.666C954.334 499.612 950.811 506.846 944.529 506.846H386.149C383.832 506.846 381.645 505.781 380.217 503.957Z" fill="#0088EB"/>
<path d="M139.121 197.312L132.332 189.777C127.965 184.929 131.405 177.199 137.93 177.199H695.167C697.302 177.199 699.336 178.104 700.765 179.69L707.554 187.225C711.922 192.073 708.481 199.803 701.956 199.803H144.719C142.584 199.803 140.55 198.898 139.121 197.312Z" fill="black"/>
<path d="M376.73 430.493L227.738 240.239C223.865 235.294 227.389 228.059 233.67 228.059H579.665C581.981 228.059 584.169 229.124 585.597 230.948L734.589 421.202C738.462 426.147 734.939 433.382 728.657 433.382H382.662C380.346 433.382 378.158 432.317 376.73 430.493Z" fill="white"/>
<path d="M654.087 281.556H757.691M661.245 295.118H712.105M724.726 295.118H777.47M671.041 307.739H698.543M709.657 307.739H787.642M762.965 281.556H767.298" stroke="white" stroke-width="3.7674" stroke-linecap="round"/>
<path d="M609.255 230.696H712.858M616.413 244.259H667.273M679.894 244.259H732.637M626.208 256.879H653.71M664.824 256.879H742.809M718.133 230.696H722.465" stroke="white" stroke-width="3.7674" stroke-linecap="round"/>
<path d="M699.673 336.937H803.276M706.831 350.499H757.691M770.312 350.499H823.055M716.626 363.12H744.128M755.242 363.12H833.227M808.551 336.937H812.883" stroke="white" stroke-width="3.7674" stroke-linecap="round"/>
<path d="M535.732 266.539L520.3 248.832C516.051 243.957 519.514 236.347 525.98 236.347H570.857C573.035 236.347 575.107 237.289 576.538 238.931L591.969 256.638C596.218 261.513 592.756 269.123 586.289 269.123H541.412C539.234 269.123 537.163 268.181 535.732 266.539Z" fill="#CC4141"/>
<path d="M566.472 310.748C586.14 272.845 620.424 269.003 635.107 271.82C695.752 285.752 683.51 347.584 655.339 370.42C587.728 425.226 521.312 352.493 506.288 316.126C518.837 316.126 541.886 358.127 566.472 310.748Z" fill="white"/>
<path d="M678.388 317.151C681.12 338.407 670.449 382.098 605.911 386.81" stroke="black" stroke-width="5.12204" stroke-linecap="round" stroke-linejoin="round"/>
<path d="M695.807 182.809C637.416 245.503 607.784 287.25 634.525 311.26C673.602 346.346 724.439 284.533 771.357 242.737C830.005 190.492 845.447 91.9206 796.199 81.1364C761.113 73.4534 768.796 104.442 695.807 182.809Z" fill="black"/>
<path d="M537.31 369.998C501.456 386.593 447.418 321.424 424.881 286.765C414.765 272.167 427.698 263.459 441.016 278.057C454.333 292.655 474.565 295.216 480.712 294.704C486.858 294.192 500.175 320.058 511.956 319.034C523.737 318.009 500.175 286.765 511.956 282.923C523.737 279.082 582.128 349.254 537.31 369.998Z" fill="black"/>
<path d="M583.12 392.445C539.165 397.627 496.814 320.48 502.448 312.285C508.082 304.089 534.717 329.546 545.985 327.907C560.071 325.858 567.754 299.736 574.925 296.662C582.096 293.589 580.303 298.967 577.23 304.089C574.156 309.211 571.083 318.175 592.852 316.894C614.621 315.614 572.875 344.644 571.083 356.59C567.242 382.2 641.765 385.53 583.12 392.445Z" fill="black"/>
<path d="M534.459 365.554C529.593 360.603 519.041 349.676 515.763 345.578M510.129 338.407C509.532 337.212 507.927 333.951 506.288 330.468" stroke="white" stroke-width="5.12204" stroke-linecap="round" stroke-linejoin="round"/>
<path d="M578.765 295.382C581.753 290.26 591.314 279.094 605.655 275.406" stroke="black" stroke-width="5.12204" stroke-linecap="round" stroke-linejoin="round"/>
<path d="M614.363 272.07C619.655 271.302 632.085 270.226 639.461 272.07" stroke="black" stroke-width="5.12204" stroke-linecap="round" stroke-linejoin="round"/>
<path d="M270.001 362.932L371.909 493.661C380.951 502.891 380.009 506.658 403.367 506.658H655.029" stroke="white" stroke-width="3.7674"/>
<path d="M867.322 387.796L914.315 448.962C914.575 449.301 915.062 449.359 915.381 449.075C919.129 445.738 925.308 438.13 924.022 430.556M938.526 461.261C934.158 456.619 926.471 456.368 922.215 456.922C921.659 456.994 921.414 457.639 921.759 458.082L944.742 487.632C951.775 495.104 958.531 509.408 929.296 506.846H724.726M943.424 464.84L954.169 472.899C954.684 473.285 955.421 472.891 955.399 472.248C955.184 466.029 955.768 455.386 959.623 452.219" stroke="white" stroke-width="3.7674" stroke-linecap="round"/>
<path d="M121.268 639L128.672 654.864L144.536 662.268L128.672 669.672L121.268 685.536L113.864 669.672L97.9999 662.268L113.864 654.864L121.268 639Z" fill="#0081DE"/>
<path d="M833.268 804L840.672 819.864L856.536 827.268L840.672 834.672L833.268 850.536L825.864 834.672L810 827.268L825.864 819.864L833.268 804Z" fill="black"/>
</g>
<defs>
<filter id="filter0_d_455_97" x="128.597" y="695.778" width="230.488" height="127.372" filterUnits="userSpaceOnUse" color-interpolation-filters="sRGB">
<feFlood flood-opacity="0" result="BackgroundImageFix"/>
<feColorMatrix in="SourceAlpha" type="matrix" values="0 0 0 0 0 0 0 0 0 0 0 0 0 0 0 0 0 0 127 0" result="hardAlpha"/>
<feOffset dy="4"/>
<feGaussianBlur stdDeviation="2"/>
<feComposite in2="hardAlpha" operator="out"/>
<feColorMatrix type="matrix" values="0 0 0 0 0 0 0 0 0 0 0 0 0 0 0 0 0 0 0.25 0"/>
<feBlend mode="normal" in2="BackgroundImageFix" result="effect1_dropShadow_455_97"/>
<feBlend mode="normal" in="SourceGraphic" in2="effect1_dropShadow_455_97" result="shape"/>
</filter>
<filter id="filter1_d_455_97" x="381.21" y="695.778" width="440.513" height="127.372" filterUnits="userSpaceOnUse" color-interpolation-filters="sRGB">
<feFlood flood-opacity="0" result="BackgroundImageFix"/>
<feColorMatrix in="SourceAlpha" type="matrix" values="0 0 0 0 0 0 0 0 0 0 0 0 0 0 0 0 0 0 127 0" result="hardAlpha"/>
<feOffset dy="4"/>
<feGaussianBlur stdDeviation="2"/>
<feComposite in2="hardAlpha" operator="out"/>
<feColorMatrix type="matrix" values="0 0 0 0 0 0 0 0 0 0 0 0 0 0 0 0 0 0 0.25 0"/>
<feBlend mode="normal" in2="BackgroundImageFix" result="effect1_dropShadow_455_97"/>
<feBlend mode="normal" in="SourceGraphic" in2="effect1_dropShadow_455_97" result="shape"/>
</filter>
<linearGradient id="paint0_linear_455_97" x1="540" y1="0" x2="540" y2="1080" gradientUnits="userSpaceOnUse">
<stop stop-color="#0088EB"/>
<stop offset="0.9999" stop-color="#0088EB"/>
<stop offset="1" stop-color="#0088EB" stop-opacity="0"/>
</linearGradient>
<clipPath id="clip0_455_97">
<rect width="1080" height="1080" fill="white"/>
</clipPath>
</defs>
</svg>
