<svg width="1080" height="1080" viewBox="0 0 1080 1080" fill="none" xmlns="http://www.w3.org/2000/svg">
<g clip-path="url(#clip0_453_5)">
<rect width="1080" height="1080" fill="url(#paint0_linear_453_5)"/>
<path d="M531.5 297C539.5 179 620.833 199.833 660.5 225C710 254 820.6 324.2 867 373C925 434 845 482.5 754 534.5C663 586.5 521.5 444.5 531.5 297Z" fill="#2F9DED"/>
<path d="M1023.4 439.673C972.957 546.649 904.804 497.615 877.032 459.727C841.5 414.686 764.076 309.017 738.644 246.666C706.854 168.727 799.026 152.707 902.716 137.434C1006.41 122.161 1086.45 305.954 1023.4 439.673Z" fill="#2F9DED" fill-opacity="0.5"/>
<path d="M1110.07 864L1153.37 956.774L1246.14 1000.07L1153.37 1043.37L1110.07 1136.14L1066.77 1043.37L974 1000.07L1066.77 956.774L1110.07 864Z" fill="#0081DE"/>
<path d="M1110.07 864L1153.37 956.774L1246.14 1000.07L1153.37 1043.37L1110.07 1136.14L1066.77 1043.37L974 1000.07L1066.77 956.774L1110.07 864Z" fill="#0081DE"/>
<path d="M730 129C651.419 112.272 613.874 201 607.5 249C583.286 431.355 655.331 480.5 726.5 480.5C768.285 480.5 834.242 443.695 874.214 424.188C914.186 404.681 917.6 410.371 963.547 388.077C1009.49 365.784 997.545 283.924 963.547 279.744C929.549 275.564 915.893 261.746 874.214 227.725C832.535 193.704 794.5 142.731 730 129Z" fill="white"/>
<path d="M890.782 302.396C891.308 391.253 863.5 412 839 441.5C862.5 435.5 884.924 416.743 936.841 401.029C1004.09 380.674 997.508 328.279 988.296 303.275C993.981 350.619 969.039 332.258 955.66 317.599C898.072 254.072 888.413 280.994 890.782 302.396Z" fill="#E4E4E4"/>
<path d="M815.741 305.45C821.363 168.82 744.489 136.94 705.349 138.078C670.943 145.036 617.845 172.979 613.111 305.45C607.549 461.088 714.426 471.051 724.528 466.623C734.631 462.196 809.109 466.623 815.741 305.45Z" fill="#0088EB"/>
<path d="M815.792 314.648C820.432 185.688 756.983 155.598 724.679 156.672C696.281 163.24 652.457 189.614 648.549 314.648C643.959 461.547 716.341 471.424 724.679 467.245C733.017 463.065 810.318 466.772 815.792 314.648Z" fill="#0078CF"/>
<path d="M815.853 323.08C819.327 229.079 771.825 207.146 747.64 207.929C726.38 212.716 693.57 231.94 690.645 323.08C687.208 430.158 741.397 437.357 747.64 434.31C753.882 431.264 811.755 433.966 815.853 323.08Z" fill="#006BB8"/>
<path d="M933 336.5C926.238 318.315 927.118 309.695 924.965 303.073C924.707 302.278 925.902 301.299 926.599 301.761C942.949 312.607 947.815 301.604 948.475 294.737C948.537 294.095 949.313 293.754 949.794 294.184C960.941 304.141 967.439 314.446 972.716 310.206C972.987 309.987 973.374 309.933 973.649 310.147C975.413 311.517 978.065 315.44 980 334.5C980.974 344.099 973.676 357.843 957.943 366.752C957.677 366.902 957.34 366.873 957.102 366.682C943.486 355.761 937.228 347.87 933 336.5Z" fill="#0078CF"/>
<path d="M969 339.5C969.179 339.5 969.345 339.404 969.434 339.248C969.523 339.093 969.522 338.901 969.431 338.747L963.077 327.938C963.987 327.165 964.63 326.064 964.63 324.558C964.63 322.496 963.431 321.211 962.015 320.469C960.618 319.737 958.967 319.5 957.87 319.5C956.686 319.5 955.358 320.046 954.328 320.921C953.294 321.801 952.5 323.069 952.5 324.558C952.5 325.124 952.732 325.624 953.058 326.047C953.381 326.468 953.815 326.839 954.269 327.162C954.961 327.655 955.769 328.082 956.409 328.421C956.464 328.45 956.518 328.478 956.57 328.506L953.22 338.846C953.171 338.998 953.197 339.165 953.291 339.294C953.385 339.423 953.536 339.5 953.696 339.5H969Z" fill="white" stroke="white" stroke-linejoin="round"/>
<path d="M959.975 389.253C936.629 356.989 900.342 394.453 884.945 417.487C884.887 417.573 884.844 417.659 884.809 417.757C874.663 446.518 855.52 511.069 859.724 540.371C864.988 577.06 932.63 591.007 918.023 555.575C906.393 527.365 941.068 434.178 960.123 390.475C960.298 390.073 960.232 389.608 959.975 389.253Z" fill="#0088EB"/>
<path d="M866.745 482C856.271 500.833 843.703 543.5 877.218 563.5C919.113 588.5 921.732 562 918.589 554.5" stroke="white" stroke-width="3" stroke-linecap="round"/>
<path d="M867.357 476.92C873.042 439.728 861.435 435.288 856.697 435.079C869.068 424.022 891.176 405.929 897.098 400.777C903.02 395.626 917.891 392.862 917.365 418.996C916.838 445.131 860.251 523.409 867.357 476.92Z" fill="#0065AE"/>
<path d="M931.314 466.24C937.455 443.958 952.659 396.807 961.187 389.972C971.847 381.428 987.112 378.538 993.429 342.98" stroke="black" stroke-width="3.01553" stroke-linecap="round"/>
<path d="M928.682 474.909C923.067 493.212 912.469 532.958 914.996 545.523" stroke="black" stroke-width="3.01553" stroke-linecap="round"/>
<path d="M771.559 264.199C779.088 273.428 798.629 291.397 816.56 289.438L811.56 353.478C802.962 352.128 780.75 352.282 757.042 362.652C755.256 363.67 753.571 364.437 752.076 364.968C753.736 364.145 755.393 363.374 757.042 362.652C768.133 356.333 783.091 340.359 780.18 311.287C780.295 300.551 778.732 276.103 771.559 264.199Z" fill="#E4E4E4"/>
<path d="M890.387 216.704C890.527 217.992 890.561 219.54 890.427 221.218C891.437 232.788 899.604 235.853 905.414 235.936C906.161 235.836 906.942 235.789 907.758 235.803C907.045 235.898 906.254 235.949 905.414 235.936C894.967 237.344 891.042 249.315 890.387 255.529C890.387 243.568 879.42 240.075 873.937 239.823C886.083 238.19 889.843 228.484 890.427 221.218C890.306 219.837 890.288 218.336 890.387 216.704Z" fill="#0088EB" stroke="#0088EB" stroke-width="3.01553" stroke-linecap="round" stroke-linejoin="round"/>
<path d="M880.245 232.553C879.722 233.195 879.818 234.14 880.461 234.663C881.103 235.186 882.048 235.09 882.571 234.447L880.245 232.553ZM889.263 218L890.679 217.506L888.816 212.168L887.788 217.727L889.263 218ZM906.545 232L907.487 233.167C907.982 232.767 908.171 232.099 907.959 231.5C907.747 230.901 907.181 230.5 906.545 230.5V232ZM894.06 244.305C893.953 245.127 894.531 245.88 895.353 245.987C896.174 246.095 896.927 245.516 897.035 244.695L894.06 244.305ZM882.571 234.447C885.005 231.459 889.09 227.192 890.738 218.273L887.788 217.727C886.295 225.808 882.698 229.541 880.245 232.553L882.571 234.447ZM887.847 218.494C889.125 222.155 890.396 226 893.083 228.843C895.87 231.792 899.986 233.5 906.545 233.5V230.5C900.536 230.5 897.319 228.958 895.263 226.782C893.106 224.5 892.02 221.345 890.679 217.506L887.847 218.494ZM905.602 230.833C905.084 231.252 904.259 231.797 903.121 232.602C902.032 233.372 900.755 234.314 899.514 235.416C897.072 237.583 894.551 240.558 894.06 244.305L897.035 244.695C897.382 242.042 899.225 239.683 901.505 237.659C902.625 236.665 903.798 235.797 904.853 235.051C905.859 234.34 906.871 233.665 907.487 233.167L905.602 230.833Z" fill="white"/>
<path d="M703.05 301.432C704.838 270.869 722.128 247.743 747.908 250.619C777.813 253.956 782.282 298.609 780.391 318.558C779.291 330.164 771.454 368.618 741.033 366.924C718.346 365.661 700.816 339.636 703.05 301.432Z" fill="white"/>
<path d="M758.5 362.153C770.3 354.995 782.354 338.182 780.593 298.394C779.767 279.736 774.488 267.854 767.5 260.549C804.5 292.597 803.5 353.5 791 354C781 354.4 765.167 359.602 758.5 362.153Z" fill="black"/>
<path d="M733.653 251.186C742.542 248.925 756.963 249.532 767.5 260.549M743.489 367.23C747.462 366.748 752.953 365.517 758.5 362.153M758.5 362.153C770.3 354.995 782.354 338.182 780.593 298.394C779.767 279.736 774.488 267.854 767.5 260.549M758.5 362.153C765.167 359.602 781 354.4 791 354C803.5 353.5 804.5 292.597 767.5 260.549" stroke="black" stroke-width="3.01553" stroke-linecap="round"/>
<path d="M716.018 137.798C752.34 140.227 823.219 178.281 816.165 311.065C809.111 443.849 746.461 470.26 716.018 466.868C695.752 467.035 649.219 452.971 625.215 395.375M618.24 371.125C613.766 340.509 609.634 265.857 628.9 212.181C648.166 158.504 686.321 140.227 702.99 137.798" stroke="black" stroke-width="3.01553" stroke-linecap="round"/>
<g filter="url(#filter0_d_453_5)">
<path d="M281.691 567.748L255.091 684H209.773L196.309 617.993L182.844 684H137.526L110.926 567.748H150.169L160.678 640.98L176.441 567.748H216.177L231.94 640.98L242.448 567.748H281.691ZM402.313 567.748V684H365.861V638.681H331.215V684H294.763V567.748H331.215V609.618H365.861V567.748H402.313ZM475.361 685.149C464.415 685.149 454.344 682.577 445.149 677.432C436.063 672.287 428.839 665.172 423.475 656.086C418.111 647.001 415.429 636.766 415.429 625.381C415.429 613.997 418.111 603.762 423.475 594.677C428.839 585.591 436.063 578.53 445.149 573.495C454.344 568.35 464.415 565.778 475.361 565.778C486.308 565.778 496.324 568.35 505.409 573.495C514.495 578.53 521.665 585.591 526.919 594.677C532.283 603.762 534.965 613.997 534.965 625.381C534.965 636.766 532.283 647.001 526.919 656.086C521.665 665.172 514.44 672.287 505.245 677.432C496.16 682.577 486.198 685.149 475.361 685.149ZM475.361 651.16C482.586 651.16 488.169 648.862 492.109 644.264C496.05 639.557 498.02 633.263 498.02 625.381C498.02 617.391 496.05 611.096 492.109 606.499C488.169 601.792 482.586 599.438 475.361 599.438C468.027 599.438 462.39 601.792 458.449 606.499C454.508 611.096 452.538 617.391 452.538 625.381C452.538 633.263 454.508 639.557 458.449 644.264C462.39 648.862 468.027 651.16 475.361 651.16Z" fill="black"/>
</g>
<g filter="url(#filter1_d_453_5)">
<path d="M281.691 708.748L255.091 825H209.773L196.309 758.993L182.844 825H137.526L110.926 708.748H150.169L160.678 781.98L176.441 708.748H216.177L231.94 781.98L242.448 708.748H281.691ZM331.215 737.811V752.096H367.338V779.517H331.215V795.937H372.264V825H294.763V708.748H372.264V737.811H331.215ZM488.448 807.431H449.698L443.951 825H405.693L448.22 708.748H490.254L532.617 825H494.195L488.448 807.431ZM479.582 780.01L469.073 747.663L458.564 780.01H479.582ZM599.353 825L577.515 783.294H577.351V825H540.899V708.748H595.084C604.498 708.748 612.544 710.445 619.221 713.838C625.899 717.122 630.879 721.665 634.163 727.467C637.557 733.159 639.253 739.617 639.253 746.842C639.253 754.614 637.064 761.51 632.686 767.531C628.416 773.551 622.232 777.875 614.131 780.502L639.418 825H599.353ZM577.351 758.993H591.8C595.303 758.993 597.93 758.226 599.682 756.694C601.433 755.052 602.309 752.534 602.309 749.141C602.309 746.076 601.379 743.667 599.518 741.916C597.766 740.165 595.194 739.289 591.8 739.289H577.351V758.993ZM687.351 737.811V752.096H723.474V779.517H687.351V795.937H728.4V825H650.899V708.748H728.4V737.811H687.351ZM760.199 826.314C753.85 826.314 748.76 824.617 744.929 821.223C741.097 817.83 739.182 813.561 739.182 808.416C739.182 803.162 741.097 798.838 744.929 795.444C748.76 791.942 753.85 790.19 760.199 790.19C766.439 790.19 771.474 791.942 775.305 795.444C779.137 798.838 781.052 803.162 781.052 808.416C781.052 813.561 779.137 817.83 775.305 821.223C771.474 824.617 766.439 826.314 760.199 826.314ZM760.199 761.291C753.85 761.291 748.76 759.595 744.929 756.201C741.097 752.808 739.182 748.539 739.182 743.394C739.182 738.139 741.097 733.816 744.929 730.422C748.76 726.919 753.85 725.168 760.199 725.168C766.439 725.168 771.474 726.919 775.305 730.422C779.137 733.816 781.052 738.139 781.052 743.394C781.052 748.539 779.137 752.808 775.305 756.201C771.474 759.595 766.439 761.291 760.199 761.291Z" fill="white"/>
</g>
<g opacity="0.8">
<path d="M113.844 890.878H122.476V895.044H108.59V868.847H113.844V890.878ZM128.48 871.775C127.555 871.775 126.779 871.487 126.153 870.911C125.553 870.311 125.253 869.573 125.253 868.697C125.253 867.821 125.553 867.096 126.153 866.52C126.779 865.92 127.555 865.619 128.48 865.619C129.406 865.619 130.169 865.92 130.77 866.52C131.395 867.096 131.708 867.821 131.708 868.697C131.708 869.573 131.395 870.311 130.77 870.911C130.169 871.487 129.406 871.775 128.48 871.775ZM131.07 874.252V895.044H125.816V874.252H131.07ZM144.931 890.202L150.185 874.252H155.777L148.084 895.044H141.703L134.047 874.252H139.677L144.931 890.202ZM178.057 884.197C178.057 884.948 178.007 885.623 177.907 886.224H162.707C162.832 887.725 163.357 888.901 164.283 889.752C165.209 890.603 166.347 891.028 167.698 891.028C169.65 891.028 171.039 890.19 171.864 888.513H177.532C176.931 890.515 175.78 892.166 174.079 893.467C172.377 894.743 170.288 895.381 167.811 895.381C165.809 895.381 164.008 894.944 162.407 894.068C160.83 893.167 159.592 891.904 158.691 890.277C157.815 888.651 157.377 886.774 157.377 884.648C157.377 882.496 157.815 880.607 158.691 878.98C159.567 877.354 160.793 876.103 162.369 875.227C163.945 874.352 165.759 873.914 167.811 873.914C169.788 873.914 171.552 874.339 173.103 875.19C174.679 876.041 175.893 877.254 176.743 878.83C177.619 880.382 178.057 882.171 178.057 884.197ZM172.615 882.696C172.59 881.345 172.102 880.269 171.151 879.468C170.2 878.643 169.037 878.23 167.661 878.23C166.36 878.23 165.259 878.63 164.358 879.431C163.482 880.206 162.945 881.295 162.744 882.696H172.615ZM190.036 873.914C191.588 873.914 192.951 874.227 194.127 874.852C195.303 875.453 196.229 876.241 196.904 877.217V874.252H202.196V895.194C202.196 897.12 201.809 898.834 201.033 900.336C200.257 901.862 199.094 903.063 197.542 903.939C195.991 904.839 194.115 905.29 191.913 905.29C188.96 905.29 186.533 904.602 184.632 903.225C182.755 901.849 181.692 899.973 181.442 897.596H186.659C186.934 898.547 187.522 899.297 188.422 899.848C189.348 900.423 190.462 900.711 191.763 900.711C193.289 900.711 194.528 900.248 195.478 899.322C196.429 898.421 196.904 897.045 196.904 895.194V891.966C196.229 892.942 195.291 893.755 194.09 894.406C192.914 895.056 191.563 895.381 190.036 895.381C188.285 895.381 186.684 894.931 185.232 894.03C183.781 893.13 182.63 891.866 181.78 890.24C180.954 888.588 180.541 886.699 180.541 884.573C180.541 882.471 180.954 880.607 181.78 878.98C182.63 877.354 183.769 876.103 185.195 875.227C186.646 874.352 188.26 873.914 190.036 873.914ZM196.904 884.648C196.904 883.372 196.654 882.283 196.154 881.382C195.653 880.457 194.978 879.756 194.127 879.281C193.276 878.78 192.363 878.53 191.387 878.53C190.412 878.53 189.511 878.768 188.685 879.243C187.86 879.719 187.184 880.419 186.659 881.345C186.158 882.246 185.908 883.322 185.908 884.573C185.908 885.824 186.158 886.925 186.659 887.875C187.184 888.801 187.86 889.514 188.685 890.015C189.536 890.515 190.437 890.765 191.387 890.765C192.363 890.765 193.276 890.527 194.127 890.052C194.978 889.552 195.653 888.851 196.154 887.95C196.654 887.025 196.904 885.924 196.904 884.648ZM226.957 874.252V895.044H221.665V892.417C220.989 893.317 220.101 894.03 219 894.556C217.924 895.056 216.748 895.306 215.472 895.306C213.846 895.306 212.407 894.969 211.156 894.293C209.905 893.593 208.917 892.579 208.191 891.253C207.491 889.902 207.14 888.301 207.14 886.449V874.252H212.395V885.699C212.395 887.35 212.808 888.626 213.633 889.527C214.459 890.402 215.585 890.84 217.011 890.84C218.462 890.84 219.601 890.402 220.426 889.527C221.252 888.626 221.665 887.35 221.665 885.699V874.252H226.957ZM230.79 884.573C230.79 882.471 231.203 880.607 232.028 878.98C232.879 877.354 234.018 876.103 235.444 875.227C236.895 874.352 238.509 873.914 240.285 873.914C241.836 873.914 243.188 874.227 244.339 874.852C245.514 875.478 246.453 876.266 247.153 877.217V874.252H252.445V895.044H247.153V892.004C246.478 892.98 245.54 893.793 244.339 894.443C243.163 895.069 241.799 895.381 240.248 895.381C238.496 895.381 236.895 894.931 235.444 894.03C234.018 893.13 232.879 891.866 232.028 890.24C231.203 888.588 230.79 886.699 230.79 884.573ZM247.153 884.648C247.153 883.372 246.903 882.283 246.403 881.382C245.902 880.457 245.227 879.756 244.376 879.281C243.525 878.78 242.612 878.53 241.636 878.53C240.66 878.53 239.76 878.768 238.934 879.243C238.108 879.719 237.433 880.419 236.907 881.345C236.407 882.246 236.157 883.322 236.157 884.573C236.157 885.824 236.407 886.925 236.907 887.875C237.433 888.801 238.108 889.514 238.934 890.015C239.785 890.515 240.686 890.765 241.636 890.765C242.612 890.765 243.525 890.527 244.376 890.052C245.227 889.552 245.902 888.851 246.403 887.95C246.903 887.025 247.153 885.924 247.153 884.648ZM262.831 877.479C263.507 876.378 264.383 875.515 265.458 874.89C266.559 874.264 267.81 873.951 269.212 873.951V879.468H267.823C266.172 879.468 264.92 879.856 264.07 880.632C263.244 881.407 262.831 882.759 262.831 884.685V895.044H257.577V874.252H262.831V877.479ZM271.399 884.573C271.399 882.471 271.812 880.607 272.638 878.98C273.489 877.354 274.64 876.103 276.091 875.227C277.542 874.352 279.156 873.914 280.932 873.914C282.283 873.914 283.572 874.214 284.798 874.815C286.024 875.39 287 876.166 287.725 877.141V867.271H293.055V895.044H287.725V891.966C287.075 892.992 286.162 893.818 284.986 894.443C283.81 895.069 282.446 895.381 280.895 895.381C279.143 895.381 277.542 894.931 276.091 894.03C274.64 893.13 273.489 891.866 272.638 890.24C271.812 888.588 271.399 886.699 271.399 884.573ZM287.763 884.648C287.763 883.372 287.513 882.283 287.012 881.382C286.512 880.457 285.836 879.756 284.986 879.281C284.135 878.78 283.222 878.53 282.246 878.53C281.27 878.53 280.369 878.768 279.544 879.243C278.718 879.719 278.042 880.419 277.517 881.345C277.017 882.246 276.766 883.322 276.766 884.573C276.766 885.824 277.017 886.925 277.517 887.875C278.042 888.801 278.718 889.514 279.544 890.015C280.394 890.515 281.295 890.765 282.246 890.765C283.222 890.765 284.135 890.527 284.986 890.052C285.836 889.552 286.512 888.851 287.012 887.95C287.513 887.025 287.763 885.924 287.763 884.648ZM326.758 874.252V895.044H321.466V892.417C320.791 893.317 319.902 894.03 318.802 894.556C317.726 895.056 316.55 895.306 315.274 895.306C313.647 895.306 312.209 894.969 310.958 894.293C309.707 893.593 308.718 892.579 307.993 891.253C307.292 889.902 306.942 888.301 306.942 886.449V874.252H312.196V885.699C312.196 887.35 312.609 888.626 313.435 889.527C314.26 890.402 315.386 890.84 316.812 890.84C318.264 890.84 319.402 890.402 320.228 889.527C321.053 888.626 321.466 887.35 321.466 885.699V874.252H326.758ZM339.899 895.381C338.197 895.381 336.671 895.081 335.32 894.481C333.969 893.855 332.893 893.017 332.092 891.966C331.317 890.915 330.891 889.752 330.816 888.476H336.108C336.208 889.276 336.596 889.94 337.272 890.465C337.972 890.99 338.835 891.253 339.861 891.253C340.862 891.253 341.638 891.053 342.188 890.653C342.764 890.252 343.051 889.739 343.051 889.114C343.051 888.438 342.701 887.938 342.001 887.613C341.325 887.262 340.237 886.887 338.735 886.487C337.184 886.111 335.908 885.724 334.907 885.323C333.931 884.923 333.081 884.31 332.355 883.484C331.655 882.659 331.304 881.545 331.304 880.144C331.304 878.993 331.63 877.942 332.28 876.991C332.956 876.041 333.906 875.29 335.132 874.739C336.383 874.189 337.847 873.914 339.524 873.914C342.001 873.914 343.977 874.539 345.453 875.79C346.93 877.016 347.743 878.68 347.893 880.782H342.864C342.789 879.956 342.438 879.306 341.813 878.83C341.212 878.33 340.399 878.08 339.373 878.08C338.423 878.08 337.685 878.255 337.159 878.605C336.659 878.955 336.408 879.443 336.408 880.069C336.408 880.769 336.759 881.307 337.459 881.683C338.16 882.033 339.248 882.396 340.725 882.771C342.226 883.146 343.464 883.534 344.44 883.935C345.416 884.335 346.254 884.96 346.955 885.811C347.68 886.637 348.056 887.738 348.081 889.114C348.081 890.315 347.743 891.391 347.067 892.341C346.417 893.292 345.466 894.043 344.215 894.593C342.989 895.119 341.55 895.381 339.899 895.381ZM371.722 884.197C371.722 884.948 371.672 885.623 371.572 886.224H356.372C356.497 887.725 357.023 888.901 357.948 889.752C358.874 890.603 360.012 891.028 361.364 891.028C363.315 891.028 364.704 890.19 365.53 888.513H371.197C370.596 890.515 369.445 892.166 367.744 893.467C366.042 894.743 363.953 895.381 361.476 895.381C359.475 895.381 357.673 894.944 356.072 894.068C354.495 893.167 353.257 891.904 352.356 890.277C351.48 888.651 351.043 886.774 351.043 884.648C351.043 882.496 351.48 880.607 352.356 878.98C353.232 877.354 354.458 876.103 356.034 875.227C357.611 874.352 359.425 873.914 361.476 873.914C363.453 873.914 365.217 874.339 366.768 875.19C368.344 876.041 369.558 877.254 370.409 878.83C371.284 880.382 371.722 882.171 371.722 884.197ZM366.28 882.696C366.255 881.345 365.767 880.269 364.816 879.468C363.866 878.643 362.702 878.23 361.326 878.23C360.025 878.23 358.924 878.63 358.023 879.431C357.148 880.206 356.61 881.295 356.41 882.696H366.28ZM383.514 895.381C381.812 895.381 380.286 895.081 378.935 894.481C377.584 893.855 376.508 893.017 375.707 891.966C374.932 890.915 374.506 889.752 374.431 888.476H379.723C379.823 889.276 380.211 889.94 380.887 890.465C381.587 890.99 382.45 891.253 383.476 891.253C384.477 891.253 385.253 891.053 385.803 890.653C386.379 890.252 386.666 889.739 386.666 889.114C386.666 888.438 386.316 887.938 385.616 887.613C384.94 887.262 383.852 886.887 382.35 886.487C380.799 886.111 379.523 885.724 378.522 885.323C377.546 884.923 376.696 884.31 375.97 883.484C375.27 882.659 374.919 881.545 374.919 880.144C374.919 878.993 375.245 877.942 375.895 876.991C376.571 876.041 377.521 875.29 378.747 874.739C379.998 874.189 381.462 873.914 383.139 873.914C385.616 873.914 387.592 874.539 389.068 875.79C390.545 877.016 391.358 878.68 391.508 880.782H386.479C386.404 879.956 386.053 879.306 385.428 878.83C384.827 878.33 384.014 878.08 382.988 878.08C382.038 878.08 381.3 878.255 380.774 878.605C380.274 878.955 380.023 879.443 380.023 880.069C380.023 880.769 380.374 881.307 381.074 881.683C381.775 882.033 382.863 882.396 384.34 882.771C385.841 883.146 387.079 883.534 388.055 883.935C389.031 884.335 389.869 884.96 390.57 885.811C391.295 886.637 391.671 887.738 391.696 889.114C391.696 890.315 391.358 891.391 390.682 892.341C390.032 893.292 389.081 894.043 387.83 894.593C386.604 895.119 385.165 895.381 383.514 895.381ZM760.465 878.568V888.626C760.465 889.326 760.628 889.839 760.953 890.165C761.304 890.465 761.879 890.615 762.68 890.615H765.119V895.044H761.817C757.388 895.044 755.174 892.892 755.174 888.588V878.568H752.697V874.252H755.174V869.11H760.465V874.252H765.119V878.568H760.465ZM778.131 895.381C776.129 895.381 774.328 894.944 772.727 894.068C771.125 893.167 769.862 891.904 768.936 890.277C768.035 888.651 767.585 886.774 767.585 884.648C767.585 882.521 768.048 880.644 768.974 879.018C769.924 877.392 771.213 876.141 772.839 875.265C774.466 874.364 776.28 873.914 778.281 873.914C780.283 873.914 782.097 874.364 783.723 875.265C785.35 876.141 786.626 877.392 787.551 879.018C788.502 880.644 788.977 882.521 788.977 884.648C788.977 886.774 788.49 888.651 787.514 890.277C786.563 891.904 785.262 893.167 783.611 894.068C781.984 894.944 780.158 895.381 778.131 895.381ZM778.131 890.803C779.082 890.803 779.97 890.578 780.796 890.127C781.646 889.652 782.322 888.951 782.822 888.025C783.323 887.1 783.573 885.974 783.573 884.648C783.573 882.671 783.048 881.157 781.997 880.106C780.971 879.031 779.707 878.493 778.206 878.493C776.705 878.493 775.441 879.031 774.416 880.106C773.415 881.157 772.914 882.671 772.914 884.648C772.914 886.624 773.402 888.151 774.378 889.226C775.379 890.277 776.63 890.803 778.131 890.803ZM128.218 911.252V932.044H122.926V929.417C122.251 930.317 121.363 931.03 120.262 931.556C119.186 932.056 118.01 932.306 116.734 932.306C115.107 932.306 113.669 931.969 112.418 931.293C111.167 930.593 110.178 929.579 109.453 928.253C108.752 926.902 108.402 925.301 108.402 923.449V911.252H113.656V922.699C113.656 924.35 114.069 925.626 114.895 926.527C115.72 927.402 116.846 927.84 118.273 927.84C119.724 927.84 120.862 927.402 121.688 926.527C122.514 925.626 122.926 924.35 122.926 922.699V911.252H128.218ZM144.925 910.951C147.402 910.951 149.403 911.739 150.929 913.316C152.456 914.867 153.219 917.044 153.219 919.846V932.044H147.965V920.559C147.965 918.908 147.552 917.644 146.726 916.769C145.9 915.868 144.774 915.418 143.348 915.418C141.897 915.418 140.746 915.868 139.895 916.769C139.07 917.644 138.657 918.908 138.657 920.559V932.044H133.403V911.252H138.657V913.841C139.357 912.94 140.246 912.24 141.322 911.739C142.422 911.214 143.623 910.951 144.925 910.951ZM156.864 921.573C156.864 919.471 157.277 917.607 158.103 915.98C158.954 914.354 160.104 913.103 161.556 912.227C163.007 911.352 164.621 910.914 166.397 910.914C167.748 910.914 169.037 911.214 170.263 911.815C171.489 912.39 172.465 913.166 173.19 914.141V904.271H178.52V932.044H173.19V928.966C172.54 929.992 171.626 930.818 170.45 931.443C169.275 932.069 167.911 932.381 166.36 932.381C164.608 932.381 163.007 931.931 161.556 931.03C160.104 930.13 158.954 928.866 158.103 927.24C157.277 925.588 156.864 923.699 156.864 921.573ZM173.228 921.648C173.228 920.372 172.978 919.283 172.477 918.382C171.977 917.457 171.301 916.756 170.45 916.281C169.6 915.78 168.687 915.53 167.711 915.53C166.735 915.53 165.834 915.768 165.009 916.243C164.183 916.719 163.507 917.419 162.982 918.345C162.481 919.246 162.231 920.322 162.231 921.573C162.231 922.824 162.481 923.925 162.982 924.875C163.507 925.801 164.183 926.514 165.009 927.015C165.859 927.515 166.76 927.765 167.711 927.765C168.687 927.765 169.6 927.527 170.45 927.052C171.301 926.552 171.977 925.851 172.477 924.95C172.978 924.025 173.228 922.924 173.228 921.648ZM202.98 921.197C202.98 921.948 202.93 922.623 202.83 923.224H187.63C187.755 924.725 188.28 925.901 189.206 926.752C190.132 927.603 191.27 928.028 192.621 928.028C194.573 928.028 195.962 927.19 196.787 925.513H202.454C201.854 927.515 200.703 929.166 199.002 930.467C197.3 931.743 195.211 932.381 192.734 932.381C190.732 932.381 188.931 931.944 187.329 931.068C185.753 930.167 184.515 928.904 183.614 927.277C182.738 925.651 182.3 923.774 182.3 921.648C182.3 919.496 182.738 917.607 183.614 915.98C184.49 914.354 185.716 913.103 187.292 912.227C188.868 911.352 190.682 910.914 192.734 910.914C194.71 910.914 196.474 911.339 198.026 912.19C199.602 913.041 200.816 914.254 201.666 915.83C202.542 917.382 202.98 919.171 202.98 921.197ZM197.538 919.696C197.513 918.345 197.025 917.269 196.074 916.468C195.123 915.643 193.96 915.23 192.584 915.23C191.283 915.23 190.182 915.63 189.281 916.431C188.405 917.206 187.867 918.295 187.667 919.696H197.538ZM212.069 914.479C212.745 913.378 213.621 912.515 214.696 911.89C215.797 911.264 217.048 910.951 218.45 910.951V916.468H217.061C215.41 916.468 214.159 916.856 213.308 917.632C212.482 918.407 212.069 919.759 212.069 921.685V932.044H206.815V911.252H212.069V914.479ZM229.945 932.381C228.244 932.381 226.717 932.081 225.366 931.481C224.015 930.855 222.939 930.017 222.139 928.966C221.363 927.915 220.938 926.752 220.863 925.476H226.155C226.255 926.276 226.642 926.94 227.318 927.465C228.019 927.99 228.882 928.253 229.908 928.253C230.908 928.253 231.684 928.053 232.235 927.653C232.81 927.252 233.098 926.739 233.098 926.114C233.098 925.438 232.747 924.938 232.047 924.613C231.371 924.262 230.283 923.887 228.782 923.487C227.23 923.111 225.954 922.724 224.954 922.323C223.978 921.923 223.127 921.31 222.401 920.484C221.701 919.659 221.351 918.545 221.351 917.144C221.351 915.993 221.676 914.942 222.326 913.991C223.002 913.041 223.953 912.29 225.179 911.739C226.43 911.189 227.893 910.914 229.57 910.914C232.047 910.914 234.023 911.539 235.5 912.79C236.976 914.016 237.789 915.68 237.939 917.782H232.91C232.835 916.956 232.485 916.306 231.859 915.83C231.259 915.33 230.446 915.08 229.42 915.08C228.469 915.08 227.731 915.255 227.205 915.605C226.705 915.955 226.455 916.443 226.455 917.069C226.455 917.769 226.805 918.307 227.506 918.683C228.206 919.033 229.295 919.396 230.771 919.771C232.272 920.146 233.511 920.534 234.486 920.935C235.462 921.335 236.3 921.96 237.001 922.811C237.727 923.637 238.102 924.738 238.127 926.114C238.127 927.315 237.789 928.391 237.114 929.341C236.463 930.292 235.512 931.043 234.261 931.593C233.035 932.119 231.596 932.381 229.945 932.381ZM248.558 915.568V925.626C248.558 926.326 248.72 926.839 249.045 927.165C249.396 927.465 249.971 927.615 250.772 927.615H253.211V932.044H249.909C245.48 932.044 243.266 929.892 243.266 925.588V915.568H240.789V911.252H243.266V906.11H248.558V911.252H253.211V915.568H248.558ZM255.639 921.573C255.639 919.471 256.052 917.607 256.878 915.98C257.729 914.354 258.867 913.103 260.293 912.227C261.744 911.352 263.358 910.914 265.135 910.914C266.686 910.914 268.037 911.227 269.188 911.852C270.364 912.478 271.302 913.266 272.003 914.217V911.252H277.295V932.044H272.003V929.004C271.327 929.98 270.389 930.793 269.188 931.443C268.012 932.069 266.648 932.381 265.097 932.381C263.346 932.381 261.744 931.931 260.293 931.03C258.867 930.13 257.729 928.866 256.878 927.24C256.052 925.588 255.639 923.699 255.639 921.573ZM272.003 921.648C272.003 920.372 271.753 919.283 271.252 918.382C270.752 917.457 270.076 916.756 269.226 916.281C268.375 915.78 267.462 915.53 266.486 915.53C265.51 915.53 264.609 915.768 263.784 916.243C262.958 916.719 262.282 917.419 261.757 918.345C261.257 919.246 261.006 920.322 261.006 921.573C261.006 922.824 261.257 923.925 261.757 924.875C262.282 925.801 262.958 926.514 263.784 927.015C264.634 927.515 265.535 927.765 266.486 927.765C267.462 927.765 268.375 927.527 269.226 927.052C270.076 926.552 270.752 925.851 271.252 924.95C271.753 924.025 272.003 922.924 272.003 921.648ZM293.948 910.951C296.426 910.951 298.427 911.739 299.953 913.316C301.48 914.867 302.243 917.044 302.243 919.846V932.044H296.988V920.559C296.988 918.908 296.576 917.644 295.75 916.769C294.924 915.868 293.798 915.418 292.372 915.418C290.921 915.418 289.77 915.868 288.919 916.769C288.094 917.644 287.681 918.908 287.681 920.559V932.044H282.426V911.252H287.681V913.841C288.381 912.94 289.27 912.24 290.345 911.739C291.446 911.214 292.647 910.951 293.948 910.951ZM305.888 921.573C305.888 919.471 306.301 917.607 307.127 915.98C307.977 914.354 309.128 913.103 310.58 912.227C312.031 911.352 313.645 910.914 315.421 910.914C316.772 910.914 318.061 911.214 319.287 911.815C320.513 912.39 321.489 913.166 322.214 914.141V904.271H327.544V932.044H322.214V928.966C321.564 929.992 320.65 930.818 319.474 931.443C318.298 932.069 316.935 932.381 315.384 932.381C313.632 932.381 312.031 931.931 310.58 931.03C309.128 930.13 307.977 928.866 307.127 927.24C306.301 925.588 305.888 923.699 305.888 921.573ZM322.252 921.648C322.252 920.372 322.002 919.283 321.501 918.382C321.001 917.457 320.325 916.756 319.474 916.281C318.624 915.78 317.71 915.53 316.735 915.53C315.759 915.53 314.858 915.768 314.032 916.243C313.207 916.719 312.531 917.419 312.006 918.345C311.505 919.246 311.255 920.322 311.255 921.573C311.255 922.824 311.505 923.925 312.006 924.875C312.531 925.801 313.207 926.514 314.032 927.015C314.883 927.515 315.784 927.765 316.735 927.765C317.71 927.765 318.624 927.527 319.474 927.052C320.325 926.552 321.001 925.851 321.501 924.95C322.002 924.025 322.252 922.924 322.252 921.648ZM347.736 915.568V925.626C347.736 926.326 347.898 926.839 348.224 927.165C348.574 927.465 349.149 927.615 349.95 927.615H352.39V932.044H349.087C344.658 932.044 342.444 929.892 342.444 925.588V915.568H339.967V911.252H342.444V906.11H347.736V911.252H352.39V915.568H347.736ZM367.878 910.951C369.455 910.951 370.856 911.302 372.082 912.002C373.308 912.678 374.259 913.691 374.934 915.042C375.635 916.368 375.985 917.97 375.985 919.846V932.044H370.731V920.559C370.731 918.908 370.318 917.644 369.492 916.769C368.667 915.868 367.541 915.418 366.114 915.418C364.663 915.418 363.512 915.868 362.662 916.769C361.836 917.644 361.423 918.908 361.423 920.559V932.044H356.169V904.271H361.423V913.841C362.099 912.94 362.999 912.24 364.125 911.739C365.251 911.214 366.502 910.951 367.878 910.951ZM400.31 921.197C400.31 921.948 400.26 922.623 400.16 923.224H384.96C385.085 924.725 385.61 925.901 386.536 926.752C387.462 927.603 388.6 928.028 389.952 928.028C391.903 928.028 393.292 927.19 394.117 925.513H399.785C399.184 927.515 398.033 929.166 396.332 930.467C394.63 931.743 392.541 932.381 390.064 932.381C388.063 932.381 386.261 931.944 384.66 931.068C383.083 930.167 381.845 928.904 380.944 927.277C380.068 925.651 379.631 923.774 379.631 921.648C379.631 919.496 380.068 917.607 380.944 915.98C381.82 914.354 383.046 913.103 384.622 912.227C386.198 911.352 388.012 910.914 390.064 910.914C392.041 910.914 393.805 911.339 395.356 912.19C396.932 913.041 398.146 914.254 398.997 915.83C399.872 917.382 400.31 919.171 400.31 921.197ZM394.868 919.696C394.843 918.345 394.355 917.269 393.404 916.468C392.454 915.643 391.29 915.23 389.914 915.23C388.613 915.23 387.512 915.63 386.611 916.431C385.736 917.206 385.198 918.295 384.997 919.696H394.868ZM411.737 921.648C411.737 919.496 412.175 917.619 413.051 916.018C413.926 914.392 415.14 913.141 416.691 912.265C418.242 911.364 420.019 910.914 422.021 910.914C424.598 910.914 426.724 911.564 428.401 912.865C430.102 914.141 431.241 915.943 431.816 918.27H426.149C425.849 917.369 425.336 916.669 424.61 916.168C423.91 915.643 423.034 915.38 421.983 915.38C420.482 915.38 419.293 915.93 418.418 917.031C417.542 918.107 417.104 919.646 417.104 921.648C417.104 923.624 417.542 925.163 418.418 926.264C419.293 927.34 420.482 927.878 421.983 927.878C424.11 927.878 425.498 926.927 426.149 925.025H431.816C431.241 927.277 430.102 929.066 428.401 930.392C426.699 931.718 424.573 932.381 422.021 932.381C420.019 932.381 418.242 931.944 416.691 931.068C415.14 930.167 413.926 928.916 413.051 927.315C412.175 925.688 411.737 923.799 411.737 921.648ZM444.898 932.381C442.896 932.381 441.095 931.944 439.493 931.068C437.892 930.167 436.629 928.904 435.703 927.277C434.802 925.651 434.352 923.774 434.352 921.648C434.352 919.521 434.815 917.644 435.74 916.018C436.691 914.392 437.98 913.141 439.606 912.265C441.232 911.364 443.046 910.914 445.048 910.914C447.05 910.914 448.864 911.364 450.49 912.265C452.116 913.141 453.392 914.392 454.318 916.018C455.269 917.644 455.744 919.521 455.744 921.648C455.744 923.774 455.256 925.651 454.281 927.277C453.33 928.904 452.029 930.167 450.377 931.068C448.751 931.944 446.925 932.381 444.898 932.381ZM444.898 927.803C445.849 927.803 446.737 927.578 447.563 927.127C448.413 926.652 449.089 925.951 449.589 925.025C450.09 924.1 450.34 922.974 450.34 921.648C450.34 919.671 449.814 918.157 448.764 917.106C447.738 916.031 446.474 915.493 444.973 915.493C443.472 915.493 442.208 916.031 441.182 917.106C440.182 918.157 439.681 919.671 439.681 921.648C439.681 923.624 440.169 925.151 441.145 926.226C442.146 927.277 443.397 927.803 444.898 927.803ZM471.121 910.951C473.598 910.951 475.599 911.739 477.126 913.316C478.652 914.867 479.415 917.044 479.415 919.846V932.044H474.161V920.559C474.161 918.908 473.748 917.644 472.922 916.769C472.096 915.868 470.97 915.418 469.544 915.418C468.093 915.418 466.942 915.868 466.091 916.769C465.266 917.644 464.853 918.908 464.853 920.559V932.044H459.599V911.252H464.853V913.841C465.554 912.94 466.442 912.24 467.518 911.739C468.619 911.214 469.82 910.951 471.121 910.951ZM490.529 915.568V925.626C490.529 926.326 490.692 926.839 491.017 927.165C491.367 927.465 491.943 927.615 492.743 927.615H495.183V932.044H491.88C487.452 932.044 485.237 929.892 485.237 925.588V915.568H482.76V911.252H485.237V906.11H490.529V911.252H495.183V915.568H490.529ZM518.29 921.197C518.29 921.948 518.24 922.623 518.14 923.224H502.94C503.065 924.725 503.591 925.901 504.517 926.752C505.442 927.603 506.581 928.028 507.932 928.028C509.884 928.028 511.272 927.19 512.098 925.513H517.765C517.165 927.515 516.014 929.166 514.312 930.467C512.611 931.743 510.522 932.381 508.045 932.381C506.043 932.381 504.241 931.944 502.64 931.068C501.064 930.167 499.825 928.904 498.925 927.277C498.049 925.651 497.611 923.774 497.611 921.648C497.611 919.496 498.049 917.607 498.925 915.98C499.8 914.354 501.026 913.103 502.603 912.227C504.179 911.352 505.993 910.914 508.045 910.914C510.021 910.914 511.785 911.339 513.336 912.19C514.913 913.041 516.126 914.254 516.977 915.83C517.853 917.382 518.29 919.171 518.29 921.197ZM512.848 919.696C512.823 918.345 512.336 917.269 511.385 916.468C510.434 915.643 509.271 915.23 507.894 915.23C506.593 915.23 505.492 915.63 504.592 916.431C503.716 917.206 503.178 918.295 502.978 919.696H512.848ZM533.61 932.044L529.332 925.588L525.541 932.044H519.911L526.704 921.61L519.836 911.252H525.766L530.007 917.669L533.835 911.252H539.465L532.634 921.61L539.54 932.044H533.61ZM548.511 915.568V925.626C548.511 926.326 548.674 926.839 548.999 927.165C549.349 927.465 549.925 927.615 550.726 927.615H553.165V932.044H549.862C545.434 932.044 543.219 929.892 543.219 925.588V915.568H540.742V911.252H543.219V906.11H548.511V911.252H553.165V915.568H548.511ZM575.12 932.381C573.118 932.381 571.317 931.944 569.715 931.068C568.114 930.167 566.851 928.904 565.925 927.277C565.024 925.651 564.574 923.774 564.574 921.648C564.574 919.521 565.037 917.644 565.962 916.018C566.913 914.392 568.202 913.141 569.828 912.265C571.454 911.364 573.268 910.914 575.27 910.914C577.272 910.914 579.086 911.364 580.712 912.265C582.338 913.141 583.614 914.392 584.54 916.018C585.491 917.644 585.966 919.521 585.966 921.648C585.966 923.774 585.478 925.651 584.503 927.277C583.552 928.904 582.251 930.167 580.599 931.068C578.973 931.944 577.147 932.381 575.12 932.381ZM575.12 927.803C576.071 927.803 576.959 927.578 577.785 927.127C578.635 926.652 579.311 925.951 579.811 925.025C580.312 924.1 580.562 922.974 580.562 921.648C580.562 919.671 580.036 918.157 578.986 917.106C577.96 916.031 576.696 915.493 575.195 915.493C573.694 915.493 572.43 916.031 571.404 917.106C570.403 918.157 569.903 919.671 569.903 921.648C569.903 923.624 570.391 925.151 571.367 926.226C572.368 927.277 573.619 927.803 575.12 927.803ZM599.353 915.568H595.713V932.044H590.383V915.568H588.019V911.252H590.383V910.201C590.383 907.649 591.109 905.772 592.56 904.571C594.011 903.37 596.201 902.807 599.128 902.882V907.311C597.852 907.286 596.964 907.499 596.463 907.949C595.963 908.399 595.713 909.212 595.713 910.388V911.252H599.353V915.568ZM617.819 915.568V925.626C617.819 926.326 617.981 926.839 618.307 927.165C618.657 927.465 619.232 927.615 620.033 927.615H622.473V932.044H619.17C614.741 932.044 612.527 929.892 612.527 925.588V915.568H610.05V911.252H612.527V906.11H617.819V911.252H622.473V915.568H617.819ZM637.961 910.951C639.538 910.951 640.939 911.302 642.165 912.002C643.391 912.678 644.342 913.691 645.017 915.042C645.718 916.368 646.068 917.97 646.068 919.846V932.044H640.814V920.559C640.814 918.908 640.401 917.644 639.575 916.769C638.75 915.868 637.624 915.418 636.197 915.418C634.746 915.418 633.595 915.868 632.745 916.769C631.919 917.644 631.506 918.908 631.506 920.559V932.044H626.252V904.271H631.506V913.841C632.182 912.94 633.082 912.24 634.208 911.739C635.334 911.214 636.585 910.951 637.961 910.951ZM670.393 921.197C670.393 921.948 670.343 922.623 670.243 923.224H655.043C655.168 924.725 655.694 925.901 656.619 926.752C657.545 927.603 658.683 928.028 660.035 928.028C661.986 928.028 663.375 927.19 664.201 925.513H669.868C669.267 927.515 668.116 929.166 666.415 930.467C664.713 931.743 662.624 932.381 660.147 932.381C658.146 932.381 656.344 931.944 654.743 931.068C653.166 930.167 651.928 928.904 651.027 927.277C650.151 925.651 649.714 923.774 649.714 921.648C649.714 919.496 650.151 917.607 651.027 915.98C651.903 914.354 653.129 913.103 654.705 912.227C656.282 911.352 658.096 910.914 660.147 910.914C662.124 910.914 663.888 911.339 665.439 912.19C667.015 913.041 668.229 914.254 669.08 915.83C669.955 917.382 670.393 919.171 670.393 921.197ZM664.951 919.696C664.926 918.345 664.438 917.269 663.487 916.468C662.537 915.643 661.373 915.23 659.997 915.23C658.696 915.23 657.595 915.63 656.694 916.431C655.819 917.206 655.281 918.295 655.081 919.696H664.951ZM688.426 904.271V932.044H683.171V904.271H688.426ZM696.281 908.775C695.356 908.775 694.58 908.487 693.955 907.911C693.354 907.311 693.054 906.573 693.054 905.697C693.054 904.821 693.354 904.096 693.955 903.52C694.58 902.92 695.356 902.619 696.281 902.619C697.207 902.619 697.97 902.92 698.571 903.52C699.196 904.096 699.509 904.821 699.509 905.697C699.509 906.573 699.196 907.311 698.571 907.911C697.97 908.487 697.207 908.775 696.281 908.775ZM698.871 911.252V932.044H693.617V911.252H698.871ZM712.732 927.202L717.986 911.252H723.578L715.885 932.044H709.504L701.848 911.252H707.478L712.732 927.202ZM745.858 921.197C745.858 921.948 745.808 922.623 745.708 923.224H730.508C730.633 924.725 731.158 925.901 732.084 926.752C733.01 927.603 734.148 928.028 735.5 928.028C737.451 928.028 738.84 927.19 739.665 925.513H745.333C744.732 927.515 743.581 929.166 741.88 930.467C740.178 931.743 738.089 932.381 735.612 932.381C733.61 932.381 731.809 931.944 730.208 931.068C728.631 930.167 727.393 928.904 726.492 927.277C725.616 925.651 725.179 923.774 725.179 921.648C725.179 919.496 725.616 917.607 726.492 915.98C727.368 914.354 728.594 913.103 730.17 912.227C731.746 911.352 733.56 910.914 735.612 910.914C737.589 910.914 739.353 911.339 740.904 912.19C742.48 913.041 743.694 914.254 744.544 915.83C745.42 917.382 745.858 919.171 745.858 921.197ZM740.416 919.696C740.391 918.345 739.903 917.269 738.952 916.468C738.002 915.643 736.838 915.23 735.462 915.23C734.161 915.23 733.06 915.63 732.159 916.431C731.284 917.206 730.746 918.295 730.545 919.696H740.416ZM116.546 970.381C114.845 970.381 113.319 970.081 111.967 969.481C110.616 968.855 109.54 968.017 108.74 966.966C107.964 965.915 107.539 964.752 107.464 963.476H112.756C112.856 964.276 113.243 964.94 113.919 965.465C114.62 965.99 115.483 966.253 116.509 966.253C117.509 966.253 118.285 966.053 118.836 965.653C119.411 965.252 119.699 964.739 119.699 964.114C119.699 963.438 119.348 962.938 118.648 962.613C117.972 962.262 116.884 961.887 115.383 961.487C113.831 961.111 112.555 960.724 111.555 960.323C110.579 959.923 109.728 959.31 109.002 958.484C108.302 957.659 107.952 956.545 107.952 955.144C107.952 953.993 108.277 952.942 108.927 951.991C109.603 951.041 110.554 950.29 111.78 949.739C113.031 949.189 114.494 948.914 116.171 948.914C118.648 948.914 120.625 949.539 122.101 950.79C123.577 952.016 124.39 953.68 124.54 955.782H119.511C119.436 954.956 119.086 954.306 118.46 953.83C117.86 953.33 117.047 953.08 116.021 953.08C115.07 953.08 114.332 953.255 113.806 953.605C113.306 953.955 113.056 954.443 113.056 955.069C113.056 955.769 113.406 956.307 114.107 956.683C114.807 957.033 115.896 957.396 117.372 957.771C118.873 958.146 120.112 958.534 121.087 958.935C122.063 959.335 122.901 959.96 123.602 960.811C124.328 961.637 124.703 962.738 124.728 964.114C124.728 965.315 124.39 966.391 123.715 967.341C123.064 968.292 122.113 969.043 120.862 969.593C119.636 970.119 118.198 970.381 116.546 970.381ZM135.159 953.568V963.626C135.159 964.326 135.321 964.839 135.646 965.165C135.997 965.465 136.572 965.615 137.373 965.615H139.812V970.044H136.51C132.081 970.044 129.867 967.892 129.867 963.588V953.568H127.39V949.252H129.867V944.11H135.159V949.252H139.812V953.568H135.159ZM148.846 952.479C149.521 951.378 150.397 950.515 151.473 949.89C152.574 949.264 153.825 948.951 155.226 948.951V954.468H153.837C152.186 954.468 150.935 954.856 150.084 955.632C149.259 956.407 148.846 957.759 148.846 959.685V970.044H143.592V949.252H148.846V952.479ZM178.094 959.197C178.094 959.948 178.044 960.623 177.943 961.224H162.743C162.869 962.725 163.394 963.901 164.32 964.752C165.246 965.603 166.384 966.028 167.735 966.028C169.687 966.028 171.075 965.19 171.901 963.513H177.568C176.968 965.515 175.817 967.166 174.115 968.467C172.414 969.743 170.325 970.381 167.848 970.381C165.846 970.381 164.045 969.944 162.443 969.068C160.867 968.167 159.628 966.904 158.728 965.277C157.852 963.651 157.414 961.774 157.414 959.648C157.414 957.496 157.852 955.607 158.728 953.98C159.603 952.354 160.829 951.103 162.406 950.227C163.982 949.352 165.796 948.914 167.848 948.914C169.824 948.914 171.588 949.339 173.14 950.19C174.716 951.041 175.929 952.254 176.78 953.83C177.656 955.382 178.094 957.171 178.094 959.197ZM172.652 957.696C172.627 956.345 172.139 955.269 171.188 954.468C170.237 953.643 169.074 953.23 167.698 953.23C166.396 953.23 165.296 953.63 164.395 954.431C163.519 955.206 162.981 956.295 162.781 957.696H172.652ZM180.578 959.573C180.578 957.471 180.991 955.607 181.816 953.98C182.667 952.354 183.805 951.103 185.231 950.227C186.683 949.352 188.297 948.914 190.073 948.914C191.624 948.914 192.975 949.227 194.126 949.852C195.302 950.478 196.241 951.266 196.941 952.217V949.252H202.233V970.044H196.941V967.004C196.266 967.98 195.327 968.793 194.126 969.443C192.95 970.069 191.587 970.381 190.035 970.381C188.284 970.381 186.683 969.931 185.231 969.03C183.805 968.13 182.667 966.866 181.816 965.24C180.991 963.588 180.578 961.699 180.578 959.573ZM196.941 959.648C196.941 958.372 196.691 957.283 196.191 956.382C195.69 955.457 195.015 954.756 194.164 954.281C193.313 953.78 192.4 953.53 191.424 953.53C190.448 953.53 189.548 953.768 188.722 954.243C187.896 954.719 187.221 955.419 186.695 956.345C186.195 957.246 185.945 958.322 185.945 959.573C185.945 960.824 186.195 961.925 186.695 962.875C187.221 963.801 187.896 964.514 188.722 965.015C189.573 965.515 190.473 965.765 191.424 965.765C192.4 965.765 193.313 965.527 194.164 965.052C195.015 964.552 195.69 963.851 196.191 962.95C196.691 962.025 196.941 960.924 196.941 959.648ZM233.186 948.951C235.738 948.951 237.79 949.739 239.341 951.316C240.917 952.867 241.705 955.044 241.705 957.846V970.044H236.451V958.559C236.451 956.933 236.038 955.694 235.213 954.844C234.387 953.968 233.261 953.53 231.835 953.53C230.409 953.53 229.27 953.968 228.42 954.844C227.594 955.694 227.181 956.933 227.181 958.559V970.044H221.927V958.559C221.927 956.933 221.514 955.694 220.688 954.844C219.863 953.968 218.737 953.53 217.31 953.53C215.859 953.53 214.708 953.968 213.858 954.844C213.032 955.694 212.619 956.933 212.619 958.559V970.044H207.365V949.252H212.619V951.766C213.295 950.89 214.158 950.202 215.209 949.702C216.285 949.202 217.461 948.951 218.737 948.951C220.363 948.951 221.814 949.302 223.09 950.002C224.366 950.678 225.355 951.654 226.055 952.93C226.731 951.729 227.706 950.765 228.983 950.04C230.284 949.314 231.685 948.951 233.186 948.951ZM252.434 964.527L248.043 975.073H244.665L247.104 964.527H252.434ZM271.281 953.568V963.626C271.281 964.326 271.444 964.839 271.769 965.165C272.119 965.465 272.695 965.615 273.496 965.615H275.935V970.044H272.632C268.204 970.044 265.989 967.892 265.989 963.588V953.568H263.512V949.252H265.989V944.11H271.281V949.252H275.935V953.568H271.281ZM291.424 948.951C293 948.951 294.401 949.302 295.627 950.002C296.853 950.678 297.804 951.691 298.48 953.042C299.18 954.368 299.531 955.97 299.531 957.846V970.044H294.276V958.559C294.276 956.908 293.863 955.644 293.038 954.769C292.212 953.868 291.086 953.418 289.66 953.418C288.209 953.418 287.058 953.868 286.207 954.769C285.381 955.644 284.969 956.908 284.969 958.559V970.044H279.714V942.271H284.969V951.841C285.644 950.94 286.545 950.24 287.671 949.739C288.797 949.214 290.048 948.951 291.424 948.951ZM323.856 959.197C323.856 959.948 323.806 960.623 323.705 961.224H308.505C308.631 962.725 309.156 963.901 310.082 964.752C311.008 965.603 312.146 966.028 313.497 966.028C315.449 966.028 316.837 965.19 317.663 963.513H323.33C322.73 965.515 321.579 967.166 319.877 968.467C318.176 969.743 316.087 970.381 313.61 970.381C311.608 970.381 309.807 969.944 308.205 969.068C306.629 968.167 305.39 966.904 304.49 965.277C303.614 963.651 303.176 961.774 303.176 959.648C303.176 957.496 303.614 955.607 304.49 953.98C305.365 952.354 306.591 951.103 308.168 950.227C309.744 949.352 311.558 948.914 313.61 948.914C315.586 948.914 317.35 949.339 318.902 950.19C320.478 951.041 321.691 952.254 322.542 953.83C323.418 955.382 323.856 957.171 323.856 959.197ZM318.414 957.696C318.389 956.345 317.901 955.269 316.95 954.468C315.999 953.643 314.836 953.23 313.46 953.23C312.158 953.23 311.058 953.63 310.157 954.431C309.281 955.206 308.743 956.295 308.543 957.696H318.414ZM339.213 948.951C341.69 948.951 343.691 949.739 345.218 951.316C346.744 952.867 347.507 955.044 347.507 957.846V970.044H342.253V958.559C342.253 956.908 341.84 955.644 341.014 954.769C340.189 953.868 339.063 953.418 337.636 953.418C336.185 953.418 335.034 953.868 334.184 954.769C333.358 955.644 332.945 956.908 332.945 958.559V970.044H327.691V949.252H332.945V951.841C333.646 950.94 334.534 950.24 335.61 949.739C336.711 949.214 337.912 948.951 339.213 948.951ZM380.775 959.197C380.775 959.948 380.725 960.623 380.625 961.224H365.425C365.55 962.725 366.075 963.901 367.001 964.752C367.927 965.603 369.065 966.028 370.416 966.028C372.368 966.028 373.757 965.19 374.582 963.513H380.25C379.649 965.515 378.498 967.166 376.797 968.467C375.095 969.743 373.006 970.381 370.529 970.381C368.527 970.381 366.726 969.944 365.125 969.068C363.548 968.167 362.31 966.904 361.409 965.277C360.533 963.651 360.095 961.774 360.095 959.648C360.095 957.496 360.533 955.607 361.409 953.98C362.285 952.354 363.511 951.103 365.087 950.227C366.663 949.352 368.477 948.914 370.529 948.914C372.506 948.914 374.27 949.339 375.821 950.19C377.397 951.041 378.611 952.254 379.461 953.83C380.337 955.382 380.775 957.171 380.775 959.197ZM375.333 957.696C375.308 956.345 374.82 955.269 373.869 954.468C372.919 953.643 371.755 953.23 370.379 953.23C369.078 953.23 367.977 953.63 367.076 954.431C366.2 955.206 365.663 956.295 365.462 957.696H375.333ZM383.259 959.573C383.259 957.471 383.672 955.607 384.498 953.98C385.348 952.354 386.499 951.103 387.95 950.227C389.402 949.352 391.015 948.914 392.792 948.914C394.143 948.914 395.432 949.214 396.658 949.815C397.884 950.39 398.859 951.166 399.585 952.141V942.271H404.914V970.044H399.585V966.966C398.934 967.992 398.021 968.818 396.845 969.443C395.669 970.069 394.306 970.381 392.754 970.381C391.003 970.381 389.402 969.931 387.95 969.03C386.499 968.13 385.348 966.866 384.498 965.24C383.672 963.588 383.259 961.699 383.259 959.573ZM399.623 959.648C399.623 958.372 399.372 957.283 398.872 956.382C398.371 955.457 397.696 954.756 396.845 954.281C395.995 953.78 395.081 953.53 394.105 953.53C393.13 953.53 392.229 953.768 391.403 954.243C390.578 954.719 389.902 955.419 389.377 956.345C388.876 957.246 388.626 958.322 388.626 959.573C388.626 960.824 388.876 961.925 389.377 962.875C389.902 963.801 390.578 964.514 391.403 965.015C392.254 965.515 393.155 965.765 394.105 965.765C395.081 965.765 395.995 965.527 396.845 965.052C397.696 964.552 398.371 963.851 398.872 962.95C399.372 962.025 399.623 960.924 399.623 959.648ZM412.711 946.775C411.785 946.775 411.009 946.487 410.384 945.911C409.783 945.311 409.483 944.573 409.483 943.697C409.483 942.821 409.783 942.096 410.384 941.52C411.009 940.92 411.785 940.619 412.711 940.619C413.637 940.619 414.4 940.92 415 941.52C415.626 942.096 415.938 942.821 415.938 943.697C415.938 944.573 415.626 945.311 415 945.911C414.4 946.487 413.637 946.775 412.711 946.775ZM415.3 949.252V970.044H410.046V949.252H415.3ZM426.609 953.568V963.626C426.609 964.326 426.772 964.839 427.097 965.165C427.447 965.465 428.023 965.615 428.824 965.615H431.263V970.044H427.96C423.532 970.044 421.317 967.892 421.317 963.588V953.568H418.84V949.252H421.317V944.11H426.609V949.252H431.263V953.568H426.609ZM446.65 946.775C445.724 946.775 444.948 946.487 444.323 945.911C443.722 945.311 443.422 944.573 443.422 943.697C443.422 942.821 443.722 942.096 444.323 941.52C444.948 940.92 445.724 940.619 446.65 940.619C447.576 940.619 448.339 940.92 448.939 941.52C449.565 942.096 449.878 942.821 449.878 943.697C449.878 944.573 449.565 945.311 448.939 945.911C448.339 946.487 447.576 946.775 446.65 946.775ZM449.239 949.252V970.044H443.985V949.252H449.239ZM460.548 953.568V963.626C460.548 964.326 460.711 964.839 461.036 965.165C461.387 965.465 461.962 965.615 462.763 965.615H465.202V970.044H461.899C457.471 970.044 455.256 967.892 455.256 963.588V953.568H452.779V949.252H455.256V944.11H460.548V949.252H465.202V953.568H460.548ZM476.938 970.381C475.236 970.381 473.71 970.081 472.359 969.481C471.008 968.855 469.932 968.017 469.131 966.966C468.356 965.915 467.93 964.752 467.855 963.476H473.147C473.247 964.276 473.635 964.94 474.311 965.465C475.011 965.99 475.874 966.253 476.9 966.253C477.901 966.253 478.677 966.053 479.227 965.653C479.803 965.252 480.09 964.739 480.09 964.114C480.09 963.438 479.74 962.938 479.04 962.613C478.364 962.262 477.276 961.887 475.774 961.487C474.223 961.111 472.947 960.724 471.946 960.323C470.97 959.923 470.12 959.31 469.394 958.484C468.694 957.659 468.343 956.545 468.343 955.144C468.343 953.993 468.669 952.942 469.319 951.991C469.995 951.041 470.945 950.29 472.171 949.739C473.422 949.189 474.886 948.914 476.563 948.914C479.04 948.914 481.016 949.539 482.492 950.79C483.969 952.016 484.782 953.68 484.932 955.782H479.903C479.828 954.956 479.477 954.306 478.852 953.83C478.251 953.33 477.438 953.08 476.412 953.08C475.462 953.08 474.724 953.255 474.198 953.605C473.698 953.955 473.447 954.443 473.447 955.069C473.447 955.769 473.798 956.307 474.498 956.683C475.199 957.033 476.287 957.396 477.764 957.771C479.265 958.146 480.503 958.534 481.479 958.935C482.455 959.335 483.293 959.96 483.994 960.811C484.719 961.637 485.095 962.738 485.12 964.114C485.12 965.315 484.782 966.391 484.106 967.341C483.456 968.292 482.505 969.043 481.254 969.593C480.028 970.119 478.589 970.381 476.938 970.381ZM507.045 965.202L512.3 949.252H517.892L510.198 970.044H503.818L496.161 949.252H501.791L507.045 965.202ZM523.508 946.775C522.582 946.775 521.806 946.487 521.181 945.911C520.58 945.311 520.28 944.573 520.28 943.697C520.28 942.821 520.58 942.096 521.181 941.52C521.806 940.92 522.582 940.619 523.508 940.619C524.433 940.619 525.196 940.92 525.797 941.52C526.422 942.096 526.735 942.821 526.735 943.697C526.735 944.573 526.422 945.311 525.797 945.911C525.196 946.487 524.433 946.775 523.508 946.775ZM526.097 949.252V970.044H520.843V949.252H526.097ZM529.937 959.573C529.937 957.471 530.35 955.607 531.176 953.98C532.027 952.354 533.178 951.103 534.629 950.227C536.08 949.352 537.694 948.914 539.47 948.914C540.821 948.914 542.11 949.214 543.336 949.815C544.562 950.39 545.538 951.166 546.263 952.141V942.271H551.593V970.044H546.263V966.966C545.613 967.992 544.699 968.818 543.524 969.443C542.348 970.069 540.984 970.381 539.433 970.381C537.681 970.381 536.08 969.931 534.629 969.03C533.178 968.13 532.027 966.866 531.176 965.24C530.35 963.588 529.937 961.699 529.937 959.573ZM546.301 959.648C546.301 958.372 546.051 957.283 545.55 956.382C545.05 955.457 544.374 954.756 543.524 954.281C542.673 953.78 541.76 953.53 540.784 953.53C539.808 953.53 538.907 953.768 538.082 954.243C537.256 954.719 536.58 955.419 536.055 956.345C535.554 957.246 535.304 958.322 535.304 959.573C535.304 960.824 535.554 961.925 536.055 962.875C536.58 963.801 537.256 964.514 538.082 965.015C538.932 965.515 539.833 965.765 540.784 965.765C541.76 965.765 542.673 965.527 543.524 965.052C544.374 964.552 545.05 963.851 545.55 962.95C546.051 962.025 546.301 960.924 546.301 959.648ZM576.053 959.197C576.053 959.948 576.003 960.623 575.903 961.224H560.703C560.828 962.725 561.353 963.901 562.279 964.752C563.205 965.603 564.343 966.028 565.694 966.028C567.646 966.028 569.035 965.19 569.86 963.513H575.527C574.927 965.515 573.776 967.166 572.075 968.467C570.373 969.743 568.284 970.381 565.807 970.381C563.805 970.381 562.004 969.944 560.402 969.068C558.826 968.167 557.588 966.904 556.687 965.277C555.811 963.651 555.373 961.774 555.373 959.648C555.373 957.496 555.811 955.607 556.687 953.98C557.563 952.354 558.789 951.103 560.365 950.227C561.941 949.352 563.755 948.914 565.807 948.914C567.784 948.914 569.547 949.339 571.099 950.19C572.675 951.041 573.889 952.254 574.739 953.83C575.615 955.382 576.053 957.171 576.053 959.197ZM570.611 957.696C570.586 956.345 570.098 955.269 569.147 954.468C568.196 953.643 567.033 953.23 565.657 953.23C564.356 953.23 563.255 953.63 562.354 954.431C561.478 955.206 560.94 956.295 560.74 957.696H570.611ZM589.121 970.381C587.119 970.381 585.317 969.944 583.716 969.068C582.115 968.167 580.851 966.904 579.926 965.277C579.025 963.651 578.574 961.774 578.574 959.648C578.574 957.521 579.037 955.644 579.963 954.018C580.914 952.392 582.202 951.141 583.829 950.265C585.455 949.364 587.269 948.914 589.271 948.914C591.272 948.914 593.086 949.364 594.713 950.265C596.339 951.141 597.615 952.392 598.541 954.018C599.492 955.644 599.967 957.521 599.967 959.648C599.967 961.774 599.479 963.651 598.503 965.277C597.553 966.904 596.251 968.167 594.6 969.068C592.974 969.944 591.147 970.381 589.121 970.381ZM589.121 965.803C590.071 965.803 590.96 965.578 591.785 965.127C592.636 964.652 593.312 963.951 593.812 963.025C594.312 962.1 594.563 960.974 594.563 959.648C594.563 957.671 594.037 956.157 592.986 955.106C591.96 954.031 590.697 953.493 589.196 953.493C587.694 953.493 586.431 954.031 585.405 955.106C584.404 956.157 583.904 957.671 583.904 959.648C583.904 961.624 584.392 963.151 585.368 964.226C586.368 965.277 587.619 965.803 589.121 965.803ZM611.413 959.573C611.413 957.471 611.826 955.607 612.652 953.98C613.502 952.354 614.641 951.103 616.067 950.227C617.518 949.352 619.132 948.914 620.908 948.914C622.46 948.914 623.811 949.227 624.962 949.852C626.138 950.478 627.076 951.266 627.777 952.217V949.252H633.068V970.044H627.777V967.004C627.101 967.98 626.163 968.793 624.962 969.443C623.786 970.069 622.422 970.381 620.871 970.381C619.119 970.381 617.518 969.931 616.067 969.03C614.641 968.13 613.502 966.866 612.652 965.24C611.826 963.588 611.413 961.699 611.413 959.573ZM627.777 959.648C627.777 958.372 627.526 957.283 627.026 956.382C626.525 955.457 625.85 954.756 624.999 954.281C624.149 953.78 623.235 953.53 622.259 953.53C621.284 953.53 620.383 953.768 619.557 954.243C618.732 954.719 618.056 955.419 617.531 956.345C617.03 957.246 616.78 958.322 616.78 959.573C616.78 960.824 617.03 961.925 617.531 962.875C618.056 963.801 618.732 964.514 619.557 965.015C620.408 965.515 621.309 965.765 622.259 965.765C623.235 965.765 624.149 965.527 624.999 965.052C625.85 964.552 626.525 963.851 627.026 962.95C627.526 962.025 627.777 960.924 627.777 959.648ZM649.722 948.951C652.199 948.951 654.201 949.739 655.727 951.316C657.253 952.867 658.016 955.044 658.016 957.846V970.044H652.762V958.559C652.762 956.908 652.349 955.644 651.524 954.769C650.698 953.868 649.572 953.418 648.146 953.418C646.695 953.418 645.544 953.868 644.693 954.769C643.867 955.644 643.454 956.908 643.454 958.559V970.044H638.2V949.252H643.454V951.841C644.155 950.94 645.043 950.24 646.119 949.739C647.22 949.214 648.421 948.951 649.722 948.951ZM661.662 959.573C661.662 957.471 662.075 955.607 662.9 953.98C663.751 952.354 664.902 951.103 666.353 950.227C667.804 949.352 669.418 948.914 671.195 948.914C672.546 948.914 673.834 949.214 675.06 949.815C676.286 950.39 677.262 951.166 677.988 952.141V942.271H683.317V970.044H677.988V966.966C677.337 967.992 676.424 968.818 675.248 969.443C674.072 970.069 672.709 970.381 671.157 970.381C669.406 970.381 667.804 969.931 666.353 969.03C664.902 968.13 663.751 966.866 662.9 965.24C662.075 963.588 661.662 961.699 661.662 959.573ZM678.025 959.648C678.025 958.372 677.775 957.283 677.275 956.382C676.774 955.457 676.099 954.756 675.248 954.281C674.397 953.78 673.484 953.53 672.508 953.53C671.533 953.53 670.632 953.768 669.806 954.243C668.98 954.719 668.305 955.419 667.779 956.345C667.279 957.246 667.029 958.322 667.029 959.573C667.029 960.824 667.279 961.925 667.779 962.875C668.305 963.801 668.98 964.514 669.806 965.015C670.657 965.515 671.558 965.765 672.508 965.765C673.484 965.765 674.397 965.527 675.248 965.052C676.099 964.552 676.774 963.851 677.275 962.95C677.775 962.025 678.025 960.924 678.025 959.648ZM696.041 959.573C696.041 957.471 696.454 955.607 697.279 953.98C698.13 952.354 699.268 951.103 700.695 950.227C702.146 949.352 703.76 948.914 705.536 948.914C707.087 948.914 708.438 949.227 709.589 949.852C710.765 950.478 711.704 951.266 712.404 952.217V949.252H717.696V970.044H712.404V967.004C711.729 967.98 710.79 968.793 709.589 969.443C708.413 970.069 707.05 970.381 705.499 970.381C703.747 970.381 702.146 969.931 700.695 969.03C699.268 968.13 698.13 966.866 697.279 965.24C696.454 963.588 696.041 961.699 696.041 959.573ZM712.404 959.648C712.404 958.372 712.154 957.283 711.654 956.382C711.153 955.457 710.478 954.756 709.627 954.281C708.776 953.78 707.863 953.53 706.887 953.53C705.911 953.53 705.011 953.768 704.185 954.243C703.359 954.719 702.684 955.419 702.158 956.345C701.658 957.246 701.408 958.322 701.408 959.573C701.408 960.824 701.658 961.925 702.158 962.875C702.684 963.801 703.359 964.514 704.185 965.015C705.036 965.515 705.936 965.765 706.887 965.765C707.863 965.765 708.776 965.527 709.627 965.052C710.478 964.552 711.153 963.851 711.654 962.95C712.154 962.025 712.404 960.924 712.404 959.648ZM742.456 949.252V970.044H737.165V967.417C736.489 968.317 735.601 969.03 734.5 969.556C733.424 970.056 732.248 970.306 730.972 970.306C729.346 970.306 727.907 969.969 726.656 969.293C725.405 968.593 724.417 967.579 723.691 966.253C722.99 964.902 722.64 963.301 722.64 961.449V949.252H727.895V960.699C727.895 962.35 728.307 963.626 729.133 964.527C729.959 965.402 731.085 965.84 732.511 965.84C733.962 965.84 735.1 965.402 735.926 964.527C736.752 963.626 737.165 962.35 737.165 960.699V949.252H742.456ZM746.29 959.573C746.29 957.471 746.703 955.607 747.528 953.98C748.379 952.354 749.53 951.103 750.981 950.227C752.432 949.352 754.046 948.914 755.823 948.914C757.174 948.914 758.462 949.214 759.688 949.815C760.914 950.39 761.89 951.166 762.616 952.141V942.271H767.945V970.044H762.616V966.966C761.965 967.992 761.052 968.818 759.876 969.443C758.7 970.069 757.336 970.381 755.785 970.381C754.034 970.381 752.432 969.931 750.981 969.03C749.53 968.13 748.379 966.866 747.528 965.24C746.703 963.588 746.29 961.699 746.29 959.573ZM762.653 959.648C762.653 958.372 762.403 957.283 761.903 956.382C761.402 955.457 760.727 954.756 759.876 954.281C759.025 953.78 758.112 953.53 757.136 953.53C756.16 953.53 755.26 953.768 754.434 954.243C753.608 954.719 752.933 955.419 752.407 956.345C751.907 957.246 751.657 958.322 751.657 959.573C751.657 960.824 751.907 961.925 752.407 962.875C752.933 963.801 753.608 964.514 754.434 965.015C755.285 965.515 756.185 965.765 757.136 965.765C758.112 965.765 759.025 965.527 759.876 965.052C760.727 964.552 761.402 963.851 761.903 962.95C762.403 962.025 762.653 960.924 762.653 959.648ZM775.741 946.775C774.816 946.775 774.04 946.487 773.414 945.911C772.814 945.311 772.514 944.573 772.514 943.697C772.514 942.821 772.814 942.096 773.414 941.52C774.04 940.92 774.816 940.619 775.741 940.619C776.667 940.619 777.43 940.92 778.031 941.52C778.656 942.096 778.969 942.821 778.969 943.697C778.969 944.573 778.656 945.311 778.031 945.911C777.43 946.487 776.667 946.775 775.741 946.775ZM778.331 949.252V970.044H773.077V949.252H778.331ZM792.755 970.381C790.753 970.381 788.952 969.944 787.35 969.068C785.749 968.167 784.486 966.904 783.56 965.277C782.659 963.651 782.209 961.774 782.209 959.648C782.209 957.521 782.672 955.644 783.597 954.018C784.548 952.392 785.837 951.141 787.463 950.265C789.089 949.364 790.903 948.914 792.905 948.914C794.907 948.914 796.721 949.364 798.347 950.265C799.973 951.141 801.249 952.392 802.175 954.018C803.126 955.644 803.601 957.521 803.601 959.648C803.601 961.774 803.113 963.651 802.138 965.277C801.187 966.904 799.886 968.167 798.234 969.068C796.608 969.944 794.782 970.381 792.755 970.381ZM792.755 965.803C793.706 965.803 794.594 965.578 795.42 965.127C796.27 964.652 796.946 963.951 797.446 963.025C797.947 962.1 798.197 960.974 798.197 959.648C798.197 957.671 797.671 956.157 796.621 955.106C795.595 954.031 794.331 953.493 792.83 953.493C791.329 953.493 790.065 954.031 789.039 955.106C788.039 956.157 787.538 957.671 787.538 959.648C787.538 961.624 788.026 963.151 789.002 964.226C790.003 965.277 791.254 965.803 792.755 965.803ZM809.783 970.306C808.832 970.306 808.044 970.019 807.418 969.443C806.818 968.843 806.517 968.105 806.517 967.229C806.517 966.353 806.818 965.628 807.418 965.052C808.044 964.452 808.832 964.151 809.783 964.151C810.708 964.151 811.471 964.452 812.072 965.052C812.672 965.628 812.973 966.353 812.973 967.229C812.973 968.105 812.672 968.843 812.072 969.443C811.471 970.019 810.708 970.306 809.783 970.306Z" fill="white"/>
<path d="M433.513 868.847V895.044H428.258V878.005L421.24 895.044H417.262L410.206 878.005V895.044H404.952V868.847H410.919L419.251 888.326L427.583 868.847H433.513ZM437.356 884.573C437.356 882.471 437.769 880.607 438.595 878.98C439.446 877.354 440.584 876.103 442.01 875.227C443.461 874.352 445.075 873.914 446.852 873.914C448.403 873.914 449.754 874.227 450.905 874.852C452.081 875.478 453.019 876.266 453.72 877.217V874.252H459.012V895.044H453.72V892.004C453.044 892.98 452.106 893.793 450.905 894.443C449.729 895.069 448.365 895.381 446.814 895.381C445.063 895.381 443.461 894.931 442.01 894.03C440.584 893.13 439.446 891.866 438.595 890.24C437.769 888.588 437.356 886.699 437.356 884.573ZM453.72 884.648C453.72 883.372 453.47 882.283 452.969 881.382C452.469 880.457 451.793 879.756 450.942 879.281C450.092 878.78 449.179 878.53 448.203 878.53C447.227 878.53 446.326 878.768 445.5 879.243C444.675 879.719 443.999 880.419 443.474 881.345C442.973 882.246 442.723 883.322 442.723 884.573C442.723 885.824 442.973 886.925 443.474 887.875C443.999 888.801 444.675 889.514 445.5 890.015C446.351 890.515 447.252 890.765 448.203 890.765C449.179 890.765 450.092 890.527 450.942 890.052C451.793 889.552 452.469 888.851 452.969 887.95C453.47 887.025 453.72 885.924 453.72 884.648ZM462.792 884.648C462.792 882.496 463.23 880.619 464.106 879.018C464.982 877.392 466.195 876.141 467.746 875.265C469.298 874.364 471.074 873.914 473.076 873.914C475.653 873.914 477.78 874.564 479.456 875.865C481.157 877.141 482.296 878.943 482.871 881.27H477.204C476.904 880.369 476.391 879.669 475.665 879.168C474.965 878.643 474.089 878.38 473.038 878.38C471.537 878.38 470.348 878.93 469.473 880.031C468.597 881.107 468.159 882.646 468.159 884.648C468.159 886.624 468.597 888.163 469.473 889.264C470.348 890.34 471.537 890.878 473.038 890.878C475.165 890.878 476.554 889.927 477.204 888.025H482.871C482.296 890.277 481.157 892.066 479.456 893.392C477.755 894.718 475.628 895.381 473.076 895.381C471.074 895.381 469.298 894.944 467.746 894.068C466.195 893.167 464.982 891.916 464.106 890.315C463.23 888.688 462.792 886.799 462.792 884.648ZM498.43 873.951C500.006 873.951 501.408 874.302 502.634 875.002C503.86 875.678 504.81 876.691 505.486 878.042C506.187 879.368 506.537 880.97 506.537 882.846V895.044H501.283V883.559C501.283 881.908 500.87 880.644 500.044 879.769C499.218 878.868 498.092 878.418 496.666 878.418C495.215 878.418 494.064 878.868 493.213 879.769C492.388 880.644 491.975 881.908 491.975 883.559V895.044H486.721V867.271H491.975V876.841C492.65 875.94 493.551 875.24 494.677 874.739C495.803 874.214 497.054 873.951 498.43 873.951ZM514.198 871.775C513.272 871.775 512.497 871.487 511.871 870.911C511.271 870.311 510.97 869.573 510.97 868.697C510.97 867.821 511.271 867.096 511.871 866.52C512.497 865.92 513.272 865.619 514.198 865.619C515.124 865.619 515.887 865.92 516.487 866.52C517.113 867.096 517.426 867.821 517.426 868.697C517.426 869.573 517.113 870.311 516.487 870.911C515.887 871.487 515.124 871.775 514.198 871.775ZM516.788 874.252V895.044H511.533V874.252H516.788ZM533.501 873.951C535.978 873.951 537.98 874.739 539.506 876.316C541.032 877.867 541.795 880.044 541.795 882.846V895.044H536.541V883.559C536.541 881.908 536.128 880.644 535.302 879.769C534.477 878.868 533.351 878.418 531.925 878.418C530.474 878.418 529.323 878.868 528.472 879.769C527.646 880.644 527.233 881.908 527.233 883.559V895.044H521.979V874.252H527.233V876.841C527.934 875.94 528.822 875.24 529.898 874.739C530.999 874.214 532.2 873.951 533.501 873.951ZM566.12 884.197C566.12 884.948 566.07 885.623 565.97 886.224H550.77C550.895 887.725 551.421 888.901 552.347 889.752C553.272 890.603 554.411 891.028 555.762 891.028C557.713 891.028 559.102 890.19 559.928 888.513H565.595C564.994 890.515 563.843 892.166 562.142 893.467C560.441 894.743 558.351 895.381 555.874 895.381C553.873 895.381 552.071 894.944 550.47 894.068C548.894 893.167 547.655 891.904 546.754 890.277C545.879 888.651 545.441 886.774 545.441 884.648C545.441 882.496 545.879 880.607 546.754 878.98C547.63 877.354 548.856 876.103 550.432 875.227C552.009 874.352 553.823 873.914 555.874 873.914C557.851 873.914 559.615 874.339 561.166 875.19C562.743 876.041 563.956 877.254 564.807 878.83C565.682 880.382 566.12 882.171 566.12 884.197ZM560.678 882.696C560.653 881.345 560.165 880.269 559.215 879.468C558.264 878.643 557.1 878.23 555.724 878.23C554.423 878.23 553.322 878.63 552.422 879.431C551.546 880.206 551.008 881.295 550.808 882.696H560.678ZM584.153 890.878H592.785V895.044H578.898V868.847H584.153V890.878ZM615.453 884.197C615.453 884.948 615.403 885.623 615.303 886.224H600.103C600.228 887.725 600.753 888.901 601.679 889.752C602.605 890.603 603.743 891.028 605.094 891.028C607.046 891.028 608.435 890.19 609.26 888.513H614.927C614.327 890.515 613.176 892.166 611.475 893.467C609.773 894.743 607.684 895.381 605.207 895.381C603.205 895.381 601.404 894.944 599.803 894.068C598.226 893.167 596.988 891.904 596.087 890.277C595.211 888.651 594.773 886.774 594.773 884.648C594.773 882.496 595.211 880.607 596.087 878.98C596.963 877.354 598.189 876.103 599.765 875.227C601.341 874.352 603.155 873.914 605.207 873.914C607.184 873.914 608.948 874.339 610.499 875.19C612.075 876.041 613.289 877.254 614.139 878.83C615.015 880.382 615.453 882.171 615.453 884.197ZM610.011 882.696C609.986 881.345 609.498 880.269 608.547 879.468C607.596 878.643 606.433 878.23 605.057 878.23C603.756 878.23 602.655 878.63 601.754 879.431C600.878 880.206 600.34 881.295 600.14 882.696H610.011ZM617.937 884.573C617.937 882.471 618.35 880.607 619.175 878.98C620.026 877.354 621.165 876.103 622.591 875.227C624.042 874.352 625.656 873.914 627.432 873.914C628.984 873.914 630.335 874.227 631.486 874.852C632.662 875.478 633.6 876.266 634.3 877.217V874.252H639.592V895.044H634.3V892.004C633.625 892.98 632.687 893.793 631.486 894.443C630.31 895.069 628.946 895.381 627.395 895.381C625.643 895.381 624.042 894.931 622.591 894.03C621.165 893.13 620.026 891.866 619.175 890.24C618.35 888.588 617.937 886.699 617.937 884.573ZM634.3 884.648C634.3 883.372 634.05 882.283 633.55 881.382C633.049 880.457 632.374 879.756 631.523 879.281C630.672 878.78 629.759 878.53 628.783 878.53C627.808 878.53 626.907 878.768 626.081 879.243C625.255 879.719 624.58 880.419 624.055 881.345C623.554 882.246 623.304 883.322 623.304 884.573C623.304 885.824 623.554 886.925 624.055 887.875C624.58 888.801 625.255 889.514 626.081 890.015C626.932 890.515 627.833 890.765 628.783 890.765C629.759 890.765 630.672 890.527 631.523 890.052C632.374 889.552 633.049 888.851 633.55 887.95C634.05 887.025 634.3 885.924 634.3 884.648ZM649.978 877.479C650.654 876.378 651.53 875.515 652.606 874.89C653.706 874.264 654.957 873.951 656.359 873.951V879.468H654.97C653.319 879.468 652.068 879.856 651.217 880.632C650.391 881.407 649.978 882.759 649.978 884.685V895.044H644.724V874.252H649.978V877.479ZM671.42 873.951C673.897 873.951 675.898 874.739 677.425 876.316C678.951 877.867 679.714 880.044 679.714 882.846V895.044H674.46V883.559C674.46 881.908 674.047 880.644 673.221 879.769C672.395 878.868 671.27 878.418 669.843 878.418C668.392 878.418 667.241 878.868 666.391 879.769C665.565 880.644 665.152 881.908 665.152 883.559V895.044H659.898V874.252H665.152V876.841C665.853 875.94 666.741 875.24 667.817 874.739C668.918 874.214 670.119 873.951 671.42 873.951ZM687.375 871.775C686.449 871.775 685.674 871.487 685.048 870.911C684.448 870.311 684.148 869.573 684.148 868.697C684.148 867.821 684.448 867.096 685.048 866.52C685.674 865.92 686.449 865.619 687.375 865.619C688.301 865.619 689.064 865.92 689.665 866.52C690.29 867.096 690.603 867.821 690.603 868.697C690.603 869.573 690.29 870.311 689.665 870.911C689.064 871.487 688.301 871.775 687.375 871.775ZM689.965 874.252V895.044H684.711V874.252H689.965ZM706.678 873.951C709.155 873.951 711.157 874.739 712.683 876.316C714.209 877.867 714.972 880.044 714.972 882.846V895.044H709.718V883.559C709.718 881.908 709.305 880.644 708.48 879.769C707.654 878.868 706.528 878.418 705.102 878.418C703.651 878.418 702.5 878.868 701.649 879.769C700.823 880.644 700.41 881.908 700.41 883.559V895.044H695.156V874.252H700.41V876.841C701.111 875.94 701.999 875.24 703.075 874.739C704.176 874.214 705.377 873.951 706.678 873.951ZM728.113 873.914C729.665 873.914 731.028 874.227 732.204 874.852C733.38 875.453 734.306 876.241 734.981 877.217V874.252H740.273V895.194C740.273 897.12 739.885 898.834 739.11 900.336C738.334 901.862 737.171 903.063 735.619 903.939C734.068 904.839 732.192 905.29 729.99 905.29C727.037 905.29 724.61 904.602 722.709 903.225C720.832 901.849 719.769 899.973 719.519 897.596H724.736C725.011 898.547 725.599 899.297 726.499 899.848C727.425 900.423 728.539 900.711 729.84 900.711C731.366 900.711 732.604 900.248 733.555 899.322C734.506 898.421 734.981 897.045 734.981 895.194V891.966C734.306 892.942 733.368 893.755 732.167 894.406C730.991 895.056 729.64 895.381 728.113 895.381C726.362 895.381 724.761 894.931 723.309 894.03C721.858 893.13 720.707 891.866 719.856 890.24C719.031 888.588 718.618 886.699 718.618 884.573C718.618 882.471 719.031 880.607 719.856 878.98C720.707 877.354 721.846 876.103 723.272 875.227C724.723 874.352 726.337 873.914 728.113 873.914ZM734.981 884.648C734.981 883.372 734.731 882.283 734.231 881.382C733.73 880.457 733.055 879.756 732.204 879.281C731.353 878.78 730.44 878.53 729.464 878.53C728.489 878.53 727.588 878.768 726.762 879.243C725.936 879.719 725.261 880.419 724.736 881.345C724.235 882.246 723.985 883.322 723.985 884.573C723.985 885.824 724.235 886.925 724.736 887.875C725.261 888.801 725.936 889.514 726.762 890.015C727.613 890.515 728.514 890.765 729.464 890.765C730.44 890.765 731.353 890.527 732.204 890.052C733.055 889.552 733.73 888.851 734.231 887.95C734.731 887.025 734.981 885.924 734.981 884.648Z" fill="black"/>
</g>
<path d="M360 987.177C370.63 982.002 398.882 974.308 429.514 983.343" stroke="#CCE7FB" stroke-width="5.8642" stroke-linecap="round"/>
<ellipse cx="737" cy="307" rx="23" ry="37" fill="#E4E4E4"/>
<path d="M510 187.882L540.479 205.479M570.959 223.076L540.479 205.479M540.479 205.479L558.076 175M540.479 205.479L522.882 235.959" stroke="white" stroke-opacity="0.5" stroke-width="16.7711" stroke-linecap="round"/>
<path d="M466 102L477.773 127.227L503 139L477.773 150.773L466 176L454.227 150.773L429 139L454.227 127.227L466 102Z" fill="#0081DE"/>
<path d="M460.414 198.81L471.819 206.79L485.686 205.582L477.705 216.986L478.914 230.853L467.509 222.873L453.643 224.081L461.623 212.677L460.414 198.81Z" fill="#0081DE"/>
<path d="M21.5359 282L40.7983 323.273L82.0718 342.536L40.7983 361.798L21.5359 403.072L2.2735 361.798L-39 342.536L2.2735 323.273L21.5359 282Z" fill="#0081DE"/>
</g>
<defs>
<filter id="filter0_d_453_5" x="106.926" y="565.778" width="432.039" height="127.372" filterUnits="userSpaceOnUse" color-interpolation-filters="sRGB">
<feFlood flood-opacity="0" result="BackgroundImageFix"/>
<feColorMatrix in="SourceAlpha" type="matrix" values="0 0 0 0 0 0 0 0 0 0 0 0 0 0 0 0 0 0 127 0" result="hardAlpha"/>
<feOffset dy="4"/>
<feGaussianBlur stdDeviation="2"/>
<feComposite in2="hardAlpha" operator="out"/>
<feColorMatrix type="matrix" values="0 0 0 0 0 0 0 0 0 0 0 0 0 0 0 0 0 0 0.25 0"/>
<feBlend mode="normal" in2="BackgroundImageFix" result="effect1_dropShadow_453_5"/>
<feBlend mode="normal" in="SourceGraphic" in2="effect1_dropShadow_453_5" result="shape"/>
</filter>
<filter id="filter1_d_453_5" x="106.926" y="708.748" width="678.126" height="125.565" filterUnits="userSpaceOnUse" color-interpolation-filters="sRGB">
<feFlood flood-opacity="0" result="BackgroundImageFix"/>
<feColorMatrix in="SourceAlpha" type="matrix" values="0 0 0 0 0 0 0 0 0 0 0 0 0 0 0 0 0 0 127 0" result="hardAlpha"/>
<feOffset dy="4"/>
<feGaussianBlur stdDeviation="2"/>
<feComposite in2="hardAlpha" operator="out"/>
<feColorMatrix type="matrix" values="0 0 0 0 0 0 0 0 0 0 0 0 0 0 0 0 0 0 0.25 0"/>
<feBlend mode="normal" in2="BackgroundImageFix" result="effect1_dropShadow_453_5"/>
<feBlend mode="normal" in="SourceGraphic" in2="effect1_dropShadow_453_5" result="shape"/>
</filter>
<linearGradient id="paint0_linear_453_5" x1="540" y1="0" x2="540" y2="1080" gradientUnits="userSpaceOnUse">
<stop stop-color="#0088EB"/>
<stop offset="0.9999" stop-color="#0088EB"/>
<stop offset="1" stop-color="#0088EB" stop-opacity="0"/>
</linearGradient>
<clipPath id="clip0_453_5">
<rect width="1080" height="1080" fill="white"/>
</clipPath>
</defs>
</svg>
