<svg width="1080" height="1080" viewBox="0 0 1080 1080" fill="none" xmlns="http://www.w3.org/2000/svg">
<g clip-path="url(#clip0_455_151)">
<rect width="1080" height="1080" fill="#FFFAF7"/>
<path d="M431.092 681.203C717.479 472.923 983.025 435.512 1080 442.841V1030H-2160C-1950.25 902.574 -1731.57 813.126 -1449.58 813.126C-1033 813.126 -856.5 964.299 -496.639 982.528C-53 1005 73.1091 941.551 431.092 681.203Z" fill="#0088EB" fill-opacity="0.3"/>
<path d="M431.092 703.203C717.479 494.923 983.025 457.512 1080 464.841V1052H-2160C-1950.25 924.574 -1731.57 835.126 -1449.58 835.126C-1033 835.126 -856.5 986.299 -496.639 1004.53C-53 1027 73.1091 963.551 431.092 703.203Z" fill="#0088EB" fill-opacity="0.6"/>
<path d="M431.092 731.203C717.479 522.923 983.025 485.512 1080 492.841V1080H-2160C-1950.25 952.574 -1731.57 863.126 -1449.58 863.126C-1033 863.126 -856.5 1014.3 -496.639 1032.53C-53 1055 73.1091 991.551 431.092 731.203Z" fill="#0088EB"/>
<path d="M90.9259 154.71C90.9259 143.216 93.2247 132.981 97.8222 124.005C102.529 115.029 109.207 108.078 117.854 103.152C126.502 98.1164 136.682 95.5987 148.395 95.5987C158.466 95.5987 167.442 97.5144 175.323 101.346C183.314 105.067 189.773 110.377 194.699 117.273C199.734 124.169 203.073 132.215 204.715 141.41H166.293C164.541 137.579 162.023 134.623 158.74 132.543C155.565 130.354 151.898 129.259 147.738 129.259C141.608 129.259 136.737 131.558 133.125 136.156C129.622 140.753 127.87 146.938 127.87 154.71C127.87 162.482 129.622 168.667 133.125 173.264C136.737 177.862 141.608 180.16 147.738 180.16C151.898 180.16 155.565 179.121 158.74 177.041C162.023 174.851 164.541 171.841 166.293 168.01H204.715C203.073 177.205 199.734 185.251 194.699 192.147C189.773 199.043 183.314 204.407 175.323 208.238C167.442 211.96 158.466 213.821 148.395 213.821C136.682 213.821 126.502 211.358 117.854 206.432C109.207 201.397 102.529 194.391 97.8222 185.415C93.2247 176.439 90.9259 166.204 90.9259 154.71ZM276.293 213L254.455 171.294H254.291V213H217.839V96.7481H272.024C281.438 96.7481 289.484 98.4448 296.161 101.838C302.839 105.122 307.819 109.665 311.103 115.467C314.497 121.159 316.193 127.617 316.193 134.842C316.193 142.614 314.004 149.51 309.626 155.531C305.356 161.551 299.172 165.875 291.071 168.502L316.358 213H276.293ZM254.291 146.993H268.74C272.243 146.993 274.87 146.226 276.622 144.694C278.373 143.052 279.249 140.534 279.249 137.141C279.249 134.076 278.319 131.667 276.458 129.916C274.706 128.165 272.134 127.289 268.74 127.289H254.291V146.993ZM384.487 214.149C373.54 214.149 363.47 211.577 354.274 206.432C345.189 201.287 337.964 194.172 332.6 185.086C327.237 176.001 324.555 165.766 324.555 154.381C324.555 142.997 327.237 132.762 332.6 123.677C337.964 114.591 345.189 107.53 354.274 102.495C363.47 97.3502 373.54 94.7777 384.487 94.7777C395.433 94.7777 405.449 97.3502 414.535 102.495C423.621 107.53 430.791 114.591 436.045 123.677C441.409 132.762 444.091 142.997 444.091 154.381C444.091 165.766 441.409 176.001 436.045 185.086C430.791 194.172 423.566 201.287 414.371 206.432C405.285 211.577 395.324 214.149 384.487 214.149ZM384.487 180.16C391.712 180.16 397.294 177.862 401.235 173.264C405.176 168.557 407.146 162.263 407.146 154.381C407.146 146.391 405.176 140.096 401.235 135.499C397.294 130.792 391.712 128.438 384.487 128.438C377.153 128.438 371.515 130.792 367.574 135.499C363.634 140.096 361.663 146.391 361.663 154.381C361.663 162.263 363.634 168.557 367.574 173.264C371.515 177.862 377.153 180.16 384.487 180.16ZM502.723 214.149C488.821 214.149 477.327 210.92 468.242 204.462C459.266 197.894 454.394 188.316 453.628 175.727H492.379C492.926 182.405 495.882 185.743 501.245 185.743C503.216 185.743 504.858 185.305 506.171 184.43C507.594 183.444 508.306 181.967 508.306 179.996C508.306 177.26 506.828 175.07 503.873 173.428C500.917 171.677 496.32 169.707 490.08 167.517C482.636 164.89 476.452 162.318 471.526 159.8C466.709 157.282 462.55 153.615 459.047 148.799C455.544 143.982 453.847 137.798 453.957 130.244C453.957 122.691 455.872 116.288 459.703 111.033C463.644 105.67 468.953 101.619 475.631 98.8827C482.417 96.146 490.025 94.7777 498.454 94.7777C512.685 94.7777 523.959 98.0617 532.279 104.63C540.708 111.197 545.141 120.447 545.579 132.379H506.336C506.226 129.095 505.405 126.742 503.873 125.318C502.34 123.895 500.479 123.184 498.29 123.184C496.757 123.184 495.499 123.731 494.513 124.826C493.528 125.811 493.036 127.234 493.036 129.095C493.036 131.722 494.459 133.911 497.305 135.663C500.26 137.305 504.913 139.33 511.261 141.738C518.596 144.475 524.616 147.102 529.323 149.62C534.14 152.137 538.299 155.64 541.802 160.128C545.305 164.616 547.057 170.254 547.057 177.041C547.057 184.156 545.305 190.56 541.802 196.252C538.299 201.835 533.209 206.213 526.532 209.388C519.855 212.562 511.918 214.149 502.723 214.149ZM605.347 214.149C591.445 214.149 579.951 210.92 570.865 204.462C561.889 197.894 557.018 188.316 556.252 175.727H595.002C595.55 182.405 598.505 185.743 603.869 185.743C605.839 185.743 607.481 185.305 608.795 184.43C610.218 183.444 610.929 181.967 610.929 179.996C610.929 177.26 609.452 175.07 606.496 173.428C603.541 171.677 598.943 169.707 592.703 167.517C585.26 164.89 579.075 162.318 574.149 159.8C569.333 157.282 565.173 153.615 561.67 148.799C558.167 143.982 556.471 137.798 556.58 130.244C556.58 122.691 558.496 116.288 562.327 111.033C566.268 105.67 571.577 101.619 578.254 98.8827C585.041 96.146 592.649 94.7777 601.078 94.7777C615.308 94.7777 626.583 98.0617 634.902 104.63C643.331 111.197 647.764 120.447 648.202 132.379H608.959C608.85 129.095 608.029 126.742 606.496 125.318C604.964 123.895 603.103 123.184 600.913 123.184C599.381 123.184 598.122 123.731 597.137 124.826C596.152 125.811 595.659 127.234 595.659 129.095C595.659 131.722 597.082 133.911 599.928 135.663C602.884 137.305 607.536 139.33 613.885 141.738C621.219 144.475 627.24 147.102 631.947 149.62C636.763 152.137 640.923 155.64 644.426 160.128C647.929 164.616 649.68 170.254 649.68 177.041C649.68 184.156 647.929 190.56 644.426 196.252C640.923 201.835 635.833 206.213 629.155 209.388C622.478 212.562 614.542 214.149 605.347 214.149Z" fill="black"/>
<path d="M189.28 277.648C189.28 284.982 187.584 291.66 184.19 297.68C180.797 303.591 175.761 308.298 169.084 311.801C162.516 315.304 154.525 317.056 145.111 317.056H130.662V354H94.2099V237.748H145.111C159.342 237.748 170.233 241.36 177.786 248.585C185.449 255.81 189.28 265.497 189.28 277.648ZM141.006 288.321C148.559 288.321 152.336 284.763 152.336 277.648C152.336 270.533 148.559 266.975 141.006 266.975H130.662V288.321H141.006ZM237.294 326.415H272.432V354H200.842V237.748H237.294V326.415ZM358.449 336.431H319.698L313.951 354H275.693L318.22 237.748H360.255L402.618 354H364.196L358.449 336.431ZM349.582 309.01L339.073 276.663L328.565 309.01H349.582ZM502.193 237.748V266.647H471.324V354H434.872V266.647H404.332V237.748H502.193ZM594.179 237.748V266.647H548.532V282.738H581.371V310.159H548.532V354H512.08V237.748H594.179ZM663.174 355.149C652.227 355.149 642.156 352.577 632.961 347.432C623.876 342.287 616.651 335.172 611.287 326.086C605.924 317.001 603.242 306.766 603.242 295.381C603.242 283.997 605.924 273.762 611.287 264.677C616.651 255.591 623.876 248.53 632.961 243.495C642.156 238.35 652.227 235.778 663.174 235.778C674.12 235.778 684.136 238.35 693.222 243.495C702.308 248.53 709.478 255.591 714.732 264.677C720.096 273.762 722.778 283.997 722.778 295.381C722.778 306.766 720.096 317.001 714.732 326.086C709.478 335.172 702.253 342.287 693.058 347.432C683.972 352.577 674.011 355.149 663.174 355.149ZM663.174 321.16C670.398 321.16 675.981 318.862 679.922 314.264C683.863 309.557 685.833 303.263 685.833 295.381C685.833 287.391 683.863 281.096 679.922 276.499C675.981 271.792 670.398 269.438 663.174 269.438C655.84 269.438 650.202 271.792 646.261 276.499C642.321 281.096 640.35 287.391 640.35 295.381C640.35 303.263 642.321 309.557 646.261 314.264C650.202 318.862 655.84 321.16 663.174 321.16ZM794.382 354L772.543 312.294H772.379V354H735.927V237.748H790.113C799.527 237.748 807.572 239.445 814.25 242.838C820.927 246.122 825.908 250.665 829.192 256.467C832.585 262.159 834.282 268.617 834.282 275.842C834.282 283.614 832.092 290.51 827.714 296.531C823.445 302.551 817.26 306.875 809.16 309.502L834.446 354H794.382ZM772.379 287.993H786.829C790.332 287.993 792.959 287.226 794.71 285.694C796.462 284.052 797.337 281.534 797.337 278.141C797.337 275.076 796.407 272.667 794.546 270.916C792.795 269.165 790.222 268.289 786.829 268.289H772.379V287.993ZM985.659 237.748V354H949.371V296.038L931.474 354H900.276L882.379 296.038V354H845.927V237.748H890.589L916.204 307.532L941.162 237.748H985.659Z" fill="#0088EB"/>
<path opacity="0.8" d="M93.844 395.044V401.612H102.664V405.778H93.844V412.721H103.79V417H88.5896V390.766H103.79V395.044H93.844ZM107.213 406.529C107.213 404.427 107.626 402.563 108.452 400.937C109.303 399.31 110.454 398.059 111.905 397.184C113.356 396.308 114.97 395.87 116.746 395.87C118.097 395.87 119.386 396.17 120.612 396.771C121.838 397.346 122.814 398.122 123.539 399.098V389.227H128.869V417H123.539V413.922C122.889 414.948 121.976 415.774 120.8 416.4C119.624 417.025 118.26 417.338 116.709 417.338C114.957 417.338 113.356 416.887 111.905 415.987C110.454 415.086 109.303 413.822 108.452 412.196C107.626 410.545 107.213 408.656 107.213 406.529ZM123.577 406.604C123.577 405.328 123.327 404.24 122.826 403.339C122.326 402.413 121.65 401.712 120.8 401.237C119.949 400.737 119.036 400.486 118.06 400.486C117.084 400.486 116.183 400.724 115.358 401.199C114.532 401.675 113.856 402.375 113.331 403.301C112.831 404.202 112.58 405.278 112.58 406.529C112.58 407.78 112.831 408.881 113.331 409.832C113.856 410.757 114.532 411.47 115.358 411.971C116.208 412.471 117.109 412.721 118.06 412.721C119.036 412.721 119.949 412.484 120.8 412.008C121.65 411.508 122.326 410.807 122.826 409.907C123.327 408.981 123.577 407.88 123.577 406.604ZM136.665 393.731C135.739 393.731 134.964 393.443 134.338 392.868C133.738 392.267 133.438 391.529 133.438 390.653C133.438 389.778 133.738 389.052 134.338 388.477C134.964 387.876 135.739 387.576 136.665 387.576C137.591 387.576 138.354 387.876 138.955 388.477C139.58 389.052 139.893 389.778 139.893 390.653C139.893 391.529 139.58 392.267 138.955 392.868C138.354 393.443 137.591 393.731 136.665 393.731ZM139.255 396.208V417H134.001V396.208H139.255ZM150.564 400.524V410.582C150.564 411.283 150.726 411.796 151.052 412.121C151.402 412.421 151.977 412.571 152.778 412.571H155.217V417H151.915C147.486 417 145.272 414.848 145.272 410.545V400.524H142.795V396.208H145.272V391.066H150.564V396.208H155.217V400.524H150.564ZM177.172 417.338C175.171 417.338 173.369 416.9 171.768 416.024C170.166 415.123 168.903 413.86 167.977 412.234C167.076 410.607 166.626 408.731 166.626 406.604C166.626 404.477 167.089 402.601 168.015 400.974C168.965 399.348 170.254 398.097 171.88 397.221C173.507 396.32 175.321 395.87 177.322 395.87C179.324 395.87 181.138 396.32 182.764 397.221C184.391 398.097 185.667 399.348 186.592 400.974C187.543 402.601 188.019 404.477 188.019 406.604C188.019 408.731 187.531 410.607 186.555 412.234C185.604 413.86 184.303 415.123 182.652 416.024C181.025 416.9 179.199 417.338 177.172 417.338ZM177.172 412.759C178.123 412.759 179.011 412.534 179.837 412.083C180.688 411.608 181.363 410.907 181.864 409.982C182.364 409.056 182.614 407.93 182.614 406.604C182.614 404.627 182.089 403.114 181.038 402.063C180.012 400.987 178.748 400.449 177.247 400.449C175.746 400.449 174.482 400.987 173.457 402.063C172.456 403.114 171.955 404.627 171.955 406.604C171.955 408.581 172.443 410.107 173.419 411.183C174.42 412.234 175.671 412.759 177.172 412.759ZM203.395 395.908C205.872 395.908 207.874 396.696 209.4 398.272C210.926 399.823 211.689 402 211.689 404.802V417H206.435V405.516C206.435 403.864 206.022 402.601 205.196 401.725C204.371 400.824 203.245 400.374 201.819 400.374C200.367 400.374 199.216 400.824 198.366 401.725C197.54 402.601 197.127 403.864 197.127 405.516V417H191.873V396.208H197.127V398.798C197.828 397.897 198.716 397.196 199.792 396.696C200.893 396.17 202.094 395.908 203.395 395.908ZM231.746 400.524V410.582C231.746 411.283 231.909 411.796 232.234 412.121C232.584 412.421 233.16 412.571 233.961 412.571H236.4V417H233.097C228.669 417 226.454 414.848 226.454 410.545V400.524H223.977V396.208H226.454V391.066H231.746V396.208H236.4V400.524H231.746ZM251.889 395.908C253.465 395.908 254.866 396.258 256.092 396.959C257.318 397.634 258.269 398.647 258.945 399.999C259.645 401.325 259.995 402.926 259.995 404.802V417H254.741V405.516C254.741 403.864 254.328 402.601 253.503 401.725C252.677 400.824 251.551 400.374 250.125 400.374C248.674 400.374 247.523 400.824 246.672 401.725C245.846 402.601 245.434 403.864 245.434 405.516V417H240.179V389.227H245.434V398.798C246.109 397.897 247.01 397.196 248.136 396.696C249.262 396.17 250.513 395.908 251.889 395.908ZM284.32 406.154C284.32 406.904 284.27 407.58 284.17 408.18H268.97C269.095 409.681 269.621 410.857 270.547 411.708C271.472 412.559 272.611 412.984 273.962 412.984C275.914 412.984 277.302 412.146 278.128 410.47H283.795C283.195 412.471 282.044 414.123 280.342 415.424C278.641 416.7 276.552 417.338 274.075 417.338C272.073 417.338 270.271 416.9 268.67 416.024C267.094 415.123 265.855 413.86 264.955 412.234C264.079 410.607 263.641 408.731 263.641 406.604C263.641 404.452 264.079 402.563 264.955 400.937C265.83 399.31 267.056 398.059 268.633 397.184C270.209 396.308 272.023 395.87 274.075 395.87C276.051 395.87 277.815 396.295 279.366 397.146C280.943 397.997 282.156 399.21 283.007 400.787C283.883 402.338 284.32 404.127 284.32 406.154ZM278.879 404.652C278.853 403.301 278.366 402.225 277.415 401.425C276.464 400.599 275.301 400.186 273.924 400.186C272.623 400.186 271.522 400.586 270.622 401.387C269.746 402.163 269.208 403.251 269.008 404.652H278.879ZM305.243 395.87C306.794 395.87 308.158 396.183 309.334 396.808C310.51 397.409 311.435 398.197 312.111 399.173V396.208H317.403V417.15C317.403 419.077 317.015 420.791 316.239 422.292C315.464 423.818 314.3 425.019 312.749 425.895C311.198 426.796 309.321 427.246 307.119 427.246C304.167 427.246 301.74 426.558 299.838 425.182C297.962 423.806 296.898 421.929 296.648 419.552H301.865C302.14 420.503 302.728 421.253 303.629 421.804C304.555 422.379 305.668 422.667 306.969 422.667C308.495 422.667 309.734 422.204 310.685 421.279C311.636 420.378 312.111 419.002 312.111 417.15V413.922C311.435 414.898 310.497 415.711 309.296 416.362C308.12 417.013 306.769 417.338 305.243 417.338C303.491 417.338 301.89 416.887 300.439 415.987C298.988 415.086 297.837 413.822 296.986 412.196C296.16 410.545 295.747 408.656 295.747 406.529C295.747 404.427 296.16 402.563 296.986 400.937C297.837 399.31 298.975 398.059 300.401 397.184C301.852 396.308 303.466 395.87 305.243 395.87ZM312.111 406.604C312.111 405.328 311.861 404.24 311.36 403.339C310.86 402.413 310.184 401.712 309.334 401.237C308.483 400.737 307.57 400.486 306.594 400.486C305.618 400.486 304.717 400.724 303.892 401.199C303.066 401.675 302.39 402.375 301.865 403.301C301.365 404.202 301.114 405.278 301.114 406.529C301.114 407.78 301.365 408.881 301.865 409.832C302.39 410.757 303.066 411.47 303.892 411.971C304.742 412.471 305.643 412.721 306.594 412.721C307.57 412.721 308.483 412.484 309.334 412.008C310.184 411.508 310.86 410.807 311.36 409.907C311.861 408.981 312.111 407.88 312.111 406.604ZM331.767 417.338C329.765 417.338 327.964 416.9 326.363 416.024C324.761 415.123 323.498 413.86 322.572 412.234C321.671 410.607 321.221 408.731 321.221 406.604C321.221 404.477 321.684 402.601 322.61 400.974C323.56 399.348 324.849 398.097 326.475 397.221C328.102 396.32 329.916 395.87 331.917 395.87C333.919 395.87 335.733 396.32 337.359 397.221C338.986 398.097 340.262 399.348 341.187 400.974C342.138 402.601 342.614 404.477 342.614 406.604C342.614 408.731 342.126 410.607 341.15 412.234C340.199 413.86 338.898 415.123 337.247 416.024C335.62 416.9 333.794 417.338 331.767 417.338ZM331.767 412.759C332.718 412.759 333.606 412.534 334.432 412.083C335.283 411.608 335.958 410.907 336.458 409.982C336.959 409.056 337.209 407.93 337.209 406.604C337.209 404.627 336.684 403.114 335.633 402.063C334.607 400.987 333.343 400.449 331.842 400.449C330.341 400.449 329.077 400.987 328.052 402.063C327.051 403.114 326.55 404.627 326.55 406.604C326.55 408.581 327.038 410.107 328.014 411.183C329.015 412.234 330.266 412.759 331.767 412.759ZM352.21 411.483L347.819 422.029H344.441L346.881 411.483H352.21ZM374.173 417.338C372.171 417.338 370.37 416.9 368.768 416.024C367.167 415.123 365.903 413.86 364.978 412.234C364.077 410.607 363.626 408.731 363.626 406.604C363.626 404.477 364.089 402.601 365.015 400.974C365.966 399.348 367.254 398.097 368.881 397.221C370.507 396.32 372.321 395.87 374.323 395.87C376.324 395.87 378.138 396.32 379.765 397.221C381.391 398.097 382.667 399.348 383.593 400.974C384.544 402.601 385.019 404.477 385.019 406.604C385.019 408.731 384.531 410.607 383.555 412.234C382.605 413.86 381.303 415.123 379.652 416.024C378.026 416.9 376.199 417.338 374.173 417.338ZM374.173 412.759C375.123 412.759 376.012 412.534 376.837 412.083C377.688 411.608 378.364 410.907 378.864 409.982C379.364 409.056 379.615 407.93 379.615 406.604C379.615 404.627 379.089 403.114 378.038 402.063C377.012 400.987 375.749 400.449 374.248 400.449C372.746 400.449 371.483 400.987 370.457 402.063C369.456 403.114 368.956 404.627 368.956 406.604C368.956 408.581 369.444 410.107 370.42 411.183C371.42 412.234 372.671 412.759 374.173 412.759ZM394.128 399.436C394.803 398.335 395.679 397.471 396.755 396.846C397.856 396.22 399.107 395.908 400.508 395.908V401.425H399.119C397.468 401.425 396.217 401.813 395.366 402.588C394.54 403.364 394.128 404.715 394.128 406.641V417H388.873V396.208H394.128V399.436ZM415.654 393.731C414.729 393.731 413.953 393.443 413.328 392.868C412.727 392.267 412.427 391.529 412.427 390.653C412.427 389.778 412.727 389.052 413.328 388.477C413.953 387.876 414.729 387.576 415.654 387.576C416.58 387.576 417.343 387.876 417.944 388.477C418.569 389.052 418.882 389.778 418.882 390.653C418.882 391.529 418.569 392.267 417.944 392.868C417.343 393.443 416.58 393.731 415.654 393.731ZM418.244 396.208V417H412.99V396.208H418.244ZM434.957 395.908C437.434 395.908 439.436 396.696 440.962 398.272C442.489 399.823 443.252 402 443.252 404.802V417H437.997V405.516C437.997 403.864 437.585 402.601 436.759 401.725C435.933 400.824 434.807 400.374 433.381 400.374C431.93 400.374 430.779 400.824 429.928 401.725C429.103 402.601 428.69 403.864 428.69 405.516V417H423.435V396.208H428.69V398.798C429.39 397.897 430.279 397.196 431.354 396.696C432.455 396.17 433.656 395.908 434.957 395.908ZM463.309 400.524V410.582C463.309 411.283 463.471 411.796 463.797 412.121C464.147 412.421 464.722 412.571 465.523 412.571H467.963V417H464.66C460.231 417 458.017 414.848 458.017 410.545V400.524H455.54V396.208H458.017V391.066H463.309V396.208H467.963V400.524H463.309ZM483.451 395.908C485.028 395.908 486.429 396.258 487.655 396.959C488.881 397.634 489.832 398.647 490.507 399.999C491.208 401.325 491.558 402.926 491.558 404.802V417H486.304V405.516C486.304 403.864 485.891 402.601 485.065 401.725C484.24 400.824 483.114 400.374 481.687 400.374C480.236 400.374 479.085 400.824 478.235 401.725C477.409 402.601 476.996 403.864 476.996 405.516V417H471.742V389.227H476.996V398.798C477.672 397.897 478.572 397.196 479.698 396.696C480.824 396.17 482.075 395.908 483.451 395.908ZM515.883 406.154C515.883 406.904 515.833 407.58 515.733 408.18H500.533C500.658 409.681 501.183 410.857 502.109 411.708C503.035 412.559 504.173 412.984 505.525 412.984C507.476 412.984 508.865 412.146 509.69 410.47H515.358C514.757 412.471 513.606 414.123 511.905 415.424C510.203 416.7 508.114 417.338 505.637 417.338C503.635 417.338 501.834 416.9 500.233 416.024C498.656 415.123 497.418 413.86 496.517 412.234C495.641 410.607 495.204 408.731 495.204 406.604C495.204 404.452 495.641 402.563 496.517 400.937C497.393 399.31 498.619 398.059 500.195 397.184C501.771 396.308 503.585 395.87 505.637 395.87C507.614 395.87 509.378 396.295 510.929 397.146C512.505 397.997 513.719 399.21 514.569 400.787C515.445 402.338 515.883 404.127 515.883 406.154ZM510.441 404.652C510.416 403.301 509.928 402.225 508.977 401.425C508.027 400.599 506.863 400.186 505.487 400.186C504.186 400.186 503.085 400.586 502.184 401.387C501.309 402.163 500.771 403.251 500.57 404.652H510.441ZM527.31 406.604C527.31 404.452 527.748 402.576 528.624 400.974C529.499 399.348 530.713 398.097 532.264 397.221C533.815 396.32 535.592 395.87 537.593 395.87C540.171 395.87 542.297 396.521 543.974 397.822C545.675 399.098 546.814 400.899 547.389 403.226H541.722C541.422 402.325 540.909 401.625 540.183 401.124C539.483 400.599 538.607 400.336 537.556 400.336C536.055 400.336 534.866 400.887 533.991 401.988C533.115 403.064 532.677 404.602 532.677 406.604C532.677 408.581 533.115 410.119 533.991 411.22C534.866 412.296 536.055 412.834 537.556 412.834C539.683 412.834 541.071 411.883 541.722 409.982H547.389C546.814 412.234 545.675 414.023 543.974 415.349C542.272 416.675 540.146 417.338 537.593 417.338C535.592 417.338 533.815 416.9 532.264 416.024C530.713 415.123 529.499 413.872 528.624 412.271C527.748 410.645 527.31 408.756 527.31 406.604ZM560.471 417.338C558.469 417.338 556.668 416.9 555.066 416.024C553.465 415.123 552.202 413.86 551.276 412.234C550.375 410.607 549.925 408.731 549.925 406.604C549.925 404.477 550.388 402.601 551.313 400.974C552.264 399.348 553.553 398.097 555.179 397.221C556.805 396.32 558.619 395.87 560.621 395.87C562.623 395.87 564.437 396.32 566.063 397.221C567.689 398.097 568.965 399.348 569.891 400.974C570.842 402.601 571.317 404.477 571.317 406.604C571.317 408.731 570.829 410.607 569.854 412.234C568.903 413.86 567.602 415.123 565.95 416.024C564.324 416.9 562.498 417.338 560.471 417.338ZM560.471 412.759C561.422 412.759 562.31 412.534 563.136 412.083C563.986 411.608 564.662 410.907 565.162 409.982C565.663 409.056 565.913 407.93 565.913 406.604C565.913 404.627 565.387 403.114 564.337 402.063C563.311 400.987 562.047 400.449 560.546 400.449C559.045 400.449 557.781 400.987 556.755 402.063C555.755 403.114 555.254 404.627 555.254 406.604C555.254 408.581 555.742 410.107 556.718 411.183C557.719 412.234 558.97 412.759 560.471 412.759ZM600.993 395.908C603.545 395.908 605.597 396.696 607.148 398.272C608.724 399.823 609.512 402 609.512 404.802V417H604.258V405.516C604.258 403.889 603.845 402.651 603.019 401.8C602.194 400.924 601.068 400.486 599.642 400.486C598.216 400.486 597.077 400.924 596.226 401.8C595.401 402.651 594.988 403.889 594.988 405.516V417H589.734V405.516C589.734 403.889 589.321 402.651 588.495 401.8C587.669 400.924 586.543 400.486 585.117 400.486C583.666 400.486 582.515 400.924 581.664 401.8C580.839 402.651 580.426 403.889 580.426 405.516V417H575.172V396.208H580.426V398.722C581.101 397.847 581.965 397.159 583.016 396.658C584.091 396.158 585.267 395.908 586.543 395.908C588.17 395.908 589.621 396.258 590.897 396.959C592.173 397.634 593.161 398.61 593.862 399.886C594.538 398.685 595.513 397.722 596.789 396.996C598.09 396.27 599.492 395.908 600.993 395.908ZM624.031 400.524H620.391V417H615.061V400.524H612.697V396.208H615.061V395.157C615.061 392.605 615.787 390.728 617.238 389.527C618.689 388.326 620.879 387.763 623.806 387.839V392.267C622.53 392.242 621.642 392.455 621.141 392.905C620.641 393.356 620.391 394.169 620.391 395.345V396.208H624.031V400.524ZM636.669 417.338C634.667 417.338 632.866 416.9 631.264 416.024C629.663 415.123 628.4 413.86 627.474 412.234C626.573 410.607 626.123 408.731 626.123 406.604C626.123 404.477 626.586 402.601 627.511 400.974C628.462 399.348 629.751 398.097 631.377 397.221C633.003 396.32 634.817 395.87 636.819 395.87C638.821 395.87 640.635 396.32 642.261 397.221C643.887 398.097 645.163 399.348 646.089 400.974C647.04 402.601 647.515 404.477 647.515 406.604C647.515 408.731 647.027 410.607 646.052 412.234C645.101 413.86 643.8 415.123 642.148 416.024C640.522 416.9 638.696 417.338 636.669 417.338ZM636.669 412.759C637.62 412.759 638.508 412.534 639.334 412.083C640.184 411.608 640.86 410.907 641.36 409.982C641.861 409.056 642.111 407.93 642.111 406.604C642.111 404.627 641.585 403.114 640.535 402.063C639.509 400.987 638.245 400.449 636.744 400.449C635.243 400.449 633.979 400.987 632.953 402.063C631.952 403.114 631.452 404.627 631.452 406.604C631.452 408.581 631.94 410.107 632.916 411.183C633.917 412.234 635.168 412.759 636.669 412.759ZM656.624 399.436C657.299 398.335 658.175 397.471 659.251 396.846C660.352 396.22 661.603 395.908 663.004 395.908V401.425H661.615C659.964 401.425 658.713 401.813 657.862 402.588C657.037 403.364 656.624 404.715 656.624 406.641V417H651.37V396.208H656.624V399.436ZM672.661 400.524V410.582C672.661 411.283 672.823 411.796 673.149 412.121C673.499 412.421 674.074 412.571 674.875 412.571H677.314V417H674.012C669.583 417 667.369 414.848 667.369 410.545V400.524H664.892V396.208H667.369V391.066H672.661V396.208H677.314V400.524H672.661ZM699.269 417.338C697.268 417.338 695.466 416.9 693.865 416.024C692.263 415.123 691 413.86 690.074 412.234C689.173 410.607 688.723 408.731 688.723 406.604C688.723 404.477 689.186 402.601 690.112 400.974C691.062 399.348 692.351 398.097 693.977 397.221C695.604 396.32 697.418 395.87 699.419 395.87C701.421 395.87 703.235 396.32 704.861 397.221C706.488 398.097 707.764 399.348 708.689 400.974C709.64 402.601 710.116 404.477 710.116 406.604C710.116 408.731 709.628 410.607 708.652 412.234C707.701 413.86 706.4 415.123 704.749 416.024C703.122 416.9 701.296 417.338 699.269 417.338ZM699.269 412.759C700.22 412.759 701.108 412.534 701.934 412.083C702.785 411.608 703.46 410.907 703.961 409.982C704.461 409.056 704.711 407.93 704.711 406.604C704.711 404.627 704.186 403.114 703.135 402.063C702.109 400.987 700.845 400.449 699.344 400.449C697.843 400.449 696.579 400.987 695.554 402.063C694.553 403.114 694.052 404.627 694.052 406.604C694.052 408.581 694.54 410.107 695.516 411.183C696.517 412.234 697.768 412.759 699.269 412.759ZM723.503 400.524H719.862V417H714.533V400.524H712.168V396.208H714.533V395.157C714.533 392.605 715.258 390.728 716.71 389.527C718.161 388.326 720.35 387.763 723.277 387.839V392.267C722.001 392.242 721.113 392.455 720.613 392.905C720.112 393.356 719.862 394.169 719.862 395.345V396.208H723.503V400.524ZM755.742 396.208L742.869 426.833H737.277L741.78 416.475L733.449 396.208H739.341L744.708 410.732L750.15 396.208H755.742ZM767.807 417.338C765.805 417.338 764.004 416.9 762.403 416.024C760.801 415.123 759.538 413.86 758.612 412.234C757.711 410.607 757.261 408.731 757.261 406.604C757.261 404.477 757.724 402.601 758.649 400.974C759.6 399.348 760.889 398.097 762.515 397.221C764.142 396.32 765.956 395.87 767.957 395.87C769.959 395.87 771.773 396.32 773.399 397.221C775.025 398.097 776.302 399.348 777.227 400.974C778.178 402.601 778.653 404.477 778.653 406.604C778.653 408.731 778.166 410.607 777.19 412.234C776.239 413.86 774.938 415.123 773.287 416.024C771.66 416.9 769.834 417.338 767.807 417.338ZM767.807 412.759C768.758 412.759 769.646 412.534 770.472 412.083C771.322 411.608 771.998 410.907 772.498 409.982C772.999 409.056 773.249 407.93 773.249 406.604C773.249 404.627 772.724 403.114 771.673 402.063C770.647 400.987 769.383 400.449 767.882 400.449C766.381 400.449 765.117 400.987 764.091 402.063C763.091 403.114 762.59 404.627 762.59 406.604C762.59 408.581 763.078 410.107 764.054 411.183C765.055 412.234 766.306 412.759 767.807 412.759ZM802.136 396.208V417H796.844V414.373C796.169 415.274 795.281 415.987 794.18 416.512C793.104 417.013 791.928 417.263 790.652 417.263C789.026 417.263 787.587 416.925 786.336 416.249C785.085 415.549 784.096 414.535 783.371 413.209C782.67 411.858 782.32 410.257 782.32 408.405V396.208H787.574V407.655C787.574 409.306 787.987 410.582 788.813 411.483C789.639 412.359 790.764 412.797 792.191 412.797C793.642 412.797 794.78 412.359 795.606 411.483C796.432 410.582 796.844 409.306 796.844 407.655V396.208H802.136ZM812.575 399.436C813.25 398.335 814.126 397.471 815.202 396.846C816.303 396.22 817.554 395.908 818.955 395.908V401.425H817.567C815.915 401.425 814.664 401.813 813.813 402.588C812.988 403.364 812.575 404.715 812.575 406.641V417H807.321V396.208H812.575V399.436ZM843.147 395.908C844.723 395.908 846.124 396.258 847.35 396.959C848.576 397.634 849.527 398.647 850.203 399.999C850.903 401.325 851.253 402.926 851.253 404.802V417H845.999V405.516C845.999 403.864 845.586 402.601 844.761 401.725C843.935 400.824 842.809 400.374 841.383 400.374C839.932 400.374 838.781 400.824 837.93 401.725C837.104 402.601 836.691 403.864 836.691 405.516V417H831.437V389.227H836.691V398.798C837.367 397.897 838.268 397.196 839.394 396.696C840.52 396.17 841.771 395.908 843.147 395.908ZM865.483 417.338C863.481 417.338 861.679 416.9 860.078 416.024C858.477 415.123 857.213 413.86 856.288 412.234C855.387 410.607 854.936 408.731 854.936 406.604C854.936 404.477 855.399 402.601 856.325 400.974C857.276 399.348 858.564 398.097 860.191 397.221C861.817 396.32 863.631 395.87 865.633 395.87C867.634 395.87 869.448 396.32 871.075 397.221C872.701 398.097 873.977 399.348 874.903 400.974C875.854 402.601 876.329 404.477 876.329 406.604C876.329 408.731 875.841 410.607 874.865 412.234C873.915 413.86 872.613 415.123 870.962 416.024C869.336 416.9 867.509 417.338 865.483 417.338ZM865.483 412.759C866.433 412.759 867.322 412.534 868.147 412.083C868.998 411.608 869.674 410.907 870.174 409.982C870.674 409.056 870.925 407.93 870.925 406.604C870.925 404.627 870.399 403.114 869.348 402.063C868.322 400.987 867.059 400.449 865.558 400.449C864.056 400.449 862.793 400.987 861.767 402.063C860.766 403.114 860.266 404.627 860.266 406.604C860.266 408.581 860.754 410.107 861.729 411.183C862.73 412.234 863.981 412.759 865.483 412.759ZM906.005 395.908C908.557 395.908 910.608 396.696 912.16 398.272C913.736 399.823 914.524 402 914.524 404.802V417H909.27V405.516C909.27 403.889 908.857 402.651 908.031 401.8C907.205 400.924 906.08 400.486 904.653 400.486C903.227 400.486 902.089 400.924 901.238 401.8C900.412 402.651 900 403.889 900 405.516V417H894.745V405.516C894.745 403.889 894.332 402.651 893.507 401.8C892.681 400.924 891.555 400.486 890.129 400.486C888.678 400.486 887.527 400.924 886.676 401.8C885.85 402.651 885.438 403.889 885.438 405.516V417H880.183V396.208H885.438V398.722C886.113 397.847 886.976 397.159 888.027 396.658C889.103 396.158 890.279 395.908 891.555 395.908C893.181 395.908 894.633 396.258 895.909 396.959C897.185 397.634 898.173 398.61 898.874 399.886C899.549 398.685 900.525 397.722 901.801 396.996C903.102 396.27 904.503 395.908 906.005 395.908ZM938.838 406.154C938.838 406.904 938.788 407.58 938.688 408.18H923.488C923.613 409.681 924.139 410.857 925.065 411.708C925.99 412.559 927.129 412.984 928.48 412.984C930.432 412.984 931.82 412.146 932.646 410.47H938.313C937.713 412.471 936.562 414.123 934.86 415.424C933.159 416.7 931.07 417.338 928.593 417.338C926.591 417.338 924.789 416.9 923.188 416.024C921.612 415.123 920.373 413.86 919.473 412.234C918.597 410.607 918.159 408.731 918.159 406.604C918.159 404.452 918.597 402.563 919.473 400.937C920.348 399.31 921.574 398.059 923.151 397.184C924.727 396.308 926.541 395.87 928.593 395.87C930.569 395.87 932.333 396.295 933.884 397.146C935.461 397.997 936.674 399.21 937.525 400.787C938.401 402.338 938.838 404.127 938.838 406.154ZM933.396 404.652C933.371 403.301 932.884 402.225 931.933 401.425C930.982 400.599 929.819 400.186 928.442 400.186C927.141 400.186 926.04 400.586 925.14 401.387C924.264 402.163 923.726 403.251 923.526 404.652H933.396ZM949.467 390.353L948.866 408.48H944.438L943.8 390.353H949.467ZM946.764 417.263C945.814 417.263 945.026 416.975 944.4 416.4C943.8 415.799 943.499 415.061 943.499 414.185C943.499 413.309 943.8 412.584 944.4 412.008C945.026 411.408 945.814 411.108 946.764 411.108C947.69 411.108 948.453 411.408 949.054 412.008C949.654 412.584 949.955 413.309 949.955 414.185C949.955 415.061 949.654 415.799 949.054 416.4C948.453 416.975 947.69 417.263 946.764 417.263Z" fill="black"/>
<path d="M587.891 891.607L640.979 797.292C643.618 792.602 650.371 792.602 653.011 797.292L706.098 891.607C708.689 896.209 705.363 901.897 700.082 901.897H593.908C588.626 901.897 585.301 896.209 587.891 891.607Z" fill="black"/>
<rect x="358.5" y="509.5" width="587" height="324.311" rx="4.40379" fill="#0088EB" stroke="black" stroke-width="5"/>
<path d="M546.214 521.843L550.831 531.738L560.726 536.355L550.831 540.973L546.214 550.867L541.596 540.973L531.701 536.355L541.596 531.738L546.214 521.843Z" fill="#0081DE"/>
<path d="M544.023 559.814L548.496 562.944L553.935 562.47L550.805 566.943L551.279 572.382L546.806 569.252L541.367 569.726L544.497 565.253L544.023 559.814Z" fill="#0081DE"/>
<path d="M395.697 800.756V671.31C395.697 667.497 398.788 664.406 402.601 664.406H669.087C672.9 664.406 675.991 667.497 675.991 671.31V800.756C675.991 804.569 672.9 807.66 669.087 807.66H402.601C398.788 807.66 395.697 804.569 395.697 800.756Z" fill="#2F9DED" fill-opacity="0.5"/>
<path d="M594.526 770.565V545.624C594.526 541.069 598.218 537.377 602.773 537.377H920.906C925.461 537.377 929.154 541.069 929.154 545.624V770.565C929.154 775.119 925.461 778.812 920.906 778.812H602.773C598.218 778.812 594.526 775.119 594.526 770.565Z" fill="#2F9DED" fill-opacity="0.8"/>
<path d="M594.526 545.83C594.526 541.275 598.218 537.583 602.773 537.583H921.113C925.668 537.583 929.36 541.275 929.36 545.83V558.613H594.526V545.83Z" fill="black"/>
<path d="M883.588 547.067H876.166" stroke="white" stroke-width="1.23707" stroke-linecap="round"/>
<path d="M895.134 546.077V544.181C895.134 543.953 895.319 543.768 895.546 543.768H902.144C902.372 543.768 902.556 543.953 902.556 544.181V546.077M895.134 546.077V549.954C895.134 550.181 895.319 550.366 895.546 550.366H902.144C902.372 550.366 902.556 550.181 902.556 549.954V546.077M895.134 546.077H902.556" stroke="white" stroke-width="1.23707" stroke-linecap="round"/>
<path d="M914.103 543.768L917.401 547.067L920.7 550.366M920.7 543.768L914.103 550.366" stroke="white" stroke-width="1.23707" stroke-linecap="round"/>
<rect x="617.618" y="582.942" width="206.178" height="138.552" rx="8.24714" fill="white"/>
<circle cx="844.414" cy="592.839" r="5.36064" fill="white"/>
<circle cx="844.414" cy="617.992" r="5.36064" fill="white"/>
<path d="M854.517 588.715H880.289M854.517 593.045H893.691M854.517 596.756H905.237M898.433 593.045H911.01M911.01 596.756H908.123M854.517 600.261H867.919M857.61 615.518H893.691M857.61 619.436H903.175M908.123 619.436H914.515M857.61 623.147H866.269M870.187 623.147H911.01" stroke="white" stroke-width="1.23707" stroke-linecap="round"/>
<circle cx="844.414" cy="643.146" r="5.36064" fill="white"/>
<rect x="731.077" y="590.191" width="80.3754" height="47.8053" rx="11.2304" fill="#CC4141"/>
<path d="M749.639 618.338H755.406V622.866H743.655V603.783H749.639V618.338ZM763.273 603.783V622.866H757.289V603.783H763.273ZM785.193 603.783L778.778 622.866H771.043L764.628 603.783H770.989L774.924 616.909L778.832 603.783H785.193ZM792.516 608.554V610.899H798.446V615.4H792.516V618.095H799.254V622.866H786.532V603.783H799.254V608.554H792.516Z" fill="white"/>
<path d="M563.114 554.816L572.524 560.249M581.934 565.682L572.524 560.249M572.524 560.249L577.957 550.839M572.524 560.249L567.091 569.659" stroke="white" stroke-opacity="0.5" stroke-width="5.17784" stroke-linecap="round"/>
<rect x="110" y="751.826" width="439.682" height="242.447" fill="#0088EB"/>
<path d="M549.682 904.601V765.337C549.682 752.804 538.802 749.235 533.362 749.017H128.626C122.606 748.727 110.565 751.933 110.565 767.078V868.045M549.682 929.408V960.742V977.715C549.682 994.949 541.848 994.035 533.362 994.035H202.61H131.89C115.352 994.035 110.565 990.553 110.565 972.71V894.592" stroke="black" stroke-width="4.352" stroke-linecap="round"/>
<rect width="60.0575" height="13.056" transform="translate(300.747 757.504)" fill="#0088EB"/>
<circle cx="307.275" cy="764.032" r="6.52799" fill="black"/>
<path d="M320.767 764.032H360.805" stroke="black" stroke-width="4.352" stroke-linecap="round"/>
<path d="M364 749.054H533.003C538.668 748.55 550 751.373 550 766.702C550 782.03 550 803.621 550 829" stroke="white" stroke-width="5" stroke-linecap="square" stroke-linejoin="round"/>
<rect x="427.046" y="770.475" width="94.0678" height="55.9492" rx="13.1436" fill="#CC4141"/>
<path d="M448.769 804.478H455.52V809.777H441.766V787.443H448.769V804.478ZM464.726 787.443V809.777H457.723V787.443H464.726ZM490.38 787.443L482.873 809.777H473.819L466.312 787.443H473.756L478.362 802.806L482.936 787.443H490.38ZM498.951 793.027V795.771H505.891V801.039H498.951V804.194H506.837V809.777H491.948V787.443H506.837V793.027H498.951Z" fill="white"/>
<path d="M321.881 827.498L222.949 849.612C220.403 850.181 218.44 852.209 217.954 854.771L209.132 901.288C208.483 904.711 210.633 908.041 214.019 908.858L321.774 934.858C325.885 935.85 329.841 932.735 329.841 928.506V833.875C329.841 829.691 325.964 826.585 321.881 827.498Z" fill="#BFDCFF"/>
<path d="M222.569 810.036C201.299 828.659 184.588 837.807 162.558 837.807C162.558 905.766 189.35 925.696 222.569 946.606C254.694 930.27 284.099 907.726 284.099 837.807C263.589 837.807 243.839 828.332 222.569 810.036Z" fill="#0081DE" stroke="white" stroke-width="19.4748" stroke-linejoin="round"/>
<path d="M222.569 810.036C201.299 828.659 184.588 837.807 162.558 837.807C162.558 905.766 189.35 925.696 222.569 946.606C254.694 930.27 284.099 907.726 284.099 837.807C263.589 837.807 243.839 828.332 222.569 810.036Z" fill="#0081DE" stroke="#0081DE" stroke-width="13.0689" stroke-linejoin="round"/>
<mask id="mask0_455_151" style="mask-type:alpha" maskUnits="userSpaceOnUse" x="209" y="827" width="121" height="109">
<path d="M321.881 827.498L222.949 849.612C220.403 850.181 218.44 852.209 217.954 854.771L209.132 901.288C208.483 904.711 210.633 908.041 214.019 908.858L321.774 934.858C325.885 935.85 329.841 932.735 329.841 928.506V833.875C329.841 829.691 325.964 826.585 321.881 827.498Z" fill="#7AB7FF"/>
</mask>
<g mask="url(#mask0_455_151)">
<path d="M222.569 810.036C201.299 828.659 184.587 837.807 162.558 837.807C162.558 905.766 189.349 925.696 222.569 946.606C254.694 930.27 284.099 907.726 284.099 837.807C263.589 837.807 243.839 828.332 222.569 810.036Z" fill="#76B5FF" stroke="#76B5FF" stroke-width="13.0689" stroke-linejoin="round"/>
</g>
<path fill-rule="evenodd" clip-rule="evenodd" d="M234.015 881.036C233.907 880.546 234.092 880.041 234.47 879.712C238.053 876.598 240.319 872.006 240.319 866.885C240.319 857.502 232.712 849.896 223.329 849.896C213.946 849.896 206.339 857.502 206.339 866.885C206.339 872.161 208.744 876.876 212.518 879.992C212.914 880.319 213.111 880.836 213 881.338L207.539 906.072C207.359 906.888 207.98 907.66 208.815 907.66H238.266C239.102 907.66 239.723 906.888 239.543 906.072L234.015 881.036Z" fill="white"/>
<path d="M972.232 832L983.443 856.021L1007.46 867.232L983.443 878.443L972.232 902.464L961.021 878.443L937 867.232L961.021 856.021L972.232 832Z" fill="black"/>
<path d="M0.383972 538L40.9173 624.851L127.768 665.384L40.9173 705.917L0.383972 792.768L-40.1494 705.917L-127 665.384L-40.1494 624.851L0.383972 538Z" fill="#F4EEEA"/>
<path d="M919.616 873L925.221 885.011L937.232 890.616L925.221 896.221L919.616 908.232L914.011 896.221L902 890.616L914.011 885.011L919.616 873Z" fill="black"/>
<path d="M671.692 60L679.549 76.835L696.384 84.692L679.549 92.5489L671.692 109.384L663.835 92.5489L647 84.692L663.835 76.835L671.692 60Z" fill="#F4EEEA"/>
</g>
<defs>
<clipPath id="clip0_455_151">
<rect width="1080" height="1080" fill="white"/>
</clipPath>
</defs>
</svg>
