<svg width="1080" height="1080" viewBox="0 0 1080 1080" fill="none" xmlns="http://www.w3.org/2000/svg">
<g clip-path="url(#clip0_455_152)">
<rect width="1080" height="1080" fill="#FFFAF7"/>
<path d="M1511.09 681.203C1797.48 472.923 2063.03 435.512 2160 442.841V1030H-1080C-870.252 902.574 -651.566 813.126 -369.58 813.126C47 813.126 223.5 964.299 583.361 982.528C1027 1005 1153.11 941.551 1511.09 681.203Z" fill="#0088EB" fill-opacity="0.3"/>
<path d="M1511.09 703.203C1797.48 494.923 2063.03 457.512 2160 464.841V1052H-1080C-870.252 924.574 -651.566 835.126 -369.58 835.126C47 835.126 223.5 986.299 583.361 1004.53C1027 1027 1153.11 963.551 1511.09 703.203Z" fill="#0088EB" fill-opacity="0.6"/>
<path d="M1511.09 731.203C1797.48 522.923 2063.03 485.512 2160 492.841V1080H-1080C-870.252 952.574 -651.566 863.126 -369.58 863.126C47 863.126 223.5 1014.3 583.361 1032.53C1027 1055 1153.11 991.551 1511.09 731.203Z" fill="#0088EB"/>
<path d="M1080.38 538L1120.92 624.851L1207.77 665.384L1120.92 705.917L1080.38 792.768L1039.85 705.917L953 665.384L1039.85 624.851L1080.38 538Z" fill="#F4EEEA"/>
<path d="M0.307983 662L23.9526 712.663L74.616 736.308L23.9526 759.953L0.307983 810.616L-23.3367 759.953L-74 736.308L-23.3367 712.663L0.307983 662Z" fill="#F4EEEA"/>
<path d="M84.6617 98.8111V113.096H120.785V140.517H84.6617V156.937H125.711V186H48.2099V69.7481H125.711V98.8111H84.6617ZM221.547 69.7481V98.6469H175.9V114.738H208.74V142.159H175.9V186H139.449V69.7481H221.547ZM315.993 69.7481V98.6469H270.346V114.738H303.186V142.159H270.346V186H233.894V69.7481H315.993ZM384.988 187.149C374.042 187.149 363.971 184.577 354.776 179.432C345.69 174.287 338.465 167.172 333.102 158.086C327.738 149.001 325.056 138.766 325.056 127.381C325.056 115.997 327.738 105.762 333.102 96.6765C338.465 87.5909 345.69 80.5304 354.776 75.495C363.971 70.3502 374.042 67.7777 384.988 67.7777C395.935 67.7777 405.951 70.3502 415.036 75.495C424.122 80.5304 431.292 87.5909 436.546 96.6765C441.91 105.762 444.592 115.997 444.592 127.381C444.592 138.766 441.91 149.001 436.546 158.086C431.292 167.172 424.067 174.287 414.872 179.432C405.786 184.577 395.825 187.149 384.988 187.149ZM384.988 153.16C392.213 153.16 397.796 150.862 401.736 146.264C405.677 141.557 407.647 135.263 407.647 127.381C407.647 119.391 405.677 113.096 401.736 108.499C397.796 103.792 392.213 101.438 384.988 101.438C377.654 101.438 372.017 103.792 368.076 108.499C364.135 113.096 362.165 119.391 362.165 127.381C362.165 135.263 364.135 141.557 368.076 146.264C372.017 150.862 377.654 153.16 384.988 153.16ZM516.196 186L494.358 144.294H494.194V186H457.742V69.7481H511.927C521.341 69.7481 529.387 71.4448 536.064 74.8382C542.741 78.1222 547.722 82.665 551.006 88.4666C554.399 94.1588 556.096 100.617 556.096 107.842C556.096 115.614 553.907 122.51 549.528 128.531C545.259 134.551 539.074 138.875 530.974 141.502L556.26 186H516.196ZM494.194 119.993H508.643C512.146 119.993 514.773 119.226 516.524 117.694C518.276 116.052 519.152 113.534 519.152 110.141C519.152 107.076 518.221 104.667 516.36 102.916C514.609 101.165 512.036 100.289 508.643 100.289H494.194V119.993ZM659.035 69.7481V98.6469H628.166V186H591.714V98.6469H561.173V69.7481H659.035ZM705.374 158.415H740.512V186H668.922V69.7481H705.374V158.415ZM788.434 98.8111V113.096H824.558V140.517H788.434V156.937H829.484V186H751.983V69.7481H829.484V98.8111H788.434ZM888.704 187.149C874.802 187.149 863.308 183.92 854.222 177.462C845.246 170.894 840.375 161.316 839.609 148.727H878.36C878.907 155.405 881.862 158.743 887.226 158.743C889.197 158.743 890.839 158.305 892.152 157.43C893.575 156.444 894.287 154.967 894.287 152.996C894.287 150.26 892.809 148.07 889.853 146.428C886.898 144.677 882.3 142.707 876.061 140.517C868.617 137.89 862.432 135.318 857.506 132.8C852.69 130.282 848.53 126.615 845.027 121.799C841.525 116.982 839.828 110.798 839.937 103.244C839.937 95.6913 841.853 89.2876 845.684 84.0333C849.625 78.6695 854.934 74.6193 861.611 71.8827C868.398 69.146 876.006 67.7777 884.435 67.7777C898.665 67.7777 909.94 71.0617 918.26 77.6296C926.688 84.1975 931.122 93.4473 931.56 105.379H892.316C892.207 102.095 891.386 99.7415 889.853 98.3185C888.321 96.8954 886.46 96.1839 884.271 96.1839C882.738 96.1839 881.479 96.7312 880.494 97.8259C879.509 98.8111 879.016 100.234 879.016 102.095C879.016 104.722 880.439 106.911 883.285 108.663C886.241 110.305 890.893 112.33 897.242 114.738C904.576 117.475 910.597 120.102 915.304 122.62C920.12 125.137 924.28 128.64 927.783 133.128C931.286 137.616 933.037 143.254 933.037 150.041C933.037 157.156 931.286 163.56 927.783 169.252C924.28 174.835 919.19 179.213 912.513 182.388C905.835 185.562 897.899 187.149 888.704 187.149ZM991.328 187.149C977.425 187.149 965.932 183.92 956.846 177.462C947.87 170.894 942.999 161.316 942.232 148.727H980.983C981.53 155.405 984.486 158.743 989.85 158.743C991.82 158.743 993.462 158.305 994.776 157.43C996.199 156.444 996.91 154.967 996.91 152.996C996.91 150.26 995.432 148.07 992.477 146.428C989.521 144.677 984.924 142.707 978.684 140.517C971.241 137.89 965.056 135.318 960.13 132.8C955.313 130.282 951.154 126.615 947.651 121.799C944.148 116.982 942.451 110.798 942.561 103.244C942.561 95.6913 944.476 89.2876 948.308 84.0333C952.248 78.6695 957.558 74.6193 964.235 71.8827C971.022 69.146 978.63 67.7777 987.058 67.7777C1001.29 67.7777 1012.56 71.0617 1020.88 77.6296C1029.31 84.1975 1033.75 93.4473 1034.18 105.379H994.94C994.83 102.095 994.009 99.7415 992.477 98.3185C990.944 96.8954 989.083 96.1839 986.894 96.1839C985.362 96.1839 984.103 96.7312 983.118 97.8259C982.132 98.8111 981.64 100.234 981.64 102.095C981.64 104.722 983.063 106.911 985.909 108.663C988.865 110.305 993.517 112.33 999.866 114.738C1007.2 117.475 1013.22 120.102 1017.93 122.62C1022.74 125.137 1026.9 128.64 1030.41 133.128C1033.91 137.616 1035.66 143.254 1035.66 150.041C1035.66 157.156 1033.91 163.56 1030.41 169.252C1026.9 174.835 1021.81 179.213 1015.14 182.388C1008.46 185.562 1000.52 187.149 991.328 187.149Z" fill="#0088EB"/>
<path d="M124.726 345.883L113.561 327.493C111.043 327.93 108.142 328.149 104.858 328.149C93.9115 328.149 83.8408 325.577 74.6457 320.432C65.5601 315.287 58.3354 308.172 52.9716 299.086C47.6078 290.001 44.9259 279.766 44.9259 268.381C44.9259 256.997 47.6078 246.762 52.9716 237.677C58.3354 228.591 65.5601 221.53 74.6457 216.495C83.8408 211.35 93.9115 208.778 104.858 208.778C115.805 208.778 125.821 211.35 134.906 216.495C143.992 221.53 151.162 228.591 156.416 237.677C161.78 246.762 164.462 256.997 164.462 268.381C164.462 277.686 162.656 286.279 159.043 294.16C155.431 301.933 150.45 308.555 144.101 314.028L167.746 345.883H124.726ZM82.0346 268.381C82.0346 276.263 84.005 282.557 87.9457 287.264C91.8864 291.862 97.5239 294.16 104.858 294.16C112.083 294.16 117.665 291.862 121.606 287.264C125.547 282.557 127.517 276.263 127.517 268.381C127.517 260.391 125.547 254.096 121.606 249.499C117.665 244.792 112.083 242.438 104.858 242.438C97.5239 242.438 91.8864 244.792 87.9457 249.499C84.005 254.096 82.0346 260.391 82.0346 268.381ZM213.243 210.748V276.263C213.243 281.627 214.392 285.896 216.691 289.07C219.099 292.135 222.93 293.668 228.185 293.668C233.439 293.668 237.325 292.135 239.843 289.07C242.36 285.896 243.619 281.627 243.619 276.263V210.748H279.907V276.263C279.907 287.319 277.608 296.788 273.01 304.669C268.413 312.441 262.119 318.298 254.128 322.238C246.137 326.179 237.215 328.149 227.364 328.149C217.512 328.149 208.754 326.179 201.092 322.238C193.539 318.298 187.628 312.441 183.359 304.669C179.089 296.897 176.955 287.428 176.955 276.263V210.748H213.243ZM370.174 309.431H331.424L325.677 327H287.419L329.946 210.748H371.981L414.344 327H375.921L370.174 309.431ZM361.308 282.01L350.799 249.663L340.29 282.01H361.308ZM459.077 299.415H494.215V327H422.625V210.748H459.077V299.415ZM542.138 210.748V327H505.686V210.748H542.138ZM649.895 210.748V239.647H619.026V327H582.574V239.647H552.033V210.748H649.895ZM771.436 210.748L729.73 291.698V327H693.278V291.698L651.572 210.748H693.278L711.832 251.962L730.387 210.748H771.436Z" fill="black"/>
<path opacity="0.8" d="M68.1007 398L62.321 387.792H59.844V398H54.5896V371.803H64.4227C66.4494 371.803 68.1758 372.166 69.602 372.892C71.0282 373.592 72.0915 374.556 72.7921 375.782C73.5177 376.983 73.8805 378.334 73.8805 379.835C73.8805 381.561 73.3801 383.125 72.3793 384.526C71.3784 385.903 69.8897 386.853 67.9131 387.379L74.1807 398H68.1007ZM59.844 383.851H64.2351C65.6612 383.851 66.7246 383.513 67.4252 382.838C68.1258 382.137 68.4761 381.174 68.4761 379.948C68.4761 378.747 68.1258 377.821 67.4252 377.17C66.7246 376.495 65.6612 376.157 64.2351 376.157H59.844V383.851ZM97.9613 387.154C97.9613 387.904 97.9112 388.58 97.8111 389.18H82.6111C82.7362 390.681 83.2617 391.857 84.1874 392.708C85.1132 393.559 86.2516 393.984 87.6027 393.984C89.5543 393.984 90.943 393.146 91.7687 391.47H97.4358C96.8353 393.471 95.6844 395.123 93.983 396.424C92.2816 397.7 90.1924 398.338 87.7153 398.338C85.7137 398.338 83.9122 397.9 82.3109 397.024C80.7346 396.123 79.4961 394.86 78.5953 393.234C77.7196 391.607 77.2817 389.731 77.2817 387.604C77.2817 385.452 77.7196 383.563 78.5953 381.937C79.471 380.31 80.697 379.059 82.2733 378.184C83.8496 377.308 85.6636 376.87 87.7153 376.87C89.6919 376.87 91.4559 377.295 93.0072 378.146C94.5835 378.997 95.797 380.21 96.6477 381.787C97.5234 383.338 97.9613 385.127 97.9613 387.154ZM92.5193 385.652C92.4943 384.301 92.0064 383.225 91.0556 382.425C90.1048 381.599 88.9413 381.186 87.5652 381.186C86.2641 381.186 85.1632 381.586 84.2625 382.387C83.3868 383.163 82.8488 384.251 82.6487 385.652H92.5193ZM127.618 376.908C130.17 376.908 132.221 377.696 133.773 379.272C135.349 380.823 136.137 383 136.137 385.802V398H130.883V386.516C130.883 384.889 130.47 383.651 129.644 382.8C128.819 381.924 127.693 381.486 126.267 381.486C124.84 381.486 123.702 381.924 122.851 382.8C122.026 383.651 121.613 384.889 121.613 386.516V398H116.358V386.516C116.358 384.889 115.946 383.651 115.12 382.8C114.294 381.924 113.168 381.486 111.742 381.486C110.291 381.486 109.14 381.924 108.289 382.8C107.464 383.651 107.051 384.889 107.051 386.516V398H101.796V377.208H107.051V379.722C107.726 378.847 108.59 378.159 109.64 377.658C110.716 377.158 111.892 376.908 113.168 376.908C114.795 376.908 116.246 377.258 117.522 377.959C118.798 378.634 119.786 379.61 120.487 380.886C121.162 379.685 122.138 378.722 123.414 377.996C124.715 377.27 126.116 376.908 127.618 376.908ZM150.356 398.338C148.354 398.338 146.553 397.9 144.951 397.024C143.35 396.123 142.087 394.86 141.161 393.234C140.26 391.607 139.81 389.731 139.81 387.604C139.81 385.477 140.273 383.601 141.198 381.974C142.149 380.348 143.438 379.097 145.064 378.221C146.69 377.32 148.504 376.87 150.506 376.87C152.508 376.87 154.322 377.32 155.948 378.221C157.574 379.097 158.85 380.348 159.776 381.974C160.727 383.601 161.202 385.477 161.202 387.604C161.202 389.731 160.714 391.607 159.739 393.234C158.788 394.86 157.487 396.123 155.835 397.024C154.209 397.9 152.382 398.338 150.356 398.338ZM150.356 393.759C151.307 393.759 152.195 393.534 153.021 393.083C153.871 392.608 154.547 391.907 155.047 390.982C155.548 390.056 155.798 388.93 155.798 387.604C155.798 385.627 155.272 384.114 154.221 383.063C153.196 381.987 151.932 381.449 150.431 381.449C148.93 381.449 147.666 381.987 146.64 383.063C145.639 384.114 145.139 385.627 145.139 387.604C145.139 389.581 145.627 391.107 146.603 392.183C147.604 393.234 148.855 393.759 150.356 393.759ZM173.726 393.159L178.98 377.208H184.573L176.879 398H170.498L162.842 377.208H168.472L173.726 393.159ZM206.852 387.154C206.852 387.904 206.802 388.58 206.702 389.18H191.502C191.627 390.681 192.153 391.857 193.078 392.708C194.004 393.559 195.142 393.984 196.494 393.984C198.445 393.984 199.834 393.146 200.66 391.47H206.327C205.726 393.471 204.575 395.123 202.874 396.424C201.172 397.7 199.083 398.338 196.606 398.338C194.605 398.338 192.803 397.9 191.202 397.024C189.625 396.123 188.387 394.86 187.486 393.234C186.61 391.607 186.173 389.731 186.173 387.604C186.173 385.452 186.61 383.563 187.486 381.937C188.362 380.31 189.588 379.059 191.164 378.184C192.74 377.308 194.554 376.87 196.606 376.87C198.583 376.87 200.347 377.295 201.898 378.146C203.474 378.997 204.688 380.21 205.539 381.787C206.414 383.338 206.852 385.127 206.852 387.154ZM201.41 385.652C201.385 384.301 200.897 383.225 199.946 382.425C198.996 381.599 197.832 381.186 196.456 381.186C195.155 381.186 194.054 381.586 193.153 382.387C192.278 383.163 191.74 384.251 191.54 385.652H201.41ZM240.985 377.208L237.307 398H232.053L232.503 395.373C231.703 396.274 230.714 396.987 229.538 397.512C228.362 398.013 227.124 398.263 225.823 398.263C223.671 398.263 221.97 397.687 220.719 396.536C219.468 395.36 218.842 393.696 218.842 391.545C218.842 390.744 218.905 390.031 219.03 389.405L221.169 377.208H226.423L224.397 388.655C224.322 389.105 224.284 389.543 224.284 389.968C224.284 391.194 224.622 392.145 225.297 392.821C225.973 393.471 226.924 393.797 228.15 393.797C229.576 393.797 230.789 393.359 231.79 392.483C232.791 391.582 233.429 390.306 233.704 388.655L235.731 377.208H240.985ZM257.729 376.908C259.881 376.908 261.57 377.496 262.796 378.672C264.047 379.823 264.672 381.474 264.672 383.626C264.672 384.426 264.61 385.152 264.485 385.802L262.308 398H257.091L259.118 386.516C259.193 386.065 259.23 385.627 259.23 385.202C259.23 383.951 258.892 383 258.217 382.35C257.566 381.699 256.628 381.374 255.402 381.374C254.001 381.374 252.8 381.799 251.799 382.65C250.823 383.476 250.173 384.677 249.848 386.253L247.783 398H242.491L246.17 377.208H251.461L251.011 379.76C251.862 378.884 252.875 378.196 254.051 377.696C255.227 377.17 256.453 376.908 257.729 376.908ZM267.83 387.529C268.205 385.427 268.943 383.563 270.044 381.937C271.17 380.31 272.534 379.059 274.135 378.184C275.761 377.308 277.463 376.87 279.239 376.87C280.59 376.87 281.829 377.17 282.955 377.771C284.081 378.346 284.919 379.122 285.469 380.098L287.233 370.227H292.525L287.609 398H282.317L282.88 394.922C282.054 395.948 280.991 396.774 279.69 397.4C278.414 398.025 277 398.338 275.449 398.338C273.922 398.338 272.559 398 271.358 397.324C270.182 396.624 269.256 395.648 268.58 394.397C267.93 393.121 267.605 391.645 267.605 389.968C267.605 389.193 267.68 388.38 267.83 387.529ZM284.156 387.604C284.256 386.953 284.306 386.478 284.306 386.178C284.306 384.702 283.868 383.551 282.992 382.725C282.142 381.899 281.066 381.486 279.765 381.486C278.789 381.486 277.838 381.724 276.912 382.199C276.012 382.675 275.223 383.375 274.548 384.301C273.872 385.202 273.422 386.278 273.197 387.529C273.122 388.004 273.084 388.455 273.084 388.88C273.084 390.381 273.509 391.57 274.36 392.445C275.211 393.296 276.287 393.721 277.588 393.721C278.564 393.721 279.514 393.484 280.44 393.008C281.366 392.508 282.154 391.795 282.805 390.869C283.48 389.943 283.931 388.855 284.156 387.604ZM305.576 376.87C308.228 376.87 310.33 377.608 311.881 379.084C313.432 380.536 314.208 382.5 314.208 384.977C314.208 385.777 314.145 386.491 314.02 387.116C313.87 387.867 313.708 388.517 313.532 389.068H298.332C298.307 389.243 298.295 389.493 298.295 389.818C298.295 391.119 298.67 392.145 299.421 392.896C300.196 393.621 301.21 393.984 302.461 393.984C303.512 393.984 304.412 393.759 305.163 393.309C305.939 392.833 306.564 392.22 307.04 391.47H312.707C311.781 393.471 310.342 395.123 308.391 396.424C306.464 397.7 304.275 398.338 301.823 398.338C299.171 398.338 297.044 397.587 295.443 396.086C293.841 394.585 293.041 392.546 293.041 389.968C293.041 389.218 293.116 388.43 293.266 387.604C293.641 385.452 294.404 383.563 295.555 381.937C296.731 380.31 298.182 379.059 299.909 378.184C301.635 377.308 303.524 376.87 305.576 376.87ZM308.804 385.878C308.854 385.477 308.879 385.189 308.879 385.014C308.879 383.813 308.491 382.875 307.715 382.199C306.94 381.524 305.926 381.186 304.675 381.186C303.349 381.186 302.161 381.612 301.11 382.462C300.059 383.288 299.321 384.426 298.895 385.878H308.804ZM324.048 398.338C322.522 398.338 321.133 398.088 319.882 397.587C318.656 397.062 317.68 396.349 316.955 395.448C316.254 394.522 315.904 393.471 315.904 392.295C315.904 392.12 315.929 391.832 315.979 391.432H321.083C321.008 392.308 321.271 393.021 321.871 393.571C322.472 394.097 323.323 394.36 324.423 394.36C325.424 394.36 326.25 394.184 326.9 393.834C327.576 393.459 327.914 392.921 327.914 392.22C327.914 391.595 327.601 391.094 326.976 390.719C326.375 390.344 325.412 389.918 324.086 389.443C322.76 388.968 321.659 388.505 320.783 388.054C319.907 387.604 319.157 386.978 318.531 386.178C317.906 385.377 317.593 384.364 317.593 383.138C317.593 381.912 317.943 380.823 318.644 379.873C319.369 378.922 320.37 378.184 321.646 377.658C322.922 377.133 324.386 376.87 326.037 376.87C327.614 376.87 329.002 377.133 330.203 377.658C331.404 378.184 332.33 378.922 332.98 379.873C333.656 380.798 333.994 381.862 333.994 383.063C333.994 383.363 333.981 383.588 333.956 383.738H329.077C329.152 382.863 328.902 382.162 328.327 381.637C327.751 381.111 326.913 380.848 325.812 380.848C324.911 380.848 324.173 381.049 323.598 381.449C323.022 381.824 322.735 382.337 322.735 382.988C322.735 383.638 323.06 384.176 323.71 384.601C324.361 385.002 325.362 385.452 326.713 385.953C328.064 386.478 329.14 386.966 329.94 387.416C330.766 387.842 331.479 388.442 332.08 389.218C332.68 389.968 332.98 390.919 332.98 392.07C332.98 393.346 332.593 394.46 331.817 395.41C331.041 396.361 329.978 397.087 328.627 397.587C327.276 398.088 325.75 398.338 324.048 398.338ZM343.148 374.731C342.323 374.731 341.66 374.493 341.159 374.018C340.659 373.542 340.409 372.942 340.409 372.216C340.409 371.215 340.784 370.365 341.535 369.664C342.31 368.939 343.211 368.576 344.237 368.576C345.037 368.576 345.688 368.813 346.188 369.289C346.689 369.764 346.939 370.365 346.939 371.09C346.939 372.091 346.564 372.954 345.813 373.68C345.062 374.381 344.174 374.731 343.148 374.731ZM345.325 377.208L341.647 398H336.355L340.033 377.208H345.325ZM355.133 380.886C356.034 379.635 357.084 378.659 358.285 377.959C359.486 377.258 360.787 376.908 362.189 376.908L361.213 382.425H359.824C358.273 382.425 357.022 382.762 356.071 383.438C355.145 384.114 354.47 385.265 354.044 386.891L352.093 398H346.801L350.479 377.208H355.771L355.133 380.886ZM374.81 376.87C377.462 376.87 379.564 377.608 381.115 379.084C382.667 380.536 383.442 382.5 383.442 384.977C383.442 385.777 383.38 386.491 383.255 387.116C383.104 387.867 382.942 388.517 382.767 389.068H367.567C367.542 389.243 367.529 389.493 367.529 389.818C367.529 391.119 367.904 392.145 368.655 392.896C369.431 393.621 370.444 393.984 371.695 393.984C372.746 393.984 373.647 393.759 374.397 393.309C375.173 392.833 375.798 392.22 376.274 391.47H381.941C381.015 393.471 379.577 395.123 377.625 396.424C375.698 397.7 373.509 398.338 371.057 398.338C368.405 398.338 366.278 397.587 364.677 396.086C363.075 394.585 362.275 392.546 362.275 389.968C362.275 389.218 362.35 388.43 362.5 387.604C362.875 385.452 363.638 383.563 364.789 381.937C365.965 380.31 367.417 379.059 369.143 378.184C370.869 377.308 372.758 376.87 374.81 376.87ZM378.038 385.878C378.088 385.477 378.113 385.189 378.113 385.014C378.113 383.813 377.725 382.875 376.949 382.199C376.174 381.524 375.16 381.186 373.909 381.186C372.583 381.186 371.395 381.612 370.344 382.462C369.293 383.288 368.555 384.426 368.13 385.878H378.038ZM385.664 387.529C386.039 385.427 386.777 383.563 387.878 381.937C389.004 380.31 390.367 379.059 391.969 378.184C393.595 377.308 395.296 376.87 397.073 376.87C398.424 376.87 399.663 377.17 400.788 377.771C401.914 378.346 402.753 379.122 403.303 380.098L405.067 370.227H410.359L405.442 398H400.15L400.713 394.922C399.888 395.948 398.824 396.774 397.523 397.4C396.247 398.025 394.834 398.338 393.282 398.338C391.756 398.338 390.392 398 389.191 397.324C388.015 396.624 387.09 395.648 386.414 394.397C385.764 393.121 385.438 391.645 385.438 389.968C385.438 389.193 385.513 388.38 385.664 387.529ZM401.989 387.604C402.09 386.953 402.14 386.478 402.14 386.178C402.14 384.702 401.702 383.551 400.826 382.725C399.975 381.899 398.899 381.486 397.598 381.486C396.623 381.486 395.672 381.724 394.746 382.199C393.845 382.675 393.057 383.375 392.382 384.301C391.706 385.202 391.256 386.278 391.03 387.529C390.955 388.004 390.918 388.455 390.918 388.88C390.918 390.381 391.343 391.57 392.194 392.445C393.045 393.296 394.121 393.721 395.422 393.721C396.397 393.721 397.348 393.484 398.274 393.008C399.2 392.508 399.988 391.795 400.638 390.869C401.314 389.943 401.764 388.855 401.989 387.604ZM420.117 387.529C420.117 385.427 420.53 383.563 421.356 381.937C422.207 380.31 423.345 379.059 424.771 378.184C426.223 377.308 427.836 376.87 429.613 376.87C431.164 376.87 432.515 377.183 433.666 377.808C434.842 378.434 435.78 379.222 436.481 380.173V377.208H441.773V398H436.481V394.96C435.805 395.936 434.867 396.749 433.666 397.4C432.49 398.025 431.127 398.338 429.575 398.338C427.824 398.338 426.223 397.887 424.771 396.987C423.345 396.086 422.207 394.822 421.356 393.196C420.53 391.545 420.117 389.656 420.117 387.529ZM436.481 387.604C436.481 386.328 436.231 385.24 435.73 384.339C435.23 383.413 434.554 382.712 433.704 382.237C432.853 381.737 431.94 381.486 430.964 381.486C429.988 381.486 429.087 381.724 428.262 382.199C427.436 382.675 426.76 383.375 426.235 384.301C425.735 385.202 425.484 386.278 425.484 387.529C425.484 388.78 425.735 389.881 426.235 390.832C426.76 391.757 427.436 392.47 428.262 392.971C429.112 393.471 430.013 393.721 430.964 393.721C431.94 393.721 432.853 393.484 433.704 393.008C434.554 392.508 435.23 391.807 435.73 390.907C436.231 389.981 436.481 388.88 436.481 387.604ZM466.533 377.208V398H461.241V395.373C460.566 396.274 459.678 396.987 458.577 397.512C457.501 398.013 456.325 398.263 455.049 398.263C453.422 398.263 451.984 397.925 450.733 397.249C449.482 396.549 448.493 395.535 447.768 394.209C447.067 392.858 446.717 391.257 446.717 389.405V377.208H451.971V388.655C451.971 390.306 452.384 391.582 453.21 392.483C454.035 393.359 455.161 393.797 456.588 393.797C458.039 393.797 459.177 393.359 460.003 392.483C460.829 391.582 461.241 390.306 461.241 388.655V377.208H466.533ZM470.366 387.529C470.366 385.427 470.779 383.563 471.605 381.937C472.456 380.31 473.607 379.059 475.058 378.184C476.509 377.308 478.123 376.87 479.899 376.87C481.25 376.87 482.539 377.17 483.765 377.771C484.991 378.346 485.967 379.122 486.692 380.098V370.227H492.022V398H486.692V394.922C486.042 395.948 485.129 396.774 483.953 397.4C482.777 398.025 481.413 398.338 479.862 398.338C478.11 398.338 476.509 397.887 475.058 396.987C473.607 396.086 472.456 394.822 471.605 393.196C470.779 391.545 470.366 389.656 470.366 387.529ZM486.73 387.604C486.73 386.328 486.48 385.24 485.979 384.339C485.479 383.413 484.803 382.712 483.953 382.237C483.102 381.737 482.189 381.486 481.213 381.486C480.237 381.486 479.336 381.724 478.511 382.199C477.685 382.675 477.009 383.375 476.484 384.301C475.983 385.202 475.733 386.278 475.733 387.529C475.733 388.78 475.983 389.881 476.484 390.832C477.009 391.757 477.685 392.47 478.511 392.971C479.361 393.471 480.262 393.721 481.213 393.721C482.189 393.721 483.102 393.484 483.953 393.008C484.803 392.508 485.479 391.807 485.979 390.907C486.48 389.981 486.73 388.88 486.73 387.604ZM499.818 374.731C498.892 374.731 498.117 374.443 497.491 373.868C496.891 373.267 496.59 372.529 496.59 371.653C496.59 370.778 496.891 370.052 497.491 369.477C498.117 368.876 498.892 368.576 499.818 368.576C500.744 368.576 501.507 368.876 502.107 369.477C502.733 370.052 503.046 370.778 503.046 371.653C503.046 372.529 502.733 373.267 502.107 373.868C501.507 374.443 500.744 374.731 499.818 374.731ZM502.408 377.208V398H497.153V377.208H502.408ZM516.832 398.338C514.83 398.338 513.028 397.9 511.427 397.024C509.826 396.123 508.562 394.86 507.637 393.234C506.736 391.607 506.285 389.731 506.285 387.604C506.285 385.477 506.748 383.601 507.674 381.974C508.625 380.348 509.913 379.097 511.54 378.221C513.166 377.32 514.98 376.87 516.982 376.87C518.983 376.87 520.797 377.32 522.424 378.221C524.05 379.097 525.326 380.348 526.252 381.974C527.203 383.601 527.678 385.477 527.678 387.604C527.678 389.731 527.19 391.607 526.214 393.234C525.264 394.86 523.962 396.123 522.311 397.024C520.685 397.9 518.858 398.338 516.832 398.338ZM516.832 393.759C517.782 393.759 518.671 393.534 519.496 393.083C520.347 392.608 521.023 391.907 521.523 390.982C522.023 390.056 522.274 388.93 522.274 387.604C522.274 385.627 521.748 384.114 520.697 383.063C519.671 381.987 518.408 381.449 516.907 381.449C515.405 381.449 514.142 381.987 513.116 383.063C512.115 384.114 511.615 385.627 511.615 387.604C511.615 389.581 512.103 391.107 513.079 392.183C514.079 393.234 515.33 393.759 516.832 393.759ZM539.124 387.529C539.124 385.427 539.537 383.563 540.363 381.937C541.213 380.31 542.352 379.059 543.778 378.184C545.229 377.308 546.843 376.87 548.619 376.87C550.171 376.87 551.522 377.183 552.673 377.808C553.849 378.434 554.787 379.222 555.488 380.173V377.208H560.779V398H555.488V394.96C554.812 395.936 553.874 396.749 552.673 397.4C551.497 398.025 550.133 398.338 548.582 398.338C546.83 398.338 545.229 397.887 543.778 396.987C542.352 396.086 541.213 394.822 540.363 393.196C539.537 391.545 539.124 389.656 539.124 387.529ZM555.488 387.604C555.488 386.328 555.237 385.24 554.737 384.339C554.237 383.413 553.561 382.712 552.71 382.237C551.86 381.737 550.946 381.486 549.971 381.486C548.995 381.486 548.094 381.724 547.268 382.199C546.443 382.675 545.767 383.375 545.242 384.301C544.741 385.202 544.491 386.278 544.491 387.529C544.491 388.78 544.741 389.881 545.242 390.832C545.767 391.757 546.443 392.47 547.268 392.971C548.119 393.471 549.02 393.721 549.971 393.721C550.946 393.721 551.86 393.484 552.71 393.008C553.561 392.508 554.237 391.807 554.737 390.907C555.237 389.981 555.488 388.88 555.488 387.604ZM577.433 376.908C579.91 376.908 581.912 377.696 583.438 379.272C584.964 380.823 585.727 383 585.727 385.802V398H580.473V386.516C580.473 384.864 580.06 383.601 579.235 382.725C578.409 381.824 577.283 381.374 575.857 381.374C574.406 381.374 573.255 381.824 572.404 382.725C571.578 383.601 571.165 384.864 571.165 386.516V398H565.911V377.208H571.165V379.798C571.866 378.897 572.754 378.196 573.83 377.696C574.931 377.17 576.132 376.908 577.433 376.908ZM589.373 387.529C589.373 385.427 589.786 383.563 590.611 381.937C591.462 380.31 592.613 379.059 594.064 378.184C595.515 377.308 597.129 376.87 598.906 376.87C600.257 376.87 601.545 377.17 602.771 377.771C603.997 378.346 604.973 379.122 605.699 380.098V370.227H611.028V398H605.699V394.922C605.048 395.948 604.135 396.774 602.959 397.4C601.783 398.025 600.42 398.338 598.868 398.338C597.117 398.338 595.515 397.887 594.064 396.987C592.613 396.086 591.462 394.822 590.611 393.196C589.786 391.545 589.373 389.656 589.373 387.529ZM605.736 387.604C605.736 386.328 605.486 385.24 604.986 384.339C604.485 383.413 603.81 382.712 602.959 382.237C602.108 381.737 601.195 381.486 600.219 381.486C599.244 381.486 598.343 381.724 597.517 382.199C596.691 382.675 596.016 383.375 595.49 384.301C594.99 385.202 594.74 386.278 594.74 387.529C594.74 388.78 594.99 389.881 595.49 390.832C596.016 391.757 596.691 392.47 597.517 392.971C598.368 393.471 599.269 393.721 600.219 393.721C601.195 393.721 602.108 393.484 602.959 393.008C603.81 392.508 604.485 391.807 604.986 390.907C605.486 389.981 605.736 388.88 605.736 387.604ZM633.773 393.159L639.027 377.208H644.619L636.925 398H630.545L622.889 377.208H628.518L633.773 393.159ZM650.235 374.731C649.309 374.731 648.533 374.443 647.908 373.868C647.307 373.267 647.007 372.529 647.007 371.653C647.007 370.778 647.307 370.052 647.908 369.477C648.533 368.876 649.309 368.576 650.235 368.576C651.161 368.576 651.924 368.876 652.524 369.477C653.15 370.052 653.463 370.778 653.463 371.653C653.463 372.529 653.15 373.267 652.524 373.868C651.924 374.443 651.161 374.731 650.235 374.731ZM652.824 377.208V398H647.57V377.208H652.824ZM656.665 387.529C656.665 385.427 657.077 383.563 657.903 381.937C658.754 380.31 659.905 379.059 661.356 378.184C662.807 377.308 664.421 376.87 666.197 376.87C667.549 376.87 668.837 377.17 670.063 377.771C671.289 378.346 672.265 379.122 672.991 380.098V370.227H678.32V398H672.991V394.922C672.34 395.948 671.427 396.774 670.251 397.4C669.075 398.025 667.711 398.338 666.16 398.338C664.408 398.338 662.807 397.887 661.356 396.987C659.905 396.086 658.754 394.822 657.903 393.196C657.077 391.545 656.665 389.656 656.665 387.529ZM673.028 387.604C673.028 386.328 672.778 385.24 672.277 384.339C671.777 383.413 671.101 382.712 670.251 382.237C669.4 381.737 668.487 381.486 667.511 381.486C666.535 381.486 665.634 381.724 664.809 382.199C663.983 382.675 663.308 383.375 662.782 384.301C662.282 385.202 662.032 386.278 662.032 387.529C662.032 388.78 662.282 389.881 662.782 390.832C663.308 391.757 663.983 392.47 664.809 392.971C665.66 393.471 666.56 393.721 667.511 393.721C668.487 393.721 669.4 393.484 670.251 393.008C671.101 392.508 671.777 391.807 672.277 390.907C672.778 389.981 673.028 388.88 673.028 387.604ZM702.78 387.154C702.78 387.904 702.73 388.58 702.63 389.18H687.43C687.555 390.681 688.08 391.857 689.006 392.708C689.932 393.559 691.07 393.984 692.422 393.984C694.373 393.984 695.762 393.146 696.587 391.47H702.255C701.654 393.471 700.503 395.123 698.802 396.424C697.1 397.7 695.011 398.338 692.534 398.338C690.533 398.338 688.731 397.9 687.13 397.024C685.553 396.123 684.315 394.86 683.414 393.234C682.538 391.607 682.101 389.731 682.101 387.604C682.101 385.452 682.538 383.563 683.414 381.937C684.29 380.31 685.516 379.059 687.092 378.184C688.668 377.308 690.482 376.87 692.534 376.87C694.511 376.87 696.275 377.295 697.826 378.146C699.402 378.997 700.616 380.21 701.467 381.787C702.342 383.338 702.78 385.127 702.78 387.154ZM697.338 385.652C697.313 384.301 696.825 383.225 695.874 382.425C694.924 381.599 693.76 381.186 692.384 381.186C691.083 381.186 689.982 381.586 689.081 382.387C688.206 383.163 687.668 384.251 687.467 385.652H697.338ZM715.848 398.338C713.846 398.338 712.045 397.9 710.443 397.024C708.842 396.123 707.579 394.86 706.653 393.234C705.752 391.607 705.302 389.731 705.302 387.604C705.302 385.477 705.765 383.601 706.69 381.974C707.641 380.348 708.93 379.097 710.556 378.221C712.182 377.32 713.996 376.87 715.998 376.87C718 376.87 719.814 377.32 721.44 378.221C723.066 379.097 724.342 380.348 725.268 381.974C726.219 383.601 726.694 385.477 726.694 387.604C726.694 389.731 726.206 391.607 725.231 393.234C724.28 394.86 722.979 396.123 721.327 397.024C719.701 397.9 717.875 398.338 715.848 398.338ZM715.848 393.759C716.799 393.759 717.687 393.534 718.513 393.083C719.363 392.608 720.039 391.907 720.539 390.982C721.04 390.056 721.29 388.93 721.29 387.604C721.29 385.627 720.764 384.114 719.714 383.063C718.688 381.987 717.424 381.449 715.923 381.449C714.422 381.449 713.158 381.987 712.132 383.063C711.132 384.114 710.631 385.627 710.631 387.604C710.631 389.581 711.119 391.107 712.095 392.183C713.096 393.234 714.347 393.759 715.848 393.759ZM64.1225 418.524H60.482V435H55.1526V418.524H52.7881V414.208H55.1526V413.157C55.1526 410.605 55.8782 408.728 57.3294 407.527C58.7806 406.326 60.9699 405.763 63.8973 405.839V410.267C62.6212 410.242 61.733 410.455 61.2326 410.905C60.7322 411.356 60.482 412.169 60.482 413.345V414.208H64.1225V418.524ZM72.7818 417.436C73.4574 416.335 74.3331 415.471 75.409 414.846C76.5099 414.22 77.7609 413.908 79.1621 413.908V419.425H77.7734C76.1221 419.425 74.8711 419.813 74.0204 420.588C73.1947 421.364 72.7818 422.715 72.7818 424.641V435H67.5275V414.208H72.7818V417.436ZM91.9337 435.338C89.9321 435.338 88.1306 434.9 86.5293 434.024C84.928 433.123 83.6644 431.86 82.7387 430.234C81.8379 428.607 81.3876 426.731 81.3876 424.604C81.3876 422.477 81.8504 420.601 82.7762 418.974C83.727 417.348 85.0155 416.097 86.6419 415.221C88.2682 414.32 90.0822 413.87 92.0839 413.87C94.0855 413.87 95.8995 414.32 97.5258 415.221C99.1522 416.097 100.428 417.348 101.354 418.974C102.305 420.601 102.78 422.477 102.78 424.604C102.78 426.731 102.292 428.607 101.316 430.234C100.366 431.86 99.0646 433.123 97.4132 434.024C95.7869 434.9 93.9604 435.338 91.9337 435.338ZM91.9337 430.759C92.8845 430.759 93.7727 430.534 94.5984 430.083C95.4491 429.608 96.1247 428.907 96.6251 427.982C97.1255 427.056 97.3757 425.93 97.3757 424.604C97.3757 422.627 96.8503 421.114 95.7994 420.063C94.7736 418.987 93.51 418.449 92.0088 418.449C90.5076 418.449 89.244 418.987 88.2182 420.063C87.2174 421.114 86.7169 422.627 86.7169 424.604C86.7169 426.581 87.2048 428.107 88.1806 429.183C89.1815 430.234 90.4325 430.759 91.9337 430.759ZM132.456 413.908C135.008 413.908 137.059 414.696 138.611 416.272C140.187 417.823 140.975 420 140.975 422.802V435H135.721V423.516C135.721 421.889 135.308 420.651 134.482 419.8C133.657 418.924 132.531 418.486 131.105 418.486C129.678 418.486 128.54 418.924 127.689 419.8C126.864 420.651 126.451 421.889 126.451 423.516V435H121.196V423.516C121.196 421.889 120.784 420.651 119.958 419.8C119.132 418.924 118.006 418.486 116.58 418.486C115.129 418.486 113.978 418.924 113.127 419.8C112.302 420.651 111.889 421.889 111.889 423.516V435H106.634V414.208H111.889V416.722C112.564 415.847 113.427 415.159 114.478 414.658C115.554 414.158 116.73 413.908 118.006 413.908C119.633 413.908 121.084 414.258 122.36 414.959C123.636 415.634 124.624 416.61 125.325 417.886C126 416.685 126.976 415.722 128.252 414.996C129.553 414.27 130.954 413.908 132.456 413.908ZM160.158 407.227V435H154.904V407.227H160.158ZM168.014 411.731C167.089 411.731 166.313 411.443 165.687 410.868C165.087 410.267 164.787 409.529 164.787 408.653C164.787 407.778 165.087 407.052 165.687 406.477C166.313 405.876 167.089 405.576 168.014 405.576C168.94 405.576 169.703 405.876 170.304 406.477C170.929 407.052 171.242 407.778 171.242 408.653C171.242 409.529 170.929 410.267 170.304 410.868C169.703 411.443 168.94 411.731 168.014 411.731ZM170.604 414.208V435H165.35V414.208H170.604ZM184.465 430.159L189.719 414.208H195.311L187.618 435H181.237L173.581 414.208H179.211L184.465 430.159ZM217.591 424.154C217.591 424.904 217.541 425.58 217.441 426.18H202.241C202.366 427.681 202.891 428.857 203.817 429.708C204.743 430.559 205.881 430.984 207.232 430.984C209.184 430.984 210.573 430.146 211.398 428.47H217.065C216.465 430.471 215.314 432.123 213.613 433.424C211.911 434.7 209.822 435.338 207.345 435.338C205.343 435.338 203.542 434.9 201.941 434.024C200.364 433.123 199.126 431.86 198.225 430.234C197.349 428.607 196.911 426.731 196.911 424.604C196.911 422.452 197.349 420.563 198.225 418.937C199.101 417.31 200.327 416.059 201.903 415.184C203.479 414.308 205.293 413.87 207.345 413.87C209.322 413.87 211.086 414.295 212.637 415.146C214.213 415.997 215.427 417.21 216.277 418.787C217.153 420.338 217.591 422.127 217.591 424.154ZM212.149 422.652C212.124 421.301 211.636 420.225 210.685 419.425C209.734 418.599 208.571 418.186 207.195 418.186C205.894 418.186 204.793 418.586 203.892 419.387C203.016 420.163 202.478 421.251 202.278 422.652H212.149ZM229.383 435.338C227.681 435.338 226.155 435.038 224.804 434.437C223.453 433.812 222.377 432.973 221.576 431.922C220.801 430.872 220.375 429.708 220.3 428.432H225.592C225.692 429.233 226.08 429.896 226.755 430.421C227.456 430.947 228.319 431.209 229.345 431.209C230.346 431.209 231.122 431.009 231.672 430.609C232.248 430.209 232.535 429.696 232.535 429.07C232.535 428.395 232.185 427.894 231.484 427.569C230.809 427.219 229.72 426.843 228.219 426.443C226.668 426.068 225.392 425.68 224.391 425.28C223.415 424.879 222.565 424.266 221.839 423.44C221.138 422.615 220.788 421.501 220.788 420.1C220.788 418.949 221.113 417.898 221.764 416.948C222.439 415.997 223.39 415.246 224.616 414.696C225.867 414.145 227.331 413.87 229.007 413.87C231.484 413.87 233.461 414.496 234.937 415.747C236.413 416.973 237.227 418.637 237.377 420.738H232.348C232.273 419.913 231.922 419.262 231.297 418.787C230.696 418.286 229.883 418.036 228.857 418.036C227.906 418.036 227.168 418.211 226.643 418.561C226.142 418.912 225.892 419.4 225.892 420.025C225.892 420.726 226.243 421.264 226.943 421.639C227.644 421.989 228.732 422.352 230.208 422.727C231.71 423.103 232.948 423.491 233.924 423.891C234.9 424.291 235.738 424.917 236.438 425.767C237.164 426.593 237.539 427.694 237.564 429.07C237.564 430.271 237.227 431.347 236.551 432.298C235.901 433.249 234.95 433.999 233.699 434.55C232.473 435.075 231.034 435.338 229.383 435.338ZM247.995 418.524V428.582C247.995 429.283 248.158 429.796 248.483 430.121C248.833 430.421 249.409 430.571 250.209 430.571H252.649V435H249.346C244.918 435 242.703 432.848 242.703 428.545V418.524H240.226V414.208H242.703V409.066H247.995V414.208H252.649V418.524H247.995ZM261.682 417.436C262.358 416.335 263.234 415.471 264.31 414.846C265.41 414.22 266.661 413.908 268.063 413.908V419.425H266.674C265.023 419.425 263.772 419.813 262.921 420.588C262.095 421.364 261.682 422.715 261.682 424.641V435H256.428V414.208H261.682V417.436ZM290.93 424.154C290.93 424.904 290.88 425.58 290.78 426.18H275.58C275.705 427.681 276.23 428.857 277.156 429.708C278.082 430.559 279.22 430.984 280.572 430.984C282.523 430.984 283.912 430.146 284.737 428.47H290.405C289.804 430.471 288.653 432.123 286.952 433.424C285.25 434.7 283.161 435.338 280.684 435.338C278.682 435.338 276.881 434.9 275.28 434.024C273.703 433.123 272.465 431.86 271.564 430.234C270.688 428.607 270.251 426.731 270.251 424.604C270.251 422.452 270.688 420.563 271.564 418.937C272.44 417.31 273.666 416.059 275.242 415.184C276.818 414.308 278.632 413.87 280.684 413.87C282.661 413.87 284.425 414.295 285.976 415.146C287.552 415.997 288.766 417.21 289.616 418.787C290.492 420.338 290.93 422.127 290.93 424.154ZM285.488 422.652C285.463 421.301 284.975 420.225 284.024 419.425C283.074 418.599 281.91 418.186 280.534 418.186C279.233 418.186 278.132 418.586 277.231 419.387C276.356 420.163 275.818 421.251 275.617 422.652H285.488ZM293.414 424.529C293.414 422.427 293.827 420.563 294.653 418.937C295.503 417.31 296.642 416.059 298.068 415.184C299.519 414.308 301.133 413.87 302.909 413.87C304.461 413.87 305.812 414.183 306.963 414.808C308.139 415.434 309.077 416.222 309.778 417.173V414.208H315.069V435H309.778V431.96C309.102 432.936 308.164 433.749 306.963 434.4C305.787 435.025 304.423 435.338 302.872 435.338C301.12 435.338 299.519 434.887 298.068 433.987C296.642 433.086 295.503 431.822 294.653 430.196C293.827 428.545 293.414 426.656 293.414 424.529ZM309.778 424.604C309.778 423.328 309.527 422.24 309.027 421.339C308.527 420.413 307.851 419.712 307 419.237C306.15 418.737 305.236 418.486 304.261 418.486C303.285 418.486 302.384 418.724 301.558 419.199C300.733 419.675 300.057 420.375 299.532 421.301C299.031 422.202 298.781 423.278 298.781 424.529C298.781 425.78 299.031 426.881 299.532 427.832C300.057 428.757 300.733 429.47 301.558 429.971C302.409 430.471 303.31 430.721 304.261 430.721C305.236 430.721 306.15 430.484 307 430.008C307.851 429.508 308.527 428.807 309.027 427.907C309.527 426.981 309.778 425.88 309.778 424.604ZM346.022 413.908C348.575 413.908 350.626 414.696 352.178 416.272C353.754 417.823 354.542 420 354.542 422.802V435H349.288V423.516C349.288 421.889 348.875 420.651 348.049 419.8C347.223 418.924 346.098 418.486 344.671 418.486C343.245 418.486 342.107 418.924 341.256 419.8C340.43 420.651 340.018 421.889 340.018 423.516V435H334.763V423.516C334.763 421.889 334.35 420.651 333.525 419.8C332.699 418.924 331.573 418.486 330.147 418.486C328.696 418.486 327.545 418.924 326.694 419.8C325.868 420.651 325.456 421.889 325.456 423.516V435H320.201V414.208H325.456V416.722C326.131 415.847 326.994 415.159 328.045 414.658C329.121 414.158 330.297 413.908 331.573 413.908C333.199 413.908 334.651 414.258 335.927 414.959C337.203 415.634 338.191 416.61 338.892 417.886C339.567 416.685 340.543 415.722 341.819 414.996C343.12 414.27 344.521 413.908 346.022 413.908ZM367.485 435.338C365.783 435.338 364.257 435.038 362.906 434.437C361.555 433.812 360.479 432.973 359.678 431.922C358.902 430.872 358.477 429.708 358.402 428.432H363.694C363.794 429.233 364.182 429.896 364.857 430.421C365.558 430.947 366.421 431.209 367.447 431.209C368.448 431.209 369.223 431.009 369.774 430.609C370.349 430.209 370.637 429.696 370.637 429.07C370.637 428.395 370.287 427.894 369.586 427.569C368.911 427.219 367.822 426.843 366.321 426.443C364.77 426.068 363.494 425.68 362.493 425.28C361.517 424.879 360.666 424.266 359.941 423.44C359.24 422.615 358.89 421.501 358.89 420.1C358.89 418.949 359.215 417.898 359.866 416.948C360.541 415.997 361.492 415.246 362.718 414.696C363.969 414.145 365.433 413.87 367.109 413.87C369.586 413.87 371.563 414.496 373.039 415.747C374.515 416.973 375.328 418.637 375.479 420.738H370.449C370.374 419.913 370.024 419.262 369.399 418.787C368.798 418.286 367.985 418.036 366.959 418.036C366.008 418.036 365.27 418.211 364.745 418.561C364.244 418.912 363.994 419.4 363.994 420.025C363.994 420.726 364.344 421.264 365.045 421.639C365.746 421.989 366.834 422.352 368.31 422.727C369.811 423.103 371.05 423.491 372.026 423.891C373.002 424.291 373.84 424.917 374.54 425.767C375.266 426.593 375.641 427.694 375.666 429.07C375.666 430.271 375.328 431.347 374.653 432.298C374.002 433.249 373.052 433.999 371.801 434.55C370.575 435.075 369.136 435.338 367.485 435.338ZM387.571 424.529C387.571 422.427 387.984 420.563 388.81 418.937C389.66 417.31 390.799 416.059 392.225 415.184C393.676 414.308 395.29 413.87 397.067 413.87C398.618 413.87 399.969 414.183 401.12 414.808C402.296 415.434 403.234 416.222 403.935 417.173V414.208H409.227V435H403.935V431.96C403.259 432.936 402.321 433.749 401.12 434.4C399.944 435.025 398.58 435.338 397.029 435.338C395.278 435.338 393.676 434.887 392.225 433.987C390.799 433.086 389.66 431.822 388.81 430.196C387.984 428.545 387.571 426.656 387.571 424.529ZM403.935 424.604C403.935 423.328 403.684 422.24 403.184 421.339C402.684 420.413 402.008 419.712 401.157 419.237C400.307 418.737 399.393 418.486 398.418 418.486C397.442 418.486 396.541 418.724 395.715 419.199C394.89 419.675 394.214 420.375 393.689 421.301C393.188 422.202 392.938 423.278 392.938 424.529C392.938 425.78 393.188 426.881 393.689 427.832C394.214 428.757 394.89 429.47 395.715 429.971C396.566 430.471 397.467 430.721 398.418 430.721C399.393 430.721 400.307 430.484 401.157 430.008C402.008 429.508 402.684 428.807 403.184 427.907C403.684 426.981 403.935 425.88 403.935 424.604ZM433.987 414.208V435H428.695V432.373C428.02 433.274 427.131 433.987 426.03 434.512C424.954 435.013 423.779 435.263 422.502 435.263C420.876 435.263 419.437 434.925 418.186 434.249C416.935 433.549 415.947 432.535 415.221 431.209C414.521 429.858 414.171 428.257 414.171 426.405V414.208H419.425V425.655C419.425 427.306 419.838 428.582 420.663 429.483C421.489 430.359 422.615 430.797 424.041 430.797C425.492 430.797 426.631 430.359 427.457 429.483C428.282 428.582 428.695 427.306 428.695 425.655V414.208H433.987ZM445.289 418.524V428.582C445.289 429.283 445.451 429.796 445.777 430.121C446.127 430.421 446.702 430.571 447.503 430.571H449.943V435H446.64C442.211 435 439.997 432.848 439.997 428.545V418.524H437.52V414.208H439.997V409.066H445.289V414.208H449.943V418.524H445.289ZM462.954 435.338C460.953 435.338 459.151 434.9 457.55 434.024C455.949 433.123 454.685 431.86 453.759 430.234C452.859 428.607 452.408 426.731 452.408 424.604C452.408 422.477 452.871 420.601 453.797 418.974C454.748 417.348 456.036 416.097 457.662 415.221C459.289 414.32 461.103 413.87 463.104 413.87C465.106 413.87 466.92 414.32 468.546 415.221C470.173 416.097 471.449 417.348 472.375 418.974C473.325 420.601 473.801 422.477 473.801 424.604C473.801 426.731 473.313 428.607 472.337 430.234C471.386 431.86 470.085 433.123 468.434 434.024C466.807 434.9 464.981 435.338 462.954 435.338ZM462.954 430.759C463.905 430.759 464.793 430.534 465.619 430.083C466.47 429.608 467.145 428.907 467.646 427.982C468.146 427.056 468.396 425.93 468.396 424.604C468.396 422.627 467.871 421.114 466.82 420.063C465.794 418.987 464.531 418.449 463.029 418.449C461.528 418.449 460.265 418.987 459.239 420.063C458.238 421.114 457.738 422.627 457.738 424.604C457.738 426.581 458.225 428.107 459.201 429.183C460.202 430.234 461.453 430.759 462.954 430.759ZM503.476 413.908C506.028 413.908 508.08 414.696 509.631 416.272C511.208 417.823 511.996 420 511.996 422.802V435H506.741V423.516C506.741 421.889 506.329 420.651 505.503 419.8C504.677 418.924 503.551 418.486 502.125 418.486C500.699 418.486 499.56 418.924 498.71 419.8C497.884 420.651 497.471 421.889 497.471 423.516V435H492.217V423.516C492.217 421.889 491.804 420.651 490.978 419.8C490.153 418.924 489.027 418.486 487.601 418.486C486.149 418.486 484.999 418.924 484.148 419.8C483.322 420.651 482.909 421.889 482.909 423.516V435H477.655V414.208H482.909V416.722C483.585 415.847 484.448 415.159 485.499 414.658C486.575 414.158 487.751 413.908 489.027 413.908C490.653 413.908 492.104 414.258 493.38 414.959C494.656 415.634 495.645 416.61 496.345 417.886C497.021 416.685 497.997 415.722 499.273 414.996C500.574 414.27 501.975 413.908 503.476 413.908ZM515.631 424.529C515.631 422.427 516.043 420.563 516.869 418.937C517.72 417.31 518.858 416.059 520.284 415.184C521.736 414.308 523.349 413.87 525.126 413.87C526.677 413.87 528.028 414.183 529.179 414.808C530.355 415.434 531.294 416.222 531.994 417.173V414.208H537.286V435H531.994V431.96C531.319 432.936 530.38 433.749 529.179 434.4C528.003 435.025 526.64 435.338 525.088 435.338C523.337 435.338 521.736 434.887 520.284 433.987C518.858 433.086 517.72 431.822 516.869 430.196C516.043 428.545 515.631 426.656 515.631 424.529ZM531.994 424.604C531.994 423.328 531.744 422.24 531.243 421.339C530.743 420.413 530.068 419.712 529.217 419.237C528.366 418.737 527.453 418.486 526.477 418.486C525.501 418.486 524.601 418.724 523.775 419.199C522.949 419.675 522.274 420.375 521.748 421.301C521.248 422.202 520.998 423.278 520.998 424.529C520.998 425.78 521.248 426.881 521.748 427.832C522.274 428.757 522.949 429.47 523.775 429.971C524.626 430.471 525.526 430.721 526.477 430.721C527.453 430.721 528.366 430.484 529.217 430.008C530.068 429.508 530.743 428.807 531.243 427.907C531.744 426.981 531.994 425.88 531.994 424.604ZM548.535 418.524V428.582C548.535 429.283 548.698 429.796 549.023 430.121C549.373 430.421 549.949 430.571 550.75 430.571H553.189V435H549.886C545.458 435 543.243 432.848 543.243 428.545V418.524H540.766V414.208H543.243V409.066H548.535V414.208H553.189V418.524H548.535ZM559.633 411.731C558.707 411.731 557.932 411.443 557.306 410.868C556.706 410.267 556.405 409.529 556.405 408.653C556.405 407.778 556.706 407.052 557.306 406.477C557.932 405.876 558.707 405.576 559.633 405.576C560.559 405.576 561.322 405.876 561.922 406.477C562.548 407.052 562.861 407.778 562.861 408.653C562.861 409.529 562.548 410.267 561.922 410.868C561.322 411.443 560.559 411.731 559.633 411.731ZM562.223 414.208V435H556.968V414.208H562.223ZM566.063 424.604C566.063 422.452 566.501 420.576 567.376 418.974C568.252 417.348 569.466 416.097 571.017 415.221C572.568 414.32 574.345 413.87 576.346 413.87C578.923 413.87 581.05 414.521 582.726 415.822C584.428 417.098 585.566 418.899 586.142 421.226H580.475C580.174 420.325 579.661 419.625 578.936 419.124C578.235 418.599 577.36 418.336 576.309 418.336C574.807 418.336 573.619 418.887 572.743 419.988C571.868 421.064 571.43 422.602 571.43 424.604C571.43 426.581 571.868 428.119 572.743 429.22C573.619 430.296 574.807 430.834 576.309 430.834C578.435 430.834 579.824 429.883 580.475 427.982H586.142C585.566 430.234 584.428 432.023 582.726 433.349C581.025 434.675 578.898 435.338 576.346 435.338C574.345 435.338 572.568 434.9 571.017 434.024C569.466 433.123 568.252 431.872 567.376 430.271C566.501 428.645 566.063 426.756 566.063 424.604ZM588.64 424.529C588.64 422.427 589.053 420.563 589.878 418.937C590.729 417.31 591.868 416.059 593.294 415.184C594.745 414.308 596.359 413.87 598.135 413.87C599.687 413.87 601.038 414.183 602.189 414.808C603.365 415.434 604.303 416.222 605.003 417.173V414.208H610.295V435H605.003V431.96C604.328 432.936 603.39 433.749 602.189 434.4C601.013 435.025 599.649 435.338 598.098 435.338C596.346 435.338 594.745 434.887 593.294 433.987C591.868 433.086 590.729 431.822 589.878 430.196C589.053 428.545 588.64 426.656 588.64 424.529ZM605.003 424.604C605.003 423.328 604.753 422.24 604.253 421.339C603.752 420.413 603.077 419.712 602.226 419.237C601.375 418.737 600.462 418.486 599.486 418.486C598.511 418.486 597.61 418.724 596.784 419.199C595.958 419.675 595.283 420.375 594.757 421.301C594.257 422.202 594.007 423.278 594.007 424.529C594.007 425.78 594.257 426.881 594.757 427.832C595.283 428.757 595.958 429.47 596.784 429.971C597.635 430.471 598.536 430.721 599.486 430.721C600.462 430.721 601.375 430.484 602.226 430.008C603.077 429.508 603.752 428.807 604.253 427.907C604.753 426.981 605.003 425.88 605.003 424.604ZM620.681 407.227V435H615.427V407.227H620.681ZM631.127 407.227V435H625.873V407.227H631.127ZM656.21 414.208L643.336 444.833H637.744L642.248 434.475L633.916 414.208H639.809L645.175 428.732L650.617 414.208H656.21ZM661.369 435.263C660.418 435.263 659.63 434.975 659.004 434.4C658.404 433.799 658.104 433.061 658.104 432.185C658.104 431.309 658.404 430.584 659.004 430.008C659.63 429.408 660.418 429.108 661.369 429.108C662.295 429.108 663.058 429.408 663.658 430.008C664.259 430.584 664.559 431.309 664.559 432.185C664.559 433.061 664.259 433.799 663.658 434.4C663.058 434.975 662.295 435.263 661.369 435.263Z" fill="black"/>
<path d="M817.923 243L826.172 260.674L843.846 268.923L826.172 277.172L817.923 294.846L809.674 277.172L792 268.923L809.674 260.674L817.923 243Z" fill="black"/>
<path d="M513.831 629.62L483.612 679.229L298.625 709.536L194.428 801.157L107 766.657V659.927L220.455 555.643L426.404 538L513.831 629.62Z" fill="#0088EB"/>
<path d="M225.778 643.04L223.142 571.559C222.978 567.101 217.674 564.874 214.376 567.878L184.064 595.492C182.066 597.312 181.78 600.352 183.403 602.513L216.351 646.381C219.433 650.485 225.967 648.17 225.778 643.04Z" fill="#0070C1"/>
<path d="M456.535 583.024L436.481 562.036C433.216 558.618 427.452 560.93 427.452 565.656V619.171C427.452 624.452 434.381 626.417 437.153 621.921L457.207 589.395C458.458 587.365 458.182 584.748 456.535 583.024Z" fill="#0070C1"/>
<path d="M164.272 705.42L119.387 672.009C115.93 669.436 111.018 671.903 111.018 676.213V709.624C111.018 712.518 113.364 714.864 116.258 714.864H161.143C166.189 714.864 168.32 708.433 164.272 705.42Z" fill="#0070C1"/>
<path d="M359.642 572.081C352.175 572.262 345.613 569.173 340.985 565.876C338.548 564.14 334.333 565.409 332.709 567.921C328.679 574.159 321.085 576.041 313.939 576.486C311.81 576.619 310.172 578.516 310.534 580.619C315.453 609.132 324.789 616.772 338.588 620.065C339.183 620.207 339.821 620.178 340.4 619.981C361.918 612.669 363.039 591.263 363.977 576.224C364.122 573.887 361.982 572.025 359.642 572.081Z" fill="#0070C1" stroke="black" stroke-width="3.49361" stroke-linecap="round"/>
<path d="M339.762 581.321C343.959 581.321 347.361 584.723 347.361 588.919C347.361 590.491 346.884 591.951 346.066 593.163C345.64 593.795 345.515 594.614 345.883 595.281L349.914 602.584C350.545 603.725 349.747 605.13 348.444 605.174L333.227 605.69C332 605.731 331.114 604.528 331.518 603.369L334.232 595.585C334.461 594.929 334.263 594.21 333.829 593.667C332.787 592.366 332.163 590.716 332.163 588.919C332.163 584.723 335.565 581.321 339.762 581.321Z" fill="white"/>
<ellipse cx="177.855" cy="95.5124" rx="177.855" ry="95.5124" transform="matrix(-0.966769 0.255652 0.255652 0.966769 475.033 594.873)" fill="black"/>
<path d="M497.761 654.599L497.489 655.034C490.738 665.458 476.682 661.527 467.569 656.758C466.041 655.719 464.557 654.829 463.174 654.163C464.428 655.002 465.917 655.894 467.569 656.758C474.532 661.492 482.428 669.327 486.057 673.29L497.489 655.034C497.581 654.892 497.672 654.747 497.761 654.599Z" fill="black" stroke="black" stroke-width="3.49361" stroke-linecap="round" stroke-linejoin="round"/>
<path d="M139.533 778.577L139.992 778.807C151.183 784.191 161.136 773.516 166.433 764.698C167.196 763.015 167.999 761.483 168.833 760.194C168.199 761.563 167.392 763.1 166.433 764.698C162.953 772.365 160.292 783.167 159.258 788.44L139.992 778.807C139.839 778.733 139.686 778.657 139.533 778.577Z" fill="black" stroke="black" stroke-width="3.49361" stroke-linecap="round" stroke-linejoin="round"/>
<path d="M176.902 715.354L149.75 695.135" stroke="black" stroke-width="5.77702" stroke-linecap="round" stroke-linejoin="round"/>
<path d="M428.202 636.209L428.202 620.034" stroke="black" stroke-width="5.77702" stroke-linecap="round" stroke-linejoin="round"/>
<path d="M226.007 673.182L224.851 636.209" stroke="black" stroke-width="5.77702" stroke-linecap="round" stroke-linejoin="round"/>
<path d="M491.749 693.98C490.825 671.796 456.702 652.77 439.756 646.03C471.183 663.592 452.851 672.605 439.756 674.915C493.482 673.182 492.905 721.709 491.749 693.98Z" fill="white" stroke="white" stroke-width="5.77702" stroke-linecap="round" stroke-linejoin="round"/>
<path d="M163.037 767.348C160.726 735.458 203.284 698.216 224.851 683.581C189.265 714.546 219.652 713.814 239.294 709.577C190.767 726.677 168.236 755.216 163.037 767.348Z" fill="white" stroke="white" stroke-width="5.77702" stroke-linecap="round" stroke-linejoin="round"/>
<circle cx="164.645" cy="164.645" r="167.145" transform="matrix(-1 0 0 1 523.313 681)" fill="#0088EB" stroke="black" stroke-width="5"/>
<path d="M335.023 678.5C284.223 681.7 241.857 724.833 227.023 746C287.023 786 392.857 731.667 448.523 707.5C410.023 685 398.523 674.5 335.023 678.5Z" fill="#006FBF"/>
<ellipse cx="6.5" cy="12" rx="6.5" ry="12" transform="matrix(-1 0 0 1 357.023 812)" fill="black"/>
<ellipse cx="6.5" cy="12" rx="6.5" ry="12" transform="matrix(-1 0 0 1 388.023 812)" fill="black"/>
<path d="M437.624 844.292C413.013 893.464 308.811 883.505 275.523 819.669M275.523 819.669L289.258 809.575M275.523 819.669L264.448 829.351" stroke="black" stroke-width="6.67931" stroke-linecap="round"/>
<path d="M419.523 686.5C362.723 714.5 281.857 713.833 248.523 710L306.023 665C367.523 660.5 476.323 658.5 419.523 686.5Z" fill="black"/>
<path d="M425.314 681.27C405.864 694.557 344.204 718.936 253.159 710.155" stroke="white" stroke-width="5.77702" stroke-linecap="round" stroke-linejoin="round"/>
<path d="M598.224 783.514C577.39 789.347 536.624 787.414 540.224 733.014C542.024 705.807 551.749 696.129 562.224 695.461C553.39 683.645 539.224 658.314 553.224 651.514C567.224 644.714 583.724 670.68 590.224 684.514C586.89 671.347 583.824 644.814 598.224 644.014C609.04 643.413 613.951 662.879 615.796 680.014C622.934 679.219 631.005 679.188 636.724 682.791C645.39 680.865 662.624 682.514 662.224 704.514C661.975 718.178 657.529 728.295 652.198 733.014C658.178 780.614 618.707 786.514 598.224 783.514Z" fill="white"/>
<path d="M557.724 728.514C565.724 733.18 583.424 738.914 590.224 724.514C595.323 713.715 577.929 694.46 562.224 695.461M562.224 695.461C551.749 696.129 542.024 705.807 540.224 733.014C536.624 787.414 577.39 789.347 598.224 783.514C618.707 786.514 658.178 780.614 652.198 733.014M562.224 695.461C553.39 683.645 539.224 658.314 553.224 651.514C567.224 644.714 583.724 670.68 590.224 684.514C586.89 671.347 583.824 644.814 598.224 644.014C609.04 643.413 613.951 662.879 615.796 680.014M615.796 680.014C616.407 685.69 616.682 691.111 616.724 695.461C601.109 726.183 624.356 750.289 636.724 728.828M615.796 680.014C622.934 679.219 631.005 679.188 636.724 682.791M636.724 682.791C644.205 687.503 647.659 698.435 639.724 722.014C638.832 724.662 637.821 726.924 636.724 728.828M636.724 682.791C645.39 680.865 662.624 682.514 662.224 704.514C661.975 718.178 657.529 728.295 652.198 733.014M636.724 728.828C640.497 737.036 646.801 737.791 652.198 733.014" stroke="black" stroke-opacity="0.5" stroke-width="5" stroke-linecap="round" stroke-linejoin="round"/>
<path d="M617 754C603 747.6 586.667 770 580 783C587.5 784 592 783.5 598 781C610.5 783.5 617.5 782 629.5 777C631 770.833 631 760.4 617 754Z" fill="#EBEBEB"/>
<path d="M555.284 681.879C554.957 681.467 554.367 681.378 553.934 681.676C553.5 681.974 553.372 682.556 553.639 683.009C554.681 684.772 555.916 687.568 556.271 690.208C556.629 692.862 556.079 695.014 554.026 696.12C553.371 696.472 552.825 696.824 552.502 697.193C552.348 697.37 552.103 697.709 552.117 698.169C552.132 698.71 552.48 699.042 552.74 699.2C552.983 699.348 553.255 699.418 553.471 699.459C553.704 699.502 553.962 699.526 554.229 699.537C554.763 699.56 555.412 699.537 556.123 699.485C558.961 699.276 563.184 698.566 566.191 697.982C566.534 697.915 566.817 697.674 566.938 697.347C567.059 697.019 567.001 696.652 566.784 696.379L555.284 681.879Z" fill="black" stroke="black" stroke-width="2" stroke-linejoin="round"/>
<path d="M615.018 694.266C614.897 695.037 615.386 695.772 616.145 695.957C616.903 696.142 617.676 695.715 617.923 694.974C619.736 689.535 620.839 686.7 622.298 685.022C623.607 683.516 625.32 682.832 629.001 682.339C630.131 682.324 631.24 682.195 632.311 681.967C633.089 681.802 633.603 681.059 633.483 680.273C633.362 679.487 632.649 678.931 631.858 679.007C630.746 679.113 629.727 679.22 628.793 679.341C624.612 679.347 620.012 677.437 616.221 672.128C615.822 671.571 615.097 671.354 614.458 671.601C613.82 671.848 613.43 672.497 613.511 673.177C613.813 675.718 614.197 677.795 614.55 679.701C615.385 684.217 616.043 687.776 615.018 694.266Z" fill="black" stroke="black" stroke-width="3" stroke-linejoin="round"/>
<path d="M557.5 728.5C565.333 733.167 582.6 739.2 589 726" stroke="black" stroke-width="5" stroke-linecap="round" stroke-linejoin="round"/>
</g>
<defs>
<clipPath id="clip0_455_152">
<rect width="1080" height="1080" fill="white"/>
</clipPath>
</defs>
</svg>
