<svg width="1080" height="1080" viewBox="0 0 1080 1080" fill="none" xmlns="http://www.w3.org/2000/svg">
<g clip-path="url(#clip0_406_3)">
<rect width="1080" height="1080" fill="url(#paint0_linear_406_3)"/>
<path d="M54.9028 715L96.8447 744.348L147.841 739.903L118.494 781.845L122.939 832.841L80.9967 803.494L30 807.939L59.3478 765.997L54.9028 715Z" fill="#0081DE"/>
<path d="M30.0717 864L73.3695 956.774L166.143 1000.07L73.3695 1043.37L30.0717 1136.14L-13.226 1043.37L-106 1000.07L-13.226 956.774L30.0717 864Z" fill="#0081DE"/>
<g clip-path="url(#clip1_406_3)">
<rect x="409.446" y="301.422" width="186.313" height="133.146" rx="9.08844" transform="rotate(-30 409.446 301.422)" fill="#2F9DED"/>
<path d="M462.628 295.379L522.917 311.534M583.206 327.688L522.917 311.534M522.917 311.534L539.071 251.245M522.917 311.534L506.762 371.823" stroke="white" stroke-opacity="0.2" stroke-width="19.0509" stroke-linecap="round"/>
<path d="M629.266 192.424L613.346 251.839C612.047 256.688 614.924 261.671 619.772 262.97L679.188 278.891C687.009 280.986 693.46 272.58 689.411 265.568L645.916 190.232C641.867 183.22 631.362 184.603 629.266 192.424Z" fill="#2F9DED"/>
<path d="M642.059 668.243L614.241 509.362C613.031 502.453 617.652 495.871 624.561 494.661L691.491 482.943C698.4 481.733 704.982 486.353 706.192 493.263L734.01 652.143C735.219 659.053 730.599 665.634 723.69 666.844L656.76 678.563C649.85 679.772 643.269 675.152 642.059 668.243Z" fill="#2F9DED"/>
<path d="M728.827 484.463L758.178 652.103C758.905 656.253 761.642 659.773 765.486 661.499L914.523 728.429C923.816 732.602 933.993 724.686 932.237 714.652L871.279 366.498C869.523 356.464 857.261 352.477 849.939 359.559L732.507 473.144C729.479 476.073 728.1 480.313 728.827 484.463Z" fill="#2F9DED"/>
<path d="M933.921 490.46L985.006 526.322M1036.09 562.183L985.006 526.322M985.006 526.322L1020.87 475.237M985.006 526.322L949.144 577.407" stroke="white" stroke-opacity="0.2" stroke-width="19.0509" stroke-linecap="round"/>
<path d="M889.676 82.4353L694.763 132.863C692.638 133.412 690.86 135.009 690.031 137.041C614.171 323.14 692.063 361.831 741.476 357.877C741.972 357.837 742.459 357.738 742.933 357.588C856.906 321.451 893.947 167.914 898.264 89.3165C898.518 84.6855 894.166 81.2737 889.676 82.4353Z" fill="#0088EB" stroke="#0088EB" stroke-width="6.70512"/>
<path d="M949.352 329.375C953.464 343.858 933.185 351.501 922.531 353.513L913.815 348.372L932.589 298.084C936.463 302.48 945.239 314.891 949.352 329.375Z" fill="#FFFAF7"/>
<g filter="url(#filter0_d_406_3)">
<path d="M643.406 465.01C647.311 449.79 664.222 406.571 667.257 402.46L684.854 373.051C686.704 369.959 690.087 368.114 693.688 368.233L905.814 375.226C909.378 375.344 912.604 377.366 914.263 380.523L934.334 418.71C935.894 421.679 935.848 425.235 934.211 428.162L930.508 434.783C929.817 436.018 929.399 437.386 929.281 438.795L926.107 476.664C913.635 532.617 878.896 558.193 862.38 564.001C861.371 564.356 860.447 564.794 859.539 565.359C839.476 577.832 738.093 614.388 634.414 650.149C629.031 652.006 623.197 648.953 621.649 643.474L582.011 503.176C580.258 496.969 584.83 490.787 591.261 490.295C631.218 487.238 638.144 476.284 642.68 467.014C642.996 466.369 643.228 465.706 643.406 465.01Z" fill="#FFFAF7"/>
</g>
<path d="M871.146 495.655L689.12 523.561C686.245 524.002 683.345 522.933 681.444 520.732C677.166 515.778 679.9 508.052 686.341 506.891L855.948 476.326C859.347 475.713 862.09 473.197 862.992 469.863L946.49 161.301C947.708 156.801 953.634 155.786 956.28 159.623L960.651 165.96C962.132 168.109 962.601 170.798 961.934 173.321L878.434 489.104C877.524 492.543 874.662 495.116 871.146 495.655Z" fill="black" stroke="black" stroke-width="8.94016"/>
<path d="M764.89 190.214C765.342 188.529 766.733 187.261 768.453 186.966L950.517 155.773C953.731 155.223 956.434 158.188 955.589 161.337L869.185 483.51C868.733 485.195 867.342 486.463 865.622 486.758L683.558 517.95C680.344 518.501 677.641 515.536 678.485 512.387L764.89 190.214Z" fill="#0088EB" stroke="black" stroke-width="8.94016"/>
<path d="M851.451 194.881C851.86 193.093 853.318 191.737 855.13 191.458L918.711 181.676C921.83 181.196 924.451 184.013 923.749 187.089L917.62 213.922C917.212 215.71 915.754 217.066 913.942 217.345L850.361 227.127C847.241 227.607 844.62 224.79 845.323 221.713L851.451 194.881Z" fill="#CC4141"/>
<path d="M853.254 213.549L857.842 196.158L863.694 195.274L860.497 207.39L869.286 205.865L867.804 211.351L853.254 213.549Z" fill="white"/>
<path d="M870.809 210.896L875.397 193.505L881.249 192.621L876.66 210.012L870.809 210.896Z" fill="white"/>
<path d="M894.215 207.36L898.804 189.969L909.558 188.344L908.565 192.105L903.772 192.708L902.762 196.261L907.637 195.626L906.808 198.768L901.933 199.403L901.068 202.682L905.943 202.046L904.97 205.735L894.215 207.36Z" fill="white"/>
<path d="M882.864 208.923L883.7 192.251L888.049 191.594L886.883 204.138L892.952 190.853L897.222 190.208L889.111 207.979L882.864 208.923Z" fill="white"/>
<path d="M918.732 181.862C920.445 181.564 923.828 182.13 923.649 186.779L917.614 213.823C917.231 214.905 915.96 216.932 913.69 217.548C913.312 217.651 912.907 217.714 912.474 217.728L850.339 226.889C847.356 227.329 846.005 225.269 845.703 224.184C845.46 223.09 845.691 220.797 848.551 220.375L908.227 211.576L908.464 211.541C909.419 211.343 911.129 210.355 911.874 207.565L918.732 181.862Z" fill="#853434"/>
<path d="M630.121 134.112C630.054 134.639 629.959 135.211 629.835 135.815C628.047 148.287 635.042 149.741 639.637 149.913C631.189 149.913 623.816 160.537 621.185 165.849C624.435 155.585 619.213 152.704 615.499 151.669C624.44 151.08 628.598 141.825 629.835 135.815C629.913 135.269 630.008 134.701 630.121 134.112Z" fill="black" stroke="black" stroke-width="6.70512" stroke-linejoin="round"/>
<path d="M997.942 345.287C997.875 345.814 997.78 346.385 997.656 346.99C995.867 359.462 1002.86 360.915 1007.46 361.088C999.01 361.088 991.637 371.712 989.006 377.024C992.256 366.76 987.033 363.879 983.32 362.844C992.261 362.255 996.419 353 997.656 346.99C997.734 346.444 997.829 345.876 997.942 345.287Z" fill="black" stroke="black" stroke-width="6.70512" stroke-linejoin="round"/>
<path d="M642.704 460.795C638.972 473.237 659.045 482.27 667.858 499.443L695.451 432.633C704.391 409.165 709.579 384.906 713.934 368.993C721.777 367.46 740.9 363.402 747.373 358.106C764.481 344.108 767.203 325.445 759.621 320.973C756.859 319.344 746.277 327.583 730.265 327.583C717.802 327.583 674.647 322.734 671.536 333.621C668.426 344.508 647.37 445.242 642.704 460.795Z" fill="#FFFAF7"/>
<path d="M697.016 432.857C706.153 422.747 713.157 373.503 713.934 368.993M713.934 368.993C723.331 367.567 743.796 362.733 750.484 354.801C757.172 346.869 761.047 340.868 762.148 338.859M713.934 368.993L700.131 370.937" stroke="black" stroke-width="3.88824" stroke-linecap="round"/>
<path d="M671.76 336.754C672.271 333.745 677.229 327.867 692.965 328.425C708.701 328.984 714.358 327.61 715.219 326.854" stroke="black" stroke-width="3.88824" stroke-linecap="round"/>
<path d="M726.96 328.944L719.183 334.193C730.589 332.379 754.411 327.466 758.454 322.334" stroke="black" stroke-width="3.88824" stroke-linecap="round" stroke-linejoin="round"/>
<path d="M617.661 487.319C624.668 486.158 639.952 477.86 645.028 453.954" stroke="black" stroke-width="4.47008" stroke-linecap="round"/>
<path d="M926.331 431.69C943.094 436.607 930.354 461.416 926.331 477.508C924.378 484.124 896.611 474.752 882.971 469.239C879.395 467.793 867.929 462.468 866.208 459.677C860.729 450.786 857.993 440.248 866.208 431.69C882.301 414.927 909.568 426.773 926.331 431.69Z" fill="#FFFAF7"/>
<path d="M949.352 384.133C947.638 393.595 942.781 415.289 937.059 426.375C931.874 432.633 914.038 419.298 905.768 411.847C896.754 404.025 877.896 372.03 905.768 364.465C921.414 360.218 943.839 369.605 949.352 384.133Z" fill="#FFFAF7"/>
<path d="M899.51 422.352L924.319 430.622C925.614 431.053 927.096 431.742 928.566 432.703M933.707 456.548C939.663 444.068 934.202 436.388 928.566 432.703M928.566 432.703C931.248 433.35 937.506 431.024 941.082 416.541M931.025 464.594L927.225 473.534" stroke="black" stroke-width="4.47008" stroke-linecap="round"/>
<path d="M876.042 426.822C878.725 427.791 883.284 432.186 880.066 442.02C889.378 444.404 907.78 447.742 906.886 442.02" stroke="black" stroke-width="4.47008" stroke-linecap="round" stroke-linejoin="round"/>
<path d="M903.31 365.582C906.588 366.7 912.831 371.08 911.58 379.663H929.013" stroke="black" stroke-width="4.47008" stroke-linecap="round" stroke-linejoin="round"/>
<path d="M896.382 398.661C898.766 404.77 907.691 415.96 924.32 411.847M918.285 350.831C924.692 352.619 939.339 353.155 946.67 340.997M950.246 334.292C949.873 331.461 948.637 325.083 946.67 322.222" stroke="black" stroke-width="4.47008" stroke-linecap="round"/>
<path d="M772.781 160.137C758.161 162.449 743.22 175.912 739.271 187.29C735.699 197.583 734.537 206.464 742.324 213.266C743.769 214.528 744.259 216.649 743.224 218.264L710.899 268.72C709.228 271.327 711.525 274.657 714.555 274.023L801.009 255.929C803.191 255.473 804.393 253.116 803.481 251.082L785.387 210.701C784.684 209.132 785.234 207.292 786.648 206.315C796.016 199.842 802.157 192.951 805.255 176.041C808.619 157.681 787.4 157.826 772.781 160.137Z" fill="white"/>
<path d="M772.099 155.825C763.797 157.137 755.696 161.538 749.219 166.967C742.768 172.375 737.457 179.201 735.146 185.858C733.315 191.135 731.894 196.589 732.178 201.823C732.471 207.226 734.571 212.201 739.249 216.375L707.222 266.364C703.464 272.23 708.631 279.724 715.45 278.297L801.903 260.203C806.813 259.175 809.517 253.874 807.466 249.296L789.652 209.543C794.359 206.242 798.543 202.609 801.937 197.512C805.45 192.237 807.928 185.681 809.55 176.828C810.541 171.418 809.815 166.729 807.251 163.008C804.742 159.366 800.915 157.299 796.991 156.148C789.293 153.889 779.514 154.652 772.099 155.825Z" stroke="white" stroke-opacity="0.5" stroke-width="8.73261" stroke-linecap="round"/>
<path d="M737.497 192.768C735.692 199.289 734.947 212.748 746.404 214.425L735.401 228.572" stroke="black" stroke-width="3.49304" stroke-linecap="round" stroke-linejoin="round"/>
<path d="M739.068 269.091L784.653 259.66M789.718 258.437L797.402 256.866" stroke="black" stroke-width="3.49304" stroke-linecap="round"/>
<path d="M799.498 193.641C800.837 191.662 803.829 185.852 805.087 178.447C807.074 166.745 801.419 163.252 796.878 160.982" stroke="black" stroke-width="3.49304" stroke-linecap="round"/>
<path d="M833.577 309.93C848.962 292.506 861.208 264.602 870.173 237.291M827.989 317.305L813.014 329.598" stroke="white" stroke-width="4.47008" stroke-linecap="round" stroke-linejoin="round"/>
<path d="M657.456 297.19C659.357 306.978 663.815 321.191 671.305 334.962M721.378 376.757C731.063 377.428 756.021 374.12 778.371 355.524" stroke="white" stroke-width="4.47008" stroke-linejoin="round"/>
<path d="M671.76 176.498L684.053 141.408C683.606 138.353 686.913 131.305 703.721 127.55M714.146 124.198L873.767 80.5746" stroke="white" stroke-width="4.47008" stroke-linecap="round"/>
<path d="M886.994 177.615L894.817 137.385L903.014 92.9675C904.666 84.7056 901.329 70.6603 874.758 80.5746" stroke="white" stroke-width="4.47008"/>
<path d="M758.761 509.864C762.231 509.864 770.559 512.541 776.111 523.248" stroke="black" stroke-width="4.95715" stroke-linecap="square"/>
</g>
<g filter="url(#filter1_d_406_3)">
<path d="M132.344 690.346H179.034V727H83.9088V572.531H132.344V690.346ZM242.71 572.531V727H194.275V572.531H242.71ZM420.146 572.531L368.22 727H305.603L253.677 572.531H305.167L337.021 678.783L368.656 572.531H420.146ZM479.423 611.148V630.13H527.422V666.565H479.423V688.383H533.967V727H430.988V572.531H533.967V611.148H479.423Z" fill="black"/>
<path d="M178.597 798.33C176.706 795.275 174.016 792.948 170.525 791.348C167.034 789.603 162.816 788.73 157.871 788.73C148.562 788.73 141.362 791.785 136.271 797.894C131.18 803.857 128.635 812.075 128.635 822.547C128.635 834.62 131.471 843.638 137.144 849.601C142.816 855.565 151.543 858.547 163.325 858.547C174.525 858.547 183.543 854.038 190.379 845.02H151.762V810.766H230.523V859.201C223.833 870.692 214.596 880.582 202.815 888.873C191.033 897.018 176.125 901.091 158.089 901.091C142.089 901.091 128.126 897.818 116.199 891.273C104.417 884.582 95.3267 875.273 88.9269 863.346C82.6725 851.419 79.5453 837.82 79.5453 822.547C79.5453 807.275 82.6725 793.675 88.9269 781.748C95.3267 769.821 104.417 760.585 116.199 754.04C127.98 747.349 141.798 744.004 157.652 744.004C177.87 744.004 194.306 748.877 206.96 758.622C219.76 768.367 227.323 781.603 229.651 798.33H178.597ZM295.311 745.531V832.584C295.311 839.711 296.839 845.383 299.893 849.601C303.093 853.674 308.184 855.71 315.165 855.71C322.147 855.71 327.311 853.674 330.656 849.601C334.001 845.383 335.674 839.711 335.674 832.584V745.531H383.891V832.584C383.891 847.274 380.837 859.856 374.728 870.328C368.619 880.655 360.255 888.437 349.637 893.673C339.019 898.909 327.165 901.527 314.075 901.527C300.984 901.527 289.348 898.909 279.166 893.673C269.13 888.437 261.276 880.655 255.603 870.328C249.931 860.001 247.094 847.42 247.094 832.584V745.531H295.311ZM503.833 876.655H452.344L444.708 900H393.873L450.38 745.531H506.233L562.523 900H511.47L503.833 876.655ZM492.052 840.22L478.089 797.239L464.125 840.22H492.052ZM651.198 900L622.18 844.583H621.962V900H573.527V745.531H645.525C658.034 745.531 668.725 747.786 677.597 752.295C686.47 756.658 693.088 762.694 697.451 770.403C701.96 777.967 704.215 786.548 704.215 796.148C704.215 806.475 701.306 815.639 695.488 823.638C689.815 831.638 681.597 837.383 670.834 840.874L704.433 900H651.198ZM621.962 812.293H641.162C645.816 812.293 649.307 811.275 651.634 809.239C653.961 807.057 655.125 803.712 655.125 799.203C655.125 795.13 653.889 791.93 651.416 789.603C649.089 787.276 645.671 786.112 641.162 786.112H621.962V812.293ZM784.05 745.531C800.195 745.531 814.304 748.804 826.376 755.349C838.594 761.894 847.976 770.985 854.521 782.621C861.066 794.257 864.339 807.493 864.339 822.329C864.339 837.02 861.066 850.256 854.521 862.037C847.976 873.819 838.594 883.128 826.376 889.964C814.304 896.655 800.195 900 784.05 900H719.688V745.531H784.05ZM779.687 856.801C790.595 856.801 799.25 853.819 805.65 847.856C812.049 841.892 815.249 833.384 815.249 822.329C815.249 811.275 812.049 802.766 805.65 796.803C799.25 790.839 790.595 787.857 779.687 787.857H768.123V856.801H779.687Z" fill="white"/>
<path opacity="0.8" d="M110.038 964.12C110.945 962.643 112.12 961.485 113.563 960.646C115.04 959.806 116.719 959.387 118.598 959.387V966.789H116.735C114.52 966.789 112.841 967.309 111.7 968.35C110.592 969.39 110.038 971.203 110.038 973.788V987.686H102.989V959.789H110.038V964.12ZM149.279 973.133C149.279 974.14 149.212 975.047 149.078 975.852H128.684C128.852 977.867 129.557 979.444 130.799 980.586C132.041 981.727 133.569 982.298 135.381 982.298C138 982.298 139.863 981.173 140.971 978.924H148.574C147.768 981.61 146.224 983.825 143.942 985.571C141.659 987.283 138.856 988.139 135.532 988.139C132.847 988.139 130.43 987.551 128.281 986.376C126.167 985.168 124.505 983.473 123.296 981.291C122.121 979.109 121.534 976.591 121.534 973.738C121.534 970.851 122.121 968.316 123.296 966.134C124.471 963.952 126.116 962.274 128.231 961.099C130.346 959.924 132.78 959.336 135.532 959.336C138.184 959.336 140.551 959.907 142.632 961.048C144.747 962.19 146.375 963.818 147.517 965.933C148.692 968.014 149.279 970.414 149.279 973.133ZM141.978 971.119C141.944 969.306 141.29 967.863 140.014 966.789C138.738 965.681 137.177 965.127 135.331 965.127C133.585 965.127 132.108 965.664 130.9 966.738C129.725 967.779 129.003 969.239 128.735 971.119H141.978ZM152.612 973.637C152.612 970.817 153.166 968.316 154.274 966.134C155.415 963.952 156.942 962.274 158.856 961.099C160.803 959.924 162.968 959.336 165.351 959.336C167.433 959.336 169.246 959.756 170.79 960.595C172.367 961.434 173.626 962.492 174.566 963.767V959.789H181.666V987.686H174.566V983.607C173.66 984.916 172.401 986.007 170.79 986.88C169.212 987.719 167.382 988.139 165.301 988.139C162.951 988.139 160.803 987.535 158.856 986.326C156.942 985.118 155.415 983.422 154.274 981.24C153.166 979.025 152.612 976.49 152.612 973.637ZM174.566 973.738C174.566 972.026 174.231 970.565 173.559 969.357C172.888 968.115 171.981 967.175 170.84 966.537C169.699 965.866 168.473 965.53 167.164 965.53C165.855 965.53 164.647 965.849 163.539 966.487C162.431 967.124 161.525 968.064 160.82 969.306C160.148 970.515 159.813 971.958 159.813 973.637C159.813 975.315 160.148 976.792 160.82 978.068C161.525 979.31 162.431 980.267 163.539 980.938C164.68 981.61 165.889 981.945 167.164 981.945C168.473 981.945 169.699 981.626 170.84 980.989C171.981 980.317 172.888 979.377 173.559 978.169C174.231 976.927 174.566 975.45 174.566 973.738ZM195.601 950.424V987.686H188.551V950.424H195.601ZM224.017 966.738V972.68H202.667V966.738H224.017ZM240.13 965.58V979.075C240.13 980.015 240.349 980.703 240.785 981.14C241.255 981.542 242.027 981.744 243.101 981.744H246.374V987.686H241.943C236.001 987.686 233.031 984.799 233.031 979.025V965.58H229.707V959.789H233.031V952.891H240.13V959.789H246.374V965.58H240.13ZM255.02 956.466C253.778 956.466 252.737 956.08 251.898 955.308C251.092 954.502 250.689 953.512 250.689 952.337C250.689 951.162 251.092 950.189 251.898 949.417C252.737 948.611 253.778 948.208 255.02 948.208C256.262 948.208 257.286 948.611 258.092 949.417C258.931 950.189 259.35 951.162 259.35 952.337C259.35 953.512 258.931 954.502 258.092 955.308C257.286 956.08 256.262 956.466 255.02 956.466ZM258.494 959.789V987.686H251.445V959.789H258.494ZM300.103 959.387C303.527 959.387 306.28 960.444 308.361 962.559C310.476 964.64 311.533 967.561 311.533 971.321V987.686H304.484V972.277C304.484 970.095 303.93 968.434 302.822 967.292C301.714 966.117 300.204 965.53 298.29 965.53C296.377 965.53 294.849 966.117 293.708 967.292C292.6 968.434 292.046 970.095 292.046 972.277V987.686H284.997V972.277C284.997 970.095 284.443 968.434 283.335 967.292C282.227 966.117 280.717 965.53 278.803 965.53C276.856 965.53 275.312 966.117 274.171 967.292C273.063 968.434 272.509 970.095 272.509 972.277V987.686H265.459V959.789H272.509V963.163C273.415 961.988 274.573 961.065 275.983 960.394C277.427 959.722 279.005 959.387 280.717 959.387C282.899 959.387 284.846 959.857 286.558 960.797C288.27 961.703 289.596 963.012 290.536 964.724C291.442 963.113 292.751 961.82 294.463 960.847C296.209 959.873 298.089 959.387 300.103 959.387ZM344.155 973.133C344.155 974.14 344.088 975.047 343.954 975.852H323.561C323.728 977.867 324.433 979.444 325.675 980.586C326.917 981.727 328.445 982.298 330.258 982.298C332.876 982.298 334.739 981.173 335.847 978.924H343.45C342.645 981.61 341.101 983.825 338.818 985.571C336.535 987.283 333.732 988.139 330.409 988.139C327.723 988.139 325.306 987.551 323.158 986.376C321.043 985.168 319.381 983.473 318.173 981.291C316.998 979.109 316.41 976.591 316.41 973.738C316.41 970.851 316.998 968.316 318.173 966.134C319.348 963.952 320.992 962.274 323.107 961.099C325.222 959.924 327.656 959.336 330.409 959.336C333.061 959.336 335.427 959.907 337.509 961.048C339.623 962.19 341.252 963.818 342.393 965.933C343.568 968.014 344.155 970.414 344.155 973.133ZM336.854 971.119C336.82 969.306 336.166 967.863 334.89 966.789C333.615 965.681 332.054 965.127 330.207 965.127C328.462 965.127 326.985 965.664 325.776 966.738C324.601 967.779 323.879 969.239 323.611 971.119H336.854ZM387.232 973.133C387.232 974.14 387.165 975.047 387.03 975.852H366.637C366.805 977.867 367.51 979.444 368.752 980.586C369.994 981.727 371.521 982.298 373.334 982.298C375.952 982.298 377.815 981.173 378.923 978.924H386.527C385.721 981.61 384.177 983.825 381.894 985.571C379.611 987.283 376.808 988.139 373.485 988.139C370.799 988.139 368.382 987.551 366.234 986.376C364.119 985.168 362.457 983.473 361.249 981.291C360.074 979.109 359.487 976.591 359.487 973.738C359.487 970.851 360.074 968.316 361.249 966.134C362.424 963.952 364.069 962.274 366.184 961.099C368.299 959.924 370.732 959.336 373.485 959.336C376.137 959.336 378.504 959.907 380.585 961.048C382.7 962.19 384.328 963.818 385.469 965.933C386.644 968.014 387.232 970.414 387.232 973.133ZM379.93 971.119C379.897 969.306 379.242 967.863 377.967 966.789C376.691 965.681 375.13 965.127 373.284 965.127C371.538 965.127 370.061 965.664 368.852 966.738C367.678 967.779 366.956 969.239 366.687 971.119H379.93ZM390.564 973.637C390.564 970.817 391.118 968.316 392.226 966.134C393.368 963.952 394.912 962.274 396.859 961.099C398.806 959.924 400.971 959.336 403.354 959.336C405.167 959.336 406.896 959.739 408.541 960.545C410.186 961.317 411.495 962.358 412.469 963.667V950.424H419.619V987.686H412.469V983.557C411.596 984.933 410.37 986.041 408.793 986.88C407.215 987.719 405.385 988.139 403.304 988.139C400.954 988.139 398.806 987.535 396.859 986.326C394.912 985.118 393.368 983.422 392.226 981.24C391.118 979.025 390.564 976.49 390.564 973.637ZM412.519 973.738C412.519 972.026 412.183 970.565 411.512 969.357C410.84 968.115 409.934 967.175 408.793 966.537C407.651 965.866 406.426 965.53 405.117 965.53C403.808 965.53 402.599 965.849 401.491 966.487C400.384 967.124 399.477 968.064 398.772 969.306C398.101 970.515 397.765 971.958 397.765 973.637C397.765 975.315 398.101 976.792 398.772 978.068C399.477 979.31 400.384 980.267 401.491 980.938C402.633 981.61 403.841 981.945 405.117 981.945C406.426 981.945 407.651 981.626 408.793 980.989C409.934 980.317 410.84 979.377 411.512 978.169C412.183 976.927 412.519 975.45 412.519 973.738ZM430.079 956.466C428.837 956.466 427.796 956.08 426.957 955.308C426.151 954.502 425.749 953.512 425.749 952.337C425.749 951.162 426.151 950.189 426.957 949.417C427.796 948.611 428.837 948.208 430.079 948.208C431.321 948.208 432.345 948.611 433.151 949.417C433.99 950.189 434.41 951.162 434.41 952.337C434.41 953.512 433.99 954.502 433.151 955.308C432.345 956.08 431.321 956.466 430.079 956.466ZM433.554 959.789V987.686H426.504V959.789H433.554ZM448.726 965.58V979.075C448.726 980.015 448.944 980.703 449.381 981.14C449.851 981.542 450.623 981.744 451.697 981.744H454.97V987.686H450.539C444.597 987.686 441.626 984.799 441.626 979.025V965.58H438.303V959.789H441.626V952.891H448.726V959.789H454.97V965.58H448.726ZM463.616 956.466C462.374 956.466 461.333 956.08 460.494 955.308C459.688 954.502 459.285 953.512 459.285 952.337C459.285 951.162 459.688 950.189 460.494 949.417C461.333 948.611 462.374 948.208 463.616 948.208C464.858 948.208 465.882 948.611 466.687 949.417C467.527 950.189 467.946 951.162 467.946 952.337C467.946 953.512 467.527 954.502 466.687 955.308C465.882 956.08 464.858 956.466 463.616 956.466ZM467.09 959.789V987.686H460.041V959.789H467.09ZM489.514 959.387C492.837 959.387 495.523 960.444 497.57 962.559C499.618 964.64 500.642 967.561 500.642 971.321V987.686H493.593V972.277C493.593 970.062 493.039 968.366 491.931 967.192C490.823 965.983 489.312 965.379 487.399 965.379C485.452 965.379 483.908 965.983 482.766 967.192C481.659 968.366 481.105 970.062 481.105 972.277V987.686H474.055V959.789H481.105V963.264C482.045 962.055 483.236 961.115 484.68 960.444C486.157 959.739 487.768 959.387 489.514 959.387ZM518.273 959.336C520.354 959.336 522.184 959.756 523.761 960.595C525.339 961.401 526.581 962.458 527.488 963.767V959.789H534.587V987.887C534.587 990.472 534.067 992.771 533.026 994.786C531.986 996.833 530.425 998.445 528.344 999.62C526.262 1000.83 523.745 1001.43 520.79 1001.43C516.829 1001.43 513.573 1000.51 511.022 998.663C508.504 996.817 507.077 994.299 506.742 991.11H513.741C514.11 992.385 514.899 993.392 516.107 994.131C517.35 994.903 518.843 995.289 520.589 995.289C522.637 995.289 524.298 994.668 525.574 993.426C526.85 992.218 527.488 990.371 527.488 987.887V983.557C526.581 984.866 525.322 985.957 523.711 986.83C522.133 987.702 520.32 988.139 518.273 988.139C515.923 988.139 513.774 987.535 511.827 986.326C509.88 985.118 508.336 983.422 507.195 981.24C506.087 979.025 505.533 976.49 505.533 973.637C505.533 970.817 506.087 968.316 507.195 966.134C508.336 963.952 509.864 962.274 511.777 961.099C513.724 959.924 515.889 959.336 518.273 959.336ZM527.488 973.738C527.488 972.026 527.152 970.565 526.48 969.357C525.809 968.115 524.903 967.175 523.761 966.537C522.62 965.866 521.395 965.53 520.085 965.53C518.776 965.53 517.568 965.849 516.46 966.487C515.352 967.124 514.446 968.064 513.741 969.306C513.069 970.515 512.734 971.958 512.734 973.637C512.734 975.315 513.069 976.792 513.741 978.068C514.446 979.31 515.352 980.267 516.46 980.938C517.601 981.61 518.81 981.945 520.085 981.945C521.395 981.945 522.62 981.626 523.761 980.989C524.903 980.317 525.809 979.377 526.48 978.169C527.152 976.927 527.488 975.45 527.488 973.738ZM549.177 980.284L543.285 994.433H538.753L542.026 980.284H549.177ZM573.306 964.12C574.212 962.643 575.387 961.485 576.831 960.646C578.308 959.806 579.986 959.387 581.866 959.387V966.789H580.003C577.787 966.789 576.109 967.309 574.967 968.35C573.86 969.39 573.306 971.203 573.306 973.788V987.686H566.256V959.789H573.306V964.12ZM612.547 973.133C612.547 974.14 612.479 975.047 612.345 975.852H591.952C592.12 977.867 592.825 979.444 594.067 980.586C595.309 981.727 596.836 982.298 598.649 982.298C601.267 982.298 603.13 981.173 604.238 978.924H611.842C611.036 981.61 609.492 983.825 607.209 985.571C604.926 987.283 602.123 988.139 598.8 988.139C596.114 988.139 593.697 987.551 591.549 986.376C589.434 985.168 587.772 983.473 586.564 981.291C585.389 979.109 584.801 976.591 584.801 973.738C584.801 970.851 585.389 968.316 586.564 966.134C587.739 963.952 589.384 962.274 591.499 961.099C593.613 959.924 596.047 959.336 598.8 959.336C601.452 959.336 603.819 959.907 605.9 961.048C608.015 962.19 609.643 963.818 610.784 965.933C611.959 968.014 612.547 970.414 612.547 973.133ZM605.245 971.119C605.212 969.306 604.557 967.863 603.281 966.789C602.006 965.681 600.445 965.127 598.599 965.127C596.853 965.127 595.376 965.664 594.167 966.738C592.992 967.779 592.271 969.239 592.002 971.119H605.245ZM615.879 973.637C615.879 970.817 616.433 968.316 617.541 966.134C618.682 963.952 620.21 962.274 622.123 961.099C624.07 959.924 626.236 959.336 628.619 959.336C630.7 959.336 632.513 959.756 634.057 960.595C635.635 961.434 636.894 962.492 637.834 963.767V959.789H644.934V987.686H637.834V983.607C636.927 984.916 635.669 986.007 634.057 986.88C632.479 987.719 630.65 988.139 628.569 988.139C626.219 988.139 624.07 987.535 622.123 986.326C620.21 985.118 618.682 983.422 617.541 981.24C616.433 979.025 615.879 976.49 615.879 973.637ZM637.834 973.738C637.834 972.026 637.498 970.565 636.827 969.357C636.155 968.115 635.249 967.175 634.108 966.537C632.966 965.866 631.741 965.53 630.432 965.53C629.123 965.53 627.914 965.849 626.806 966.487C625.698 967.124 624.792 968.064 624.087 969.306C623.416 970.515 623.08 971.958 623.08 973.637C623.08 975.315 623.416 976.792 624.087 978.068C624.792 979.31 625.698 980.267 626.806 980.938C627.948 981.61 629.156 981.945 630.432 981.945C631.741 981.945 632.966 981.626 634.108 980.989C635.249 980.317 636.155 979.377 636.827 978.169C637.498 976.927 637.834 975.45 637.834 973.738ZM658.868 950.424V987.686H651.819V950.424H658.868ZM687.284 966.738V972.68H665.934V966.738H687.284ZM703.398 965.58V979.075C703.398 980.015 703.616 980.703 704.053 981.14C704.523 981.542 705.295 981.744 706.369 981.744H709.642V987.686H705.211C699.269 987.686 696.298 984.799 696.298 979.025V965.58H692.975V959.789H696.298V952.891H703.398V959.789H709.642V965.58H703.398ZM718.287 956.466C717.045 956.466 716.005 956.08 715.165 955.308C714.36 954.502 713.957 953.512 713.957 952.337C713.957 951.162 714.36 950.189 715.165 949.417C716.005 948.611 717.045 948.208 718.287 948.208C719.529 948.208 720.553 948.611 721.359 949.417C722.198 950.189 722.618 951.162 722.618 952.337C722.618 953.512 722.198 954.502 721.359 955.308C720.553 956.08 719.529 956.466 718.287 956.466ZM721.762 959.789V987.686H714.712V959.789H721.762ZM763.37 959.387C766.795 959.387 769.547 960.444 771.629 962.559C773.743 964.64 774.801 967.561 774.801 971.321V987.686H767.751V972.277C767.751 970.095 767.197 968.434 766.09 967.292C764.982 966.117 763.471 965.53 761.558 965.53C759.644 965.53 758.117 966.117 756.976 967.292C755.868 968.434 755.314 970.095 755.314 972.277V987.686H748.264V972.277C748.264 970.095 747.71 968.434 746.603 967.292C745.495 966.117 743.984 965.53 742.071 965.53C740.124 965.53 738.579 966.117 737.438 967.292C736.33 968.434 735.776 970.095 735.776 972.277V987.686H728.727V959.789H735.776V963.163C736.683 961.988 737.841 961.065 739.251 960.394C740.694 959.722 742.272 959.387 743.984 959.387C746.166 959.387 748.113 959.857 749.825 960.797C751.537 961.703 752.863 963.012 753.803 964.724C754.71 963.113 756.019 961.82 757.731 960.847C759.476 959.873 761.356 959.387 763.37 959.387ZM807.423 973.133C807.423 974.14 807.356 975.047 807.221 975.852H786.828C786.996 977.867 787.701 979.444 788.943 980.586C790.185 981.727 791.712 982.298 793.525 982.298C796.144 982.298 798.007 981.173 799.114 978.924H806.718C805.912 981.61 804.368 983.825 802.085 985.571C799.803 987.283 797 988.139 793.676 988.139C790.991 988.139 788.574 987.551 786.425 986.376C784.31 985.168 782.649 983.473 781.44 981.291C780.265 979.109 779.678 976.591 779.678 973.738C779.678 970.851 780.265 968.316 781.44 966.134C782.615 963.952 784.26 962.274 786.375 961.099C788.49 959.924 790.923 959.336 793.676 959.336C796.328 959.336 798.695 959.907 800.776 961.048C802.891 962.19 804.519 963.818 805.66 965.933C806.835 968.014 807.423 970.414 807.423 973.133ZM800.122 971.119C800.088 969.306 799.433 967.863 798.158 966.789C796.882 965.681 795.321 965.127 793.475 965.127C791.729 965.127 790.252 965.664 789.044 966.738C787.869 967.779 787.147 969.239 786.878 971.119H800.122ZM833.127 964.724C834.336 963.046 835.745 961.737 837.357 960.797C838.968 959.857 840.714 959.387 842.594 959.387L841.284 966.789H839.421C837.34 966.789 835.662 967.242 834.386 968.148C833.144 969.055 832.237 970.599 831.667 972.781L829.048 987.686H821.948L826.883 959.789H833.983L833.127 964.724ZM859.528 959.336C863.086 959.336 865.906 960.327 867.987 962.307C870.068 964.254 871.109 966.889 871.109 970.213C871.109 971.287 871.025 972.244 870.857 973.083C870.656 974.09 870.438 974.963 870.203 975.701H849.809C849.776 975.936 849.759 976.272 849.759 976.708C849.759 978.454 850.262 979.83 851.269 980.838C852.31 981.811 853.67 982.298 855.348 982.298C856.758 982.298 857.967 981.996 858.974 981.391C860.014 980.754 860.854 979.931 861.491 978.924H869.095C867.853 981.61 865.923 983.825 863.304 985.571C860.719 987.283 857.782 988.139 854.492 988.139C850.934 988.139 848.08 987.132 845.932 985.118C843.784 983.103 842.709 980.368 842.709 976.91C842.709 975.903 842.81 974.845 843.011 973.738C843.515 970.851 844.539 968.316 846.083 966.134C847.661 963.952 849.608 962.274 851.924 961.099C854.24 959.924 856.775 959.336 859.528 959.336ZM863.858 971.421C863.925 970.884 863.959 970.498 863.959 970.263C863.959 968.652 863.438 967.393 862.398 966.487C861.357 965.58 859.998 965.127 858.319 965.127C856.54 965.127 854.945 965.698 853.535 966.839C852.126 967.947 851.135 969.474 850.565 971.421H863.858ZM884.311 988.139C882.263 988.139 880.4 987.803 878.722 987.132C877.077 986.427 875.768 985.47 874.794 984.262C873.854 983.02 873.384 981.61 873.384 980.032C873.384 979.797 873.418 979.411 873.485 978.874H880.333C880.232 980.049 880.585 981.005 881.391 981.744C882.196 982.449 883.338 982.801 884.815 982.801C886.157 982.801 887.265 982.566 888.138 982.096C889.044 981.593 889.498 980.871 889.498 979.931C889.498 979.092 889.078 978.421 888.239 977.917C887.433 977.413 886.141 976.843 884.362 976.205C882.582 975.567 881.105 974.946 879.93 974.342C878.755 973.738 877.748 972.898 876.909 971.824C876.07 970.75 875.65 969.39 875.65 967.745C875.65 966.101 876.12 964.64 877.06 963.365C878.034 962.089 879.376 961.099 881.089 960.394C882.801 959.689 884.764 959.336 886.98 959.336C889.095 959.336 890.958 959.689 892.569 960.394C894.181 961.099 895.423 962.089 896.295 963.365C897.202 964.607 897.655 966.033 897.655 967.645C897.655 968.048 897.638 968.35 897.605 968.551H891.059C891.159 967.376 890.824 966.436 890.052 965.731C889.279 965.026 888.155 964.674 886.678 964.674C885.469 964.674 884.479 964.942 883.707 965.48C882.935 965.983 882.549 966.671 882.549 967.544C882.549 968.417 882.985 969.139 883.858 969.709C884.731 970.246 886.074 970.851 887.886 971.522C889.699 972.227 891.143 972.882 892.217 973.486C893.325 974.056 894.281 974.862 895.087 975.903C895.893 976.91 896.295 978.186 896.295 979.73C896.295 981.442 895.775 982.936 894.734 984.211C893.694 985.487 892.267 986.46 890.454 987.132C888.642 987.803 886.594 988.139 884.311 988.139ZM932.093 959.789L927.159 987.686H920.109L920.713 984.161C919.639 985.369 918.313 986.326 916.735 987.031C915.158 987.702 913.496 988.038 911.75 988.038C908.863 988.038 906.581 987.266 904.902 985.722C903.224 984.144 902.384 981.912 902.384 979.025C902.384 977.951 902.468 976.994 902.636 976.155L905.506 959.789H912.556L909.837 975.147C909.736 975.752 909.686 976.339 909.686 976.91C909.686 978.555 910.139 979.83 911.045 980.737C911.952 981.61 913.227 982.046 914.872 982.046C916.786 982.046 918.414 981.459 919.757 980.284C921.099 979.075 921.955 977.363 922.325 975.147L925.044 959.789H932.093ZM947.81 950.424L941.214 987.686H934.114L940.711 950.424H947.81ZM957.897 979.075C957.864 979.277 957.847 979.545 957.847 979.881C957.847 980.552 958.032 981.039 958.401 981.341C958.804 981.61 959.458 981.744 960.365 981.744H963.688L962.631 987.686H958.149C953.114 987.686 950.596 985.588 950.596 981.391C950.596 980.586 950.663 979.797 950.797 979.025L953.164 965.58H949.841L950.848 959.789H954.222L955.43 952.891H962.53L961.321 959.789H967.515L966.508 965.58H960.264L957.897 979.075ZM978.578 988.139C976.53 988.139 974.667 987.803 972.988 987.132C971.343 986.427 970.034 985.47 969.061 984.262C968.121 983.02 967.651 981.61 967.651 980.032C967.651 979.797 967.684 979.411 967.751 978.874H974.6C974.499 980.049 974.851 981.005 975.657 981.744C976.463 982.449 977.604 982.801 979.081 982.801C980.424 982.801 981.532 982.566 982.405 982.096C983.311 981.593 983.764 980.871 983.764 979.931C983.764 979.092 983.344 978.421 982.505 977.917C981.7 977.413 980.407 976.843 978.628 976.205C976.849 975.567 975.372 974.946 974.197 974.342C973.022 973.738 972.015 972.898 971.176 971.824C970.336 970.75 969.917 969.39 969.917 967.745C969.917 966.101 970.387 964.64 971.327 963.365C972.3 962.089 973.643 961.099 975.355 960.394C977.067 959.689 979.031 959.336 981.246 959.336C983.361 959.336 985.224 959.689 986.836 960.394C988.447 961.099 989.689 962.089 990.562 963.365C991.468 964.607 991.921 966.033 991.921 967.645C991.921 968.048 991.905 968.35 991.871 968.551H985.325C985.426 967.376 985.09 966.436 984.318 965.731C983.546 965.026 982.421 964.674 980.944 964.674C979.736 964.674 978.745 964.942 977.973 965.48C977.201 965.983 976.815 966.671 976.815 967.544C976.815 968.417 977.252 969.139 978.124 969.709C978.997 970.246 980.34 970.851 982.153 971.522C983.965 972.227 985.409 972.882 986.483 973.486C987.591 974.056 988.548 974.862 989.353 975.903C990.159 976.91 990.562 978.186 990.562 979.73C990.562 981.442 990.042 982.936 989.001 984.211C987.96 985.487 986.534 986.46 984.721 987.132C982.908 987.803 980.86 988.139 978.578 988.139ZM1000.83 988.038C999.555 988.038 998.497 987.652 997.658 986.88C996.852 986.074 996.449 985.084 996.449 983.909C996.449 982.734 996.852 981.761 997.658 980.989C998.497 980.183 999.555 979.78 1000.83 979.78C1002.07 979.78 1003.1 980.183 1003.9 980.989C1004.71 981.761 1005.11 982.734 1005.11 983.909C1005.11 985.084 1004.71 986.074 1003.9 986.88C1003.1 987.652 1002.07 988.038 1000.83 988.038Z" fill="white"/>
</g>
</g>
<defs>
<filter id="filter0_d_406_3" x="579.816" y="368.228" width="357.474" height="286.101" filterUnits="userSpaceOnUse" color-interpolation-filters="sRGB">
<feFlood flood-opacity="0" result="BackgroundImageFix"/>
<feColorMatrix in="SourceAlpha" type="matrix" values="0 0 0 0 0 0 0 0 0 0 0 0 0 0 0 0 0 0 127 0" result="hardAlpha"/>
<feOffset dy="1.81769"/>
<feGaussianBlur stdDeviation="0.908844"/>
<feComposite in2="hardAlpha" operator="out"/>
<feColorMatrix type="matrix" values="0 0 0 0 0 0 0 0 0 0 0 0 0 0 0 0 0 0 0.25 0"/>
<feBlend mode="normal" in2="BackgroundImageFix" result="effect1_dropShadow_406_3"/>
<feBlend mode="normal" in="SourceGraphic" in2="effect1_dropShadow_406_3" result="shape"/>
</filter>
<filter id="filter1_d_406_3" x="75.5453" y="572.531" width="933.565" height="436.901" filterUnits="userSpaceOnUse" color-interpolation-filters="sRGB">
<feFlood flood-opacity="0" result="BackgroundImageFix"/>
<feColorMatrix in="SourceAlpha" type="matrix" values="0 0 0 0 0 0 0 0 0 0 0 0 0 0 0 0 0 0 127 0" result="hardAlpha"/>
<feOffset dy="4"/>
<feGaussianBlur stdDeviation="2"/>
<feComposite in2="hardAlpha" operator="out"/>
<feColorMatrix type="matrix" values="0 0 0 0 0 0 0 0 0 0 0 0 0 0 0 0 0 0 0.25 0"/>
<feBlend mode="normal" in2="BackgroundImageFix" result="effect1_dropShadow_406_3"/>
<feBlend mode="normal" in="SourceGraphic" in2="effect1_dropShadow_406_3" result="shape"/>
</filter>
<linearGradient id="paint0_linear_406_3" x1="540" y1="0" x2="540" y2="1080" gradientUnits="userSpaceOnUse">
<stop stop-color="#0088EB"/>
<stop offset="0.9999" stop-color="#0088EB"/>
<stop offset="1" stop-color="#0088EB" stop-opacity="0"/>
</linearGradient>
<clipPath id="clip0_406_3">
<rect width="1080" height="1080" fill="white"/>
</clipPath>
<clipPath id="clip1_406_3">
<rect width="668" height="739.344" fill="white" transform="translate(379 14)"/>
</clipPath>
</defs>
</svg>
