<svg width="1080" height="1080" viewBox="0 0 1080 1080" fill="none" xmlns="http://www.w3.org/2000/svg">
<g clip-path="url(#clip0_455_153)">
<rect width="1080" height="1080" fill="#FFFAF7"/>
<path d="M2591.09 681.203C2877.48 472.923 3143.03 435.512 3240 442.841V1030H0C209.748 902.574 428.434 813.126 710.42 813.126C1127 813.126 1303.5 964.299 1663.36 982.528C2107 1005 2233.11 941.551 2591.09 681.203Z" fill="#0088EB" fill-opacity="0.3"/>
<path d="M2591.09 703.203C2877.48 494.923 3143.03 457.512 3240 464.841V1052H0C209.748 924.574 428.434 835.126 710.42 835.126C1127 835.126 1303.5 986.299 1663.36 1004.53C2107 1027 2233.11 963.551 2591.09 703.203Z" fill="#0088EB" fill-opacity="0.6"/>
<path d="M1080.31 662L1103.95 712.663L1154.62 736.308L1103.95 759.953L1080.31 810.616L1056.66 759.953L1006 736.308L1056.66 712.663L1080.31 662Z" fill="#F4EEEA"/>
<path d="M741.846 91L759.616 129.076L797.692 146.846L759.616 164.616L741.846 202.692L724.076 164.616L686 146.846L724.076 129.076L741.846 91Z" fill="#F4EEEA"/>
<path d="M2591.09 731.203C2877.48 522.923 3143.03 485.512 3240 492.841V1080H0C209.748 952.574 428.434 863.126 710.42 863.126C1127 863.126 1303.5 1014.3 1663.36 1032.53C2107 1055 2233.11 991.551 2591.09 731.203Z" fill="#0088EB"/>
<path d="M-0.267822 943L34.3305 1017.13L108.464 1051.73L34.3305 1086.33L-0.267822 1160.46L-34.8661 1086.33L-109 1051.73L-34.8662 1017.13L-0.267822 943Z" fill="#0081DE"/>
<path d="M176.309 90.7481V119.647H130.662V135.738H163.501V163.159H130.662V207H94.2099V90.7481H176.309ZM225.107 179.415H260.246V207H188.656V90.7481H225.107V179.415ZM308.168 119.811V134.096H344.292V161.517H308.168V177.937H349.218V207H271.716V90.7481H349.218V119.811H308.168ZM437.008 207L415.663 176.788L397.929 207H356.387L394.645 147.068L354.745 90.7481H397.929L418.454 119.811L435.53 90.7481H477.072L439.471 149.531L480.192 207H437.008ZM524.8 90.7481V207H488.348V90.7481H524.8ZM619.093 147.396C626.099 149.038 631.517 152.432 635.349 157.577C639.289 162.612 641.26 168.468 641.26 175.146C641.26 185.326 637.866 193.207 631.08 198.79C624.402 204.263 614.769 207 602.181 207H541.263V90.7481H600.539C612.361 90.7481 621.666 93.3205 628.452 98.4654C635.239 103.61 638.633 111.109 638.633 120.96C638.633 127.747 636.826 133.494 633.214 138.201C629.711 142.799 625.004 145.864 619.093 147.396ZM577.715 136.067H591.836C595.12 136.067 597.529 135.41 599.061 134.096C600.703 132.783 601.524 130.758 601.524 128.021C601.524 125.175 600.703 123.095 599.061 121.781C597.529 120.358 595.12 119.647 591.836 119.647H577.715V136.067ZM594.299 177.773C597.583 177.773 599.991 177.171 601.524 175.967C603.166 174.653 603.987 172.573 603.987 169.727C603.987 164.144 600.758 161.353 594.299 161.353H577.715V177.773H594.299ZM689.96 179.415H725.098V207H653.508V90.7481H689.96V179.415ZM773.021 119.811V134.096H809.144V161.517H773.021V177.937H814.07V207H736.569V90.7481H814.07V119.811H773.021Z" fill="black"/>
<path d="M182.384 348L174.338 340.447C164.049 346.577 151.953 349.642 138.051 349.642C128.637 349.642 120.427 348.164 113.421 345.209C106.525 342.253 101.216 338.093 97.4938 332.73C93.772 327.256 91.9111 321.017 91.9111 314.011C91.9111 307.334 93.6078 301.258 97.0012 295.785C100.504 290.202 105.704 285.495 112.6 281.664C107.565 275.425 105.047 268.857 105.047 261.96C105.047 256.049 106.579 250.631 109.644 245.705C112.819 240.779 117.416 236.893 123.437 234.047C129.458 231.091 136.628 229.614 144.947 229.614C153.376 229.614 160.546 231.146 166.457 234.211C172.368 237.167 176.801 241.107 179.757 246.033C182.712 250.959 184.19 256.268 184.19 261.96H151.022C151.022 259.881 150.42 258.348 149.216 257.363C148.012 256.268 146.589 255.721 144.947 255.721C143.195 255.721 141.663 256.268 140.349 257.363C139.145 258.348 138.543 259.771 138.543 261.632C138.543 265.135 140.951 269.185 145.768 273.783L172.204 299.398C173.736 296.442 175.105 293.103 176.309 289.381L176.801 287.904H212.104L210.462 292.173C206.302 303.119 201.157 312.862 195.027 321.4L222.448 348H182.384ZM140.678 320.907C144.619 320.907 148.286 320.305 151.679 319.101L132.304 301.039C130.443 302.353 129.02 303.886 128.035 305.637C127.159 307.279 126.721 308.976 126.721 310.727C126.721 313.573 127.925 315.981 130.333 317.952C132.851 319.922 136.299 320.907 140.678 320.907ZM304.051 349.149C290.148 349.149 278.655 345.92 269.569 339.462C260.593 332.894 255.722 323.316 254.955 310.727H293.706C294.253 317.405 297.209 320.743 302.573 320.743C304.543 320.743 306.185 320.305 307.499 319.43C308.922 318.444 309.633 316.967 309.633 314.996C309.633 312.26 308.155 310.07 305.2 308.428C302.244 306.677 297.647 304.707 291.407 302.517C283.964 299.89 277.779 297.318 272.853 294.8C268.037 292.282 263.877 288.615 260.374 283.799C256.871 278.982 255.174 272.798 255.284 265.244C255.284 257.691 257.199 251.288 261.031 246.033C264.972 240.67 270.281 236.619 276.958 233.883C283.745 231.146 291.353 229.778 299.781 229.778C314.012 229.778 325.287 233.062 333.606 239.63C342.035 246.197 346.468 255.447 346.906 267.379H307.663C307.553 264.095 306.732 261.742 305.2 260.318C303.667 258.895 301.807 258.184 299.617 258.184C298.085 258.184 296.826 258.731 295.841 259.826C294.855 260.811 294.363 262.234 294.363 264.095C294.363 266.722 295.786 268.911 298.632 270.663C301.588 272.305 306.24 274.33 312.589 276.738C319.923 279.475 325.944 282.102 330.651 284.62C335.467 287.137 339.627 290.64 343.13 295.128C346.632 299.616 348.384 305.254 348.384 312.041C348.384 319.156 346.632 325.56 343.13 331.252C339.627 336.835 334.537 341.213 327.859 344.388C321.182 347.562 313.246 349.149 304.051 349.149ZM397.643 231.748V348H361.191V231.748H397.643ZM553.839 231.748V348H517.551V290.038L499.653 348H468.456L450.558 290.038V348H414.107V231.748H458.768L484.383 301.532L509.341 231.748H553.839ZM665.357 271.648C665.357 278.982 663.66 285.66 660.267 291.68C656.874 297.591 651.838 302.298 645.161 305.801C638.593 309.304 630.602 311.056 621.188 311.056H606.739V348H570.287V231.748H621.188C635.418 231.748 646.31 235.36 653.863 242.585C661.526 249.81 665.357 259.497 665.357 271.648ZM617.083 282.321C624.636 282.321 628.413 278.763 628.413 271.648C628.413 264.533 624.636 260.975 617.083 260.975H606.739V282.321H617.083ZM713.371 320.415H748.509V348H676.919V231.748H713.371V320.415ZM796.432 260.811V275.096H832.555V302.517H796.432V318.937H837.481V348H759.98V231.748H837.481V260.811H796.432Z" fill="#0088EB"/>
<path d="M964 393.882L994.479 411.479M1024.96 429.077L994.479 411.479M994.479 411.479L1012.08 381M994.479 411.479L976.882 441.959" stroke="#F4EEEA" stroke-width="16.7711" stroke-linecap="round"/>
<path d="M71 811L82.7733 836.227L108 848L82.7733 859.773L71 885L59.2267 859.773L34 848L59.2267 836.227L71 811Z" fill="#0081DE"/>
<path d="M65.4141 907.81L76.8187 915.79L90.6855 914.582L82.7054 925.986L83.914 939.853L72.5094 931.873L58.6426 933.081L66.6227 921.677L65.4141 907.81Z" fill="#0081DE"/>
<path opacity="0.8" d="M97.6346 413.263C95.8081 413.263 94.1567 412.95 92.6805 412.324C91.2293 411.699 90.0784 410.798 89.2277 409.622C88.377 408.446 87.9391 407.058 87.9141 405.456H93.5437C93.6188 406.532 93.9941 407.383 94.6696 408.008C95.3702 408.634 96.321 408.947 97.522 408.947C98.748 408.947 99.7113 408.659 100.412 408.083C101.112 407.483 101.463 406.707 101.463 405.757C101.463 404.981 101.225 404.343 100.75 403.842C100.274 403.342 99.6737 402.954 98.9482 402.679C98.2476 402.379 97.2718 402.053 96.0207 401.703C94.3193 401.203 92.9307 400.715 91.8548 400.24C90.804 399.739 89.8907 399.001 89.1151 398.025C88.3644 397.024 87.9891 395.698 87.9891 394.047C87.9891 392.496 88.377 391.145 89.1526 389.994C89.9282 388.843 91.0166 387.967 92.4178 387.366C93.8189 386.741 95.4203 386.428 97.2217 386.428C99.924 386.428 102.113 387.091 103.79 388.417C105.491 389.718 106.429 391.545 106.604 393.897H100.825C100.775 392.996 100.387 392.258 99.6612 391.682C98.9607 391.082 98.0224 390.782 96.8464 390.782C95.8206 390.782 94.9949 391.044 94.3694 391.57C93.7689 392.095 93.4686 392.858 93.4686 393.859C93.4686 394.56 93.6938 395.148 94.1442 395.623C94.6196 396.074 95.1951 396.449 95.8706 396.749C96.5712 397.024 97.547 397.35 98.798 397.725C100.499 398.225 101.888 398.726 102.964 399.226C104.04 399.727 104.966 400.477 105.741 401.478C106.517 402.479 106.905 403.792 106.905 405.419C106.905 406.82 106.542 408.121 105.816 409.322C105.091 410.523 104.027 411.486 102.626 412.212C101.225 412.912 99.5612 413.263 97.6346 413.263ZM117.578 396.524V406.582C117.578 407.283 117.74 407.796 118.065 408.121C118.416 408.421 118.991 408.571 119.792 408.571H122.231V413H118.929C114.5 413 112.286 410.848 112.286 406.545V396.524H109.809V392.208H112.286V387.066H117.578V392.208H122.231V396.524H117.578ZM131.265 395.436C131.94 394.335 132.816 393.471 133.892 392.846C134.993 392.22 136.244 391.908 137.645 391.908V397.425H136.256C134.605 397.425 133.354 397.813 132.503 398.588C131.678 399.364 131.265 400.715 131.265 402.641V413H126.011V392.208H131.265V395.436ZM160.513 402.154C160.513 402.904 160.463 403.58 160.362 404.18H145.162C145.288 405.681 145.813 406.857 146.739 407.708C147.665 408.559 148.803 408.984 150.154 408.984C152.106 408.984 153.494 408.146 154.32 406.47H159.987C159.387 408.471 158.236 410.123 156.534 411.424C154.833 412.7 152.744 413.338 150.267 413.338C148.265 413.338 146.464 412.9 144.862 412.024C143.286 411.123 142.047 409.86 141.147 408.234C140.271 406.607 139.833 404.731 139.833 402.604C139.833 400.452 140.271 398.563 141.147 396.937C142.022 395.31 143.248 394.059 144.825 393.184C146.401 392.308 148.215 391.87 150.267 391.87C152.243 391.87 154.007 392.295 155.558 393.146C157.135 393.997 158.348 395.21 159.199 396.787C160.075 398.338 160.513 400.127 160.513 402.154ZM155.071 400.652C155.046 399.301 154.558 398.225 153.607 397.425C152.656 396.599 151.493 396.186 150.117 396.186C148.815 396.186 147.715 396.586 146.814 397.387C145.938 398.163 145.4 399.251 145.2 400.652H155.071ZM162.997 402.529C162.997 400.427 163.409 398.563 164.235 396.937C165.086 395.31 166.224 394.059 167.65 393.184C169.102 392.308 170.715 391.87 172.492 391.87C174.043 391.87 175.394 392.183 176.545 392.808C177.721 393.434 178.66 394.222 179.36 395.173V392.208H184.652V413H179.36V409.96C178.685 410.936 177.746 411.749 176.545 412.4C175.369 413.025 174.006 413.338 172.454 413.338C170.703 413.338 169.102 412.887 167.65 411.987C166.224 411.086 165.086 409.822 164.235 408.196C163.409 406.545 162.997 404.656 162.997 402.529ZM179.36 402.604C179.36 401.328 179.11 400.24 178.609 399.339C178.109 398.413 177.434 397.712 176.583 397.237C175.732 396.737 174.819 396.486 173.843 396.486C172.867 396.486 171.967 396.724 171.141 397.199C170.315 397.675 169.64 398.375 169.114 399.301C168.614 400.202 168.364 401.278 168.364 402.529C168.364 403.78 168.614 404.881 169.114 405.832C169.64 406.757 170.315 407.47 171.141 407.971C171.992 408.471 172.892 408.721 173.843 408.721C174.819 408.721 175.732 408.484 176.583 408.008C177.434 407.508 178.109 406.807 178.609 405.907C179.11 404.981 179.36 403.88 179.36 402.604ZM215.605 391.908C218.157 391.908 220.209 392.696 221.76 394.272C223.336 395.823 224.124 398 224.124 400.802V413H218.87V401.516C218.87 399.889 218.457 398.651 217.632 397.8C216.806 396.924 215.68 396.486 214.254 396.486C212.828 396.486 211.689 396.924 210.839 397.8C210.013 398.651 209.6 399.889 209.6 401.516V413H204.346V401.516C204.346 399.889 203.933 398.651 203.107 397.8C202.282 396.924 201.156 396.486 199.729 396.486C198.278 396.486 197.127 396.924 196.277 397.8C195.451 398.651 195.038 399.889 195.038 401.516V413H189.784V392.208H195.038V394.722C195.714 393.847 196.577 393.159 197.628 392.658C198.704 392.158 199.88 391.908 201.156 391.908C202.782 391.908 204.233 392.258 205.509 392.959C206.785 393.634 207.774 394.61 208.474 395.886C209.15 394.685 210.125 393.722 211.402 392.996C212.703 392.27 214.104 391.908 215.605 391.908ZM257.682 392.208V413H252.39V410.373C251.715 411.274 250.826 411.987 249.726 412.512C248.65 413.013 247.474 413.263 246.198 413.263C244.571 413.263 243.133 412.925 241.882 412.249C240.631 411.549 239.642 410.535 238.917 409.209C238.216 407.858 237.866 406.257 237.866 404.405V392.208H243.12V403.655C243.12 405.306 243.533 406.582 244.359 407.483C245.184 408.359 246.31 408.797 247.736 408.797C249.188 408.797 250.326 408.359 251.152 407.483C251.977 406.582 252.39 405.306 252.39 403.655V392.208H257.682ZM270.823 413.338C269.121 413.338 267.595 413.038 266.244 412.437C264.893 411.812 263.817 410.973 263.016 409.922C262.241 408.872 261.815 407.708 261.74 406.432H267.032C267.132 407.233 267.52 407.896 268.196 408.421C268.896 408.947 269.759 409.209 270.785 409.209C271.786 409.209 272.562 409.009 273.112 408.609C273.688 408.209 273.975 407.696 273.975 407.07C273.975 406.395 273.625 405.894 272.925 405.569C272.249 405.219 271.161 404.843 269.659 404.443C268.108 404.068 266.832 403.68 265.831 403.28C264.855 402.879 264.005 402.266 263.279 401.44C262.579 400.615 262.228 399.501 262.228 398.1C262.228 396.949 262.554 395.898 263.204 394.948C263.88 393.997 264.83 393.246 266.056 392.696C267.307 392.145 268.771 391.87 270.448 391.87C272.925 391.87 274.901 392.496 276.377 393.747C277.854 394.973 278.667 396.637 278.817 398.738H273.788C273.713 397.913 273.362 397.262 272.737 396.787C272.136 396.286 271.323 396.036 270.297 396.036C269.347 396.036 268.609 396.211 268.083 396.561C267.583 396.912 267.332 397.4 267.332 398.025C267.332 398.726 267.683 399.264 268.383 399.639C269.084 399.989 270.172 400.352 271.649 400.727C273.15 401.103 274.388 401.491 275.364 401.891C276.34 402.291 277.178 402.917 277.879 403.767C278.604 404.593 278.98 405.694 279.005 407.07C279.005 408.271 278.667 409.347 277.991 410.298C277.341 411.249 276.39 411.999 275.139 412.55C273.913 413.075 272.474 413.338 270.823 413.338ZM285.982 389.731C285.057 389.731 284.281 389.443 283.655 388.868C283.055 388.267 282.755 387.529 282.755 386.653C282.755 385.778 283.055 385.052 283.655 384.477C284.281 383.876 285.057 383.576 285.982 383.576C286.908 383.576 287.671 383.876 288.272 384.477C288.897 385.052 289.21 385.778 289.21 386.653C289.21 387.529 288.897 388.267 288.272 388.868C287.671 389.443 286.908 389.731 285.982 389.731ZM288.572 392.208V413H283.318V392.208H288.572ZM305.285 391.908C307.762 391.908 309.764 392.696 311.29 394.272C312.816 395.823 313.58 398 313.58 400.802V413H308.325V401.516C308.325 399.864 307.912 398.601 307.087 397.725C306.261 396.824 305.135 396.374 303.709 396.374C302.258 396.374 301.107 396.824 300.256 397.725C299.43 398.601 299.018 399.864 299.018 401.516V413H293.763V392.208H299.018V394.798C299.718 393.897 300.606 393.196 301.682 392.696C302.783 392.17 303.984 391.908 305.285 391.908ZM326.72 391.87C328.272 391.87 329.635 392.183 330.811 392.808C331.987 393.409 332.913 394.197 333.589 395.173V392.208H338.88V413.15C338.88 415.077 338.493 416.791 337.717 418.292C336.941 419.818 335.778 421.019 334.227 421.895C332.675 422.796 330.799 423.246 328.597 423.246C325.645 423.246 323.218 422.558 321.316 421.182C319.439 419.806 318.376 417.929 318.126 415.552H323.343C323.618 416.503 324.206 417.253 325.107 417.804C326.032 418.379 327.146 418.667 328.447 418.667C329.973 418.667 331.212 418.204 332.162 417.279C333.113 416.378 333.589 415.002 333.589 413.15V409.922C332.913 410.898 331.975 411.711 330.774 412.362C329.598 413.013 328.247 413.338 326.72 413.338C324.969 413.338 323.368 412.887 321.916 411.987C320.465 411.086 319.314 409.822 318.464 408.196C317.638 406.545 317.225 404.656 317.225 402.529C317.225 400.427 317.638 398.563 318.464 396.937C319.314 395.31 320.453 394.059 321.879 393.184C323.33 392.308 324.944 391.87 326.72 391.87ZM333.589 402.604C333.589 401.328 333.338 400.24 332.838 399.339C332.338 398.413 331.662 397.712 330.811 397.237C329.961 396.737 329.047 396.486 328.072 396.486C327.096 396.486 326.195 396.724 325.369 397.199C324.544 397.675 323.868 398.375 323.343 399.301C322.842 400.202 322.592 401.278 322.592 402.529C322.592 403.78 322.842 404.881 323.343 405.832C323.868 406.757 324.544 407.47 325.369 407.971C326.22 408.471 327.121 408.721 328.072 408.721C329.047 408.721 329.961 408.484 330.811 408.008C331.662 407.508 332.338 406.807 332.838 405.907C333.338 404.981 333.589 403.88 333.589 402.604ZM381.779 392.208L375.699 413H370.032L366.241 398.476L362.45 413H356.746L350.628 392.208H355.958L359.636 408.046L363.614 392.208H369.168L373.072 408.008L376.75 392.208H381.779ZM403.95 402.154C403.95 402.904 403.9 403.58 403.8 404.18H388.6C388.725 405.681 389.251 406.857 390.176 407.708C391.102 408.559 392.241 408.984 393.592 408.984C395.543 408.984 396.932 408.146 397.758 406.47H403.425C402.824 408.471 401.673 410.123 399.972 411.424C398.27 412.7 396.181 413.338 393.704 413.338C391.703 413.338 389.901 412.9 388.3 412.024C386.723 411.123 385.485 409.86 384.584 408.234C383.708 406.607 383.271 404.731 383.271 402.604C383.271 400.452 383.708 398.563 384.584 396.937C385.46 395.31 386.686 394.059 388.262 393.184C389.839 392.308 391.653 391.87 393.704 391.87C395.681 391.87 397.445 392.295 398.996 393.146C400.572 393.997 401.786 395.21 402.637 396.787C403.512 398.338 403.95 400.127 403.95 402.154ZM398.508 400.652C398.483 399.301 397.995 398.225 397.044 397.425C396.094 396.599 394.93 396.186 393.554 396.186C392.253 396.186 391.152 396.586 390.251 397.387C389.376 398.163 388.838 399.251 388.638 400.652H398.508ZM413.04 395.248C413.715 394.247 414.641 393.434 415.817 392.808C417.018 392.183 418.382 391.87 419.908 391.87C421.684 391.87 423.286 392.308 424.712 393.184C426.163 394.059 427.301 395.31 428.127 396.937C428.978 398.538 429.403 400.402 429.403 402.529C429.403 404.656 428.978 406.545 428.127 408.196C427.301 409.822 426.163 411.086 424.712 411.987C423.286 412.887 421.684 413.338 419.908 413.338C418.357 413.338 416.993 413.038 415.817 412.437C414.666 411.812 413.74 411.011 413.04 410.035V413H407.785V385.227H413.04V395.248ZM424.036 402.529C424.036 401.278 423.773 400.202 423.248 399.301C422.748 398.375 422.072 397.675 421.221 397.199C420.396 396.724 419.495 396.486 418.519 396.486C417.568 396.486 416.668 396.737 415.817 397.237C414.991 397.712 414.316 398.413 413.79 399.339C413.29 400.265 413.04 401.353 413.04 402.604C413.04 403.855 413.29 404.943 413.79 405.869C414.316 406.795 414.991 407.508 415.817 408.008C416.668 408.484 417.568 408.721 418.519 408.721C419.495 408.721 420.396 408.471 421.221 407.971C422.072 407.47 422.748 406.757 423.248 405.832C423.773 404.906 424.036 403.805 424.036 402.529ZM450.121 413.338C448.419 413.338 446.893 413.038 445.542 412.437C444.191 411.812 443.115 410.973 442.314 409.922C441.539 408.872 441.113 407.708 441.038 406.432H446.33C446.43 407.233 446.818 407.896 447.494 408.421C448.194 408.947 449.057 409.209 450.083 409.209C451.084 409.209 451.86 409.009 452.41 408.609C452.986 408.209 453.273 407.696 453.273 407.07C453.273 406.395 452.923 405.894 452.222 405.569C451.547 405.219 450.459 404.843 448.957 404.443C447.406 404.068 446.13 403.68 445.129 403.28C444.153 402.879 443.303 402.266 442.577 401.44C441.876 400.615 441.526 399.501 441.526 398.1C441.526 396.949 441.851 395.898 442.502 394.948C443.178 393.997 444.128 393.246 445.354 392.696C446.605 392.145 448.069 391.87 449.745 391.87C452.222 391.87 454.199 392.496 455.675 393.747C457.152 394.973 457.965 396.637 458.115 398.738H453.086C453.011 397.913 452.66 397.262 452.035 396.787C451.434 396.286 450.621 396.036 449.595 396.036C448.645 396.036 447.906 396.211 447.381 396.561C446.881 396.912 446.63 397.4 446.63 398.025C446.63 398.726 446.981 399.264 447.681 399.639C448.382 399.989 449.47 400.352 450.946 400.727C452.448 401.103 453.686 401.491 454.662 401.891C455.638 402.291 456.476 402.917 457.177 403.767C457.902 404.593 458.277 405.694 458.302 407.07C458.302 408.271 457.965 409.347 457.289 410.298C456.639 411.249 455.688 411.999 454.437 412.55C453.211 413.075 451.772 413.338 450.121 413.338ZM481.944 402.154C481.944 402.904 481.894 403.58 481.794 404.18H466.594C466.719 405.681 467.244 406.857 468.17 407.708C469.096 408.559 470.234 408.984 471.585 408.984C473.537 408.984 474.926 408.146 475.751 406.47H481.419C480.818 408.471 479.667 410.123 477.966 411.424C476.264 412.7 474.175 413.338 471.698 413.338C469.696 413.338 467.895 412.9 466.294 412.024C464.717 411.123 463.479 409.86 462.578 408.234C461.702 406.607 461.264 404.731 461.264 402.604C461.264 400.452 461.702 398.563 462.578 396.937C463.454 395.31 464.68 394.059 466.256 393.184C467.832 392.308 469.646 391.87 471.698 391.87C473.675 391.87 475.439 392.295 476.99 393.146C478.566 393.997 479.78 395.21 480.63 396.787C481.506 398.338 481.944 400.127 481.944 402.154ZM476.502 400.652C476.477 399.301 475.989 398.225 475.038 397.425C474.088 396.599 472.924 396.186 471.548 396.186C470.247 396.186 469.146 396.586 468.245 397.387C467.37 398.163 466.832 399.251 466.631 400.652H476.502ZM491.033 395.436C491.709 394.335 492.585 393.471 493.661 392.846C494.762 392.22 496.013 391.908 497.414 391.908V397.425H496.025C494.374 397.425 493.123 397.813 492.272 398.588C491.446 399.364 491.033 400.715 491.033 402.641V413H485.779V392.208H491.033V395.436ZM509.622 408.159L514.877 392.208H520.469L512.775 413H506.395L498.738 392.208H504.368L509.622 408.159ZM526.085 389.731C525.159 389.731 524.383 389.443 523.758 388.868C523.157 388.267 522.857 387.529 522.857 386.653C522.857 385.778 523.157 385.052 523.758 384.477C524.383 383.876 525.159 383.576 526.085 383.576C527.01 383.576 527.774 383.876 528.374 384.477C529 385.052 529.312 385.778 529.312 386.653C529.312 387.529 529 388.267 528.374 388.868C527.774 389.443 527.01 389.731 526.085 389.731ZM528.674 392.208V413H523.42V392.208H528.674ZM532.515 402.604C532.515 400.452 532.952 398.576 533.828 396.974C534.704 395.348 535.917 394.097 537.469 393.221C539.02 392.32 540.796 391.87 542.798 391.87C545.375 391.87 547.502 392.521 549.178 393.822C550.88 395.098 552.018 396.899 552.594 399.226H546.926C546.626 398.325 546.113 397.625 545.388 397.124C544.687 396.599 543.811 396.336 542.76 396.336C541.259 396.336 540.071 396.887 539.195 397.988C538.319 399.064 537.881 400.602 537.881 402.604C537.881 404.581 538.319 406.119 539.195 407.22C540.071 408.296 541.259 408.834 542.76 408.834C544.887 408.834 546.276 407.883 546.926 405.982H552.594C552.018 408.234 550.88 410.023 549.178 411.349C547.477 412.675 545.35 413.338 542.798 413.338C540.796 413.338 539.02 412.9 537.469 412.024C535.917 411.123 534.704 409.872 533.828 408.271C532.952 406.645 532.515 404.756 532.515 402.604ZM575.771 402.154C575.771 402.904 575.721 403.58 575.621 404.18H560.421C560.546 405.681 561.072 406.857 561.997 407.708C562.923 408.559 564.062 408.984 565.413 408.984C567.364 408.984 568.753 408.146 569.579 406.47H575.246C574.645 408.471 573.494 410.123 571.793 411.424C570.092 412.7 568.002 413.338 565.525 413.338C563.524 413.338 561.722 412.9 560.121 412.024C558.545 411.123 557.306 409.86 556.405 408.234C555.53 406.607 555.092 404.731 555.092 402.604C555.092 400.452 555.53 398.563 556.405 396.937C557.281 395.31 558.507 394.059 560.083 393.184C561.66 392.308 563.474 391.87 565.525 391.87C567.502 391.87 569.266 392.295 570.817 393.146C572.393 393.997 573.607 395.21 574.458 396.787C575.333 398.338 575.771 400.127 575.771 402.154ZM570.329 400.652C570.304 399.301 569.816 398.225 568.866 397.425C567.915 396.599 566.751 396.186 565.375 396.186C564.074 396.186 562.973 396.586 562.072 397.387C561.197 398.163 560.659 399.251 560.459 400.652H570.329ZM587.198 402.529C587.198 400.427 587.611 398.563 588.437 396.937C589.287 395.31 590.426 394.059 591.852 393.184C593.303 392.308 594.917 391.87 596.693 391.87C598.245 391.87 599.596 392.183 600.747 392.808C601.923 393.434 602.861 394.222 603.562 395.173V392.208H608.853V413H603.562V409.96C602.886 410.936 601.948 411.749 600.747 412.4C599.571 413.025 598.207 413.338 596.656 413.338C594.905 413.338 593.303 412.887 591.852 411.987C590.426 411.086 589.287 409.822 588.437 408.196C587.611 406.545 587.198 404.656 587.198 402.529ZM603.562 402.604C603.562 401.328 603.311 400.24 602.811 399.339C602.311 398.413 601.635 397.712 600.784 397.237C599.934 396.737 599.02 396.486 598.045 396.486C597.069 396.486 596.168 396.724 595.342 397.199C594.517 397.675 593.841 398.375 593.316 399.301C592.815 400.202 592.565 401.278 592.565 402.529C592.565 403.78 592.815 404.881 593.316 405.832C593.841 406.757 594.517 407.47 595.342 407.971C596.193 408.471 597.094 408.721 598.045 408.721C599.02 408.721 599.934 408.484 600.784 408.008C601.635 407.508 602.311 406.807 602.811 405.907C603.311 404.981 603.562 403.88 603.562 402.604ZM625.507 391.908C627.984 391.908 629.986 392.696 631.512 394.272C633.038 395.823 633.802 398 633.802 400.802V413H628.547V401.516C628.547 399.864 628.134 398.601 627.309 397.725C626.483 396.824 625.357 396.374 623.931 396.374C622.48 396.374 621.329 396.824 620.478 397.725C619.652 398.601 619.24 399.864 619.24 401.516V413H613.985V392.208H619.24V394.798C619.94 393.897 620.828 393.196 621.904 392.696C623.005 392.17 624.206 391.908 625.507 391.908ZM637.447 402.529C637.447 400.427 637.86 398.563 638.686 396.937C639.536 395.31 640.687 394.059 642.138 393.184C643.59 392.308 645.203 391.87 646.98 391.87C648.331 391.87 649.62 392.17 650.846 392.771C652.072 393.346 653.047 394.122 653.773 395.098V385.227H659.102V413H653.773V409.922C653.122 410.948 652.209 411.774 651.033 412.4C649.857 413.025 648.494 413.338 646.942 413.338C645.191 413.338 643.59 412.887 642.138 411.987C640.687 411.086 639.536 409.822 638.686 408.196C637.86 406.545 637.447 404.656 637.447 402.529ZM653.81 402.604C653.81 401.328 653.56 400.24 653.06 399.339C652.559 398.413 651.884 397.712 651.033 397.237C650.182 396.737 649.269 396.486 648.293 396.486C647.318 396.486 646.417 396.724 645.591 397.199C644.766 397.675 644.09 398.375 643.565 399.301C643.064 400.202 642.814 401.278 642.814 402.529C642.814 403.78 643.064 404.881 643.565 405.832C644.09 406.757 644.766 407.47 645.591 407.971C646.442 408.471 647.343 408.721 648.293 408.721C649.269 408.721 650.182 408.484 651.033 408.008C651.884 407.508 652.559 406.807 653.06 405.907C653.56 404.981 653.81 403.88 653.81 402.604ZM671.826 402.604C671.826 400.452 672.264 398.576 673.14 396.974C674.015 395.348 675.229 394.097 676.78 393.221C678.331 392.32 680.108 391.87 682.109 391.87C684.687 391.87 686.813 392.521 688.49 393.822C690.191 395.098 691.329 396.899 691.905 399.226H686.238C685.938 398.325 685.425 397.625 684.699 397.124C683.998 396.599 683.123 396.336 682.072 396.336C680.571 396.336 679.382 396.887 678.506 397.988C677.631 399.064 677.193 400.602 677.193 402.604C677.193 404.581 677.631 406.119 678.506 407.22C679.382 408.296 680.571 408.834 682.072 408.834C684.199 408.834 685.587 407.883 686.238 405.982H691.905C691.329 408.234 690.191 410.023 688.49 411.349C686.788 412.675 684.661 413.338 682.109 413.338C680.108 413.338 678.331 412.9 676.78 412.024C675.229 411.123 674.015 409.872 673.14 408.271C672.264 406.645 671.826 404.756 671.826 402.604ZM701.009 385.227V413H695.754V385.227H701.009ZM715.432 413.338C713.431 413.338 711.629 412.9 710.028 412.024C708.427 411.123 707.163 409.86 706.237 408.234C705.337 406.607 704.886 404.731 704.886 402.604C704.886 400.477 705.349 398.601 706.275 396.974C707.226 395.348 708.514 394.097 710.141 393.221C711.767 392.32 713.581 391.87 715.583 391.87C717.584 391.87 719.398 392.32 721.024 393.221C722.651 394.097 723.927 395.348 724.853 396.974C725.803 398.601 726.279 400.477 726.279 402.604C726.279 404.731 725.791 406.607 724.815 408.234C723.864 409.86 722.563 411.123 720.912 412.024C719.286 412.9 717.459 413.338 715.432 413.338ZM715.432 408.759C716.383 408.759 717.271 408.534 718.097 408.083C718.948 407.608 719.623 406.907 720.124 405.982C720.624 405.056 720.874 403.93 720.874 402.604C720.874 400.627 720.349 399.114 719.298 398.063C718.272 396.987 717.009 396.449 715.507 396.449C714.006 396.449 712.743 396.987 711.717 398.063C710.716 399.114 710.216 400.627 710.216 402.604C710.216 404.581 710.704 406.107 711.679 407.183C712.68 408.234 713.931 408.759 715.432 408.759ZM749.762 392.208V413H744.47V410.373C743.794 411.274 742.906 411.987 741.805 412.512C740.729 413.013 739.553 413.263 738.277 413.263C736.651 413.263 735.212 412.925 733.961 412.249C732.71 411.549 731.722 410.535 730.996 409.209C730.296 407.858 729.945 406.257 729.945 404.405V392.208H735.2V403.655C735.2 405.306 735.613 406.582 736.438 407.483C737.264 408.359 738.39 408.797 739.816 408.797C741.267 408.797 742.406 408.359 743.231 407.483C744.057 406.582 744.47 405.306 744.47 403.655V392.208H749.762ZM753.595 402.529C753.595 400.427 754.008 398.563 754.833 396.937C755.684 395.31 756.835 394.059 758.286 393.184C759.737 392.308 761.351 391.87 763.128 391.87C764.479 391.87 765.767 392.17 766.993 392.771C768.219 393.346 769.195 394.122 769.921 395.098V385.227H775.25V413H769.921V409.922C769.27 410.948 768.357 411.774 767.181 412.4C766.005 413.025 764.641 413.338 763.09 413.338C761.339 413.338 759.737 412.887 758.286 411.987C756.835 411.086 755.684 409.822 754.833 408.196C754.008 406.545 753.595 404.656 753.595 402.529ZM769.958 402.604C769.958 401.328 769.708 400.24 769.208 399.339C768.707 398.413 768.032 397.712 767.181 397.237C766.33 396.737 765.417 396.486 764.441 396.486C763.465 396.486 762.565 396.724 761.739 397.199C760.913 397.675 760.238 398.375 759.712 399.301C759.212 400.202 758.962 401.278 758.962 402.529C758.962 403.78 759.212 404.881 759.712 405.832C760.238 406.757 760.913 407.47 761.739 407.971C762.59 408.471 763.49 408.721 764.441 408.721C765.417 408.721 766.33 408.484 767.181 408.008C768.032 407.508 768.707 406.807 769.208 405.907C769.708 404.981 769.958 403.88 769.958 402.604ZM94.7072 433.524V443.582C94.7072 444.283 94.8698 444.796 95.1951 445.121C95.5454 445.421 96.1208 445.571 96.9215 445.571H99.361V450H96.0583C91.6296 450 89.4153 447.848 89.4153 443.545V433.524H86.9383V429.208H89.4153V424.066H94.7072V429.208H99.361V433.524H94.7072ZM122.469 439.154C122.469 439.904 122.419 440.58 122.318 441.18H107.118C107.244 442.681 107.769 443.857 108.695 444.708C109.621 445.559 110.759 445.984 112.11 445.984C114.062 445.984 115.45 445.146 116.276 443.47H121.943C121.343 445.471 120.192 447.123 118.49 448.424C116.789 449.7 114.7 450.338 112.223 450.338C110.221 450.338 108.42 449.9 106.818 449.024C105.242 448.123 104.003 446.86 103.103 445.234C102.227 443.607 101.789 441.731 101.789 439.604C101.789 437.452 102.227 435.563 103.103 433.937C103.978 432.31 105.204 431.059 106.781 430.184C108.357 429.308 110.171 428.87 112.223 428.87C114.199 428.87 115.963 429.295 117.515 430.146C119.091 430.997 120.304 432.21 121.155 433.787C122.031 435.338 122.469 437.127 122.469 439.154ZM117.027 437.652C117.002 436.301 116.514 435.225 115.563 434.425C114.612 433.599 113.449 433.186 112.073 433.186C110.771 433.186 109.671 433.586 108.77 434.387C107.894 435.163 107.356 436.251 107.156 437.652H117.027ZM124.953 439.604C124.953 437.452 125.391 435.576 126.266 433.974C127.142 432.348 128.355 431.097 129.907 430.221C131.458 429.32 133.234 428.87 135.236 428.87C137.813 428.87 139.94 429.521 141.616 430.822C143.318 432.098 144.456 433.899 145.032 436.226H139.365C139.064 435.325 138.551 434.625 137.826 434.124C137.125 433.599 136.249 433.336 135.199 433.336C133.697 433.336 132.509 433.887 131.633 434.988C130.757 436.064 130.32 437.602 130.32 439.604C130.32 441.581 130.757 443.119 131.633 444.22C132.509 445.296 133.697 445.834 135.199 445.834C137.325 445.834 138.714 444.883 139.365 442.982H145.032C144.456 445.234 143.318 447.023 141.616 448.349C139.915 449.675 137.788 450.338 135.236 450.338C133.234 450.338 131.458 449.9 129.907 449.024C128.355 448.123 127.142 446.872 126.266 445.271C125.391 443.645 124.953 441.756 124.953 439.604ZM160.591 428.908C162.167 428.908 163.568 429.258 164.794 429.959C166.02 430.634 166.971 431.647 167.646 432.999C168.347 434.325 168.697 435.926 168.697 437.802V450H163.443V438.516C163.443 436.864 163.03 435.601 162.204 434.725C161.379 433.824 160.253 433.374 158.827 433.374C157.375 433.374 156.224 433.824 155.374 434.725C154.548 435.601 154.135 436.864 154.135 438.516V450H148.881V422.227H154.135V431.798C154.811 430.897 155.712 430.196 156.837 429.696C157.963 429.17 159.214 428.908 160.591 428.908ZM185.216 428.908C187.693 428.908 189.694 429.696 191.221 431.272C192.747 432.823 193.51 435 193.51 437.802V450H188.256V438.516C188.256 436.864 187.843 435.601 187.017 434.725C186.192 433.824 185.066 433.374 183.64 433.374C182.188 433.374 181.037 433.824 180.187 434.725C179.361 435.601 178.948 436.864 178.948 438.516V450H173.694V429.208H178.948V431.798C179.649 430.897 180.537 430.196 181.613 429.696C182.714 429.17 183.915 428.908 185.216 428.908ZM207.739 450.338C205.738 450.338 203.936 449.9 202.335 449.024C200.734 448.123 199.47 446.86 198.544 445.234C197.644 443.607 197.193 441.731 197.193 439.604C197.193 437.477 197.656 435.601 198.582 433.974C199.533 432.348 200.821 431.097 202.447 430.221C204.074 429.32 205.888 428.87 207.889 428.87C209.891 428.87 211.705 429.32 213.331 430.221C214.958 431.097 216.234 432.348 217.16 433.974C218.11 435.601 218.586 437.477 218.586 439.604C218.586 441.731 218.098 443.607 217.122 445.234C216.171 446.86 214.87 448.123 213.219 449.024C211.592 449.9 209.766 450.338 207.739 450.338ZM207.739 445.759C208.69 445.759 209.578 445.534 210.404 445.083C211.255 444.608 211.93 443.907 212.431 442.982C212.931 442.056 213.181 440.93 213.181 439.604C213.181 437.627 212.656 436.114 211.605 435.063C210.579 433.987 209.316 433.449 207.814 433.449C206.313 433.449 205.05 433.987 204.024 435.063C203.023 436.114 202.523 437.627 202.523 439.604C202.523 441.581 203.01 443.107 203.986 444.183C204.987 445.234 206.238 445.759 207.739 445.759ZM227.694 422.227V450H222.44V422.227H227.694ZM242.118 450.338C240.117 450.338 238.315 449.9 236.714 449.024C235.112 448.123 233.849 446.86 232.923 445.234C232.022 443.607 231.572 441.731 231.572 439.604C231.572 437.477 232.035 435.601 232.961 433.974C233.911 432.348 235.2 431.097 236.826 430.221C238.453 429.32 240.267 428.87 242.268 428.87C244.27 428.87 246.084 429.32 247.71 430.221C249.337 431.097 250.613 432.348 251.538 433.974C252.489 435.601 252.965 437.477 252.965 439.604C252.965 441.731 252.477 443.607 251.501 445.234C250.55 446.86 249.249 448.123 247.598 449.024C245.971 449.9 244.145 450.338 242.118 450.338ZM242.118 445.759C243.069 445.759 243.957 445.534 244.783 445.083C245.634 444.608 246.309 443.907 246.81 442.982C247.31 442.056 247.56 440.93 247.56 439.604C247.56 437.627 247.035 436.114 245.984 435.063C244.958 433.987 243.694 433.449 242.193 433.449C240.692 433.449 239.428 433.987 238.403 435.063C237.402 436.114 236.901 437.627 236.901 439.604C236.901 441.581 237.389 443.107 238.365 444.183C239.366 445.234 240.617 445.759 242.118 445.759ZM264.963 428.87C266.514 428.87 267.878 429.183 269.054 429.808C270.23 430.409 271.156 431.197 271.831 432.173V429.208H277.123V450.15C277.123 452.077 276.735 453.791 275.96 455.292C275.184 456.818 274.021 458.019 272.469 458.895C270.918 459.796 269.041 460.246 266.84 460.246C263.887 460.246 261.46 459.558 259.559 458.182C257.682 456.806 256.619 454.929 256.368 452.552H261.585C261.86 453.503 262.448 454.253 263.349 454.804C264.275 455.379 265.388 455.667 266.689 455.667C268.216 455.667 269.454 455.204 270.405 454.279C271.356 453.378 271.831 452.002 271.831 450.15V446.922C271.156 447.898 270.217 448.711 269.016 449.362C267.84 450.013 266.489 450.338 264.963 450.338C263.212 450.338 261.61 449.887 260.159 448.987C258.708 448.086 257.557 446.822 256.706 445.196C255.881 443.545 255.468 441.656 255.468 439.529C255.468 437.427 255.881 435.563 256.706 433.937C257.557 432.31 258.695 431.059 260.122 430.184C261.573 429.308 263.187 428.87 264.963 428.87ZM271.831 439.604C271.831 438.328 271.581 437.24 271.081 436.339C270.58 435.413 269.905 434.712 269.054 434.237C268.203 433.737 267.29 433.486 266.314 433.486C265.338 433.486 264.438 433.724 263.612 434.199C262.786 434.675 262.111 435.375 261.585 436.301C261.085 437.202 260.835 438.278 260.835 439.529C260.835 440.78 261.085 441.881 261.585 442.832C262.111 443.757 262.786 444.47 263.612 444.971C264.463 445.471 265.363 445.721 266.314 445.721C267.29 445.721 268.203 445.484 269.054 445.008C269.905 444.508 270.58 443.807 271.081 442.907C271.581 441.981 271.831 440.88 271.831 439.604ZM302.146 429.208L289.273 459.833H283.681L288.185 449.475L279.853 429.208H285.745L291.112 443.732L296.554 429.208H302.146ZM342.745 429.208L336.665 450H330.998L327.207 435.476L323.417 450H317.712L311.595 429.208H316.924L320.602 445.046L324.58 429.208H330.135L334.038 445.008L337.716 429.208H342.745ZM348.253 426.731C347.327 426.731 346.551 426.443 345.926 425.868C345.325 425.267 345.025 424.529 345.025 423.653C345.025 422.778 345.325 422.052 345.926 421.477C346.551 420.876 347.327 420.576 348.253 420.576C349.179 420.576 349.942 420.876 350.542 421.477C351.168 422.052 351.481 422.778 351.481 423.653C351.481 424.529 351.168 425.267 350.542 425.868C349.942 426.443 349.179 426.731 348.253 426.731ZM350.842 429.208V450H345.588V429.208H350.842ZM362.151 433.524V443.582C362.151 444.283 362.314 444.796 362.639 445.121C362.99 445.421 363.565 445.571 364.366 445.571H366.805V450H363.502C359.074 450 356.859 447.848 356.859 443.545V433.524H354.382V429.208H356.859V424.066H362.151V429.208H366.805V433.524H362.151ZM382.294 428.908C383.87 428.908 385.271 429.258 386.497 429.959C387.723 430.634 388.674 431.647 389.35 432.999C390.05 434.325 390.401 435.926 390.401 437.802V450H385.146V438.516C385.146 436.864 384.733 435.601 383.908 434.725C383.082 433.824 381.956 433.374 380.53 433.374C379.079 433.374 377.928 433.824 377.077 434.725C376.251 435.601 375.839 436.864 375.839 438.516V450H370.584V422.227H375.839V431.798C376.514 430.897 377.415 430.196 378.541 429.696C379.667 429.17 380.918 428.908 382.294 428.908ZM410.833 443.882H419.803V450H402.726V444.183L411.096 435.063H402.801V428.945H419.503V434.762L410.833 443.882ZM442.991 439.229C442.991 439.804 442.953 440.38 442.878 440.955H428.954C429.029 442.106 429.342 442.969 429.892 443.545C430.468 444.095 431.194 444.37 432.069 444.37C433.295 444.37 434.171 443.82 434.696 442.719H442.54C442.215 444.17 441.577 445.471 440.626 446.622C439.701 447.748 438.525 448.636 437.098 449.287C435.672 449.937 434.096 450.263 432.37 450.263C430.293 450.263 428.441 449.825 426.815 448.949C425.214 448.073 423.95 446.822 423.024 445.196C422.124 443.57 421.673 441.656 421.673 439.454C421.673 437.252 422.124 435.35 423.024 433.749C423.925 432.123 425.176 430.872 426.777 429.996C428.404 429.12 430.268 428.682 432.37 428.682C434.446 428.682 436.285 429.108 437.887 429.959C439.488 430.809 440.739 432.035 441.64 433.637C442.54 435.213 442.991 437.077 442.991 439.229ZM435.485 437.39C435.485 436.489 435.184 435.788 434.584 435.288C433.983 434.762 433.233 434.5 432.332 434.5C431.431 434.5 430.693 434.75 430.118 435.25C429.542 435.726 429.167 436.439 428.992 437.39H435.485ZM453.357 432.661C454.183 431.46 455.184 430.509 456.36 429.808C457.536 429.108 458.799 428.758 460.15 428.758V436.601H458.086C456.485 436.601 455.296 436.914 454.521 437.54C453.745 438.165 453.357 439.254 453.357 440.805V450H446.001V428.945H453.357V432.661ZM472.583 450.263C470.481 450.263 468.592 449.825 466.916 448.949C465.264 448.073 463.963 446.822 463.013 445.196C462.062 443.57 461.586 441.656 461.586 439.454C461.586 437.277 462.062 435.375 463.013 433.749C463.988 432.123 465.302 430.872 466.953 429.996C468.63 429.12 470.519 428.682 472.621 428.682C474.722 428.682 476.599 429.12 478.25 429.996C479.927 430.872 481.24 432.123 482.191 433.749C483.167 435.375 483.655 437.277 483.655 439.454C483.655 441.631 483.167 443.545 482.191 445.196C481.24 446.822 479.927 448.073 478.25 448.949C476.574 449.825 474.685 450.263 472.583 450.263ZM472.583 443.882C473.609 443.882 474.46 443.507 475.135 442.757C475.836 441.981 476.186 440.88 476.186 439.454C476.186 438.028 475.836 436.939 475.135 436.189C474.46 435.438 473.621 435.063 472.621 435.063C471.62 435.063 470.782 435.438 470.106 436.189C469.43 436.939 469.093 438.028 469.093 439.454C469.093 440.905 469.418 442.006 470.068 442.757C470.719 443.507 471.557 443.882 472.583 443.882ZM502.801 450.263C500.899 450.263 499.198 449.95 497.697 449.324C496.22 448.674 495.045 447.798 494.169 446.697C493.318 445.571 492.843 444.308 492.743 442.907H499.873C499.974 443.582 500.286 444.108 500.812 444.483C501.337 444.858 501.988 445.046 502.763 445.046C503.364 445.046 503.839 444.921 504.19 444.671C504.54 444.42 504.715 444.095 504.715 443.695C504.715 443.169 504.427 442.782 503.852 442.531C503.276 442.281 502.325 442.006 500.999 441.706C499.498 441.405 498.247 441.068 497.246 440.692C496.245 440.317 495.37 439.704 494.619 438.853C493.894 438.003 493.531 436.852 493.531 435.4C493.531 434.149 493.869 433.024 494.544 432.023C495.22 430.997 496.208 430.184 497.509 429.583C498.835 428.983 500.424 428.682 502.275 428.682C505.028 428.682 507.192 429.358 508.768 430.709C510.345 432.06 511.258 433.837 511.508 436.039H504.865C504.74 435.363 504.44 434.85 503.964 434.5C503.514 434.124 502.901 433.937 502.125 433.937C501.525 433.937 501.062 434.049 500.737 434.275C500.436 434.5 500.286 434.813 500.286 435.213C500.286 435.713 500.574 436.101 501.15 436.376C501.725 436.626 502.651 436.889 503.927 437.164C505.453 437.49 506.717 437.853 507.717 438.253C508.743 438.653 509.632 439.304 510.382 440.204C511.158 441.08 511.546 442.281 511.546 443.807C511.546 445.033 511.183 446.134 510.457 447.11C509.757 448.086 508.743 448.862 507.417 449.437C506.116 449.987 504.577 450.263 502.801 450.263ZM535.279 439.229C535.279 439.804 535.241 440.38 535.166 440.955H521.242C521.317 442.106 521.63 442.969 522.18 443.545C522.756 444.095 523.481 444.37 524.357 444.37C525.583 444.37 526.459 443.82 526.984 442.719H534.828C534.503 444.17 533.865 445.471 532.914 446.622C531.988 447.748 530.812 448.636 529.386 449.287C527.96 449.937 526.384 450.263 524.657 450.263C522.581 450.263 520.729 449.825 519.103 448.949C517.501 448.073 516.238 446.822 515.312 445.196C514.411 443.57 513.961 441.656 513.961 439.454C513.961 437.252 514.411 435.35 515.312 433.749C516.213 432.123 517.464 430.872 519.065 429.996C520.692 429.12 522.556 428.682 524.657 428.682C526.734 428.682 528.573 429.108 530.174 429.959C531.776 430.809 533.027 432.035 533.928 433.637C534.828 435.213 535.279 437.077 535.279 439.229ZM527.772 437.39C527.772 436.489 527.472 435.788 526.872 435.288C526.271 434.762 525.521 434.5 524.62 434.5C523.719 434.5 522.981 434.75 522.406 435.25C521.83 435.726 521.455 436.439 521.28 437.39H527.772ZM550.712 443.732V450H547.522C542.142 450 539.452 447.335 539.452 442.006V435.063H536.863V428.945H539.452V423.841H546.846V428.945H550.674V435.063H546.846V442.119C546.846 442.694 546.971 443.107 547.221 443.357C547.497 443.607 547.947 443.732 548.572 443.732H550.712ZM575.628 428.945V450H568.235V446.998C567.609 447.948 566.746 448.724 565.645 449.324C564.544 449.9 563.281 450.188 561.855 450.188C559.403 450.188 557.463 449.387 556.037 447.786C554.636 446.159 553.936 443.958 553.936 441.18V428.945H561.254V440.242C561.254 441.443 561.567 442.394 562.192 443.094C562.843 443.77 563.694 444.108 564.744 444.108C565.82 444.108 566.671 443.77 567.297 443.094C567.922 442.394 568.235 441.443 568.235 440.242V428.945H575.628ZM587.171 431.873C587.746 430.897 588.56 430.121 589.61 429.546C590.661 428.97 591.9 428.682 593.326 428.682C595.002 428.682 596.516 429.12 597.867 429.996C599.243 430.872 600.319 432.123 601.095 433.749C601.895 435.375 602.296 437.277 602.296 439.454C602.296 441.631 601.895 443.545 601.095 445.196C600.319 446.822 599.243 448.073 597.867 448.949C596.516 449.825 595.002 450.263 593.326 450.263C591.9 450.263 590.661 449.975 589.61 449.4C588.585 448.824 587.771 448.048 587.171 447.073V460.058H579.815V428.945H587.171V431.873ZM594.827 439.454C594.827 438.078 594.452 437.014 593.701 436.264C592.976 435.488 592.075 435.1 590.999 435.1C589.923 435.1 589.01 435.488 588.259 436.264C587.534 437.039 587.171 438.103 587.171 439.454C587.171 440.83 587.534 441.906 588.259 442.681C589.01 443.457 589.923 443.845 590.999 443.845C592.075 443.845 592.976 443.457 593.701 442.681C594.452 441.881 594.827 440.805 594.827 439.454ZM619.864 432.661C620.689 431.46 621.69 430.509 622.866 429.808C624.042 429.108 625.306 428.758 626.657 428.758V436.601H624.593C622.991 436.601 621.803 436.914 621.027 437.54C620.252 438.165 619.864 439.254 619.864 440.805V450H612.508V428.945H619.864V432.661ZM649.411 439.229C649.411 439.804 649.373 440.38 649.298 440.955H635.374C635.449 442.106 635.762 442.969 636.312 443.545C636.888 444.095 637.613 444.37 638.489 444.37C639.715 444.37 640.591 443.82 641.116 442.719H648.96C648.635 444.17 647.997 445.471 647.046 446.622C646.12 447.748 644.944 448.636 643.518 449.287C642.092 449.937 640.516 450.263 638.789 450.263C636.713 450.263 634.861 449.825 633.235 448.949C631.633 448.073 630.37 446.822 629.444 445.196C628.543 443.57 628.093 441.656 628.093 439.454C628.093 437.252 628.543 435.35 629.444 433.749C630.345 432.123 631.596 430.872 633.197 429.996C634.824 429.12 636.688 428.682 638.789 428.682C640.866 428.682 642.705 429.108 644.306 429.959C645.908 430.809 647.159 432.035 648.059 433.637C648.96 435.213 649.411 437.077 649.411 439.229ZM641.904 437.39C641.904 436.489 641.604 435.788 641.004 435.288C640.403 434.762 639.653 434.5 638.752 434.5C637.851 434.5 637.113 434.75 636.538 435.25C635.962 435.726 635.587 436.439 635.412 437.39H641.904ZM651.22 439.566C651.22 437.49 651.645 435.638 652.496 434.012C653.372 432.36 654.523 431.072 655.949 430.146C657.4 429.22 658.976 428.758 660.678 428.758C663.13 428.758 665.031 429.533 666.382 431.084V428.945H673.738V460.058H666.382V447.523C664.831 449.349 662.917 450.263 660.64 450.263C658.939 450.263 657.363 449.812 655.911 448.912C654.485 448.011 653.347 446.747 652.496 445.121C651.645 443.495 651.22 441.643 651.22 439.566ZM666.382 439.454C666.382 438.053 665.982 436.989 665.181 436.264C664.406 435.513 663.53 435.138 662.554 435.138C661.578 435.138 660.69 435.526 659.89 436.301C659.114 437.052 658.726 438.14 658.726 439.566C658.726 440.993 659.114 442.068 659.89 442.794C660.665 443.495 661.553 443.845 662.554 443.845C663.53 443.845 664.406 443.47 665.181 442.719C665.982 441.968 666.382 440.88 666.382 439.454ZM699.473 428.945V450H692.079V446.998C691.454 447.948 690.591 448.724 689.49 449.324C688.389 449.9 687.125 450.188 685.699 450.188C683.247 450.188 681.308 449.387 679.882 447.786C678.481 446.159 677.78 443.958 677.78 441.18V428.945H685.099V440.242C685.099 441.443 685.411 442.394 686.037 443.094C686.687 443.77 687.538 444.108 688.589 444.108C689.665 444.108 690.516 443.77 691.141 443.094C691.767 442.394 692.079 441.443 692.079 440.242V428.945H699.473ZM707.375 426.994C706.074 426.994 705.023 426.643 704.222 425.943C703.447 425.217 703.059 424.316 703.059 423.24C703.059 422.14 703.447 421.226 704.222 420.501C705.023 419.775 706.074 419.412 707.375 419.412C708.651 419.412 709.677 419.775 710.452 420.501C711.253 421.226 711.653 422.14 711.653 423.24C711.653 424.316 711.253 425.217 710.452 425.943C709.677 426.643 708.651 426.994 707.375 426.994ZM711.015 428.945V450H703.659V428.945H711.015ZM722.561 432.661C723.386 431.46 724.387 430.509 725.563 429.808C726.739 429.108 728.003 428.758 729.354 428.758V436.601H727.29C725.688 436.601 724.5 436.914 723.724 437.54C722.948 438.165 722.561 439.254 722.561 440.805V450H715.205V428.945H722.561V432.661ZM752.107 439.229C752.107 439.804 752.07 440.38 751.995 440.955H738.071C738.146 442.106 738.459 442.969 739.009 443.545C739.585 444.095 740.31 444.37 741.186 444.37C742.412 444.37 743.288 443.82 743.813 442.719H751.657C751.332 444.17 750.694 445.471 749.743 446.622C748.817 447.748 747.641 448.636 746.215 449.287C744.789 449.937 743.213 450.263 741.486 450.263C739.409 450.263 737.558 449.825 735.932 448.949C734.33 448.073 733.067 446.822 732.141 445.196C731.24 443.57 730.79 441.656 730.79 439.454C730.79 437.252 731.24 435.35 732.141 433.749C733.042 432.123 734.293 430.872 735.894 429.996C737.52 429.12 739.384 428.682 741.486 428.682C743.563 428.682 745.402 429.108 747.003 429.959C748.604 430.809 749.856 432.035 750.756 433.637C751.657 435.213 752.107 437.077 752.107 439.229ZM744.601 437.39C744.601 436.489 744.301 435.788 743.7 435.288C743.1 434.762 742.349 434.5 741.449 434.5C740.548 434.5 739.81 434.75 739.234 435.25C738.659 435.726 738.284 436.439 738.108 437.39H744.601ZM753.917 439.454C753.917 437.277 754.305 435.375 755.08 433.749C755.881 432.123 756.969 430.872 758.345 429.996C759.722 429.12 761.248 428.682 762.924 428.682C764.275 428.682 765.476 428.97 766.527 429.546C767.603 430.096 768.441 430.859 769.042 431.835V422.227H776.435V450H769.042V447.073C768.466 448.048 767.653 448.824 766.602 449.4C765.551 449.975 764.313 450.263 762.887 450.263C761.21 450.263 759.684 449.825 758.308 448.949C756.957 448.073 755.881 446.822 755.08 445.196C754.305 443.545 753.917 441.631 753.917 439.454ZM769.079 439.454C769.079 438.103 768.704 437.039 767.953 436.264C767.228 435.488 766.327 435.1 765.251 435.1C764.15 435.1 763.237 435.488 762.511 436.264C761.786 437.014 761.423 438.078 761.423 439.454C761.423 440.805 761.786 441.881 762.511 442.681C763.237 443.457 764.15 443.845 765.251 443.845C766.327 443.845 767.228 443.457 767.953 442.681C768.704 441.906 769.079 440.83 769.079 439.454ZM787.908 423.353L787.307 441.48H782.879L782.241 423.353H787.908ZM785.206 450.263C784.255 450.263 783.467 449.975 782.841 449.4C782.241 448.799 781.941 448.061 781.941 447.185C781.941 446.309 782.241 445.584 782.841 445.008C783.467 444.408 784.255 444.108 785.206 444.108C786.132 444.108 786.895 444.408 787.495 445.008C788.096 445.584 788.396 446.309 788.396 447.185C788.396 448.061 788.096 448.799 787.495 449.4C786.895 449.975 786.132 450.263 785.206 450.263Z" fill="black"/>
<path d="M714.5 844L761 830L792.959 795.091C793.306 794.712 793.786 794.481 794.299 794.446L826.1 792.297C827.814 792.181 828.867 794.14 827.824 795.506L801.5 830L761 836.517L737 840.379L714.5 844Z" fill="black"/>
<path d="M714.5 858.5V844M714.5 844L761 830M714.5 844L737 840.379M761 830L792.959 795.091C793.306 794.712 793.786 794.481 794.299 794.446L826.1 792.297C827.814 792.181 828.867 794.14 827.824 795.506L801.5 830M761 830V847M801.5 830V839.5M801.5 830L737 840.379M737 840.379V851" stroke="black" stroke-width="5"/>
<path d="M619.568 917.663C682.622 849.199 778.526 837.159 818.896 839.754H897.537C897.666 839.754 897.797 839.765 897.924 839.787C981.453 854.146 1008.44 916.259 1011.84 947.165C1011.95 948.174 1011.32 949.105 1010.37 949.463C813.33 1023.84 669.188 962.326 619.718 920.849C618.742 920.031 618.705 918.599 619.568 917.663Z" fill="#0088EB"/>
<path d="M953.472 968C950.013 906.344 876.268 869.202 839.828 858.338C843.563 849.162 861.965 834.437 905.693 848.953C949.422 863.468 977.456 928.337 986.006 958.957L953.472 968Z" fill="#0074C9"/>
<path d="M839.031 792.999C887.763 707.366 843.091 646.461 812.265 624.666C810.942 623.731 810.919 621.75 812.253 620.829L829.402 608.992C830.018 608.567 830.823 608.478 831.52 608.75C924.033 644.859 919.725 760.269 905.599 855.201C905.481 855.996 904.949 856.666 904.2 856.958C866.12 871.812 825.295 857.206 810.667 843.248C809.929 842.544 809.819 841.425 810.346 840.551L839.031 792.999Z" fill="black" stroke="black" stroke-width="1.13758" stroke-linecap="round" stroke-linejoin="round"/>
<path d="M737.176 560.964C736.368 568.493 741.632 574.578 748.818 579.229C756.031 583.898 765.364 587.25 773.125 589.292C773.919 589.501 774.42 590.189 774.523 590.981C774.625 591.773 774.315 592.559 773.598 592.956C767.15 596.522 759.016 601.625 751.528 607.613C744.048 613.594 737.171 620.492 733.284 627.655C727.548 638.227 728.524 648.456 734.178 655.687C739.821 662.903 750.036 667.024 762.572 665.599C771.254 664.612 778.544 657.615 784.327 648.76C790.126 639.88 794.501 628.992 797.31 619.952C797.571 619.111 798.36 618.649 799.218 618.643C800.076 618.637 800.851 619.086 801.102 619.921C804.194 630.197 808.875 644.328 813.292 653.472C815.195 657.412 819.637 661.452 825.115 664.699C830.609 667.954 837.228 670.462 843.582 671.282C849.926 672.101 856.09 671.246 860.57 667.663C865.07 664.064 867.74 657.819 867.314 648.156C866.177 622.387 844.181 611.389 827.977 607.861C827.017 607.652 826.603 607.037 826.568 606.572C826.55 606.339 826.62 606.12 826.781 605.942C826.944 605.763 827.235 605.589 827.717 605.526C834.732 604.611 843.937 604.572 853.476 604.699C855.677 604.728 857.896 604.766 860.108 604.804C867.464 604.93 874.75 605.055 881.086 604.85C885.208 604.718 888.948 604.445 892.057 603.939C895.151 603.436 897.689 602.692 899.359 601.574C900.202 601.01 900.851 600.332 901.223 599.516C901.598 598.692 901.668 597.776 901.433 596.782C900.974 594.835 899.337 592.554 896.446 589.857C886.975 581.021 873.71 578.126 860.498 578.234C847.277 578.342 834.022 581.456 824.464 584.736C823.688 585.002 823.001 584.734 822.635 584.287C822.283 583.858 822.201 583.241 822.695 582.645C827.068 577.362 833.095 574.138 839.718 572.097C846.343 570.054 853.527 569.208 860.18 568.655C861.866 568.515 863.522 568.394 865.126 568.277C869.821 567.933 874.078 567.621 877.381 566.965C879.597 566.524 881.465 565.915 882.77 564.984C884.113 564.028 884.865 562.727 884.791 561.001C884.642 557.487 882.268 554.707 878.609 552.553C874.946 550.397 869.89 548.801 864.122 547.671C852.577 545.411 838.016 544.991 825.6 545.834C812.484 546.724 805.277 556.801 801.68 566.757C801.531 567.171 801.111 567.579 800.416 567.913C799.733 568.242 798.863 568.46 797.962 568.539C797.061 568.619 796.165 568.557 795.432 568.354C794.686 568.148 794.196 567.82 793.972 567.439C785.616 553.239 771.985 546.924 760.178 546.474C754.278 546.249 748.804 547.487 744.662 549.97C740.512 552.458 737.687 556.208 737.176 560.964Z" fill="#0088EB" stroke="#0088EB" stroke-width="1.13758" stroke-linecap="round" stroke-linejoin="round"/>
<path d="M683.553 868.503C683.709 868.755 683.646 869.084 683.409 869.26C671.082 878.426 656.03 893.526 650.549 909.185C647.816 916.994 647.477 924.901 650.994 932.288C654.514 939.683 661.943 946.651 674.938 952.482L674.939 952.483C675.368 952.673 675.784 952.856 676.187 953.032C676.475 953.157 676.606 953.492 676.481 953.78C676.357 954.067 676.022 954.2 675.734 954.075C675.309 953.892 674.889 953.707 674.475 953.521L683.553 868.503ZM683.553 868.503C683.396 868.252 683.074 868.163 682.81 868.297M683.553 868.503L682.81 868.297M682.81 868.297C657.108 881.445 629.265 907.072 618.556 918.236C618.357 918.443 618.345 918.767 618.527 918.99M682.81 868.297L618.527 918.99M618.527 918.99C623.578 925.164 633.793 932.113 644.578 938.34M618.527 918.99L644.578 938.34M644.578 938.34C655.385 944.579 666.848 950.138 674.473 953.521L644.578 938.34ZM674.938 952.482C674.938 952.482 674.937 952.482 674.937 952.482L674.938 952.482Z" fill="black" stroke="black" stroke-width="1.13758" stroke-linejoin="round"/>
<path d="M1015 940C1012.4 947.476 995.186 964.335 947.225 973.328C945.947 973.585 944.703 973.808 943.5 974C944.762 973.781 946.003 973.557 947.225 973.328C974.822 967.793 1018.03 946.994 995.269 901.5C1005 915.691 1011.54 929.681 1015 940Z" fill="black"/>
<path d="M902 842C945.549 845.695 976.399 873.974 995.269 901.5M995.269 901.5C1005 915.691 1011.54 929.681 1015 940C1012.33 947.667 994.3 965.2 943.5 974C970.679 969.667 1019.08 949.1 995.269 901.5Z" stroke="black" stroke-width="5" stroke-linejoin="round"/>
<path d="M246 987C255.667 994.333 276.5 1004.6 282.5 987C292 993.667 313 1003 321 987C327.667 993.5 345.3 1002.6 362.5 987" stroke="#0074C9" stroke-width="5" stroke-linejoin="round"/>
<path d="M870 1015C879.667 1022.33 900.5 1032.6 906.5 1015C916 1021.67 937 1031 945 1015C951.667 1021.5 969.3 1030.6 986.5 1015" stroke="#0074C9" stroke-width="5" stroke-linejoin="round"/>
<path d="M735 963.5C741.167 968.667 756.1 975.9 766.5 963.5C772 971 786.3 982.4 799.5 968C804.167 974.5 817.6 984.4 834 972" stroke="black" stroke-width="5" stroke-linejoin="round"/>
<path d="M604.498 991.847C543.117 1022.76 451.976 995.218 450 980.338C450.233 996.265 465.833 1027.49 526.377 1024.98C551.255 1022.65 601.708 1012.77 604.498 991.847Z" fill="#0074C9"/>
<path d="M526.451 1024.8C477.346 1025.92 457.862 1007.72 452.166 995.509C449.608 985.395 447.043 963.914 458.792 954.007C494.365 924.015 574.927 933.78 596.201 954.007C606.93 964.209 607.594 985.628 603.525 995.509C598.526 1006.79 575.555 1023.69 526.451 1024.8Z" stroke="black" stroke-width="3.48754" stroke-linejoin="round"/>
<path d="M494.989 952.438C490.107 955.111 488.154 960.459 519.402 960.459C558.463 960.459 562.996 952.786 555.673 950.345" stroke="black" stroke-width="3.48754" stroke-linecap="round"/>
<path d="M516.852 1010.33C512.685 1026.75 498.215 1017.17 491.502 1010.33C488.363 1014.17 478.319 1020.31 463.253 1014.17L459.765 1033L591.594 1027.77V1010.33C581.829 1019.54 574.738 1014.17 572.413 1010.33C560.467 1024.89 548.221 1016.4 543.59 1010.33C538.034 1025.26 523.449 1016.55 516.852 1010.33Z" fill="#0088EB"/>
</g>
<defs>
<clipPath id="clip0_455_153">
<rect width="1080" height="1080" fill="white"/>
</clipPath>
</defs>
</svg>
