<svg width="583" height="313" viewBox="0 0 583 313" fill="none" xmlns="http://www.w3.org/2000/svg">
<rect x="163.438" y="90.0034" width="56.3502" height="40.2698" rx="2.74879" transform="rotate(-31.2152 163.438 90.0034)" fill="#2F9DED"/>
<path d="M179.481 87.8352L197.815 92.3333M216.149 96.8313L197.815 92.3333M197.815 92.3333L202.313 73.9994M197.815 92.3333L193.317 110.667" stroke="white" stroke-opacity="0.2" stroke-width="5.76193" stroke-linecap="round"/>
<path d="M229.209 55.6344L224.776 73.7027C224.414 75.1771 225.316 76.6656 226.791 77.0273L244.859 81.4602C247.237 82.0437 249.134 79.4604 247.865 77.366L234.23 54.8648C232.96 52.7704 229.793 53.256 229.209 55.6344Z" fill="#2F9DED"/>
<path d="M236.129 199.431L226.698 151.567C226.288 149.485 227.643 147.466 229.724 147.056L249.888 143.083C251.969 142.673 253.989 144.028 254.399 146.109L263.83 193.973C264.24 196.055 262.885 198.074 260.803 198.484L240.64 202.457C238.559 202.867 236.539 201.512 236.129 199.431Z" fill="#2F9DED"/>
<path d="M261.187 143.303L271.138 193.806C271.384 195.056 272.234 196.103 273.407 196.6L318.903 215.882C321.74 217.085 324.766 214.626 324.171 211.603L303.505 106.719C302.91 103.696 299.176 102.569 297.008 104.757L262.227 139.857C261.33 140.762 260.941 142.053 261.187 143.303Z" fill="#2F9DED"/>
<path d="M323.242 143.801L338.919 154.317M354.596 164.833L338.919 154.317M338.919 154.317L349.436 138.64M338.919 154.317L328.403 169.994" stroke="white" stroke-opacity="0.2" stroke-width="5.76193" stroke-linecap="round"/>
<path d="M307.247 20.7057L248.632 37.2042C247.993 37.384 247.466 37.8781 247.228 38.4979C225.483 95.2572 249.284 106.457 264.201 104.945C264.35 104.929 264.497 104.896 264.639 104.848C298.871 93.1895 309.086 46.5255 309.888 22.7313C309.935 21.3293 308.597 20.3256 307.247 20.7057Z" fill="#0088EB" stroke="#0088EB" stroke-width="2.02796"/>
<path d="M326.876 94.9926C328.212 99.3457 322.129 101.787 318.92 102.464L316.252 100.965L321.606 85.6385C322.806 86.9428 325.539 90.6396 326.876 94.9926Z" fill="#FFFAF7"/>
<g filter="url(#filter0_d_2208_3202)">
<path d="M235.233 137.969C236.316 133.341 241.152 120.164 242.044 118.902L247.176 109.896C247.716 108.949 248.727 108.37 249.817 108.383L314.004 109.137C315.083 109.149 316.071 109.74 316.593 110.684L322.907 122.102C323.398 122.99 323.407 124.066 322.93 124.961L321.853 126.987C321.652 127.365 321.535 127.781 321.508 128.208L320.791 139.679C317.379 156.679 307.039 164.635 302.082 166.497C301.779 166.611 301.502 166.749 301.231 166.926C295.244 170.826 264.823 182.531 233.701 194.009C232.086 194.605 230.302 193.719 229.799 192.072L216.913 149.903C216.343 148.038 217.686 146.139 219.627 145.949C231.69 144.768 233.714 141.412 235.026 138.579C235.118 138.382 235.184 138.18 235.233 137.969Z" fill="#FFFAF7"/>
</g>
<path d="M304.294 145.774L249.432 155.38C248.566 155.532 247.682 155.227 247.093 154.574C245.768 153.103 246.545 150.75 248.485 150.357L299.575 140.027C300.599 139.82 301.412 139.041 301.663 138.027L324.933 44.1888C325.272 42.8203 327.057 42.4752 327.882 43.6186L329.244 45.5068C329.706 46.147 329.865 46.9571 329.68 47.7244L306.456 143.747C306.203 144.792 305.354 145.589 304.294 145.774Z" fill="black" stroke="black" stroke-width="2.70394"/>
<path d="M270.205 54.0964C270.331 53.5839 270.744 53.1915 271.262 53.0914L326.114 42.4915C327.083 42.3043 327.919 43.1835 327.684 44.1413L303.623 142.114C303.497 142.627 303.085 143.019 302.567 143.119L247.714 153.719C246.746 153.906 245.909 153.027 246.145 152.069L270.205 54.0964Z" fill="#0088EB" stroke="black" stroke-width="2.70394"/>
<path d="M296.41 54.9522C296.522 54.4091 296.954 53.9895 297.5 53.8936L316.663 50.5279C317.603 50.3628 318.414 51.1976 318.221 52.1325L316.54 60.2856C316.428 60.8286 315.996 61.2483 315.45 61.3442L296.287 64.7098C295.346 64.8749 294.536 64.0401 294.729 63.1052L296.41 54.9522Z" fill="#CC4141"/>
<path d="M297.074 60.5856L298.35 55.2974L300.114 54.9925L299.225 58.6767L301.873 58.1591L301.46 59.8275L297.074 60.5856Z" fill="white"/>
<path d="M302.366 59.6709L303.641 54.3827L305.405 54.0778L304.129 59.366L302.366 59.6709Z" fill="white"/>
<path d="M309.421 58.4513L310.696 53.1631L313.938 52.6028L313.662 53.7467L312.216 53.9597L311.934 55.0406L313.404 54.8171L313.173 55.7725L311.703 55.996L311.463 56.9929L312.933 56.7694L312.662 57.891L309.421 58.4513Z" fill="white"/>
<path d="M305.998 58.9968L306.144 53.9501L307.455 53.7235L307.183 57.5243L308.933 53.468L310.22 53.2455L307.881 58.6713L305.998 58.9968Z" fill="white"/>
<path d="M316.67 50.584C317.186 50.4829 318.213 50.6325 318.188 52.0393L316.537 60.2556C316.428 60.5853 316.057 61.2065 315.374 61.4073C315.261 61.4407 315.139 61.4624 315.008 61.4693L296.278 64.6381C295.379 64.7902 294.957 64.176 294.859 63.8498C294.779 63.5206 294.833 62.8258 295.696 62.6799L313.684 59.6364L313.756 59.6243C314.043 59.5583 314.554 59.2485 314.761 58.4001L316.67 50.584Z" fill="#853434"/>
<path d="M229.094 37.9966C229.077 38.1563 229.052 38.3299 229.018 38.5136C228.557 42.2963 230.682 42.6909 232.073 42.7136C229.518 42.7678 227.357 46.0276 226.595 47.6508C227.512 44.5263 225.915 43.6885 224.785 43.3993C227.485 43.1638 228.683 40.3386 229.018 38.5136C229.038 38.3478 229.063 38.1756 229.094 37.9966Z" fill="black"/>
<path d="M229.094 37.9966C228.909 39.7437 227.757 43.1401 224.785 43.3993C225.915 43.6885 227.512 44.5263 226.595 47.6508C227.357 46.0276 229.518 42.7678 232.073 42.7136C230.621 42.6899 228.37 42.261 229.094 37.9966Z" stroke="black" stroke-width="2.02796" stroke-linejoin="round"/>
<path d="M341.67 99.4926C341.653 99.6523 341.628 99.8259 341.594 100.01C341.134 103.792 343.258 104.187 344.649 104.21C342.094 104.264 339.933 107.524 339.172 109.147C340.088 106.022 338.491 105.185 337.361 104.895C340.061 104.66 341.259 101.835 341.594 100.01C341.615 99.8438 341.64 99.6716 341.67 99.4926Z" fill="black"/>
<path d="M341.67 99.4926C341.485 101.24 340.333 104.636 337.361 104.895C338.491 105.185 340.088 106.022 339.172 109.147C339.933 107.524 342.094 104.264 344.649 104.21C343.197 104.186 340.946 103.757 341.67 99.4926Z" stroke="black" stroke-width="2.02796" stroke-linejoin="round"/>
<path d="M234.994 136.699C233.945 140.485 240.072 143.088 242.848 148.224L250.763 127.845C253.315 120.691 254.729 113.322 255.943 108.483C258.305 107.969 264.061 106.619 265.985 104.976C271.068 100.634 271.771 94.9727 269.45 93.6692C268.605 93.1944 265.458 95.7535 260.616 95.8562C256.847 95.9362 243.767 94.7467 242.896 98.0587C242.025 101.371 236.305 131.966 234.994 136.699Z" fill="#FFFAF7"/>
<path d="M251.237 127.902C253.935 124.787 255.737 109.851 255.943 108.483M255.943 108.483C258.776 107.991 264.933 106.398 266.904 103.957C268.876 101.515 270.009 99.6759 270.329 99.0614M255.943 108.483L251.782 109.159" stroke="black" stroke-width="1.17599" stroke-linecap="round"/>
<path d="M242.984 99.0045C243.12 98.0914 244.581 96.2822 249.343 96.3501C254.105 96.4181 255.807 95.9664 256.062 95.7321" stroke="black" stroke-width="1.17599" stroke-linecap="round"/>
<path d="M259.625 96.2889L257.308 97.926C260.745 97.3042 267.916 95.666 269.106 94.0881" stroke="black" stroke-width="1.17599" stroke-linecap="round" stroke-linejoin="round"/>
<path d="M227.591 144.879C229.703 144.483 234.271 141.876 235.652 134.615" stroke="black" stroke-width="1.35197" stroke-linecap="round"/>
<path d="M320.57 126.079C325.671 127.458 321.977 135.041 320.864 139.933C320.316 141.946 311.86 139.29 307.7 137.711C306.609 137.297 303.108 135.76 302.57 134.927C300.856 132.274 299.961 129.105 302.39 126.464C307.149 121.292 315.47 124.699 320.57 126.079Z" fill="#FFFAF7"/>
<path d="M327.227 111.551C326.769 114.423 325.44 121.014 323.781 124.403C322.253 126.328 316.774 122.41 314.226 120.21C311.45 117.903 305.542 108.349 313.922 105.883C318.625 104.498 325.467 107.193 327.227 111.551Z" fill="#FFFAF7"/>
<path d="M312.401 123.427L319.955 125.768C320.35 125.891 320.802 126.089 321.253 126.371M322.96 133.548C324.681 129.736 322.981 127.449 321.253 126.371M321.253 126.371C322.068 126.549 323.945 125.805 324.934 121.403M322.201 135.998L321.109 138.726" stroke="black" stroke-width="1.35197" stroke-linecap="round"/>
<path d="M305.333 124.929C306.15 125.205 307.557 126.505 306.647 129.499C309.478 130.16 315.064 131.052 314.757 129.327" stroke="black" stroke-width="1.35197" stroke-linecap="round" stroke-linejoin="round"/>
<path d="M313.185 106.236C314.183 106.553 316.099 107.838 315.776 110.441L321.047 110.329" stroke="black" stroke-width="1.35197" stroke-linecap="round" stroke-linejoin="round"/>
<path d="M311.302 116.283C312.062 118.115 314.833 121.442 319.835 120.091M317.619 101.68C319.568 102.179 324 102.248 326.139 98.5242M327.177 96.4737C327.046 95.6201 326.631 93.6996 326.018 92.8472" stroke="black" stroke-width="1.35197" stroke-linecap="round"/>
<path d="M272.398 44.9511C267.992 45.7437 263.56 49.9105 262.439 53.3763C261.425 56.5116 261.131 59.2046 263.529 61.2115C263.974 61.5838 264.136 62.2221 263.833 62.7171L254.382 78.1812C253.894 78.9803 254.61 79.9726 255.522 79.7614L281.548 73.7356C282.205 73.5835 282.553 72.8634 282.264 72.254L276.534 60.1596C276.311 59.6898 276.466 59.1298 276.887 58.8253C279.679 56.808 281.491 54.6848 282.32 49.5517C283.219 43.9784 276.804 44.1584 272.398 44.9511Z" fill="white"/>
<path d="M272.164 43.6513C269.662 44.1015 267.241 45.4842 265.317 47.1674C263.401 48.8439 261.839 50.942 261.183 52.9699C260.663 54.5772 260.268 56.2357 260.388 57.8166C260.511 59.4484 261.178 60.9393 262.619 62.1713L253.256 77.4925C252.157 79.2904 253.767 81.5232 255.82 81.0479L281.846 75.0222C283.324 74.68 284.107 73.0596 283.458 71.6886L277.817 59.7822C279.218 58.7539 280.46 57.6285 281.454 56.0654C282.482 54.4477 283.19 52.4495 283.623 49.7621C283.888 48.1199 283.639 46.7068 282.84 45.598C282.057 44.5127 280.887 43.9124 279.693 43.5894C277.351 42.9556 274.399 43.2493 272.164 43.6513Z" stroke="white" stroke-opacity="0.5" stroke-width="2.64117" stroke-linecap="round"/>
<path d="M261.938 55.0444C261.434 57.0276 261.295 61.1024 264.77 61.5359L261.534 65.8842" stroke="black" stroke-width="1.05647" stroke-linecap="round" stroke-linejoin="round"/>
<path d="M262.903 78.1129L276.626 74.9687M278.15 74.5666L280.463 74.042" stroke="black" stroke-width="1.05647" stroke-linecap="round"/>
<path d="M280.692 54.9108C281.084 54.3037 281.951 52.5276 282.284 50.2803C282.81 46.7292 281.078 45.7092 279.69 45.0518" stroke="black" stroke-width="1.05647" stroke-linecap="round"/>
<path d="M291.742 89.8555C296.283 84.4882 299.807 75.9719 302.342 67.6562M290.1 92.1216L285.651 95.9347" stroke="white" stroke-width="1.35197" stroke-linecap="round" stroke-linejoin="round"/>
<path d="M238.405 87.133C239.043 90.0806 240.482 94.3497 242.835 98.4657M258.244 110.783C261.177 110.923 268.702 109.763 275.342 103.997" stroke="white" stroke-width="1.35197" stroke-linejoin="round"/>
<path d="M241.957 50.5462L245.449 39.8568C245.294 38.936 246.249 36.7837 251.307 35.5405M254.438 34.4597L302.424 20.2451" stroke="white" stroke-width="1.35197" stroke-linecap="round"/>
<path d="M307.046 49.5036L309.154 37.2884L311.348 23.8049C311.794 21.296 310.695 17.0704 302.724 20.2388" stroke="white" stroke-width="1.35197"/>
<path d="M270.402 150.792C271.452 150.77 273.987 151.526 275.735 154.728" stroke="black" stroke-width="1.49929" stroke-linecap="square"/>
<path d="M400.722 73.1991C403.224 36.3023 428.655 42.8165 441.058 50.6858C456.536 59.7536 491.119 81.7041 505.628 96.9631C523.764 116.037 498.749 131.202 470.294 147.462C441.84 163.721 397.595 119.32 400.722 73.1991Z" fill="#2F9DED"/>
<path d="M554.532 117.811C538.76 151.261 517.45 135.929 508.766 124.081C497.655 109.998 473.446 76.9566 465.494 57.4605C455.554 33.0903 484.374 28.0808 516.797 23.3053C549.219 18.5297 574.247 75.9989 554.532 117.811Z" fill="#2F9DED" fill-opacity="0.5"/>
<path d="M462.791 20.668C438.219 15.4373 426.48 43.1813 424.487 58.1902C416.915 115.21 439.443 130.577 461.696 130.577C474.762 130.577 495.386 119.068 507.884 112.969C520.383 106.869 521.45 108.648 535.817 101.678C550.184 94.7066 546.448 69.1104 535.817 67.8034C525.187 66.4963 520.917 62.1758 507.884 51.5379C494.852 40.9001 482.959 24.9613 462.791 20.668Z" fill="white"/>
<path d="M513.065 74.8862C513.229 102.671 504.534 109.158 496.874 118.382C504.222 116.506 511.233 110.641 527.467 105.727C548.494 99.3626 546.437 82.9795 543.556 75.1612C545.334 89.9649 537.535 84.2236 533.351 79.64C515.345 59.776 512.324 68.1941 513.065 74.8862Z" fill="#E4E4E4"/>
<path d="M489.6 75.8413C491.358 33.1191 467.32 23.1506 455.082 23.5066C444.323 25.6823 427.721 34.4196 426.24 75.8413C424.501 124.507 457.92 127.622 461.079 126.238C464.238 124.853 487.526 126.238 489.6 75.8413Z" fill="#0088EB"/>
<path d="M489.617 78.7173C491.068 38.3936 471.228 28.9847 461.127 29.3208C452.247 31.3743 438.544 39.6211 437.322 78.7173C435.887 124.651 458.52 127.739 461.127 126.432C463.734 125.125 487.905 126.284 489.617 78.7173Z" fill="#0078CF"/>
<path d="M489.636 81.3539C490.722 51.9612 475.869 45.1029 468.306 45.3479C461.659 46.8447 451.4 52.8559 450.485 81.3539C449.41 114.835 466.355 117.087 468.307 116.134C470.258 115.181 488.354 116.026 489.636 81.3539Z" fill="#006BB8"/>
<path d="M526.265 85.5501C524.151 79.8641 524.426 77.1685 523.753 75.0979C523.672 74.8493 524.046 74.5432 524.264 74.6877C529.376 78.0792 530.898 74.6386 531.104 72.4914C531.123 72.2906 531.366 72.1842 531.517 72.3186C535.002 75.4319 537.034 78.654 538.684 77.3283C538.769 77.26 538.89 77.243 538.976 77.3099C539.527 77.7382 540.357 78.9649 540.961 84.9247C541.266 87.9263 538.984 92.2236 534.065 95.0093C533.981 95.0564 533.876 95.0472 533.802 94.9874C529.544 91.5728 527.587 89.1054 526.265 85.5501Z" fill="#0078CF"/>
<path d="M533.585 83.024C533.602 83.0331 533.619 83.0419 533.635 83.0506L532.588 86.2837C532.572 86.3313 532.581 86.3834 532.61 86.4238C532.64 86.4643 532.687 86.4882 532.737 86.4882H537.522C537.578 86.4882 537.63 86.4582 537.658 86.4095C537.686 86.3608 537.685 86.301 537.657 86.2526L535.67 82.873C535.955 82.6313 536.156 82.2871 536.156 81.8159C536.156 81.1712 535.781 80.7695 535.338 80.5374C534.901 80.3086 534.385 80.2345 534.042 80.2345C533.672 80.2345 533.256 80.4051 532.934 80.679C532.611 80.954 532.363 81.3505 532.363 81.8159C532.363 81.9931 532.435 82.1493 532.537 82.2817C532.638 82.4134 532.774 82.5293 532.916 82.6305C533.132 82.7844 533.385 82.918 533.585 83.024Z" fill="white" stroke="white" stroke-width="0.312685" stroke-linejoin="round"/>
<path d="M534.7 102.045C527.4 91.9567 516.053 103.671 511.239 110.873C511.221 110.901 511.207 110.927 511.196 110.958C508.024 119.951 502.038 140.135 503.353 149.298C504.999 160.77 526.149 165.131 521.582 154.052C517.945 145.231 528.788 116.093 534.746 102.427C534.801 102.302 534.78 102.156 534.7 102.045Z" fill="#0088EB"/>
<path d="M505.548 131.046C502.273 136.935 498.343 150.276 508.823 156.53C521.923 164.347 522.742 156.061 521.759 153.716" stroke="white" stroke-width="0.938055" stroke-linecap="round"/>
<path d="M505.74 129.457C507.517 117.828 503.888 116.44 502.407 116.374C506.275 112.917 513.188 107.259 515.039 105.649C516.891 104.038 521.541 103.173 521.376 111.345C521.212 119.517 503.518 143.994 505.74 129.457Z" fill="#0065AE"/>
<path d="M525.738 126.118C527.658 119.151 532.412 104.407 535.079 102.27C538.412 99.5983 543.185 98.6947 545.16 87.5762" stroke="black" stroke-width="0.942912" stroke-linecap="round"/>
<path d="M524.914 128.829C523.159 134.552 519.845 146.98 520.635 150.909" stroke="black" stroke-width="0.942912" stroke-linecap="round"/>
<path d="M475.785 62.9427C478.14 65.8286 484.25 71.4472 489.856 70.8347L488.293 90.8591C485.605 90.4369 478.659 90.485 471.246 93.7277C470.688 94.0458 470.161 94.2856 469.693 94.4517C470.212 94.1943 470.73 93.9532 471.246 93.7277C474.714 91.7519 479.391 86.7569 478.481 77.6666C478.517 74.3095 478.028 66.6649 475.785 62.9427Z" fill="#E4E4E4"/>
<path d="M512.941 48.0918C512.984 48.4946 512.995 48.9785 512.953 49.5031C513.269 53.1211 515.823 54.0792 517.639 54.1055C517.873 54.074 518.117 54.0594 518.372 54.0636C518.149 54.0935 517.902 54.1092 517.639 54.1055C514.373 54.5456 513.145 58.2886 512.941 60.2318C512.941 56.4916 509.511 55.3994 507.797 55.3208C511.595 54.8101 512.77 51.7753 512.953 49.5031C512.915 49.0715 512.909 48.602 512.941 48.0918Z" fill="#0088EB"/>
<path d="M512.941 48.0918C513.174 50.2395 512.471 54.6922 507.797 55.3208C509.511 55.3994 512.941 56.4916 512.941 60.2318C513.16 58.1495 514.554 54.0007 518.372 54.0636C516.424 54.3255 512.611 53.4978 512.941 48.0918Z" stroke="#0088EB" stroke-width="0.942912" stroke-linecap="round" stroke-linejoin="round"/>
<path d="M509.769 53.0474C509.606 53.2482 509.636 53.5437 509.837 53.7073C510.037 53.8709 510.333 53.8407 510.496 53.6399L509.769 53.0474ZM512.589 48.497L513.032 48.3424L512.449 46.6733L512.128 48.4118L512.589 48.497ZM517.993 52.8746L518.287 53.2394C518.442 53.1145 518.501 52.9057 518.435 52.7183C518.369 52.5309 518.192 52.4056 517.993 52.4056V52.8746ZM514.089 56.7223C514.055 56.9791 514.236 57.2146 514.493 57.2482C514.75 57.2818 514.985 57.1009 515.019 56.844L514.089 56.7223ZM510.496 53.6399C511.258 52.7055 512.535 51.3711 513.05 48.5823L512.128 48.4118C511.661 50.9386 510.536 52.1057 509.769 53.0474L510.496 53.6399ZM512.146 48.6516C512.546 49.7962 512.943 50.9986 513.783 51.8874C514.655 52.8096 515.942 53.3436 517.993 53.3436V52.4056C516.114 52.4056 515.108 51.9234 514.465 51.2431C513.79 50.5294 513.451 49.5429 513.032 48.3424L512.146 48.6516ZM517.698 52.5098C517.536 52.6406 517.278 52.8112 516.922 53.0628C516.582 53.3035 516.182 53.5981 515.794 53.9426C515.031 54.6204 514.242 55.5504 514.089 56.7223L515.019 56.844C515.128 56.0147 515.704 55.2771 516.417 54.6442C516.767 54.3334 517.134 54.0619 517.464 53.8287C517.778 53.6063 518.095 53.3953 518.287 53.2394L517.698 52.5098Z" fill="white"/>
<path d="M454.364 74.5849C454.923 65.0284 460.329 57.7973 468.39 58.6966C477.741 59.7398 479.138 73.7022 478.547 79.9399C478.203 83.5688 475.753 95.5929 466.24 95.0633C459.147 94.6683 453.665 86.5306 454.364 74.5849Z" fill="white"/>
<path d="M471.702 93.5713C475.391 91.3332 479.16 86.076 478.61 73.6349C478.351 67.8009 476.701 64.0855 474.516 61.8013C486.085 71.8224 485.772 90.8658 481.864 91.0222C478.737 91.1472 473.786 92.7737 471.702 93.5713Z" fill="black"/>
<path d="M463.932 58.8739C466.712 58.1667 471.221 58.3567 474.516 61.8013M467.008 95.1588C468.25 95.0084 469.967 94.6234 471.702 93.5713M471.702 93.5713C475.391 91.3332 479.16 86.076 478.61 73.6349C478.351 67.8009 476.701 64.0855 474.516 61.8013M471.702 93.5713C473.786 92.7737 478.737 91.1472 481.864 91.0222C485.772 90.8658 486.085 71.8224 474.516 61.8013" stroke="black" stroke-width="0.942912" stroke-linecap="round"/>
<path d="M458.418 23.4189C469.776 24.1785 491.938 36.0775 489.733 77.5971C487.527 119.117 467.938 127.375 458.418 126.314C452.082 126.367 437.531 121.969 430.026 103.959M427.845 96.3767C426.446 86.8036 425.154 63.4613 431.178 46.6774C437.202 29.8936 449.133 24.1785 454.345 23.4189" stroke="black" stroke-width="0.942912" stroke-linecap="round"/>
<ellipse cx="464.979" cy="76.326" rx="7.19175" ry="11.5693" fill="#E4E4E4"/>
<path d="M394 39.0796L403.53 44.582M413.061 50.0844L403.53 44.582M403.53 44.582L409.033 35.0516M403.53 44.582L398.028 54.1124" stroke="white" stroke-opacity="0.5" stroke-width="5.24406" stroke-linecap="round"/>
<path d="M64.5877 308.866L2.44425 229.513C1.45182 228.246 2.3547 226.392 3.96433 226.392H147.044C147.638 226.392 148.198 226.665 148.564 227.132L210.708 306.485C211.7 307.752 210.797 309.606 209.187 309.606H66.1077C65.5142 309.606 64.9536 309.333 64.5877 308.866Z" fill="#2F9DED"/>
<path d="M70.0381 291.12L6.4733 209.952C5.45817 208.656 6.3817 206.76 8.02814 206.76H154.38C154.988 206.76 155.561 207.039 155.935 207.517L219.5 288.685C220.515 289.981 219.592 291.877 217.945 291.877H71.5929C70.9858 291.877 70.4124 291.598 70.0381 291.12Z" fill="#0088EB"/>
<path d="M6.84621 210.748L5.06693 208.773C3.92214 207.502 4.82385 205.476 6.53414 205.476H152.587C153.146 205.476 153.68 205.713 154.054 206.129L155.833 208.104C156.978 209.374 156.076 211.401 154.366 211.401H8.31344C7.75395 211.401 7.22071 211.163 6.84621 210.748Z" fill="black"/>
<path d="M69.1245 271.865L30.0734 221.999C29.0583 220.703 29.9818 218.807 31.6282 218.807H122.314C122.921 218.807 123.494 219.086 123.869 219.564L162.92 269.43C163.935 270.726 163.012 272.622 161.365 272.622H70.6793C70.0722 272.622 69.4988 272.343 69.1245 271.865Z" fill="white"/>
<path d="M141.82 232.828H168.975M143.696 236.383H157.027M160.335 236.383H174.159M146.264 239.691H153.472M156.385 239.691H176.825M170.357 232.828H171.493" stroke="white" stroke-width="0.987441" stroke-linecap="round"/>
<path d="M130.069 219.498H157.224M131.945 223.052H145.276M148.584 223.052H162.408M134.513 226.36H141.721M144.634 226.36H165.074M158.606 219.498H159.742" stroke="white" stroke-width="0.987441" stroke-linecap="round"/>
<path d="M153.769 247.344H180.923M155.645 250.898H168.975M172.283 250.898H186.107M158.212 254.206H165.42M168.333 254.206H188.773M182.306 247.344H183.441" stroke="white" stroke-width="0.987441" stroke-linecap="round"/>
<path d="M110.799 228.892L106.754 224.251C105.641 222.974 106.548 220.979 108.243 220.979H120.005C120.576 220.979 121.119 221.226 121.494 221.656L125.539 226.297C126.653 227.575 125.745 229.57 124.05 229.57H112.288C111.717 229.57 111.174 229.323 110.799 228.892Z" fill="#CC4141"/>
<path d="M118.856 240.479C124.011 230.545 132.997 229.538 136.845 230.276C152.74 233.928 149.532 250.134 142.148 256.119C124.427 270.484 107.02 251.421 103.082 241.889C106.371 241.889 112.412 252.897 118.856 240.479Z" fill="white"/>
<path d="M148.189 242.158C148.905 247.729 146.108 259.18 129.193 260.416" stroke="black" stroke-width="1.3425" stroke-linecap="round" stroke-linejoin="round"/>
<path d="M152.754 206.946C137.45 223.379 129.684 234.321 136.692 240.614C146.935 249.81 160.259 233.608 172.556 222.654C187.928 208.96 191.975 183.124 179.067 180.298C169.871 178.284 171.885 186.406 152.754 206.946Z" fill="black"/>
<path d="M111.212 256.009C101.815 260.359 87.6516 243.278 81.7446 234.193C79.0931 230.367 82.483 228.085 85.9734 231.911C89.4639 235.737 94.7668 236.408 96.3778 236.274C97.9888 236.14 101.479 242.92 104.567 242.651C107.655 242.383 101.479 234.193 104.567 233.186C107.655 232.18 122.959 250.572 111.212 256.009Z" fill="black"/>
<path d="M123.219 261.892C111.699 263.251 100.598 243.03 102.075 240.882C103.552 238.734 110.533 245.406 113.486 244.977C117.178 244.44 119.192 237.593 121.071 236.788C122.951 235.982 122.481 237.392 121.675 238.734C120.87 240.077 120.064 242.426 125.77 242.09C131.476 241.755 120.534 249.364 120.064 252.495C119.058 259.207 138.59 260.08 123.219 261.892Z" fill="black"/>
<path d="M110.465 254.844C109.19 253.547 106.424 250.683 105.565 249.609M104.088 247.729C103.932 247.416 103.511 246.561 103.082 245.648" stroke="white" stroke-width="1.3425" stroke-linecap="round" stroke-linejoin="round"/>
<path d="M122.078 236.452C122.861 235.109 125.367 232.183 129.126 231.216" stroke="black" stroke-width="1.3425" stroke-linecap="round" stroke-linejoin="round"/>
<path d="M131.408 230.342C132.795 230.141 136.053 229.859 137.986 230.342" stroke="black" stroke-width="1.3425" stroke-linecap="round" stroke-linejoin="round"/>
<path d="M41.1504 254.157L67.8607 288.421C70.2305 290.84 69.9837 291.828 76.1058 291.828H142.067" stroke="white" stroke-width="0.987441"/>
<path d="M197.709 260.674L210.026 276.706C210.094 276.794 210.222 276.809 210.305 276.735C211.288 275.861 212.907 273.867 212.57 271.881M216.372 279.929C215.227 278.713 213.212 278.647 212.097 278.792C211.951 278.811 211.887 278.98 211.977 279.096L218.001 286.841C219.844 288.8 221.615 292.549 213.953 291.877H160.334M217.655 280.867L220.472 282.979C220.607 283.081 220.8 282.978 220.794 282.809C220.738 281.179 220.891 278.389 221.901 277.559" stroke="white" stroke-width="0.987441" stroke-linecap="round"/>
<path d="M479.591 282.685L493.764 257.504C494.469 256.252 496.272 256.252 496.977 257.504L511.151 282.685C511.842 283.913 510.954 285.432 509.544 285.432H481.197C479.787 285.432 478.899 283.913 479.591 282.685Z" fill="black"/>
<rect x="418.346" y="180.667" width="156.721" height="86.5865" rx="1.17575" fill="#0088EB" stroke="black" stroke-width="1.33493"/>
<path d="M468.463 183.963L469.696 186.605L472.338 187.837L469.696 189.07L468.463 191.712L467.231 189.07L464.589 187.837L467.231 186.605L468.463 183.963Z" fill="#0081DE"/>
<path d="M467.878 194.1L469.073 194.936L470.525 194.81L469.689 196.004L469.816 197.456L468.621 196.62L467.169 196.747L468.005 195.553L467.878 194.1Z" fill="#0081DE"/>
<path d="M428.278 258.429V223.868C428.278 222.851 429.103 222.025 430.121 222.025H501.269C502.287 222.025 503.112 222.851 503.112 223.868V258.429C503.112 259.447 502.287 260.272 501.269 260.272H430.121C429.103 260.272 428.278 259.447 428.278 258.429Z" fill="#2F9DED" fill-opacity="0.5"/>
<path d="M481.362 250.368V190.312C481.362 189.096 482.348 188.11 483.564 188.11H568.501C569.717 188.11 570.703 189.096 570.703 190.312V250.368C570.703 251.584 569.717 252.57 568.501 252.57H483.564C482.348 252.57 481.362 251.584 481.362 250.368Z" fill="#2F9DED" fill-opacity="0.8"/>
<path d="M481.362 190.367C481.362 189.151 482.348 188.165 483.564 188.165H568.556C569.772 188.165 570.758 189.151 570.758 190.367V193.78H481.362V190.367Z" fill="black"/>
<path d="M558.537 190.697H556.556" stroke="white" stroke-width="0.330281" stroke-linecap="round"/>
<path d="M561.62 190.433V189.927C561.62 189.866 561.669 189.817 561.73 189.817H563.492C563.553 189.817 563.602 189.866 563.602 189.927V190.433M561.62 190.433V191.468C561.62 191.529 561.669 191.578 561.73 191.578H563.492C563.553 191.578 563.602 191.529 563.602 191.468V190.433M561.62 190.433H563.602" stroke="white" stroke-width="0.330281" stroke-linecap="round"/>
<path d="M566.684 189.817L567.565 190.697L568.446 191.578M568.446 189.817L566.684 191.578" stroke="white" stroke-width="0.330281" stroke-linecap="round"/>
<rect x="487.528" y="200.275" width="55.0468" height="36.9915" rx="2.20187" fill="white"/>
<circle cx="548.079" cy="202.918" r="1.43122" fill="white"/>
<circle cx="548.079" cy="209.633" r="1.43122" fill="white"/>
<path d="M550.776 201.817H557.657M550.776 202.973H561.235M550.776 203.964H564.317M562.501 202.973H565.859M565.859 203.964H565.088M550.776 204.9H554.354M551.602 208.973H561.235M551.602 210.019H563.767M565.088 210.019H566.794M551.602 211.01H553.914M554.959 211.01H565.859" stroke="white" stroke-width="0.330281" stroke-linecap="round"/>
<circle cx="548.079" cy="216.349" r="1.43122" fill="white"/>
<rect x="517.819" y="202.211" width="21.4591" height="12.7634" rx="2.99836" fill="#CC4141"/>
<path d="M522.775 209.983H524.315V211.192H521.178V206.097H522.775V209.983ZM526.415 206.097V211.192H524.818V206.097H526.415ZM532.268 206.097L530.555 211.192H528.49L526.777 206.097H528.475L529.526 209.602L530.569 206.097H532.268ZM534.223 207.371V207.997H535.806V209.199H534.223V209.918H536.022V211.192H532.625V206.097H536.022V207.371H534.223Z" fill="white"/>
<path d="M472.976 192.766L475.488 194.217M478 195.667L475.488 194.217M475.488 194.217L476.938 191.704M475.488 194.217L474.037 196.729" stroke="white" stroke-opacity="0.5" stroke-width="1.38241" stroke-linecap="round"/>
<rect x="352" y="245.365" width="117.389" height="64.7299" fill="#0088EB"/>
<path d="M469.389 286.154V248.972C469.389 245.626 466.485 244.673 465.032 244.615H356.973C355.366 244.538 352.151 245.394 352.151 249.437V276.394M469.389 292.777V301.143V305.674C469.389 310.276 467.298 310.032 465.032 310.032H376.726H357.845C353.429 310.032 352.151 309.102 352.151 304.338V283.482" stroke="black" stroke-width="1.16192" stroke-linecap="round"/>
<rect width="16.0345" height="3.48577" transform="translate(402.927 246.881)" fill="#0088EB"/>
<circle cx="404.67" cy="248.624" r="1.74288" fill="black"/>
<path d="M408.271 248.624H418.961" stroke="black" stroke-width="1.16192" stroke-linecap="round"/>
<path d="M419.815 244.625H464.936C466.449 244.49 469.474 245.244 469.474 249.337C469.474 253.429 469.474 259.194 469.474 265.969" stroke="white" stroke-width="1.33493" stroke-linecap="square" stroke-linejoin="round"/>
<rect x="436.647" y="250.344" width="25.1148" height="14.9377" rx="3.50915" fill="#CC4141"/>
<path d="M442.448 259.078H444.25V260.493H440.578V254.53H442.448V259.078ZM446.708 254.53V260.493H444.838V254.53H446.708ZM453.557 254.53L451.553 260.493H449.136L447.131 254.53H449.119L450.348 258.631L451.57 254.53H453.557ZM455.845 256.021V256.753H457.698V258.16H455.845V259.002H457.951V260.493H453.976V254.53H457.951V256.021H455.845Z" fill="white"/>
<path d="M408.569 265.568L382.156 271.473C381.476 271.624 380.952 272.166 380.822 272.85L378.467 285.269C378.293 286.183 378.867 287.072 379.772 287.29L408.54 294.232C409.638 294.497 410.694 293.665 410.694 292.536V267.271C410.694 266.154 409.659 265.325 408.569 265.568Z" fill="#BFDCFF"/>
<path d="M382.054 260.906C376.376 265.878 371.914 268.321 366.032 268.321C366.032 286.465 373.185 291.786 382.054 297.369C390.631 293.007 398.482 286.988 398.482 268.321C393.006 268.321 387.733 265.791 382.054 260.906Z" fill="#0081DE" stroke="white" stroke-width="5.19951" stroke-linejoin="round"/>
<path d="M382.054 260.906C376.376 265.878 371.914 268.321 366.032 268.321C366.032 286.465 373.185 291.786 382.054 297.369C390.631 293.007 398.482 286.988 398.482 268.321C393.006 268.321 387.733 265.791 382.054 260.906Z" fill="#0081DE" stroke="#0081DE" stroke-width="3.48923" stroke-linejoin="round"/>
<mask id="mask0_2208_3202" style="mask-type:alpha" maskUnits="userSpaceOnUse" x="378" y="265" width="33" height="30">
<path d="M408.569 265.568L382.156 271.473C381.476 271.624 380.952 272.166 380.822 272.85L378.467 285.269C378.293 286.183 378.867 287.072 379.772 287.29L408.54 294.232C409.638 294.497 410.694 293.665 410.694 292.536V267.271C410.694 266.154 409.659 265.325 408.569 265.568Z" fill="#7AB7FF"/>
</mask>
<g mask="url(#mask0_2208_3202)">
<path d="M382.054 260.906C376.376 265.878 371.914 268.321 366.032 268.321C366.032 286.465 373.185 291.786 382.054 297.369C390.631 293.007 398.482 286.988 398.482 268.321C393.006 268.321 387.733 265.791 382.054 260.906Z" fill="#76B5FF" stroke="#76B5FF" stroke-width="3.48923" stroke-linejoin="round"/>
</g>
<path fill-rule="evenodd" clip-rule="evenodd" d="M385.11 279.862C385.081 279.732 385.131 279.597 385.232 279.509C386.188 278.677 386.793 277.451 386.793 276.084C386.793 273.579 384.762 271.548 382.257 271.548C379.752 271.548 377.721 273.579 377.721 276.084C377.721 277.493 378.363 278.752 379.371 279.584C379.477 279.671 379.529 279.809 379.5 279.943L378.042 286.547C377.993 286.764 378.159 286.971 378.382 286.971H386.245C386.468 286.971 386.634 286.764 386.586 286.547L385.11 279.862Z" fill="white"/>
<path d="M126.29 52.6952L55.3214 68.5588C53.4955 68.967 52.0872 70.4218 51.7385 72.26L45.41 105.629C44.9443 108.084 46.4866 110.473 48.9159 111.059L126.213 129.71C129.162 130.421 132 128.187 132 125.153V57.2698C132 54.2686 129.219 52.0405 126.29 52.6952Z" fill="#BFDCFF"/>
<path d="M55.0486 40.169C39.7909 53.5283 27.8027 60.0908 12 60.0908C12 108.841 31.2187 123.137 55.0486 138.137C78.0934 126.419 99.1871 110.247 99.1871 60.0908C84.4743 60.0908 70.3064 53.2939 55.0486 40.169Z" fill="#0081DE"/>
<path d="M55.0486 40.169C39.7909 53.5283 27.8027 60.0908 12 60.0908C12 108.841 31.2187 123.137 55.0486 138.137C78.0934 126.419 99.1871 110.247 99.1871 60.0908C84.4743 60.0908 70.3064 53.2939 55.0486 40.169Z" fill="#0081DE" stroke="#0081DE" stroke-width="9.37496" stroke-linejoin="round"/>
<mask id="mask1_2208_3202" style="mask-type:alpha" maskUnits="userSpaceOnUse" x="45" y="52" width="87" height="78">
<path d="M126.29 52.6952L55.3214 68.5588C53.4955 68.967 52.0872 70.4218 51.7385 72.26L45.41 105.629C44.9443 108.084 46.4866 110.473 48.9159 111.059L126.213 129.71C129.162 130.421 132 128.187 132 125.153V57.2698C132 54.2686 129.219 52.0405 126.29 52.6952Z" fill="#7AB7FF"/>
</mask>
<g mask="url(#mask1_2208_3202)">
<path d="M55.0486 40.169C39.7909 53.5283 27.8027 60.0908 12 60.0908C12 108.841 31.2187 123.137 55.0486 138.137C78.0934 126.419 99.1871 110.247 99.1871 60.0908C84.4743 60.0908 70.3064 53.2939 55.0486 40.169Z" fill="#76B5FF" stroke="#76B5FF" stroke-width="9.37496" stroke-linejoin="round"/>
</g>
<path fill-rule="evenodd" clip-rule="evenodd" d="M63.2594 91.1009C63.1818 90.7497 63.3141 90.3875 63.5855 90.1516C66.156 87.9171 67.7811 84.6234 67.7811 80.95C67.7811 74.2191 62.3246 68.7626 55.5937 68.7626C48.8628 68.7626 43.4062 74.2191 43.4062 80.95C43.4062 84.7347 45.1314 88.1165 47.8382 90.3518C48.1225 90.5866 48.2635 90.9573 48.184 91.3174L44.2668 109.06C44.1376 109.645 44.583 110.2 45.1822 110.2H66.309C66.9082 110.2 67.3536 109.645 67.2244 109.06L63.2594 91.1009Z" fill="white"/>
<defs>
<filter id="filter0_d_2208_3202" x="216.231" y="108.383" width="107.6" height="86.9121" filterUnits="userSpaceOnUse" color-interpolation-filters="sRGB">
<feFlood flood-opacity="0" result="BackgroundImageFix"/>
<feColorMatrix in="SourceAlpha" type="matrix" values="0 0 0 0 0 0 0 0 0 0 0 0 0 0 0 0 0 0 127 0" result="hardAlpha"/>
<feOffset dy="0.549758"/>
<feGaussianBlur stdDeviation="0.274879"/>
<feComposite in2="hardAlpha" operator="out"/>
<feColorMatrix type="matrix" values="0 0 0 0 0 0 0 0 0 0 0 0 0 0 0 0 0 0 0.25 0"/>
<feBlend mode="normal" in2="BackgroundImageFix" result="effect1_dropShadow_2208_3202"/>
<feBlend mode="normal" in="SourceGraphic" in2="effect1_dropShadow_2208_3202" result="shape"/>
</filter>
</defs>
</svg>
